<?xml version="1.0"?>
<!-- Generated by SVGo -->
<svg width="106.200mm" height="153.825mm"
     viewBox="0.000 0.000 106.200 153.825"
     xmlns="http://www.w3.org/2000/svg" 
     xmlns:xlink="http://www.w3.org/1999/xlink">
<polygon points="99.200,5.000 99.357,5.006 99.513,5.025 99.667,5.055 99.818,5.098 99.965,5.152 100.108,5.218 100.245,5.295 100.376,5.382 100.499,5.479 100.614,5.586 100.721,5.701 100.818,5.824 100.905,5.955 100.982,6.092 101.048,6.235 101.102,6.382 101.145,6.533 101.175,6.687 101.194,6.843 101.200,7.000 101.200,146.825 101.194,146.982 101.175,147.138 101.145,147.292 101.102,147.443 101.048,147.590 100.982,147.733 100.905,147.870 100.818,148.001 100.721,148.124 100.614,148.239 100.499,148.346 100.376,148.443 100.245,148.530 100.108,148.607 99.965,148.673 99.818,148.727 99.667,148.770 99.513,148.800 99.357,148.819 99.200,148.825 7.000,148.825 6.843,148.819 6.687,148.800 6.533,148.770 6.382,148.727 6.235,148.673 6.092,148.607 5.955,148.530 5.824,148.443 5.701,148.346 5.586,148.239 5.479,148.124 5.382,148.001 5.295,147.870 5.218,147.733 5.152,147.590 5.098,147.443 5.055,147.292 5.025,147.138 5.006,146.982 5.000,146.825 5.000,7.000 5.006,6.843 5.025,6.687 5.055,6.533 5.098,6.382 5.152,6.235 5.218,6.092 5.295,5.955 5.382,5.824 5.479,5.701 5.586,5.586 5.701,5.479 5.824,5.382 5.955,5.295 6.092,5.218 6.235,5.152 6.382,5.098 6.533,5.055 6.687,5.025 6.843,5.006 7.000,5.000" style="fill:none;stroke-width:0.2;stroke:black"/>
<rect x="15.000" y="15.000" width="76.200" height="123.825" style="fill:none;stroke-width:0.2;stroke:black"/>
<polygon points="96.200,8.500 96.664,8.573 97.082,8.786 97.414,9.118 97.627,9.536 97.700,10.000 97.627,10.464 97.414,10.882 97.082,11.214 96.664,11.427 96.200,11.500 95.736,11.427 95.318,11.214 94.986,10.882 94.773,10.464 94.700,10.000 94.773,9.536 94.986,9.118 95.318,8.786 95.736,8.573" style="fill:none;stroke-width:0.2;stroke:black"/>
<polygon points="96.200,142.325 96.664,142.398 97.082,142.611 97.414,142.943 97.627,143.361 97.700,143.825 97.627,144.289 97.414,144.707 97.082,145.039 96.664,145.252 96.200,145.325 95.736,145.252 95.318,145.039 94.986,144.707 94.773,144.289 94.700,143.825 94.773,143.361 94.986,142.943 95.318,142.611 95.736,142.398" style="fill:none;stroke-width:0.2;stroke:black"/>
<polygon points="10.000,142.325 10.464,142.398 10.882,142.611 11.214,142.943 11.427,143.361 11.500,143.825 11.427,144.289 11.214,144.707 10.882,145.039 10.464,145.252 10.000,145.325 9.536,145.252 9.118,145.039 8.786,144.707 8.573,144.289 8.500,143.825 8.573,143.361 8.786,142.943 9.118,142.611 9.536,142.398" style="fill:none;stroke-width:0.2;stroke:black"/>
<polygon points="10.000,8.500 10.464,8.573 10.882,8.786 11.214,9.118 11.427,9.536 11.500,10.000 11.427,10.464 11.214,10.882 10.882,11.214 10.464,11.427 10.000,11.500 9.536,11.427 9.118,11.214 8.786,10.882 8.573,10.464 8.500,10.000 8.573,9.536 8.786,9.118 9.118,8.786 9.536,8.573" style="fill:none;stroke-width:0.2;stroke:black"/>
</svg>
