  0
SECTION
  2
HEADER
  9
$ACADVER
  1
AC1009
  9
$EXTMIN
 10
0.0
 20
0.0
 30
0.0
  9
$EXTMAX
 10
1000.0
 20
1000.0
 30
0.0
  9
$FILLMODE
 70
 0
  9
$SPLFRAME
 70
 1
  0
ENDSEC
  0
SECTION
  2
TABLES
  0
TABLE
  2
LAYER
 70
1
  0
LAYER
  2
0
 70
     0
 62
     7
  6
CONTINUOUS
  0
ENDTAB
  0
ENDSEC
  0
SECTION
  2
ENTITIES
  0
LINE
  8
0
 62
     0
 10
88.2936
 20
137.938
 30
0.0
 11
88.4509
 21
137.932
 31
0.0
  0
LINE
  8
0
 62
     0
 10
88.4509
 20
137.932
 30
0.0
 11
88.6065
 21
137.913
 31
0.0
  0
LINE
  8
0
 62
     0
 10
88.6065
 20
137.913
 30
0.0
 11
88.7607
 21
137.882
 31
0.0
  0
LINE
  8
0
 62
     0
 10
88.7607
 20
137.882
 30
0.0
 11
88.9123
 21
137.84
 31
0.0
  0
LINE
  8
0
 62
     0
 10
88.9123
 20
137.84
 30
0.0
 11
89.0584
 21
137.786
 31
0.0
  0
LINE
  8
0
 62
     0
 10
89.0584
 20
137.786
 30
0.0
 11
89.2016
 21
137.72
 31
0.0
  0
LINE
  8
0
 62
     0
 10
89.2016
 20
137.72
 30
0.0
 11
89.3382
 21
137.643
 31
0.0
  0
LINE
  8
0
 62
     0
 10
89.3382
 20
137.643
 30
0.0
 11
89.469
 21
137.556
 31
0.0
  0
LINE
  8
0
 62
     0
 10
89.469
 20
137.556
 30
0.0
 11
89.5932
 21
137.458
 31
0.0
  0
LINE
  8
0
 62
     0
 10
89.5932
 20
137.458
 30
0.0
 11
89.7075
 21
137.352
 31
0.0
  0
LINE
  8
0
 62
     0
 10
89.7075
 20
137.352
 30
0.0
 11
89.8151
 21
137.236
 31
0.0
  0
LINE
  8
0
 62
     0
 10
89.8151
 20
137.236
 30
0.0
 11
89.9114
 21
137.113
 31
0.0
  0
LINE
  8
0
 62
     0
 10
89.9114
 20
137.113
 30
0.0
 11
89.9982
 21
136.983
 31
0.0
  0
LINE
  8
0
 62
     0
 10
89.9982
 20
136.983
 30
0.0
 11
90.0755
 21
136.846
 31
0.0
  0
LINE
  8
0
 62
     0
 10
90.0755
 20
136.846
 30
0.0
 11
90.1418
 21
136.703
 31
0.0
  0
LINE
  8
0
 62
     0
 10
90.1418
 20
136.703
 30
0.0
 11
90.1954
 21
136.555
 31
0.0
  0
LINE
  8
0
 62
     0
 10
90.1954
 20
136.555
 30
0.0
 11
90.2381
 21
136.405
 31
0.0
  0
LINE
  8
0
 62
     0
 10
90.2381
 20
136.405
 30
0.0
 11
90.2684
 21
136.251
 31
0.0
  0
LINE
  8
0
 62
     0
 10
90.2684
 20
136.251
 30
0.0
 11
90.2878
 21
136.095
 31
0.0
  0
LINE
  8
0
 62
     0
 10
90.2878
 20
136.095
 30
0.0
 11
90.2931
 21
135.938
 31
0.0
  0
LINE
  8
0
 62
     0
 10
90.2931
 20
135.938
 30
0.0
 11
90.2931
 21
2.11253
 31
0.0
  0
LINE
  8
0
 62
     0
 10
90.2931
 20
2.11253
 30
0.0
 11
90.2878
 21
1.95544
 31
0.0
  0
LINE
  8
0
 62
     0
 10
90.2878
 20
1.95544
 30
0.0
 11
90.2684
 21
1.79972
 31
0.0
  0
LINE
  8
0
 62
     0
 10
90.2684
 20
1.79972
 30
0.0
 11
90.2381
 21
1.64538
 31
0.0
  0
LINE
  8
0
 62
     0
 10
90.2381
 20
1.64538
 30
0.0
 11
90.1954
 21
1.4938
 31
0.0
  0
LINE
  8
0
 62
     0
 10
90.1954
 20
1.4938
 30
0.0
 11
90.1418
 21
1.34772
 31
0.0
  0
LINE
  8
0
 62
     0
 10
90.1418
 20
1.34772
 30
0.0
 11
90.0755
 21
1.2044
 31
0.0
  0
LINE
  8
0
 62
     0
 10
90.0755
 20
1.2044
 30
0.0
 11
89.9982
 21
1.06798
 31
0.0
  0
LINE
  8
0
 62
     0
 10
89.9982
 20
1.06798
 30
0.0
 11
89.9114
 21
0.937066
 31
0.0
  0
LINE
  8
0
 62
     0
 10
89.9114
 20
0.937066
 30
0.0
 11
89.8151
 21
0.813043
 31
0.0
  0
LINE
  8
0
 62
     0
 10
89.8151
 20
0.813043
 30
0.0
 11
89.7075
 21
0.698666
 31
0.0
  0
LINE
  8
0
 62
     0
 10
89.7075
 20
0.698666
 30
0.0
 11
89.5932
 21
0.591178
 31
0.0
  0
LINE
  8
0
 62
     0
 10
89.5932
 20
0.591178
 30
0.0
 11
89.469
 21
0.494714
 31
0.0
  0
LINE
  8
0
 62
     0
 10
89.469
 20
0.494714
 30
0.0
 11
89.3382
 21
0.407899
 31
0.0
  0
LINE
  8
0
 62
     0
 10
89.3382
 20
0.407899
 30
0.0
 11
89.2016
 21
0.330729
 31
0.0
  0
LINE
  8
0
 62
     0
 10
89.2016
 20
0.330729
 30
0.0
 11
89.0584
 21
0.264583
 31
0.0
  0
LINE
  8
0
 62
     0
 10
89.0584
 20
0.264583
 30
0.0
 11
88.9123
 21
0.21084
 31
0.0
  0
LINE
  8
0
 62
     0
 10
88.9123
 20
0.21084
 30
0.0
 11
88.7607
 21
0.168121
 31
0.0
  0
LINE
  8
0
 62
     0
 10
88.7607
 20
0.168121
 30
0.0
 11
88.6065
 21
0.137804
 31
0.0
  0
LINE
  8
0
 62
     0
 10
88.6065
 20
0.137804
 30
0.0
 11
88.4509
 21
0.118511
 31
0.0
  0
LINE
  8
0
 62
     0
 10
88.4509
 20
0.118511
 30
0.0
 11
88.2936
 21
0.112999
 31
0.0
  0
LINE
  8
0
 62
     0
 10
88.2936
 20
0.112999
 30
0.0
 11
2.09324
 21
0.112999
 31
0.0
  0
LINE
  8
0
 62
     0
 10
2.09324
 20
0.112999
 30
0.0
 11
1.93614
 21
0.118511
 31
0.0
  0
LINE
  8
0
 62
     0
 10
1.93614
 20
0.118511
 30
0.0
 11
1.78043
 21
0.137804
 31
0.0
  0
LINE
  8
0
 62
     0
 10
1.78043
 20
0.137804
 30
0.0
 11
1.62609
 21
0.168121
 31
0.0
  0
LINE
  8
0
 62
     0
 10
1.62609
 20
0.168121
 30
0.0
 11
1.47588
 21
0.21084
 31
0.0
  0
LINE
  8
0
 62
     0
 10
1.47588
 20
0.21084
 30
0.0
 11
1.32843
 21
0.264583
 31
0.0
  0
LINE
  8
0
 62
     0
 10
1.32843
 20
0.264583
 30
0.0
 11
1.18511
 21
0.330729
 31
0.0
  0
LINE
  8
0
 62
     0
 10
1.18511
 20
0.330729
 30
0.0
 11
1.04869
 21
0.407899
 31
0.0
  0
LINE
  8
0
 62
     0
 10
1.04869
 20
0.407899
 30
0.0
 11
0.917773
 21
0.494714
 31
0.0
  0
LINE
  8
0
 62
     0
 10
0.917773
 20
0.494714
 30
0.0
 11
0.795129
 21
0.591178
 31
0.0
  0
LINE
  8
0
 62
     0
 10
0.795129
 20
0.591178
 30
0.0
 11
0.679372
 21
0.698666
 31
0.0
  0
LINE
  8
0
 62
     0
 10
0.679372
 20
0.698666
 30
0.0
 11
0.573264
 21
0.813043
 31
0.0
  0
LINE
  8
0
 62
     0
 10
0.573264
 20
0.813043
 30
0.0
 11
0.475424
 21
0.937066
 31
0.0
  0
LINE
  8
0
 62
     0
 10
0.475424
 20
0.937066
 30
0.0
 11
0.388606
 21
1.06798
 31
0.0
  0
LINE
  8
0
 62
     0
 10
0.388606
 20
1.06798
 30
0.0
 11
0.311437
 21
1.2044
 31
0.0
  0
LINE
  8
0
 62
     0
 10
0.311437
 20
1.2044
 30
0.0
 11
0.245291
 21
1.34772
 31
0.0
  0
LINE
  8
0
 62
     0
 10
0.245291
 20
1.34772
 30
0.0
 11
0.191547
 21
1.4938
 31
0.0
  0
LINE
  8
0
 62
     0
 10
0.191547
 20
1.4938
 30
0.0
 11
0.148828
 21
1.64538
 31
0.0
  0
LINE
  8
0
 62
     0
 10
0.148828
 20
1.64538
 30
0.0
 11
0.118511
 21
1.79972
 31
0.0
  0
LINE
  8
0
 62
     0
 10
0.118511
 20
1.79972
 30
0.0
 11
0.0992188
 21
1.95544
 31
0.0
  0
LINE
  8
0
 62
     0
 10
0.0992188
 20
1.95544
 30
0.0
 11
0.0937066
 21
2.11253
 31
0.0
  0
LINE
  8
0
 62
     0
 10
0.0937066
 20
2.11253
 30
0.0
 11
0.0937066
 21
135.938
 31
0.0
  0
LINE
  8
0
 62
     0
 10
0.0937066
 20
135.938
 30
0.0
 11
0.0992188
 21
136.095
 31
0.0
  0
LINE
  8
0
 62
     0
 10
0.0992188
 20
136.095
 30
0.0
 11
0.118511
 21
136.251
 31
0.0
  0
LINE
  8
0
 62
     0
 10
0.118511
 20
136.251
 30
0.0
 11
0.148828
 21
136.405
 31
0.0
  0
LINE
  8
0
 62
     0
 10
0.148828
 20
136.405
 30
0.0
 11
0.191547
 21
136.555
 31
0.0
  0
LINE
  8
0
 62
     0
 10
0.191547
 20
136.555
 30
0.0
 11
0.245291
 21
136.703
 31
0.0
  0
LINE
  8
0
 62
     0
 10
0.245291
 20
136.703
 30
0.0
 11
0.311437
 21
136.846
 31
0.0
  0
LINE
  8
0
 62
     0
 10
0.311437
 20
136.846
 30
0.0
 11
0.388606
 21
136.983
 31
0.0
  0
LINE
  8
0
 62
     0
 10
0.388606
 20
136.983
 30
0.0
 11
0.475424
 21
137.113
 31
0.0
  0
LINE
  8
0
 62
     0
 10
0.475424
 20
137.113
 30
0.0
 11
0.573264
 21
137.236
 31
0.0
  0
LINE
  8
0
 62
     0
 10
0.573264
 20
137.236
 30
0.0
 11
0.679372
 21
137.352
 31
0.0
  0
LINE
  8
0
 62
     0
 10
0.679372
 20
137.352
 30
0.0
 11
0.795129
 21
137.458
 31
0.0
  0
LINE
  8
0
 62
     0
 10
0.795129
 20
137.458
 30
0.0
 11
0.917773
 21
137.556
 31
0.0
  0
LINE
  8
0
 62
     0
 10
0.917773
 20
137.556
 30
0.0
 11
1.04869
 21
137.643
 31
0.0
  0
LINE
  8
0
 62
     0
 10
1.04869
 20
137.643
 30
0.0
 11
1.18511
 21
137.72
 31
0.0
  0
LINE
  8
0
 62
     0
 10
1.18511
 20
137.72
 30
0.0
 11
1.32843
 21
137.786
 31
0.0
  0
LINE
  8
0
 62
     0
 10
1.32843
 20
137.786
 30
0.0
 11
1.47588
 21
137.84
 31
0.0
  0
LINE
  8
0
 62
     0
 10
1.47588
 20
137.84
 30
0.0
 11
1.62609
 21
137.882
 31
0.0
  0
LINE
  8
0
 62
     0
 10
1.62609
 20
137.882
 30
0.0
 11
1.78043
 21
137.913
 31
0.0
  0
LINE
  8
0
 62
     0
 10
1.78043
 20
137.913
 30
0.0
 11
1.93614
 21
137.932
 31
0.0
  0
LINE
  8
0
 62
     0
 10
1.93614
 20
137.932
 30
0.0
 11
2.09324
 21
137.938
 31
0.0
  0
LINE
  8
0
 62
     0
 10
2.09324
 20
137.938
 30
0.0
 11
88.2936
 21
137.938
 31
0.0
  0
LINE
  8
0
 62
     0
 10
45.194
 20
136.437
 30
0.0
 11
45.8114
 21
136.339
 31
0.0
  0
LINE
  8
0
 62
     0
 10
45.8114
 20
136.339
 30
0.0
 11
46.3695
 21
136.055
 31
0.0
  0
LINE
  8
0
 62
     0
 10
46.3695
 20
136.055
 30
0.0
 11
46.8118
 21
135.614
 31
0.0
  0
LINE
  8
0
 62
     0
 10
46.8118
 20
135.614
 30
0.0
 11
47.0958
 21
135.056
 31
0.0
  0
LINE
  8
0
 62
     0
 10
47.0958
 20
135.056
 30
0.0
 11
47.1936
 21
134.437
 31
0.0
  0
LINE
  8
0
 62
     0
 10
47.1936
 20
134.437
 30
0.0
 11
47.0958
 21
133.82
 31
0.0
  0
LINE
  8
0
 62
     0
 10
47.0958
 20
133.82
 30
0.0
 11
46.8118
 21
133.262
 31
0.0
  0
LINE
  8
0
 62
     0
 10
46.8118
 20
133.262
 30
0.0
 11
46.3695
 21
132.819
 31
0.0
  0
LINE
  8
0
 62
     0
 10
46.3695
 20
132.819
 30
0.0
 11
45.8114
 21
132.535
 31
0.0
  0
LINE
  8
0
 62
     0
 10
45.8114
 20
132.535
 30
0.0
 11
45.194
 21
132.438
 31
0.0
  0
LINE
  8
0
 62
     0
 10
45.194
 20
132.438
 30
0.0
 11
44.5752
 21
132.535
 31
0.0
  0
LINE
  8
0
 62
     0
 10
44.5752
 20
132.535
 30
0.0
 11
44.0171
 21
132.819
 31
0.0
  0
LINE
  8
0
 62
     0
 10
44.0171
 20
132.819
 30
0.0
 11
43.5762
 21
133.262
 31
0.0
  0
LINE
  8
0
 62
     0
 10
43.5762
 20
133.262
 30
0.0
 11
43.2911
 21
133.82
 31
0.0
  0
LINE
  8
0
 62
     0
 10
43.2911
 20
133.82
 30
0.0
 11
43.1934
 21
134.437
 31
0.0
  0
LINE
  8
0
 62
     0
 10
43.1934
 20
134.437
 30
0.0
 11
43.2911
 21
135.056
 31
0.0
  0
LINE
  8
0
 62
     0
 10
43.2911
 20
135.056
 30
0.0
 11
43.5762
 21
135.614
 31
0.0
  0
LINE
  8
0
 62
     0
 10
43.5762
 20
135.614
 30
0.0
 11
44.0171
 21
136.055
 31
0.0
  0
LINE
  8
0
 62
     0
 10
44.0171
 20
136.055
 30
0.0
 11
44.5752
 21
136.339
 31
0.0
  0
LINE
  8
0
 62
     0
 10
44.5752
 20
136.339
 30
0.0
 11
45.194
 21
136.437
 31
0.0
  0
LINE
  8
0
 62
     0
 10
86.7943
 20
136.437
 30
0.0
 11
87.4116
 21
136.339
 31
0.0
  0
LINE
  8
0
 62
     0
 10
87.4116
 20
136.339
 30
0.0
 11
87.9697
 21
136.055
 31
0.0
  0
LINE
  8
0
 62
     0
 10
87.9697
 20
136.055
 30
0.0
 11
88.4121
 21
135.614
 31
0.0
  0
LINE
  8
0
 62
     0
 10
88.4121
 20
135.614
 30
0.0
 11
88.6961
 21
135.056
 31
0.0
  0
LINE
  8
0
 62
     0
 10
88.6961
 20
135.056
 30
0.0
 11
88.7938
 21
134.437
 31
0.0
  0
LINE
  8
0
 62
     0
 10
88.7938
 20
134.437
 30
0.0
 11
88.6961
 21
133.82
 31
0.0
  0
LINE
  8
0
 62
     0
 10
88.6961
 20
133.82
 30
0.0
 11
88.4121
 21
133.262
 31
0.0
  0
LINE
  8
0
 62
     0
 10
88.4121
 20
133.262
 30
0.0
 11
87.9697
 21
132.819
 31
0.0
  0
LINE
  8
0
 62
     0
 10
87.9697
 20
132.819
 30
0.0
 11
87.4116
 21
132.535
 31
0.0
  0
LINE
  8
0
 62
     0
 10
87.4116
 20
132.535
 30
0.0
 11
86.7943
 21
132.438
 31
0.0
  0
LINE
  8
0
 62
     0
 10
86.7943
 20
132.438
 30
0.0
 11
86.1755
 21
132.535
 31
0.0
  0
LINE
  8
0
 62
     0
 10
86.1755
 20
132.535
 30
0.0
 11
85.6174
 21
132.819
 31
0.0
  0
LINE
  8
0
 62
     0
 10
85.6174
 20
132.819
 30
0.0
 11
85.175
 21
133.262
 31
0.0
  0
LINE
  8
0
 62
     0
 10
85.175
 20
133.262
 30
0.0
 11
84.8914
 21
133.82
 31
0.0
  0
LINE
  8
0
 62
     0
 10
84.8914
 20
133.82
 30
0.0
 11
84.7933
 21
134.437
 31
0.0
  0
LINE
  8
0
 62
     0
 10
84.7933
 20
134.437
 30
0.0
 11
84.8914
 21
135.056
 31
0.0
  0
LINE
  8
0
 62
     0
 10
84.8914
 20
135.056
 30
0.0
 11
85.175
 21
135.614
 31
0.0
  0
LINE
  8
0
 62
     0
 10
85.175
 20
135.614
 30
0.0
 11
85.6174
 21
136.055
 31
0.0
  0
LINE
  8
0
 62
     0
 10
85.6174
 20
136.055
 30
0.0
 11
86.1755
 21
136.339
 31
0.0
  0
LINE
  8
0
 62
     0
 10
86.1755
 20
136.339
 30
0.0
 11
86.7943
 21
136.437
 31
0.0
  0
LINE
  8
0
 62
     0
 10
86.7943
 20
71.0255
 30
0.0
 11
87.4116
 21
70.9277
 31
0.0
  0
LINE
  8
0
 62
     0
 10
87.4116
 20
70.9277
 30
0.0
 11
87.9697
 21
70.6438
 31
0.0
  0
LINE
  8
0
 62
     0
 10
87.9697
 20
70.6438
 30
0.0
 11
88.4121
 21
70.2
 31
0.0
  0
LINE
  8
0
 62
     0
 10
88.4121
 20
70.2
 30
0.0
 11
88.6961
 21
69.6433
 31
0.0
  0
LINE
  8
0
 62
     0
 10
88.6961
 20
69.6433
 30
0.0
 11
88.7938
 21
69.0259
 31
0.0
  0
LINE
  8
0
 62
     0
 10
88.7938
 20
69.0259
 30
0.0
 11
88.6961
 21
68.4057
 31
0.0
  0
LINE
  8
0
 62
     0
 10
88.6961
 20
68.4057
 30
0.0
 11
88.4121
 21
67.849
 31
0.0
  0
LINE
  8
0
 62
     0
 10
88.4121
 20
67.849
 30
0.0
 11
87.9697
 21
67.4067
 31
0.0
  0
LINE
  8
0
 62
     0
 10
87.9697
 20
67.4067
 30
0.0
 11
87.4116
 21
67.123
 31
0.0
  0
LINE
  8
0
 62
     0
 10
87.4116
 20
67.123
 30
0.0
 11
86.7943
 21
67.025
 31
0.0
  0
LINE
  8
0
 62
     0
 10
86.7943
 20
67.025
 30
0.0
 11
86.1755
 21
67.123
 31
0.0
  0
LINE
  8
0
 62
     0
 10
86.1755
 20
67.123
 30
0.0
 11
85.6174
 21
67.4067
 31
0.0
  0
LINE
  8
0
 62
     0
 10
85.6174
 20
67.4067
 30
0.0
 11
85.175
 21
67.849
 31
0.0
  0
LINE
  8
0
 62
     0
 10
85.175
 20
67.849
 30
0.0
 11
84.8914
 21
68.4057
 31
0.0
  0
LINE
  8
0
 62
     0
 10
84.8914
 20
68.4057
 30
0.0
 11
84.7933
 21
69.0259
 31
0.0
  0
LINE
  8
0
 62
     0
 10
84.7933
 20
69.0259
 30
0.0
 11
84.8914
 21
69.6433
 31
0.0
  0
LINE
  8
0
 62
     0
 10
84.8914
 20
69.6433
 30
0.0
 11
85.175
 21
70.2
 31
0.0
  0
LINE
  8
0
 62
     0
 10
85.175
 20
70.2
 30
0.0
 11
85.6174
 21
70.6438
 31
0.0
  0
LINE
  8
0
 62
     0
 10
85.6174
 20
70.6438
 30
0.0
 11
86.1755
 21
70.9277
 31
0.0
  0
LINE
  8
0
 62
     0
 10
86.1755
 20
70.9277
 30
0.0
 11
86.7943
 21
71.0255
 31
0.0
  0
LINE
  8
0
 62
     0
 10
86.7943
 20
5.61277
 30
0.0
 11
87.4116
 21
5.5149
 31
0.0
  0
LINE
  8
0
 62
     0
 10
87.4116
 20
5.5149
 30
0.0
 11
87.9697
 21
5.23102
 31
0.0
  0
LINE
  8
0
 62
     0
 10
87.9697
 20
5.23102
 30
0.0
 11
88.4121
 21
4.78868
 31
0.0
  0
LINE
  8
0
 62
     0
 10
88.4121
 20
4.78868
 30
0.0
 11
88.6961
 21
4.23058
 31
0.0
  0
LINE
  8
0
 62
     0
 10
88.6961
 20
4.23058
 30
0.0
 11
88.7938
 21
3.61184
 31
0.0
  0
LINE
  8
0
 62
     0
 10
88.7938
 20
3.61184
 30
0.0
 11
88.6961
 21
2.99448
 31
0.0
  0
LINE
  8
0
 62
     0
 10
88.6961
 20
2.99448
 30
0.0
 11
88.4121
 21
2.43637
 31
0.0
  0
LINE
  8
0
 62
     0
 10
88.4121
 20
2.43637
 30
0.0
 11
87.9697
 21
1.99402
 31
0.0
  0
LINE
  8
0
 62
     0
 10
87.9697
 20
1.99402
 30
0.0
 11
87.4116
 21
1.71015
 31
0.0
  0
LINE
  8
0
 62
     0
 10
87.4116
 20
1.71015
 30
0.0
 11
86.7943
 21
1.6123
 31
0.0
  0
LINE
  8
0
 62
     0
 10
86.7943
 20
1.6123
 30
0.0
 11
86.1755
 21
1.71015
 31
0.0
  0
LINE
  8
0
 62
     0
 10
86.1755
 20
1.71015
 30
0.0
 11
85.6174
 21
1.99402
 31
0.0
  0
LINE
  8
0
 62
     0
 10
85.6174
 20
1.99402
 30
0.0
 11
85.175
 21
2.43637
 31
0.0
  0
LINE
  8
0
 62
     0
 10
85.175
 20
2.43637
 30
0.0
 11
84.8914
 21
2.99448
 31
0.0
  0
LINE
  8
0
 62
     0
 10
84.8914
 20
2.99448
 30
0.0
 11
84.7933
 21
3.61184
 31
0.0
  0
LINE
  8
0
 62
     0
 10
84.7933
 20
3.61184
 30
0.0
 11
84.8914
 21
4.23058
 31
0.0
  0
LINE
  8
0
 62
     0
 10
84.8914
 20
4.23058
 30
0.0
 11
85.175
 21
4.78868
 31
0.0
  0
LINE
  8
0
 62
     0
 10
85.175
 20
4.78868
 30
0.0
 11
85.6174
 21
5.23102
 31
0.0
  0
LINE
  8
0
 62
     0
 10
85.6174
 20
5.23102
 30
0.0
 11
86.1755
 21
5.5149
 31
0.0
  0
LINE
  8
0
 62
     0
 10
86.1755
 20
5.5149
 30
0.0
 11
86.7943
 21
5.61277
 31
0.0
  0
LINE
  8
0
 62
     0
 10
45.194
 20
5.61277
 30
0.0
 11
45.8114
 21
5.5149
 31
0.0
  0
LINE
  8
0
 62
     0
 10
45.8114
 20
5.5149
 30
0.0
 11
46.3695
 21
5.23102
 31
0.0
  0
LINE
  8
0
 62
     0
 10
46.3695
 20
5.23102
 30
0.0
 11
46.8118
 21
4.78868
 31
0.0
  0
LINE
  8
0
 62
     0
 10
46.8118
 20
4.78868
 30
0.0
 11
47.0958
 21
4.23058
 31
0.0
  0
LINE
  8
0
 62
     0
 10
47.0958
 20
4.23058
 30
0.0
 11
47.1936
 21
3.61184
 31
0.0
  0
LINE
  8
0
 62
     0
 10
47.1936
 20
3.61184
 30
0.0
 11
47.0958
 21
2.99448
 31
0.0
  0
LINE
  8
0
 62
     0
 10
47.0958
 20
2.99448
 30
0.0
 11
46.8118
 21
2.43637
 31
0.0
  0
LINE
  8
0
 62
     0
 10
46.8118
 20
2.43637
 30
0.0
 11
46.3695
 21
1.99402
 31
0.0
  0
LINE
  8
0
 62
     0
 10
46.3695
 20
1.99402
 30
0.0
 11
45.8114
 21
1.71015
 31
0.0
  0
LINE
  8
0
 62
     0
 10
45.8114
 20
1.71015
 30
0.0
 11
45.194
 21
1.6123
 31
0.0
  0
LINE
  8
0
 62
     0
 10
45.194
 20
1.6123
 30
0.0
 11
44.5752
 21
1.71015
 31
0.0
  0
LINE
  8
0
 62
     0
 10
44.5752
 20
1.71015
 30
0.0
 11
44.0171
 21
1.99402
 31
0.0
  0
LINE
  8
0
 62
     0
 10
44.0171
 20
1.99402
 30
0.0
 11
43.5762
 21
2.43637
 31
0.0
  0
LINE
  8
0
 62
     0
 10
43.5762
 20
2.43637
 30
0.0
 11
43.2911
 21
2.99448
 31
0.0
  0
LINE
  8
0
 62
     0
 10
43.2911
 20
2.99448
 30
0.0
 11
43.1934
 21
3.61184
 31
0.0
  0
LINE
  8
0
 62
     0
 10
43.1934
 20
3.61184
 30
0.0
 11
43.2911
 21
4.23058
 31
0.0
  0
LINE
  8
0
 62
     0
 10
43.2911
 20
4.23058
 30
0.0
 11
43.5762
 21
4.78868
 31
0.0
  0
LINE
  8
0
 62
     0
 10
43.5762
 20
4.78868
 30
0.0
 11
44.0171
 21
5.23102
 31
0.0
  0
LINE
  8
0
 62
     0
 10
44.0171
 20
5.23102
 30
0.0
 11
44.5752
 21
5.5149
 31
0.0
  0
LINE
  8
0
 62
     0
 10
44.5752
 20
5.5149
 30
0.0
 11
45.194
 21
5.61277
 31
0.0
  0
LINE
  8
0
 62
     0
 10
3.59392
 20
5.61277
 30
0.0
 11
4.21128
 21
5.5149
 31
0.0
  0
LINE
  8
0
 62
     0
 10
4.21128
 20
5.5149
 30
0.0
 11
4.76938
 21
5.23102
 31
0.0
  0
LINE
  8
0
 62
     0
 10
4.76938
 20
5.23102
 30
0.0
 11
5.21173
 21
4.78868
 31
0.0
  0
LINE
  8
0
 62
     0
 10
5.21173
 20
4.78868
 30
0.0
 11
5.49561
 21
4.23058
 31
0.0
  0
LINE
  8
0
 62
     0
 10
5.49561
 20
4.23058
 30
0.0
 11
5.59347
 21
3.61184
 31
0.0
  0
LINE
  8
0
 62
     0
 10
5.59347
 20
3.61184
 30
0.0
 11
5.49561
 21
2.99448
 31
0.0
  0
LINE
  8
0
 62
     0
 10
5.49561
 20
2.99448
 30
0.0
 11
5.21173
 21
2.43637
 31
0.0
  0
LINE
  8
0
 62
     0
 10
5.21173
 20
2.43637
 30
0.0
 11
4.76938
 21
1.99402
 31
0.0
  0
LINE
  8
0
 62
     0
 10
4.76938
 20
1.99402
 30
0.0
 11
4.21128
 21
1.71015
 31
0.0
  0
LINE
  8
0
 62
     0
 10
4.21128
 20
1.71015
 30
0.0
 11
3.59392
 21
1.6123
 31
0.0
  0
LINE
  8
0
 62
     0
 10
3.59392
 20
1.6123
 30
0.0
 11
2.97518
 21
1.71015
 31
0.0
  0
LINE
  8
0
 62
     0
 10
2.97518
 20
1.71015
 30
0.0
 11
2.41708
 21
1.99402
 31
0.0
  0
LINE
  8
0
 62
     0
 10
2.41708
 20
1.99402
 30
0.0
 11
1.97611
 21
2.43637
 31
0.0
  0
LINE
  8
0
 62
     0
 10
1.97611
 20
2.43637
 30
0.0
 11
1.69223
 21
2.99448
 31
0.0
  0
LINE
  8
0
 62
     0
 10
1.69223
 20
2.99448
 30
0.0
 11
1.59439
 21
3.61184
 31
0.0
  0
LINE
  8
0
 62
     0
 10
1.59439
 20
3.61184
 30
0.0
 11
1.69223
 21
4.23058
 31
0.0
  0
LINE
  8
0
 62
     0
 10
1.69223
 20
4.23058
 30
0.0
 11
1.97611
 21
4.78868
 31
0.0
  0
LINE
  8
0
 62
     0
 10
1.97611
 20
4.78868
 30
0.0
 11
2.41708
 21
5.23102
 31
0.0
  0
LINE
  8
0
 62
     0
 10
2.41708
 20
5.23102
 30
0.0
 11
2.97518
 21
5.5149
 31
0.0
  0
LINE
  8
0
 62
     0
 10
2.97518
 20
5.5149
 30
0.0
 11
3.59392
 21
5.61277
 31
0.0
  0
LINE
  8
0
 62
     0
 10
3.59392
 20
71.0255
 30
0.0
 11
4.21128
 21
70.9277
 31
0.0
  0
LINE
  8
0
 62
     0
 10
4.21128
 20
70.9277
 30
0.0
 11
4.76938
 21
70.6438
 31
0.0
  0
LINE
  8
0
 62
     0
 10
4.76938
 20
70.6438
 30
0.0
 11
5.21173
 21
70.2
 31
0.0
  0
LINE
  8
0
 62
     0
 10
5.21173
 20
70.2
 30
0.0
 11
5.49561
 21
69.6433
 31
0.0
  0
LINE
  8
0
 62
     0
 10
5.49561
 20
69.6433
 30
0.0
 11
5.59347
 21
69.0259
 31
0.0
  0
LINE
  8
0
 62
     0
 10
5.59347
 20
69.0259
 30
0.0
 11
5.49561
 21
68.4057
 31
0.0
  0
LINE
  8
0
 62
     0
 10
5.49561
 20
68.4057
 30
0.0
 11
5.21173
 21
67.849
 31
0.0
  0
LINE
  8
0
 62
     0
 10
5.21173
 20
67.849
 30
0.0
 11
4.76938
 21
67.4067
 31
0.0
  0
LINE
  8
0
 62
     0
 10
4.76938
 20
67.4067
 30
0.0
 11
4.21128
 21
67.123
 31
0.0
  0
LINE
  8
0
 62
     0
 10
4.21128
 20
67.123
 30
0.0
 11
3.59392
 21
67.025
 31
0.0
  0
LINE
  8
0
 62
     0
 10
3.59392
 20
67.025
 30
0.0
 11
2.97518
 21
67.123
 31
0.0
  0
LINE
  8
0
 62
     0
 10
2.97518
 20
67.123
 30
0.0
 11
2.41708
 21
67.4067
 31
0.0
  0
LINE
  8
0
 62
     0
 10
2.41708
 20
67.4067
 30
0.0
 11
1.97611
 21
67.849
 31
0.0
  0
LINE
  8
0
 62
     0
 10
1.97611
 20
67.849
 30
0.0
 11
1.69223
 21
68.4057
 31
0.0
  0
LINE
  8
0
 62
     0
 10
1.69223
 20
68.4057
 30
0.0
 11
1.59439
 21
69.0259
 31
0.0
  0
LINE
  8
0
 62
     0
 10
1.59439
 20
69.0259
 30
0.0
 11
1.69223
 21
69.6433
 31
0.0
  0
LINE
  8
0
 62
     0
 10
1.69223
 20
69.6433
 30
0.0
 11
1.97611
 21
70.2
 31
0.0
  0
LINE
  8
0
 62
     0
 10
1.97611
 20
70.2
 30
0.0
 11
2.41708
 21
70.6438
 31
0.0
  0
LINE
  8
0
 62
     0
 10
2.41708
 20
70.6438
 30
0.0
 11
2.97518
 21
70.9277
 31
0.0
  0
LINE
  8
0
 62
     0
 10
2.97518
 20
70.9277
 30
0.0
 11
3.59392
 21
71.0255
 31
0.0
  0
LINE
  8
0
 62
     0
 10
3.59392
 20
136.437
 30
0.0
 11
4.21128
 21
136.339
 31
0.0
  0
LINE
  8
0
 62
     0
 10
4.21128
 20
136.339
 30
0.0
 11
4.76938
 21
136.055
 31
0.0
  0
LINE
  8
0
 62
     0
 10
4.76938
 20
136.055
 30
0.0
 11
5.21173
 21
135.614
 31
0.0
  0
LINE
  8
0
 62
     0
 10
5.21173
 20
135.614
 30
0.0
 11
5.49561
 21
135.056
 31
0.0
  0
LINE
  8
0
 62
     0
 10
5.49561
 20
135.056
 30
0.0
 11
5.59347
 21
134.437
 31
0.0
  0
LINE
  8
0
 62
     0
 10
5.59347
 20
134.437
 30
0.0
 11
5.49561
 21
133.82
 31
0.0
  0
LINE
  8
0
 62
     0
 10
5.49561
 20
133.82
 30
0.0
 11
5.21173
 21
133.262
 31
0.0
  0
LINE
  8
0
 62
     0
 10
5.21173
 20
133.262
 30
0.0
 11
4.76938
 21
132.819
 31
0.0
  0
LINE
  8
0
 62
     0
 10
4.76938
 20
132.819
 30
0.0
 11
4.21128
 21
132.535
 31
0.0
  0
LINE
  8
0
 62
     0
 10
4.21128
 20
132.535
 30
0.0
 11
3.59392
 21
132.438
 31
0.0
  0
LINE
  8
0
 62
     0
 10
3.59392
 20
132.438
 30
0.0
 11
2.97518
 21
132.535
 31
0.0
  0
LINE
  8
0
 62
     0
 10
2.97518
 20
132.535
 30
0.0
 11
2.41708
 21
132.819
 31
0.0
  0
LINE
  8
0
 62
     0
 10
2.41708
 20
132.819
 30
0.0
 11
1.97611
 21
133.262
 31
0.0
  0
LINE
  8
0
 62
     0
 10
1.97611
 20
133.262
 30
0.0
 11
1.69223
 21
133.82
 31
0.0
  0
LINE
  8
0
 62
     0
 10
1.69223
 20
133.82
 30
0.0
 11
1.59439
 21
134.437
 31
0.0
  0
LINE
  8
0
 62
     0
 10
1.59439
 20
134.437
 30
0.0
 11
1.69223
 21
135.056
 31
0.0
  0
LINE
  8
0
 62
     0
 10
1.69223
 20
135.056
 30
0.0
 11
1.97611
 21
135.614
 31
0.0
  0
LINE
  8
0
 62
     0
 10
1.97611
 20
135.614
 30
0.0
 11
2.41708
 21
136.055
 31
0.0
  0
LINE
  8
0
 62
     0
 10
2.41708
 20
136.055
 30
0.0
 11
2.97518
 21
136.339
 31
0.0
  0
LINE
  8
0
 62
     0
 10
2.97518
 20
136.339
 30
0.0
 11
3.59392
 21
136.437
 31
0.0
  0
ENDSEC
  0
EOF
