<?xml version="1.0"?>
<!-- Generated by SVGo -->
<svg width="98.200mm" height="145.825mm"
     viewBox="0.000 0.000 98.200 145.825"
     xmlns="http://www.w3.org/2000/svg" 
     xmlns:xlink="http://www.w3.org/1999/xlink">
<polygon points="91.200,5.000 91.357,5.006 91.513,5.025 91.667,5.055 91.818,5.098 91.965,5.152 92.108,5.218 92.245,5.295 92.376,5.382 92.499,5.479 92.614,5.586 92.721,5.701 92.818,5.824 92.905,5.955 92.982,6.092 93.048,6.235 93.102,6.382 93.145,6.533 93.175,6.687 93.194,6.843 93.200,7.000 93.200,138.825 93.194,138.982 93.175,139.138 93.145,139.292 93.102,139.443 93.048,139.590 92.982,139.733 92.905,139.870 92.818,140.001 92.721,140.124 92.614,140.239 92.499,140.346 92.376,140.443 92.245,140.530 92.108,140.607 91.965,140.673 91.818,140.727 91.667,140.770 91.513,140.800 91.357,140.819 91.200,140.825 7.000,140.825 6.843,140.819 6.687,140.800 6.533,140.770 6.382,140.727 6.235,140.673 6.092,140.607 5.955,140.530 5.824,140.443 5.701,140.346 5.586,140.239 5.479,140.124 5.382,140.001 5.295,139.870 5.218,139.733 5.152,139.590 5.098,139.443 5.055,139.292 5.025,139.138 5.006,138.982 5.000,138.825 5.000,7.000 5.006,6.843 5.025,6.687 5.055,6.533 5.098,6.382 5.152,6.235 5.218,6.092 5.295,5.955 5.382,5.824 5.479,5.701 5.586,5.586 5.701,5.479 5.824,5.382 5.955,5.295 6.092,5.218 6.235,5.152 6.382,5.098 6.533,5.055 6.687,5.025 6.843,5.006 7.000,5.000" style="fill:none;stroke-width:0.2;stroke:black"/>
<rect x="11.000" y="11.000" width="76.200" height="123.825" style="fill:none;stroke-width:0.2;stroke:black"/>
<polygon points="49.100,6.500 49.564,6.573 49.982,6.786 50.314,7.118 50.527,7.536 50.600,8.000 50.527,8.464 50.314,8.882 49.982,9.214 49.564,9.427 49.100,9.500 48.636,9.427 48.218,9.214 47.886,8.882 47.673,8.464 47.600,8.000 47.673,7.536 47.886,7.118 48.218,6.786 48.636,6.573" style="fill:none;stroke-width:0.2;stroke:black"/>
<polygon points="90.200,6.500 90.664,6.573 91.082,6.786 91.414,7.118 91.627,7.536 91.700,8.000 91.627,8.464 91.414,8.882 91.082,9.214 90.664,9.427 90.200,9.500 89.736,9.427 89.318,9.214 88.986,8.882 88.773,8.464 88.700,8.000 88.773,7.536 88.986,7.118 89.318,6.786 89.736,6.573" style="fill:none;stroke-width:0.2;stroke:black"/>
<polygon points="90.200,49.775 90.664,49.848 91.082,50.061 91.414,50.393 91.627,50.811 91.700,51.275 91.627,51.739 91.414,52.157 91.082,52.489 90.664,52.702 90.200,52.775 89.736,52.702 89.318,52.489 88.986,52.157 88.773,51.739 88.700,51.275 88.773,50.811 88.986,50.393 89.318,50.061 89.736,49.848" style="fill:none;stroke-width:0.2;stroke:black"/>
<polygon points="90.200,93.050 90.664,93.123 91.082,93.336 91.414,93.668 91.627,94.086 91.700,94.550 91.627,95.014 91.414,95.432 91.082,95.764 90.664,95.977 90.200,96.050 89.736,95.977 89.318,95.764 88.986,95.432 88.773,95.014 88.700,94.550 88.773,94.086 88.986,93.668 89.318,93.336 89.736,93.123" style="fill:none;stroke-width:0.2;stroke:black"/>
<polygon points="90.200,136.325 90.664,136.398 91.082,136.611 91.414,136.943 91.627,137.361 91.700,137.825 91.627,138.289 91.414,138.707 91.082,139.039 90.664,139.252 90.200,139.325 89.736,139.252 89.318,139.039 88.986,138.707 88.773,138.289 88.700,137.825 88.773,137.361 88.986,136.943 89.318,136.611 89.736,136.398" style="fill:none;stroke-width:0.2;stroke:black"/>
<polygon points="49.100,136.325 49.564,136.398 49.982,136.611 50.314,136.943 50.527,137.361 50.600,137.825 50.527,138.289 50.314,138.707 49.982,139.039 49.564,139.252 49.100,139.325 48.636,139.252 48.218,139.039 47.886,138.707 47.673,138.289 47.600,137.825 47.673,137.361 47.886,136.943 48.218,136.611 48.636,136.398" style="fill:none;stroke-width:0.2;stroke:black"/>
<polygon points="8.000,136.325 8.464,136.398 8.882,136.611 9.214,136.943 9.427,137.361 9.500,137.825 9.427,138.289 9.214,138.707 8.882,139.039 8.464,139.252 8.000,139.325 7.536,139.252 7.118,139.039 6.786,138.707 6.573,138.289 6.500,137.825 6.573,137.361 6.786,136.943 7.118,136.611 7.536,136.398" style="fill:none;stroke-width:0.2;stroke:black"/>
<polygon points="8.000,93.050 8.464,93.123 8.882,93.336 9.214,93.668 9.427,94.086 9.500,94.550 9.427,95.014 9.214,95.432 8.882,95.764 8.464,95.977 8.000,96.050 7.536,95.977 7.118,95.764 6.786,95.432 6.573,95.014 6.500,94.550 6.573,94.086 6.786,93.668 7.118,93.336 7.536,93.123" style="fill:none;stroke-width:0.2;stroke:black"/>
<polygon points="8.000,49.775 8.464,49.848 8.882,50.061 9.214,50.393 9.427,50.811 9.500,51.275 9.427,51.739 9.214,52.157 8.882,52.489 8.464,52.702 8.000,52.775 7.536,52.702 7.118,52.489 6.786,52.157 6.573,51.739 6.500,51.275 6.573,50.811 6.786,50.393 7.118,50.061 7.536,49.848" style="fill:none;stroke-width:0.2;stroke:black"/>
<polygon points="8.000,6.500 8.464,6.573 8.882,6.786 9.214,7.118 9.427,7.536 9.500,8.000 9.427,8.464 9.214,8.882 8.882,9.214 8.464,9.427 8.000,9.500 7.536,9.427 7.118,9.214 6.786,8.882 6.573,8.464 6.500,8.000 6.573,7.536 6.786,7.118 7.118,6.786 7.536,6.573" style="fill:none;stroke-width:0.2;stroke:black"/>
</svg>
