
  <svg width='246px'
       height='381px'
       viewBox='0 0 246 381'
       xmlns='http://www.w3.org/2000/svg'
       xmlns:xlink="http://www.w3.org/1999/xlink">

    <style type='text/css'>
    .keycap .border { stroke: black; stroke-width: 2; }
    .keycap .inner.border { stroke: rgba(0,0,0,.1); }
    </style>
    <defs>
      <linearGradient id="DCS">
        <stop offset="0%" stop-color="black" stop-opacity="0"/>
        <stop offset="40%" stop-color="black" stop-opacity="0.1"/>
        <stop offset="60%" stop-color="black" stop-opacity="0.1"/>
        <stop offset="100%" stop-color="black" stop-opacity="0"/>
      </linearGradient>
      <linearGradient id="SPACE" x1="0%" x2="0%" y1="0%" y2="100%">
        <stop offset="0%" stop-color="black" stop-opacity="0.1"/>
        <stop offset="20%" stop-color="black" stop-opacity="0.0"/>
        <stop offset="40%" stop-color="black" stop-opacity="0.0"/>
        <stop offset="100%" stop-color="black" stop-opacity="0.1"/>
      </linearGradient>
      <radialGradient id="DSA">
        <stop offset="0%" stop-color="black" stop-opacity="0.1"/>
        <stop offset="10%" stop-color="black" stop-opacity="0.1"/>
        <stop offset="100%" stop-color="black" stop-opacity="0"/>
      </radialGradient>
      <radialGradient id="SA" xlink:href="#DSA" />
    </defs>

    <g transform='translate(10,10)'>
      <rect width="226" height="361"
            stroke="#ddd" stroke-width="1" fill="#eeeeee" rx="6"/>
      <g transform='translate(5,5)'>
        
  <g class='  keycap'
  >

  
    <!-- Outer Border -->
    <rect x="1" y="1"
          width="52" height="52"
          rx="5" fill="#1a1a1a" class="outer border"/>
    
    <!-- Outer Fill -->
    <rect x="1" y="1"
          width="52" height="52"
          rx="5" fill="#1a1a1a"/>
    

    
      <!-- Inner Border -->
      <rect x="7" y="4"
            width="40" height="40"
            rx="5" fill="#1e1e1e" class="inner border"/>
      
      <!-- Inner Fill -->
      <rect x="7" y="4"
            width="40" height="40"
            rx="5" fill="#1e1e1e"/>
      
      
        
        
        <rect x="7" y="4"
              width="40" height="40"
              rx="5" fill="url(#DCS)"/>
      

     
   
  </g>

  <g class='  keycap'
  >

  
    <!-- Outer Border -->
    <rect x="55" y="1"
          width="52" height="52"
          rx="5" fill="#1a1a1a" class="outer border"/>
    
    <!-- Outer Fill -->
    <rect x="55" y="1"
          width="52" height="52"
          rx="5" fill="#1a1a1a"/>
    

    
      <!-- Inner Border -->
      <rect x="61" y="4"
            width="40" height="40"
            rx="5" fill="#1e1e1e" class="inner border"/>
      
      <!-- Inner Fill -->
      <rect x="61" y="4"
            width="40" height="40"
            rx="5" fill="#1e1e1e"/>
      
      
        
        
        <rect x="61" y="4"
              width="40" height="40"
              rx="5" fill="url(#DCS)"/>
      

     
   
  </g>

  <g class='  keycap'
  >

  
    <!-- Outer Border -->
    <rect x="109" y="1"
          width="52" height="52"
          rx="5" fill="#1a1a1a" class="outer border"/>
    
    <!-- Outer Fill -->
    <rect x="109" y="1"
          width="52" height="52"
          rx="5" fill="#1a1a1a"/>
    

    
      <!-- Inner Border -->
      <rect x="115" y="4"
            width="40" height="40"
            rx="5" fill="#1e1e1e" class="inner border"/>
      
      <!-- Inner Fill -->
      <rect x="115" y="4"
            width="40" height="40"
            rx="5" fill="#1e1e1e"/>
      
      
        
        
        <rect x="115" y="4"
              width="40" height="40"
              rx="5" fill="url(#DCS)"/>
      

     
   
  </g>

  <g class='  keycap'
  >

  
    <!-- Outer Border -->
    <rect x="163" y="1"
          width="52" height="52"
          rx="5" fill="#1a1a1a" class="outer border"/>
    
    <!-- Outer Fill -->
    <rect x="163" y="1"
          width="52" height="52"
          rx="5" fill="#1a1a1a"/>
    

    
      <!-- Inner Border -->
      <rect x="169" y="4"
            width="40" height="40"
            rx="5" fill="#1e1e1e" class="inner border"/>
      
      <!-- Inner Fill -->
      <rect x="169" y="4"
            width="40" height="40"
            rx="5" fill="#1e1e1e"/>
      
      
        
        
        <rect x="169" y="4"
              width="40" height="40"
              rx="5" fill="url(#DCS)"/>
      

     
   
  </g>

  <g class='  keycap'
  >

  
    <!-- Outer Border -->
    <rect x="1" y="82"
          width="52" height="52"
          rx="5" fill="#1a1a1a" class="outer border"/>
    
    <!-- Outer Fill -->
    <rect x="1" y="82"
          width="52" height="52"
          rx="5" fill="#1a1a1a"/>
    

    
      <!-- Inner Border -->
      <rect x="7" y="85"
            width="40" height="40"
            rx="5" fill="#1e1e1e" class="inner border"/>
      
      <!-- Inner Fill -->
      <rect x="7" y="85"
            width="40" height="40"
            rx="5" fill="#1e1e1e"/>
      
      
        
        
        <rect x="7" y="85"
              width="40" height="40"
              rx="5" fill="url(#DCS)"/>
      

     
   
  </g>

  <g class='  keycap'
  >

  
    <!-- Outer Border -->
    <rect x="55" y="82"
          width="52" height="52"
          rx="5" fill="#1a1a1a" class="outer border"/>
    
    <!-- Outer Fill -->
    <rect x="55" y="82"
          width="52" height="52"
          rx="5" fill="#1a1a1a"/>
    

    
      <!-- Inner Border -->
      <rect x="61" y="85"
            width="40" height="40"
            rx="5" fill="#1e1e1e" class="inner border"/>
      
      <!-- Inner Fill -->
      <rect x="61" y="85"
            width="40" height="40"
            rx="5" fill="#1e1e1e"/>
      
      
        
        
        <rect x="61" y="85"
              width="40" height="40"
              rx="5" fill="url(#DCS)"/>
      

     
   
  </g>

  <g class='  keycap'
  >

  
    <!-- Outer Border -->
    <rect x="109" y="82"
          width="52" height="52"
          rx="5" fill="#1a1a1a" class="outer border"/>
    
    <!-- Outer Fill -->
    <rect x="109" y="82"
          width="52" height="52"
          rx="5" fill="#1a1a1a"/>
    

    
      <!-- Inner Border -->
      <rect x="115" y="85"
            width="40" height="40"
            rx="5" fill="#1e1e1e" class="inner border"/>
      
      <!-- Inner Fill -->
      <rect x="115" y="85"
            width="40" height="40"
            rx="5" fill="#1e1e1e"/>
      
      
        
        
        <rect x="115" y="85"
              width="40" height="40"
              rx="5" fill="url(#DCS)"/>
      

     
   
  </g>

  <g class='  keycap'
  >

  
    <!-- Outer Border -->
    <rect x="163" y="82"
          width="52" height="52"
          rx="5" fill="#1a1a1a" class="outer border"/>
    
    <!-- Outer Fill -->
    <rect x="163" y="82"
          width="52" height="52"
          rx="5" fill="#1a1a1a"/>
    

    
      <!-- Inner Border -->
      <rect x="169" y="85"
            width="40" height="40"
            rx="5" fill="#1e1e1e" class="inner border"/>
      
      <!-- Inner Fill -->
      <rect x="169" y="85"
            width="40" height="40"
            rx="5" fill="#1e1e1e"/>
      
      
        
        
        <rect x="169" y="85"
              width="40" height="40"
              rx="5" fill="url(#DCS)"/>
      

     
   
  </g>

  <g class='  keycap'
  >

  
    <!-- Outer Border -->
    <rect x="1" y="136"
          width="52" height="52"
          rx="5" fill="#1a1a1a" class="outer border"/>
    
    <!-- Outer Fill -->
    <rect x="1" y="136"
          width="52" height="52"
          rx="5" fill="#1a1a1a"/>
    

    
      <!-- Inner Border -->
      <rect x="7" y="139"
            width="40" height="40"
            rx="5" fill="#1e1e1e" class="inner border"/>
      
      <!-- Inner Fill -->
      <rect x="7" y="139"
            width="40" height="40"
            rx="5" fill="#1e1e1e"/>
      
      
        
        
        <rect x="7" y="139"
              width="40" height="40"
              rx="5" fill="url(#DCS)"/>
      

     
   
  </g>

  <g class='  keycap'
  >

  
    <!-- Outer Border -->
    <rect x="55" y="136"
          width="52" height="52"
          rx="5" fill="#1a1a1a" class="outer border"/>
    
    <!-- Outer Fill -->
    <rect x="55" y="136"
          width="52" height="52"
          rx="5" fill="#1a1a1a"/>
    

    
      <!-- Inner Border -->
      <rect x="61" y="139"
            width="40" height="40"
            rx="5" fill="#1e1e1e" class="inner border"/>
      
      <!-- Inner Fill -->
      <rect x="61" y="139"
            width="40" height="40"
            rx="5" fill="#1e1e1e"/>
      
      
        
        
        <rect x="61" y="139"
              width="40" height="40"
              rx="5" fill="url(#DCS)"/>
      

     
   
  </g>

  <g class='  keycap'
  >

  
    <!-- Outer Border -->
    <rect x="109" y="136"
          width="52" height="52"
          rx="5" fill="#1a1a1a" class="outer border"/>
    
    <!-- Outer Fill -->
    <rect x="109" y="136"
          width="52" height="52"
          rx="5" fill="#1a1a1a"/>
    

    
      <!-- Inner Border -->
      <rect x="115" y="139"
            width="40" height="40"
            rx="5" fill="#1e1e1e" class="inner border"/>
      
      <!-- Inner Fill -->
      <rect x="115" y="139"
            width="40" height="40"
            rx="5" fill="#1e1e1e"/>
      
      
        
        
        <rect x="115" y="139"
              width="40" height="40"
              rx="5" fill="url(#DCS)"/>
      

     
   
  </g>

  <g class='  keycap'
  >

  
    <!-- Outer Border -->
    <rect x="163" y="136"
          width="52" height="106"
          rx="5" fill="#1a1a1a" class="outer border"/>
    
    <!-- Outer Fill -->
    <rect x="163" y="136"
          width="52" height="106"
          rx="5" fill="#1a1a1a"/>
    

    
      <!-- Inner Border -->
      <rect x="169" y="139"
            width="40" height="94"
            rx="5" fill="#1e1e1e" class="inner border"/>
      
      <!-- Inner Fill -->
      <rect x="169" y="139"
            width="40" height="94"
            rx="5" fill="#1e1e1e"/>
      
      
        
        
        <rect x="169" y="139"
              width="40" height="94"
              rx="5" fill="url(#DCS)"/>
      

     
   
  </g>

  <g class='  keycap'
  >

  
    <!-- Outer Border -->
    <rect x="1" y="190"
          width="52" height="52"
          rx="5" fill="#1a1a1a" class="outer border"/>
    
    <!-- Outer Fill -->
    <rect x="1" y="190"
          width="52" height="52"
          rx="5" fill="#1a1a1a"/>
    

    
      <!-- Inner Border -->
      <rect x="7" y="193"
            width="40" height="40"
            rx="5" fill="#1e1e1e" class="inner border"/>
      
      <!-- Inner Fill -->
      <rect x="7" y="193"
            width="40" height="40"
            rx="5" fill="#1e1e1e"/>
      
      
        
        
        <rect x="7" y="193"
              width="40" height="40"
              rx="5" fill="url(#DCS)"/>
      

     
   
  </g>

  <g class='  keycap'
  >

  
    <!-- Outer Border -->
    <rect x="55" y="190"
          width="52" height="52"
          rx="5" fill="#1a1a1a" class="outer border"/>
    
    <!-- Outer Fill -->
    <rect x="55" y="190"
          width="52" height="52"
          rx="5" fill="#1a1a1a"/>
    

    
      <!-- Inner Border -->
      <rect x="61" y="193"
            width="40" height="40"
            rx="5" fill="#1e1e1e" class="inner border"/>
      
      <!-- Inner Fill -->
      <rect x="61" y="193"
            width="40" height="40"
            rx="5" fill="#1e1e1e"/>
      
      
        
        
        <rect x="61" y="193"
              width="40" height="40"
              rx="5" fill="url(#DCS)"/>
      

     
   
  </g>

  <g class='  keycap'
  >

  
    <!-- Outer Border -->
    <rect x="109" y="190"
          width="52" height="52"
          rx="5" fill="#1a1a1a" class="outer border"/>
    
    <!-- Outer Fill -->
    <rect x="109" y="190"
          width="52" height="52"
          rx="5" fill="#1a1a1a"/>
    

    
      <!-- Inner Border -->
      <rect x="115" y="193"
            width="40" height="40"
            rx="5" fill="#1e1e1e" class="inner border"/>
      
      <!-- Inner Fill -->
      <rect x="115" y="193"
            width="40" height="40"
            rx="5" fill="#1e1e1e"/>
      
      
        
        
        <rect x="115" y="193"
              width="40" height="40"
              rx="5" fill="url(#DCS)"/>
      

     
   
  </g>

  <g class='  keycap'
  >

  
    <!-- Outer Border -->
    <rect x="1" y="244"
          width="52" height="52"
          rx="5" fill="#1a1a1a" class="outer border"/>
    
    <!-- Outer Fill -->
    <rect x="1" y="244"
          width="52" height="52"
          rx="5" fill="#1a1a1a"/>
    

    
      <!-- Inner Border -->
      <rect x="7" y="247"
            width="40" height="40"
            rx="5" fill="#1e1e1e" class="inner border"/>
      
      <!-- Inner Fill -->
      <rect x="7" y="247"
            width="40" height="40"
            rx="5" fill="#1e1e1e"/>
      
      
        
        
        <rect x="7" y="247"
              width="40" height="40"
              rx="5" fill="url(#DCS)"/>
      

     
   
  </g>

  <g class='  keycap'
  >

  
    <!-- Outer Border -->
    <rect x="55" y="244"
          width="52" height="52"
          rx="5" fill="#1a1a1a" class="outer border"/>
    
    <!-- Outer Fill -->
    <rect x="55" y="244"
          width="52" height="52"
          rx="5" fill="#1a1a1a"/>
    

    
      <!-- Inner Border -->
      <rect x="61" y="247"
            width="40" height="40"
            rx="5" fill="#1e1e1e" class="inner border"/>
      
      <!-- Inner Fill -->
      <rect x="61" y="247"
            width="40" height="40"
            rx="5" fill="#1e1e1e"/>
      
      
        
        
        <rect x="61" y="247"
              width="40" height="40"
              rx="5" fill="url(#DCS)"/>
      

     
   
  </g>

  <g class='  keycap'
  >

  
    <!-- Outer Border -->
    <rect x="109" y="244"
          width="52" height="52"
          rx="5" fill="#1a1a1a" class="outer border"/>
    
    <!-- Outer Fill -->
    <rect x="109" y="244"
          width="52" height="52"
          rx="5" fill="#1a1a1a"/>
    

    
      <!-- Inner Border -->
      <rect x="115" y="247"
            width="40" height="40"
            rx="5" fill="#1e1e1e" class="inner border"/>
      
      <!-- Inner Fill -->
      <rect x="115" y="247"
            width="40" height="40"
            rx="5" fill="#1e1e1e"/>
      
      
        
        
        <rect x="115" y="247"
              width="40" height="40"
              rx="5" fill="url(#DCS)"/>
      

     
   
  </g>

  <g class='  keycap'
  >

  
    <!-- Outer Border -->
    <rect x="163" y="244"
          width="52" height="106"
          rx="5" fill="#1a1a1a" class="outer border"/>
    
    <!-- Outer Fill -->
    <rect x="163" y="244"
          width="52" height="106"
          rx="5" fill="#1a1a1a"/>
    

    
      <!-- Inner Border -->
      <rect x="169" y="247"
            width="40" height="94"
            rx="5" fill="#1e1e1e" class="inner border"/>
      
      <!-- Inner Fill -->
      <rect x="169" y="247"
            width="40" height="94"
            rx="5" fill="#1e1e1e"/>
      
      
        
        
        <rect x="169" y="247"
              width="40" height="94"
              rx="5" fill="url(#DCS)"/>
      

     
   
  </g>

  <g class='  keycap'
  >

  
    <!-- Outer Border -->
    <rect x="1" y="298"
          width="106" height="52"
          rx="5" fill="#1a1a1a" class="outer border"/>
    
    <!-- Outer Fill -->
    <rect x="1" y="298"
          width="106" height="52"
          rx="5" fill="#1a1a1a"/>
    

    
      <!-- Inner Border -->
      <rect x="7" y="301"
            width="94" height="40"
            rx="5" fill="#1e1e1e" class="inner border"/>
      
      <!-- Inner Fill -->
      <rect x="7" y="301"
            width="94" height="40"
            rx="5" fill="#1e1e1e"/>
      
      
        
        
        <rect x="7" y="301"
              width="94" height="40"
              rx="5" fill="url(#DCS)"/>
      

     
   
  </g>

  <g class='  keycap'
  >

  
    <!-- Outer Border -->
    <rect x="109" y="298"
          width="52" height="52"
          rx="5" fill="#1a1a1a" class="outer border"/>
    
    <!-- Outer Fill -->
    <rect x="109" y="298"
          width="52" height="52"
          rx="5" fill="#1a1a1a"/>
    

    
      <!-- Inner Border -->
      <rect x="115" y="301"
            width="40" height="40"
            rx="5" fill="#1e1e1e" class="inner border"/>
      
      <!-- Inner Fill -->
      <rect x="115" y="301"
            width="40" height="40"
            rx="5" fill="#1e1e1e"/>
      
      
        
        
        <rect x="115" y="301"
              width="40" height="40"
              rx="5" fill="url(#DCS)"/>
      

     
   
  </g>

      </g>
    </g>
  </svg>
