<?xml version="1.0"?>
<!-- Generated by SVGo -->
<svg width="100.200mm" height="147.825mm"
     viewBox="0.000 0.000 100.200 147.825"
     xmlns="http://www.w3.org/2000/svg" 
     xmlns:xlink="http://www.w3.org/1999/xlink">
<polygon points="95.200,140.825 95.200,7.000 95.194,6.843 95.175,6.687 95.145,6.533 95.102,6.382 95.048,6.235 94.982,6.092 94.905,5.955 94.818,5.824 94.721,5.701 94.614,5.586 94.499,5.479 94.376,5.382 94.245,5.295 94.108,5.218 93.965,5.152 93.818,5.098 93.667,5.055 93.513,5.025 93.357,5.006 93.200,5.000 55.100,5.000 55.100,12.000 88.200,12.000 88.200,135.825 12.000,135.825 12.000,12.000 45.100,12.000 45.100,5.000 7.000,5.000 6.843,5.006 6.687,5.025 6.533,5.055 6.382,5.098 6.235,5.152 6.092,5.218 5.955,5.295 5.824,5.382 5.701,5.479 5.586,5.586 5.479,5.701 5.382,5.824 5.295,5.955 5.218,6.092 5.152,6.235 5.098,6.382 5.055,6.533 5.025,6.687 5.006,6.843 5.000,7.000 5.000,140.825 5.006,140.982 5.025,141.138 5.055,141.292 5.098,141.443 5.152,141.590 5.218,141.733 5.295,141.870 5.382,142.001 5.479,142.124 5.586,142.239 5.701,142.346 5.824,142.443 5.955,142.530 6.092,142.607 6.235,142.673 6.382,142.727 6.533,142.770 6.687,142.800 6.843,142.819 7.000,142.825 93.200,142.825 93.357,142.819 93.513,142.800 93.667,142.770 93.818,142.727 93.965,142.673 94.108,142.607 94.245,142.530 94.376,142.443 94.499,142.346 94.614,142.239 94.721,142.124 94.818,142.001 94.905,141.870 94.982,141.733 95.048,141.590 95.102,141.443 95.145,141.292 95.175,141.138 95.194,140.982" style="fill:none;stroke-width:0.2;stroke:black"/>
<polygon points="50.100,6.500 50.718,6.598 51.276,6.882 51.718,7.324 52.002,7.882 52.100,8.500 52.002,9.118 51.718,9.676 51.276,10.118 50.718,10.402 50.100,10.500 49.482,10.402 48.924,10.118 48.482,9.676 48.198,9.118 48.100,8.500 48.198,7.882 48.482,7.324 48.924,6.882 49.482,6.598" style="fill:none;stroke-width:0.2;stroke:black"/>
<polygon points="91.700,6.500 92.318,6.598 92.876,6.882 93.318,7.324 93.602,7.882 93.700,8.500 93.602,9.118 93.318,9.676 92.876,10.118 92.318,10.402 91.700,10.500 91.082,10.402 90.524,10.118 90.082,9.676 89.798,9.118 89.700,8.500 89.798,7.882 90.082,7.324 90.524,6.882 91.082,6.598" style="fill:none;stroke-width:0.2;stroke:black"/>
<polygon points="91.700,71.912 92.318,72.010 92.876,72.294 93.318,72.737 93.602,73.294 93.700,73.912 93.602,74.531 93.318,75.088 92.876,75.531 92.318,75.815 91.700,75.912 91.082,75.815 90.524,75.531 90.082,75.088 89.798,74.531 89.700,73.912 89.798,73.294 90.082,72.737 90.524,72.294 91.082,72.010" style="fill:none;stroke-width:0.2;stroke:black"/>
<polygon points="91.700,137.325 92.318,137.423 92.876,137.707 93.318,138.149 93.602,138.707 93.700,139.325 93.602,139.943 93.318,140.501 92.876,140.943 92.318,141.227 91.700,141.325 91.082,141.227 90.524,140.943 90.082,140.501 89.798,139.943 89.700,139.325 89.798,138.707 90.082,138.149 90.524,137.707 91.082,137.423" style="fill:none;stroke-width:0.2;stroke:black"/>
<polygon points="50.100,137.325 50.718,137.423 51.276,137.707 51.718,138.149 52.002,138.707 52.100,139.325 52.002,139.943 51.718,140.501 51.276,140.943 50.718,141.227 50.100,141.325 49.482,141.227 48.924,140.943 48.482,140.501 48.198,139.943 48.100,139.325 48.198,138.707 48.482,138.149 48.924,137.707 49.482,137.423" style="fill:none;stroke-width:0.2;stroke:black"/>
<polygon points="8.500,137.325 9.118,137.423 9.676,137.707 10.118,138.149 10.402,138.707 10.500,139.325 10.402,139.943 10.118,140.501 9.676,140.943 9.118,141.227 8.500,141.325 7.882,141.227 7.324,140.943 6.882,140.501 6.598,139.943 6.500,139.325 6.598,138.707 6.882,138.149 7.324,137.707 7.882,137.423" style="fill:none;stroke-width:0.2;stroke:black"/>
<polygon points="8.500,71.912 9.118,72.010 9.676,72.294 10.118,72.737 10.402,73.294 10.500,73.912 10.402,74.531 10.118,75.088 9.676,75.531 9.118,75.815 8.500,75.912 7.882,75.815 7.324,75.531 6.882,75.088 6.598,74.531 6.500,73.912 6.598,73.294 6.882,72.737 7.324,72.294 7.882,72.010" style="fill:none;stroke-width:0.2;stroke:black"/>
<polygon points="8.500,6.500 9.118,6.598 9.676,6.882 10.118,7.324 10.402,7.882 10.500,8.500 10.402,9.118 10.118,9.676 9.676,10.118 9.118,10.402 8.500,10.500 7.882,10.402 7.324,10.118 6.882,9.676 6.598,9.118 6.500,8.500 6.598,7.882 6.882,7.324 7.324,6.882 7.882,6.598" style="fill:none;stroke-width:0.2;stroke:black"/>
</svg>
