<?xml version="1.0"?>
<!-- Generated by SVGo -->
<svg width="98.200mm" height="145.825mm"
     viewBox="0.000 0.000 98.200 145.825"
     xmlns="http://www.w3.org/2000/svg" 
     xmlns:xlink="http://www.w3.org/1999/xlink">
<polygon points="91.200,5.000 91.357,5.006 91.513,5.025 91.667,5.055 91.818,5.098 91.965,5.152 92.108,5.218 92.245,5.295 92.376,5.382 92.499,5.479 92.614,5.586 92.721,5.701 92.818,5.824 92.905,5.955 92.982,6.092 93.048,6.235 93.102,6.382 93.145,6.533 93.175,6.687 93.194,6.843 93.200,7.000 93.200,138.825 93.194,138.982 93.175,139.138 93.145,139.292 93.102,139.443 93.048,139.590 92.982,139.733 92.905,139.870 92.818,140.001 92.721,140.124 92.614,140.239 92.499,140.346 92.376,140.443 92.245,140.530 92.108,140.607 91.965,140.673 91.818,140.727 91.667,140.770 91.513,140.800 91.357,140.819 91.200,140.825 7.000,140.825 6.843,140.819 6.687,140.800 6.533,140.770 6.382,140.727 6.235,140.673 6.092,140.607 5.955,140.530 5.824,140.443 5.701,140.346 5.586,140.239 5.479,140.124 5.382,140.001 5.295,139.870 5.218,139.733 5.152,139.590 5.098,139.443 5.055,139.292 5.025,139.138 5.006,138.982 5.000,138.825 5.000,7.000 5.006,6.843 5.025,6.687 5.055,6.533 5.098,6.382 5.152,6.235 5.218,6.092 5.295,5.955 5.382,5.824 5.479,5.701 5.586,5.586 5.701,5.479 5.824,5.382 5.955,5.295 6.092,5.218 6.235,5.152 6.382,5.098 6.533,5.055 6.687,5.025 6.843,5.006 7.000,5.000" style="fill:none;stroke-width:0.2;stroke:black"/>
<polygon points="49.100,6.500 49.564,6.573 49.982,6.786 50.314,7.118 50.527,7.536 50.600,8.000 50.527,8.464 50.314,8.882 49.982,9.214 49.564,9.427 49.100,9.500 48.636,9.427 48.218,9.214 47.886,8.882 47.673,8.464 47.600,8.000 47.673,7.536 47.886,7.118 48.218,6.786 48.636,6.573" style="fill:none;stroke-width:0.2;stroke:black"/>
<polygon points="90.200,6.500 90.664,6.573 91.082,6.786 91.414,7.118 91.627,7.536 91.700,8.000 91.627,8.464 91.414,8.882 91.082,9.214 90.664,9.427 90.200,9.500 89.736,9.427 89.318,9.214 88.986,8.882 88.773,8.464 88.700,8.000 88.773,7.536 88.986,7.118 89.318,6.786 89.736,6.573" style="fill:none;stroke-width:0.2;stroke:black"/>
<polygon points="90.200,49.775 90.664,49.848 91.082,50.061 91.414,50.393 91.627,50.811 91.700,51.275 91.627,51.739 91.414,52.157 91.082,52.489 90.664,52.702 90.200,52.775 89.736,52.702 89.318,52.489 88.986,52.157 88.773,51.739 88.700,51.275 88.773,50.811 88.986,50.393 89.318,50.061 89.736,49.848" style="fill:none;stroke-width:0.2;stroke:black"/>
<polygon points="90.200,93.050 90.664,93.123 91.082,93.336 91.414,93.668 91.627,94.086 91.700,94.550 91.627,95.014 91.414,95.432 91.082,95.764 90.664,95.977 90.200,96.050 89.736,95.977 89.318,95.764 88.986,95.432 88.773,95.014 88.700,94.550 88.773,94.086 88.986,93.668 89.318,93.336 89.736,93.123" style="fill:none;stroke-width:0.2;stroke:black"/>
<polygon points="90.200,136.325 90.664,136.398 91.082,136.611 91.414,136.943 91.627,137.361 91.700,137.825 91.627,138.289 91.414,138.707 91.082,139.039 90.664,139.252 90.200,139.325 89.736,139.252 89.318,139.039 88.986,138.707 88.773,138.289 88.700,137.825 88.773,137.361 88.986,136.943 89.318,136.611 89.736,136.398" style="fill:none;stroke-width:0.2;stroke:black"/>
<polygon points="49.100,136.325 49.564,136.398 49.982,136.611 50.314,136.943 50.527,137.361 50.600,137.825 50.527,138.289 50.314,138.707 49.982,139.039 49.564,139.252 49.100,139.325 48.636,139.252 48.218,139.039 47.886,138.707 47.673,138.289 47.600,137.825 47.673,137.361 47.886,136.943 48.218,136.611 48.636,136.398" style="fill:none;stroke-width:0.2;stroke:black"/>
<polygon points="8.000,136.325 8.464,136.398 8.882,136.611 9.214,136.943 9.427,137.361 9.500,137.825 9.427,138.289 9.214,138.707 8.882,139.039 8.464,139.252 8.000,139.325 7.536,139.252 7.118,139.039 6.786,138.707 6.573,138.289 6.500,137.825 6.573,137.361 6.786,136.943 7.118,136.611 7.536,136.398" style="fill:none;stroke-width:0.2;stroke:black"/>
<polygon points="8.000,93.050 8.464,93.123 8.882,93.336 9.214,93.668 9.427,94.086 9.500,94.550 9.427,95.014 9.214,95.432 8.882,95.764 8.464,95.977 8.000,96.050 7.536,95.977 7.118,95.764 6.786,95.432 6.573,95.014 6.500,94.550 6.573,94.086 6.786,93.668 7.118,93.336 7.536,93.123" style="fill:none;stroke-width:0.2;stroke:black"/>
<polygon points="8.000,49.775 8.464,49.848 8.882,50.061 9.214,50.393 9.427,50.811 9.500,51.275 9.427,51.739 9.214,52.157 8.882,52.489 8.464,52.702 8.000,52.775 7.536,52.702 7.118,52.489 6.786,52.157 6.573,51.739 6.500,51.275 6.573,50.811 6.786,50.393 7.118,50.061 7.536,49.848" style="fill:none;stroke-width:0.2;stroke:black"/>
<polygon points="8.000,6.500 8.464,6.573 8.882,6.786 9.214,7.118 9.427,7.536 9.500,8.000 9.427,8.464 9.214,8.882 8.882,9.214 8.464,9.427 8.000,9.500 7.536,9.427 7.118,9.214 6.786,8.882 6.573,8.464 6.500,8.000 6.573,7.536 6.786,7.118 7.118,6.786 7.536,6.573" style="fill:none;stroke-width:0.2;stroke:black"/>
<polygon points="27.525,26.925 27.525,27.525 13.525,27.525 13.525,26.925 12.725,26.925 12.725,14.125 13.525,14.125 13.525,13.525 27.525,13.525 27.525,14.125 28.325,14.125 28.325,26.925" style="fill:none;stroke-width:0.2;stroke:black"/>
<polygon points="27.525,55.500 27.525,56.100 13.525,56.100 13.525,55.500 12.725,55.500 12.725,42.700 13.525,42.700 13.525,42.100 27.525,42.100 27.525,42.700 28.325,42.700 28.325,55.500" style="fill:none;stroke-width:0.2;stroke:black"/>
<polygon points="27.525,74.550 27.525,75.150 13.525,75.150 13.525,74.550 12.725,74.550 12.725,61.750 13.525,61.750 13.525,61.150 27.525,61.150 27.525,61.750 28.325,61.750 28.325,74.550" style="fill:none;stroke-width:0.2;stroke:black"/>
<polygon points="27.525,93.600 27.525,94.200 13.525,94.200 13.525,93.600 12.725,93.600 12.725,80.800 13.525,80.800 13.525,80.200 27.525,80.200 27.525,80.800 28.325,80.800 28.325,93.600" style="fill:none;stroke-width:0.2;stroke:black"/>
<polygon points="27.525,112.650 27.525,113.250 13.525,113.250 13.525,112.650 12.725,112.650 12.725,99.850 13.525,99.850 13.525,99.250 27.525,99.250 27.525,99.850 28.325,99.850 28.325,112.650" style="fill:none;stroke-width:0.2;stroke:black"/>
<polygon points="45.275,125.800 45.275,132.070 43.650,132.070 43.650,133.050 40.350,133.050 40.350,132.070 38.625,132.070 38.625,131.270 37.850,131.270 37.850,131.700 37.050,131.700 37.050,132.300 23.050,132.300 23.050,131.700 22.250,131.700 22.250,131.270 21.475,131.270 21.475,132.070 19.750,132.070 19.750,133.050 16.450,133.050 16.450,132.070 14.825,132.070 14.825,125.800 13.950,125.800 13.950,123.000 14.825,123.000 14.825,119.770 16.450,119.770 16.450,118.850 19.750,118.850 19.750,119.770 21.475,119.770 21.475,120.570 22.250,120.570 22.250,118.900 23.050,118.900 23.050,118.300 37.050,118.300 37.050,118.900 37.850,118.900 37.850,120.570 38.625,120.570 38.625,119.770 40.350,119.770 40.350,118.850 43.650,118.850 43.650,119.770 45.275,119.770 45.275,123.000 46.150,123.000 46.150,125.800" style="fill:none;stroke-width:0.2;stroke:black"/>
<polygon points="46.575,26.925 46.575,27.525 32.575,27.525 32.575,26.925 31.775,26.925 31.775,14.125 32.575,14.125 32.575,13.525 46.575,13.525 46.575,14.125 47.375,14.125 47.375,26.925" style="fill:none;stroke-width:0.2;stroke:black"/>
<polygon points="46.575,55.500 46.575,56.100 32.575,56.100 32.575,55.500 31.775,55.500 31.775,42.700 32.575,42.700 32.575,42.100 46.575,42.100 46.575,42.700 47.375,42.700 47.375,55.500" style="fill:none;stroke-width:0.2;stroke:black"/>
<polygon points="46.575,74.550 46.575,75.150 32.575,75.150 32.575,74.550 31.775,74.550 31.775,61.750 32.575,61.750 32.575,61.150 46.575,61.150 46.575,61.750 47.375,61.750 47.375,74.550" style="fill:none;stroke-width:0.2;stroke:black"/>
<polygon points="46.575,93.600 46.575,94.200 32.575,94.200 32.575,93.600 31.775,93.600 31.775,80.800 32.575,80.800 32.575,80.200 46.575,80.200 46.575,80.800 47.375,80.800 47.375,93.600" style="fill:none;stroke-width:0.2;stroke:black"/>
<polygon points="46.575,112.650 46.575,113.250 32.575,113.250 32.575,112.650 31.775,112.650 31.775,99.850 32.575,99.850 32.575,99.250 46.575,99.250 46.575,99.850 47.375,99.850 47.375,112.650" style="fill:none;stroke-width:0.2;stroke:black"/>
<polygon points="65.625,26.925 65.625,27.525 51.625,27.525 51.625,26.925 50.825,26.925 50.825,14.125 51.625,14.125 51.625,13.525 65.625,13.525 65.625,14.125 66.425,14.125 66.425,26.925" style="fill:none;stroke-width:0.2;stroke:black"/>
<polygon points="65.625,55.500 65.625,56.100 51.625,56.100 51.625,55.500 50.825,55.500 50.825,42.700 51.625,42.700 51.625,42.100 65.625,42.100 65.625,42.700 66.425,42.700 66.425,55.500" style="fill:none;stroke-width:0.2;stroke:black"/>
<polygon points="65.625,74.550 65.625,75.150 51.625,75.150 51.625,74.550 50.825,74.550 50.825,61.750 51.625,61.750 51.625,61.150 65.625,61.150 65.625,61.750 66.425,61.750 66.425,74.550" style="fill:none;stroke-width:0.2;stroke:black"/>
<polygon points="65.625,93.600 65.625,94.200 51.625,94.200 51.625,93.600 50.825,93.600 50.825,80.800 51.625,80.800 51.625,80.200 65.625,80.200 65.625,80.800 66.425,80.800 66.425,93.600" style="fill:none;stroke-width:0.2;stroke:black"/>
<polygon points="65.625,112.650 65.625,113.250 51.625,113.250 51.625,112.650 50.825,112.650 50.825,99.850 51.625,99.850 51.625,99.250 65.625,99.250 65.625,99.850 66.425,99.850 66.425,112.650" style="fill:none;stroke-width:0.2;stroke:black"/>
<polygon points="65.625,131.700 65.625,132.300 51.625,132.300 51.625,131.700 50.825,131.700 50.825,118.900 51.625,118.900 51.625,118.300 65.625,118.300 65.625,118.900 66.425,118.900 66.425,131.700" style="fill:none;stroke-width:0.2;stroke:black"/>
<polygon points="84.075,84.675 84.075,85.475 82.405,85.475 82.405,86.250 83.205,86.250 83.205,87.975 84.125,87.975 84.125,91.275 83.205,91.275 83.205,92.900 79.975,92.900 79.975,93.775 77.175,93.775 77.175,92.900 70.905,92.900 70.905,91.275 69.925,91.275 69.925,87.975 70.905,87.975 70.905,86.250 71.705,86.250 71.705,85.475 71.275,85.475 71.275,84.675 70.675,84.675 70.675,70.675 71.275,70.675 71.275,69.875 71.705,69.875 71.705,69.100 70.905,69.100 70.905,67.375 69.925,67.375 69.925,64.075 70.905,64.075 70.905,62.450 77.175,62.450 77.175,61.575 79.975,61.575 79.975,62.450 83.205,62.450 83.205,64.075 84.125,64.075 84.125,67.375 83.205,67.375 83.205,69.100 82.405,69.100 82.405,69.875 84.075,69.875 84.075,70.675 84.675,70.675 84.675,84.675" style="fill:none;stroke-width:0.2;stroke:black"/>
<polygon points="84.075,122.775 84.075,123.575 82.405,123.575 82.405,124.350 83.205,124.350 83.205,126.075 84.125,126.075 84.125,129.375 83.205,129.375 83.205,131.000 79.975,131.000 79.975,131.875 77.175,131.875 77.175,131.000 70.905,131.000 70.905,129.375 69.925,129.375 69.925,126.075 70.905,126.075 70.905,124.350 71.705,124.350 71.705,123.575 71.275,123.575 71.275,122.775 70.675,122.775 70.675,108.775 71.275,108.775 71.275,107.975 71.705,107.975 71.705,107.200 70.905,107.200 70.905,105.475 69.925,105.475 69.925,102.175 70.905,102.175 70.905,100.550 77.175,100.550 77.175,99.675 79.975,99.675 79.975,100.550 83.205,100.550 83.205,102.175 84.125,102.175 84.125,105.475 83.205,105.475 83.205,107.200 82.405,107.200 82.405,107.975 84.075,107.975 84.075,108.775 84.675,108.775 84.675,122.775" style="fill:none;stroke-width:0.2;stroke:black"/>
<polygon points="84.675,26.925 84.675,27.525 70.675,27.525 70.675,26.925 69.875,26.925 69.875,14.125 70.675,14.125 70.675,13.525 84.675,13.525 84.675,14.125 85.475,14.125 85.475,26.925" style="fill:none;stroke-width:0.2;stroke:black"/>
<polygon points="84.675,55.500 84.675,56.100 70.675,56.100 70.675,55.500 69.875,55.500 69.875,42.700 70.675,42.700 70.675,42.100 84.675,42.100 84.675,42.700 85.475,42.700 85.475,55.500" style="fill:none;stroke-width:0.2;stroke:black"/>
</svg>
