<?xml version="1.0"?>
<!-- Generated by SVGo -->
<svg width="100.200mm" height="147.825mm"
     viewBox="0.000 0.000 100.200 147.825"
     xmlns="http://www.w3.org/2000/svg" 
     xmlns:xlink="http://www.w3.org/1999/xlink">
<polygon points="93.200,5.000 93.357,5.006 93.513,5.025 93.667,5.055 93.818,5.098 93.965,5.152 94.108,5.218 94.245,5.295 94.376,5.382 94.499,5.479 94.614,5.586 94.721,5.701 94.818,5.824 94.905,5.955 94.982,6.092 95.048,6.235 95.102,6.382 95.145,6.533 95.175,6.687 95.194,6.843 95.200,7.000 95.200,140.825 95.194,140.982 95.175,141.138 95.145,141.292 95.102,141.443 95.048,141.590 94.982,141.733 94.905,141.870 94.818,142.001 94.721,142.124 94.614,142.239 94.499,142.346 94.376,142.443 94.245,142.530 94.108,142.607 93.965,142.673 93.818,142.727 93.667,142.770 93.513,142.800 93.357,142.819 93.200,142.825 7.000,142.825 6.843,142.819 6.687,142.800 6.533,142.770 6.382,142.727 6.235,142.673 6.092,142.607 5.955,142.530 5.824,142.443 5.701,142.346 5.586,142.239 5.479,142.124 5.382,142.001 5.295,141.870 5.218,141.733 5.152,141.590 5.098,141.443 5.055,141.292 5.025,141.138 5.006,140.982 5.000,140.825 5.000,7.000 5.006,6.843 5.025,6.687 5.055,6.533 5.098,6.382 5.152,6.235 5.218,6.092 5.295,5.955 5.382,5.824 5.479,5.701 5.586,5.586 5.701,5.479 5.824,5.382 5.955,5.295 6.092,5.218 6.235,5.152 6.382,5.098 6.533,5.055 6.687,5.025 6.843,5.006 7.000,5.000" style="fill:none;stroke-width:0.2;stroke:black"/>
<polygon points="50.100,6.500 50.718,6.598 51.276,6.882 51.718,7.324 52.002,7.882 52.100,8.500 52.002,9.118 51.718,9.676 51.276,10.118 50.718,10.402 50.100,10.500 49.482,10.402 48.924,10.118 48.482,9.676 48.198,9.118 48.100,8.500 48.198,7.882 48.482,7.324 48.924,6.882 49.482,6.598" style="fill:none;stroke-width:0.2;stroke:black"/>
<polygon points="91.700,6.500 92.318,6.598 92.876,6.882 93.318,7.324 93.602,7.882 93.700,8.500 93.602,9.118 93.318,9.676 92.876,10.118 92.318,10.402 91.700,10.500 91.082,10.402 90.524,10.118 90.082,9.676 89.798,9.118 89.700,8.500 89.798,7.882 90.082,7.324 90.524,6.882 91.082,6.598" style="fill:none;stroke-width:0.2;stroke:black"/>
<polygon points="91.700,71.912 92.318,72.010 92.876,72.294 93.318,72.737 93.602,73.294 93.700,73.912 93.602,74.531 93.318,75.088 92.876,75.531 92.318,75.815 91.700,75.912 91.082,75.815 90.524,75.531 90.082,75.088 89.798,74.531 89.700,73.912 89.798,73.294 90.082,72.737 90.524,72.294 91.082,72.010" style="fill:none;stroke-width:0.2;stroke:black"/>
<polygon points="91.700,137.325 92.318,137.423 92.876,137.707 93.318,138.149 93.602,138.707 93.700,139.325 93.602,139.943 93.318,140.501 92.876,140.943 92.318,141.227 91.700,141.325 91.082,141.227 90.524,140.943 90.082,140.501 89.798,139.943 89.700,139.325 89.798,138.707 90.082,138.149 90.524,137.707 91.082,137.423" style="fill:none;stroke-width:0.2;stroke:black"/>
<polygon points="50.100,137.325 50.718,137.423 51.276,137.707 51.718,138.149 52.002,138.707 52.100,139.325 52.002,139.943 51.718,140.501 51.276,140.943 50.718,141.227 50.100,141.325 49.482,141.227 48.924,140.943 48.482,140.501 48.198,139.943 48.100,139.325 48.198,138.707 48.482,138.149 48.924,137.707 49.482,137.423" style="fill:none;stroke-width:0.2;stroke:black"/>
<polygon points="8.500,137.325 9.118,137.423 9.676,137.707 10.118,138.149 10.402,138.707 10.500,139.325 10.402,139.943 10.118,140.501 9.676,140.943 9.118,141.227 8.500,141.325 7.882,141.227 7.324,140.943 6.882,140.501 6.598,139.943 6.500,139.325 6.598,138.707 6.882,138.149 7.324,137.707 7.882,137.423" style="fill:none;stroke-width:0.2;stroke:black"/>
<polygon points="8.500,71.912 9.118,72.010 9.676,72.294 10.118,72.737 10.402,73.294 10.500,73.912 10.402,74.531 10.118,75.088 9.676,75.531 9.118,75.815 8.500,75.912 7.882,75.815 7.324,75.531 6.882,75.088 6.598,74.531 6.500,73.912 6.598,73.294 6.882,72.737 7.324,72.294 7.882,72.010" style="fill:none;stroke-width:0.2;stroke:black"/>
<polygon points="8.500,6.500 9.118,6.598 9.676,6.882 10.118,7.324 10.402,7.882 10.500,8.500 10.402,9.118 10.118,9.676 9.676,10.118 9.118,10.402 8.500,10.500 7.882,10.402 7.324,10.118 6.882,9.676 6.598,9.118 6.500,8.500 6.598,7.882 6.882,7.324 7.324,6.882 7.882,6.598" style="fill:none;stroke-width:0.2;stroke:black"/>
<polygon points="28.525,27.925 28.525,28.525 14.525,28.525 14.525,27.925 13.725,27.925 13.725,15.125 14.525,15.125 14.525,14.525 28.525,14.525 28.525,15.125 29.325,15.125 29.325,27.925" style="fill:none;stroke-width:0.2;stroke:black"/>
<polygon points="28.525,56.500 28.525,57.100 14.525,57.100 14.525,56.500 13.725,56.500 13.725,43.700 14.525,43.700 14.525,43.100 28.525,43.100 28.525,43.700 29.325,43.700 29.325,56.500" style="fill:none;stroke-width:0.2;stroke:black"/>
<polygon points="28.525,75.550 28.525,76.150 14.525,76.150 14.525,75.550 13.725,75.550 13.725,62.750 14.525,62.750 14.525,62.150 28.525,62.150 28.525,62.750 29.325,62.750 29.325,75.550" style="fill:none;stroke-width:0.2;stroke:black"/>
<polygon points="28.525,94.600 28.525,95.200 14.525,95.200 14.525,94.600 13.725,94.600 13.725,81.800 14.525,81.800 14.525,81.200 28.525,81.200 28.525,81.800 29.325,81.800 29.325,94.600" style="fill:none;stroke-width:0.2;stroke:black"/>
<polygon points="28.525,113.650 28.525,114.250 14.525,114.250 14.525,113.650 13.725,113.650 13.725,100.850 14.525,100.850 14.525,100.250 28.525,100.250 28.525,100.850 29.325,100.850 29.325,113.650" style="fill:none;stroke-width:0.2;stroke:black"/>
<polygon points="46.275,126.800 46.275,133.070 44.650,133.070 44.650,134.050 41.350,134.050 41.350,133.070 39.625,133.070 39.625,132.270 38.850,132.270 38.850,132.700 38.050,132.700 38.050,133.300 24.050,133.300 24.050,132.700 23.250,132.700 23.250,132.270 22.475,132.270 22.475,133.070 20.750,133.070 20.750,134.050 17.450,134.050 17.450,133.070 15.825,133.070 15.825,126.800 14.950,126.800 14.950,124.000 15.825,124.000 15.825,120.770 17.450,120.770 17.450,119.850 20.750,119.850 20.750,120.770 22.475,120.770 22.475,121.570 23.250,121.570 23.250,119.900 24.050,119.900 24.050,119.300 38.050,119.300 38.050,119.900 38.850,119.900 38.850,121.570 39.625,121.570 39.625,120.770 41.350,120.770 41.350,119.850 44.650,119.850 44.650,120.770 46.275,120.770 46.275,124.000 47.150,124.000 47.150,126.800" style="fill:none;stroke-width:0.2;stroke:black"/>
<polygon points="47.575,27.925 47.575,28.525 33.575,28.525 33.575,27.925 32.775,27.925 32.775,15.125 33.575,15.125 33.575,14.525 47.575,14.525 47.575,15.125 48.375,15.125 48.375,27.925" style="fill:none;stroke-width:0.2;stroke:black"/>
<polygon points="47.575,56.500 47.575,57.100 33.575,57.100 33.575,56.500 32.775,56.500 32.775,43.700 33.575,43.700 33.575,43.100 47.575,43.100 47.575,43.700 48.375,43.700 48.375,56.500" style="fill:none;stroke-width:0.2;stroke:black"/>
<polygon points="47.575,75.550 47.575,76.150 33.575,76.150 33.575,75.550 32.775,75.550 32.775,62.750 33.575,62.750 33.575,62.150 47.575,62.150 47.575,62.750 48.375,62.750 48.375,75.550" style="fill:none;stroke-width:0.2;stroke:black"/>
<polygon points="47.575,94.600 47.575,95.200 33.575,95.200 33.575,94.600 32.775,94.600 32.775,81.800 33.575,81.800 33.575,81.200 47.575,81.200 47.575,81.800 48.375,81.800 48.375,94.600" style="fill:none;stroke-width:0.2;stroke:black"/>
<polygon points="47.575,113.650 47.575,114.250 33.575,114.250 33.575,113.650 32.775,113.650 32.775,100.850 33.575,100.850 33.575,100.250 47.575,100.250 47.575,100.850 48.375,100.850 48.375,113.650" style="fill:none;stroke-width:0.2;stroke:black"/>
<polygon points="66.625,27.925 66.625,28.525 52.625,28.525 52.625,27.925 51.825,27.925 51.825,15.125 52.625,15.125 52.625,14.525 66.625,14.525 66.625,15.125 67.425,15.125 67.425,27.925" style="fill:none;stroke-width:0.2;stroke:black"/>
<polygon points="66.625,56.500 66.625,57.100 52.625,57.100 52.625,56.500 51.825,56.500 51.825,43.700 52.625,43.700 52.625,43.100 66.625,43.100 66.625,43.700 67.425,43.700 67.425,56.500" style="fill:none;stroke-width:0.2;stroke:black"/>
<polygon points="66.625,75.550 66.625,76.150 52.625,76.150 52.625,75.550 51.825,75.550 51.825,62.750 52.625,62.750 52.625,62.150 66.625,62.150 66.625,62.750 67.425,62.750 67.425,75.550" style="fill:none;stroke-width:0.2;stroke:black"/>
<polygon points="66.625,94.600 66.625,95.200 52.625,95.200 52.625,94.600 51.825,94.600 51.825,81.800 52.625,81.800 52.625,81.200 66.625,81.200 66.625,81.800 67.425,81.800 67.425,94.600" style="fill:none;stroke-width:0.2;stroke:black"/>
<polygon points="66.625,113.650 66.625,114.250 52.625,114.250 52.625,113.650 51.825,113.650 51.825,100.850 52.625,100.850 52.625,100.250 66.625,100.250 66.625,100.850 67.425,100.850 67.425,113.650" style="fill:none;stroke-width:0.2;stroke:black"/>
<polygon points="66.625,132.700 66.625,133.300 52.625,133.300 52.625,132.700 51.825,132.700 51.825,119.900 52.625,119.900 52.625,119.300 66.625,119.300 66.625,119.900 67.425,119.900 67.425,132.700" style="fill:none;stroke-width:0.2;stroke:black"/>
<polygon points="85.075,85.675 85.075,86.475 83.405,86.475 83.405,87.250 84.205,87.250 84.205,88.975 85.125,88.975 85.125,92.275 84.205,92.275 84.205,93.900 80.975,93.900 80.975,94.775 78.175,94.775 78.175,93.900 71.905,93.900 71.905,92.275 70.925,92.275 70.925,88.975 71.905,88.975 71.905,87.250 72.705,87.250 72.705,86.475 72.275,86.475 72.275,85.675 71.675,85.675 71.675,71.675 72.275,71.675 72.275,70.875 72.705,70.875 72.705,70.100 71.905,70.100 71.905,68.375 70.925,68.375 70.925,65.075 71.905,65.075 71.905,63.450 78.175,63.450 78.175,62.575 80.975,62.575 80.975,63.450 84.205,63.450 84.205,65.075 85.125,65.075 85.125,68.375 84.205,68.375 84.205,70.100 83.405,70.100 83.405,70.875 85.075,70.875 85.075,71.675 85.675,71.675 85.675,85.675" style="fill:none;stroke-width:0.2;stroke:black"/>
<polygon points="85.075,123.775 85.075,124.575 83.405,124.575 83.405,125.350 84.205,125.350 84.205,127.075 85.125,127.075 85.125,130.375 84.205,130.375 84.205,132.000 80.975,132.000 80.975,132.875 78.175,132.875 78.175,132.000 71.905,132.000 71.905,130.375 70.925,130.375 70.925,127.075 71.905,127.075 71.905,125.350 72.705,125.350 72.705,124.575 72.275,124.575 72.275,123.775 71.675,123.775 71.675,109.775 72.275,109.775 72.275,108.975 72.705,108.975 72.705,108.200 71.905,108.200 71.905,106.475 70.925,106.475 70.925,103.175 71.905,103.175 71.905,101.550 78.175,101.550 78.175,100.675 80.975,100.675 80.975,101.550 84.205,101.550 84.205,103.175 85.125,103.175 85.125,106.475 84.205,106.475 84.205,108.200 83.405,108.200 83.405,108.975 85.075,108.975 85.075,109.775 85.675,109.775 85.675,123.775" style="fill:none;stroke-width:0.2;stroke:black"/>
<polygon points="85.675,27.925 85.675,28.525 71.675,28.525 71.675,27.925 70.875,27.925 70.875,15.125 71.675,15.125 71.675,14.525 85.675,14.525 85.675,15.125 86.475,15.125 86.475,27.925" style="fill:none;stroke-width:0.2;stroke:black"/>
<polygon points="85.675,56.500 85.675,57.100 71.675,57.100 71.675,56.500 70.875,56.500 70.875,43.700 71.675,43.700 71.675,43.100 85.675,43.100 85.675,43.700 86.475,43.700 86.475,56.500" style="fill:none;stroke-width:0.2;stroke:black"/>
</svg>
