  0
SECTION
  2
HEADER
  9
$ACADVER
  1
AC1009
  9
$EXTMIN
 10
0.0
 20
0.0
 30
0.0
  9
$EXTMAX
 10
1000.0
 20
1000.0
 30
0.0
  9
$FILLMODE
 70
 0
  9
$SPLFRAME
 70
 1
  0
ENDSEC
  0
SECTION
  2
TABLES
  0
TABLE
  2
LAYER
 70
1
  0
LAYER
  2
0
 70
     0
 62
     7
  6
CONTINUOUS
  0
ENDTAB
  0
ENDSEC
  0
SECTION
  2
ENTITIES
  0
LINE
  8
0
 62
     0
 10
88.2936
 20
137.938
 30
0.0
 11
88.4509
 21
137.932
 31
0.0
  0
LINE
  8
0
 62
     0
 10
88.4509
 20
137.932
 30
0.0
 11
88.6065
 21
137.913
 31
0.0
  0
LINE
  8
0
 62
     0
 10
88.6065
 20
137.913
 30
0.0
 11
88.7607
 21
137.882
 31
0.0
  0
LINE
  8
0
 62
     0
 10
88.7607
 20
137.882
 30
0.0
 11
88.9123
 21
137.84
 31
0.0
  0
LINE
  8
0
 62
     0
 10
88.9123
 20
137.84
 30
0.0
 11
89.0584
 21
137.786
 31
0.0
  0
LINE
  8
0
 62
     0
 10
89.0584
 20
137.786
 30
0.0
 11
89.2016
 21
137.72
 31
0.0
  0
LINE
  8
0
 62
     0
 10
89.2016
 20
137.72
 30
0.0
 11
89.3382
 21
137.643
 31
0.0
  0
LINE
  8
0
 62
     0
 10
89.3382
 20
137.643
 30
0.0
 11
89.469
 21
137.556
 31
0.0
  0
LINE
  8
0
 62
     0
 10
89.469
 20
137.556
 30
0.0
 11
89.5932
 21
137.458
 31
0.0
  0
LINE
  8
0
 62
     0
 10
89.5932
 20
137.458
 30
0.0
 11
89.7075
 21
137.352
 31
0.0
  0
LINE
  8
0
 62
     0
 10
89.7075
 20
137.352
 30
0.0
 11
89.8151
 21
137.236
 31
0.0
  0
LINE
  8
0
 62
     0
 10
89.8151
 20
137.236
 30
0.0
 11
89.9114
 21
137.113
 31
0.0
  0
LINE
  8
0
 62
     0
 10
89.9114
 20
137.113
 30
0.0
 11
89.9982
 21
136.983
 31
0.0
  0
LINE
  8
0
 62
     0
 10
89.9982
 20
136.983
 30
0.0
 11
90.0755
 21
136.846
 31
0.0
  0
LINE
  8
0
 62
     0
 10
90.0755
 20
136.846
 30
0.0
 11
90.1418
 21
136.703
 31
0.0
  0
LINE
  8
0
 62
     0
 10
90.1418
 20
136.703
 30
0.0
 11
90.1954
 21
136.555
 31
0.0
  0
LINE
  8
0
 62
     0
 10
90.1954
 20
136.555
 30
0.0
 11
90.2381
 21
136.405
 31
0.0
  0
LINE
  8
0
 62
     0
 10
90.2381
 20
136.405
 30
0.0
 11
90.2684
 21
136.251
 31
0.0
  0
LINE
  8
0
 62
     0
 10
90.2684
 20
136.251
 30
0.0
 11
90.2878
 21
136.095
 31
0.0
  0
LINE
  8
0
 62
     0
 10
90.2878
 20
136.095
 30
0.0
 11
90.2931
 21
135.938
 31
0.0
  0
LINE
  8
0
 62
     0
 10
90.2931
 20
135.938
 30
0.0
 11
90.2931
 21
2.11253
 31
0.0
  0
LINE
  8
0
 62
     0
 10
90.2931
 20
2.11253
 30
0.0
 11
90.2878
 21
1.95544
 31
0.0
  0
LINE
  8
0
 62
     0
 10
90.2878
 20
1.95544
 30
0.0
 11
90.2684
 21
1.79972
 31
0.0
  0
LINE
  8
0
 62
     0
 10
90.2684
 20
1.79972
 30
0.0
 11
90.2381
 21
1.64538
 31
0.0
  0
LINE
  8
0
 62
     0
 10
90.2381
 20
1.64538
 30
0.0
 11
90.1954
 21
1.4938
 31
0.0
  0
LINE
  8
0
 62
     0
 10
90.1954
 20
1.4938
 30
0.0
 11
90.1418
 21
1.34772
 31
0.0
  0
LINE
  8
0
 62
     0
 10
90.1418
 20
1.34772
 30
0.0
 11
90.0755
 21
1.2044
 31
0.0
  0
LINE
  8
0
 62
     0
 10
90.0755
 20
1.2044
 30
0.0
 11
89.9982
 21
1.06798
 31
0.0
  0
LINE
  8
0
 62
     0
 10
89.9982
 20
1.06798
 30
0.0
 11
89.9114
 21
0.937066
 31
0.0
  0
LINE
  8
0
 62
     0
 10
89.9114
 20
0.937066
 30
0.0
 11
89.8151
 21
0.813043
 31
0.0
  0
LINE
  8
0
 62
     0
 10
89.8151
 20
0.813043
 30
0.0
 11
89.7075
 21
0.698666
 31
0.0
  0
LINE
  8
0
 62
     0
 10
89.7075
 20
0.698666
 30
0.0
 11
89.5932
 21
0.591178
 31
0.0
  0
LINE
  8
0
 62
     0
 10
89.5932
 20
0.591178
 30
0.0
 11
89.469
 21
0.494714
 31
0.0
  0
LINE
  8
0
 62
     0
 10
89.469
 20
0.494714
 30
0.0
 11
89.3382
 21
0.407899
 31
0.0
  0
LINE
  8
0
 62
     0
 10
89.3382
 20
0.407899
 30
0.0
 11
89.2016
 21
0.330729
 31
0.0
  0
LINE
  8
0
 62
     0
 10
89.2016
 20
0.330729
 30
0.0
 11
89.0584
 21
0.264583
 31
0.0
  0
LINE
  8
0
 62
     0
 10
89.0584
 20
0.264583
 30
0.0
 11
88.9123
 21
0.21084
 31
0.0
  0
LINE
  8
0
 62
     0
 10
88.9123
 20
0.21084
 30
0.0
 11
88.7607
 21
0.168121
 31
0.0
  0
LINE
  8
0
 62
     0
 10
88.7607
 20
0.168121
 30
0.0
 11
88.6065
 21
0.137804
 31
0.0
  0
LINE
  8
0
 62
     0
 10
88.6065
 20
0.137804
 30
0.0
 11
88.4509
 21
0.118511
 31
0.0
  0
LINE
  8
0
 62
     0
 10
88.4509
 20
0.118511
 30
0.0
 11
88.2936
 21
0.112999
 31
0.0
  0
LINE
  8
0
 62
     0
 10
88.2936
 20
0.112999
 30
0.0
 11
2.09324
 21
0.112999
 31
0.0
  0
LINE
  8
0
 62
     0
 10
2.09324
 20
0.112999
 30
0.0
 11
1.93614
 21
0.118511
 31
0.0
  0
LINE
  8
0
 62
     0
 10
1.93614
 20
0.118511
 30
0.0
 11
1.78043
 21
0.137804
 31
0.0
  0
LINE
  8
0
 62
     0
 10
1.78043
 20
0.137804
 30
0.0
 11
1.62609
 21
0.168121
 31
0.0
  0
LINE
  8
0
 62
     0
 10
1.62609
 20
0.168121
 30
0.0
 11
1.47588
 21
0.21084
 31
0.0
  0
LINE
  8
0
 62
     0
 10
1.47588
 20
0.21084
 30
0.0
 11
1.32843
 21
0.264583
 31
0.0
  0
LINE
  8
0
 62
     0
 10
1.32843
 20
0.264583
 30
0.0
 11
1.18511
 21
0.330729
 31
0.0
  0
LINE
  8
0
 62
     0
 10
1.18511
 20
0.330729
 30
0.0
 11
1.04869
 21
0.407899
 31
0.0
  0
LINE
  8
0
 62
     0
 10
1.04869
 20
0.407899
 30
0.0
 11
0.917773
 21
0.494714
 31
0.0
  0
LINE
  8
0
 62
     0
 10
0.917773
 20
0.494714
 30
0.0
 11
0.795129
 21
0.591178
 31
0.0
  0
LINE
  8
0
 62
     0
 10
0.795129
 20
0.591178
 30
0.0
 11
0.679372
 21
0.698666
 31
0.0
  0
LINE
  8
0
 62
     0
 10
0.679372
 20
0.698666
 30
0.0
 11
0.573264
 21
0.813043
 31
0.0
  0
LINE
  8
0
 62
     0
 10
0.573264
 20
0.813043
 30
0.0
 11
0.475424
 21
0.937066
 31
0.0
  0
LINE
  8
0
 62
     0
 10
0.475424
 20
0.937066
 30
0.0
 11
0.388606
 21
1.06798
 31
0.0
  0
LINE
  8
0
 62
     0
 10
0.388606
 20
1.06798
 30
0.0
 11
0.311437
 21
1.2044
 31
0.0
  0
LINE
  8
0
 62
     0
 10
0.311437
 20
1.2044
 30
0.0
 11
0.245291
 21
1.34772
 31
0.0
  0
LINE
  8
0
 62
     0
 10
0.245291
 20
1.34772
 30
0.0
 11
0.191547
 21
1.4938
 31
0.0
  0
LINE
  8
0
 62
     0
 10
0.191547
 20
1.4938
 30
0.0
 11
0.148828
 21
1.64538
 31
0.0
  0
LINE
  8
0
 62
     0
 10
0.148828
 20
1.64538
 30
0.0
 11
0.118511
 21
1.79972
 31
0.0
  0
LINE
  8
0
 62
     0
 10
0.118511
 20
1.79972
 30
0.0
 11
0.0992188
 21
1.95544
 31
0.0
  0
LINE
  8
0
 62
     0
 10
0.0992188
 20
1.95544
 30
0.0
 11
0.0937066
 21
2.11253
 31
0.0
  0
LINE
  8
0
 62
     0
 10
0.0937066
 20
2.11253
 30
0.0
 11
0.0937066
 21
135.938
 31
0.0
  0
LINE
  8
0
 62
     0
 10
0.0937066
 20
135.938
 30
0.0
 11
0.0992188
 21
136.095
 31
0.0
  0
LINE
  8
0
 62
     0
 10
0.0992188
 20
136.095
 30
0.0
 11
0.118511
 21
136.251
 31
0.0
  0
LINE
  8
0
 62
     0
 10
0.118511
 20
136.251
 30
0.0
 11
0.148828
 21
136.405
 31
0.0
  0
LINE
  8
0
 62
     0
 10
0.148828
 20
136.405
 30
0.0
 11
0.191547
 21
136.555
 31
0.0
  0
LINE
  8
0
 62
     0
 10
0.191547
 20
136.555
 30
0.0
 11
0.245291
 21
136.703
 31
0.0
  0
LINE
  8
0
 62
     0
 10
0.245291
 20
136.703
 30
0.0
 11
0.311437
 21
136.846
 31
0.0
  0
LINE
  8
0
 62
     0
 10
0.311437
 20
136.846
 30
0.0
 11
0.388606
 21
136.983
 31
0.0
  0
LINE
  8
0
 62
     0
 10
0.388606
 20
136.983
 30
0.0
 11
0.475424
 21
137.113
 31
0.0
  0
LINE
  8
0
 62
     0
 10
0.475424
 20
137.113
 30
0.0
 11
0.573264
 21
137.236
 31
0.0
  0
LINE
  8
0
 62
     0
 10
0.573264
 20
137.236
 30
0.0
 11
0.679372
 21
137.352
 31
0.0
  0
LINE
  8
0
 62
     0
 10
0.679372
 20
137.352
 30
0.0
 11
0.795129
 21
137.458
 31
0.0
  0
LINE
  8
0
 62
     0
 10
0.795129
 20
137.458
 30
0.0
 11
0.917773
 21
137.556
 31
0.0
  0
LINE
  8
0
 62
     0
 10
0.917773
 20
137.556
 30
0.0
 11
1.04869
 21
137.643
 31
0.0
  0
LINE
  8
0
 62
     0
 10
1.04869
 20
137.643
 30
0.0
 11
1.18511
 21
137.72
 31
0.0
  0
LINE
  8
0
 62
     0
 10
1.18511
 20
137.72
 30
0.0
 11
1.32843
 21
137.786
 31
0.0
  0
LINE
  8
0
 62
     0
 10
1.32843
 20
137.786
 30
0.0
 11
1.47588
 21
137.84
 31
0.0
  0
LINE
  8
0
 62
     0
 10
1.47588
 20
137.84
 30
0.0
 11
1.62609
 21
137.882
 31
0.0
  0
LINE
  8
0
 62
     0
 10
1.62609
 20
137.882
 30
0.0
 11
1.78043
 21
137.913
 31
0.0
  0
LINE
  8
0
 62
     0
 10
1.78043
 20
137.913
 30
0.0
 11
1.93614
 21
137.932
 31
0.0
  0
LINE
  8
0
 62
     0
 10
1.93614
 20
137.932
 30
0.0
 11
2.09324
 21
137.938
 31
0.0
  0
LINE
  8
0
 62
     0
 10
2.09324
 20
137.938
 30
0.0
 11
88.2936
 21
137.938
 31
0.0
  0
LINE
  8
0
 62
     0
 10
45.194
 20
136.437
 30
0.0
 11
45.8114
 21
136.339
 31
0.0
  0
LINE
  8
0
 62
     0
 10
45.8114
 20
136.339
 30
0.0
 11
46.3695
 21
136.055
 31
0.0
  0
LINE
  8
0
 62
     0
 10
46.3695
 20
136.055
 30
0.0
 11
46.8118
 21
135.614
 31
0.0
  0
LINE
  8
0
 62
     0
 10
46.8118
 20
135.614
 30
0.0
 11
47.0958
 21
135.056
 31
0.0
  0
LINE
  8
0
 62
     0
 10
47.0958
 20
135.056
 30
0.0
 11
47.1936
 21
134.437
 31
0.0
  0
LINE
  8
0
 62
     0
 10
47.1936
 20
134.437
 30
0.0
 11
47.0958
 21
133.82
 31
0.0
  0
LINE
  8
0
 62
     0
 10
47.0958
 20
133.82
 30
0.0
 11
46.8118
 21
133.262
 31
0.0
  0
LINE
  8
0
 62
     0
 10
46.8118
 20
133.262
 30
0.0
 11
46.3695
 21
132.819
 31
0.0
  0
LINE
  8
0
 62
     0
 10
46.3695
 20
132.819
 30
0.0
 11
45.8114
 21
132.535
 31
0.0
  0
LINE
  8
0
 62
     0
 10
45.8114
 20
132.535
 30
0.0
 11
45.194
 21
132.438
 31
0.0
  0
LINE
  8
0
 62
     0
 10
45.194
 20
132.438
 30
0.0
 11
44.5752
 21
132.535
 31
0.0
  0
LINE
  8
0
 62
     0
 10
44.5752
 20
132.535
 30
0.0
 11
44.0171
 21
132.819
 31
0.0
  0
LINE
  8
0
 62
     0
 10
44.0171
 20
132.819
 30
0.0
 11
43.5762
 21
133.262
 31
0.0
  0
LINE
  8
0
 62
     0
 10
43.5762
 20
133.262
 30
0.0
 11
43.2911
 21
133.82
 31
0.0
  0
LINE
  8
0
 62
     0
 10
43.2911
 20
133.82
 30
0.0
 11
43.1934
 21
134.437
 31
0.0
  0
LINE
  8
0
 62
     0
 10
43.1934
 20
134.437
 30
0.0
 11
43.2911
 21
135.056
 31
0.0
  0
LINE
  8
0
 62
     0
 10
43.2911
 20
135.056
 30
0.0
 11
43.5762
 21
135.614
 31
0.0
  0
LINE
  8
0
 62
     0
 10
43.5762
 20
135.614
 30
0.0
 11
44.0171
 21
136.055
 31
0.0
  0
LINE
  8
0
 62
     0
 10
44.0171
 20
136.055
 30
0.0
 11
44.5752
 21
136.339
 31
0.0
  0
LINE
  8
0
 62
     0
 10
44.5752
 20
136.339
 30
0.0
 11
45.194
 21
136.437
 31
0.0
  0
LINE
  8
0
 62
     0
 10
86.7943
 20
136.437
 30
0.0
 11
87.4116
 21
136.339
 31
0.0
  0
LINE
  8
0
 62
     0
 10
87.4116
 20
136.339
 30
0.0
 11
87.9697
 21
136.055
 31
0.0
  0
LINE
  8
0
 62
     0
 10
87.9697
 20
136.055
 30
0.0
 11
88.4121
 21
135.614
 31
0.0
  0
LINE
  8
0
 62
     0
 10
88.4121
 20
135.614
 30
0.0
 11
88.6961
 21
135.056
 31
0.0
  0
LINE
  8
0
 62
     0
 10
88.6961
 20
135.056
 30
0.0
 11
88.7938
 21
134.437
 31
0.0
  0
LINE
  8
0
 62
     0
 10
88.7938
 20
134.437
 30
0.0
 11
88.6961
 21
133.82
 31
0.0
  0
LINE
  8
0
 62
     0
 10
88.6961
 20
133.82
 30
0.0
 11
88.4121
 21
133.262
 31
0.0
  0
LINE
  8
0
 62
     0
 10
88.4121
 20
133.262
 30
0.0
 11
87.9697
 21
132.819
 31
0.0
  0
LINE
  8
0
 62
     0
 10
87.9697
 20
132.819
 30
0.0
 11
87.4116
 21
132.535
 31
0.0
  0
LINE
  8
0
 62
     0
 10
87.4116
 20
132.535
 30
0.0
 11
86.7943
 21
132.438
 31
0.0
  0
LINE
  8
0
 62
     0
 10
86.7943
 20
132.438
 30
0.0
 11
86.1755
 21
132.535
 31
0.0
  0
LINE
  8
0
 62
     0
 10
86.1755
 20
132.535
 30
0.0
 11
85.6174
 21
132.819
 31
0.0
  0
LINE
  8
0
 62
     0
 10
85.6174
 20
132.819
 30
0.0
 11
85.175
 21
133.262
 31
0.0
  0
LINE
  8
0
 62
     0
 10
85.175
 20
133.262
 30
0.0
 11
84.8914
 21
133.82
 31
0.0
  0
LINE
  8
0
 62
     0
 10
84.8914
 20
133.82
 30
0.0
 11
84.7933
 21
134.437
 31
0.0
  0
LINE
  8
0
 62
     0
 10
84.7933
 20
134.437
 30
0.0
 11
84.8914
 21
135.056
 31
0.0
  0
LINE
  8
0
 62
     0
 10
84.8914
 20
135.056
 30
0.0
 11
85.175
 21
135.614
 31
0.0
  0
LINE
  8
0
 62
     0
 10
85.175
 20
135.614
 30
0.0
 11
85.6174
 21
136.055
 31
0.0
  0
LINE
  8
0
 62
     0
 10
85.6174
 20
136.055
 30
0.0
 11
86.1755
 21
136.339
 31
0.0
  0
LINE
  8
0
 62
     0
 10
86.1755
 20
136.339
 30
0.0
 11
86.7943
 21
136.437
 31
0.0
  0
LINE
  8
0
 62
     0
 10
86.7943
 20
71.0255
 30
0.0
 11
87.4116
 21
70.9277
 31
0.0
  0
LINE
  8
0
 62
     0
 10
87.4116
 20
70.9277
 30
0.0
 11
87.9697
 21
70.6438
 31
0.0
  0
LINE
  8
0
 62
     0
 10
87.9697
 20
70.6438
 30
0.0
 11
88.4121
 21
70.2
 31
0.0
  0
LINE
  8
0
 62
     0
 10
88.4121
 20
70.2
 30
0.0
 11
88.6961
 21
69.6433
 31
0.0
  0
LINE
  8
0
 62
     0
 10
88.6961
 20
69.6433
 30
0.0
 11
88.7938
 21
69.0259
 31
0.0
  0
LINE
  8
0
 62
     0
 10
88.7938
 20
69.0259
 30
0.0
 11
88.6961
 21
68.4057
 31
0.0
  0
LINE
  8
0
 62
     0
 10
88.6961
 20
68.4057
 30
0.0
 11
88.4121
 21
67.849
 31
0.0
  0
LINE
  8
0
 62
     0
 10
88.4121
 20
67.849
 30
0.0
 11
87.9697
 21
67.4067
 31
0.0
  0
LINE
  8
0
 62
     0
 10
87.9697
 20
67.4067
 30
0.0
 11
87.4116
 21
67.123
 31
0.0
  0
LINE
  8
0
 62
     0
 10
87.4116
 20
67.123
 30
0.0
 11
86.7943
 21
67.025
 31
0.0
  0
LINE
  8
0
 62
     0
 10
86.7943
 20
67.025
 30
0.0
 11
86.1755
 21
67.123
 31
0.0
  0
LINE
  8
0
 62
     0
 10
86.1755
 20
67.123
 30
0.0
 11
85.6174
 21
67.4067
 31
0.0
  0
LINE
  8
0
 62
     0
 10
85.6174
 20
67.4067
 30
0.0
 11
85.175
 21
67.849
 31
0.0
  0
LINE
  8
0
 62
     0
 10
85.175
 20
67.849
 30
0.0
 11
84.8914
 21
68.4057
 31
0.0
  0
LINE
  8
0
 62
     0
 10
84.8914
 20
68.4057
 30
0.0
 11
84.7933
 21
69.0259
 31
0.0
  0
LINE
  8
0
 62
     0
 10
84.7933
 20
69.0259
 30
0.0
 11
84.8914
 21
69.6433
 31
0.0
  0
LINE
  8
0
 62
     0
 10
84.8914
 20
69.6433
 30
0.0
 11
85.175
 21
70.2
 31
0.0
  0
LINE
  8
0
 62
     0
 10
85.175
 20
70.2
 30
0.0
 11
85.6174
 21
70.6438
 31
0.0
  0
LINE
  8
0
 62
     0
 10
85.6174
 20
70.6438
 30
0.0
 11
86.1755
 21
70.9277
 31
0.0
  0
LINE
  8
0
 62
     0
 10
86.1755
 20
70.9277
 30
0.0
 11
86.7943
 21
71.0255
 31
0.0
  0
LINE
  8
0
 62
     0
 10
86.7943
 20
5.61277
 30
0.0
 11
87.4116
 21
5.5149
 31
0.0
  0
LINE
  8
0
 62
     0
 10
87.4116
 20
5.5149
 30
0.0
 11
87.9697
 21
5.23102
 31
0.0
  0
LINE
  8
0
 62
     0
 10
87.9697
 20
5.23102
 30
0.0
 11
88.4121
 21
4.78868
 31
0.0
  0
LINE
  8
0
 62
     0
 10
88.4121
 20
4.78868
 30
0.0
 11
88.6961
 21
4.23058
 31
0.0
  0
LINE
  8
0
 62
     0
 10
88.6961
 20
4.23058
 30
0.0
 11
88.7938
 21
3.61184
 31
0.0
  0
LINE
  8
0
 62
     0
 10
88.7938
 20
3.61184
 30
0.0
 11
88.6961
 21
2.99448
 31
0.0
  0
LINE
  8
0
 62
     0
 10
88.6961
 20
2.99448
 30
0.0
 11
88.4121
 21
2.43637
 31
0.0
  0
LINE
  8
0
 62
     0
 10
88.4121
 20
2.43637
 30
0.0
 11
87.9697
 21
1.99402
 31
0.0
  0
LINE
  8
0
 62
     0
 10
87.9697
 20
1.99402
 30
0.0
 11
87.4116
 21
1.71015
 31
0.0
  0
LINE
  8
0
 62
     0
 10
87.4116
 20
1.71015
 30
0.0
 11
86.7943
 21
1.6123
 31
0.0
  0
LINE
  8
0
 62
     0
 10
86.7943
 20
1.6123
 30
0.0
 11
86.1755
 21
1.71015
 31
0.0
  0
LINE
  8
0
 62
     0
 10
86.1755
 20
1.71015
 30
0.0
 11
85.6174
 21
1.99402
 31
0.0
  0
LINE
  8
0
 62
     0
 10
85.6174
 20
1.99402
 30
0.0
 11
85.175
 21
2.43637
 31
0.0
  0
LINE
  8
0
 62
     0
 10
85.175
 20
2.43637
 30
0.0
 11
84.8914
 21
2.99448
 31
0.0
  0
LINE
  8
0
 62
     0
 10
84.8914
 20
2.99448
 30
0.0
 11
84.7933
 21
3.61184
 31
0.0
  0
LINE
  8
0
 62
     0
 10
84.7933
 20
3.61184
 30
0.0
 11
84.8914
 21
4.23058
 31
0.0
  0
LINE
  8
0
 62
     0
 10
84.8914
 20
4.23058
 30
0.0
 11
85.175
 21
4.78868
 31
0.0
  0
LINE
  8
0
 62
     0
 10
85.175
 20
4.78868
 30
0.0
 11
85.6174
 21
5.23102
 31
0.0
  0
LINE
  8
0
 62
     0
 10
85.6174
 20
5.23102
 30
0.0
 11
86.1755
 21
5.5149
 31
0.0
  0
LINE
  8
0
 62
     0
 10
86.1755
 20
5.5149
 30
0.0
 11
86.7943
 21
5.61277
 31
0.0
  0
LINE
  8
0
 62
     0
 10
45.194
 20
5.61277
 30
0.0
 11
45.8114
 21
5.5149
 31
0.0
  0
LINE
  8
0
 62
     0
 10
45.8114
 20
5.5149
 30
0.0
 11
46.3695
 21
5.23102
 31
0.0
  0
LINE
  8
0
 62
     0
 10
46.3695
 20
5.23102
 30
0.0
 11
46.8118
 21
4.78868
 31
0.0
  0
LINE
  8
0
 62
     0
 10
46.8118
 20
4.78868
 30
0.0
 11
47.0958
 21
4.23058
 31
0.0
  0
LINE
  8
0
 62
     0
 10
47.0958
 20
4.23058
 30
0.0
 11
47.1936
 21
3.61184
 31
0.0
  0
LINE
  8
0
 62
     0
 10
47.1936
 20
3.61184
 30
0.0
 11
47.0958
 21
2.99448
 31
0.0
  0
LINE
  8
0
 62
     0
 10
47.0958
 20
2.99448
 30
0.0
 11
46.8118
 21
2.43637
 31
0.0
  0
LINE
  8
0
 62
     0
 10
46.8118
 20
2.43637
 30
0.0
 11
46.3695
 21
1.99402
 31
0.0
  0
LINE
  8
0
 62
     0
 10
46.3695
 20
1.99402
 30
0.0
 11
45.8114
 21
1.71015
 31
0.0
  0
LINE
  8
0
 62
     0
 10
45.8114
 20
1.71015
 30
0.0
 11
45.194
 21
1.6123
 31
0.0
  0
LINE
  8
0
 62
     0
 10
45.194
 20
1.6123
 30
0.0
 11
44.5752
 21
1.71015
 31
0.0
  0
LINE
  8
0
 62
     0
 10
44.5752
 20
1.71015
 30
0.0
 11
44.0171
 21
1.99402
 31
0.0
  0
LINE
  8
0
 62
     0
 10
44.0171
 20
1.99402
 30
0.0
 11
43.5762
 21
2.43637
 31
0.0
  0
LINE
  8
0
 62
     0
 10
43.5762
 20
2.43637
 30
0.0
 11
43.2911
 21
2.99448
 31
0.0
  0
LINE
  8
0
 62
     0
 10
43.2911
 20
2.99448
 30
0.0
 11
43.1934
 21
3.61184
 31
0.0
  0
LINE
  8
0
 62
     0
 10
43.1934
 20
3.61184
 30
0.0
 11
43.2911
 21
4.23058
 31
0.0
  0
LINE
  8
0
 62
     0
 10
43.2911
 20
4.23058
 30
0.0
 11
43.5762
 21
4.78868
 31
0.0
  0
LINE
  8
0
 62
     0
 10
43.5762
 20
4.78868
 30
0.0
 11
44.0171
 21
5.23102
 31
0.0
  0
LINE
  8
0
 62
     0
 10
44.0171
 20
5.23102
 30
0.0
 11
44.5752
 21
5.5149
 31
0.0
  0
LINE
  8
0
 62
     0
 10
44.5752
 20
5.5149
 30
0.0
 11
45.194
 21
5.61277
 31
0.0
  0
LINE
  8
0
 62
     0
 10
3.59392
 20
5.61277
 30
0.0
 11
4.21128
 21
5.5149
 31
0.0
  0
LINE
  8
0
 62
     0
 10
4.21128
 20
5.5149
 30
0.0
 11
4.76938
 21
5.23102
 31
0.0
  0
LINE
  8
0
 62
     0
 10
4.76938
 20
5.23102
 30
0.0
 11
5.21173
 21
4.78868
 31
0.0
  0
LINE
  8
0
 62
     0
 10
5.21173
 20
4.78868
 30
0.0
 11
5.49561
 21
4.23058
 31
0.0
  0
LINE
  8
0
 62
     0
 10
5.49561
 20
4.23058
 30
0.0
 11
5.59347
 21
3.61184
 31
0.0
  0
LINE
  8
0
 62
     0
 10
5.59347
 20
3.61184
 30
0.0
 11
5.49561
 21
2.99448
 31
0.0
  0
LINE
  8
0
 62
     0
 10
5.49561
 20
2.99448
 30
0.0
 11
5.21173
 21
2.43637
 31
0.0
  0
LINE
  8
0
 62
     0
 10
5.21173
 20
2.43637
 30
0.0
 11
4.76938
 21
1.99402
 31
0.0
  0
LINE
  8
0
 62
     0
 10
4.76938
 20
1.99402
 30
0.0
 11
4.21128
 21
1.71015
 31
0.0
  0
LINE
  8
0
 62
     0
 10
4.21128
 20
1.71015
 30
0.0
 11
3.59392
 21
1.6123
 31
0.0
  0
LINE
  8
0
 62
     0
 10
3.59392
 20
1.6123
 30
0.0
 11
2.97518
 21
1.71015
 31
0.0
  0
LINE
  8
0
 62
     0
 10
2.97518
 20
1.71015
 30
0.0
 11
2.41708
 21
1.99402
 31
0.0
  0
LINE
  8
0
 62
     0
 10
2.41708
 20
1.99402
 30
0.0
 11
1.97611
 21
2.43637
 31
0.0
  0
LINE
  8
0
 62
     0
 10
1.97611
 20
2.43637
 30
0.0
 11
1.69223
 21
2.99448
 31
0.0
  0
LINE
  8
0
 62
     0
 10
1.69223
 20
2.99448
 30
0.0
 11
1.59439
 21
3.61184
 31
0.0
  0
LINE
  8
0
 62
     0
 10
1.59439
 20
3.61184
 30
0.0
 11
1.69223
 21
4.23058
 31
0.0
  0
LINE
  8
0
 62
     0
 10
1.69223
 20
4.23058
 30
0.0
 11
1.97611
 21
4.78868
 31
0.0
  0
LINE
  8
0
 62
     0
 10
1.97611
 20
4.78868
 30
0.0
 11
2.41708
 21
5.23102
 31
0.0
  0
LINE
  8
0
 62
     0
 10
2.41708
 20
5.23102
 30
0.0
 11
2.97518
 21
5.5149
 31
0.0
  0
LINE
  8
0
 62
     0
 10
2.97518
 20
5.5149
 30
0.0
 11
3.59392
 21
5.61277
 31
0.0
  0
LINE
  8
0
 62
     0
 10
3.59392
 20
71.0255
 30
0.0
 11
4.21128
 21
70.9277
 31
0.0
  0
LINE
  8
0
 62
     0
 10
4.21128
 20
70.9277
 30
0.0
 11
4.76938
 21
70.6438
 31
0.0
  0
LINE
  8
0
 62
     0
 10
4.76938
 20
70.6438
 30
0.0
 11
5.21173
 21
70.2
 31
0.0
  0
LINE
  8
0
 62
     0
 10
5.21173
 20
70.2
 30
0.0
 11
5.49561
 21
69.6433
 31
0.0
  0
LINE
  8
0
 62
     0
 10
5.49561
 20
69.6433
 30
0.0
 11
5.59347
 21
69.0259
 31
0.0
  0
LINE
  8
0
 62
     0
 10
5.59347
 20
69.0259
 30
0.0
 11
5.49561
 21
68.4057
 31
0.0
  0
LINE
  8
0
 62
     0
 10
5.49561
 20
68.4057
 30
0.0
 11
5.21173
 21
67.849
 31
0.0
  0
LINE
  8
0
 62
     0
 10
5.21173
 20
67.849
 30
0.0
 11
4.76938
 21
67.4067
 31
0.0
  0
LINE
  8
0
 62
     0
 10
4.76938
 20
67.4067
 30
0.0
 11
4.21128
 21
67.123
 31
0.0
  0
LINE
  8
0
 62
     0
 10
4.21128
 20
67.123
 30
0.0
 11
3.59392
 21
67.025
 31
0.0
  0
LINE
  8
0
 62
     0
 10
3.59392
 20
67.025
 30
0.0
 11
2.97518
 21
67.123
 31
0.0
  0
LINE
  8
0
 62
     0
 10
2.97518
 20
67.123
 30
0.0
 11
2.41708
 21
67.4067
 31
0.0
  0
LINE
  8
0
 62
     0
 10
2.41708
 20
67.4067
 30
0.0
 11
1.97611
 21
67.849
 31
0.0
  0
LINE
  8
0
 62
     0
 10
1.97611
 20
67.849
 30
0.0
 11
1.69223
 21
68.4057
 31
0.0
  0
LINE
  8
0
 62
     0
 10
1.69223
 20
68.4057
 30
0.0
 11
1.59439
 21
69.0259
 31
0.0
  0
LINE
  8
0
 62
     0
 10
1.59439
 20
69.0259
 30
0.0
 11
1.69223
 21
69.6433
 31
0.0
  0
LINE
  8
0
 62
     0
 10
1.69223
 20
69.6433
 30
0.0
 11
1.97611
 21
70.2
 31
0.0
  0
LINE
  8
0
 62
     0
 10
1.97611
 20
70.2
 30
0.0
 11
2.41708
 21
70.6438
 31
0.0
  0
LINE
  8
0
 62
     0
 10
2.41708
 20
70.6438
 30
0.0
 11
2.97518
 21
70.9277
 31
0.0
  0
LINE
  8
0
 62
     0
 10
2.97518
 20
70.9277
 30
0.0
 11
3.59392
 21
71.0255
 31
0.0
  0
LINE
  8
0
 62
     0
 10
3.59392
 20
136.437
 30
0.0
 11
4.21128
 21
136.339
 31
0.0
  0
LINE
  8
0
 62
     0
 10
4.21128
 20
136.339
 30
0.0
 11
4.76938
 21
136.055
 31
0.0
  0
LINE
  8
0
 62
     0
 10
4.76938
 20
136.055
 30
0.0
 11
5.21173
 21
135.614
 31
0.0
  0
LINE
  8
0
 62
     0
 10
5.21173
 20
135.614
 30
0.0
 11
5.49561
 21
135.056
 31
0.0
  0
LINE
  8
0
 62
     0
 10
5.49561
 20
135.056
 30
0.0
 11
5.59347
 21
134.437
 31
0.0
  0
LINE
  8
0
 62
     0
 10
5.59347
 20
134.437
 30
0.0
 11
5.49561
 21
133.82
 31
0.0
  0
LINE
  8
0
 62
     0
 10
5.49561
 20
133.82
 30
0.0
 11
5.21173
 21
133.262
 31
0.0
  0
LINE
  8
0
 62
     0
 10
5.21173
 20
133.262
 30
0.0
 11
4.76938
 21
132.819
 31
0.0
  0
LINE
  8
0
 62
     0
 10
4.76938
 20
132.819
 30
0.0
 11
4.21128
 21
132.535
 31
0.0
  0
LINE
  8
0
 62
     0
 10
4.21128
 20
132.535
 30
0.0
 11
3.59392
 21
132.438
 31
0.0
  0
LINE
  8
0
 62
     0
 10
3.59392
 20
132.438
 30
0.0
 11
2.97518
 21
132.535
 31
0.0
  0
LINE
  8
0
 62
     0
 10
2.97518
 20
132.535
 30
0.0
 11
2.41708
 21
132.819
 31
0.0
  0
LINE
  8
0
 62
     0
 10
2.41708
 20
132.819
 30
0.0
 11
1.97611
 21
133.262
 31
0.0
  0
LINE
  8
0
 62
     0
 10
1.97611
 20
133.262
 30
0.0
 11
1.69223
 21
133.82
 31
0.0
  0
LINE
  8
0
 62
     0
 10
1.69223
 20
133.82
 30
0.0
 11
1.59439
 21
134.437
 31
0.0
  0
LINE
  8
0
 62
     0
 10
1.59439
 20
134.437
 30
0.0
 11
1.69223
 21
135.056
 31
0.0
  0
LINE
  8
0
 62
     0
 10
1.69223
 20
135.056
 30
0.0
 11
1.97611
 21
135.614
 31
0.0
  0
LINE
  8
0
 62
     0
 10
1.97611
 20
135.614
 30
0.0
 11
2.41708
 21
136.055
 31
0.0
  0
LINE
  8
0
 62
     0
 10
2.41708
 20
136.055
 30
0.0
 11
2.97518
 21
136.339
 31
0.0
  0
LINE
  8
0
 62
     0
 10
2.97518
 20
136.339
 30
0.0
 11
3.59392
 21
136.437
 31
0.0
  0
LINE
  8
0
 62
     0
 10
23.6182
 20
115.013
 30
0.0
 11
23.6182
 21
114.413
 31
0.0
  0
LINE
  8
0
 62
     0
 10
23.6182
 20
114.413
 30
0.0
 11
9.6187
 21
114.413
 31
0.0
  0
LINE
  8
0
 62
     0
 10
9.6187
 20
114.413
 30
0.0
 11
9.6187
 21
115.013
 31
0.0
  0
LINE
  8
0
 62
     0
 10
9.6187
 20
115.013
 30
0.0
 11
8.81807
 21
115.013
 31
0.0
  0
LINE
  8
0
 62
     0
 10
8.81807
 20
115.013
 30
0.0
 11
8.81807
 21
127.813
 31
0.0
  0
LINE
  8
0
 62
     0
 10
8.81807
 20
127.813
 30
0.0
 11
9.6187
 21
127.813
 31
0.0
  0
LINE
  8
0
 62
     0
 10
9.6187
 20
127.813
 30
0.0
 11
9.6187
 21
128.413
 31
0.0
  0
LINE
  8
0
 62
     0
 10
9.6187
 20
128.413
 30
0.0
 11
23.6182
 21
128.413
 31
0.0
  0
LINE
  8
0
 62
     0
 10
23.6182
 20
128.413
 30
0.0
 11
23.6182
 21
127.813
 31
0.0
  0
LINE
  8
0
 62
     0
 10
23.6182
 20
127.813
 30
0.0
 11
24.4189
 21
127.813
 31
0.0
  0
LINE
  8
0
 62
     0
 10
24.4189
 20
127.813
 30
0.0
 11
24.4189
 21
115.013
 31
0.0
  0
LINE
  8
0
 62
     0
 10
24.4189
 20
115.013
 30
0.0
 11
23.6182
 21
115.013
 31
0.0
  0
LINE
  8
0
 62
     0
 10
23.6182
 20
86.4376
 30
0.0
 11
23.6182
 21
85.8379
 31
0.0
  0
LINE
  8
0
 62
     0
 10
23.6182
 20
85.8379
 30
0.0
 11
9.6187
 21
85.8379
 31
0.0
  0
LINE
  8
0
 62
     0
 10
9.6187
 20
85.8379
 30
0.0
 11
9.6187
 21
86.4376
 31
0.0
  0
LINE
  8
0
 62
     0
 10
9.6187
 20
86.4376
 30
0.0
 11
8.81807
 21
86.4376
 31
0.0
  0
LINE
  8
0
 62
     0
 10
8.81807
 20
86.4376
 30
0.0
 11
8.81807
 21
99.2382
 31
0.0
  0
LINE
  8
0
 62
     0
 10
8.81807
 20
99.2382
 30
0.0
 11
9.6187
 21
99.2382
 31
0.0
  0
LINE
  8
0
 62
     0
 10
9.6187
 20
99.2382
 30
0.0
 11
9.6187
 21
99.8375
 31
0.0
  0
LINE
  8
0
 62
     0
 10
9.6187
 20
99.8375
 30
0.0
 11
23.6182
 21
99.8375
 31
0.0
  0
LINE
  8
0
 62
     0
 10
23.6182
 20
99.8375
 30
0.0
 11
23.6182
 21
99.2382
 31
0.0
  0
LINE
  8
0
 62
     0
 10
23.6182
 20
99.2382
 30
0.0
 11
24.4189
 21
99.2382
 31
0.0
  0
LINE
  8
0
 62
     0
 10
24.4189
 20
99.2382
 30
0.0
 11
24.4189
 21
86.4376
 31
0.0
  0
LINE
  8
0
 62
     0
 10
24.4189
 20
86.4376
 30
0.0
 11
23.6182
 21
86.4376
 31
0.0
  0
LINE
  8
0
 62
     0
 10
23.6182
 20
67.3876
 30
0.0
 11
23.6182
 21
66.7879
 31
0.0
  0
LINE
  8
0
 62
     0
 10
23.6182
 20
66.7879
 30
0.0
 11
9.6187
 21
66.7879
 31
0.0
  0
LINE
  8
0
 62
     0
 10
9.6187
 20
66.7879
 30
0.0
 11
9.6187
 21
67.3876
 31
0.0
  0
LINE
  8
0
 62
     0
 10
9.6187
 20
67.3876
 30
0.0
 11
8.81807
 21
67.3876
 31
0.0
  0
LINE
  8
0
 62
     0
 10
8.81807
 20
67.3876
 30
0.0
 11
8.81807
 21
80.1882
 31
0.0
  0
LINE
  8
0
 62
     0
 10
8.81807
 20
80.1882
 30
0.0
 11
9.6187
 21
80.1882
 31
0.0
  0
LINE
  8
0
 62
     0
 10
9.6187
 20
80.1882
 30
0.0
 11
9.6187
 21
80.7875
 31
0.0
  0
LINE
  8
0
 62
     0
 10
9.6187
 20
80.7875
 30
0.0
 11
23.6182
 21
80.7875
 31
0.0
  0
LINE
  8
0
 62
     0
 10
23.6182
 20
80.7875
 30
0.0
 11
23.6182
 21
80.1882
 31
0.0
  0
LINE
  8
0
 62
     0
 10
23.6182
 20
80.1882
 30
0.0
 11
24.4189
 21
80.1882
 31
0.0
  0
LINE
  8
0
 62
     0
 10
24.4189
 20
80.1882
 30
0.0
 11
24.4189
 21
67.3876
 31
0.0
  0
LINE
  8
0
 62
     0
 10
24.4189
 20
67.3876
 30
0.0
 11
23.6182
 21
67.3876
 31
0.0
  0
LINE
  8
0
 62
     0
 10
23.6182
 20
48.3376
 30
0.0
 11
23.6182
 21
47.7379
 31
0.0
  0
LINE
  8
0
 62
     0
 10
23.6182
 20
47.7379
 30
0.0
 11
9.6187
 21
47.7379
 31
0.0
  0
LINE
  8
0
 62
     0
 10
9.6187
 20
47.7379
 30
0.0
 11
9.6187
 21
48.3376
 31
0.0
  0
LINE
  8
0
 62
     0
 10
9.6187
 20
48.3376
 30
0.0
 11
8.81807
 21
48.3376
 31
0.0
  0
LINE
  8
0
 62
     0
 10
8.81807
 20
48.3376
 30
0.0
 11
8.81807
 21
61.1382
 31
0.0
  0
LINE
  8
0
 62
     0
 10
8.81807
 20
61.1382
 30
0.0
 11
9.6187
 21
61.1382
 31
0.0
  0
LINE
  8
0
 62
     0
 10
9.6187
 20
61.1382
 30
0.0
 11
9.6187
 21
61.7375
 31
0.0
  0
LINE
  8
0
 62
     0
 10
9.6187
 20
61.7375
 30
0.0
 11
23.6182
 21
61.7375
 31
0.0
  0
LINE
  8
0
 62
     0
 10
23.6182
 20
61.7375
 30
0.0
 11
23.6182
 21
61.1382
 31
0.0
  0
LINE
  8
0
 62
     0
 10
23.6182
 20
61.1382
 30
0.0
 11
24.4189
 21
61.1382
 31
0.0
  0
LINE
  8
0
 62
     0
 10
24.4189
 20
61.1382
 30
0.0
 11
24.4189
 21
48.3376
 31
0.0
  0
LINE
  8
0
 62
     0
 10
24.4189
 20
48.3376
 30
0.0
 11
23.6182
 21
48.3376
 31
0.0
  0
LINE
  8
0
 62
     0
 10
23.6182
 20
29.2874
 30
0.0
 11
23.6182
 21
28.688
 31
0.0
  0
LINE
  8
0
 62
     0
 10
23.6182
 20
28.688
 30
0.0
 11
9.6187
 21
28.688
 31
0.0
  0
LINE
  8
0
 62
     0
 10
9.6187
 20
28.688
 30
0.0
 11
9.6187
 21
29.2874
 31
0.0
  0
LINE
  8
0
 62
     0
 10
9.6187
 20
29.2874
 30
0.0
 11
8.81807
 21
29.2874
 31
0.0
  0
LINE
  8
0
 62
     0
 10
8.81807
 20
29.2874
 30
0.0
 11
8.81807
 21
42.0882
 31
0.0
  0
LINE
  8
0
 62
     0
 10
8.81807
 20
42.0882
 30
0.0
 11
9.6187
 21
42.0882
 31
0.0
  0
LINE
  8
0
 62
     0
 10
9.6187
 20
42.0882
 30
0.0
 11
9.6187
 21
42.6875
 31
0.0
  0
LINE
  8
0
 62
     0
 10
9.6187
 20
42.6875
 30
0.0
 11
23.6182
 21
42.6875
 31
0.0
  0
LINE
  8
0
 62
     0
 10
23.6182
 20
42.6875
 30
0.0
 11
23.6182
 21
42.0882
 31
0.0
  0
LINE
  8
0
 62
     0
 10
23.6182
 20
42.0882
 30
0.0
 11
24.4189
 21
42.0882
 31
0.0
  0
LINE
  8
0
 62
     0
 10
24.4189
 20
42.0882
 30
0.0
 11
24.4189
 21
29.2874
 31
0.0
  0
LINE
  8
0
 62
     0
 10
24.4189
 20
29.2874
 30
0.0
 11
23.6182
 21
29.2874
 31
0.0
  0
LINE
  8
0
 62
     0
 10
41.3688
 20
16.1368
 30
0.0
 11
41.3688
 21
9.86815
 31
0.0
  0
LINE
  8
0
 62
     0
 10
41.3688
 20
9.86815
 30
0.0
 11
39.7439
 21
9.86815
 31
0.0
  0
LINE
  8
0
 62
     0
 10
39.7439
 20
9.86815
 30
0.0
 11
39.7439
 21
8.88697
 31
0.0
  0
LINE
  8
0
 62
     0
 10
39.7439
 20
8.88697
 30
0.0
 11
36.4437
 21
8.88697
 31
0.0
  0
LINE
  8
0
 62
     0
 10
36.4437
 20
8.88697
 30
0.0
 11
36.4437
 21
9.86815
 31
0.0
  0
LINE
  8
0
 62
     0
 10
36.4437
 20
9.86815
 30
0.0
 11
34.7183
 21
9.86815
 31
0.0
  0
LINE
  8
0
 62
     0
 10
34.7183
 20
9.86815
 30
0.0
 11
34.7183
 21
10.6674
 31
0.0
  0
LINE
  8
0
 62
     0
 10
34.7183
 20
10.6674
 30
0.0
 11
33.9439
 21
10.6674
 31
0.0
  0
LINE
  8
0
 62
     0
 10
33.9439
 20
10.6674
 30
0.0
 11
33.9439
 21
10.2374
 31
0.0
  0
LINE
  8
0
 62
     0
 10
33.9439
 20
10.2374
 30
0.0
 11
33.1432
 21
10.2374
 31
0.0
  0
LINE
  8
0
 62
     0
 10
33.1432
 20
10.2374
 30
0.0
 11
33.1432
 21
9.63799
 31
0.0
  0
LINE
  8
0
 62
     0
 10
33.1432
 20
9.63799
 30
0.0
 11
19.1437
 21
9.63799
 31
0.0
  0
LINE
  8
0
 62
     0
 10
19.1437
 20
9.63799
 30
0.0
 11
19.1437
 21
10.2374
 31
0.0
  0
LINE
  8
0
 62
     0
 10
19.1437
 20
10.2374
 30
0.0
 11
18.3431
 21
10.2374
 31
0.0
  0
LINE
  8
0
 62
     0
 10
18.3431
 20
10.2374
 30
0.0
 11
18.3431
 21
10.6674
 31
0.0
  0
LINE
  8
0
 62
     0
 10
18.3431
 20
10.6674
 30
0.0
 11
17.5686
 21
10.6674
 31
0.0
  0
LINE
  8
0
 62
     0
 10
17.5686
 20
10.6674
 30
0.0
 11
17.5686
 21
9.86815
 31
0.0
  0
LINE
  8
0
 62
     0
 10
17.5686
 20
9.86815
 30
0.0
 11
15.8433
 21
9.86815
 31
0.0
  0
LINE
  8
0
 62
     0
 10
15.8433
 20
9.86815
 30
0.0
 11
15.8433
 21
8.88697
 31
0.0
  0
LINE
  8
0
 62
     0
 10
15.8433
 20
8.88697
 30
0.0
 11
12.5443
 21
8.88697
 31
0.0
  0
LINE
  8
0
 62
     0
 10
12.5443
 20
8.88697
 30
0.0
 11
12.5443
 21
9.86815
 31
0.0
  0
LINE
  8
0
 62
     0
 10
12.5443
 20
9.86815
 30
0.0
 11
10.9182
 21
9.86815
 31
0.0
  0
LINE
  8
0
 62
     0
 10
10.9182
 20
9.86815
 30
0.0
 11
10.9182
 21
16.1368
 31
0.0
  0
LINE
  8
0
 62
     0
 10
10.9182
 20
16.1368
 30
0.0
 11
10.0432
 21
16.1368
 31
0.0
  0
LINE
  8
0
 62
     0
 10
10.0432
 20
16.1368
 30
0.0
 11
10.0432
 21
18.937
 31
0.0
  0
LINE
  8
0
 62
     0
 10
10.0432
 20
18.937
 30
0.0
 11
10.9182
 21
18.937
 31
0.0
  0
LINE
  8
0
 62
     0
 10
10.9182
 20
18.937
 30
0.0
 11
10.9182
 21
22.1671
 31
0.0
  0
LINE
  8
0
 62
     0
 10
10.9182
 20
22.1671
 30
0.0
 11
12.5443
 21
22.1671
 31
0.0
  0
LINE
  8
0
 62
     0
 10
12.5443
 20
22.1671
 30
0.0
 11
12.5443
 21
23.0876
 31
0.0
  0
LINE
  8
0
 62
     0
 10
12.5443
 20
23.0876
 30
0.0
 11
15.8433
 21
23.0876
 31
0.0
  0
LINE
  8
0
 62
     0
 10
15.8433
 20
23.0876
 30
0.0
 11
15.8433
 21
22.1671
 31
0.0
  0
LINE
  8
0
 62
     0
 10
15.8433
 20
22.1671
 30
0.0
 11
17.5686
 21
22.1671
 31
0.0
  0
LINE
  8
0
 62
     0
 10
17.5686
 20
22.1671
 30
0.0
 11
17.5686
 21
21.3679
 31
0.0
  0
LINE
  8
0
 62
     0
 10
17.5686
 20
21.3679
 30
0.0
 11
18.3431
 21
21.3679
 31
0.0
  0
LINE
  8
0
 62
     0
 10
18.3431
 20
21.3679
 30
0.0
 11
18.3431
 21
23.038
 31
0.0
  0
LINE
  8
0
 62
     0
 10
18.3431
 20
23.038
 30
0.0
 11
19.1437
 21
23.038
 31
0.0
  0
LINE
  8
0
 62
     0
 10
19.1437
 20
23.038
 30
0.0
 11
19.1437
 21
23.6375
 31
0.0
  0
LINE
  8
0
 62
     0
 10
19.1437
 20
23.6375
 30
0.0
 11
33.1432
 21
23.6375
 31
0.0
  0
LINE
  8
0
 62
     0
 10
33.1432
 20
23.6375
 30
0.0
 11
33.1432
 21
23.038
 31
0.0
  0
LINE
  8
0
 62
     0
 10
33.1432
 20
23.038
 30
0.0
 11
33.9439
 21
23.038
 31
0.0
  0
LINE
  8
0
 62
     0
 10
33.9439
 20
23.038
 30
0.0
 11
33.9439
 21
21.3679
 31
0.0
  0
LINE
  8
0
 62
     0
 10
33.9439
 20
21.3679
 30
0.0
 11
34.7183
 21
21.3679
 31
0.0
  0
LINE
  8
0
 62
     0
 10
34.7183
 20
21.3679
 30
0.0
 11
34.7183
 21
22.1671
 31
0.0
  0
LINE
  8
0
 62
     0
 10
34.7183
 20
22.1671
 30
0.0
 11
36.4437
 21
22.1671
 31
0.0
  0
LINE
  8
0
 62
     0
 10
36.4437
 20
22.1671
 30
0.0
 11
36.4437
 21
23.0876
 31
0.0
  0
LINE
  8
0
 62
     0
 10
36.4437
 20
23.0876
 30
0.0
 11
39.7439
 21
23.0876
 31
0.0
  0
LINE
  8
0
 62
     0
 10
39.7439
 20
23.0876
 30
0.0
 11
39.7439
 21
22.1671
 31
0.0
  0
LINE
  8
0
 62
     0
 10
39.7439
 20
22.1671
 30
0.0
 11
41.3688
 21
22.1671
 31
0.0
  0
LINE
  8
0
 62
     0
 10
41.3688
 20
22.1671
 30
0.0
 11
41.3688
 21
18.937
 31
0.0
  0
LINE
  8
0
 62
     0
 10
41.3688
 20
18.937
 30
0.0
 11
42.2437
 21
18.937
 31
0.0
  0
LINE
  8
0
 62
     0
 10
42.2437
 20
18.937
 30
0.0
 11
42.2437
 21
16.1368
 31
0.0
  0
LINE
  8
0
 62
     0
 10
42.2437
 20
16.1368
 30
0.0
 11
41.3688
 21
16.1368
 31
0.0
  0
LINE
  8
0
 62
     0
 10
42.6681
 20
115.013
 30
0.0
 11
42.6681
 21
114.413
 31
0.0
  0
LINE
  8
0
 62
     0
 10
42.6681
 20
114.413
 30
0.0
 11
28.6687
 21
114.413
 31
0.0
  0
LINE
  8
0
 62
     0
 10
28.6687
 20
114.413
 30
0.0
 11
28.6687
 21
115.013
 31
0.0
  0
LINE
  8
0
 62
     0
 10
28.6687
 20
115.013
 30
0.0
 11
27.8681
 21
115.013
 31
0.0
  0
LINE
  8
0
 62
     0
 10
27.8681
 20
115.013
 30
0.0
 11
27.8681
 21
127.813
 31
0.0
  0
LINE
  8
0
 62
     0
 10
27.8681
 20
127.813
 30
0.0
 11
28.6687
 21
127.813
 31
0.0
  0
LINE
  8
0
 62
     0
 10
28.6687
 20
127.813
 30
0.0
 11
28.6687
 21
128.413
 31
0.0
  0
LINE
  8
0
 62
     0
 10
28.6687
 20
128.413
 30
0.0
 11
42.6681
 21
128.413
 31
0.0
  0
LINE
  8
0
 62
     0
 10
42.6681
 20
128.413
 30
0.0
 11
42.6681
 21
127.813
 31
0.0
  0
LINE
  8
0
 62
     0
 10
42.6681
 20
127.813
 30
0.0
 11
43.4689
 21
127.813
 31
0.0
  0
LINE
  8
0
 62
     0
 10
43.4689
 20
127.813
 30
0.0
 11
43.4689
 21
115.013
 31
0.0
  0
LINE
  8
0
 62
     0
 10
43.4689
 20
115.013
 30
0.0
 11
42.6681
 21
115.013
 31
0.0
  0
LINE
  8
0
 62
     0
 10
42.6681
 20
86.4376
 30
0.0
 11
42.6681
 21
85.8379
 31
0.0
  0
LINE
  8
0
 62
     0
 10
42.6681
 20
85.8379
 30
0.0
 11
28.6687
 21
85.8379
 31
0.0
  0
LINE
  8
0
 62
     0
 10
28.6687
 20
85.8379
 30
0.0
 11
28.6687
 21
86.4376
 31
0.0
  0
LINE
  8
0
 62
     0
 10
28.6687
 20
86.4376
 30
0.0
 11
27.8681
 21
86.4376
 31
0.0
  0
LINE
  8
0
 62
     0
 10
27.8681
 20
86.4376
 30
0.0
 11
27.8681
 21
99.2382
 31
0.0
  0
LINE
  8
0
 62
     0
 10
27.8681
 20
99.2382
 30
0.0
 11
28.6687
 21
99.2382
 31
0.0
  0
LINE
  8
0
 62
     0
 10
28.6687
 20
99.2382
 30
0.0
 11
28.6687
 21
99.8375
 31
0.0
  0
LINE
  8
0
 62
     0
 10
28.6687
 20
99.8375
 30
0.0
 11
42.6681
 21
99.8375
 31
0.0
  0
LINE
  8
0
 62
     0
 10
42.6681
 20
99.8375
 30
0.0
 11
42.6681
 21
99.2382
 31
0.0
  0
LINE
  8
0
 62
     0
 10
42.6681
 20
99.2382
 30
0.0
 11
43.4689
 21
99.2382
 31
0.0
  0
LINE
  8
0
 62
     0
 10
43.4689
 20
99.2382
 30
0.0
 11
43.4689
 21
86.4376
 31
0.0
  0
LINE
  8
0
 62
     0
 10
43.4689
 20
86.4376
 30
0.0
 11
42.6681
 21
86.4376
 31
0.0
  0
LINE
  8
0
 62
     0
 10
42.6681
 20
67.3876
 30
0.0
 11
42.6681
 21
66.7879
 31
0.0
  0
LINE
  8
0
 62
     0
 10
42.6681
 20
66.7879
 30
0.0
 11
28.6687
 21
66.7879
 31
0.0
  0
LINE
  8
0
 62
     0
 10
28.6687
 20
66.7879
 30
0.0
 11
28.6687
 21
67.3876
 31
0.0
  0
LINE
  8
0
 62
     0
 10
28.6687
 20
67.3876
 30
0.0
 11
27.8681
 21
67.3876
 31
0.0
  0
LINE
  8
0
 62
     0
 10
27.8681
 20
67.3876
 30
0.0
 11
27.8681
 21
80.1882
 31
0.0
  0
LINE
  8
0
 62
     0
 10
27.8681
 20
80.1882
 30
0.0
 11
28.6687
 21
80.1882
 31
0.0
  0
LINE
  8
0
 62
     0
 10
28.6687
 20
80.1882
 30
0.0
 11
28.6687
 21
80.7875
 31
0.0
  0
LINE
  8
0
 62
     0
 10
28.6687
 20
80.7875
 30
0.0
 11
42.6681
 21
80.7875
 31
0.0
  0
LINE
  8
0
 62
     0
 10
42.6681
 20
80.7875
 30
0.0
 11
42.6681
 21
80.1882
 31
0.0
  0
LINE
  8
0
 62
     0
 10
42.6681
 20
80.1882
 30
0.0
 11
43.4689
 21
80.1882
 31
0.0
  0
LINE
  8
0
 62
     0
 10
43.4689
 20
80.1882
 30
0.0
 11
43.4689
 21
67.3876
 31
0.0
  0
LINE
  8
0
 62
     0
 10
43.4689
 20
67.3876
 30
0.0
 11
42.6681
 21
67.3876
 31
0.0
  0
LINE
  8
0
 62
     0
 10
42.6681
 20
48.3376
 30
0.0
 11
42.6681
 21
47.7379
 31
0.0
  0
LINE
  8
0
 62
     0
 10
42.6681
 20
47.7379
 30
0.0
 11
28.6687
 21
47.7379
 31
0.0
  0
LINE
  8
0
 62
     0
 10
28.6687
 20
47.7379
 30
0.0
 11
28.6687
 21
48.3376
 31
0.0
  0
LINE
  8
0
 62
     0
 10
28.6687
 20
48.3376
 30
0.0
 11
27.8681
 21
48.3376
 31
0.0
  0
LINE
  8
0
 62
     0
 10
27.8681
 20
48.3376
 30
0.0
 11
27.8681
 21
61.1382
 31
0.0
  0
LINE
  8
0
 62
     0
 10
27.8681
 20
61.1382
 30
0.0
 11
28.6687
 21
61.1382
 31
0.0
  0
LINE
  8
0
 62
     0
 10
28.6687
 20
61.1382
 30
0.0
 11
28.6687
 21
61.7375
 31
0.0
  0
LINE
  8
0
 62
     0
 10
28.6687
 20
61.7375
 30
0.0
 11
42.6681
 21
61.7375
 31
0.0
  0
LINE
  8
0
 62
     0
 10
42.6681
 20
61.7375
 30
0.0
 11
42.6681
 21
61.1382
 31
0.0
  0
LINE
  8
0
 62
     0
 10
42.6681
 20
61.1382
 30
0.0
 11
43.4689
 21
61.1382
 31
0.0
  0
LINE
  8
0
 62
     0
 10
43.4689
 20
61.1382
 30
0.0
 11
43.4689
 21
48.3376
 31
0.0
  0
LINE
  8
0
 62
     0
 10
43.4689
 20
48.3376
 30
0.0
 11
42.6681
 21
48.3376
 31
0.0
  0
LINE
  8
0
 62
     0
 10
42.6681
 20
29.2874
 30
0.0
 11
42.6681
 21
28.688
 31
0.0
  0
LINE
  8
0
 62
     0
 10
42.6681
 20
28.688
 30
0.0
 11
28.6687
 21
28.688
 31
0.0
  0
LINE
  8
0
 62
     0
 10
28.6687
 20
28.688
 30
0.0
 11
28.6687
 21
29.2874
 31
0.0
  0
LINE
  8
0
 62
     0
 10
28.6687
 20
29.2874
 30
0.0
 11
27.8681
 21
29.2874
 31
0.0
  0
LINE
  8
0
 62
     0
 10
27.8681
 20
29.2874
 30
0.0
 11
27.8681
 21
42.0882
 31
0.0
  0
LINE
  8
0
 62
     0
 10
27.8681
 20
42.0882
 30
0.0
 11
28.6687
 21
42.0882
 31
0.0
  0
LINE
  8
0
 62
     0
 10
28.6687
 20
42.0882
 30
0.0
 11
28.6687
 21
42.6875
 31
0.0
  0
LINE
  8
0
 62
     0
 10
28.6687
 20
42.6875
 30
0.0
 11
42.6681
 21
42.6875
 31
0.0
  0
LINE
  8
0
 62
     0
 10
42.6681
 20
42.6875
 30
0.0
 11
42.6681
 21
42.0882
 31
0.0
  0
LINE
  8
0
 62
     0
 10
42.6681
 20
42.0882
 30
0.0
 11
43.4689
 21
42.0882
 31
0.0
  0
LINE
  8
0
 62
     0
 10
43.4689
 20
42.0882
 30
0.0
 11
43.4689
 21
29.2874
 31
0.0
  0
LINE
  8
0
 62
     0
 10
43.4689
 20
29.2874
 30
0.0
 11
42.6681
 21
29.2874
 31
0.0
  0
LINE
  8
0
 62
     0
 10
61.7181
 20
115.013
 30
0.0
 11
61.7181
 21
114.413
 31
0.0
  0
LINE
  8
0
 62
     0
 10
61.7181
 20
114.413
 30
0.0
 11
47.7188
 21
114.413
 31
0.0
  0
LINE
  8
0
 62
     0
 10
47.7188
 20
114.413
 30
0.0
 11
47.7188
 21
115.013
 31
0.0
  0
LINE
  8
0
 62
     0
 10
47.7188
 20
115.013
 30
0.0
 11
46.918
 21
115.013
 31
0.0
  0
LINE
  8
0
 62
     0
 10
46.918
 20
115.013
 30
0.0
 11
46.918
 21
127.813
 31
0.0
  0
LINE
  8
0
 62
     0
 10
46.918
 20
127.813
 30
0.0
 11
47.7188
 21
127.813
 31
0.0
  0
LINE
  8
0
 62
     0
 10
47.7188
 20
127.813
 30
0.0
 11
47.7188
 21
128.413
 31
0.0
  0
LINE
  8
0
 62
     0
 10
47.7188
 20
128.413
 30
0.0
 11
61.7181
 21
128.413
 31
0.0
  0
LINE
  8
0
 62
     0
 10
61.7181
 20
128.413
 30
0.0
 11
61.7181
 21
127.813
 31
0.0
  0
LINE
  8
0
 62
     0
 10
61.7181
 20
127.813
 30
0.0
 11
62.5189
 21
127.813
 31
0.0
  0
LINE
  8
0
 62
     0
 10
62.5189
 20
127.813
 30
0.0
 11
62.5189
 21
115.013
 31
0.0
  0
LINE
  8
0
 62
     0
 10
62.5189
 20
115.013
 30
0.0
 11
61.7181
 21
115.013
 31
0.0
  0
LINE
  8
0
 62
     0
 10
61.7181
 20
86.4376
 30
0.0
 11
61.7181
 21
85.8379
 31
0.0
  0
LINE
  8
0
 62
     0
 10
61.7181
 20
85.8379
 30
0.0
 11
47.7188
 21
85.8379
 31
0.0
  0
LINE
  8
0
 62
     0
 10
47.7188
 20
85.8379
 30
0.0
 11
47.7188
 21
86.4376
 31
0.0
  0
LINE
  8
0
 62
     0
 10
47.7188
 20
86.4376
 30
0.0
 11
46.918
 21
86.4376
 31
0.0
  0
LINE
  8
0
 62
     0
 10
46.918
 20
86.4376
 30
0.0
 11
46.918
 21
99.2382
 31
0.0
  0
LINE
  8
0
 62
     0
 10
46.918
 20
99.2382
 30
0.0
 11
47.7188
 21
99.2382
 31
0.0
  0
LINE
  8
0
 62
     0
 10
47.7188
 20
99.2382
 30
0.0
 11
47.7188
 21
99.8375
 31
0.0
  0
LINE
  8
0
 62
     0
 10
47.7188
 20
99.8375
 30
0.0
 11
61.7181
 21
99.8375
 31
0.0
  0
LINE
  8
0
 62
     0
 10
61.7181
 20
99.8375
 30
0.0
 11
61.7181
 21
99.2382
 31
0.0
  0
LINE
  8
0
 62
     0
 10
61.7181
 20
99.2382
 30
0.0
 11
62.5189
 21
99.2382
 31
0.0
  0
LINE
  8
0
 62
     0
 10
62.5189
 20
99.2382
 30
0.0
 11
62.5189
 21
86.4376
 31
0.0
  0
LINE
  8
0
 62
     0
 10
62.5189
 20
86.4376
 30
0.0
 11
61.7181
 21
86.4376
 31
0.0
  0
LINE
  8
0
 62
     0
 10
61.7181
 20
67.3876
 30
0.0
 11
61.7181
 21
66.7879
 31
0.0
  0
LINE
  8
0
 62
     0
 10
61.7181
 20
66.7879
 30
0.0
 11
47.7188
 21
66.7879
 31
0.0
  0
LINE
  8
0
 62
     0
 10
47.7188
 20
66.7879
 30
0.0
 11
47.7188
 21
67.3876
 31
0.0
  0
LINE
  8
0
 62
     0
 10
47.7188
 20
67.3876
 30
0.0
 11
46.918
 21
67.3876
 31
0.0
  0
LINE
  8
0
 62
     0
 10
46.918
 20
67.3876
 30
0.0
 11
46.918
 21
80.1882
 31
0.0
  0
LINE
  8
0
 62
     0
 10
46.918
 20
80.1882
 30
0.0
 11
47.7188
 21
80.1882
 31
0.0
  0
LINE
  8
0
 62
     0
 10
47.7188
 20
80.1882
 30
0.0
 11
47.7188
 21
80.7875
 31
0.0
  0
LINE
  8
0
 62
     0
 10
47.7188
 20
80.7875
 30
0.0
 11
61.7181
 21
80.7875
 31
0.0
  0
LINE
  8
0
 62
     0
 10
61.7181
 20
80.7875
 30
0.0
 11
61.7181
 21
80.1882
 31
0.0
  0
LINE
  8
0
 62
     0
 10
61.7181
 20
80.1882
 30
0.0
 11
62.5189
 21
80.1882
 31
0.0
  0
LINE
  8
0
 62
     0
 10
62.5189
 20
80.1882
 30
0.0
 11
62.5189
 21
67.3876
 31
0.0
  0
LINE
  8
0
 62
     0
 10
62.5189
 20
67.3876
 30
0.0
 11
61.7181
 21
67.3876
 31
0.0
  0
LINE
  8
0
 62
     0
 10
61.7181
 20
48.3376
 30
0.0
 11
61.7181
 21
47.7379
 31
0.0
  0
LINE
  8
0
 62
     0
 10
61.7181
 20
47.7379
 30
0.0
 11
47.7188
 21
47.7379
 31
0.0
  0
LINE
  8
0
 62
     0
 10
47.7188
 20
47.7379
 30
0.0
 11
47.7188
 21
48.3376
 31
0.0
  0
LINE
  8
0
 62
     0
 10
47.7188
 20
48.3376
 30
0.0
 11
46.918
 21
48.3376
 31
0.0
  0
LINE
  8
0
 62
     0
 10
46.918
 20
48.3376
 30
0.0
 11
46.918
 21
61.1382
 31
0.0
  0
LINE
  8
0
 62
     0
 10
46.918
 20
61.1382
 30
0.0
 11
47.7188
 21
61.1382
 31
0.0
  0
LINE
  8
0
 62
     0
 10
47.7188
 20
61.1382
 30
0.0
 11
47.7188
 21
61.7375
 31
0.0
  0
LINE
  8
0
 62
     0
 10
47.7188
 20
61.7375
 30
0.0
 11
61.7181
 21
61.7375
 31
0.0
  0
LINE
  8
0
 62
     0
 10
61.7181
 20
61.7375
 30
0.0
 11
61.7181
 21
61.1382
 31
0.0
  0
LINE
  8
0
 62
     0
 10
61.7181
 20
61.1382
 30
0.0
 11
62.5189
 21
61.1382
 31
0.0
  0
LINE
  8
0
 62
     0
 10
62.5189
 20
61.1382
 30
0.0
 11
62.5189
 21
48.3376
 31
0.0
  0
LINE
  8
0
 62
     0
 10
62.5189
 20
48.3376
 30
0.0
 11
61.7181
 21
48.3376
 31
0.0
  0
LINE
  8
0
 62
     0
 10
61.7181
 20
29.2874
 30
0.0
 11
61.7181
 21
28.688
 31
0.0
  0
LINE
  8
0
 62
     0
 10
61.7181
 20
28.688
 30
0.0
 11
47.7188
 21
28.688
 31
0.0
  0
LINE
  8
0
 62
     0
 10
47.7188
 20
28.688
 30
0.0
 11
47.7188
 21
29.2874
 31
0.0
  0
LINE
  8
0
 62
     0
 10
47.7188
 20
29.2874
 30
0.0
 11
46.918
 21
29.2874
 31
0.0
  0
LINE
  8
0
 62
     0
 10
46.918
 20
29.2874
 30
0.0
 11
46.918
 21
42.0882
 31
0.0
  0
LINE
  8
0
 62
     0
 10
46.918
 20
42.0882
 30
0.0
 11
47.7188
 21
42.0882
 31
0.0
  0
LINE
  8
0
 62
     0
 10
47.7188
 20
42.0882
 30
0.0
 11
47.7188
 21
42.6875
 31
0.0
  0
LINE
  8
0
 62
     0
 10
47.7188
 20
42.6875
 30
0.0
 11
61.7181
 21
42.6875
 31
0.0
  0
LINE
  8
0
 62
     0
 10
61.7181
 20
42.6875
 30
0.0
 11
61.7181
 21
42.0882
 31
0.0
  0
LINE
  8
0
 62
     0
 10
61.7181
 20
42.0882
 30
0.0
 11
62.5189
 21
42.0882
 31
0.0
  0
LINE
  8
0
 62
     0
 10
62.5189
 20
42.0882
 30
0.0
 11
62.5189
 21
29.2874
 31
0.0
  0
LINE
  8
0
 62
     0
 10
62.5189
 20
29.2874
 30
0.0
 11
61.7181
 21
29.2874
 31
0.0
  0
LINE
  8
0
 62
     0
 10
61.7181
 20
10.2374
 30
0.0
 11
61.7181
 21
9.63799
 31
0.0
  0
LINE
  8
0
 62
     0
 10
61.7181
 20
9.63799
 30
0.0
 11
47.7188
 21
9.63799
 31
0.0
  0
LINE
  8
0
 62
     0
 10
47.7188
 20
9.63799
 30
0.0
 11
47.7188
 21
10.2374
 31
0.0
  0
LINE
  8
0
 62
     0
 10
47.7188
 20
10.2374
 30
0.0
 11
46.918
 21
10.2374
 31
0.0
  0
LINE
  8
0
 62
     0
 10
46.918
 20
10.2374
 30
0.0
 11
46.918
 21
23.038
 31
0.0
  0
LINE
  8
0
 62
     0
 10
46.918
 20
23.038
 30
0.0
 11
47.7188
 21
23.038
 31
0.0
  0
LINE
  8
0
 62
     0
 10
47.7188
 20
23.038
 30
0.0
 11
47.7188
 21
23.6375
 31
0.0
  0
LINE
  8
0
 62
     0
 10
47.7188
 20
23.6375
 30
0.0
 11
61.7181
 21
23.6375
 31
0.0
  0
LINE
  8
0
 62
     0
 10
61.7181
 20
23.6375
 30
0.0
 11
61.7181
 21
23.038
 31
0.0
  0
LINE
  8
0
 62
     0
 10
61.7181
 20
23.038
 30
0.0
 11
62.5189
 21
23.038
 31
0.0
  0
LINE
  8
0
 62
     0
 10
62.5189
 20
23.038
 30
0.0
 11
62.5189
 21
10.2374
 31
0.0
  0
LINE
  8
0
 62
     0
 10
62.5189
 20
10.2374
 30
0.0
 11
61.7181
 21
10.2374
 31
0.0
  0
LINE
  8
0
 62
     0
 10
80.1688
 20
57.2629
 30
0.0
 11
80.1688
 21
56.4624
 31
0.0
  0
LINE
  8
0
 62
     0
 10
80.1688
 20
56.4624
 30
0.0
 11
78.4987
 21
56.4624
 31
0.0
  0
LINE
  8
0
 62
     0
 10
78.4987
 20
56.4624
 30
0.0
 11
78.4987
 21
55.6877
 31
0.0
  0
LINE
  8
0
 62
     0
 10
78.4987
 20
55.6877
 30
0.0
 11
79.2992
 21
55.6877
 31
0.0
  0
LINE
  8
0
 62
     0
 10
79.2992
 20
55.6877
 30
0.0
 11
79.2992
 21
53.9627
 31
0.0
  0
LINE
  8
0
 62
     0
 10
79.2992
 20
53.9627
 30
0.0
 11
80.2185
 21
53.9627
 31
0.0
  0
LINE
  8
0
 62
     0
 10
80.2185
 20
53.9627
 30
0.0
 11
80.2185
 21
50.6621
 31
0.0
  0
LINE
  8
0
 62
     0
 10
80.2185
 20
50.6621
 30
0.0
 11
79.2992
 21
50.6621
 31
0.0
  0
LINE
  8
0
 62
     0
 10
79.2992
 20
50.6621
 30
0.0
 11
79.2992
 21
49.0375
 31
0.0
  0
LINE
  8
0
 62
     0
 10
79.2992
 20
49.0375
 30
0.0
 11
76.0691
 21
49.0375
 31
0.0
  0
LINE
  8
0
 62
     0
 10
76.0691
 20
49.0375
 30
0.0
 11
76.0691
 21
48.1623
 31
0.0
  0
LINE
  8
0
 62
     0
 10
76.0691
 20
48.1623
 30
0.0
 11
73.2688
 21
48.1623
 31
0.0
  0
LINE
  8
0
 62
     0
 10
73.2688
 20
48.1623
 30
0.0
 11
73.2688
 21
49.0375
 31
0.0
  0
LINE
  8
0
 62
     0
 10
73.2688
 20
49.0375
 30
0.0
 11
66.9988
 21
49.0375
 31
0.0
  0
LINE
  8
0
 62
     0
 10
66.9988
 20
49.0375
 30
0.0
 11
66.9988
 21
50.6621
 31
0.0
  0
LINE
  8
0
 62
     0
 10
66.9988
 20
50.6621
 30
0.0
 11
66.0192
 21
50.6621
 31
0.0
  0
LINE
  8
0
 62
     0
 10
66.0192
 20
50.6621
 30
0.0
 11
66.0192
 21
53.9627
 31
0.0
  0
LINE
  8
0
 62
     0
 10
66.0192
 20
53.9627
 30
0.0
 11
66.9988
 21
53.9627
 31
0.0
  0
LINE
  8
0
 62
     0
 10
66.9988
 20
53.9627
 30
0.0
 11
66.9988
 21
55.6877
 31
0.0
  0
LINE
  8
0
 62
     0
 10
66.9988
 20
55.6877
 30
0.0
 11
67.7982
 21
55.6877
 31
0.0
  0
LINE
  8
0
 62
     0
 10
67.7982
 20
55.6877
 30
0.0
 11
67.7982
 21
56.4624
 31
0.0
  0
LINE
  8
0
 62
     0
 10
67.7982
 20
56.4624
 30
0.0
 11
67.3682
 21
56.4624
 31
0.0
  0
LINE
  8
0
 62
     0
 10
67.3682
 20
56.4624
 30
0.0
 11
67.3682
 21
57.2629
 31
0.0
  0
LINE
  8
0
 62
     0
 10
67.3682
 20
57.2629
 30
0.0
 11
66.7688
 21
57.2629
 31
0.0
  0
LINE
  8
0
 62
     0
 10
66.7688
 20
57.2629
 30
0.0
 11
66.7688
 21
71.2625
 31
0.0
  0
LINE
  8
0
 62
     0
 10
66.7688
 20
71.2625
 30
0.0
 11
67.3682
 21
71.2625
 31
0.0
  0
LINE
  8
0
 62
     0
 10
67.3682
 20
71.2625
 30
0.0
 11
67.3682
 21
72.063
 31
0.0
  0
LINE
  8
0
 62
     0
 10
67.3682
 20
72.063
 30
0.0
 11
67.7982
 21
72.063
 31
0.0
  0
LINE
  8
0
 62
     0
 10
67.7982
 20
72.063
 30
0.0
 11
67.7982
 21
72.8377
 31
0.0
  0
LINE
  8
0
 62
     0
 10
67.7982
 20
72.8377
 30
0.0
 11
66.9988
 21
72.8377
 31
0.0
  0
LINE
  8
0
 62
     0
 10
66.9988
 20
72.8377
 30
0.0
 11
66.9988
 21
74.5628
 31
0.0
  0
LINE
  8
0
 62
     0
 10
66.9988
 20
74.5628
 30
0.0
 11
66.0192
 21
74.5628
 31
0.0
  0
LINE
  8
0
 62
     0
 10
66.0192
 20
74.5628
 30
0.0
 11
66.0192
 21
77.8619
 31
0.0
  0
LINE
  8
0
 62
     0
 10
66.0192
 20
77.8619
 30
0.0
 11
66.9988
 21
77.8619
 31
0.0
  0
LINE
  8
0
 62
     0
 10
66.9988
 20
77.8619
 30
0.0
 11
66.9988
 21
79.4879
 31
0.0
  0
LINE
  8
0
 62
     0
 10
66.9988
 20
79.4879
 30
0.0
 11
73.2688
 21
79.4879
 31
0.0
  0
LINE
  8
0
 62
     0
 10
73.2688
 20
79.4879
 30
0.0
 11
73.2688
 21
80.3631
 31
0.0
  0
LINE
  8
0
 62
     0
 10
73.2688
 20
80.3631
 30
0.0
 11
76.0691
 21
80.3631
 31
0.0
  0
LINE
  8
0
 62
     0
 10
76.0691
 20
80.3631
 30
0.0
 11
76.0691
 21
79.4879
 31
0.0
  0
LINE
  8
0
 62
     0
 10
76.0691
 20
79.4879
 30
0.0
 11
79.2992
 21
79.4879
 31
0.0
  0
LINE
  8
0
 62
     0
 10
79.2992
 20
79.4879
 30
0.0
 11
79.2992
 21
77.8619
 31
0.0
  0
LINE
  8
0
 62
     0
 10
79.2992
 20
77.8619
 30
0.0
 11
80.2185
 21
77.8619
 31
0.0
  0
LINE
  8
0
 62
     0
 10
80.2185
 20
77.8619
 30
0.0
 11
80.2185
 21
74.5628
 31
0.0
  0
LINE
  8
0
 62
     0
 10
80.2185
 20
74.5628
 30
0.0
 11
79.2992
 21
74.5628
 31
0.0
  0
LINE
  8
0
 62
     0
 10
79.2992
 20
74.5628
 30
0.0
 11
79.2992
 21
72.8377
 31
0.0
  0
LINE
  8
0
 62
     0
 10
79.2992
 20
72.8377
 30
0.0
 11
78.4987
 21
72.8377
 31
0.0
  0
LINE
  8
0
 62
     0
 10
78.4987
 20
72.8377
 30
0.0
 11
78.4987
 21
72.063
 31
0.0
  0
LINE
  8
0
 62
     0
 10
78.4987
 20
72.063
 30
0.0
 11
80.1688
 21
72.063
 31
0.0
  0
LINE
  8
0
 62
     0
 10
80.1688
 20
72.063
 30
0.0
 11
80.1688
 21
71.2625
 31
0.0
  0
LINE
  8
0
 62
     0
 10
80.1688
 20
71.2625
 30
0.0
 11
80.7681
 21
71.2625
 31
0.0
  0
LINE
  8
0
 62
     0
 10
80.7681
 20
71.2625
 30
0.0
 11
80.7681
 21
57.2629
 31
0.0
  0
LINE
  8
0
 62
     0
 10
80.7681
 20
57.2629
 30
0.0
 11
80.1688
 21
57.2629
 31
0.0
  0
LINE
  8
0
 62
     0
 10
80.1688
 20
19.163
 30
0.0
 11
80.1688
 21
18.3624
 31
0.0
  0
LINE
  8
0
 62
     0
 10
80.1688
 20
18.3624
 30
0.0
 11
78.4987
 21
18.3624
 31
0.0
  0
LINE
  8
0
 62
     0
 10
78.4987
 20
18.3624
 30
0.0
 11
78.4987
 21
17.5879
 31
0.0
  0
LINE
  8
0
 62
     0
 10
78.4987
 20
17.5879
 30
0.0
 11
79.2992
 21
17.5879
 31
0.0
  0
LINE
  8
0
 62
     0
 10
79.2992
 20
17.5879
 30
0.0
 11
79.2992
 21
15.8626
 31
0.0
  0
LINE
  8
0
 62
     0
 10
79.2992
 20
15.8626
 30
0.0
 11
80.2185
 21
15.8626
 31
0.0
  0
LINE
  8
0
 62
     0
 10
80.2185
 20
15.8626
 30
0.0
 11
80.2185
 21
12.5622
 31
0.0
  0
LINE
  8
0
 62
     0
 10
80.2185
 20
12.5622
 30
0.0
 11
79.2992
 21
12.5622
 31
0.0
  0
LINE
  8
0
 62
     0
 10
79.2992
 20
12.5622
 30
0.0
 11
79.2992
 21
10.9375
 31
0.0
  0
LINE
  8
0
 62
     0
 10
79.2992
 20
10.9375
 30
0.0
 11
76.0691
 21
10.9375
 31
0.0
  0
LINE
  8
0
 62
     0
 10
76.0691
 20
10.9375
 30
0.0
 11
76.0691
 21
10.0624
 31
0.0
  0
LINE
  8
0
 62
     0
 10
76.0691
 20
10.0624
 30
0.0
 11
73.2688
 21
10.0624
 31
0.0
  0
LINE
  8
0
 62
     0
 10
73.2688
 20
10.0624
 30
0.0
 11
73.2688
 21
10.9375
 31
0.0
  0
LINE
  8
0
 62
     0
 10
73.2688
 20
10.9375
 30
0.0
 11
66.9988
 21
10.9375
 31
0.0
  0
LINE
  8
0
 62
     0
 10
66.9988
 20
10.9375
 30
0.0
 11
66.9988
 21
12.5622
 31
0.0
  0
LINE
  8
0
 62
     0
 10
66.9988
 20
12.5622
 30
0.0
 11
66.0192
 21
12.5622
 31
0.0
  0
LINE
  8
0
 62
     0
 10
66.0192
 20
12.5622
 30
0.0
 11
66.0192
 21
15.8626
 31
0.0
  0
LINE
  8
0
 62
     0
 10
66.0192
 20
15.8626
 30
0.0
 11
66.9988
 21
15.8626
 31
0.0
  0
LINE
  8
0
 62
     0
 10
66.9988
 20
15.8626
 30
0.0
 11
66.9988
 21
17.5879
 31
0.0
  0
LINE
  8
0
 62
     0
 10
66.9988
 20
17.5879
 30
0.0
 11
67.7982
 21
17.5879
 31
0.0
  0
LINE
  8
0
 62
     0
 10
67.7982
 20
17.5879
 30
0.0
 11
67.7982
 21
18.3624
 31
0.0
  0
LINE
  8
0
 62
     0
 10
67.7982
 20
18.3624
 30
0.0
 11
67.3682
 21
18.3624
 31
0.0
  0
LINE
  8
0
 62
     0
 10
67.3682
 20
18.3624
 30
0.0
 11
67.3682
 21
19.163
 31
0.0
  0
LINE
  8
0
 62
     0
 10
67.3682
 20
19.163
 30
0.0
 11
66.7688
 21
19.163
 31
0.0
  0
LINE
  8
0
 62
     0
 10
66.7688
 20
19.163
 30
0.0
 11
66.7688
 21
33.1625
 31
0.0
  0
LINE
  8
0
 62
     0
 10
66.7688
 20
33.1625
 30
0.0
 11
67.3682
 21
33.1625
 31
0.0
  0
LINE
  8
0
 62
     0
 10
67.3682
 20
33.1625
 30
0.0
 11
67.3682
 21
33.9631
 31
0.0
  0
LINE
  8
0
 62
     0
 10
67.3682
 20
33.9631
 30
0.0
 11
67.7982
 21
33.9631
 31
0.0
  0
LINE
  8
0
 62
     0
 10
67.7982
 20
33.9631
 30
0.0
 11
67.7982
 21
34.7376
 31
0.0
  0
LINE
  8
0
 62
     0
 10
67.7982
 20
34.7376
 30
0.0
 11
66.9988
 21
34.7376
 31
0.0
  0
LINE
  8
0
 62
     0
 10
66.9988
 20
34.7376
 30
0.0
 11
66.9988
 21
36.4628
 31
0.0
  0
LINE
  8
0
 62
     0
 10
66.9988
 20
36.4628
 30
0.0
 11
66.0192
 21
36.4628
 31
0.0
  0
LINE
  8
0
 62
     0
 10
66.0192
 20
36.4628
 30
0.0
 11
66.0192
 21
39.7619
 31
0.0
  0
LINE
  8
0
 62
     0
 10
66.0192
 20
39.7619
 30
0.0
 11
66.9988
 21
39.7619
 31
0.0
  0
LINE
  8
0
 62
     0
 10
66.9988
 20
39.7619
 30
0.0
 11
66.9988
 21
41.3879
 31
0.0
  0
LINE
  8
0
 62
     0
 10
66.9988
 20
41.3879
 30
0.0
 11
73.2688
 21
41.3879
 31
0.0
  0
LINE
  8
0
 62
     0
 10
73.2688
 20
41.3879
 30
0.0
 11
73.2688
 21
42.2631
 31
0.0
  0
LINE
  8
0
 62
     0
 10
73.2688
 20
42.2631
 30
0.0
 11
76.0691
 21
42.2631
 31
0.0
  0
LINE
  8
0
 62
     0
 10
76.0691
 20
42.2631
 30
0.0
 11
76.0691
 21
41.3879
 31
0.0
  0
LINE
  8
0
 62
     0
 10
76.0691
 20
41.3879
 30
0.0
 11
79.2992
 21
41.3879
 31
0.0
  0
LINE
  8
0
 62
     0
 10
79.2992
 20
41.3879
 30
0.0
 11
79.2992
 21
39.7619
 31
0.0
  0
LINE
  8
0
 62
     0
 10
79.2992
 20
39.7619
 30
0.0
 11
80.2185
 21
39.7619
 31
0.0
  0
LINE
  8
0
 62
     0
 10
80.2185
 20
39.7619
 30
0.0
 11
80.2185
 21
36.4628
 31
0.0
  0
LINE
  8
0
 62
     0
 10
80.2185
 20
36.4628
 30
0.0
 11
79.2992
 21
36.4628
 31
0.0
  0
LINE
  8
0
 62
     0
 10
79.2992
 20
36.4628
 30
0.0
 11
79.2992
 21
34.7376
 31
0.0
  0
LINE
  8
0
 62
     0
 10
79.2992
 20
34.7376
 30
0.0
 11
78.4987
 21
34.7376
 31
0.0
  0
LINE
  8
0
 62
     0
 10
78.4987
 20
34.7376
 30
0.0
 11
78.4987
 21
33.9631
 31
0.0
  0
LINE
  8
0
 62
     0
 10
78.4987
 20
33.9631
 30
0.0
 11
80.1688
 21
33.9631
 31
0.0
  0
LINE
  8
0
 62
     0
 10
80.1688
 20
33.9631
 30
0.0
 11
80.1688
 21
33.1625
 31
0.0
  0
LINE
  8
0
 62
     0
 10
80.1688
 20
33.1625
 30
0.0
 11
80.7681
 21
33.1625
 31
0.0
  0
LINE
  8
0
 62
     0
 10
80.7681
 20
33.1625
 30
0.0
 11
80.7681
 21
19.163
 31
0.0
  0
LINE
  8
0
 62
     0
 10
80.7681
 20
19.163
 30
0.0
 11
80.1688
 21
19.163
 31
0.0
  0
LINE
  8
0
 62
     0
 10
80.7681
 20
115.013
 30
0.0
 11
80.7681
 21
114.413
 31
0.0
  0
LINE
  8
0
 62
     0
 10
80.7681
 20
114.413
 30
0.0
 11
66.7688
 21
114.413
 31
0.0
  0
LINE
  8
0
 62
     0
 10
66.7688
 20
114.413
 30
0.0
 11
66.7688
 21
115.013
 31
0.0
  0
LINE
  8
0
 62
     0
 10
66.7688
 20
115.013
 30
0.0
 11
65.968
 21
115.013
 31
0.0
  0
LINE
  8
0
 62
     0
 10
65.968
 20
115.013
 30
0.0
 11
65.968
 21
127.813
 31
0.0
  0
LINE
  8
0
 62
     0
 10
65.968
 20
127.813
 30
0.0
 11
66.7688
 21
127.813
 31
0.0
  0
LINE
  8
0
 62
     0
 10
66.7688
 20
127.813
 30
0.0
 11
66.7688
 21
128.413
 31
0.0
  0
LINE
  8
0
 62
     0
 10
66.7688
 20
128.413
 30
0.0
 11
80.7681
 21
128.413
 31
0.0
  0
LINE
  8
0
 62
     0
 10
80.7681
 20
128.413
 30
0.0
 11
80.7681
 21
127.813
 31
0.0
  0
LINE
  8
0
 62
     0
 10
80.7681
 20
127.813
 30
0.0
 11
81.5689
 21
127.813
 31
0.0
  0
LINE
  8
0
 62
     0
 10
81.5689
 20
127.813
 30
0.0
 11
81.5689
 21
115.013
 31
0.0
  0
LINE
  8
0
 62
     0
 10
81.5689
 20
115.013
 30
0.0
 11
80.7681
 21
115.013
 31
0.0
  0
LINE
  8
0
 62
     0
 10
80.7681
 20
86.4376
 30
0.0
 11
80.7681
 21
85.8379
 31
0.0
  0
LINE
  8
0
 62
     0
 10
80.7681
 20
85.8379
 30
0.0
 11
66.7688
 21
85.8379
 31
0.0
  0
LINE
  8
0
 62
     0
 10
66.7688
 20
85.8379
 30
0.0
 11
66.7688
 21
86.4376
 31
0.0
  0
LINE
  8
0
 62
     0
 10
66.7688
 20
86.4376
 30
0.0
 11
65.968
 21
86.4376
 31
0.0
  0
LINE
  8
0
 62
     0
 10
65.968
 20
86.4376
 30
0.0
 11
65.968
 21
99.2382
 31
0.0
  0
LINE
  8
0
 62
     0
 10
65.968
 20
99.2382
 30
0.0
 11
66.7688
 21
99.2382
 31
0.0
  0
LINE
  8
0
 62
     0
 10
66.7688
 20
99.2382
 30
0.0
 11
66.7688
 21
99.8375
 31
0.0
  0
LINE
  8
0
 62
     0
 10
66.7688
 20
99.8375
 30
0.0
 11
80.7681
 21
99.8375
 31
0.0
  0
LINE
  8
0
 62
     0
 10
80.7681
 20
99.8375
 30
0.0
 11
80.7681
 21
99.2382
 31
0.0
  0
LINE
  8
0
 62
     0
 10
80.7681
 20
99.2382
 30
0.0
 11
81.5689
 21
99.2382
 31
0.0
  0
LINE
  8
0
 62
     0
 10
81.5689
 20
99.2382
 30
0.0
 11
81.5689
 21
86.4376
 31
0.0
  0
LINE
  8
0
 62
     0
 10
81.5689
 20
86.4376
 30
0.0
 11
80.7681
 21
86.4376
 31
0.0
  0
ENDSEC
  0
EOF
