  0
SECTION
  2
HEADER
  9
$ACADVER
  1
AC1009
  9
$EXTMIN
 10
0.0
 20
0.0
 30
0.0
  9
$EXTMAX
 10
1000.0
 20
1000.0
 30
0.0
  9
$FILLMODE
 70
 0
  9
$SPLFRAME
 70
 1
  0
ENDSEC
  0
SECTION
  2
TABLES
  0
TABLE
  2
LAYER
 70
1
  0
LAYER
  2
0
 70
     0
 62
     7
  6
CONTINUOUS
  0
ENDTAB
  0
ENDSEC
  0
SECTION
  2
ENTITIES
  0
LINE
  8
0
 62
     0
 10
86.294
 20
135.938
 30
0.0
 11
86.4514
 21
135.932
 31
0.0
  0
LINE
  8
0
 62
     0
 10
86.4514
 20
135.932
 30
0.0
 11
86.6069
 21
135.913
 31
0.0
  0
LINE
  8
0
 62
     0
 10
86.6069
 20
135.913
 30
0.0
 11
86.7615
 21
135.883
 31
0.0
  0
LINE
  8
0
 62
     0
 10
86.7615
 20
135.883
 30
0.0
 11
86.9114
 21
135.84
 31
0.0
  0
LINE
  8
0
 62
     0
 10
86.9114
 20
135.84
 30
0.0
 11
87.0589
 21
135.786
 31
0.0
  0
LINE
  8
0
 62
     0
 10
87.0589
 20
135.786
 30
0.0
 11
87.2024
 21
135.72
 31
0.0
  0
LINE
  8
0
 62
     0
 10
87.2024
 20
135.72
 30
0.0
 11
87.3386
 21
135.643
 31
0.0
  0
LINE
  8
0
 62
     0
 10
87.3386
 20
135.643
 30
0.0
 11
87.4695
 21
135.556
 31
0.0
  0
LINE
  8
0
 62
     0
 10
87.4695
 20
135.556
 30
0.0
 11
87.5923
 21
135.459
 31
0.0
  0
LINE
  8
0
 62
     0
 10
87.5923
 20
135.459
 30
0.0
 11
87.708
 21
135.352
 31
0.0
  0
LINE
  8
0
 62
     0
 10
87.708
 20
135.352
 30
0.0
 11
87.8141
 21
135.237
 31
0.0
  0
LINE
  8
0
 62
     0
 10
87.8141
 20
135.237
 30
0.0
 11
87.9119
 21
135.114
 31
0.0
  0
LINE
  8
0
 62
     0
 10
87.9119
 20
135.114
 30
0.0
 11
87.9987
 21
134.983
 31
0.0
  0
LINE
  8
0
 62
     0
 10
87.9987
 20
134.983
 30
0.0
 11
88.0759
 21
134.846
 31
0.0
  0
LINE
  8
0
 62
     0
 10
88.0759
 20
134.846
 30
0.0
 11
88.1422
 21
134.703
 31
0.0
  0
LINE
  8
0
 62
     0
 10
88.1422
 20
134.703
 30
0.0
 11
88.1959
 21
134.556
 31
0.0
  0
LINE
  8
0
 62
     0
 10
88.1959
 20
134.556
 30
0.0
 11
88.2385
 21
134.406
 31
0.0
  0
LINE
  8
0
 62
     0
 10
88.2385
 20
134.406
 30
0.0
 11
88.2689
 21
134.251
 31
0.0
  0
LINE
  8
0
 62
     0
 10
88.2689
 20
134.251
 30
0.0
 11
88.2883
 21
134.095
 31
0.0
  0
LINE
  8
0
 62
     0
 10
88.2883
 20
134.095
 30
0.0
 11
88.2936
 21
133.938
 31
0.0
  0
LINE
  8
0
 62
     0
 10
88.2936
 20
133.938
 30
0.0
 11
88.2936
 21
2.11253
 31
0.0
  0
LINE
  8
0
 62
     0
 10
88.2936
 20
2.11253
 30
0.0
 11
88.2883
 21
1.95544
 31
0.0
  0
LINE
  8
0
 62
     0
 10
88.2883
 20
1.95544
 30
0.0
 11
88.2689
 21
1.79972
 31
0.0
  0
LINE
  8
0
 62
     0
 10
88.2689
 20
1.79972
 30
0.0
 11
88.2385
 21
1.64538
 31
0.0
  0
LINE
  8
0
 62
     0
 10
88.2385
 20
1.64538
 30
0.0
 11
88.1959
 21
1.49517
 31
0.0
  0
LINE
  8
0
 62
     0
 10
88.1959
 20
1.49517
 30
0.0
 11
88.1422
 21
1.34772
 31
0.0
  0
LINE
  8
0
 62
     0
 10
88.1422
 20
1.34772
 30
0.0
 11
88.0759
 21
1.2044
 31
0.0
  0
LINE
  8
0
 62
     0
 10
88.0759
 20
1.2044
 30
0.0
 11
87.9987
 21
1.06798
 31
0.0
  0
LINE
  8
0
 62
     0
 10
87.9987
 20
1.06798
 30
0.0
 11
87.9119
 21
0.937066
 31
0.0
  0
LINE
  8
0
 62
     0
 10
87.9119
 20
0.937066
 30
0.0
 11
87.8141
 21
0.814419
 31
0.0
  0
LINE
  8
0
 62
     0
 10
87.8141
 20
0.814419
 30
0.0
 11
87.708
 21
0.698666
 31
0.0
  0
LINE
  8
0
 62
     0
 10
87.708
 20
0.698666
 30
0.0
 11
87.5923
 21
0.592557
 31
0.0
  0
LINE
  8
0
 62
     0
 10
87.5923
 20
0.592557
 30
0.0
 11
87.4695
 21
0.494714
 31
0.0
  0
LINE
  8
0
 62
     0
 10
87.4695
 20
0.494714
 30
0.0
 11
87.3386
 21
0.407899
 31
0.0
  0
LINE
  8
0
 62
     0
 10
87.3386
 20
0.407899
 30
0.0
 11
87.2024
 21
0.330729
 31
0.0
  0
LINE
  8
0
 62
     0
 10
87.2024
 20
0.330729
 30
0.0
 11
87.0589
 21
0.264583
 31
0.0
  0
LINE
  8
0
 62
     0
 10
87.0589
 20
0.264583
 30
0.0
 11
86.9114
 21
0.21084
 31
0.0
  0
LINE
  8
0
 62
     0
 10
86.9114
 20
0.21084
 30
0.0
 11
86.7615
 21
0.168121
 31
0.0
  0
LINE
  8
0
 62
     0
 10
86.7615
 20
0.168121
 30
0.0
 11
86.6069
 21
0.137804
 31
0.0
  0
LINE
  8
0
 62
     0
 10
86.6069
 20
0.137804
 30
0.0
 11
86.4514
 21
0.118511
 31
0.0
  0
LINE
  8
0
 62
     0
 10
86.4514
 20
0.118511
 30
0.0
 11
86.294
 21
0.112999
 31
0.0
  0
LINE
  8
0
 62
     0
 10
86.294
 20
0.112999
 30
0.0
 11
2.09324
 21
0.112999
 31
0.0
  0
LINE
  8
0
 62
     0
 10
2.09324
 20
0.112999
 30
0.0
 11
1.93614
 21
0.118511
 31
0.0
  0
LINE
  8
0
 62
     0
 10
1.93614
 20
0.118511
 30
0.0
 11
1.78043
 21
0.137804
 31
0.0
  0
LINE
  8
0
 62
     0
 10
1.78043
 20
0.137804
 30
0.0
 11
1.62609
 21
0.168121
 31
0.0
  0
LINE
  8
0
 62
     0
 10
1.62609
 20
0.168121
 30
0.0
 11
1.47588
 21
0.21084
 31
0.0
  0
LINE
  8
0
 62
     0
 10
1.47588
 20
0.21084
 30
0.0
 11
1.32843
 21
0.264583
 31
0.0
  0
LINE
  8
0
 62
     0
 10
1.32843
 20
0.264583
 30
0.0
 11
1.18511
 21
0.330729
 31
0.0
  0
LINE
  8
0
 62
     0
 10
1.18511
 20
0.330729
 30
0.0
 11
1.04869
 21
0.407899
 31
0.0
  0
LINE
  8
0
 62
     0
 10
1.04869
 20
0.407899
 30
0.0
 11
0.917773
 21
0.494714
 31
0.0
  0
LINE
  8
0
 62
     0
 10
0.917773
 20
0.494714
 30
0.0
 11
0.795129
 21
0.592557
 31
0.0
  0
LINE
  8
0
 62
     0
 10
0.795129
 20
0.592557
 30
0.0
 11
0.679372
 21
0.698666
 31
0.0
  0
LINE
  8
0
 62
     0
 10
0.679372
 20
0.698666
 30
0.0
 11
0.573264
 21
0.814419
 31
0.0
  0
LINE
  8
0
 62
     0
 10
0.573264
 20
0.814419
 30
0.0
 11
0.475424
 21
0.937066
 31
0.0
  0
LINE
  8
0
 62
     0
 10
0.475424
 20
0.937066
 30
0.0
 11
0.388606
 21
1.06798
 31
0.0
  0
LINE
  8
0
 62
     0
 10
0.388606
 20
1.06798
 30
0.0
 11
0.311437
 21
1.2044
 31
0.0
  0
LINE
  8
0
 62
     0
 10
0.311437
 20
1.2044
 30
0.0
 11
0.245291
 21
1.34772
 31
0.0
  0
LINE
  8
0
 62
     0
 10
0.245291
 20
1.34772
 30
0.0
 11
0.191547
 21
1.49517
 31
0.0
  0
LINE
  8
0
 62
     0
 10
0.191547
 20
1.49517
 30
0.0
 11
0.148828
 21
1.64538
 31
0.0
  0
LINE
  8
0
 62
     0
 10
0.148828
 20
1.64538
 30
0.0
 11
0.118511
 21
1.79972
 31
0.0
  0
LINE
  8
0
 62
     0
 10
0.118511
 20
1.79972
 30
0.0
 11
0.0992188
 21
1.95544
 31
0.0
  0
LINE
  8
0
 62
     0
 10
0.0992188
 20
1.95544
 30
0.0
 11
0.0937066
 21
2.11253
 31
0.0
  0
LINE
  8
0
 62
     0
 10
0.0937066
 20
2.11253
 30
0.0
 11
0.0937066
 21
133.938
 31
0.0
  0
LINE
  8
0
 62
     0
 10
0.0937066
 20
133.938
 30
0.0
 11
0.0992188
 21
134.095
 31
0.0
  0
LINE
  8
0
 62
     0
 10
0.0992188
 20
134.095
 30
0.0
 11
0.118511
 21
134.251
 31
0.0
  0
LINE
  8
0
 62
     0
 10
0.118511
 20
134.251
 30
0.0
 11
0.148828
 21
134.406
 31
0.0
  0
LINE
  8
0
 62
     0
 10
0.148828
 20
134.406
 30
0.0
 11
0.191547
 21
134.556
 31
0.0
  0
LINE
  8
0
 62
     0
 10
0.191547
 20
134.556
 30
0.0
 11
0.245291
 21
134.703
 31
0.0
  0
LINE
  8
0
 62
     0
 10
0.245291
 20
134.703
 30
0.0
 11
0.311437
 21
134.846
 31
0.0
  0
LINE
  8
0
 62
     0
 10
0.311437
 20
134.846
 30
0.0
 11
0.388606
 21
134.983
 31
0.0
  0
LINE
  8
0
 62
     0
 10
0.388606
 20
134.983
 30
0.0
 11
0.475424
 21
135.114
 31
0.0
  0
LINE
  8
0
 62
     0
 10
0.475424
 20
135.114
 30
0.0
 11
0.573264
 21
135.237
 31
0.0
  0
LINE
  8
0
 62
     0
 10
0.573264
 20
135.237
 30
0.0
 11
0.679372
 21
135.352
 31
0.0
  0
LINE
  8
0
 62
     0
 10
0.679372
 20
135.352
 30
0.0
 11
0.795129
 21
135.459
 31
0.0
  0
LINE
  8
0
 62
     0
 10
0.795129
 20
135.459
 30
0.0
 11
0.917773
 21
135.556
 31
0.0
  0
LINE
  8
0
 62
     0
 10
0.917773
 20
135.556
 30
0.0
 11
1.04869
 21
135.643
 31
0.0
  0
LINE
  8
0
 62
     0
 10
1.04869
 20
135.643
 30
0.0
 11
1.18511
 21
135.72
 31
0.0
  0
LINE
  8
0
 62
     0
 10
1.18511
 20
135.72
 30
0.0
 11
1.32843
 21
135.786
 31
0.0
  0
LINE
  8
0
 62
     0
 10
1.32843
 20
135.786
 30
0.0
 11
1.47588
 21
135.84
 31
0.0
  0
LINE
  8
0
 62
     0
 10
1.47588
 20
135.84
 30
0.0
 11
1.62609
 21
135.883
 31
0.0
  0
LINE
  8
0
 62
     0
 10
1.62609
 20
135.883
 30
0.0
 11
1.78043
 21
135.913
 31
0.0
  0
LINE
  8
0
 62
     0
 10
1.78043
 20
135.913
 30
0.0
 11
1.93614
 21
135.932
 31
0.0
  0
LINE
  8
0
 62
     0
 10
1.93614
 20
135.932
 30
0.0
 11
2.09324
 21
135.938
 31
0.0
  0
LINE
  8
0
 62
     0
 10
2.09324
 20
135.938
 30
0.0
 11
86.294
 21
135.938
 31
0.0
  0
LINE
  8
0
 62
     0
 10
44.1935
 20
134.437
 30
0.0
 11
44.6581
 21
134.364
 31
0.0
  0
LINE
  8
0
 62
     0
 10
44.6581
 20
134.364
 30
0.0
 11
45.0755
 21
134.152
 31
0.0
  0
LINE
  8
0
 62
     0
 10
45.0755
 20
134.152
 30
0.0
 11
45.4078
 21
133.82
 31
0.0
  0
LINE
  8
0
 62
     0
 10
45.4078
 20
133.82
 30
0.0
 11
45.6212
 21
133.402
 31
0.0
  0
LINE
  8
0
 62
     0
 10
45.6212
 20
133.402
 30
0.0
 11
45.6942
 21
132.938
 31
0.0
  0
LINE
  8
0
 62
     0
 10
45.6942
 20
132.938
 30
0.0
 11
45.6212
 21
132.474
 31
0.0
  0
LINE
  8
0
 62
     0
 10
45.6212
 20
132.474
 30
0.0
 11
45.4078
 21
132.056
 31
0.0
  0
LINE
  8
0
 62
     0
 10
45.4078
 20
132.056
 30
0.0
 11
45.0755
 21
131.724
 31
0.0
  0
LINE
  8
0
 62
     0
 10
45.0755
 20
131.724
 30
0.0
 11
44.6581
 21
131.51
 31
0.0
  0
LINE
  8
0
 62
     0
 10
44.6581
 20
131.51
 30
0.0
 11
44.1935
 21
131.437
 31
0.0
  0
LINE
  8
0
 62
     0
 10
44.1935
 20
131.437
 30
0.0
 11
43.7293
 21
131.51
 31
0.0
  0
LINE
  8
0
 62
     0
 10
43.7293
 20
131.51
 30
0.0
 11
43.3116
 21
131.724
 31
0.0
  0
LINE
  8
0
 62
     0
 10
43.3116
 20
131.724
 30
0.0
 11
42.9796
 21
132.056
 31
0.0
  0
LINE
  8
0
 62
     0
 10
42.9796
 20
132.056
 30
0.0
 11
42.7673
 21
132.474
 31
0.0
  0
LINE
  8
0
 62
     0
 10
42.7673
 20
132.474
 30
0.0
 11
42.6942
 21
132.938
 31
0.0
  0
LINE
  8
0
 62
     0
 10
42.6942
 20
132.938
 30
0.0
 11
42.7673
 21
133.402
 31
0.0
  0
LINE
  8
0
 62
     0
 10
42.7673
 20
133.402
 30
0.0
 11
42.9796
 21
133.82
 31
0.0
  0
LINE
  8
0
 62
     0
 10
42.9796
 20
133.82
 30
0.0
 11
43.3116
 21
134.152
 31
0.0
  0
LINE
  8
0
 62
     0
 10
43.3116
 20
134.152
 30
0.0
 11
43.7293
 21
134.364
 31
0.0
  0
LINE
  8
0
 62
     0
 10
43.7293
 20
134.364
 30
0.0
 11
44.1935
 21
134.437
 31
0.0
  0
LINE
  8
0
 62
     0
 10
85.2936
 20
134.437
 30
0.0
 11
85.7582
 21
134.364
 31
0.0
  0
LINE
  8
0
 62
     0
 10
85.7582
 20
134.364
 30
0.0
 11
86.1755
 21
134.152
 31
0.0
  0
LINE
  8
0
 62
     0
 10
86.1755
 20
134.152
 30
0.0
 11
86.5078
 21
133.82
 31
0.0
  0
LINE
  8
0
 62
     0
 10
86.5078
 20
133.82
 30
0.0
 11
86.7212
 21
133.402
 31
0.0
  0
LINE
  8
0
 62
     0
 10
86.7212
 20
133.402
 30
0.0
 11
86.7943
 21
132.938
 31
0.0
  0
LINE
  8
0
 62
     0
 10
86.7943
 20
132.938
 30
0.0
 11
86.7212
 21
132.474
 31
0.0
  0
LINE
  8
0
 62
     0
 10
86.7212
 20
132.474
 30
0.0
 11
86.5078
 21
132.056
 31
0.0
  0
LINE
  8
0
 62
     0
 10
86.5078
 20
132.056
 30
0.0
 11
86.1755
 21
131.724
 31
0.0
  0
LINE
  8
0
 62
     0
 10
86.1755
 20
131.724
 30
0.0
 11
85.7582
 21
131.51
 31
0.0
  0
LINE
  8
0
 62
     0
 10
85.7582
 20
131.51
 30
0.0
 11
85.2936
 21
131.437
 31
0.0
  0
LINE
  8
0
 62
     0
 10
85.2936
 20
131.437
 30
0.0
 11
84.8293
 21
131.51
 31
0.0
  0
LINE
  8
0
 62
     0
 10
84.8293
 20
131.51
 30
0.0
 11
84.4116
 21
131.724
 31
0.0
  0
LINE
  8
0
 62
     0
 10
84.4116
 20
131.724
 30
0.0
 11
84.0796
 21
132.056
 31
0.0
  0
LINE
  8
0
 62
     0
 10
84.0796
 20
132.056
 30
0.0
 11
83.8673
 21
132.474
 31
0.0
  0
LINE
  8
0
 62
     0
 10
83.8673
 20
132.474
 30
0.0
 11
83.7942
 21
132.938
 31
0.0
  0
LINE
  8
0
 62
     0
 10
83.7942
 20
132.938
 30
0.0
 11
83.8673
 21
133.402
 31
0.0
  0
LINE
  8
0
 62
     0
 10
83.8673
 20
133.402
 30
0.0
 11
84.0796
 21
133.82
 31
0.0
  0
LINE
  8
0
 62
     0
 10
84.0796
 20
133.82
 30
0.0
 11
84.4116
 21
134.152
 31
0.0
  0
LINE
  8
0
 62
     0
 10
84.4116
 20
134.152
 30
0.0
 11
84.8293
 21
134.364
 31
0.0
  0
LINE
  8
0
 62
     0
 10
84.8293
 20
134.364
 30
0.0
 11
85.2936
 21
134.437
 31
0.0
  0
LINE
  8
0
 62
     0
 10
85.2936
 20
91.1627
 30
0.0
 11
85.7582
 21
91.0897
 31
0.0
  0
LINE
  8
0
 62
     0
 10
85.7582
 20
91.0897
 30
0.0
 11
86.1755
 21
90.8773
 31
0.0
  0
LINE
  8
0
 62
     0
 10
86.1755
 20
90.8773
 30
0.0
 11
86.5078
 21
90.5454
 31
0.0
  0
LINE
  8
0
 62
     0
 10
86.5078
 20
90.5454
 30
0.0
 11
86.7212
 21
90.1266
 31
0.0
  0
LINE
  8
0
 62
     0
 10
86.7212
 20
90.1266
 30
0.0
 11
86.7943
 21
89.6634
 31
0.0
  0
LINE
  8
0
 62
     0
 10
86.7943
 20
89.6634
 30
0.0
 11
86.7212
 21
89.1992
 31
0.0
  0
LINE
  8
0
 62
     0
 10
86.7212
 20
89.1992
 30
0.0
 11
86.5078
 21
88.7815
 31
0.0
  0
LINE
  8
0
 62
     0
 10
86.5078
 20
88.7815
 30
0.0
 11
86.1755
 21
88.4495
 31
0.0
  0
LINE
  8
0
 62
     0
 10
86.1755
 20
88.4495
 30
0.0
 11
85.7582
 21
88.2357
 31
0.0
  0
LINE
  8
0
 62
     0
 10
85.7582
 20
88.2357
 30
0.0
 11
85.2936
 21
88.1627
 31
0.0
  0
LINE
  8
0
 62
     0
 10
85.2936
 20
88.1627
 30
0.0
 11
84.8293
 21
88.2357
 31
0.0
  0
LINE
  8
0
 62
     0
 10
84.8293
 20
88.2357
 30
0.0
 11
84.4116
 21
88.4495
 31
0.0
  0
LINE
  8
0
 62
     0
 10
84.4116
 20
88.4495
 30
0.0
 11
84.0796
 21
88.7815
 31
0.0
  0
LINE
  8
0
 62
     0
 10
84.0796
 20
88.7815
 30
0.0
 11
83.8673
 21
89.1992
 31
0.0
  0
LINE
  8
0
 62
     0
 10
83.8673
 20
89.1992
 30
0.0
 11
83.7942
 21
89.6634
 31
0.0
  0
LINE
  8
0
 62
     0
 10
83.7942
 20
89.6634
 30
0.0
 11
83.8673
 21
90.1266
 31
0.0
  0
LINE
  8
0
 62
     0
 10
83.8673
 20
90.1266
 30
0.0
 11
84.0796
 21
90.5454
 31
0.0
  0
LINE
  8
0
 62
     0
 10
84.0796
 20
90.5454
 30
0.0
 11
84.4116
 21
90.8773
 31
0.0
  0
LINE
  8
0
 62
     0
 10
84.4116
 20
90.8773
 30
0.0
 11
84.8293
 21
91.0897
 31
0.0
  0
LINE
  8
0
 62
     0
 10
84.8293
 20
91.0897
 30
0.0
 11
85.2936
 21
91.1627
 31
0.0
  0
LINE
  8
0
 62
     0
 10
85.2936
 20
47.8882
 30
0.0
 11
85.7582
 21
47.8151
 31
0.0
  0
LINE
  8
0
 62
     0
 10
85.7582
 20
47.8151
 30
0.0
 11
86.1755
 21
47.6017
 31
0.0
  0
LINE
  8
0
 62
     0
 10
86.1755
 20
47.6017
 30
0.0
 11
86.5078
 21
47.2694
 31
0.0
  0
LINE
  8
0
 62
     0
 10
86.5078
 20
47.2694
 30
0.0
 11
86.7212
 21
46.8521
 31
0.0
  0
LINE
  8
0
 62
     0
 10
86.7212
 20
46.8521
 30
0.0
 11
86.7943
 21
46.3875
 31
0.0
  0
LINE
  8
0
 62
     0
 10
86.7943
 20
46.3875
 30
0.0
 11
86.7212
 21
45.9246
 31
0.0
  0
LINE
  8
0
 62
     0
 10
86.7212
 20
45.9246
 30
0.0
 11
86.5078
 21
45.5055
 31
0.0
  0
LINE
  8
0
 62
     0
 10
86.5078
 20
45.5055
 30
0.0
 11
86.1755
 21
45.1735
 31
0.0
  0
LINE
  8
0
 62
     0
 10
86.1755
 20
45.1735
 30
0.0
 11
85.7582
 21
44.9612
 31
0.0
  0
LINE
  8
0
 62
     0
 10
85.7582
 20
44.9612
 30
0.0
 11
85.2936
 21
44.8881
 31
0.0
  0
LINE
  8
0
 62
     0
 10
85.2936
 20
44.8881
 30
0.0
 11
84.8293
 21
44.9612
 31
0.0
  0
LINE
  8
0
 62
     0
 10
84.8293
 20
44.9612
 30
0.0
 11
84.4116
 21
45.1735
 31
0.0
  0
LINE
  8
0
 62
     0
 10
84.4116
 20
45.1735
 30
0.0
 11
84.0796
 21
45.5055
 31
0.0
  0
LINE
  8
0
 62
     0
 10
84.0796
 20
45.5055
 30
0.0
 11
83.8673
 21
45.9246
 31
0.0
  0
LINE
  8
0
 62
     0
 10
83.8673
 20
45.9246
 30
0.0
 11
83.7942
 21
46.3875
 31
0.0
  0
LINE
  8
0
 62
     0
 10
83.7942
 20
46.3875
 30
0.0
 11
83.8673
 21
46.8521
 31
0.0
  0
LINE
  8
0
 62
     0
 10
83.8673
 20
46.8521
 30
0.0
 11
84.0796
 21
47.2694
 31
0.0
  0
LINE
  8
0
 62
     0
 10
84.0796
 20
47.2694
 30
0.0
 11
84.4116
 21
47.6017
 31
0.0
  0
LINE
  8
0
 62
     0
 10
84.4116
 20
47.6017
 30
0.0
 11
84.8293
 21
47.8151
 31
0.0
  0
LINE
  8
0
 62
     0
 10
84.8293
 20
47.8151
 30
0.0
 11
85.2936
 21
47.8882
 31
0.0
  0
LINE
  8
0
 62
     0
 10
85.2936
 20
4.61229
 30
0.0
 11
85.7582
 21
4.53926
 31
0.0
  0
LINE
  8
0
 62
     0
 10
85.7582
 20
4.53926
 30
0.0
 11
86.1755
 21
4.32703
 31
0.0
  0
LINE
  8
0
 62
     0
 10
86.1755
 20
4.32703
 30
0.0
 11
86.5078
 21
3.99493
 31
0.0
  0
LINE
  8
0
 62
     0
 10
86.5078
 20
3.99493
 30
0.0
 11
86.7212
 21
3.57738
 31
0.0
  0
LINE
  8
0
 62
     0
 10
86.7212
 20
3.57738
 30
0.0
 11
86.7943
 21
3.11299
 31
0.0
  0
LINE
  8
0
 62
     0
 10
86.7943
 20
3.11299
 30
0.0
 11
86.7212
 21
2.64859
 31
0.0
  0
LINE
  8
0
 62
     0
 10
86.7212
 20
2.64859
 30
0.0
 11
86.5078
 21
2.23104
 31
0.0
  0
LINE
  8
0
 62
     0
 10
86.5078
 20
2.23104
 30
0.0
 11
86.1755
 21
1.89894
 31
0.0
  0
LINE
  8
0
 62
     0
 10
86.1755
 20
1.89894
 30
0.0
 11
85.7582
 21
1.68534
 31
0.0
  0
LINE
  8
0
 62
     0
 10
85.7582
 20
1.68534
 30
0.0
 11
85.2936
 21
1.6123
 31
0.0
  0
LINE
  8
0
 62
     0
 10
85.2936
 20
1.6123
 30
0.0
 11
84.8293
 21
1.68534
 31
0.0
  0
LINE
  8
0
 62
     0
 10
84.8293
 20
1.68534
 30
0.0
 11
84.4116
 21
1.89894
 31
0.0
  0
LINE
  8
0
 62
     0
 10
84.4116
 20
1.89894
 30
0.0
 11
84.0796
 21
2.23104
 31
0.0
  0
LINE
  8
0
 62
     0
 10
84.0796
 20
2.23104
 30
0.0
 11
83.8673
 21
2.64859
 31
0.0
  0
LINE
  8
0
 62
     0
 10
83.8673
 20
2.64859
 30
0.0
 11
83.7942
 21
3.11299
 31
0.0
  0
LINE
  8
0
 62
     0
 10
83.7942
 20
3.11299
 30
0.0
 11
83.8673
 21
3.57738
 31
0.0
  0
LINE
  8
0
 62
     0
 10
83.8673
 20
3.57738
 30
0.0
 11
84.0796
 21
3.99493
 31
0.0
  0
LINE
  8
0
 62
     0
 10
84.0796
 20
3.99493
 30
0.0
 11
84.4116
 21
4.32703
 31
0.0
  0
LINE
  8
0
 62
     0
 10
84.4116
 20
4.32703
 30
0.0
 11
84.8293
 21
4.53926
 31
0.0
  0
LINE
  8
0
 62
     0
 10
84.8293
 20
4.53926
 30
0.0
 11
85.2936
 21
4.61229
 31
0.0
  0
LINE
  8
0
 62
     0
 10
44.1935
 20
4.61229
 30
0.0
 11
44.6581
 21
4.53926
 31
0.0
  0
LINE
  8
0
 62
     0
 10
44.6581
 20
4.53926
 30
0.0
 11
45.0755
 21
4.32703
 31
0.0
  0
LINE
  8
0
 62
     0
 10
45.0755
 20
4.32703
 30
0.0
 11
45.4078
 21
3.99493
 31
0.0
  0
LINE
  8
0
 62
     0
 10
45.4078
 20
3.99493
 30
0.0
 11
45.6212
 21
3.57738
 31
0.0
  0
LINE
  8
0
 62
     0
 10
45.6212
 20
3.57738
 30
0.0
 11
45.6942
 21
3.11299
 31
0.0
  0
LINE
  8
0
 62
     0
 10
45.6942
 20
3.11299
 30
0.0
 11
45.6212
 21
2.64859
 31
0.0
  0
LINE
  8
0
 62
     0
 10
45.6212
 20
2.64859
 30
0.0
 11
45.4078
 21
2.23104
 31
0.0
  0
LINE
  8
0
 62
     0
 10
45.4078
 20
2.23104
 30
0.0
 11
45.0755
 21
1.89894
 31
0.0
  0
LINE
  8
0
 62
     0
 10
45.0755
 20
1.89894
 30
0.0
 11
44.6581
 21
1.68534
 31
0.0
  0
LINE
  8
0
 62
     0
 10
44.6581
 20
1.68534
 30
0.0
 11
44.1935
 21
1.6123
 31
0.0
  0
LINE
  8
0
 62
     0
 10
44.1935
 20
1.6123
 30
0.0
 11
43.7293
 21
1.68534
 31
0.0
  0
LINE
  8
0
 62
     0
 10
43.7293
 20
1.68534
 30
0.0
 11
43.3116
 21
1.89894
 31
0.0
  0
LINE
  8
0
 62
     0
 10
43.3116
 20
1.89894
 30
0.0
 11
42.9796
 21
2.23104
 31
0.0
  0
LINE
  8
0
 62
     0
 10
42.9796
 20
2.23104
 30
0.0
 11
42.7673
 21
2.64859
 31
0.0
  0
LINE
  8
0
 62
     0
 10
42.7673
 20
2.64859
 30
0.0
 11
42.6942
 21
3.11299
 31
0.0
  0
LINE
  8
0
 62
     0
 10
42.6942
 20
3.11299
 30
0.0
 11
42.7673
 21
3.57738
 31
0.0
  0
LINE
  8
0
 62
     0
 10
42.7673
 20
3.57738
 30
0.0
 11
42.9796
 21
3.99493
 31
0.0
  0
LINE
  8
0
 62
     0
 10
42.9796
 20
3.99493
 30
0.0
 11
43.3116
 21
4.32703
 31
0.0
  0
LINE
  8
0
 62
     0
 10
43.3116
 20
4.32703
 30
0.0
 11
43.7293
 21
4.53926
 31
0.0
  0
LINE
  8
0
 62
     0
 10
43.7293
 20
4.53926
 30
0.0
 11
44.1935
 21
4.61229
 31
0.0
  0
LINE
  8
0
 62
     0
 10
3.0937
 20
4.61229
 30
0.0
 11
3.55808
 21
4.53926
 31
0.0
  0
LINE
  8
0
 62
     0
 10
3.55808
 20
4.53926
 30
0.0
 11
3.97563
 21
4.32703
 31
0.0
  0
LINE
  8
0
 62
     0
 10
3.97563
 20
4.32703
 30
0.0
 11
4.30773
 21
3.99493
 31
0.0
  0
LINE
  8
0
 62
     0
 10
4.30773
 20
3.99493
 30
0.0
 11
4.52134
 21
3.57738
 31
0.0
  0
LINE
  8
0
 62
     0
 10
4.52134
 20
3.57738
 30
0.0
 11
4.59437
 21
3.11299
 31
0.0
  0
LINE
  8
0
 62
     0
 10
4.59437
 20
3.11299
 30
0.0
 11
4.52134
 21
2.64859
 31
0.0
  0
LINE
  8
0
 62
     0
 10
4.52134
 20
2.64859
 30
0.0
 11
4.30773
 21
2.23104
 31
0.0
  0
LINE
  8
0
 62
     0
 10
4.30773
 20
2.23104
 30
0.0
 11
3.97563
 21
1.89894
 31
0.0
  0
LINE
  8
0
 62
     0
 10
3.97563
 20
1.89894
 30
0.0
 11
3.55808
 21
1.68534
 31
0.0
  0
LINE
  8
0
 62
     0
 10
3.55808
 20
1.68534
 30
0.0
 11
3.0937
 21
1.6123
 31
0.0
  0
LINE
  8
0
 62
     0
 10
3.0937
 20
1.6123
 30
0.0
 11
2.6293
 21
1.68534
 31
0.0
  0
LINE
  8
0
 62
     0
 10
2.6293
 20
1.68534
 30
0.0
 11
2.21175
 21
1.89894
 31
0.0
  0
LINE
  8
0
 62
     0
 10
2.21175
 20
1.89894
 30
0.0
 11
1.87965
 21
2.23104
 31
0.0
  0
LINE
  8
0
 62
     0
 10
1.87965
 20
2.23104
 30
0.0
 11
1.66743
 21
2.64859
 31
0.0
  0
LINE
  8
0
 62
     0
 10
1.66743
 20
2.64859
 30
0.0
 11
1.59439
 21
3.11299
 31
0.0
  0
LINE
  8
0
 62
     0
 10
1.59439
 20
3.11299
 30
0.0
 11
1.66743
 21
3.57738
 31
0.0
  0
LINE
  8
0
 62
     0
 10
1.66743
 20
3.57738
 30
0.0
 11
1.87965
 21
3.99493
 31
0.0
  0
LINE
  8
0
 62
     0
 10
1.87965
 20
3.99493
 30
0.0
 11
2.21175
 21
4.32703
 31
0.0
  0
LINE
  8
0
 62
     0
 10
2.21175
 20
4.32703
 30
0.0
 11
2.6293
 21
4.53926
 31
0.0
  0
LINE
  8
0
 62
     0
 10
2.6293
 20
4.53926
 30
0.0
 11
3.0937
 21
4.61229
 31
0.0
  0
LINE
  8
0
 62
     0
 10
3.0937
 20
47.8882
 30
0.0
 11
3.55808
 21
47.8151
 31
0.0
  0
LINE
  8
0
 62
     0
 10
3.55808
 20
47.8151
 30
0.0
 11
3.97563
 21
47.6017
 31
0.0
  0
LINE
  8
0
 62
     0
 10
3.97563
 20
47.6017
 30
0.0
 11
4.30773
 21
47.2694
 31
0.0
  0
LINE
  8
0
 62
     0
 10
4.30773
 20
47.2694
 30
0.0
 11
4.52134
 21
46.8521
 31
0.0
  0
LINE
  8
0
 62
     0
 10
4.52134
 20
46.8521
 30
0.0
 11
4.59437
 21
46.3875
 31
0.0
  0
LINE
  8
0
 62
     0
 10
4.59437
 20
46.3875
 30
0.0
 11
4.52134
 21
45.9246
 31
0.0
  0
LINE
  8
0
 62
     0
 10
4.52134
 20
45.9246
 30
0.0
 11
4.30773
 21
45.5055
 31
0.0
  0
LINE
  8
0
 62
     0
 10
4.30773
 20
45.5055
 30
0.0
 11
3.97563
 21
45.1735
 31
0.0
  0
LINE
  8
0
 62
     0
 10
3.97563
 20
45.1735
 30
0.0
 11
3.55808
 21
44.9612
 31
0.0
  0
LINE
  8
0
 62
     0
 10
3.55808
 20
44.9612
 30
0.0
 11
3.0937
 21
44.8881
 31
0.0
  0
LINE
  8
0
 62
     0
 10
3.0937
 20
44.8881
 30
0.0
 11
2.6293
 21
44.9612
 31
0.0
  0
LINE
  8
0
 62
     0
 10
2.6293
 20
44.9612
 30
0.0
 11
2.21175
 21
45.1735
 31
0.0
  0
LINE
  8
0
 62
     0
 10
2.21175
 20
45.1735
 30
0.0
 11
1.87965
 21
45.5055
 31
0.0
  0
LINE
  8
0
 62
     0
 10
1.87965
 20
45.5055
 30
0.0
 11
1.66743
 21
45.9246
 31
0.0
  0
LINE
  8
0
 62
     0
 10
1.66743
 20
45.9246
 30
0.0
 11
1.59439
 21
46.3875
 31
0.0
  0
LINE
  8
0
 62
     0
 10
1.59439
 20
46.3875
 30
0.0
 11
1.66743
 21
46.8521
 31
0.0
  0
LINE
  8
0
 62
     0
 10
1.66743
 20
46.8521
 30
0.0
 11
1.87965
 21
47.2694
 31
0.0
  0
LINE
  8
0
 62
     0
 10
1.87965
 20
47.2694
 30
0.0
 11
2.21175
 21
47.6017
 31
0.0
  0
LINE
  8
0
 62
     0
 10
2.21175
 20
47.6017
 30
0.0
 11
2.6293
 21
47.8151
 31
0.0
  0
LINE
  8
0
 62
     0
 10
2.6293
 20
47.8151
 30
0.0
 11
3.0937
 21
47.8882
 31
0.0
  0
LINE
  8
0
 62
     0
 10
3.0937
 20
91.1627
 30
0.0
 11
3.55808
 21
91.0897
 31
0.0
  0
LINE
  8
0
 62
     0
 10
3.55808
 20
91.0897
 30
0.0
 11
3.97563
 21
90.8773
 31
0.0
  0
LINE
  8
0
 62
     0
 10
3.97563
 20
90.8773
 30
0.0
 11
4.30773
 21
90.5454
 31
0.0
  0
LINE
  8
0
 62
     0
 10
4.30773
 20
90.5454
 30
0.0
 11
4.52134
 21
90.1266
 31
0.0
  0
LINE
  8
0
 62
     0
 10
4.52134
 20
90.1266
 30
0.0
 11
4.59437
 21
89.6634
 31
0.0
  0
LINE
  8
0
 62
     0
 10
4.59437
 20
89.6634
 30
0.0
 11
4.52134
 21
89.1992
 31
0.0
  0
LINE
  8
0
 62
     0
 10
4.52134
 20
89.1992
 30
0.0
 11
4.30773
 21
88.7815
 31
0.0
  0
LINE
  8
0
 62
     0
 10
4.30773
 20
88.7815
 30
0.0
 11
3.97563
 21
88.4495
 31
0.0
  0
LINE
  8
0
 62
     0
 10
3.97563
 20
88.4495
 30
0.0
 11
3.55808
 21
88.2357
 31
0.0
  0
LINE
  8
0
 62
     0
 10
3.55808
 20
88.2357
 30
0.0
 11
3.0937
 21
88.1627
 31
0.0
  0
LINE
  8
0
 62
     0
 10
3.0937
 20
88.1627
 30
0.0
 11
2.6293
 21
88.2357
 31
0.0
  0
LINE
  8
0
 62
     0
 10
2.6293
 20
88.2357
 30
0.0
 11
2.21175
 21
88.4495
 31
0.0
  0
LINE
  8
0
 62
     0
 10
2.21175
 20
88.4495
 30
0.0
 11
1.87965
 21
88.7815
 31
0.0
  0
LINE
  8
0
 62
     0
 10
1.87965
 20
88.7815
 30
0.0
 11
1.66743
 21
89.1992
 31
0.0
  0
LINE
  8
0
 62
     0
 10
1.66743
 20
89.1992
 30
0.0
 11
1.59439
 21
89.6634
 31
0.0
  0
LINE
  8
0
 62
     0
 10
1.59439
 20
89.6634
 30
0.0
 11
1.66743
 21
90.1266
 31
0.0
  0
LINE
  8
0
 62
     0
 10
1.66743
 20
90.1266
 30
0.0
 11
1.87965
 21
90.5454
 31
0.0
  0
LINE
  8
0
 62
     0
 10
1.87965
 20
90.5454
 30
0.0
 11
2.21175
 21
90.8773
 31
0.0
  0
LINE
  8
0
 62
     0
 10
2.21175
 20
90.8773
 30
0.0
 11
2.6293
 21
91.0897
 31
0.0
  0
LINE
  8
0
 62
     0
 10
2.6293
 20
91.0897
 30
0.0
 11
3.0937
 21
91.1627
 31
0.0
  0
LINE
  8
0
 62
     0
 10
3.0937
 20
134.437
 30
0.0
 11
3.55808
 21
134.364
 31
0.0
  0
LINE
  8
0
 62
     0
 10
3.55808
 20
134.364
 30
0.0
 11
3.97563
 21
134.152
 31
0.0
  0
LINE
  8
0
 62
     0
 10
3.97563
 20
134.152
 30
0.0
 11
4.30773
 21
133.82
 31
0.0
  0
LINE
  8
0
 62
     0
 10
4.30773
 20
133.82
 30
0.0
 11
4.52134
 21
133.402
 31
0.0
  0
LINE
  8
0
 62
     0
 10
4.52134
 20
133.402
 30
0.0
 11
4.59437
 21
132.938
 31
0.0
  0
LINE
  8
0
 62
     0
 10
4.59437
 20
132.938
 30
0.0
 11
4.52134
 21
132.474
 31
0.0
  0
LINE
  8
0
 62
     0
 10
4.52134
 20
132.474
 30
0.0
 11
4.30773
 21
132.056
 31
0.0
  0
LINE
  8
0
 62
     0
 10
4.30773
 20
132.056
 30
0.0
 11
3.97563
 21
131.724
 31
0.0
  0
LINE
  8
0
 62
     0
 10
3.97563
 20
131.724
 30
0.0
 11
3.55808
 21
131.51
 31
0.0
  0
LINE
  8
0
 62
     0
 10
3.55808
 20
131.51
 30
0.0
 11
3.0937
 21
131.437
 31
0.0
  0
LINE
  8
0
 62
     0
 10
3.0937
 20
131.437
 30
0.0
 11
2.6293
 21
131.51
 31
0.0
  0
LINE
  8
0
 62
     0
 10
2.6293
 20
131.51
 30
0.0
 11
2.21175
 21
131.724
 31
0.0
  0
LINE
  8
0
 62
     0
 10
2.21175
 20
131.724
 30
0.0
 11
1.87965
 21
132.056
 31
0.0
  0
LINE
  8
0
 62
     0
 10
1.87965
 20
132.056
 30
0.0
 11
1.66743
 21
132.474
 31
0.0
  0
LINE
  8
0
 62
     0
 10
1.66743
 20
132.474
 30
0.0
 11
1.59439
 21
132.938
 31
0.0
  0
LINE
  8
0
 62
     0
 10
1.59439
 20
132.938
 30
0.0
 11
1.66743
 21
133.402
 31
0.0
  0
LINE
  8
0
 62
     0
 10
1.66743
 20
133.402
 30
0.0
 11
1.87965
 21
133.82
 31
0.0
  0
LINE
  8
0
 62
     0
 10
1.87965
 20
133.82
 30
0.0
 11
2.21175
 21
134.152
 31
0.0
  0
LINE
  8
0
 62
     0
 10
2.21175
 20
134.152
 30
0.0
 11
2.6293
 21
134.364
 31
0.0
  0
LINE
  8
0
 62
     0
 10
2.6293
 20
134.364
 30
0.0
 11
3.0937
 21
134.437
 31
0.0
  0
LINE
  8
0
 62
     0
 10
22.6191
 20
114.014
 30
0.0
 11
22.6191
 21
113.412
 31
0.0
  0
LINE
  8
0
 62
     0
 10
22.6191
 20
113.412
 30
0.0
 11
8.61826
 21
113.412
 31
0.0
  0
LINE
  8
0
 62
     0
 10
8.61826
 20
113.412
 30
0.0
 11
8.61826
 21
114.014
 31
0.0
  0
LINE
  8
0
 62
     0
 10
8.61826
 20
114.014
 30
0.0
 11
7.819
 21
114.014
 31
0.0
  0
LINE
  8
0
 62
     0
 10
7.819
 20
114.014
 30
0.0
 11
7.819
 21
126.813
 31
0.0
  0
LINE
  8
0
 62
     0
 10
7.819
 20
126.813
 30
0.0
 11
8.61826
 21
126.813
 31
0.0
  0
LINE
  8
0
 62
     0
 10
8.61826
 20
126.813
 30
0.0
 11
8.61826
 21
127.413
 31
0.0
  0
LINE
  8
0
 62
     0
 10
8.61826
 20
127.413
 30
0.0
 11
22.6191
 21
127.413
 31
0.0
  0
LINE
  8
0
 62
     0
 10
22.6191
 20
127.413
 30
0.0
 11
22.6191
 21
126.813
 31
0.0
  0
LINE
  8
0
 62
     0
 10
22.6191
 20
126.813
 30
0.0
 11
23.4184
 21
126.813
 31
0.0
  0
LINE
  8
0
 62
     0
 10
23.4184
 20
126.813
 30
0.0
 11
23.4184
 21
114.014
 31
0.0
  0
LINE
  8
0
 62
     0
 10
23.4184
 20
114.014
 30
0.0
 11
22.6191
 21
114.014
 31
0.0
  0
LINE
  8
0
 62
     0
 10
22.6191
 20
85.4385
 30
0.0
 11
22.6191
 21
84.8374
 31
0.0
  0
LINE
  8
0
 62
     0
 10
22.6191
 20
84.8374
 30
0.0
 11
8.61826
 21
84.8374
 31
0.0
  0
LINE
  8
0
 62
     0
 10
8.61826
 20
84.8374
 30
0.0
 11
8.61826
 21
85.4385
 31
0.0
  0
LINE
  8
0
 62
     0
 10
8.61826
 20
85.4385
 30
0.0
 11
7.819
 21
85.4385
 31
0.0
  0
LINE
  8
0
 62
     0
 10
7.819
 20
85.4385
 30
0.0
 11
7.819
 21
98.2377
 31
0.0
  0
LINE
  8
0
 62
     0
 10
7.819
 20
98.2377
 30
0.0
 11
8.61826
 21
98.2377
 31
0.0
  0
LINE
  8
0
 62
     0
 10
8.61826
 20
98.2377
 30
0.0
 11
8.61826
 21
98.8385
 31
0.0
  0
LINE
  8
0
 62
     0
 10
8.61826
 20
98.8385
 30
0.0
 11
22.6191
 21
98.8385
 31
0.0
  0
LINE
  8
0
 62
     0
 10
22.6191
 20
98.8385
 30
0.0
 11
22.6191
 21
98.2377
 31
0.0
  0
LINE
  8
0
 62
     0
 10
22.6191
 20
98.2377
 30
0.0
 11
23.4184
 21
98.2377
 31
0.0
  0
LINE
  8
0
 62
     0
 10
23.4184
 20
98.2377
 30
0.0
 11
23.4184
 21
85.4385
 31
0.0
  0
LINE
  8
0
 62
     0
 10
23.4184
 20
85.4385
 30
0.0
 11
22.6191
 21
85.4385
 31
0.0
  0
LINE
  8
0
 62
     0
 10
22.6191
 20
66.3885
 30
0.0
 11
22.6191
 21
65.7874
 31
0.0
  0
LINE
  8
0
 62
     0
 10
22.6191
 20
65.7874
 30
0.0
 11
8.61826
 21
65.7874
 31
0.0
  0
LINE
  8
0
 62
     0
 10
8.61826
 20
65.7874
 30
0.0
 11
8.61826
 21
66.3885
 31
0.0
  0
LINE
  8
0
 62
     0
 10
8.61826
 20
66.3885
 30
0.0
 11
7.819
 21
66.3885
 31
0.0
  0
LINE
  8
0
 62
     0
 10
7.819
 20
66.3885
 30
0.0
 11
7.819
 21
79.1877
 31
0.0
  0
LINE
  8
0
 62
     0
 10
7.819
 20
79.1877
 30
0.0
 11
8.61826
 21
79.1877
 31
0.0
  0
LINE
  8
0
 62
     0
 10
8.61826
 20
79.1877
 30
0.0
 11
8.61826
 21
79.7885
 31
0.0
  0
LINE
  8
0
 62
     0
 10
8.61826
 20
79.7885
 30
0.0
 11
22.6191
 21
79.7885
 31
0.0
  0
LINE
  8
0
 62
     0
 10
22.6191
 20
79.7885
 30
0.0
 11
22.6191
 21
79.1877
 31
0.0
  0
LINE
  8
0
 62
     0
 10
22.6191
 20
79.1877
 30
0.0
 11
23.4184
 21
79.1877
 31
0.0
  0
LINE
  8
0
 62
     0
 10
23.4184
 20
79.1877
 30
0.0
 11
23.4184
 21
66.3885
 31
0.0
  0
LINE
  8
0
 62
     0
 10
23.4184
 20
66.3885
 30
0.0
 11
22.6191
 21
66.3885
 31
0.0
  0
LINE
  8
0
 62
     0
 10
22.6191
 20
47.3385
 30
0.0
 11
22.6191
 21
46.7374
 31
0.0
  0
LINE
  8
0
 62
     0
 10
22.6191
 20
46.7374
 30
0.0
 11
8.61826
 21
46.7374
 31
0.0
  0
LINE
  8
0
 62
     0
 10
8.61826
 20
46.7374
 30
0.0
 11
8.61826
 21
47.3385
 31
0.0
  0
LINE
  8
0
 62
     0
 10
8.61826
 20
47.3385
 30
0.0
 11
7.819
 21
47.3385
 31
0.0
  0
LINE
  8
0
 62
     0
 10
7.819
 20
47.3385
 30
0.0
 11
7.819
 21
60.1377
 31
0.0
  0
LINE
  8
0
 62
     0
 10
7.819
 20
60.1377
 30
0.0
 11
8.61826
 21
60.1377
 31
0.0
  0
LINE
  8
0
 62
     0
 10
8.61826
 20
60.1377
 30
0.0
 11
8.61826
 21
60.7385
 31
0.0
  0
LINE
  8
0
 62
     0
 10
8.61826
 20
60.7385
 30
0.0
 11
22.6191
 21
60.7385
 31
0.0
  0
LINE
  8
0
 62
     0
 10
22.6191
 20
60.7385
 30
0.0
 11
22.6191
 21
60.1377
 31
0.0
  0
LINE
  8
0
 62
     0
 10
22.6191
 20
60.1377
 30
0.0
 11
23.4184
 21
60.1377
 31
0.0
  0
LINE
  8
0
 62
     0
 10
23.4184
 20
60.1377
 30
0.0
 11
23.4184
 21
47.3385
 31
0.0
  0
LINE
  8
0
 62
     0
 10
23.4184
 20
47.3385
 30
0.0
 11
22.6191
 21
47.3385
 31
0.0
  0
LINE
  8
0
 62
     0
 10
22.6191
 20
28.2884
 30
0.0
 11
22.6191
 21
27.6876
 31
0.0
  0
LINE
  8
0
 62
     0
 10
22.6191
 20
27.6876
 30
0.0
 11
8.61826
 21
27.6876
 31
0.0
  0
LINE
  8
0
 62
     0
 10
8.61826
 20
27.6876
 30
0.0
 11
8.61826
 21
28.2884
 31
0.0
  0
LINE
  8
0
 62
     0
 10
8.61826
 20
28.2884
 30
0.0
 11
7.819
 21
28.2884
 31
0.0
  0
LINE
  8
0
 62
     0
 10
7.819
 20
28.2884
 30
0.0
 11
7.819
 21
41.0877
 31
0.0
  0
LINE
  8
0
 62
     0
 10
7.819
 20
41.0877
 30
0.0
 11
8.61826
 21
41.0877
 31
0.0
  0
LINE
  8
0
 62
     0
 10
8.61826
 20
41.0877
 30
0.0
 11
8.61826
 21
41.6885
 31
0.0
  0
LINE
  8
0
 62
     0
 10
8.61826
 20
41.6885
 30
0.0
 11
22.6191
 21
41.6885
 31
0.0
  0
LINE
  8
0
 62
     0
 10
22.6191
 20
41.6885
 30
0.0
 11
22.6191
 21
41.0877
 31
0.0
  0
LINE
  8
0
 62
     0
 10
22.6191
 20
41.0877
 30
0.0
 11
23.4184
 21
41.0877
 31
0.0
  0
LINE
  8
0
 62
     0
 10
23.4184
 20
41.0877
 30
0.0
 11
23.4184
 21
28.2884
 31
0.0
  0
LINE
  8
0
 62
     0
 10
23.4184
 20
28.2884
 30
0.0
 11
22.6191
 21
28.2884
 31
0.0
  0
LINE
  8
0
 62
     0
 10
40.3684
 20
15.1378
 30
0.0
 11
40.3684
 21
8.86767
 31
0.0
  0
LINE
  8
0
 62
     0
 10
40.3684
 20
8.86767
 30
0.0
 11
38.7435
 21
8.86767
 31
0.0
  0
LINE
  8
0
 62
     0
 10
38.7435
 20
8.86767
 30
0.0
 11
38.7435
 21
7.8879
 31
0.0
  0
LINE
  8
0
 62
     0
 10
38.7435
 20
7.8879
 30
0.0
 11
35.4432
 21
7.8879
 31
0.0
  0
LINE
  8
0
 62
     0
 10
35.4432
 20
7.8879
 30
0.0
 11
35.4432
 21
8.86767
 31
0.0
  0
LINE
  8
0
 62
     0
 10
35.4432
 20
8.86767
 30
0.0
 11
33.7192
 21
8.86767
 31
0.0
  0
LINE
  8
0
 62
     0
 10
33.7192
 20
8.86767
 30
0.0
 11
33.7192
 21
9.66833
 31
0.0
  0
LINE
  8
0
 62
     0
 10
33.7192
 20
9.66833
 30
0.0
 11
32.9434
 21
9.66833
 31
0.0
  0
LINE
  8
0
 62
     0
 10
32.9434
 20
9.66833
 30
0.0
 11
32.9434
 21
9.23837
 31
0.0
  0
LINE
  8
0
 62
     0
 10
32.9434
 20
9.23837
 30
0.0
 11
32.1441
 21
9.23837
 31
0.0
  0
LINE
  8
0
 62
     0
 10
32.1441
 20
9.23837
 30
0.0
 11
32.1441
 21
8.63755
 31
0.0
  0
LINE
  8
0
 62
     0
 10
32.1441
 20
8.63755
 30
0.0
 11
18.1433
 21
8.63755
 31
0.0
  0
LINE
  8
0
 62
     0
 10
18.1433
 20
8.63755
 30
0.0
 11
18.1433
 21
9.23837
 31
0.0
  0
LINE
  8
0
 62
     0
 10
18.1433
 20
9.23837
 30
0.0
 11
17.344
 21
9.23837
 31
0.0
  0
LINE
  8
0
 62
     0
 10
17.344
 20
9.23837
 30
0.0
 11
17.344
 21
9.66833
 31
0.0
  0
LINE
  8
0
 62
     0
 10
17.344
 20
9.66833
 30
0.0
 11
16.5681
 21
9.66833
 31
0.0
  0
LINE
  8
0
 62
     0
 10
16.5681
 20
9.66833
 30
0.0
 11
16.5681
 21
8.86767
 31
0.0
  0
LINE
  8
0
 62
     0
 10
16.5681
 20
8.86767
 30
0.0
 11
14.8442
 21
8.86767
 31
0.0
  0
LINE
  8
0
 62
     0
 10
14.8442
 20
8.86767
 30
0.0
 11
14.8442
 21
7.8879
 31
0.0
  0
LINE
  8
0
 62
     0
 10
14.8442
 20
7.8879
 30
0.0
 11
11.5438
 21
7.8879
 31
0.0
  0
LINE
  8
0
 62
     0
 10
11.5438
 20
7.8879
 30
0.0
 11
11.5438
 21
8.86767
 31
0.0
  0
LINE
  8
0
 62
     0
 10
11.5438
 20
8.86767
 30
0.0
 11
9.91912
 21
8.86767
 31
0.0
  0
LINE
  8
0
 62
     0
 10
9.91912
 20
8.86767
 30
0.0
 11
9.91912
 21
15.1378
 31
0.0
  0
LINE
  8
0
 62
     0
 10
9.91912
 20
15.1378
 30
0.0
 11
9.04406
 21
15.1378
 31
0.0
  0
LINE
  8
0
 62
     0
 10
9.04406
 20
15.1378
 30
0.0
 11
9.04406
 21
17.9379
 31
0.0
  0
LINE
  8
0
 62
     0
 10
9.04406
 20
17.9379
 30
0.0
 11
9.91912
 21
17.9379
 31
0.0
  0
LINE
  8
0
 62
     0
 10
9.91912
 20
17.9379
 30
0.0
 11
9.91912
 21
21.168
 31
0.0
  0
LINE
  8
0
 62
     0
 10
9.91912
 20
21.168
 30
0.0
 11
11.5438
 21
21.168
 31
0.0
  0
LINE
  8
0
 62
     0
 10
11.5438
 20
21.168
 30
0.0
 11
11.5438
 21
22.0886
 31
0.0
  0
LINE
  8
0
 62
     0
 10
11.5438
 20
22.0886
 30
0.0
 11
14.8442
 21
22.0886
 31
0.0
  0
LINE
  8
0
 62
     0
 10
14.8442
 20
22.0886
 30
0.0
 11
14.8442
 21
21.168
 31
0.0
  0
LINE
  8
0
 62
     0
 10
14.8442
 20
21.168
 30
0.0
 11
16.5681
 21
21.168
 31
0.0
  0
LINE
  8
0
 62
     0
 10
16.5681
 20
21.168
 30
0.0
 11
16.5681
 21
20.3674
 31
0.0
  0
LINE
  8
0
 62
     0
 10
16.5681
 20
20.3674
 30
0.0
 11
17.344
 21
20.3674
 31
0.0
  0
LINE
  8
0
 62
     0
 10
17.344
 20
20.3674
 30
0.0
 11
17.344
 21
22.0376
 31
0.0
  0
LINE
  8
0
 62
     0
 10
17.344
 20
22.0376
 30
0.0
 11
18.1433
 21
22.0376
 31
0.0
  0
LINE
  8
0
 62
     0
 10
18.1433
 20
22.0376
 30
0.0
 11
18.1433
 21
22.6384
 31
0.0
  0
LINE
  8
0
 62
     0
 10
18.1433
 20
22.6384
 30
0.0
 11
32.1441
 21
22.6384
 31
0.0
  0
LINE
  8
0
 62
     0
 10
32.1441
 20
22.6384
 30
0.0
 11
32.1441
 21
22.0376
 31
0.0
  0
LINE
  8
0
 62
     0
 10
32.1441
 20
22.0376
 30
0.0
 11
32.9434
 21
22.0376
 31
0.0
  0
LINE
  8
0
 62
     0
 10
32.9434
 20
22.0376
 30
0.0
 11
32.9434
 21
20.3674
 31
0.0
  0
LINE
  8
0
 62
     0
 10
32.9434
 20
20.3674
 30
0.0
 11
33.7192
 21
20.3674
 31
0.0
  0
LINE
  8
0
 62
     0
 10
33.7192
 20
20.3674
 30
0.0
 11
33.7192
 21
21.168
 31
0.0
  0
LINE
  8
0
 62
     0
 10
33.7192
 20
21.168
 30
0.0
 11
35.4432
 21
21.168
 31
0.0
  0
LINE
  8
0
 62
     0
 10
35.4432
 20
21.168
 30
0.0
 11
35.4432
 21
22.0886
 31
0.0
  0
LINE
  8
0
 62
     0
 10
35.4432
 20
22.0886
 30
0.0
 11
38.7435
 21
22.0886
 31
0.0
  0
LINE
  8
0
 62
     0
 10
38.7435
 20
22.0886
 30
0.0
 11
38.7435
 21
21.168
 31
0.0
  0
LINE
  8
0
 62
     0
 10
38.7435
 20
21.168
 30
0.0
 11
40.3684
 21
21.168
 31
0.0
  0
LINE
  8
0
 62
     0
 10
40.3684
 20
21.168
 30
0.0
 11
40.3684
 21
17.9379
 31
0.0
  0
LINE
  8
0
 62
     0
 10
40.3684
 20
17.9379
 30
0.0
 11
41.2433
 21
17.9379
 31
0.0
  0
LINE
  8
0
 62
     0
 10
41.2433
 20
17.9379
 30
0.0
 11
41.2433
 21
15.1378
 31
0.0
  0
LINE
  8
0
 62
     0
 10
41.2433
 20
15.1378
 30
0.0
 11
40.3684
 21
15.1378
 31
0.0
  0
LINE
  8
0
 62
     0
 10
41.6691
 20
114.014
 30
0.0
 11
41.6691
 21
113.412
 31
0.0
  0
LINE
  8
0
 62
     0
 10
41.6691
 20
113.412
 30
0.0
 11
27.6683
 21
113.412
 31
0.0
  0
LINE
  8
0
 62
     0
 10
27.6683
 20
113.412
 30
0.0
 11
27.6683
 21
114.014
 31
0.0
  0
LINE
  8
0
 62
     0
 10
27.6683
 20
114.014
 30
0.0
 11
26.869
 21
114.014
 31
0.0
  0
LINE
  8
0
 62
     0
 10
26.869
 20
114.014
 30
0.0
 11
26.869
 21
126.813
 31
0.0
  0
LINE
  8
0
 62
     0
 10
26.869
 20
126.813
 30
0.0
 11
27.6683
 21
126.813
 31
0.0
  0
LINE
  8
0
 62
     0
 10
27.6683
 20
126.813
 30
0.0
 11
27.6683
 21
127.413
 31
0.0
  0
LINE
  8
0
 62
     0
 10
27.6683
 20
127.413
 30
0.0
 11
41.6691
 21
127.413
 31
0.0
  0
LINE
  8
0
 62
     0
 10
41.6691
 20
127.413
 30
0.0
 11
41.6691
 21
126.813
 31
0.0
  0
LINE
  8
0
 62
     0
 10
41.6691
 20
126.813
 30
0.0
 11
42.4684
 21
126.813
 31
0.0
  0
LINE
  8
0
 62
     0
 10
42.4684
 20
126.813
 30
0.0
 11
42.4684
 21
114.014
 31
0.0
  0
LINE
  8
0
 62
     0
 10
42.4684
 20
114.014
 30
0.0
 11
41.6691
 21
114.014
 31
0.0
  0
LINE
  8
0
 62
     0
 10
41.6691
 20
85.4385
 30
0.0
 11
41.6691
 21
84.8374
 31
0.0
  0
LINE
  8
0
 62
     0
 10
41.6691
 20
84.8374
 30
0.0
 11
27.6683
 21
84.8374
 31
0.0
  0
LINE
  8
0
 62
     0
 10
27.6683
 20
84.8374
 30
0.0
 11
27.6683
 21
85.4385
 31
0.0
  0
LINE
  8
0
 62
     0
 10
27.6683
 20
85.4385
 30
0.0
 11
26.869
 21
85.4385
 31
0.0
  0
LINE
  8
0
 62
     0
 10
26.869
 20
85.4385
 30
0.0
 11
26.869
 21
98.2377
 31
0.0
  0
LINE
  8
0
 62
     0
 10
26.869
 20
98.2377
 30
0.0
 11
27.6683
 21
98.2377
 31
0.0
  0
LINE
  8
0
 62
     0
 10
27.6683
 20
98.2377
 30
0.0
 11
27.6683
 21
98.8385
 31
0.0
  0
LINE
  8
0
 62
     0
 10
27.6683
 20
98.8385
 30
0.0
 11
41.6691
 21
98.8385
 31
0.0
  0
LINE
  8
0
 62
     0
 10
41.6691
 20
98.8385
 30
0.0
 11
41.6691
 21
98.2377
 31
0.0
  0
LINE
  8
0
 62
     0
 10
41.6691
 20
98.2377
 30
0.0
 11
42.4684
 21
98.2377
 31
0.0
  0
LINE
  8
0
 62
     0
 10
42.4684
 20
98.2377
 30
0.0
 11
42.4684
 21
85.4385
 31
0.0
  0
LINE
  8
0
 62
     0
 10
42.4684
 20
85.4385
 30
0.0
 11
41.6691
 21
85.4385
 31
0.0
  0
LINE
  8
0
 62
     0
 10
41.6691
 20
66.3885
 30
0.0
 11
41.6691
 21
65.7874
 31
0.0
  0
LINE
  8
0
 62
     0
 10
41.6691
 20
65.7874
 30
0.0
 11
27.6683
 21
65.7874
 31
0.0
  0
LINE
  8
0
 62
     0
 10
27.6683
 20
65.7874
 30
0.0
 11
27.6683
 21
66.3885
 31
0.0
  0
LINE
  8
0
 62
     0
 10
27.6683
 20
66.3885
 30
0.0
 11
26.869
 21
66.3885
 31
0.0
  0
LINE
  8
0
 62
     0
 10
26.869
 20
66.3885
 30
0.0
 11
26.869
 21
79.1877
 31
0.0
  0
LINE
  8
0
 62
     0
 10
26.869
 20
79.1877
 30
0.0
 11
27.6683
 21
79.1877
 31
0.0
  0
LINE
  8
0
 62
     0
 10
27.6683
 20
79.1877
 30
0.0
 11
27.6683
 21
79.7885
 31
0.0
  0
LINE
  8
0
 62
     0
 10
27.6683
 20
79.7885
 30
0.0
 11
41.6691
 21
79.7885
 31
0.0
  0
LINE
  8
0
 62
     0
 10
41.6691
 20
79.7885
 30
0.0
 11
41.6691
 21
79.1877
 31
0.0
  0
LINE
  8
0
 62
     0
 10
41.6691
 20
79.1877
 30
0.0
 11
42.4684
 21
79.1877
 31
0.0
  0
LINE
  8
0
 62
     0
 10
42.4684
 20
79.1877
 30
0.0
 11
42.4684
 21
66.3885
 31
0.0
  0
LINE
  8
0
 62
     0
 10
42.4684
 20
66.3885
 30
0.0
 11
41.6691
 21
66.3885
 31
0.0
  0
LINE
  8
0
 62
     0
 10
41.6691
 20
47.3385
 30
0.0
 11
41.6691
 21
46.7374
 31
0.0
  0
LINE
  8
0
 62
     0
 10
41.6691
 20
46.7374
 30
0.0
 11
27.6683
 21
46.7374
 31
0.0
  0
LINE
  8
0
 62
     0
 10
27.6683
 20
46.7374
 30
0.0
 11
27.6683
 21
47.3385
 31
0.0
  0
LINE
  8
0
 62
     0
 10
27.6683
 20
47.3385
 30
0.0
 11
26.869
 21
47.3385
 31
0.0
  0
LINE
  8
0
 62
     0
 10
26.869
 20
47.3385
 30
0.0
 11
26.869
 21
60.1377
 31
0.0
  0
LINE
  8
0
 62
     0
 10
26.869
 20
60.1377
 30
0.0
 11
27.6683
 21
60.1377
 31
0.0
  0
LINE
  8
0
 62
     0
 10
27.6683
 20
60.1377
 30
0.0
 11
27.6683
 21
60.7385
 31
0.0
  0
LINE
  8
0
 62
     0
 10
27.6683
 20
60.7385
 30
0.0
 11
41.6691
 21
60.7385
 31
0.0
  0
LINE
  8
0
 62
     0
 10
41.6691
 20
60.7385
 30
0.0
 11
41.6691
 21
60.1377
 31
0.0
  0
LINE
  8
0
 62
     0
 10
41.6691
 20
60.1377
 30
0.0
 11
42.4684
 21
60.1377
 31
0.0
  0
LINE
  8
0
 62
     0
 10
42.4684
 20
60.1377
 30
0.0
 11
42.4684
 21
47.3385
 31
0.0
  0
LINE
  8
0
 62
     0
 10
42.4684
 20
47.3385
 30
0.0
 11
41.6691
 21
47.3385
 31
0.0
  0
LINE
  8
0
 62
     0
 10
41.6691
 20
28.2884
 30
0.0
 11
41.6691
 21
27.6876
 31
0.0
  0
LINE
  8
0
 62
     0
 10
41.6691
 20
27.6876
 30
0.0
 11
27.6683
 21
27.6876
 31
0.0
  0
LINE
  8
0
 62
     0
 10
27.6683
 20
27.6876
 30
0.0
 11
27.6683
 21
28.2884
 31
0.0
  0
LINE
  8
0
 62
     0
 10
27.6683
 20
28.2884
 30
0.0
 11
26.869
 21
28.2884
 31
0.0
  0
LINE
  8
0
 62
     0
 10
26.869
 20
28.2884
 30
0.0
 11
26.869
 21
41.0877
 31
0.0
  0
LINE
  8
0
 62
     0
 10
26.869
 20
41.0877
 30
0.0
 11
27.6683
 21
41.0877
 31
0.0
  0
LINE
  8
0
 62
     0
 10
27.6683
 20
41.0877
 30
0.0
 11
27.6683
 21
41.6885
 31
0.0
  0
LINE
  8
0
 62
     0
 10
27.6683
 20
41.6885
 30
0.0
 11
41.6691
 21
41.6885
 31
0.0
  0
LINE
  8
0
 62
     0
 10
41.6691
 20
41.6885
 30
0.0
 11
41.6691
 21
41.0877
 31
0.0
  0
LINE
  8
0
 62
     0
 10
41.6691
 20
41.0877
 30
0.0
 11
42.4684
 21
41.0877
 31
0.0
  0
LINE
  8
0
 62
     0
 10
42.4684
 20
41.0877
 30
0.0
 11
42.4684
 21
28.2884
 31
0.0
  0
LINE
  8
0
 62
     0
 10
42.4684
 20
28.2884
 30
0.0
 11
41.6691
 21
28.2884
 31
0.0
  0
LINE
  8
0
 62
     0
 10
60.7191
 20
114.014
 30
0.0
 11
60.7191
 21
113.412
 31
0.0
  0
LINE
  8
0
 62
     0
 10
60.7191
 20
113.412
 30
0.0
 11
46.7184
 21
113.412
 31
0.0
  0
LINE
  8
0
 62
     0
 10
46.7184
 20
113.412
 30
0.0
 11
46.7184
 21
114.014
 31
0.0
  0
LINE
  8
0
 62
     0
 10
46.7184
 20
114.014
 30
0.0
 11
45.919
 21
114.014
 31
0.0
  0
LINE
  8
0
 62
     0
 10
45.919
 20
114.014
 30
0.0
 11
45.919
 21
126.813
 31
0.0
  0
LINE
  8
0
 62
     0
 10
45.919
 20
126.813
 30
0.0
 11
46.7184
 21
126.813
 31
0.0
  0
LINE
  8
0
 62
     0
 10
46.7184
 20
126.813
 30
0.0
 11
46.7184
 21
127.413
 31
0.0
  0
LINE
  8
0
 62
     0
 10
46.7184
 20
127.413
 30
0.0
 11
60.7191
 21
127.413
 31
0.0
  0
LINE
  8
0
 62
     0
 10
60.7191
 20
127.413
 30
0.0
 11
60.7191
 21
126.813
 31
0.0
  0
LINE
  8
0
 62
     0
 10
60.7191
 20
126.813
 30
0.0
 11
61.5184
 21
126.813
 31
0.0
  0
LINE
  8
0
 62
     0
 10
61.5184
 20
126.813
 30
0.0
 11
61.5184
 21
114.014
 31
0.0
  0
LINE
  8
0
 62
     0
 10
61.5184
 20
114.014
 30
0.0
 11
60.7191
 21
114.014
 31
0.0
  0
LINE
  8
0
 62
     0
 10
60.7191
 20
85.4385
 30
0.0
 11
60.7191
 21
84.8374
 31
0.0
  0
LINE
  8
0
 62
     0
 10
60.7191
 20
84.8374
 30
0.0
 11
46.7184
 21
84.8374
 31
0.0
  0
LINE
  8
0
 62
     0
 10
46.7184
 20
84.8374
 30
0.0
 11
46.7184
 21
85.4385
 31
0.0
  0
LINE
  8
0
 62
     0
 10
46.7184
 20
85.4385
 30
0.0
 11
45.919
 21
85.4385
 31
0.0
  0
LINE
  8
0
 62
     0
 10
45.919
 20
85.4385
 30
0.0
 11
45.919
 21
98.2377
 31
0.0
  0
LINE
  8
0
 62
     0
 10
45.919
 20
98.2377
 30
0.0
 11
46.7184
 21
98.2377
 31
0.0
  0
LINE
  8
0
 62
     0
 10
46.7184
 20
98.2377
 30
0.0
 11
46.7184
 21
98.8385
 31
0.0
  0
LINE
  8
0
 62
     0
 10
46.7184
 20
98.8385
 30
0.0
 11
60.7191
 21
98.8385
 31
0.0
  0
LINE
  8
0
 62
     0
 10
60.7191
 20
98.8385
 30
0.0
 11
60.7191
 21
98.2377
 31
0.0
  0
LINE
  8
0
 62
     0
 10
60.7191
 20
98.2377
 30
0.0
 11
61.5184
 21
98.2377
 31
0.0
  0
LINE
  8
0
 62
     0
 10
61.5184
 20
98.2377
 30
0.0
 11
61.5184
 21
85.4385
 31
0.0
  0
LINE
  8
0
 62
     0
 10
61.5184
 20
85.4385
 30
0.0
 11
60.7191
 21
85.4385
 31
0.0
  0
LINE
  8
0
 62
     0
 10
60.7191
 20
66.3885
 30
0.0
 11
60.7191
 21
65.7874
 31
0.0
  0
LINE
  8
0
 62
     0
 10
60.7191
 20
65.7874
 30
0.0
 11
46.7184
 21
65.7874
 31
0.0
  0
LINE
  8
0
 62
     0
 10
46.7184
 20
65.7874
 30
0.0
 11
46.7184
 21
66.3885
 31
0.0
  0
LINE
  8
0
 62
     0
 10
46.7184
 20
66.3885
 30
0.0
 11
45.919
 21
66.3885
 31
0.0
  0
LINE
  8
0
 62
     0
 10
45.919
 20
66.3885
 30
0.0
 11
45.919
 21
79.1877
 31
0.0
  0
LINE
  8
0
 62
     0
 10
45.919
 20
79.1877
 30
0.0
 11
46.7184
 21
79.1877
 31
0.0
  0
LINE
  8
0
 62
     0
 10
46.7184
 20
79.1877
 30
0.0
 11
46.7184
 21
79.7885
 31
0.0
  0
LINE
  8
0
 62
     0
 10
46.7184
 20
79.7885
 30
0.0
 11
60.7191
 21
79.7885
 31
0.0
  0
LINE
  8
0
 62
     0
 10
60.7191
 20
79.7885
 30
0.0
 11
60.7191
 21
79.1877
 31
0.0
  0
LINE
  8
0
 62
     0
 10
60.7191
 20
79.1877
 30
0.0
 11
61.5184
 21
79.1877
 31
0.0
  0
LINE
  8
0
 62
     0
 10
61.5184
 20
79.1877
 30
0.0
 11
61.5184
 21
66.3885
 31
0.0
  0
LINE
  8
0
 62
     0
 10
61.5184
 20
66.3885
 30
0.0
 11
60.7191
 21
66.3885
 31
0.0
  0
LINE
  8
0
 62
     0
 10
60.7191
 20
47.3385
 30
0.0
 11
60.7191
 21
46.7374
 31
0.0
  0
LINE
  8
0
 62
     0
 10
60.7191
 20
46.7374
 30
0.0
 11
46.7184
 21
46.7374
 31
0.0
  0
LINE
  8
0
 62
     0
 10
46.7184
 20
46.7374
 30
0.0
 11
46.7184
 21
47.3385
 31
0.0
  0
LINE
  8
0
 62
     0
 10
46.7184
 20
47.3385
 30
0.0
 11
45.919
 21
47.3385
 31
0.0
  0
LINE
  8
0
 62
     0
 10
45.919
 20
47.3385
 30
0.0
 11
45.919
 21
60.1377
 31
0.0
  0
LINE
  8
0
 62
     0
 10
45.919
 20
60.1377
 30
0.0
 11
46.7184
 21
60.1377
 31
0.0
  0
LINE
  8
0
 62
     0
 10
46.7184
 20
60.1377
 30
0.0
 11
46.7184
 21
60.7385
 31
0.0
  0
LINE
  8
0
 62
     0
 10
46.7184
 20
60.7385
 30
0.0
 11
60.7191
 21
60.7385
 31
0.0
  0
LINE
  8
0
 62
     0
 10
60.7191
 20
60.7385
 30
0.0
 11
60.7191
 21
60.1377
 31
0.0
  0
LINE
  8
0
 62
     0
 10
60.7191
 20
60.1377
 30
0.0
 11
61.5184
 21
60.1377
 31
0.0
  0
LINE
  8
0
 62
     0
 10
61.5184
 20
60.1377
 30
0.0
 11
61.5184
 21
47.3385
 31
0.0
  0
LINE
  8
0
 62
     0
 10
61.5184
 20
47.3385
 30
0.0
 11
60.7191
 21
47.3385
 31
0.0
  0
LINE
  8
0
 62
     0
 10
60.7191
 20
28.2884
 30
0.0
 11
60.7191
 21
27.6876
 31
0.0
  0
LINE
  8
0
 62
     0
 10
60.7191
 20
27.6876
 30
0.0
 11
46.7184
 21
27.6876
 31
0.0
  0
LINE
  8
0
 62
     0
 10
46.7184
 20
27.6876
 30
0.0
 11
46.7184
 21
28.2884
 31
0.0
  0
LINE
  8
0
 62
     0
 10
46.7184
 20
28.2884
 30
0.0
 11
45.919
 21
28.2884
 31
0.0
  0
LINE
  8
0
 62
     0
 10
45.919
 20
28.2884
 30
0.0
 11
45.919
 21
41.0877
 31
0.0
  0
LINE
  8
0
 62
     0
 10
45.919
 20
41.0877
 30
0.0
 11
46.7184
 21
41.0877
 31
0.0
  0
LINE
  8
0
 62
     0
 10
46.7184
 20
41.0877
 30
0.0
 11
46.7184
 21
41.6885
 31
0.0
  0
LINE
  8
0
 62
     0
 10
46.7184
 20
41.6885
 30
0.0
 11
60.7191
 21
41.6885
 31
0.0
  0
LINE
  8
0
 62
     0
 10
60.7191
 20
41.6885
 30
0.0
 11
60.7191
 21
41.0877
 31
0.0
  0
LINE
  8
0
 62
     0
 10
60.7191
 20
41.0877
 30
0.0
 11
61.5184
 21
41.0877
 31
0.0
  0
LINE
  8
0
 62
     0
 10
61.5184
 20
41.0877
 30
0.0
 11
61.5184
 21
28.2884
 31
0.0
  0
LINE
  8
0
 62
     0
 10
61.5184
 20
28.2884
 30
0.0
 11
60.7191
 21
28.2884
 31
0.0
  0
LINE
  8
0
 62
     0
 10
60.7191
 20
9.23837
 30
0.0
 11
60.7191
 21
8.63755
 31
0.0
  0
LINE
  8
0
 62
     0
 10
60.7191
 20
8.63755
 30
0.0
 11
46.7184
 21
8.63755
 31
0.0
  0
LINE
  8
0
 62
     0
 10
46.7184
 20
8.63755
 30
0.0
 11
46.7184
 21
9.23837
 31
0.0
  0
LINE
  8
0
 62
     0
 10
46.7184
 20
9.23837
 30
0.0
 11
45.919
 21
9.23837
 31
0.0
  0
LINE
  8
0
 62
     0
 10
45.919
 20
9.23837
 30
0.0
 11
45.919
 21
22.0376
 31
0.0
  0
LINE
  8
0
 62
     0
 10
45.919
 20
22.0376
 30
0.0
 11
46.7184
 21
22.0376
 31
0.0
  0
LINE
  8
0
 62
     0
 10
46.7184
 20
22.0376
 30
0.0
 11
46.7184
 21
22.6384
 31
0.0
  0
LINE
  8
0
 62
     0
 10
46.7184
 20
22.6384
 30
0.0
 11
60.7191
 21
22.6384
 31
0.0
  0
LINE
  8
0
 62
     0
 10
60.7191
 20
22.6384
 30
0.0
 11
60.7191
 21
22.0376
 31
0.0
  0
LINE
  8
0
 62
     0
 10
60.7191
 20
22.0376
 30
0.0
 11
61.5184
 21
22.0376
 31
0.0
  0
LINE
  8
0
 62
     0
 10
61.5184
 20
22.0376
 30
0.0
 11
61.5184
 21
9.23837
 31
0.0
  0
LINE
  8
0
 62
     0
 10
61.5184
 20
9.23837
 30
0.0
 11
60.7191
 21
9.23837
 31
0.0
  0
LINE
  8
0
 62
     0
 10
79.1683
 20
56.2624
 30
0.0
 11
79.1683
 21
55.4634
 31
0.0
  0
LINE
  8
0
 62
     0
 10
79.1683
 20
55.4634
 30
0.0
 11
77.4982
 21
55.4634
 31
0.0
  0
LINE
  8
0
 62
     0
 10
77.4982
 20
55.4634
 30
0.0
 11
77.4982
 21
54.6876
 31
0.0
  0
LINE
  8
0
 62
     0
 10
77.4982
 20
54.6876
 30
0.0
 11
78.2987
 21
54.6876
 31
0.0
  0
LINE
  8
0
 62
     0
 10
78.2987
 20
54.6876
 30
0.0
 11
78.2987
 21
52.9636
 31
0.0
  0
LINE
  8
0
 62
     0
 10
78.2987
 20
52.9636
 30
0.0
 11
79.2194
 21
52.9636
 31
0.0
  0
LINE
  8
0
 62
     0
 10
79.2194
 20
52.9636
 30
0.0
 11
79.2194
 21
49.663
 31
0.0
  0
LINE
  8
0
 62
     0
 10
79.2194
 20
49.663
 30
0.0
 11
78.2987
 21
49.663
 31
0.0
  0
LINE
  8
0
 62
     0
 10
78.2987
 20
49.663
 30
0.0
 11
78.2987
 21
48.0385
 31
0.0
  0
LINE
  8
0
 62
     0
 10
78.2987
 20
48.0385
 30
0.0
 11
75.0686
 21
48.0385
 31
0.0
  0
LINE
  8
0
 62
     0
 10
75.0686
 20
48.0385
 30
0.0
 11
75.0686
 21
47.1632
 31
0.0
  0
LINE
  8
0
 62
     0
 10
75.0686
 20
47.1632
 30
0.0
 11
72.2683
 21
47.1632
 31
0.0
  0
LINE
  8
0
 62
     0
 10
72.2683
 20
47.1632
 30
0.0
 11
72.2683
 21
48.0385
 31
0.0
  0
LINE
  8
0
 62
     0
 10
72.2683
 20
48.0385
 30
0.0
 11
65.9984
 21
48.0385
 31
0.0
  0
LINE
  8
0
 62
     0
 10
65.9984
 20
48.0385
 30
0.0
 11
65.9984
 21
49.663
 31
0.0
  0
LINE
  8
0
 62
     0
 10
65.9984
 20
49.663
 30
0.0
 11
65.0187
 21
49.663
 31
0.0
  0
LINE
  8
0
 62
     0
 10
65.0187
 20
49.663
 30
0.0
 11
65.0187
 21
52.9636
 31
0.0
  0
LINE
  8
0
 62
     0
 10
65.0187
 20
52.9636
 30
0.0
 11
65.9984
 21
52.9636
 31
0.0
  0
LINE
  8
0
 62
     0
 10
65.9984
 20
52.9636
 30
0.0
 11
65.9984
 21
54.6876
 31
0.0
  0
LINE
  8
0
 62
     0
 10
65.9984
 20
54.6876
 30
0.0
 11
66.7992
 21
54.6876
 31
0.0
  0
LINE
  8
0
 62
     0
 10
66.7992
 20
54.6876
 30
0.0
 11
66.7992
 21
55.4634
 31
0.0
  0
LINE
  8
0
 62
     0
 10
66.7992
 20
55.4634
 30
0.0
 11
66.3691
 21
55.4634
 31
0.0
  0
LINE
  8
0
 62
     0
 10
66.3691
 20
55.4634
 30
0.0
 11
66.3691
 21
56.2624
 31
0.0
  0
LINE
  8
0
 62
     0
 10
66.3691
 20
56.2624
 30
0.0
 11
65.7684
 21
56.2624
 31
0.0
  0
LINE
  8
0
 62
     0
 10
65.7684
 20
56.2624
 30
0.0
 11
65.7684
 21
70.2635
 31
0.0
  0
LINE
  8
0
 62
     0
 10
65.7684
 20
70.2635
 30
0.0
 11
66.3691
 21
70.2635
 31
0.0
  0
LINE
  8
0
 62
     0
 10
66.3691
 20
70.2635
 30
0.0
 11
66.3691
 21
71.0629
 31
0.0
  0
LINE
  8
0
 62
     0
 10
66.3691
 20
71.0629
 30
0.0
 11
66.7992
 21
71.0629
 31
0.0
  0
LINE
  8
0
 62
     0
 10
66.7992
 20
71.0629
 30
0.0
 11
66.7992
 21
71.8386
 31
0.0
  0
LINE
  8
0
 62
     0
 10
66.7992
 20
71.8386
 30
0.0
 11
65.9984
 21
71.8386
 31
0.0
  0
LINE
  8
0
 62
     0
 10
65.9984
 20
71.8386
 30
0.0
 11
65.9984
 21
73.5623
 31
0.0
  0
LINE
  8
0
 62
     0
 10
65.9984
 20
73.5623
 30
0.0
 11
65.0187
 21
73.5623
 31
0.0
  0
LINE
  8
0
 62
     0
 10
65.0187
 20
73.5623
 30
0.0
 11
65.0187
 21
76.8629
 31
0.0
  0
LINE
  8
0
 62
     0
 10
65.0187
 20
76.8629
 30
0.0
 11
65.9984
 21
76.8629
 31
0.0
  0
LINE
  8
0
 62
     0
 10
65.9984
 20
76.8629
 30
0.0
 11
65.9984
 21
78.4874
 31
0.0
  0
LINE
  8
0
 62
     0
 10
65.9984
 20
78.4874
 30
0.0
 11
72.2683
 21
78.4874
 31
0.0
  0
LINE
  8
0
 62
     0
 10
72.2683
 20
78.4874
 30
0.0
 11
72.2683
 21
79.3627
 31
0.0
  0
LINE
  8
0
 62
     0
 10
72.2683
 20
79.3627
 30
0.0
 11
75.0686
 21
79.3627
 31
0.0
  0
LINE
  8
0
 62
     0
 10
75.0686
 20
79.3627
 30
0.0
 11
75.0686
 21
78.4874
 31
0.0
  0
LINE
  8
0
 62
     0
 10
75.0686
 20
78.4874
 30
0.0
 11
78.2987
 21
78.4874
 31
0.0
  0
LINE
  8
0
 62
     0
 10
78.2987
 20
78.4874
 30
0.0
 11
78.2987
 21
76.8629
 31
0.0
  0
LINE
  8
0
 62
     0
 10
78.2987
 20
76.8629
 30
0.0
 11
79.2194
 21
76.8629
 31
0.0
  0
LINE
  8
0
 62
     0
 10
79.2194
 20
76.8629
 30
0.0
 11
79.2194
 21
73.5623
 31
0.0
  0
LINE
  8
0
 62
     0
 10
79.2194
 20
73.5623
 30
0.0
 11
78.2987
 21
73.5623
 31
0.0
  0
LINE
  8
0
 62
     0
 10
78.2987
 20
73.5623
 30
0.0
 11
78.2987
 21
71.8386
 31
0.0
  0
LINE
  8
0
 62
     0
 10
78.2987
 20
71.8386
 30
0.0
 11
77.4982
 21
71.8386
 31
0.0
  0
LINE
  8
0
 62
     0
 10
77.4982
 20
71.8386
 30
0.0
 11
77.4982
 21
71.0629
 31
0.0
  0
LINE
  8
0
 62
     0
 10
77.4982
 20
71.0629
 30
0.0
 11
79.1683
 21
71.0629
 31
0.0
  0
LINE
  8
0
 62
     0
 10
79.1683
 20
71.0629
 30
0.0
 11
79.1683
 21
70.2635
 31
0.0
  0
LINE
  8
0
 62
     0
 10
79.1683
 20
70.2635
 30
0.0
 11
79.7691
 21
70.2635
 31
0.0
  0
LINE
  8
0
 62
     0
 10
79.7691
 20
70.2635
 30
0.0
 11
79.7691
 21
56.2624
 31
0.0
  0
LINE
  8
0
 62
     0
 10
79.7691
 20
56.2624
 30
0.0
 11
79.1683
 21
56.2624
 31
0.0
  0
LINE
  8
0
 62
     0
 10
79.1683
 20
18.1626
 30
0.0
 11
79.1683
 21
17.3633
 31
0.0
  0
LINE
  8
0
 62
     0
 10
79.1683
 20
17.3633
 30
0.0
 11
77.4982
 21
17.3633
 31
0.0
  0
LINE
  8
0
 62
     0
 10
77.4982
 20
17.3633
 30
0.0
 11
77.4982
 21
16.5874
 31
0.0
  0
LINE
  8
0
 62
     0
 10
77.4982
 20
16.5874
 30
0.0
 11
78.2987
 21
16.5874
 31
0.0
  0
LINE
  8
0
 62
     0
 10
78.2987
 20
16.5874
 30
0.0
 11
78.2987
 21
14.8635
 31
0.0
  0
LINE
  8
0
 62
     0
 10
78.2987
 20
14.8635
 30
0.0
 11
79.2194
 21
14.8635
 31
0.0
  0
LINE
  8
0
 62
     0
 10
79.2194
 20
14.8635
 30
0.0
 11
79.2194
 21
11.5631
 31
0.0
  0
LINE
  8
0
 62
     0
 10
79.2194
 20
11.5631
 30
0.0
 11
78.2987
 21
11.5631
 31
0.0
  0
LINE
  8
0
 62
     0
 10
78.2987
 20
11.5631
 30
0.0
 11
78.2987
 21
9.93842
 31
0.0
  0
LINE
  8
0
 62
     0
 10
78.2987
 20
9.93842
 30
0.0
 11
75.0686
 21
9.93842
 31
0.0
  0
LINE
  8
0
 62
     0
 10
75.0686
 20
9.93842
 30
0.0
 11
75.0686
 21
9.06336
 31
0.0
  0
LINE
  8
0
 62
     0
 10
75.0686
 20
9.06336
 30
0.0
 11
72.2683
 21
9.06336
 31
0.0
  0
LINE
  8
0
 62
     0
 10
72.2683
 20
9.06336
 30
0.0
 11
72.2683
 21
9.93842
 31
0.0
  0
LINE
  8
0
 62
     0
 10
72.2683
 20
9.93842
 30
0.0
 11
65.9984
 21
9.93842
 31
0.0
  0
LINE
  8
0
 62
     0
 10
65.9984
 20
9.93842
 30
0.0
 11
65.9984
 21
11.5631
 31
0.0
  0
LINE
  8
0
 62
     0
 10
65.9984
 20
11.5631
 30
0.0
 11
65.0187
 21
11.5631
 31
0.0
  0
LINE
  8
0
 62
     0
 10
65.0187
 20
11.5631
 30
0.0
 11
65.0187
 21
14.8635
 31
0.0
  0
LINE
  8
0
 62
     0
 10
65.0187
 20
14.8635
 30
0.0
 11
65.9984
 21
14.8635
 31
0.0
  0
LINE
  8
0
 62
     0
 10
65.9984
 20
14.8635
 30
0.0
 11
65.9984
 21
16.5874
 31
0.0
  0
LINE
  8
0
 62
     0
 10
65.9984
 20
16.5874
 30
0.0
 11
66.7992
 21
16.5874
 31
0.0
  0
LINE
  8
0
 62
     0
 10
66.7992
 20
16.5874
 30
0.0
 11
66.7992
 21
17.3633
 31
0.0
  0
LINE
  8
0
 62
     0
 10
66.7992
 20
17.3633
 30
0.0
 11
66.3691
 21
17.3633
 31
0.0
  0
LINE
  8
0
 62
     0
 10
66.3691
 20
17.3633
 30
0.0
 11
66.3691
 21
18.1626
 31
0.0
  0
LINE
  8
0
 62
     0
 10
66.3691
 20
18.1626
 30
0.0
 11
65.7684
 21
18.1626
 31
0.0
  0
LINE
  8
0
 62
     0
 10
65.7684
 20
18.1626
 30
0.0
 11
65.7684
 21
32.1634
 31
0.0
  0
LINE
  8
0
 62
     0
 10
65.7684
 20
32.1634
 30
0.0
 11
66.3691
 21
32.1634
 31
0.0
  0
LINE
  8
0
 62
     0
 10
66.3691
 20
32.1634
 30
0.0
 11
66.3691
 21
32.9627
 31
0.0
  0
LINE
  8
0
 62
     0
 10
66.3691
 20
32.9627
 30
0.0
 11
66.7992
 21
32.9627
 31
0.0
  0
LINE
  8
0
 62
     0
 10
66.7992
 20
32.9627
 30
0.0
 11
66.7992
 21
33.7385
 31
0.0
  0
LINE
  8
0
 62
     0
 10
66.7992
 20
33.7385
 30
0.0
 11
65.9984
 21
33.7385
 31
0.0
  0
LINE
  8
0
 62
     0
 10
65.9984
 20
33.7385
 30
0.0
 11
65.9984
 21
35.4623
 31
0.0
  0
LINE
  8
0
 62
     0
 10
65.9984
 20
35.4623
 30
0.0
 11
65.0187
 21
35.4623
 31
0.0
  0
LINE
  8
0
 62
     0
 10
65.0187
 20
35.4623
 30
0.0
 11
65.0187
 21
38.7629
 31
0.0
  0
LINE
  8
0
 62
     0
 10
65.0187
 20
38.7629
 30
0.0
 11
65.9984
 21
38.7629
 31
0.0
  0
LINE
  8
0
 62
     0
 10
65.9984
 20
38.7629
 30
0.0
 11
65.9984
 21
40.3874
 31
0.0
  0
LINE
  8
0
 62
     0
 10
65.9984
 20
40.3874
 30
0.0
 11
72.2683
 21
40.3874
 31
0.0
  0
LINE
  8
0
 62
     0
 10
72.2683
 20
40.3874
 30
0.0
 11
72.2683
 21
41.2627
 31
0.0
  0
LINE
  8
0
 62
     0
 10
72.2683
 20
41.2627
 30
0.0
 11
75.0686
 21
41.2627
 31
0.0
  0
LINE
  8
0
 62
     0
 10
75.0686
 20
41.2627
 30
0.0
 11
75.0686
 21
40.3874
 31
0.0
  0
LINE
  8
0
 62
     0
 10
75.0686
 20
40.3874
 30
0.0
 11
78.2987
 21
40.3874
 31
0.0
  0
LINE
  8
0
 62
     0
 10
78.2987
 20
40.3874
 30
0.0
 11
78.2987
 21
38.7629
 31
0.0
  0
LINE
  8
0
 62
     0
 10
78.2987
 20
38.7629
 30
0.0
 11
79.2194
 21
38.7629
 31
0.0
  0
LINE
  8
0
 62
     0
 10
79.2194
 20
38.7629
 30
0.0
 11
79.2194
 21
35.4623
 31
0.0
  0
LINE
  8
0
 62
     0
 10
79.2194
 20
35.4623
 30
0.0
 11
78.2987
 21
35.4623
 31
0.0
  0
LINE
  8
0
 62
     0
 10
78.2987
 20
35.4623
 30
0.0
 11
78.2987
 21
33.7385
 31
0.0
  0
LINE
  8
0
 62
     0
 10
78.2987
 20
33.7385
 30
0.0
 11
77.4982
 21
33.7385
 31
0.0
  0
LINE
  8
0
 62
     0
 10
77.4982
 20
33.7385
 30
0.0
 11
77.4982
 21
32.9627
 31
0.0
  0
LINE
  8
0
 62
     0
 10
77.4982
 20
32.9627
 30
0.0
 11
79.1683
 21
32.9627
 31
0.0
  0
LINE
  8
0
 62
     0
 10
79.1683
 20
32.9627
 30
0.0
 11
79.1683
 21
32.1634
 31
0.0
  0
LINE
  8
0
 62
     0
 10
79.1683
 20
32.1634
 30
0.0
 11
79.7691
 21
32.1634
 31
0.0
  0
LINE
  8
0
 62
     0
 10
79.7691
 20
32.1634
 30
0.0
 11
79.7691
 21
18.1626
 31
0.0
  0
LINE
  8
0
 62
     0
 10
79.7691
 20
18.1626
 30
0.0
 11
79.1683
 21
18.1626
 31
0.0
  0
LINE
  8
0
 62
     0
 10
79.7691
 20
114.014
 30
0.0
 11
79.7691
 21
113.412
 31
0.0
  0
LINE
  8
0
 62
     0
 10
79.7691
 20
113.412
 30
0.0
 11
65.7684
 21
113.412
 31
0.0
  0
LINE
  8
0
 62
     0
 10
65.7684
 20
113.412
 30
0.0
 11
65.7684
 21
114.014
 31
0.0
  0
LINE
  8
0
 62
     0
 10
65.7684
 20
114.014
 30
0.0
 11
64.969
 21
114.014
 31
0.0
  0
LINE
  8
0
 62
     0
 10
64.969
 20
114.014
 30
0.0
 11
64.969
 21
126.813
 31
0.0
  0
LINE
  8
0
 62
     0
 10
64.969
 20
126.813
 30
0.0
 11
65.7684
 21
126.813
 31
0.0
  0
LINE
  8
0
 62
     0
 10
65.7684
 20
126.813
 30
0.0
 11
65.7684
 21
127.413
 31
0.0
  0
LINE
  8
0
 62
     0
 10
65.7684
 20
127.413
 30
0.0
 11
79.7691
 21
127.413
 31
0.0
  0
LINE
  8
0
 62
     0
 10
79.7691
 20
127.413
 30
0.0
 11
79.7691
 21
126.813
 31
0.0
  0
LINE
  8
0
 62
     0
 10
79.7691
 20
126.813
 30
0.0
 11
80.5684
 21
126.813
 31
0.0
  0
LINE
  8
0
 62
     0
 10
80.5684
 20
126.813
 30
0.0
 11
80.5684
 21
114.014
 31
0.0
  0
LINE
  8
0
 62
     0
 10
80.5684
 20
114.014
 30
0.0
 11
79.7691
 21
114.014
 31
0.0
  0
LINE
  8
0
 62
     0
 10
79.7691
 20
85.4385
 30
0.0
 11
79.7691
 21
84.8374
 31
0.0
  0
LINE
  8
0
 62
     0
 10
79.7691
 20
84.8374
 30
0.0
 11
65.7684
 21
84.8374
 31
0.0
  0
LINE
  8
0
 62
     0
 10
65.7684
 20
84.8374
 30
0.0
 11
65.7684
 21
85.4385
 31
0.0
  0
LINE
  8
0
 62
     0
 10
65.7684
 20
85.4385
 30
0.0
 11
64.969
 21
85.4385
 31
0.0
  0
LINE
  8
0
 62
     0
 10
64.969
 20
85.4385
 30
0.0
 11
64.969
 21
98.2377
 31
0.0
  0
LINE
  8
0
 62
     0
 10
64.969
 20
98.2377
 30
0.0
 11
65.7684
 21
98.2377
 31
0.0
  0
LINE
  8
0
 62
     0
 10
65.7684
 20
98.2377
 30
0.0
 11
65.7684
 21
98.8385
 31
0.0
  0
LINE
  8
0
 62
     0
 10
65.7684
 20
98.8385
 30
0.0
 11
79.7691
 21
98.8385
 31
0.0
  0
LINE
  8
0
 62
     0
 10
79.7691
 20
98.8385
 30
0.0
 11
79.7691
 21
98.2377
 31
0.0
  0
LINE
  8
0
 62
     0
 10
79.7691
 20
98.2377
 30
0.0
 11
80.5684
 21
98.2377
 31
0.0
  0
LINE
  8
0
 62
     0
 10
80.5684
 20
98.2377
 30
0.0
 11
80.5684
 21
85.4385
 31
0.0
  0
LINE
  8
0
 62
     0
 10
80.5684
 20
85.4385
 30
0.0
 11
79.7691
 21
85.4385
 31
0.0
  0
ENDSEC
  0
EOF
