  0
SECTION
  2
HEADER
  9
$ACADVER
  1
AC1009
  9
$EXTMIN
 10
0.0
 20
0.0
 30
0.0
  9
$EXTMAX
 10
1000.0
 20
1000.0
 30
0.0
  9
$FILLMODE
 70
 0
  9
$SPLFRAME
 70
 1
  0
ENDSEC
  0
SECTION
  2
TABLES
  0
TABLE
  2
LAYER
 70
1
  0
LAYER
  2
0
 70
     0
 62
     7
  6
CONTINUOUS
  0
ENDTAB
  0
ENDSEC
  0
SECTION
  2
ENTITIES
  0
LINE
  8
0
 62
     0
 10
94.2936
 20
143.938
 30
0.0
 11
94.4506
 21
143.932
 31
0.0
  0
LINE
  8
0
 62
     0
 10
94.4506
 20
143.932
 30
0.0
 11
94.6065
 21
143.913
 31
0.0
  0
LINE
  8
0
 62
     0
 10
94.6065
 20
143.913
 30
0.0
 11
94.7607
 21
143.882
 31
0.0
  0
LINE
  8
0
 62
     0
 10
94.7607
 20
143.882
 30
0.0
 11
94.9124
 21
143.839
 31
0.0
  0
LINE
  8
0
 62
     0
 10
94.9124
 20
143.839
 30
0.0
 11
95.0584
 21
143.786
 31
0.0
  0
LINE
  8
0
 62
     0
 10
95.0584
 20
143.786
 30
0.0
 11
95.2017
 21
143.72
 31
0.0
  0
LINE
  8
0
 62
     0
 10
95.2017
 20
143.72
 30
0.0
 11
95.3382
 21
143.643
 31
0.0
  0
LINE
  8
0
 62
     0
 10
95.3382
 20
143.643
 30
0.0
 11
95.4691
 21
143.556
 31
0.0
  0
LINE
  8
0
 62
     0
 10
95.4691
 20
143.556
 30
0.0
 11
95.5933
 21
143.458
 31
0.0
  0
LINE
  8
0
 62
     0
 10
95.5933
 20
143.458
 30
0.0
 11
95.7076
 21
143.352
 31
0.0
  0
LINE
  8
0
 62
     0
 10
95.7076
 20
143.352
 30
0.0
 11
95.8151
 21
143.236
 31
0.0
  0
LINE
  8
0
 62
     0
 10
95.8151
 20
143.236
 30
0.0
 11
95.9115
 21
143.113
 31
0.0
  0
LINE
  8
0
 62
     0
 10
95.9115
 20
143.113
 30
0.0
 11
95.9982
 21
142.983
 31
0.0
  0
LINE
  8
0
 62
     0
 10
95.9982
 20
142.983
 30
0.0
 11
96.0755
 21
142.846
 31
0.0
  0
LINE
  8
0
 62
     0
 10
96.0755
 20
142.846
 30
0.0
 11
96.1415
 21
142.703
 31
0.0
  0
LINE
  8
0
 62
     0
 10
96.1415
 20
142.703
 30
0.0
 11
96.1954
 21
142.555
 31
0.0
  0
LINE
  8
0
 62
     0
 10
96.1954
 20
142.555
 30
0.0
 11
96.2395
 21
142.405
 31
0.0
  0
LINE
  8
0
 62
     0
 10
96.2395
 20
142.405
 30
0.0
 11
96.2685
 21
142.251
 31
0.0
  0
LINE
  8
0
 62
     0
 10
96.2685
 20
142.251
 30
0.0
 11
96.2875
 21
142.095
 31
0.0
  0
LINE
  8
0
 62
     0
 10
96.2875
 20
142.095
 30
0.0
 11
96.2932
 21
141.938
 31
0.0
  0
LINE
  8
0
 62
     0
 10
96.2932
 20
141.938
 30
0.0
 11
96.2932
 21
2.11253
 31
0.0
  0
LINE
  8
0
 62
     0
 10
96.2932
 20
2.11253
 30
0.0
 11
96.2875
 21
1.95544
 31
0.0
  0
LINE
  8
0
 62
     0
 10
96.2875
 20
1.95544
 30
0.0
 11
96.2685
 21
1.79972
 31
0.0
  0
LINE
  8
0
 62
     0
 10
96.2685
 20
1.79972
 30
0.0
 11
96.2395
 21
1.64538
 31
0.0
  0
LINE
  8
0
 62
     0
 10
96.2395
 20
1.64538
 30
0.0
 11
96.1954
 21
1.4938
 31
0.0
  0
LINE
  8
0
 62
     0
 10
96.1954
 20
1.4938
 30
0.0
 11
96.1415
 21
1.34772
 31
0.0
  0
LINE
  8
0
 62
     0
 10
96.1415
 20
1.34772
 30
0.0
 11
96.0755
 21
1.2044
 31
0.0
  0
LINE
  8
0
 62
     0
 10
96.0755
 20
1.2044
 30
0.0
 11
95.9982
 21
1.06798
 31
0.0
  0
LINE
  8
0
 62
     0
 10
95.9982
 20
1.06798
 30
0.0
 11
95.9115
 21
0.937066
 31
0.0
  0
LINE
  8
0
 62
     0
 10
95.9115
 20
0.937066
 30
0.0
 11
95.8151
 21
0.813043
 31
0.0
  0
LINE
  8
0
 62
     0
 10
95.8151
 20
0.813043
 30
0.0
 11
95.7076
 21
0.698666
 31
0.0
  0
LINE
  8
0
 62
     0
 10
95.7076
 20
0.698666
 30
0.0
 11
95.5933
 21
0.591178
 31
0.0
  0
LINE
  8
0
 62
     0
 10
95.5933
 20
0.591178
 30
0.0
 11
95.4691
 21
0.494714
 31
0.0
  0
LINE
  8
0
 62
     0
 10
95.4691
 20
0.494714
 30
0.0
 11
95.3382
 21
0.407899
 31
0.0
  0
LINE
  8
0
 62
     0
 10
95.3382
 20
0.407899
 30
0.0
 11
95.2017
 21
0.330729
 31
0.0
  0
LINE
  8
0
 62
     0
 10
95.2017
 20
0.330729
 30
0.0
 11
95.0584
 21
0.264583
 31
0.0
  0
LINE
  8
0
 62
     0
 10
95.0584
 20
0.264583
 30
0.0
 11
94.9124
 21
0.21084
 31
0.0
  0
LINE
  8
0
 62
     0
 10
94.9124
 20
0.21084
 30
0.0
 11
94.7607
 21
0.166743
 31
0.0
  0
LINE
  8
0
 62
     0
 10
94.7607
 20
0.166743
 30
0.0
 11
94.6065
 21
0.137804
 31
0.0
  0
LINE
  8
0
 62
     0
 10
94.6065
 20
0.137804
 30
0.0
 11
94.4506
 21
0.118511
 31
0.0
  0
LINE
  8
0
 62
     0
 10
94.4506
 20
0.118511
 30
0.0
 11
94.2936
 21
0.112999
 31
0.0
  0
LINE
  8
0
 62
     0
 10
94.2936
 20
0.112999
 30
0.0
 11
2.09324
 21
0.112999
 31
0.0
  0
LINE
  8
0
 62
     0
 10
2.09324
 20
0.112999
 30
0.0
 11
1.93614
 21
0.118511
 31
0.0
  0
LINE
  8
0
 62
     0
 10
1.93614
 20
0.118511
 30
0.0
 11
1.78043
 21
0.137804
 31
0.0
  0
LINE
  8
0
 62
     0
 10
1.78043
 20
0.137804
 30
0.0
 11
1.62609
 21
0.166743
 31
0.0
  0
LINE
  8
0
 62
     0
 10
1.62609
 20
0.166743
 30
0.0
 11
1.47588
 21
0.21084
 31
0.0
  0
LINE
  8
0
 62
     0
 10
1.47588
 20
0.21084
 30
0.0
 11
1.32843
 21
0.264583
 31
0.0
  0
LINE
  8
0
 62
     0
 10
1.32843
 20
0.264583
 30
0.0
 11
1.18511
 21
0.330729
 31
0.0
  0
LINE
  8
0
 62
     0
 10
1.18511
 20
0.330729
 30
0.0
 11
1.04869
 21
0.407899
 31
0.0
  0
LINE
  8
0
 62
     0
 10
1.04869
 20
0.407899
 30
0.0
 11
0.917773
 21
0.494714
 31
0.0
  0
LINE
  8
0
 62
     0
 10
0.917773
 20
0.494714
 30
0.0
 11
0.795129
 21
0.591178
 31
0.0
  0
LINE
  8
0
 62
     0
 10
0.795129
 20
0.591178
 30
0.0
 11
0.679372
 21
0.698666
 31
0.0
  0
LINE
  8
0
 62
     0
 10
0.679372
 20
0.698666
 30
0.0
 11
0.573264
 21
0.813043
 31
0.0
  0
LINE
  8
0
 62
     0
 10
0.573264
 20
0.813043
 30
0.0
 11
0.475424
 21
0.937066
 31
0.0
  0
LINE
  8
0
 62
     0
 10
0.475424
 20
0.937066
 30
0.0
 11
0.388606
 21
1.06798
 31
0.0
  0
LINE
  8
0
 62
     0
 10
0.388606
 20
1.06798
 30
0.0
 11
0.311437
 21
1.2044
 31
0.0
  0
LINE
  8
0
 62
     0
 10
0.311437
 20
1.2044
 30
0.0
 11
0.245291
 21
1.34772
 31
0.0
  0
LINE
  8
0
 62
     0
 10
0.245291
 20
1.34772
 30
0.0
 11
0.191547
 21
1.4938
 31
0.0
  0
LINE
  8
0
 62
     0
 10
0.191547
 20
1.4938
 30
0.0
 11
0.148828
 21
1.64538
 31
0.0
  0
LINE
  8
0
 62
     0
 10
0.148828
 20
1.64538
 30
0.0
 11
0.118511
 21
1.79972
 31
0.0
  0
LINE
  8
0
 62
     0
 10
0.118511
 20
1.79972
 30
0.0
 11
0.0992188
 21
1.95544
 31
0.0
  0
LINE
  8
0
 62
     0
 10
0.0992188
 20
1.95544
 30
0.0
 11
0.0937066
 21
2.11253
 31
0.0
  0
LINE
  8
0
 62
     0
 10
0.0937066
 20
2.11253
 30
0.0
 11
0.0937066
 21
141.938
 31
0.0
  0
LINE
  8
0
 62
     0
 10
0.0937066
 20
141.938
 30
0.0
 11
0.0992188
 21
142.095
 31
0.0
  0
LINE
  8
0
 62
     0
 10
0.0992188
 20
142.095
 30
0.0
 11
0.118511
 21
142.251
 31
0.0
  0
LINE
  8
0
 62
     0
 10
0.118511
 20
142.251
 30
0.0
 11
0.148828
 21
142.405
 31
0.0
  0
LINE
  8
0
 62
     0
 10
0.148828
 20
142.405
 30
0.0
 11
0.191547
 21
142.555
 31
0.0
  0
LINE
  8
0
 62
     0
 10
0.191547
 20
142.555
 30
0.0
 11
0.245291
 21
142.703
 31
0.0
  0
LINE
  8
0
 62
     0
 10
0.245291
 20
142.703
 30
0.0
 11
0.311437
 21
142.846
 31
0.0
  0
LINE
  8
0
 62
     0
 10
0.311437
 20
142.846
 30
0.0
 11
0.388606
 21
142.983
 31
0.0
  0
LINE
  8
0
 62
     0
 10
0.388606
 20
142.983
 30
0.0
 11
0.475424
 21
143.113
 31
0.0
  0
LINE
  8
0
 62
     0
 10
0.475424
 20
143.113
 30
0.0
 11
0.573264
 21
143.236
 31
0.0
  0
LINE
  8
0
 62
     0
 10
0.573264
 20
143.236
 30
0.0
 11
0.679372
 21
143.352
 31
0.0
  0
LINE
  8
0
 62
     0
 10
0.679372
 20
143.352
 30
0.0
 11
0.795129
 21
143.458
 31
0.0
  0
LINE
  8
0
 62
     0
 10
0.795129
 20
143.458
 30
0.0
 11
0.917773
 21
143.556
 31
0.0
  0
LINE
  8
0
 62
     0
 10
0.917773
 20
143.556
 30
0.0
 11
1.04869
 21
143.643
 31
0.0
  0
LINE
  8
0
 62
     0
 10
1.04869
 20
143.643
 30
0.0
 11
1.18511
 21
143.72
 31
0.0
  0
LINE
  8
0
 62
     0
 10
1.18511
 20
143.72
 30
0.0
 11
1.32843
 21
143.786
 31
0.0
  0
LINE
  8
0
 62
     0
 10
1.32843
 20
143.786
 30
0.0
 11
1.47588
 21
143.839
 31
0.0
  0
LINE
  8
0
 62
     0
 10
1.47588
 20
143.839
 30
0.0
 11
1.62609
 21
143.882
 31
0.0
  0
LINE
  8
0
 62
     0
 10
1.62609
 20
143.882
 30
0.0
 11
1.78043
 21
143.913
 31
0.0
  0
LINE
  8
0
 62
     0
 10
1.78043
 20
143.913
 30
0.0
 11
1.93614
 21
143.932
 31
0.0
  0
LINE
  8
0
 62
     0
 10
1.93614
 20
143.932
 30
0.0
 11
2.09324
 21
143.938
 31
0.0
  0
LINE
  8
0
 62
     0
 10
2.09324
 20
143.938
 30
0.0
 11
94.2936
 21
143.938
 31
0.0
  0
LINE
  8
0
 62
     0
 10
91.2936
 20
140.437
 30
0.0
 11
91.7582
 21
140.364
 31
0.0
  0
LINE
  8
0
 62
     0
 10
91.7582
 20
140.364
 30
0.0
 11
92.1755
 21
140.152
 31
0.0
  0
LINE
  8
0
 62
     0
 10
92.1755
 20
140.152
 30
0.0
 11
92.5079
 21
139.82
 31
0.0
  0
LINE
  8
0
 62
     0
 10
92.5079
 20
139.82
 30
0.0
 11
92.7213
 21
139.401
 31
0.0
  0
LINE
  8
0
 62
     0
 10
92.7213
 20
139.401
 30
0.0
 11
92.7943
 21
138.938
 31
0.0
  0
LINE
  8
0
 62
     0
 10
92.7943
 20
138.938
 30
0.0
 11
92.7213
 21
138.473
 31
0.0
  0
LINE
  8
0
 62
     0
 10
92.7213
 20
138.473
 30
0.0
 11
92.5079
 21
138.056
 31
0.0
  0
LINE
  8
0
 62
     0
 10
92.5079
 20
138.056
 30
0.0
 11
92.1755
 21
137.724
 31
0.0
  0
LINE
  8
0
 62
     0
 10
92.1755
 20
137.724
 30
0.0
 11
91.7582
 21
137.51
 31
0.0
  0
LINE
  8
0
 62
     0
 10
91.7582
 20
137.51
 30
0.0
 11
91.2936
 21
137.437
 31
0.0
  0
LINE
  8
0
 62
     0
 10
91.2936
 20
137.437
 30
0.0
 11
90.8293
 21
137.51
 31
0.0
  0
LINE
  8
0
 62
     0
 10
90.8293
 20
137.51
 30
0.0
 11
90.4117
 21
137.724
 31
0.0
  0
LINE
  8
0
 62
     0
 10
90.4117
 20
137.724
 30
0.0
 11
90.0797
 21
138.056
 31
0.0
  0
LINE
  8
0
 62
     0
 10
90.0797
 20
138.056
 30
0.0
 11
89.8673
 21
138.473
 31
0.0
  0
LINE
  8
0
 62
     0
 10
89.8673
 20
138.473
 30
0.0
 11
89.7943
 21
138.938
 31
0.0
  0
LINE
  8
0
 62
     0
 10
89.7943
 20
138.938
 30
0.0
 11
89.8673
 21
139.401
 31
0.0
  0
LINE
  8
0
 62
     0
 10
89.8673
 20
139.401
 30
0.0
 11
90.0797
 21
139.82
 31
0.0
  0
LINE
  8
0
 62
     0
 10
90.0797
 20
139.82
 30
0.0
 11
90.4117
 21
140.152
 31
0.0
  0
LINE
  8
0
 62
     0
 10
90.4117
 20
140.152
 30
0.0
 11
90.8293
 21
140.364
 31
0.0
  0
LINE
  8
0
 62
     0
 10
90.8293
 20
140.364
 30
0.0
 11
91.2936
 21
140.437
 31
0.0
  0
LINE
  8
0
 62
     0
 10
91.2936
 20
6.61183
 30
0.0
 11
91.7582
 21
6.53881
 31
0.0
  0
LINE
  8
0
 62
     0
 10
91.7582
 20
6.53881
 30
0.0
 11
92.1755
 21
6.32658
 31
0.0
  0
LINE
  8
0
 62
     0
 10
92.1755
 20
6.32658
 30
0.0
 11
92.5079
 21
5.99447
 31
0.0
  0
LINE
  8
0
 62
     0
 10
92.5079
 20
5.99447
 30
0.0
 11
92.7213
 21
5.57692
 31
0.0
  0
LINE
  8
0
 62
     0
 10
92.7213
 20
5.57692
 30
0.0
 11
92.7943
 21
5.11253
 31
0.0
  0
LINE
  8
0
 62
     0
 10
92.7943
 20
5.11253
 30
0.0
 11
92.7213
 21
4.64813
 31
0.0
  0
LINE
  8
0
 62
     0
 10
92.7213
 20
4.64813
 30
0.0
 11
92.5079
 21
4.23058
 31
0.0
  0
LINE
  8
0
 62
     0
 10
92.5079
 20
4.23058
 30
0.0
 11
92.1755
 21
3.89848
 31
0.0
  0
LINE
  8
0
 62
     0
 10
92.1755
 20
3.89848
 30
0.0
 11
91.7582
 21
3.68487
 31
0.0
  0
LINE
  8
0
 62
     0
 10
91.7582
 20
3.68487
 30
0.0
 11
91.2936
 21
3.61184
 31
0.0
  0
LINE
  8
0
 62
     0
 10
91.2936
 20
3.61184
 30
0.0
 11
90.8293
 21
3.68487
 31
0.0
  0
LINE
  8
0
 62
     0
 10
90.8293
 20
3.68487
 30
0.0
 11
90.4117
 21
3.89848
 31
0.0
  0
LINE
  8
0
 62
     0
 10
90.4117
 20
3.89848
 30
0.0
 11
90.0797
 21
4.23058
 31
0.0
  0
LINE
  8
0
 62
     0
 10
90.0797
 20
4.23058
 30
0.0
 11
89.8673
 21
4.64813
 31
0.0
  0
LINE
  8
0
 62
     0
 10
89.8673
 20
4.64813
 30
0.0
 11
89.7943
 21
5.11253
 31
0.0
  0
LINE
  8
0
 62
     0
 10
89.7943
 20
5.11253
 30
0.0
 11
89.8673
 21
5.57692
 31
0.0
  0
LINE
  8
0
 62
     0
 10
89.8673
 20
5.57692
 30
0.0
 11
90.0797
 21
5.99447
 31
0.0
  0
LINE
  8
0
 62
     0
 10
90.0797
 20
5.99447
 30
0.0
 11
90.4117
 21
6.32658
 31
0.0
  0
LINE
  8
0
 62
     0
 10
90.4117
 20
6.32658
 30
0.0
 11
90.8293
 21
6.53881
 31
0.0
  0
LINE
  8
0
 62
     0
 10
90.8293
 20
6.53881
 30
0.0
 11
91.2936
 21
6.61183
 31
0.0
  0
LINE
  8
0
 62
     0
 10
5.09323
 20
6.61183
 30
0.0
 11
5.55763
 21
6.53881
 31
0.0
  0
LINE
  8
0
 62
     0
 10
5.55763
 20
6.53881
 30
0.0
 11
5.97517
 21
6.32658
 31
0.0
  0
LINE
  8
0
 62
     0
 10
5.97517
 20
6.32658
 30
0.0
 11
6.30728
 21
5.99447
 31
0.0
  0
LINE
  8
0
 62
     0
 10
6.30728
 20
5.99447
 30
0.0
 11
6.52089
 21
5.57692
 31
0.0
  0
LINE
  8
0
 62
     0
 10
6.52089
 20
5.57692
 30
0.0
 11
6.59391
 21
5.11253
 31
0.0
  0
LINE
  8
0
 62
     0
 10
6.59391
 20
5.11253
 30
0.0
 11
6.52089
 21
4.64813
 31
0.0
  0
LINE
  8
0
 62
     0
 10
6.52089
 20
4.64813
 30
0.0
 11
6.30728
 21
4.23058
 31
0.0
  0
LINE
  8
0
 62
     0
 10
6.30728
 20
4.23058
 30
0.0
 11
5.97517
 21
3.89848
 31
0.0
  0
LINE
  8
0
 62
     0
 10
5.97517
 20
3.89848
 30
0.0
 11
5.55763
 21
3.68487
 31
0.0
  0
LINE
  8
0
 62
     0
 10
5.55763
 20
3.68487
 30
0.0
 11
5.09323
 21
3.61184
 31
0.0
  0
LINE
  8
0
 62
     0
 10
5.09323
 20
3.61184
 30
0.0
 11
4.63021
 21
3.68487
 31
0.0
  0
LINE
  8
0
 62
     0
 10
4.63021
 20
3.68487
 30
0.0
 11
4.21128
 21
3.89848
 31
0.0
  0
LINE
  8
0
 62
     0
 10
4.21128
 20
3.89848
 30
0.0
 11
3.87918
 21
4.23058
 31
0.0
  0
LINE
  8
0
 62
     0
 10
3.87918
 20
4.23058
 30
0.0
 11
3.66695
 21
4.64813
 31
0.0
  0
LINE
  8
0
 62
     0
 10
3.66695
 20
4.64813
 30
0.0
 11
3.59392
 21
5.11253
 31
0.0
  0
LINE
  8
0
 62
     0
 10
3.59392
 20
5.11253
 30
0.0
 11
3.66695
 21
5.57692
 31
0.0
  0
LINE
  8
0
 62
     0
 10
3.66695
 20
5.57692
 30
0.0
 11
3.87918
 21
5.99447
 31
0.0
  0
LINE
  8
0
 62
     0
 10
3.87918
 20
5.99447
 30
0.0
 11
4.21128
 21
6.32658
 31
0.0
  0
LINE
  8
0
 62
     0
 10
4.21128
 20
6.32658
 30
0.0
 11
4.63021
 21
6.53881
 31
0.0
  0
LINE
  8
0
 62
     0
 10
4.63021
 20
6.53881
 30
0.0
 11
5.09323
 21
6.61183
 31
0.0
  0
LINE
  8
0
 62
     0
 10
5.09323
 20
140.437
 30
0.0
 11
5.55763
 21
140.364
 31
0.0
  0
LINE
  8
0
 62
     0
 10
5.55763
 20
140.364
 30
0.0
 11
5.97517
 21
140.152
 31
0.0
  0
LINE
  8
0
 62
     0
 10
5.97517
 20
140.152
 30
0.0
 11
6.30728
 21
139.82
 31
0.0
  0
LINE
  8
0
 62
     0
 10
6.30728
 20
139.82
 30
0.0
 11
6.52089
 21
139.401
 31
0.0
  0
LINE
  8
0
 62
     0
 10
6.52089
 20
139.401
 30
0.0
 11
6.59391
 21
138.938
 31
0.0
  0
LINE
  8
0
 62
     0
 10
6.59391
 20
138.938
 30
0.0
 11
6.52089
 21
138.473
 31
0.0
  0
LINE
  8
0
 62
     0
 10
6.52089
 20
138.473
 30
0.0
 11
6.30728
 21
138.056
 31
0.0
  0
LINE
  8
0
 62
     0
 10
6.30728
 20
138.056
 30
0.0
 11
5.97517
 21
137.724
 31
0.0
  0
LINE
  8
0
 62
     0
 10
5.97517
 20
137.724
 30
0.0
 11
5.55763
 21
137.51
 31
0.0
  0
LINE
  8
0
 62
     0
 10
5.55763
 20
137.51
 30
0.0
 11
5.09323
 21
137.437
 31
0.0
  0
LINE
  8
0
 62
     0
 10
5.09323
 20
137.437
 30
0.0
 11
4.63021
 21
137.51
 31
0.0
  0
LINE
  8
0
 62
     0
 10
4.63021
 20
137.51
 30
0.0
 11
4.21128
 21
137.724
 31
0.0
  0
LINE
  8
0
 62
     0
 10
4.21128
 20
137.724
 30
0.0
 11
3.87918
 21
138.056
 31
0.0
  0
LINE
  8
0
 62
     0
 10
3.87918
 20
138.056
 30
0.0
 11
3.66695
 21
138.473
 31
0.0
  0
LINE
  8
0
 62
     0
 10
3.66695
 20
138.473
 30
0.0
 11
3.59392
 21
138.938
 31
0.0
  0
LINE
  8
0
 62
     0
 10
3.59392
 20
138.938
 30
0.0
 11
3.66695
 21
139.401
 31
0.0
  0
LINE
  8
0
 62
     0
 10
3.66695
 20
139.401
 30
0.0
 11
3.87918
 21
139.82
 31
0.0
  0
LINE
  8
0
 62
     0
 10
3.87918
 20
139.82
 30
0.0
 11
4.21128
 21
140.152
 31
0.0
  0
LINE
  8
0
 62
     0
 10
4.21128
 20
140.152
 30
0.0
 11
4.63021
 21
140.364
 31
0.0
  0
LINE
  8
0
 62
     0
 10
4.63021
 20
140.364
 30
0.0
 11
5.09323
 21
140.437
 31
0.0
  0
LINE
  8
0
 62
     0
 10
26.6182
 20
118.012
 30
0.0
 11
26.6182
 21
117.413
 31
0.0
  0
LINE
  8
0
 62
     0
 10
26.6182
 20
117.413
 30
0.0
 11
12.6187
 21
117.413
 31
0.0
  0
LINE
  8
0
 62
     0
 10
12.6187
 20
117.413
 30
0.0
 11
12.6187
 21
118.012
 31
0.0
  0
LINE
  8
0
 62
     0
 10
12.6187
 20
118.012
 30
0.0
 11
11.8194
 21
118.012
 31
0.0
  0
LINE
  8
0
 62
     0
 10
11.8194
 20
118.012
 30
0.0
 11
11.8194
 21
130.813
 31
0.0
  0
LINE
  8
0
 62
     0
 10
11.8194
 20
130.813
 30
0.0
 11
12.6187
 21
130.813
 31
0.0
  0
LINE
  8
0
 62
     0
 10
12.6187
 20
130.813
 30
0.0
 11
12.6187
 21
131.413
 31
0.0
  0
LINE
  8
0
 62
     0
 10
12.6187
 20
131.413
 30
0.0
 11
26.6182
 21
131.413
 31
0.0
  0
LINE
  8
0
 62
     0
 10
26.6182
 20
131.413
 30
0.0
 11
26.6182
 21
130.813
 31
0.0
  0
LINE
  8
0
 62
     0
 10
26.6182
 20
130.813
 30
0.0
 11
27.4188
 21
130.813
 31
0.0
  0
LINE
  8
0
 62
     0
 10
27.4188
 20
130.813
 30
0.0
 11
27.4188
 21
118.012
 31
0.0
  0
LINE
  8
0
 62
     0
 10
27.4188
 20
118.012
 30
0.0
 11
26.6182
 21
118.012
 31
0.0
  0
LINE
  8
0
 62
     0
 10
26.6182
 20
89.4373
 30
0.0
 11
26.6182
 21
88.8379
 31
0.0
  0
LINE
  8
0
 62
     0
 10
26.6182
 20
88.8379
 30
0.0
 11
12.6187
 21
88.8379
 31
0.0
  0
LINE
  8
0
 62
     0
 10
12.6187
 20
88.8379
 30
0.0
 11
12.6187
 21
89.4373
 31
0.0
  0
LINE
  8
0
 62
     0
 10
12.6187
 20
89.4373
 30
0.0
 11
11.8194
 21
89.4373
 31
0.0
  0
LINE
  8
0
 62
     0
 10
11.8194
 20
89.4373
 30
0.0
 11
11.8194
 21
102.238
 31
0.0
  0
LINE
  8
0
 62
     0
 10
11.8194
 20
102.238
 30
0.0
 11
12.6187
 21
102.238
 31
0.0
  0
LINE
  8
0
 62
     0
 10
12.6187
 20
102.238
 30
0.0
 11
12.6187
 21
102.838
 31
0.0
  0
LINE
  8
0
 62
     0
 10
12.6187
 20
102.838
 30
0.0
 11
26.6182
 21
102.838
 31
0.0
  0
LINE
  8
0
 62
     0
 10
26.6182
 20
102.838
 30
0.0
 11
26.6182
 21
102.238
 31
0.0
  0
LINE
  8
0
 62
     0
 10
26.6182
 20
102.238
 30
0.0
 11
27.4188
 21
102.238
 31
0.0
  0
LINE
  8
0
 62
     0
 10
27.4188
 20
102.238
 30
0.0
 11
27.4188
 21
89.4373
 31
0.0
  0
LINE
  8
0
 62
     0
 10
27.4188
 20
89.4373
 30
0.0
 11
26.6182
 21
89.4373
 31
0.0
  0
LINE
  8
0
 62
     0
 10
26.6182
 20
70.3873
 30
0.0
 11
26.6182
 21
69.7879
 31
0.0
  0
LINE
  8
0
 62
     0
 10
26.6182
 20
69.7879
 30
0.0
 11
12.6187
 21
69.7879
 31
0.0
  0
LINE
  8
0
 62
     0
 10
12.6187
 20
69.7879
 30
0.0
 11
12.6187
 21
70.3873
 31
0.0
  0
LINE
  8
0
 62
     0
 10
12.6187
 20
70.3873
 30
0.0
 11
11.8194
 21
70.3873
 31
0.0
  0
LINE
  8
0
 62
     0
 10
11.8194
 20
70.3873
 30
0.0
 11
11.8194
 21
83.1882
 31
0.0
  0
LINE
  8
0
 62
     0
 10
11.8194
 20
83.1882
 30
0.0
 11
12.6187
 21
83.1882
 31
0.0
  0
LINE
  8
0
 62
     0
 10
12.6187
 20
83.1882
 30
0.0
 11
12.6187
 21
83.7875
 31
0.0
  0
LINE
  8
0
 62
     0
 10
12.6187
 20
83.7875
 30
0.0
 11
26.6182
 21
83.7875
 31
0.0
  0
LINE
  8
0
 62
     0
 10
26.6182
 20
83.7875
 30
0.0
 11
26.6182
 21
83.1882
 31
0.0
  0
LINE
  8
0
 62
     0
 10
26.6182
 20
83.1882
 30
0.0
 11
27.4188
 21
83.1882
 31
0.0
  0
LINE
  8
0
 62
     0
 10
27.4188
 20
83.1882
 30
0.0
 11
27.4188
 21
70.3873
 31
0.0
  0
LINE
  8
0
 62
     0
 10
27.4188
 20
70.3873
 30
0.0
 11
26.6182
 21
70.3873
 31
0.0
  0
LINE
  8
0
 62
     0
 10
26.6182
 20
51.3373
 30
0.0
 11
26.6182
 21
50.7379
 31
0.0
  0
LINE
  8
0
 62
     0
 10
26.6182
 20
50.7379
 30
0.0
 11
12.6187
 21
50.7379
 31
0.0
  0
LINE
  8
0
 62
     0
 10
12.6187
 20
50.7379
 30
0.0
 11
12.6187
 21
51.3373
 31
0.0
  0
LINE
  8
0
 62
     0
 10
12.6187
 20
51.3373
 30
0.0
 11
11.8194
 21
51.3373
 31
0.0
  0
LINE
  8
0
 62
     0
 10
11.8194
 20
51.3373
 30
0.0
 11
11.8194
 21
64.1382
 31
0.0
  0
LINE
  8
0
 62
     0
 10
11.8194
 20
64.1382
 30
0.0
 11
12.6187
 21
64.1382
 31
0.0
  0
LINE
  8
0
 62
     0
 10
12.6187
 20
64.1382
 30
0.0
 11
12.6187
 21
64.7375
 31
0.0
  0
LINE
  8
0
 62
     0
 10
12.6187
 20
64.7375
 30
0.0
 11
26.6182
 21
64.7375
 31
0.0
  0
LINE
  8
0
 62
     0
 10
26.6182
 20
64.7375
 30
0.0
 11
26.6182
 21
64.1382
 31
0.0
  0
LINE
  8
0
 62
     0
 10
26.6182
 20
64.1382
 30
0.0
 11
27.4188
 21
64.1382
 31
0.0
  0
LINE
  8
0
 62
     0
 10
27.4188
 20
64.1382
 30
0.0
 11
27.4188
 21
51.3373
 31
0.0
  0
LINE
  8
0
 62
     0
 10
27.4188
 20
51.3373
 30
0.0
 11
26.6182
 21
51.3373
 31
0.0
  0
LINE
  8
0
 62
     0
 10
26.6182
 20
32.2874
 30
0.0
 11
26.6182
 21
31.688
 31
0.0
  0
LINE
  8
0
 62
     0
 10
26.6182
 20
31.688
 30
0.0
 11
12.6187
 21
31.688
 31
0.0
  0
LINE
  8
0
 62
     0
 10
12.6187
 20
31.688
 30
0.0
 11
12.6187
 21
32.2874
 31
0.0
  0
LINE
  8
0
 62
     0
 10
12.6187
 20
32.2874
 30
0.0
 11
11.8194
 21
32.2874
 31
0.0
  0
LINE
  8
0
 62
     0
 10
11.8194
 20
32.2874
 30
0.0
 11
11.8194
 21
45.0882
 31
0.0
  0
LINE
  8
0
 62
     0
 10
11.8194
 20
45.0882
 30
0.0
 11
12.6187
 21
45.0882
 31
0.0
  0
LINE
  8
0
 62
     0
 10
12.6187
 20
45.0882
 30
0.0
 11
12.6187
 21
45.6875
 31
0.0
  0
LINE
  8
0
 62
     0
 10
12.6187
 20
45.6875
 30
0.0
 11
26.6182
 21
45.6875
 31
0.0
  0
LINE
  8
0
 62
     0
 10
26.6182
 20
45.6875
 30
0.0
 11
26.6182
 21
45.0882
 31
0.0
  0
LINE
  8
0
 62
     0
 10
26.6182
 20
45.0882
 30
0.0
 11
27.4188
 21
45.0882
 31
0.0
  0
LINE
  8
0
 62
     0
 10
27.4188
 20
45.0882
 30
0.0
 11
27.4188
 21
32.2874
 31
0.0
  0
LINE
  8
0
 62
     0
 10
27.4188
 20
32.2874
 30
0.0
 11
26.6182
 21
32.2874
 31
0.0
  0
LINE
  8
0
 62
     0
 10
44.3689
 20
19.1368
 30
0.0
 11
44.3689
 21
12.8668
 31
0.0
  0
LINE
  8
0
 62
     0
 10
44.3689
 20
12.8668
 30
0.0
 11
42.744
 21
12.8668
 31
0.0
  0
LINE
  8
0
 62
     0
 10
42.744
 20
12.8668
 30
0.0
 11
42.744
 21
11.887
 31
0.0
  0
LINE
  8
0
 62
     0
 10
42.744
 20
11.887
 30
0.0
 11
39.4437
 21
11.887
 31
0.0
  0
LINE
  8
0
 62
     0
 10
39.4437
 20
11.887
 30
0.0
 11
39.4437
 21
12.8668
 31
0.0
  0
LINE
  8
0
 62
     0
 10
39.4437
 20
12.8668
 30
0.0
 11
37.7183
 21
12.8668
 31
0.0
  0
LINE
  8
0
 62
     0
 10
37.7183
 20
12.8668
 30
0.0
 11
37.7183
 21
13.6674
 31
0.0
  0
LINE
  8
0
 62
     0
 10
37.7183
 20
13.6674
 30
0.0
 11
36.9439
 21
13.6674
 31
0.0
  0
LINE
  8
0
 62
     0
 10
36.9439
 20
13.6674
 30
0.0
 11
36.9439
 21
13.2374
 31
0.0
  0
LINE
  8
0
 62
     0
 10
36.9439
 20
13.2374
 30
0.0
 11
36.1431
 21
13.2374
 31
0.0
  0
LINE
  8
0
 62
     0
 10
36.1431
 20
13.2374
 30
0.0
 11
36.1431
 21
12.638
 31
0.0
  0
LINE
  8
0
 62
     0
 10
36.1431
 20
12.638
 30
0.0
 11
22.1437
 21
12.638
 31
0.0
  0
LINE
  8
0
 62
     0
 10
22.1437
 20
12.638
 30
0.0
 11
22.1437
 21
13.2374
 31
0.0
  0
LINE
  8
0
 62
     0
 10
22.1437
 20
13.2374
 30
0.0
 11
21.3444
 21
13.2374
 31
0.0
  0
LINE
  8
0
 62
     0
 10
21.3444
 20
13.2374
 30
0.0
 11
21.3444
 21
13.6674
 31
0.0
  0
LINE
  8
0
 62
     0
 10
21.3444
 20
13.6674
 30
0.0
 11
20.5686
 21
13.6674
 31
0.0
  0
LINE
  8
0
 62
     0
 10
20.5686
 20
13.6674
 30
0.0
 11
20.5686
 21
12.8668
 31
0.0
  0
LINE
  8
0
 62
     0
 10
20.5686
 20
12.8668
 30
0.0
 11
18.8433
 21
12.8668
 31
0.0
  0
LINE
  8
0
 62
     0
 10
18.8433
 20
12.8668
 30
0.0
 11
18.8433
 21
11.887
 31
0.0
  0
LINE
  8
0
 62
     0
 10
18.8433
 20
11.887
 30
0.0
 11
15.5443
 21
11.887
 31
0.0
  0
LINE
  8
0
 62
     0
 10
15.5443
 20
11.887
 30
0.0
 11
15.5443
 21
12.8668
 31
0.0
  0
LINE
  8
0
 62
     0
 10
15.5443
 20
12.8668
 30
0.0
 11
13.9182
 21
12.8668
 31
0.0
  0
LINE
  8
0
 62
     0
 10
13.9182
 20
12.8668
 30
0.0
 11
13.9182
 21
19.1368
 31
0.0
  0
LINE
  8
0
 62
     0
 10
13.9182
 20
19.1368
 30
0.0
 11
13.0431
 21
19.1368
 31
0.0
  0
LINE
  8
0
 62
     0
 10
13.0431
 20
19.1368
 30
0.0
 11
13.0431
 21
21.937
 31
0.0
  0
LINE
  8
0
 62
     0
 10
13.0431
 20
21.937
 30
0.0
 11
13.9182
 21
21.937
 31
0.0
  0
LINE
  8
0
 62
     0
 10
13.9182
 20
21.937
 30
0.0
 11
13.9182
 21
25.1671
 31
0.0
  0
LINE
  8
0
 62
     0
 10
13.9182
 20
25.1671
 30
0.0
 11
15.5443
 21
25.1671
 31
0.0
  0
LINE
  8
0
 62
     0
 10
15.5443
 20
25.1671
 30
0.0
 11
15.5443
 21
26.0876
 31
0.0
  0
LINE
  8
0
 62
     0
 10
15.5443
 20
26.0876
 30
0.0
 11
18.8433
 21
26.0876
 31
0.0
  0
LINE
  8
0
 62
     0
 10
18.8433
 20
26.0876
 30
0.0
 11
18.8433
 21
25.1671
 31
0.0
  0
LINE
  8
0
 62
     0
 10
18.8433
 20
25.1671
 30
0.0
 11
20.5686
 21
25.1671
 31
0.0
  0
LINE
  8
0
 62
     0
 10
20.5686
 20
25.1671
 30
0.0
 11
20.5686
 21
24.3678
 31
0.0
  0
LINE
  8
0
 62
     0
 10
20.5686
 20
24.3678
 30
0.0
 11
21.3444
 21
24.3678
 31
0.0
  0
LINE
  8
0
 62
     0
 10
21.3444
 20
24.3678
 30
0.0
 11
21.3444
 21
26.038
 31
0.0
  0
LINE
  8
0
 62
     0
 10
21.3444
 20
26.038
 30
0.0
 11
22.1437
 21
26.038
 31
0.0
  0
LINE
  8
0
 62
     0
 10
22.1437
 20
26.038
 30
0.0
 11
22.1437
 21
26.6375
 31
0.0
  0
LINE
  8
0
 62
     0
 10
22.1437
 20
26.6375
 30
0.0
 11
36.1431
 21
26.6375
 31
0.0
  0
LINE
  8
0
 62
     0
 10
36.1431
 20
26.6375
 30
0.0
 11
36.1431
 21
26.038
 31
0.0
  0
LINE
  8
0
 62
     0
 10
36.1431
 20
26.038
 30
0.0
 11
36.9439
 21
26.038
 31
0.0
  0
LINE
  8
0
 62
     0
 10
36.9439
 20
26.038
 30
0.0
 11
36.9439
 21
24.3678
 31
0.0
  0
LINE
  8
0
 62
     0
 10
36.9439
 20
24.3678
 30
0.0
 11
37.7183
 21
24.3678
 31
0.0
  0
LINE
  8
0
 62
     0
 10
37.7183
 20
24.3678
 30
0.0
 11
37.7183
 21
25.1671
 31
0.0
  0
LINE
  8
0
 62
     0
 10
37.7183
 20
25.1671
 30
0.0
 11
39.4437
 21
25.1671
 31
0.0
  0
LINE
  8
0
 62
     0
 10
39.4437
 20
25.1671
 30
0.0
 11
39.4437
 21
26.0876
 31
0.0
  0
LINE
  8
0
 62
     0
 10
39.4437
 20
26.0876
 30
0.0
 11
42.744
 21
26.0876
 31
0.0
  0
LINE
  8
0
 62
     0
 10
42.744
 20
26.0876
 30
0.0
 11
42.744
 21
25.1671
 31
0.0
  0
LINE
  8
0
 62
     0
 10
42.744
 20
25.1671
 30
0.0
 11
44.3689
 21
25.1671
 31
0.0
  0
LINE
  8
0
 62
     0
 10
44.3689
 20
25.1671
 30
0.0
 11
44.3689
 21
21.937
 31
0.0
  0
LINE
  8
0
 62
     0
 10
44.3689
 20
21.937
 30
0.0
 11
45.2438
 21
21.937
 31
0.0
  0
LINE
  8
0
 62
     0
 10
45.2438
 20
21.937
 30
0.0
 11
45.2438
 21
19.1368
 31
0.0
  0
LINE
  8
0
 62
     0
 10
45.2438
 20
19.1368
 30
0.0
 11
44.3689
 21
19.1368
 31
0.0
  0
LINE
  8
0
 62
     0
 10
45.6681
 20
118.012
 30
0.0
 11
45.6681
 21
117.413
 31
0.0
  0
LINE
  8
0
 62
     0
 10
45.6681
 20
117.413
 30
0.0
 11
31.6687
 21
117.413
 31
0.0
  0
LINE
  8
0
 62
     0
 10
31.6687
 20
117.413
 30
0.0
 11
31.6687
 21
118.012
 31
0.0
  0
LINE
  8
0
 62
     0
 10
31.6687
 20
118.012
 30
0.0
 11
30.8694
 21
118.012
 31
0.0
  0
LINE
  8
0
 62
     0
 10
30.8694
 20
118.012
 30
0.0
 11
30.8694
 21
130.813
 31
0.0
  0
LINE
  8
0
 62
     0
 10
30.8694
 20
130.813
 30
0.0
 11
31.6687
 21
130.813
 31
0.0
  0
LINE
  8
0
 62
     0
 10
31.6687
 20
130.813
 30
0.0
 11
31.6687
 21
131.413
 31
0.0
  0
LINE
  8
0
 62
     0
 10
31.6687
 20
131.413
 30
0.0
 11
45.6681
 21
131.413
 31
0.0
  0
LINE
  8
0
 62
     0
 10
45.6681
 20
131.413
 30
0.0
 11
45.6681
 21
130.813
 31
0.0
  0
LINE
  8
0
 62
     0
 10
45.6681
 20
130.813
 30
0.0
 11
46.4689
 21
130.813
 31
0.0
  0
LINE
  8
0
 62
     0
 10
46.4689
 20
130.813
 30
0.0
 11
46.4689
 21
118.012
 31
0.0
  0
LINE
  8
0
 62
     0
 10
46.4689
 20
118.012
 30
0.0
 11
45.6681
 21
118.012
 31
0.0
  0
LINE
  8
0
 62
     0
 10
45.6681
 20
89.4373
 30
0.0
 11
45.6681
 21
88.8379
 31
0.0
  0
LINE
  8
0
 62
     0
 10
45.6681
 20
88.8379
 30
0.0
 11
31.6687
 21
88.8379
 31
0.0
  0
LINE
  8
0
 62
     0
 10
31.6687
 20
88.8379
 30
0.0
 11
31.6687
 21
89.4373
 31
0.0
  0
LINE
  8
0
 62
     0
 10
31.6687
 20
89.4373
 30
0.0
 11
30.8694
 21
89.4373
 31
0.0
  0
LINE
  8
0
 62
     0
 10
30.8694
 20
89.4373
 30
0.0
 11
30.8694
 21
102.238
 31
0.0
  0
LINE
  8
0
 62
     0
 10
30.8694
 20
102.238
 30
0.0
 11
31.6687
 21
102.238
 31
0.0
  0
LINE
  8
0
 62
     0
 10
31.6687
 20
102.238
 30
0.0
 11
31.6687
 21
102.838
 31
0.0
  0
LINE
  8
0
 62
     0
 10
31.6687
 20
102.838
 30
0.0
 11
45.6681
 21
102.838
 31
0.0
  0
LINE
  8
0
 62
     0
 10
45.6681
 20
102.838
 30
0.0
 11
45.6681
 21
102.238
 31
0.0
  0
LINE
  8
0
 62
     0
 10
45.6681
 20
102.238
 30
0.0
 11
46.4689
 21
102.238
 31
0.0
  0
LINE
  8
0
 62
     0
 10
46.4689
 20
102.238
 30
0.0
 11
46.4689
 21
89.4373
 31
0.0
  0
LINE
  8
0
 62
     0
 10
46.4689
 20
89.4373
 30
0.0
 11
45.6681
 21
89.4373
 31
0.0
  0
LINE
  8
0
 62
     0
 10
45.6681
 20
70.3873
 30
0.0
 11
45.6681
 21
69.7879
 31
0.0
  0
LINE
  8
0
 62
     0
 10
45.6681
 20
69.7879
 30
0.0
 11
31.6687
 21
69.7879
 31
0.0
  0
LINE
  8
0
 62
     0
 10
31.6687
 20
69.7879
 30
0.0
 11
31.6687
 21
70.3873
 31
0.0
  0
LINE
  8
0
 62
     0
 10
31.6687
 20
70.3873
 30
0.0
 11
30.8694
 21
70.3873
 31
0.0
  0
LINE
  8
0
 62
     0
 10
30.8694
 20
70.3873
 30
0.0
 11
30.8694
 21
83.1882
 31
0.0
  0
LINE
  8
0
 62
     0
 10
30.8694
 20
83.1882
 30
0.0
 11
31.6687
 21
83.1882
 31
0.0
  0
LINE
  8
0
 62
     0
 10
31.6687
 20
83.1882
 30
0.0
 11
31.6687
 21
83.7875
 31
0.0
  0
LINE
  8
0
 62
     0
 10
31.6687
 20
83.7875
 30
0.0
 11
45.6681
 21
83.7875
 31
0.0
  0
LINE
  8
0
 62
     0
 10
45.6681
 20
83.7875
 30
0.0
 11
45.6681
 21
83.1882
 31
0.0
  0
LINE
  8
0
 62
     0
 10
45.6681
 20
83.1882
 30
0.0
 11
46.4689
 21
83.1882
 31
0.0
  0
LINE
  8
0
 62
     0
 10
46.4689
 20
83.1882
 30
0.0
 11
46.4689
 21
70.3873
 31
0.0
  0
LINE
  8
0
 62
     0
 10
46.4689
 20
70.3873
 30
0.0
 11
45.6681
 21
70.3873
 31
0.0
  0
LINE
  8
0
 62
     0
 10
45.6681
 20
51.3373
 30
0.0
 11
45.6681
 21
50.7379
 31
0.0
  0
LINE
  8
0
 62
     0
 10
45.6681
 20
50.7379
 30
0.0
 11
31.6687
 21
50.7379
 31
0.0
  0
LINE
  8
0
 62
     0
 10
31.6687
 20
50.7379
 30
0.0
 11
31.6687
 21
51.3373
 31
0.0
  0
LINE
  8
0
 62
     0
 10
31.6687
 20
51.3373
 30
0.0
 11
30.8694
 21
51.3373
 31
0.0
  0
LINE
  8
0
 62
     0
 10
30.8694
 20
51.3373
 30
0.0
 11
30.8694
 21
64.1382
 31
0.0
  0
LINE
  8
0
 62
     0
 10
30.8694
 20
64.1382
 30
0.0
 11
31.6687
 21
64.1382
 31
0.0
  0
LINE
  8
0
 62
     0
 10
31.6687
 20
64.1382
 30
0.0
 11
31.6687
 21
64.7375
 31
0.0
  0
LINE
  8
0
 62
     0
 10
31.6687
 20
64.7375
 30
0.0
 11
45.6681
 21
64.7375
 31
0.0
  0
LINE
  8
0
 62
     0
 10
45.6681
 20
64.7375
 30
0.0
 11
45.6681
 21
64.1382
 31
0.0
  0
LINE
  8
0
 62
     0
 10
45.6681
 20
64.1382
 30
0.0
 11
46.4689
 21
64.1382
 31
0.0
  0
LINE
  8
0
 62
     0
 10
46.4689
 20
64.1382
 30
0.0
 11
46.4689
 21
51.3373
 31
0.0
  0
LINE
  8
0
 62
     0
 10
46.4689
 20
51.3373
 30
0.0
 11
45.6681
 21
51.3373
 31
0.0
  0
LINE
  8
0
 62
     0
 10
45.6681
 20
32.2874
 30
0.0
 11
45.6681
 21
31.688
 31
0.0
  0
LINE
  8
0
 62
     0
 10
45.6681
 20
31.688
 30
0.0
 11
31.6687
 21
31.688
 31
0.0
  0
LINE
  8
0
 62
     0
 10
31.6687
 20
31.688
 30
0.0
 11
31.6687
 21
32.2874
 31
0.0
  0
LINE
  8
0
 62
     0
 10
31.6687
 20
32.2874
 30
0.0
 11
30.8694
 21
32.2874
 31
0.0
  0
LINE
  8
0
 62
     0
 10
30.8694
 20
32.2874
 30
0.0
 11
30.8694
 21
45.0882
 31
0.0
  0
LINE
  8
0
 62
     0
 10
30.8694
 20
45.0882
 30
0.0
 11
31.6687
 21
45.0882
 31
0.0
  0
LINE
  8
0
 62
     0
 10
31.6687
 20
45.0882
 30
0.0
 11
31.6687
 21
45.6875
 31
0.0
  0
LINE
  8
0
 62
     0
 10
31.6687
 20
45.6875
 30
0.0
 11
45.6681
 21
45.6875
 31
0.0
  0
LINE
  8
0
 62
     0
 10
45.6681
 20
45.6875
 30
0.0
 11
45.6681
 21
45.0882
 31
0.0
  0
LINE
  8
0
 62
     0
 10
45.6681
 20
45.0882
 30
0.0
 11
46.4689
 21
45.0882
 31
0.0
  0
LINE
  8
0
 62
     0
 10
46.4689
 20
45.0882
 30
0.0
 11
46.4689
 21
32.2874
 31
0.0
  0
LINE
  8
0
 62
     0
 10
46.4689
 20
32.2874
 30
0.0
 11
45.6681
 21
32.2874
 31
0.0
  0
LINE
  8
0
 62
     0
 10
64.7181
 20
118.012
 30
0.0
 11
64.7181
 21
117.413
 31
0.0
  0
LINE
  8
0
 62
     0
 10
64.7181
 20
117.413
 30
0.0
 11
50.7189
 21
117.413
 31
0.0
  0
LINE
  8
0
 62
     0
 10
50.7189
 20
117.413
 30
0.0
 11
50.7189
 21
118.012
 31
0.0
  0
LINE
  8
0
 62
     0
 10
50.7189
 20
118.012
 30
0.0
 11
49.9195
 21
118.012
 31
0.0
  0
LINE
  8
0
 62
     0
 10
49.9195
 20
118.012
 30
0.0
 11
49.9195
 21
130.813
 31
0.0
  0
LINE
  8
0
 62
     0
 10
49.9195
 20
130.813
 30
0.0
 11
50.7189
 21
130.813
 31
0.0
  0
LINE
  8
0
 62
     0
 10
50.7189
 20
130.813
 30
0.0
 11
50.7189
 21
131.413
 31
0.0
  0
LINE
  8
0
 62
     0
 10
50.7189
 20
131.413
 30
0.0
 11
64.7181
 21
131.413
 31
0.0
  0
LINE
  8
0
 62
     0
 10
64.7181
 20
131.413
 30
0.0
 11
64.7181
 21
130.813
 31
0.0
  0
LINE
  8
0
 62
     0
 10
64.7181
 20
130.813
 30
0.0
 11
65.519
 21
130.813
 31
0.0
  0
LINE
  8
0
 62
     0
 10
65.519
 20
130.813
 30
0.0
 11
65.519
 21
118.012
 31
0.0
  0
LINE
  8
0
 62
     0
 10
65.519
 20
118.012
 30
0.0
 11
64.7181
 21
118.012
 31
0.0
  0
LINE
  8
0
 62
     0
 10
64.7181
 20
89.4373
 30
0.0
 11
64.7181
 21
88.8379
 31
0.0
  0
LINE
  8
0
 62
     0
 10
64.7181
 20
88.8379
 30
0.0
 11
50.7189
 21
88.8379
 31
0.0
  0
LINE
  8
0
 62
     0
 10
50.7189
 20
88.8379
 30
0.0
 11
50.7189
 21
89.4373
 31
0.0
  0
LINE
  8
0
 62
     0
 10
50.7189
 20
89.4373
 30
0.0
 11
49.9195
 21
89.4373
 31
0.0
  0
LINE
  8
0
 62
     0
 10
49.9195
 20
89.4373
 30
0.0
 11
49.9195
 21
102.238
 31
0.0
  0
LINE
  8
0
 62
     0
 10
49.9195
 20
102.238
 30
0.0
 11
50.7189
 21
102.238
 31
0.0
  0
LINE
  8
0
 62
     0
 10
50.7189
 20
102.238
 30
0.0
 11
50.7189
 21
102.838
 31
0.0
  0
LINE
  8
0
 62
     0
 10
50.7189
 20
102.838
 30
0.0
 11
64.7181
 21
102.838
 31
0.0
  0
LINE
  8
0
 62
     0
 10
64.7181
 20
102.838
 30
0.0
 11
64.7181
 21
102.238
 31
0.0
  0
LINE
  8
0
 62
     0
 10
64.7181
 20
102.238
 30
0.0
 11
65.519
 21
102.238
 31
0.0
  0
LINE
  8
0
 62
     0
 10
65.519
 20
102.238
 30
0.0
 11
65.519
 21
89.4373
 31
0.0
  0
LINE
  8
0
 62
     0
 10
65.519
 20
89.4373
 30
0.0
 11
64.7181
 21
89.4373
 31
0.0
  0
LINE
  8
0
 62
     0
 10
64.7181
 20
70.3873
 30
0.0
 11
64.7181
 21
69.7879
 31
0.0
  0
LINE
  8
0
 62
     0
 10
64.7181
 20
69.7879
 30
0.0
 11
50.7189
 21
69.7879
 31
0.0
  0
LINE
  8
0
 62
     0
 10
50.7189
 20
69.7879
 30
0.0
 11
50.7189
 21
70.3873
 31
0.0
  0
LINE
  8
0
 62
     0
 10
50.7189
 20
70.3873
 30
0.0
 11
49.9195
 21
70.3873
 31
0.0
  0
LINE
  8
0
 62
     0
 10
49.9195
 20
70.3873
 30
0.0
 11
49.9195
 21
83.1882
 31
0.0
  0
LINE
  8
0
 62
     0
 10
49.9195
 20
83.1882
 30
0.0
 11
50.7189
 21
83.1882
 31
0.0
  0
LINE
  8
0
 62
     0
 10
50.7189
 20
83.1882
 30
0.0
 11
50.7189
 21
83.7875
 31
0.0
  0
LINE
  8
0
 62
     0
 10
50.7189
 20
83.7875
 30
0.0
 11
64.7181
 21
83.7875
 31
0.0
  0
LINE
  8
0
 62
     0
 10
64.7181
 20
83.7875
 30
0.0
 11
64.7181
 21
83.1882
 31
0.0
  0
LINE
  8
0
 62
     0
 10
64.7181
 20
83.1882
 30
0.0
 11
65.519
 21
83.1882
 31
0.0
  0
LINE
  8
0
 62
     0
 10
65.519
 20
83.1882
 30
0.0
 11
65.519
 21
70.3873
 31
0.0
  0
LINE
  8
0
 62
     0
 10
65.519
 20
70.3873
 30
0.0
 11
64.7181
 21
70.3873
 31
0.0
  0
LINE
  8
0
 62
     0
 10
64.7181
 20
51.3373
 30
0.0
 11
64.7181
 21
50.7379
 31
0.0
  0
LINE
  8
0
 62
     0
 10
64.7181
 20
50.7379
 30
0.0
 11
50.7189
 21
50.7379
 31
0.0
  0
LINE
  8
0
 62
     0
 10
50.7189
 20
50.7379
 30
0.0
 11
50.7189
 21
51.3373
 31
0.0
  0
LINE
  8
0
 62
     0
 10
50.7189
 20
51.3373
 30
0.0
 11
49.9195
 21
51.3373
 31
0.0
  0
LINE
  8
0
 62
     0
 10
49.9195
 20
51.3373
 30
0.0
 11
49.9195
 21
64.1382
 31
0.0
  0
LINE
  8
0
 62
     0
 10
49.9195
 20
64.1382
 30
0.0
 11
50.7189
 21
64.1382
 31
0.0
  0
LINE
  8
0
 62
     0
 10
50.7189
 20
64.1382
 30
0.0
 11
50.7189
 21
64.7375
 31
0.0
  0
LINE
  8
0
 62
     0
 10
50.7189
 20
64.7375
 30
0.0
 11
64.7181
 21
64.7375
 31
0.0
  0
LINE
  8
0
 62
     0
 10
64.7181
 20
64.7375
 30
0.0
 11
64.7181
 21
64.1382
 31
0.0
  0
LINE
  8
0
 62
     0
 10
64.7181
 20
64.1382
 30
0.0
 11
65.519
 21
64.1382
 31
0.0
  0
LINE
  8
0
 62
     0
 10
65.519
 20
64.1382
 30
0.0
 11
65.519
 21
51.3373
 31
0.0
  0
LINE
  8
0
 62
     0
 10
65.519
 20
51.3373
 30
0.0
 11
64.7181
 21
51.3373
 31
0.0
  0
LINE
  8
0
 62
     0
 10
64.7181
 20
32.2874
 30
0.0
 11
64.7181
 21
31.688
 31
0.0
  0
LINE
  8
0
 62
     0
 10
64.7181
 20
31.688
 30
0.0
 11
50.7189
 21
31.688
 31
0.0
  0
LINE
  8
0
 62
     0
 10
50.7189
 20
31.688
 30
0.0
 11
50.7189
 21
32.2874
 31
0.0
  0
LINE
  8
0
 62
     0
 10
50.7189
 20
32.2874
 30
0.0
 11
49.9195
 21
32.2874
 31
0.0
  0
LINE
  8
0
 62
     0
 10
49.9195
 20
32.2874
 30
0.0
 11
49.9195
 21
45.0882
 31
0.0
  0
LINE
  8
0
 62
     0
 10
49.9195
 20
45.0882
 30
0.0
 11
50.7189
 21
45.0882
 31
0.0
  0
LINE
  8
0
 62
     0
 10
50.7189
 20
45.0882
 30
0.0
 11
50.7189
 21
45.6875
 31
0.0
  0
LINE
  8
0
 62
     0
 10
50.7189
 20
45.6875
 30
0.0
 11
64.7181
 21
45.6875
 31
0.0
  0
LINE
  8
0
 62
     0
 10
64.7181
 20
45.6875
 30
0.0
 11
64.7181
 21
45.0882
 31
0.0
  0
LINE
  8
0
 62
     0
 10
64.7181
 20
45.0882
 30
0.0
 11
65.519
 21
45.0882
 31
0.0
  0
LINE
  8
0
 62
     0
 10
65.519
 20
45.0882
 30
0.0
 11
65.519
 21
32.2874
 31
0.0
  0
LINE
  8
0
 62
     0
 10
65.519
 20
32.2874
 30
0.0
 11
64.7181
 21
32.2874
 31
0.0
  0
LINE
  8
0
 62
     0
 10
64.7181
 20
13.2374
 30
0.0
 11
64.7181
 21
12.638
 31
0.0
  0
LINE
  8
0
 62
     0
 10
64.7181
 20
12.638
 30
0.0
 11
50.7189
 21
12.638
 31
0.0
  0
LINE
  8
0
 62
     0
 10
50.7189
 20
12.638
 30
0.0
 11
50.7189
 21
13.2374
 31
0.0
  0
LINE
  8
0
 62
     0
 10
50.7189
 20
13.2374
 30
0.0
 11
49.9195
 21
13.2374
 31
0.0
  0
LINE
  8
0
 62
     0
 10
49.9195
 20
13.2374
 30
0.0
 11
49.9195
 21
26.038
 31
0.0
  0
LINE
  8
0
 62
     0
 10
49.9195
 20
26.038
 30
0.0
 11
50.7189
 21
26.038
 31
0.0
  0
LINE
  8
0
 62
     0
 10
50.7189
 20
26.038
 30
0.0
 11
50.7189
 21
26.6375
 31
0.0
  0
LINE
  8
0
 62
     0
 10
50.7189
 20
26.6375
 30
0.0
 11
64.7181
 21
26.6375
 31
0.0
  0
LINE
  8
0
 62
     0
 10
64.7181
 20
26.6375
 30
0.0
 11
64.7181
 21
26.038
 31
0.0
  0
LINE
  8
0
 62
     0
 10
64.7181
 20
26.038
 30
0.0
 11
65.519
 21
26.038
 31
0.0
  0
LINE
  8
0
 62
     0
 10
65.519
 20
26.038
 30
0.0
 11
65.519
 21
13.2374
 31
0.0
  0
LINE
  8
0
 62
     0
 10
65.519
 20
13.2374
 30
0.0
 11
64.7181
 21
13.2374
 31
0.0
  0
LINE
  8
0
 62
     0
 10
83.1688
 20
60.2629
 30
0.0
 11
83.1688
 21
59.4625
 31
0.0
  0
LINE
  8
0
 62
     0
 10
83.1688
 20
59.4625
 30
0.0
 11
81.4987
 21
59.4625
 31
0.0
  0
LINE
  8
0
 62
     0
 10
81.4987
 20
59.4625
 30
0.0
 11
81.4987
 21
58.6878
 31
0.0
  0
LINE
  8
0
 62
     0
 10
81.4987
 20
58.6878
 30
0.0
 11
82.2992
 21
58.6878
 31
0.0
  0
LINE
  8
0
 62
     0
 10
82.2992
 20
58.6878
 30
0.0
 11
82.2992
 21
56.9627
 31
0.0
  0
LINE
  8
0
 62
     0
 10
82.2992
 20
56.9627
 30
0.0
 11
83.2185
 21
56.9627
 31
0.0
  0
LINE
  8
0
 62
     0
 10
83.2185
 20
56.9627
 30
0.0
 11
83.2185
 21
53.6621
 31
0.0
  0
LINE
  8
0
 62
     0
 10
83.2185
 20
53.6621
 30
0.0
 11
82.2992
 21
53.6621
 31
0.0
  0
LINE
  8
0
 62
     0
 10
82.2992
 20
53.6621
 30
0.0
 11
82.2992
 21
52.0375
 31
0.0
  0
LINE
  8
0
 62
     0
 10
82.2992
 20
52.0375
 30
0.0
 11
79.0691
 21
52.0375
 31
0.0
  0
LINE
  8
0
 62
     0
 10
79.0691
 20
52.0375
 30
0.0
 11
79.0691
 21
51.1623
 31
0.0
  0
LINE
  8
0
 62
     0
 10
79.0691
 20
51.1623
 30
0.0
 11
76.2688
 21
51.1623
 31
0.0
  0
LINE
  8
0
 62
     0
 10
76.2688
 20
51.1623
 30
0.0
 11
76.2688
 21
52.0375
 31
0.0
  0
LINE
  8
0
 62
     0
 10
76.2688
 20
52.0375
 30
0.0
 11
69.9989
 21
52.0375
 31
0.0
  0
LINE
  8
0
 62
     0
 10
69.9989
 20
52.0375
 30
0.0
 11
69.9989
 21
53.6621
 31
0.0
  0
LINE
  8
0
 62
     0
 10
69.9989
 20
53.6621
 30
0.0
 11
69.0192
 21
53.6621
 31
0.0
  0
LINE
  8
0
 62
     0
 10
69.0192
 20
53.6621
 30
0.0
 11
69.0192
 21
56.9627
 31
0.0
  0
LINE
  8
0
 62
     0
 10
69.0192
 20
56.9627
 30
0.0
 11
69.9989
 21
56.9627
 31
0.0
  0
LINE
  8
0
 62
     0
 10
69.9989
 20
56.9627
 30
0.0
 11
69.9989
 21
58.6878
 31
0.0
  0
LINE
  8
0
 62
     0
 10
69.9989
 20
58.6878
 30
0.0
 11
70.7983
 21
58.6878
 31
0.0
  0
LINE
  8
0
 62
     0
 10
70.7983
 20
58.6878
 30
0.0
 11
70.7983
 21
59.4625
 31
0.0
  0
LINE
  8
0
 62
     0
 10
70.7983
 20
59.4625
 30
0.0
 11
70.3682
 21
59.4625
 31
0.0
  0
LINE
  8
0
 62
     0
 10
70.3682
 20
59.4625
 30
0.0
 11
70.3682
 21
60.2629
 31
0.0
  0
LINE
  8
0
 62
     0
 10
70.3682
 20
60.2629
 30
0.0
 11
69.7689
 21
60.2629
 31
0.0
  0
LINE
  8
0
 62
     0
 10
69.7689
 20
60.2629
 30
0.0
 11
69.7689
 21
74.2625
 31
0.0
  0
LINE
  8
0
 62
     0
 10
69.7689
 20
74.2625
 30
0.0
 11
70.3682
 21
74.2625
 31
0.0
  0
LINE
  8
0
 62
     0
 10
70.3682
 20
74.2625
 30
0.0
 11
70.3682
 21
75.0616
 31
0.0
  0
LINE
  8
0
 62
     0
 10
70.3682
 20
75.0616
 30
0.0
 11
70.7983
 21
75.0616
 31
0.0
  0
LINE
  8
0
 62
     0
 10
70.7983
 20
75.0616
 30
0.0
 11
70.7983
 21
75.8377
 31
0.0
  0
LINE
  8
0
 62
     0
 10
70.7983
 20
75.8377
 30
0.0
 11
69.9989
 21
75.8377
 31
0.0
  0
LINE
  8
0
 62
     0
 10
69.9989
 20
75.8377
 30
0.0
 11
69.9989
 21
77.5628
 31
0.0
  0
LINE
  8
0
 62
     0
 10
69.9989
 20
77.5628
 30
0.0
 11
69.0192
 21
77.5628
 31
0.0
  0
LINE
  8
0
 62
     0
 10
69.0192
 20
77.5628
 30
0.0
 11
69.0192
 21
80.862
 31
0.0
  0
LINE
  8
0
 62
     0
 10
69.0192
 20
80.862
 30
0.0
 11
69.9989
 21
80.862
 31
0.0
  0
LINE
  8
0
 62
     0
 10
69.9989
 20
80.862
 30
0.0
 11
69.9989
 21
82.4879
 31
0.0
  0
LINE
  8
0
 62
     0
 10
69.9989
 20
82.4879
 30
0.0
 11
76.2688
 21
82.4879
 31
0.0
  0
LINE
  8
0
 62
     0
 10
76.2688
 20
82.4879
 30
0.0
 11
76.2688
 21
83.3632
 31
0.0
  0
LINE
  8
0
 62
     0
 10
76.2688
 20
83.3632
 30
0.0
 11
79.0691
 21
83.3632
 31
0.0
  0
LINE
  8
0
 62
     0
 10
79.0691
 20
83.3632
 30
0.0
 11
79.0691
 21
82.4879
 31
0.0
  0
LINE
  8
0
 62
     0
 10
79.0691
 20
82.4879
 30
0.0
 11
82.2992
 21
82.4879
 31
0.0
  0
LINE
  8
0
 62
     0
 10
82.2992
 20
82.4879
 30
0.0
 11
82.2992
 21
80.862
 31
0.0
  0
LINE
  8
0
 62
     0
 10
82.2992
 20
80.862
 30
0.0
 11
83.2185
 21
80.862
 31
0.0
  0
LINE
  8
0
 62
     0
 10
83.2185
 20
80.862
 30
0.0
 11
83.2185
 21
77.5628
 31
0.0
  0
LINE
  8
0
 62
     0
 10
83.2185
 20
77.5628
 30
0.0
 11
82.2992
 21
77.5628
 31
0.0
  0
LINE
  8
0
 62
     0
 10
82.2992
 20
77.5628
 30
0.0
 11
82.2992
 21
75.8377
 31
0.0
  0
LINE
  8
0
 62
     0
 10
82.2992
 20
75.8377
 30
0.0
 11
81.4987
 21
75.8377
 31
0.0
  0
LINE
  8
0
 62
     0
 10
81.4987
 20
75.8377
 30
0.0
 11
81.4987
 21
75.0616
 31
0.0
  0
LINE
  8
0
 62
     0
 10
81.4987
 20
75.0616
 30
0.0
 11
83.1688
 21
75.0616
 31
0.0
  0
LINE
  8
0
 62
     0
 10
83.1688
 20
75.0616
 30
0.0
 11
83.1688
 21
74.2625
 31
0.0
  0
LINE
  8
0
 62
     0
 10
83.1688
 20
74.2625
 30
0.0
 11
83.7681
 21
74.2625
 31
0.0
  0
LINE
  8
0
 62
     0
 10
83.7681
 20
74.2625
 30
0.0
 11
83.7681
 21
60.2629
 31
0.0
  0
LINE
  8
0
 62
     0
 10
83.7681
 20
60.2629
 30
0.0
 11
83.1688
 21
60.2629
 31
0.0
  0
LINE
  8
0
 62
     0
 10
83.1688
 20
22.163
 30
0.0
 11
83.1688
 21
21.3624
 31
0.0
  0
LINE
  8
0
 62
     0
 10
83.1688
 20
21.3624
 30
0.0
 11
81.4987
 21
21.3624
 31
0.0
  0
LINE
  8
0
 62
     0
 10
81.4987
 20
21.3624
 30
0.0
 11
81.4987
 21
20.5879
 31
0.0
  0
LINE
  8
0
 62
     0
 10
81.4987
 20
20.5879
 30
0.0
 11
82.2992
 21
20.5879
 31
0.0
  0
LINE
  8
0
 62
     0
 10
82.2992
 20
20.5879
 30
0.0
 11
82.2992
 21
18.8626
 31
0.0
  0
LINE
  8
0
 62
     0
 10
82.2992
 20
18.8626
 30
0.0
 11
83.2185
 21
18.8626
 31
0.0
  0
LINE
  8
0
 62
     0
 10
83.2185
 20
18.8626
 30
0.0
 11
83.2185
 21
15.5622
 31
0.0
  0
LINE
  8
0
 62
     0
 10
83.2185
 20
15.5622
 30
0.0
 11
82.2992
 21
15.5622
 31
0.0
  0
LINE
  8
0
 62
     0
 10
82.2992
 20
15.5622
 30
0.0
 11
82.2992
 21
13.9375
 31
0.0
  0
LINE
  8
0
 62
     0
 10
82.2992
 20
13.9375
 30
0.0
 11
79.0691
 21
13.9375
 31
0.0
  0
LINE
  8
0
 62
     0
 10
79.0691
 20
13.9375
 30
0.0
 11
79.0691
 21
13.0624
 31
0.0
  0
LINE
  8
0
 62
     0
 10
79.0691
 20
13.0624
 30
0.0
 11
76.2688
 21
13.0624
 31
0.0
  0
LINE
  8
0
 62
     0
 10
76.2688
 20
13.0624
 30
0.0
 11
76.2688
 21
13.9375
 31
0.0
  0
LINE
  8
0
 62
     0
 10
76.2688
 20
13.9375
 30
0.0
 11
69.9989
 21
13.9375
 31
0.0
  0
LINE
  8
0
 62
     0
 10
69.9989
 20
13.9375
 30
0.0
 11
69.9989
 21
15.5622
 31
0.0
  0
LINE
  8
0
 62
     0
 10
69.9989
 20
15.5622
 30
0.0
 11
69.0192
 21
15.5622
 31
0.0
  0
LINE
  8
0
 62
     0
 10
69.0192
 20
15.5622
 30
0.0
 11
69.0192
 21
18.8626
 31
0.0
  0
LINE
  8
0
 62
     0
 10
69.0192
 20
18.8626
 30
0.0
 11
69.9989
 21
18.8626
 31
0.0
  0
LINE
  8
0
 62
     0
 10
69.9989
 20
18.8626
 30
0.0
 11
69.9989
 21
20.5879
 31
0.0
  0
LINE
  8
0
 62
     0
 10
69.9989
 20
20.5879
 30
0.0
 11
70.7983
 21
20.5879
 31
0.0
  0
LINE
  8
0
 62
     0
 10
70.7983
 20
20.5879
 30
0.0
 11
70.7983
 21
21.3624
 31
0.0
  0
LINE
  8
0
 62
     0
 10
70.7983
 20
21.3624
 30
0.0
 11
70.3682
 21
21.3624
 31
0.0
  0
LINE
  8
0
 62
     0
 10
70.3682
 20
21.3624
 30
0.0
 11
70.3682
 21
22.163
 31
0.0
  0
LINE
  8
0
 62
     0
 10
70.3682
 20
22.163
 30
0.0
 11
69.7689
 21
22.163
 31
0.0
  0
LINE
  8
0
 62
     0
 10
69.7689
 20
22.163
 30
0.0
 11
69.7689
 21
36.1625
 31
0.0
  0
LINE
  8
0
 62
     0
 10
69.7689
 20
36.1625
 30
0.0
 11
70.3682
 21
36.1625
 31
0.0
  0
LINE
  8
0
 62
     0
 10
70.3682
 20
36.1625
 30
0.0
 11
70.3682
 21
36.9616
 31
0.0
  0
LINE
  8
0
 62
     0
 10
70.3682
 20
36.9616
 30
0.0
 11
70.7983
 21
36.9616
 31
0.0
  0
LINE
  8
0
 62
     0
 10
70.7983
 20
36.9616
 30
0.0
 11
70.7983
 21
37.7377
 31
0.0
  0
LINE
  8
0
 62
     0
 10
70.7983
 20
37.7377
 30
0.0
 11
69.9989
 21
37.7377
 31
0.0
  0
LINE
  8
0
 62
     0
 10
69.9989
 20
37.7377
 30
0.0
 11
69.9989
 21
39.4628
 31
0.0
  0
LINE
  8
0
 62
     0
 10
69.9989
 20
39.4628
 30
0.0
 11
69.0192
 21
39.4628
 31
0.0
  0
LINE
  8
0
 62
     0
 10
69.0192
 20
39.4628
 30
0.0
 11
69.0192
 21
42.762
 31
0.0
  0
LINE
  8
0
 62
     0
 10
69.0192
 20
42.762
 30
0.0
 11
69.9989
 21
42.762
 31
0.0
  0
LINE
  8
0
 62
     0
 10
69.9989
 20
42.762
 30
0.0
 11
69.9989
 21
44.3879
 31
0.0
  0
LINE
  8
0
 62
     0
 10
69.9989
 20
44.3879
 30
0.0
 11
76.2688
 21
44.3879
 31
0.0
  0
LINE
  8
0
 62
     0
 10
76.2688
 20
44.3879
 30
0.0
 11
76.2688
 21
45.2632
 31
0.0
  0
LINE
  8
0
 62
     0
 10
76.2688
 20
45.2632
 30
0.0
 11
79.0691
 21
45.2632
 31
0.0
  0
LINE
  8
0
 62
     0
 10
79.0691
 20
45.2632
 30
0.0
 11
79.0691
 21
44.3879
 31
0.0
  0
LINE
  8
0
 62
     0
 10
79.0691
 20
44.3879
 30
0.0
 11
82.2992
 21
44.3879
 31
0.0
  0
LINE
  8
0
 62
     0
 10
82.2992
 20
44.3879
 30
0.0
 11
82.2992
 21
42.762
 31
0.0
  0
LINE
  8
0
 62
     0
 10
82.2992
 20
42.762
 30
0.0
 11
83.2185
 21
42.762
 31
0.0
  0
LINE
  8
0
 62
     0
 10
83.2185
 20
42.762
 30
0.0
 11
83.2185
 21
39.4628
 31
0.0
  0
LINE
  8
0
 62
     0
 10
83.2185
 20
39.4628
 30
0.0
 11
82.2992
 21
39.4628
 31
0.0
  0
LINE
  8
0
 62
     0
 10
82.2992
 20
39.4628
 30
0.0
 11
82.2992
 21
37.7377
 31
0.0
  0
LINE
  8
0
 62
     0
 10
82.2992
 20
37.7377
 30
0.0
 11
81.4987
 21
37.7377
 31
0.0
  0
LINE
  8
0
 62
     0
 10
81.4987
 20
37.7377
 30
0.0
 11
81.4987
 21
36.9616
 31
0.0
  0
LINE
  8
0
 62
     0
 10
81.4987
 20
36.9616
 30
0.0
 11
83.1688
 21
36.9616
 31
0.0
  0
LINE
  8
0
 62
     0
 10
83.1688
 20
36.9616
 30
0.0
 11
83.1688
 21
36.1625
 31
0.0
  0
LINE
  8
0
 62
     0
 10
83.1688
 20
36.1625
 30
0.0
 11
83.7681
 21
36.1625
 31
0.0
  0
LINE
  8
0
 62
     0
 10
83.7681
 20
36.1625
 30
0.0
 11
83.7681
 21
22.163
 31
0.0
  0
LINE
  8
0
 62
     0
 10
83.7681
 20
22.163
 30
0.0
 11
83.1688
 21
22.163
 31
0.0
  0
LINE
  8
0
 62
     0
 10
83.7681
 20
118.012
 30
0.0
 11
83.7681
 21
117.413
 31
0.0
  0
LINE
  8
0
 62
     0
 10
83.7681
 20
117.413
 30
0.0
 11
69.7689
 21
117.413
 31
0.0
  0
LINE
  8
0
 62
     0
 10
69.7689
 20
117.413
 30
0.0
 11
69.7689
 21
118.012
 31
0.0
  0
LINE
  8
0
 62
     0
 10
69.7689
 20
118.012
 30
0.0
 11
68.9695
 21
118.012
 31
0.0
  0
LINE
  8
0
 62
     0
 10
68.9695
 20
118.012
 30
0.0
 11
68.9695
 21
130.813
 31
0.0
  0
LINE
  8
0
 62
     0
 10
68.9695
 20
130.813
 30
0.0
 11
69.7689
 21
130.813
 31
0.0
  0
LINE
  8
0
 62
     0
 10
69.7689
 20
130.813
 30
0.0
 11
69.7689
 21
131.413
 31
0.0
  0
LINE
  8
0
 62
     0
 10
69.7689
 20
131.413
 30
0.0
 11
83.7681
 21
131.413
 31
0.0
  0
LINE
  8
0
 62
     0
 10
83.7681
 20
131.413
 30
0.0
 11
83.7681
 21
130.813
 31
0.0
  0
LINE
  8
0
 62
     0
 10
83.7681
 20
130.813
 30
0.0
 11
84.569
 21
130.813
 31
0.0
  0
LINE
  8
0
 62
     0
 10
84.569
 20
130.813
 30
0.0
 11
84.569
 21
118.012
 31
0.0
  0
LINE
  8
0
 62
     0
 10
84.569
 20
118.012
 30
0.0
 11
83.7681
 21
118.012
 31
0.0
  0
LINE
  8
0
 62
     0
 10
83.7681
 20
89.4373
 30
0.0
 11
83.7681
 21
88.8379
 31
0.0
  0
LINE
  8
0
 62
     0
 10
83.7681
 20
88.8379
 30
0.0
 11
69.7689
 21
88.8379
 31
0.0
  0
LINE
  8
0
 62
     0
 10
69.7689
 20
88.8379
 30
0.0
 11
69.7689
 21
89.4373
 31
0.0
  0
LINE
  8
0
 62
     0
 10
69.7689
 20
89.4373
 30
0.0
 11
68.9695
 21
89.4373
 31
0.0
  0
LINE
  8
0
 62
     0
 10
68.9695
 20
89.4373
 30
0.0
 11
68.9695
 21
102.238
 31
0.0
  0
LINE
  8
0
 62
     0
 10
68.9695
 20
102.238
 30
0.0
 11
69.7689
 21
102.238
 31
0.0
  0
LINE
  8
0
 62
     0
 10
69.7689
 20
102.238
 30
0.0
 11
69.7689
 21
102.838
 31
0.0
  0
LINE
  8
0
 62
     0
 10
69.7689
 20
102.838
 30
0.0
 11
83.7681
 21
102.838
 31
0.0
  0
LINE
  8
0
 62
     0
 10
83.7681
 20
102.838
 30
0.0
 11
83.7681
 21
102.238
 31
0.0
  0
LINE
  8
0
 62
     0
 10
83.7681
 20
102.238
 30
0.0
 11
84.569
 21
102.238
 31
0.0
  0
LINE
  8
0
 62
     0
 10
84.569
 20
102.238
 30
0.0
 11
84.569
 21
89.4373
 31
0.0
  0
LINE
  8
0
 62
     0
 10
84.569
 20
89.4373
 30
0.0
 11
83.7681
 21
89.4373
 31
0.0
  0
ENDSEC
  0
EOF
