  0
SECTION
  2
HEADER
  9
$ACADVER
  1
AC1009
  9
$EXTMIN
 10
0.0
 20
0.0
 30
0.0
  9
$EXTMAX
 10
1000.0
 20
1000.0
 30
0.0
  9
$FILLMODE
 70
 0
  9
$SPLFRAME
 70
 1
  0
ENDSEC
  0
SECTION
  2
TABLES
  0
TABLE
  2
LAYER
 70
1
  0
LAYER
  2
0
 70
     0
 62
     7
  6
CONTINUOUS
  0
ENDTAB
  0
ENDSEC
  0
SECTION
  2
ENTITIES
  0
LINE
  8
0
 62
     0
 10
341.944
 20
39.1555
 30
0.0
 11
342.101
 21
39.1513
 31
0.0
  0
LINE
  8
0
 62
     0
 10
342.101
 20
39.1513
 30
0.0
 11
342.257
 21
39.1308
 31
0.0
  0
LINE
  8
0
 62
     0
 10
342.257
 20
39.1308
 30
0.0
 11
342.411
 21
39.1005
 31
0.0
  0
LINE
  8
0
 62
     0
 10
342.411
 20
39.1005
 30
0.0
 11
342.562
 21
39.0578
 31
0.0
  0
LINE
  8
0
 62
     0
 10
342.562
 20
39.0578
 30
0.0
 11
342.708
 21
39.0052
 31
0.0
  0
LINE
  8
0
 62
     0
 10
342.708
 20
39.0052
 30
0.0
 11
342.852
 21
38.9378
 31
0.0
  0
LINE
  8
0
 62
     0
 10
342.852
 20
38.9378
 30
0.0
 11
342.988
 21
38.8606
 31
0.0
  0
LINE
  8
0
 62
     0
 10
342.988
 20
38.8606
 30
0.0
 11
343.119
 21
38.7738
 31
0.0
  0
LINE
  8
0
 62
     0
 10
343.119
 20
38.7738
 30
0.0
 11
343.243
 21
38.6775
 31
0.0
  0
LINE
  8
0
 62
     0
 10
343.243
 20
38.6775
 30
0.0
 11
343.358
 21
38.5699
 31
0.0
  0
LINE
  8
0
 62
     0
 10
343.358
 20
38.5699
 30
0.0
 11
343.465
 21
38.4542
 31
0.0
  0
LINE
  8
0
 62
     0
 10
343.465
 20
38.4542
 30
0.0
 11
343.561
 21
38.3314
 31
0.0
  0
LINE
  8
0
 62
     0
 10
343.561
 20
38.3314
 30
0.0
 11
343.648
 21
38.2005
 31
0.0
  0
LINE
  8
0
 62
     0
 10
343.648
 20
38.2005
 30
0.0
 11
343.726
 21
38.0654
 31
0.0
  0
LINE
  8
0
 62
     0
 10
343.726
 20
38.0654
 30
0.0
 11
343.791
 21
37.9208
 31
0.0
  0
LINE
  8
0
 62
     0
 10
343.791
 20
37.9208
 30
0.0
 11
343.845
 21
37.7733
 31
0.0
  0
LINE
  8
0
 62
     0
 10
343.845
 20
37.7733
 30
0.0
 11
343.89
 21
37.6245
 31
0.0
  0
LINE
  8
0
 62
     0
 10
343.89
 20
37.6245
 30
0.0
 11
343.918
 21
37.4689
 31
0.0
  0
LINE
  8
0
 62
     0
 10
343.918
 20
37.4689
 30
0.0
 11
343.938
 21
37.3144
 31
0.0
  0
LINE
  8
0
 62
     0
 10
343.938
 20
37.3144
 30
0.0
 11
343.943
 21
37.156
 31
0.0
  0
LINE
  8
0
 62
     0
 10
343.943
 20
37.156
 30
0.0
 11
343.943
 21
2.10702
 31
0.0
  0
LINE
  8
0
 62
     0
 10
343.943
 20
2.10702
 30
0.0
 11
343.938
 21
1.94992
 31
0.0
  0
LINE
  8
0
 62
     0
 10
343.938
 20
1.94992
 30
0.0
 11
343.918
 21
1.79283
 31
0.0
  0
LINE
  8
0
 62
     0
 10
343.918
 20
1.79283
 30
0.0
 11
343.89
 21
1.63987
 31
0.0
  0
LINE
  8
0
 62
     0
 10
343.89
 20
1.63987
 30
0.0
 11
343.845
 21
1.4869
 31
0.0
  0
LINE
  8
0
 62
     0
 10
343.845
 20
1.4869
 30
0.0
 11
343.791
 21
1.34221
 31
0.0
  0
LINE
  8
0
 62
     0
 10
343.791
 20
1.34221
 30
0.0
 11
343.726
 21
1.19889
 31
0.0
  0
LINE
  8
0
 62
     0
 10
343.726
 20
1.19889
 30
0.0
 11
343.648
 21
1.06247
 31
0.0
  0
LINE
  8
0
 62
     0
 10
343.648
 20
1.06247
 30
0.0
 11
343.561
 21
0.931556
 31
0.0
  0
LINE
  8
0
 62
     0
 10
343.561
 20
0.931556
 30
0.0
 11
343.465
 21
0.806154
 31
0.0
  0
LINE
  8
0
 62
     0
 10
343.465
 20
0.806154
 30
0.0
 11
343.358
 21
0.691776
 31
0.0
  0
LINE
  8
0
 62
     0
 10
343.358
 20
0.691776
 30
0.0
 11
343.243
 21
0.584288
 31
0.0
  0
LINE
  8
0
 62
     0
 10
343.243
 20
0.584288
 30
0.0
 11
343.119
 21
0.489204
 31
0.0
  0
LINE
  8
0
 62
     0
 10
343.119
 20
0.489204
 30
0.0
 11
342.988
 21
0.402389
 31
0.0
  0
LINE
  8
0
 62
     0
 10
342.988
 20
0.402389
 30
0.0
 11
342.852
 21
0.323839
 31
0.0
  0
LINE
  8
0
 62
     0
 10
342.852
 20
0.323839
 30
0.0
 11
342.708
 21
0.259071
 31
0.0
  0
LINE
  8
0
 62
     0
 10
342.708
 20
0.259071
 30
0.0
 11
342.562
 21
0.20395
 31
0.0
  0
LINE
  8
0
 62
     0
 10
342.562
 20
0.20395
 30
0.0
 11
342.411
 21
0.159852
 31
0.0
  0
LINE
  8
0
 62
     0
 10
342.411
 20
0.159852
 30
0.0
 11
342.257
 21
0.130914
 31
0.0
  0
LINE
  8
0
 62
     0
 10
342.257
 20
0.130914
 30
0.0
 11
342.101
 21
0.112999
 31
0.0
  0
LINE
  8
0
 62
     0
 10
342.101
 20
0.112999
 30
0.0
 11
341.944
 21
0.107487
 31
0.0
  0
LINE
  8
0
 62
     0
 10
341.944
 20
0.107487
 30
0.0
 11
2.09324
 21
0.107487
 31
0.0
  0
LINE
  8
0
 62
     0
 10
2.09324
 20
0.107487
 30
0.0
 11
1.93614
 21
0.112999
 31
0.0
  0
LINE
  8
0
 62
     0
 10
1.93614
 20
0.112999
 30
0.0
 11
1.78043
 21
0.130914
 31
0.0
  0
LINE
  8
0
 62
     0
 10
1.78043
 20
0.130914
 30
0.0
 11
1.62609
 21
0.159852
 31
0.0
  0
LINE
  8
0
 62
     0
 10
1.62609
 20
0.159852
 30
0.0
 11
1.47588
 21
0.20395
 31
0.0
  0
LINE
  8
0
 62
     0
 10
1.47588
 20
0.20395
 30
0.0
 11
1.32843
 21
0.259071
 31
0.0
  0
LINE
  8
0
 62
     0
 10
1.32843
 20
0.259071
 30
0.0
 11
1.18511
 21
0.323839
 31
0.0
  0
LINE
  8
0
 62
     0
 10
1.18511
 20
0.323839
 30
0.0
 11
1.04869
 21
0.402389
 31
0.0
  0
LINE
  8
0
 62
     0
 10
1.04869
 20
0.402389
 30
0.0
 11
0.917773
 21
0.489204
 31
0.0
  0
LINE
  8
0
 62
     0
 10
0.917773
 20
0.489204
 30
0.0
 11
0.795129
 21
0.584288
 31
0.0
  0
LINE
  8
0
 62
     0
 10
0.795129
 20
0.584288
 30
0.0
 11
0.679372
 21
0.691776
 31
0.0
  0
LINE
  8
0
 62
     0
 10
0.679372
 20
0.691776
 30
0.0
 11
0.573264
 21
0.806154
 31
0.0
  0
LINE
  8
0
 62
     0
 10
0.573264
 20
0.806154
 30
0.0
 11
0.475424
 21
0.931556
 31
0.0
  0
LINE
  8
0
 62
     0
 10
0.475424
 20
0.931556
 30
0.0
 11
0.388606
 21
1.06247
 31
0.0
  0
LINE
  8
0
 62
     0
 10
0.388606
 20
1.06247
 30
0.0
 11
0.311437
 21
1.19889
 31
0.0
  0
LINE
  8
0
 62
     0
 10
0.311437
 20
1.19889
 30
0.0
 11
0.245291
 21
1.34221
 31
0.0
  0
LINE
  8
0
 62
     0
 10
0.245291
 20
1.34221
 30
0.0
 11
0.191547
 21
1.4869
 31
0.0
  0
LINE
  8
0
 62
     0
 10
0.191547
 20
1.4869
 30
0.0
 11
0.148828
 21
1.63987
 31
0.0
  0
LINE
  8
0
 62
     0
 10
0.148828
 20
1.63987
 30
0.0
 11
0.118511
 21
1.79283
 31
0.0
  0
LINE
  8
0
 62
     0
 10
0.118511
 20
1.79283
 30
0.0
 11
0.0992188
 21
1.94992
 31
0.0
  0
LINE
  8
0
 62
     0
 10
0.0992188
 20
1.94992
 30
0.0
 11
0.0937066
 21
2.10702
 31
0.0
  0
LINE
  8
0
 62
     0
 10
0.0937066
 20
2.10702
 30
0.0
 11
0.0937066
 21
37.156
 31
0.0
  0
LINE
  8
0
 62
     0
 10
0.0937066
 20
37.156
 30
0.0
 11
0.0992188
 21
37.3144
 31
0.0
  0
LINE
  8
0
 62
     0
 10
0.0992188
 20
37.3144
 30
0.0
 11
0.118511
 21
37.4689
 31
0.0
  0
LINE
  8
0
 62
     0
 10
0.118511
 20
37.4689
 30
0.0
 11
0.148828
 21
37.6245
 31
0.0
  0
LINE
  8
0
 62
     0
 10
0.148828
 20
37.6245
 30
0.0
 11
0.191547
 21
37.7733
 31
0.0
  0
LINE
  8
0
 62
     0
 10
0.191547
 20
37.7733
 30
0.0
 11
0.245291
 21
37.9208
 31
0.0
  0
LINE
  8
0
 62
     0
 10
0.245291
 20
37.9208
 30
0.0
 11
0.311437
 21
38.0654
 31
0.0
  0
LINE
  8
0
 62
     0
 10
0.311437
 20
38.0654
 30
0.0
 11
0.388606
 21
38.2005
 31
0.0
  0
LINE
  8
0
 62
     0
 10
0.388606
 20
38.2005
 30
0.0
 11
0.475424
 21
38.3314
 31
0.0
  0
LINE
  8
0
 62
     0
 10
0.475424
 20
38.3314
 30
0.0
 11
0.573264
 21
38.4542
 31
0.0
  0
LINE
  8
0
 62
     0
 10
0.573264
 20
38.4542
 30
0.0
 11
0.679372
 21
38.5699
 31
0.0
  0
LINE
  8
0
 62
     0
 10
0.679372
 20
38.5699
 30
0.0
 11
0.795129
 21
38.6775
 31
0.0
  0
LINE
  8
0
 62
     0
 10
0.795129
 20
38.6775
 30
0.0
 11
0.917773
 21
38.7738
 31
0.0
  0
LINE
  8
0
 62
     0
 10
0.917773
 20
38.7738
 30
0.0
 11
1.04869
 21
38.8606
 31
0.0
  0
LINE
  8
0
 62
     0
 10
1.04869
 20
38.8606
 30
0.0
 11
1.18511
 21
38.9378
 31
0.0
  0
LINE
  8
0
 62
     0
 10
1.18511
 20
38.9378
 30
0.0
 11
1.32843
 21
39.0052
 31
0.0
  0
LINE
  8
0
 62
     0
 10
1.32843
 20
39.0052
 30
0.0
 11
1.47588
 21
39.0578
 31
0.0
  0
LINE
  8
0
 62
     0
 10
1.47588
 20
39.0578
 30
0.0
 11
1.62609
 21
39.1005
 31
0.0
  0
LINE
  8
0
 62
     0
 10
1.62609
 20
39.1005
 30
0.0
 11
1.78043
 21
39.1308
 31
0.0
  0
LINE
  8
0
 62
     0
 10
1.78043
 20
39.1308
 30
0.0
 11
1.93614
 21
39.1513
 31
0.0
  0
LINE
  8
0
 62
     0
 10
1.93614
 20
39.1513
 30
0.0
 11
2.09324
 21
39.1555
 31
0.0
  0
LINE
  8
0
 62
     0
 10
2.09324
 20
39.1555
 30
0.0
 11
341.944
 21
39.1555
 31
0.0
  0
LINE
  8
0
 62
     0
 10
116.377
 20
35.6553
 30
0.0
 11
116.841
 21
35.5822
 31
0.0
  0
LINE
  8
0
 62
     0
 10
116.841
 20
35.5822
 30
0.0
 11
117.259
 21
35.3716
 31
0.0
  0
LINE
  8
0
 62
     0
 10
117.259
 20
35.3716
 30
0.0
 11
117.591
 21
35.038
 31
0.0
  0
LINE
  8
0
 62
     0
 10
117.591
 20
35.038
 30
0.0
 11
117.804
 21
34.6204
 31
0.0
  0
LINE
  8
0
 62
     0
 10
117.804
 20
34.6204
 30
0.0
 11
117.878
 21
34.156
 31
0.0
  0
LINE
  8
0
 62
     0
 10
117.878
 20
34.156
 30
0.0
 11
117.804
 21
33.6917
 31
0.0
  0
LINE
  8
0
 62
     0
 10
117.804
 20
33.6917
 30
0.0
 11
117.591
 21
33.2741
 31
0.0
  0
LINE
  8
0
 62
     0
 10
117.591
 20
33.2741
 30
0.0
 11
117.259
 21
32.942
 31
0.0
  0
LINE
  8
0
 62
     0
 10
117.259
 20
32.942
 30
0.0
 11
116.841
 21
32.7298
 31
0.0
  0
LINE
  8
0
 62
     0
 10
116.841
 20
32.7298
 30
0.0
 11
116.377
 21
32.6567
 31
0.0
  0
LINE
  8
0
 62
     0
 10
116.377
 20
32.6567
 30
0.0
 11
115.914
 21
32.7298
 31
0.0
  0
LINE
  8
0
 62
     0
 10
115.914
 20
32.7298
 30
0.0
 11
115.496
 21
32.942
 31
0.0
  0
LINE
  8
0
 62
     0
 10
115.496
 20
32.942
 30
0.0
 11
115.164
 21
33.2741
 31
0.0
  0
LINE
  8
0
 62
     0
 10
115.164
 20
33.2741
 30
0.0
 11
114.951
 21
33.6917
 31
0.0
  0
LINE
  8
0
 62
     0
 10
114.951
 20
33.6917
 30
0.0
 11
114.877
 21
34.156
 31
0.0
  0
LINE
  8
0
 62
     0
 10
114.877
 20
34.156
 30
0.0
 11
114.951
 21
34.6204
 31
0.0
  0
LINE
  8
0
 62
     0
 10
114.951
 20
34.6204
 30
0.0
 11
115.164
 21
35.038
 31
0.0
  0
LINE
  8
0
 62
     0
 10
115.164
 20
35.038
 30
0.0
 11
115.496
 21
35.3716
 31
0.0
  0
LINE
  8
0
 62
     0
 10
115.496
 20
35.3716
 30
0.0
 11
115.914
 21
35.5822
 31
0.0
  0
LINE
  8
0
 62
     0
 10
115.914
 20
35.5822
 30
0.0
 11
116.377
 21
35.6553
 31
0.0
  0
LINE
  8
0
 62
     0
 10
227.66
 20
35.6553
 30
0.0
 11
228.123
 21
35.5822
 31
0.0
  0
LINE
  8
0
 62
     0
 10
228.123
 20
35.5822
 30
0.0
 11
228.542
 21
35.3716
 31
0.0
  0
LINE
  8
0
 62
     0
 10
228.542
 20
35.3716
 30
0.0
 11
228.874
 21
35.038
 31
0.0
  0
LINE
  8
0
 62
     0
 10
228.874
 20
35.038
 30
0.0
 11
229.086
 21
34.6204
 31
0.0
  0
LINE
  8
0
 62
     0
 10
229.086
 20
34.6204
 30
0.0
 11
229.161
 21
34.156
 31
0.0
  0
LINE
  8
0
 62
     0
 10
229.161
 20
34.156
 30
0.0
 11
229.086
 21
33.6917
 31
0.0
  0
LINE
  8
0
 62
     0
 10
229.086
 20
33.6917
 30
0.0
 11
228.874
 21
33.2741
 31
0.0
  0
LINE
  8
0
 62
     0
 10
228.874
 20
33.2741
 30
0.0
 11
228.542
 21
32.942
 31
0.0
  0
LINE
  8
0
 62
     0
 10
228.542
 20
32.942
 30
0.0
 11
228.123
 21
32.7298
 31
0.0
  0
LINE
  8
0
 62
     0
 10
228.123
 20
32.7298
 30
0.0
 11
227.66
 21
32.6567
 31
0.0
  0
LINE
  8
0
 62
     0
 10
227.66
 20
32.6567
 30
0.0
 11
227.197
 21
32.7298
 31
0.0
  0
LINE
  8
0
 62
     0
 10
227.197
 20
32.7298
 30
0.0
 11
226.778
 21
32.942
 31
0.0
  0
LINE
  8
0
 62
     0
 10
226.778
 20
32.942
 30
0.0
 11
226.446
 21
33.2741
 31
0.0
  0
LINE
  8
0
 62
     0
 10
226.446
 20
33.2741
 30
0.0
 11
226.234
 21
33.6917
 31
0.0
  0
LINE
  8
0
 62
     0
 10
226.234
 20
33.6917
 30
0.0
 11
226.161
 21
34.156
 31
0.0
  0
LINE
  8
0
 62
     0
 10
226.161
 20
34.156
 30
0.0
 11
226.234
 21
34.6204
 31
0.0
  0
LINE
  8
0
 62
     0
 10
226.234
 20
34.6204
 30
0.0
 11
226.446
 21
35.038
 31
0.0
  0
LINE
  8
0
 62
     0
 10
226.446
 20
35.038
 30
0.0
 11
226.778
 21
35.3716
 31
0.0
  0
LINE
  8
0
 62
     0
 10
226.778
 20
35.3716
 30
0.0
 11
227.197
 21
35.5822
 31
0.0
  0
LINE
  8
0
 62
     0
 10
227.197
 20
35.5822
 30
0.0
 11
227.66
 21
35.6553
 31
0.0
  0
LINE
  8
0
 62
     0
 10
338.944
 20
35.6553
 30
0.0
 11
339.408
 21
35.5822
 31
0.0
  0
LINE
  8
0
 62
     0
 10
339.408
 20
35.5822
 30
0.0
 11
339.826
 21
35.3716
 31
0.0
  0
LINE
  8
0
 62
     0
 10
339.826
 20
35.3716
 30
0.0
 11
340.158
 21
35.038
 31
0.0
  0
LINE
  8
0
 62
     0
 10
340.158
 20
35.038
 30
0.0
 11
340.371
 21
34.6204
 31
0.0
  0
LINE
  8
0
 62
     0
 10
340.371
 20
34.6204
 30
0.0
 11
340.444
 21
34.156
 31
0.0
  0
LINE
  8
0
 62
     0
 10
340.444
 20
34.156
 30
0.0
 11
340.371
 21
33.6917
 31
0.0
  0
LINE
  8
0
 62
     0
 10
340.371
 20
33.6917
 30
0.0
 11
340.158
 21
33.2741
 31
0.0
  0
LINE
  8
0
 62
     0
 10
340.158
 20
33.2741
 30
0.0
 11
339.826
 21
32.942
 31
0.0
  0
LINE
  8
0
 62
     0
 10
339.826
 20
32.942
 30
0.0
 11
339.408
 21
32.7298
 31
0.0
  0
LINE
  8
0
 62
     0
 10
339.408
 20
32.7298
 30
0.0
 11
338.944
 21
32.6567
 31
0.0
  0
LINE
  8
0
 62
     0
 10
338.944
 20
32.6567
 30
0.0
 11
338.479
 21
32.7298
 31
0.0
  0
LINE
  8
0
 62
     0
 10
338.479
 20
32.7298
 30
0.0
 11
338.062
 21
32.942
 31
0.0
  0
LINE
  8
0
 62
     0
 10
338.062
 20
32.942
 30
0.0
 11
337.73
 21
33.2741
 31
0.0
  0
LINE
  8
0
 62
     0
 10
337.73
 20
33.2741
 30
0.0
 11
337.517
 21
33.6917
 31
0.0
  0
LINE
  8
0
 62
     0
 10
337.517
 20
33.6917
 30
0.0
 11
337.444
 21
34.156
 31
0.0
  0
LINE
  8
0
 62
     0
 10
337.444
 20
34.156
 30
0.0
 11
337.517
 21
34.6204
 31
0.0
  0
LINE
  8
0
 62
     0
 10
337.517
 20
34.6204
 30
0.0
 11
337.73
 21
35.038
 31
0.0
  0
LINE
  8
0
 62
     0
 10
337.73
 20
35.038
 30
0.0
 11
338.062
 21
35.3716
 31
0.0
  0
LINE
  8
0
 62
     0
 10
338.062
 20
35.3716
 30
0.0
 11
338.479
 21
35.5822
 31
0.0
  0
LINE
  8
0
 62
     0
 10
338.479
 20
35.5822
 30
0.0
 11
338.944
 21
35.6553
 31
0.0
  0
LINE
  8
0
 62
     0
 10
338.944
 20
6.60633
 30
0.0
 11
339.408
 21
6.53327
 31
0.0
  0
LINE
  8
0
 62
     0
 10
339.408
 20
6.53327
 30
0.0
 11
339.826
 21
6.3197
 31
0.0
  0
LINE
  8
0
 62
     0
 10
339.826
 20
6.3197
 30
0.0
 11
340.158
 21
5.98897
 31
0.0
  0
LINE
  8
0
 62
     0
 10
340.158
 20
5.98897
 30
0.0
 11
340.371
 21
5.57004
 31
0.0
  0
LINE
  8
0
 62
     0
 10
340.371
 20
5.57004
 30
0.0
 11
340.444
 21
5.10702
 31
0.0
  0
LINE
  8
0
 62
     0
 10
340.444
 20
5.10702
 30
0.0
 11
340.371
 21
4.64125
 31
0.0
  0
LINE
  8
0
 62
     0
 10
340.371
 20
4.64125
 30
0.0
 11
340.158
 21
4.22508
 31
0.0
  0
LINE
  8
0
 62
     0
 10
340.158
 20
4.22508
 30
0.0
 11
339.826
 21
3.8916
 31
0.0
  0
LINE
  8
0
 62
     0
 10
339.826
 20
3.8916
 30
0.0
 11
339.408
 21
3.67937
 31
0.0
  0
LINE
  8
0
 62
     0
 10
339.408
 20
3.67937
 30
0.0
 11
338.944
 21
3.60634
 31
0.0
  0
LINE
  8
0
 62
     0
 10
338.944
 20
3.60634
 30
0.0
 11
338.479
 21
3.67937
 31
0.0
  0
LINE
  8
0
 62
     0
 10
338.479
 20
3.67937
 30
0.0
 11
338.062
 21
3.8916
 31
0.0
  0
LINE
  8
0
 62
     0
 10
338.062
 20
3.8916
 30
0.0
 11
337.73
 21
4.22508
 31
0.0
  0
LINE
  8
0
 62
     0
 10
337.73
 20
4.22508
 30
0.0
 11
337.517
 21
4.64125
 31
0.0
  0
LINE
  8
0
 62
     0
 10
337.517
 20
4.64125
 30
0.0
 11
337.444
 21
5.10702
 31
0.0
  0
LINE
  8
0
 62
     0
 10
337.444
 20
5.10702
 30
0.0
 11
337.517
 21
5.57004
 31
0.0
  0
LINE
  8
0
 62
     0
 10
337.517
 20
5.57004
 30
0.0
 11
337.73
 21
5.98897
 31
0.0
  0
LINE
  8
0
 62
     0
 10
337.73
 20
5.98897
 30
0.0
 11
338.062
 21
6.3197
 31
0.0
  0
LINE
  8
0
 62
     0
 10
338.062
 20
6.3197
 30
0.0
 11
338.479
 21
6.53327
 31
0.0
  0
LINE
  8
0
 62
     0
 10
338.479
 20
6.53327
 30
0.0
 11
338.944
 21
6.60633
 31
0.0
  0
LINE
  8
0
 62
     0
 10
227.66
 20
6.60633
 30
0.0
 11
228.123
 21
6.53327
 31
0.0
  0
LINE
  8
0
 62
     0
 10
228.123
 20
6.53327
 30
0.0
 11
228.542
 21
6.3197
 31
0.0
  0
LINE
  8
0
 62
     0
 10
228.542
 20
6.3197
 30
0.0
 11
228.874
 21
5.98897
 31
0.0
  0
LINE
  8
0
 62
     0
 10
228.874
 20
5.98897
 30
0.0
 11
229.086
 21
5.57004
 31
0.0
  0
LINE
  8
0
 62
     0
 10
229.086
 20
5.57004
 30
0.0
 11
229.161
 21
5.10702
 31
0.0
  0
LINE
  8
0
 62
     0
 10
229.161
 20
5.10702
 30
0.0
 11
229.086
 21
4.64125
 31
0.0
  0
LINE
  8
0
 62
     0
 10
229.086
 20
4.64125
 30
0.0
 11
228.874
 21
4.22508
 31
0.0
  0
LINE
  8
0
 62
     0
 10
228.874
 20
4.22508
 30
0.0
 11
228.542
 21
3.8916
 31
0.0
  0
LINE
  8
0
 62
     0
 10
228.542
 20
3.8916
 30
0.0
 11
228.123
 21
3.67937
 31
0.0
  0
LINE
  8
0
 62
     0
 10
228.123
 20
3.67937
 30
0.0
 11
227.66
 21
3.60634
 31
0.0
  0
LINE
  8
0
 62
     0
 10
227.66
 20
3.60634
 30
0.0
 11
227.197
 21
3.67937
 31
0.0
  0
LINE
  8
0
 62
     0
 10
227.197
 20
3.67937
 30
0.0
 11
226.778
 21
3.8916
 31
0.0
  0
LINE
  8
0
 62
     0
 10
226.778
 20
3.8916
 30
0.0
 11
226.446
 21
4.22508
 31
0.0
  0
LINE
  8
0
 62
     0
 10
226.446
 20
4.22508
 30
0.0
 11
226.234
 21
4.64125
 31
0.0
  0
LINE
  8
0
 62
     0
 10
226.234
 20
4.64125
 30
0.0
 11
226.161
 21
5.10702
 31
0.0
  0
LINE
  8
0
 62
     0
 10
226.161
 20
5.10702
 30
0.0
 11
226.234
 21
5.57004
 31
0.0
  0
LINE
  8
0
 62
     0
 10
226.234
 20
5.57004
 30
0.0
 11
226.446
 21
5.98897
 31
0.0
  0
LINE
  8
0
 62
     0
 10
226.446
 20
5.98897
 30
0.0
 11
226.778
 21
6.3197
 31
0.0
  0
LINE
  8
0
 62
     0
 10
226.778
 20
6.3197
 30
0.0
 11
227.197
 21
6.53327
 31
0.0
  0
LINE
  8
0
 62
     0
 10
227.197
 20
6.53327
 30
0.0
 11
227.66
 21
6.60633
 31
0.0
  0
LINE
  8
0
 62
     0
 10
116.377
 20
6.60633
 30
0.0
 11
116.841
 21
6.53327
 31
0.0
  0
LINE
  8
0
 62
     0
 10
116.841
 20
6.53327
 30
0.0
 11
117.259
 21
6.3197
 31
0.0
  0
LINE
  8
0
 62
     0
 10
117.259
 20
6.3197
 30
0.0
 11
117.591
 21
5.98897
 31
0.0
  0
LINE
  8
0
 62
     0
 10
117.591
 20
5.98897
 30
0.0
 11
117.804
 21
5.57004
 31
0.0
  0
LINE
  8
0
 62
     0
 10
117.804
 20
5.57004
 30
0.0
 11
117.878
 21
5.10702
 31
0.0
  0
LINE
  8
0
 62
     0
 10
117.878
 20
5.10702
 30
0.0
 11
117.804
 21
4.64125
 31
0.0
  0
LINE
  8
0
 62
     0
 10
117.804
 20
4.64125
 30
0.0
 11
117.591
 21
4.22508
 31
0.0
  0
LINE
  8
0
 62
     0
 10
117.591
 20
4.22508
 30
0.0
 11
117.259
 21
3.8916
 31
0.0
  0
LINE
  8
0
 62
     0
 10
117.259
 20
3.8916
 30
0.0
 11
116.841
 21
3.67937
 31
0.0
  0
LINE
  8
0
 62
     0
 10
116.841
 20
3.67937
 30
0.0
 11
116.377
 21
3.60634
 31
0.0
  0
LINE
  8
0
 62
     0
 10
116.377
 20
3.60634
 30
0.0
 11
115.914
 21
3.67937
 31
0.0
  0
LINE
  8
0
 62
     0
 10
115.914
 20
3.67937
 30
0.0
 11
115.496
 21
3.8916
 31
0.0
  0
LINE
  8
0
 62
     0
 10
115.496
 20
3.8916
 30
0.0
 11
115.164
 21
4.22508
 31
0.0
  0
LINE
  8
0
 62
     0
 10
115.164
 20
4.22508
 30
0.0
 11
114.951
 21
4.64125
 31
0.0
  0
LINE
  8
0
 62
     0
 10
114.951
 20
4.64125
 30
0.0
 11
114.877
 21
5.10702
 31
0.0
  0
LINE
  8
0
 62
     0
 10
114.877
 20
5.10702
 30
0.0
 11
114.951
 21
5.57004
 31
0.0
  0
LINE
  8
0
 62
     0
 10
114.951
 20
5.57004
 30
0.0
 11
115.164
 21
5.98897
 31
0.0
  0
LINE
  8
0
 62
     0
 10
115.164
 20
5.98897
 30
0.0
 11
115.496
 21
6.3197
 31
0.0
  0
LINE
  8
0
 62
     0
 10
115.496
 20
6.3197
 30
0.0
 11
115.914
 21
6.53327
 31
0.0
  0
LINE
  8
0
 62
     0
 10
115.914
 20
6.53327
 30
0.0
 11
116.377
 21
6.60633
 31
0.0
  0
LINE
  8
0
 62
     0
 10
5.09323
 20
6.60633
 30
0.0
 11
5.55763
 21
6.53327
 31
0.0
  0
LINE
  8
0
 62
     0
 10
5.55763
 20
6.53327
 30
0.0
 11
5.97517
 21
6.3197
 31
0.0
  0
LINE
  8
0
 62
     0
 10
5.97517
 20
6.3197
 30
0.0
 11
6.30728
 21
5.98897
 31
0.0
  0
LINE
  8
0
 62
     0
 10
6.30728
 20
5.98897
 30
0.0
 11
6.52089
 21
5.57004
 31
0.0
  0
LINE
  8
0
 62
     0
 10
6.52089
 20
5.57004
 30
0.0
 11
6.59391
 21
5.10702
 31
0.0
  0
LINE
  8
0
 62
     0
 10
6.59391
 20
5.10702
 30
0.0
 11
6.52089
 21
4.64125
 31
0.0
  0
LINE
  8
0
 62
     0
 10
6.52089
 20
4.64125
 30
0.0
 11
6.30728
 21
4.22508
 31
0.0
  0
LINE
  8
0
 62
     0
 10
6.30728
 20
4.22508
 30
0.0
 11
5.97517
 21
3.8916
 31
0.0
  0
LINE
  8
0
 62
     0
 10
5.97517
 20
3.8916
 30
0.0
 11
5.55763
 21
3.67937
 31
0.0
  0
LINE
  8
0
 62
     0
 10
5.55763
 20
3.67937
 30
0.0
 11
5.09323
 21
3.60634
 31
0.0
  0
LINE
  8
0
 62
     0
 10
5.09323
 20
3.60634
 30
0.0
 11
4.63021
 21
3.67937
 31
0.0
  0
LINE
  8
0
 62
     0
 10
4.63021
 20
3.67937
 30
0.0
 11
4.21128
 21
3.8916
 31
0.0
  0
LINE
  8
0
 62
     0
 10
4.21128
 20
3.8916
 30
0.0
 11
3.87918
 21
4.22508
 31
0.0
  0
LINE
  8
0
 62
     0
 10
3.87918
 20
4.22508
 30
0.0
 11
3.66695
 21
4.64125
 31
0.0
  0
LINE
  8
0
 62
     0
 10
3.66695
 20
4.64125
 30
0.0
 11
3.59392
 21
5.10702
 31
0.0
  0
LINE
  8
0
 62
     0
 10
3.59392
 20
5.10702
 30
0.0
 11
3.66695
 21
5.57004
 31
0.0
  0
LINE
  8
0
 62
     0
 10
3.66695
 20
5.57004
 30
0.0
 11
3.87918
 21
5.98897
 31
0.0
  0
LINE
  8
0
 62
     0
 10
3.87918
 20
5.98897
 30
0.0
 11
4.21128
 21
6.3197
 31
0.0
  0
LINE
  8
0
 62
     0
 10
4.21128
 20
6.3197
 30
0.0
 11
4.63021
 21
6.53327
 31
0.0
  0
LINE
  8
0
 62
     0
 10
4.63021
 20
6.53327
 30
0.0
 11
5.09323
 21
6.60633
 31
0.0
  0
LINE
  8
0
 62
     0
 10
5.09323
 20
35.6553
 30
0.0
 11
5.55763
 21
35.5822
 31
0.0
  0
LINE
  8
0
 62
     0
 10
5.55763
 20
35.5822
 30
0.0
 11
5.97517
 21
35.3716
 31
0.0
  0
LINE
  8
0
 62
     0
 10
5.97517
 20
35.3716
 30
0.0
 11
6.30728
 21
35.038
 31
0.0
  0
LINE
  8
0
 62
     0
 10
6.30728
 20
35.038
 30
0.0
 11
6.52089
 21
34.6204
 31
0.0
  0
LINE
  8
0
 62
     0
 10
6.52089
 20
34.6204
 30
0.0
 11
6.59391
 21
34.156
 31
0.0
  0
LINE
  8
0
 62
     0
 10
6.59391
 20
34.156
 30
0.0
 11
6.52089
 21
33.6917
 31
0.0
  0
LINE
  8
0
 62
     0
 10
6.52089
 20
33.6917
 30
0.0
 11
6.30728
 21
33.2741
 31
0.0
  0
LINE
  8
0
 62
     0
 10
6.30728
 20
33.2741
 30
0.0
 11
5.97517
 21
32.942
 31
0.0
  0
LINE
  8
0
 62
     0
 10
5.97517
 20
32.942
 30
0.0
 11
5.55763
 21
32.7298
 31
0.0
  0
LINE
  8
0
 62
     0
 10
5.55763
 20
32.7298
 30
0.0
 11
5.09323
 21
32.6567
 31
0.0
  0
LINE
  8
0
 62
     0
 10
5.09323
 20
32.6567
 30
0.0
 11
4.63021
 21
32.7298
 31
0.0
  0
LINE
  8
0
 62
     0
 10
4.63021
 20
32.7298
 30
0.0
 11
4.21128
 21
32.942
 31
0.0
  0
LINE
  8
0
 62
     0
 10
4.21128
 20
32.942
 30
0.0
 11
3.87918
 21
33.2741
 31
0.0
  0
LINE
  8
0
 62
     0
 10
3.87918
 20
33.2741
 30
0.0
 11
3.66695
 21
33.6917
 31
0.0
  0
LINE
  8
0
 62
     0
 10
3.66695
 20
33.6917
 30
0.0
 11
3.59392
 21
34.156
 31
0.0
  0
LINE
  8
0
 62
     0
 10
3.59392
 20
34.156
 30
0.0
 11
3.66695
 21
34.6204
 31
0.0
  0
LINE
  8
0
 62
     0
 10
3.66695
 20
34.6204
 30
0.0
 11
3.87918
 21
35.038
 31
0.0
  0
LINE
  8
0
 62
     0
 10
3.87918
 20
35.038
 30
0.0
 11
4.21128
 21
35.3716
 31
0.0
  0
LINE
  8
0
 62
     0
 10
4.21128
 20
35.3716
 30
0.0
 11
4.63021
 21
35.5822
 31
0.0
  0
LINE
  8
0
 62
     0
 10
4.63021
 20
35.5822
 30
0.0
 11
5.09323
 21
35.6553
 31
0.0
  0
LINE
  8
0
 62
     0
 10
26.6182
 20
26.6306
 30
0.0
 11
26.6182
 21
26.0312
 31
0.0
  0
LINE
  8
0
 62
     0
 10
26.6182
 20
26.0312
 30
0.0
 11
27.4188
 21
26.0312
 31
0.0
  0
LINE
  8
0
 62
     0
 10
27.4188
 20
26.0312
 30
0.0
 11
27.4188
 21
13.2305
 31
0.0
  0
LINE
  8
0
 62
     0
 10
27.4188
 20
13.2305
 30
0.0
 11
26.6182
 21
13.2305
 31
0.0
  0
LINE
  8
0
 62
     0
 10
26.6182
 20
13.2305
 30
0.0
 11
26.6182
 21
12.6325
 31
0.0
  0
LINE
  8
0
 62
     0
 10
26.6182
 20
12.6325
 30
0.0
 11
12.6187
 21
12.6325
 31
0.0
  0
LINE
  8
0
 62
     0
 10
12.6187
 20
12.6325
 30
0.0
 11
12.6187
 21
13.2305
 31
0.0
  0
LINE
  8
0
 62
     0
 10
12.6187
 20
13.2305
 30
0.0
 11
11.8194
 21
13.2305
 31
0.0
  0
LINE
  8
0
 62
     0
 10
11.8194
 20
13.2305
 30
0.0
 11
11.8194
 21
26.0312
 31
0.0
  0
LINE
  8
0
 62
     0
 10
11.8194
 20
26.0312
 30
0.0
 11
12.6187
 21
26.0312
 31
0.0
  0
LINE
  8
0
 62
     0
 10
12.6187
 20
26.0312
 30
0.0
 11
12.6187
 21
26.6306
 31
0.0
  0
LINE
  8
0
 62
     0
 10
12.6187
 20
26.6306
 30
0.0
 11
26.6182
 21
26.6306
 31
0.0
  0
LINE
  8
0
 62
     0
 10
45.6681
 20
26.6306
 30
0.0
 11
45.6681
 21
26.0312
 31
0.0
  0
LINE
  8
0
 62
     0
 10
45.6681
 20
26.0312
 30
0.0
 11
46.4689
 21
26.0312
 31
0.0
  0
LINE
  8
0
 62
     0
 10
46.4689
 20
26.0312
 30
0.0
 11
46.4689
 21
13.2305
 31
0.0
  0
LINE
  8
0
 62
     0
 10
46.4689
 20
13.2305
 30
0.0
 11
45.6681
 21
13.2305
 31
0.0
  0
LINE
  8
0
 62
     0
 10
45.6681
 20
13.2305
 30
0.0
 11
45.6681
 21
12.6325
 31
0.0
  0
LINE
  8
0
 62
     0
 10
45.6681
 20
12.6325
 30
0.0
 11
31.6687
 21
12.6325
 31
0.0
  0
LINE
  8
0
 62
     0
 10
31.6687
 20
12.6325
 30
0.0
 11
31.6687
 21
13.2305
 31
0.0
  0
LINE
  8
0
 62
     0
 10
31.6687
 20
13.2305
 30
0.0
 11
30.8694
 21
13.2305
 31
0.0
  0
LINE
  8
0
 62
     0
 10
30.8694
 20
13.2305
 30
0.0
 11
30.8694
 21
26.0312
 31
0.0
  0
LINE
  8
0
 62
     0
 10
30.8694
 20
26.0312
 30
0.0
 11
31.6687
 21
26.0312
 31
0.0
  0
LINE
  8
0
 62
     0
 10
31.6687
 20
26.0312
 30
0.0
 11
31.6687
 21
26.6306
 31
0.0
  0
LINE
  8
0
 62
     0
 10
31.6687
 20
26.6306
 30
0.0
 11
45.6681
 21
26.6306
 31
0.0
  0
LINE
  8
0
 62
     0
 10
64.7181
 20
26.6306
 30
0.0
 11
64.7181
 21
26.0312
 31
0.0
  0
LINE
  8
0
 62
     0
 10
64.7181
 20
26.0312
 30
0.0
 11
65.519
 21
26.0312
 31
0.0
  0
LINE
  8
0
 62
     0
 10
65.519
 20
26.0312
 30
0.0
 11
65.519
 21
13.2305
 31
0.0
  0
LINE
  8
0
 62
     0
 10
65.519
 20
13.2305
 30
0.0
 11
64.7181
 21
13.2305
 31
0.0
  0
LINE
  8
0
 62
     0
 10
64.7181
 20
13.2305
 30
0.0
 11
64.7181
 21
12.6325
 31
0.0
  0
LINE
  8
0
 62
     0
 10
64.7181
 20
12.6325
 30
0.0
 11
50.7189
 21
12.6325
 31
0.0
  0
LINE
  8
0
 62
     0
 10
50.7189
 20
12.6325
 30
0.0
 11
50.7189
 21
13.2305
 31
0.0
  0
LINE
  8
0
 62
     0
 10
50.7189
 20
13.2305
 30
0.0
 11
49.9195
 21
13.2305
 31
0.0
  0
LINE
  8
0
 62
     0
 10
49.9195
 20
13.2305
 30
0.0
 11
49.9195
 21
26.0312
 31
0.0
  0
LINE
  8
0
 62
     0
 10
49.9195
 20
26.0312
 30
0.0
 11
50.7189
 21
26.0312
 31
0.0
  0
LINE
  8
0
 62
     0
 10
50.7189
 20
26.0312
 30
0.0
 11
50.7189
 21
26.6306
 31
0.0
  0
LINE
  8
0
 62
     0
 10
50.7189
 20
26.6306
 30
0.0
 11
64.7181
 21
26.6306
 31
0.0
  0
LINE
  8
0
 62
     0
 10
83.7681
 20
26.6306
 30
0.0
 11
83.7681
 21
26.0312
 31
0.0
  0
LINE
  8
0
 62
     0
 10
83.7681
 20
26.0312
 30
0.0
 11
84.569
 21
26.0312
 31
0.0
  0
LINE
  8
0
 62
     0
 10
84.569
 20
26.0312
 30
0.0
 11
84.569
 21
13.2305
 31
0.0
  0
LINE
  8
0
 62
     0
 10
84.569
 20
13.2305
 30
0.0
 11
83.7681
 21
13.2305
 31
0.0
  0
LINE
  8
0
 62
     0
 10
83.7681
 20
13.2305
 30
0.0
 11
83.7681
 21
12.6325
 31
0.0
  0
LINE
  8
0
 62
     0
 10
83.7681
 20
12.6325
 30
0.0
 11
69.7689
 21
12.6325
 31
0.0
  0
LINE
  8
0
 62
     0
 10
69.7689
 20
12.6325
 30
0.0
 11
69.7689
 21
13.2305
 31
0.0
  0
LINE
  8
0
 62
     0
 10
69.7689
 20
13.2305
 30
0.0
 11
68.9695
 21
13.2305
 31
0.0
  0
LINE
  8
0
 62
     0
 10
68.9695
 20
13.2305
 30
0.0
 11
68.9695
 21
26.0312
 31
0.0
  0
LINE
  8
0
 62
     0
 10
68.9695
 20
26.0312
 30
0.0
 11
69.7689
 21
26.0312
 31
0.0
  0
LINE
  8
0
 62
     0
 10
69.7689
 20
26.0312
 30
0.0
 11
69.7689
 21
26.6306
 31
0.0
  0
LINE
  8
0
 62
     0
 10
69.7689
 20
26.6306
 30
0.0
 11
83.7681
 21
26.6306
 31
0.0
  0
LINE
  8
0
 62
     0
 10
102.818
 20
26.6306
 30
0.0
 11
102.818
 21
26.0312
 31
0.0
  0
LINE
  8
0
 62
     0
 10
102.818
 20
26.0312
 30
0.0
 11
103.619
 21
26.0312
 31
0.0
  0
LINE
  8
0
 62
     0
 10
103.619
 20
26.0312
 30
0.0
 11
103.619
 21
13.2305
 31
0.0
  0
LINE
  8
0
 62
     0
 10
103.619
 20
13.2305
 30
0.0
 11
102.818
 21
13.2305
 31
0.0
  0
LINE
  8
0
 62
     0
 10
102.818
 20
13.2305
 30
0.0
 11
102.818
 21
12.6325
 31
0.0
  0
LINE
  8
0
 62
     0
 10
102.818
 20
12.6325
 30
0.0
 11
88.8189
 21
12.6325
 31
0.0
  0
LINE
  8
0
 62
     0
 10
88.8189
 20
12.6325
 30
0.0
 11
88.8189
 21
13.2305
 31
0.0
  0
LINE
  8
0
 62
     0
 10
88.8189
 20
13.2305
 30
0.0
 11
88.0195
 21
13.2305
 31
0.0
  0
LINE
  8
0
 62
     0
 10
88.0195
 20
13.2305
 30
0.0
 11
88.0195
 21
26.0312
 31
0.0
  0
LINE
  8
0
 62
     0
 10
88.0195
 20
26.0312
 30
0.0
 11
88.8189
 21
26.0312
 31
0.0
  0
LINE
  8
0
 62
     0
 10
88.8189
 20
26.0312
 30
0.0
 11
88.8189
 21
26.6306
 31
0.0
  0
LINE
  8
0
 62
     0
 10
88.8189
 20
26.6306
 30
0.0
 11
102.818
 21
26.6306
 31
0.0
  0
LINE
  8
0
 62
     0
 10
121.868
 20
26.6306
 30
0.0
 11
121.868
 21
26.0312
 31
0.0
  0
LINE
  8
0
 62
     0
 10
121.868
 20
26.0312
 30
0.0
 11
122.669
 21
26.0312
 31
0.0
  0
LINE
  8
0
 62
     0
 10
122.669
 20
26.0312
 30
0.0
 11
122.669
 21
13.2305
 31
0.0
  0
LINE
  8
0
 62
     0
 10
122.669
 20
13.2305
 30
0.0
 11
121.868
 21
13.2305
 31
0.0
  0
LINE
  8
0
 62
     0
 10
121.868
 20
13.2305
 30
0.0
 11
121.868
 21
12.6325
 31
0.0
  0
LINE
  8
0
 62
     0
 10
121.868
 20
12.6325
 30
0.0
 11
107.869
 21
12.6325
 31
0.0
  0
LINE
  8
0
 62
     0
 10
107.869
 20
12.6325
 30
0.0
 11
107.869
 21
13.2305
 31
0.0
  0
LINE
  8
0
 62
     0
 10
107.869
 20
13.2305
 30
0.0
 11
107.069
 21
13.2305
 31
0.0
  0
LINE
  8
0
 62
     0
 10
107.069
 20
13.2305
 30
0.0
 11
107.069
 21
26.0312
 31
0.0
  0
LINE
  8
0
 62
     0
 10
107.069
 20
26.0312
 30
0.0
 11
107.869
 21
26.0312
 31
0.0
  0
LINE
  8
0
 62
     0
 10
107.869
 20
26.0312
 30
0.0
 11
107.869
 21
26.6306
 31
0.0
  0
LINE
  8
0
 62
     0
 10
107.869
 20
26.6306
 30
0.0
 11
121.868
 21
26.6306
 31
0.0
  0
LINE
  8
0
 62
     0
 10
140.918
 20
26.6306
 30
0.0
 11
140.918
 21
26.0312
 31
0.0
  0
LINE
  8
0
 62
     0
 10
140.918
 20
26.0312
 30
0.0
 11
141.719
 21
26.0312
 31
0.0
  0
LINE
  8
0
 62
     0
 10
141.719
 20
26.0312
 30
0.0
 11
141.719
 21
13.2305
 31
0.0
  0
LINE
  8
0
 62
     0
 10
141.719
 20
13.2305
 30
0.0
 11
140.918
 21
13.2305
 31
0.0
  0
LINE
  8
0
 62
     0
 10
140.918
 20
13.2305
 30
0.0
 11
140.918
 21
12.6325
 31
0.0
  0
LINE
  8
0
 62
     0
 10
140.918
 20
12.6325
 30
0.0
 11
126.919
 21
12.6325
 31
0.0
  0
LINE
  8
0
 62
     0
 10
126.919
 20
12.6325
 30
0.0
 11
126.919
 21
13.2305
 31
0.0
  0
LINE
  8
0
 62
     0
 10
126.919
 20
13.2305
 30
0.0
 11
126.119
 21
13.2305
 31
0.0
  0
LINE
  8
0
 62
     0
 10
126.119
 20
13.2305
 30
0.0
 11
126.119
 21
26.0312
 31
0.0
  0
LINE
  8
0
 62
     0
 10
126.119
 20
26.0312
 30
0.0
 11
126.919
 21
26.0312
 31
0.0
  0
LINE
  8
0
 62
     0
 10
126.919
 20
26.0312
 30
0.0
 11
126.919
 21
26.6306
 31
0.0
  0
LINE
  8
0
 62
     0
 10
126.919
 20
26.6306
 30
0.0
 11
140.918
 21
26.6306
 31
0.0
  0
LINE
  8
0
 62
     0
 10
159.968
 20
26.6306
 30
0.0
 11
159.968
 21
26.0312
 31
0.0
  0
LINE
  8
0
 62
     0
 10
159.968
 20
26.0312
 30
0.0
 11
160.769
 21
26.0312
 31
0.0
  0
LINE
  8
0
 62
     0
 10
160.769
 20
26.0312
 30
0.0
 11
160.769
 21
13.2305
 31
0.0
  0
LINE
  8
0
 62
     0
 10
160.769
 20
13.2305
 30
0.0
 11
159.968
 21
13.2305
 31
0.0
  0
LINE
  8
0
 62
     0
 10
159.968
 20
13.2305
 30
0.0
 11
159.968
 21
12.6325
 31
0.0
  0
LINE
  8
0
 62
     0
 10
159.968
 20
12.6325
 30
0.0
 11
145.969
 21
12.6325
 31
0.0
  0
LINE
  8
0
 62
     0
 10
145.969
 20
12.6325
 30
0.0
 11
145.969
 21
13.2305
 31
0.0
  0
LINE
  8
0
 62
     0
 10
145.969
 20
13.2305
 30
0.0
 11
145.169
 21
13.2305
 31
0.0
  0
LINE
  8
0
 62
     0
 10
145.169
 20
13.2305
 30
0.0
 11
145.169
 21
26.0312
 31
0.0
  0
LINE
  8
0
 62
     0
 10
145.169
 20
26.0312
 30
0.0
 11
145.969
 21
26.0312
 31
0.0
  0
LINE
  8
0
 62
     0
 10
145.969
 20
26.0312
 30
0.0
 11
145.969
 21
26.6306
 31
0.0
  0
LINE
  8
0
 62
     0
 10
145.969
 20
26.6306
 30
0.0
 11
159.968
 21
26.6306
 31
0.0
  0
LINE
  8
0
 62
     0
 10
179.018
 20
26.6306
 30
0.0
 11
179.018
 21
26.0312
 31
0.0
  0
LINE
  8
0
 62
     0
 10
179.018
 20
26.0312
 30
0.0
 11
179.819
 21
26.0312
 31
0.0
  0
LINE
  8
0
 62
     0
 10
179.819
 20
26.0312
 30
0.0
 11
179.819
 21
13.2305
 31
0.0
  0
LINE
  8
0
 62
     0
 10
179.819
 20
13.2305
 30
0.0
 11
179.018
 21
13.2305
 31
0.0
  0
LINE
  8
0
 62
     0
 10
179.018
 20
13.2305
 30
0.0
 11
179.018
 21
12.6325
 31
0.0
  0
LINE
  8
0
 62
     0
 10
179.018
 20
12.6325
 30
0.0
 11
165.019
 21
12.6325
 31
0.0
  0
LINE
  8
0
 62
     0
 10
165.019
 20
12.6325
 30
0.0
 11
165.019
 21
13.2305
 31
0.0
  0
LINE
  8
0
 62
     0
 10
165.019
 20
13.2305
 30
0.0
 11
164.219
 21
13.2305
 31
0.0
  0
LINE
  8
0
 62
     0
 10
164.219
 20
13.2305
 30
0.0
 11
164.219
 21
26.0312
 31
0.0
  0
LINE
  8
0
 62
     0
 10
164.219
 20
26.0312
 30
0.0
 11
165.019
 21
26.0312
 31
0.0
  0
LINE
  8
0
 62
     0
 10
165.019
 20
26.0312
 30
0.0
 11
165.019
 21
26.6306
 31
0.0
  0
LINE
  8
0
 62
     0
 10
165.019
 20
26.6306
 30
0.0
 11
179.018
 21
26.6306
 31
0.0
  0
LINE
  8
0
 62
     0
 10
198.068
 20
26.6306
 30
0.0
 11
198.068
 21
26.0312
 31
0.0
  0
LINE
  8
0
 62
     0
 10
198.068
 20
26.0312
 30
0.0
 11
198.869
 21
26.0312
 31
0.0
  0
LINE
  8
0
 62
     0
 10
198.869
 20
26.0312
 30
0.0
 11
198.869
 21
13.2305
 31
0.0
  0
LINE
  8
0
 62
     0
 10
198.869
 20
13.2305
 30
0.0
 11
198.068
 21
13.2305
 31
0.0
  0
LINE
  8
0
 62
     0
 10
198.068
 20
13.2305
 30
0.0
 11
198.068
 21
12.6325
 31
0.0
  0
LINE
  8
0
 62
     0
 10
198.068
 20
12.6325
 30
0.0
 11
184.069
 21
12.6325
 31
0.0
  0
LINE
  8
0
 62
     0
 10
184.069
 20
12.6325
 30
0.0
 11
184.069
 21
13.2305
 31
0.0
  0
LINE
  8
0
 62
     0
 10
184.069
 20
13.2305
 30
0.0
 11
183.269
 21
13.2305
 31
0.0
  0
LINE
  8
0
 62
     0
 10
183.269
 20
13.2305
 30
0.0
 11
183.269
 21
26.0312
 31
0.0
  0
LINE
  8
0
 62
     0
 10
183.269
 20
26.0312
 30
0.0
 11
184.069
 21
26.0312
 31
0.0
  0
LINE
  8
0
 62
     0
 10
184.069
 20
26.0312
 30
0.0
 11
184.069
 21
26.6306
 31
0.0
  0
LINE
  8
0
 62
     0
 10
184.069
 20
26.6306
 30
0.0
 11
198.068
 21
26.6306
 31
0.0
  0
LINE
  8
0
 62
     0
 10
217.118
 20
26.6306
 30
0.0
 11
217.118
 21
26.0312
 31
0.0
  0
LINE
  8
0
 62
     0
 10
217.118
 20
26.0312
 30
0.0
 11
217.919
 21
26.0312
 31
0.0
  0
LINE
  8
0
 62
     0
 10
217.919
 20
26.0312
 30
0.0
 11
217.919
 21
13.2305
 31
0.0
  0
LINE
  8
0
 62
     0
 10
217.919
 20
13.2305
 30
0.0
 11
217.118
 21
13.2305
 31
0.0
  0
LINE
  8
0
 62
     0
 10
217.118
 20
13.2305
 30
0.0
 11
217.118
 21
12.6325
 31
0.0
  0
LINE
  8
0
 62
     0
 10
217.118
 20
12.6325
 30
0.0
 11
203.119
 21
12.6325
 31
0.0
  0
LINE
  8
0
 62
     0
 10
203.119
 20
12.6325
 30
0.0
 11
203.119
 21
13.2305
 31
0.0
  0
LINE
  8
0
 62
     0
 10
203.119
 20
13.2305
 30
0.0
 11
202.319
 21
13.2305
 31
0.0
  0
LINE
  8
0
 62
     0
 10
202.319
 20
13.2305
 30
0.0
 11
202.319
 21
26.0312
 31
0.0
  0
LINE
  8
0
 62
     0
 10
202.319
 20
26.0312
 30
0.0
 11
203.119
 21
26.0312
 31
0.0
  0
LINE
  8
0
 62
     0
 10
203.119
 20
26.0312
 30
0.0
 11
203.119
 21
26.6306
 31
0.0
  0
LINE
  8
0
 62
     0
 10
203.119
 20
26.6306
 30
0.0
 11
217.118
 21
26.6306
 31
0.0
  0
LINE
  8
0
 62
     0
 10
236.168
 20
26.6306
 30
0.0
 11
236.168
 21
26.0312
 31
0.0
  0
LINE
  8
0
 62
     0
 10
236.168
 20
26.0312
 30
0.0
 11
236.969
 21
26.0312
 31
0.0
  0
LINE
  8
0
 62
     0
 10
236.969
 20
26.0312
 30
0.0
 11
236.969
 21
13.2305
 31
0.0
  0
LINE
  8
0
 62
     0
 10
236.969
 20
13.2305
 30
0.0
 11
236.168
 21
13.2305
 31
0.0
  0
LINE
  8
0
 62
     0
 10
236.168
 20
13.2305
 30
0.0
 11
236.168
 21
12.6325
 31
0.0
  0
LINE
  8
0
 62
     0
 10
236.168
 20
12.6325
 30
0.0
 11
222.169
 21
12.6325
 31
0.0
  0
LINE
  8
0
 62
     0
 10
222.169
 20
12.6325
 30
0.0
 11
222.169
 21
13.2305
 31
0.0
  0
LINE
  8
0
 62
     0
 10
222.169
 20
13.2305
 30
0.0
 11
221.369
 21
13.2305
 31
0.0
  0
LINE
  8
0
 62
     0
 10
221.369
 20
13.2305
 30
0.0
 11
221.369
 21
26.0312
 31
0.0
  0
LINE
  8
0
 62
     0
 10
221.369
 20
26.0312
 30
0.0
 11
222.169
 21
26.0312
 31
0.0
  0
LINE
  8
0
 62
     0
 10
222.169
 20
26.0312
 30
0.0
 11
222.169
 21
26.6306
 31
0.0
  0
LINE
  8
0
 62
     0
 10
222.169
 20
26.6306
 30
0.0
 11
236.168
 21
26.6306
 31
0.0
  0
LINE
  8
0
 62
     0
 10
255.218
 20
26.6306
 30
0.0
 11
255.218
 21
26.0312
 31
0.0
  0
LINE
  8
0
 62
     0
 10
255.218
 20
26.0312
 30
0.0
 11
256.019
 21
26.0312
 31
0.0
  0
LINE
  8
0
 62
     0
 10
256.019
 20
26.0312
 30
0.0
 11
256.019
 21
13.2305
 31
0.0
  0
LINE
  8
0
 62
     0
 10
256.019
 20
13.2305
 30
0.0
 11
255.218
 21
13.2305
 31
0.0
  0
LINE
  8
0
 62
     0
 10
255.218
 20
13.2305
 30
0.0
 11
255.218
 21
12.6325
 31
0.0
  0
LINE
  8
0
 62
     0
 10
255.218
 20
12.6325
 30
0.0
 11
241.219
 21
12.6325
 31
0.0
  0
LINE
  8
0
 62
     0
 10
241.219
 20
12.6325
 30
0.0
 11
241.219
 21
13.2305
 31
0.0
  0
LINE
  8
0
 62
     0
 10
241.219
 20
13.2305
 30
0.0
 11
240.419
 21
13.2305
 31
0.0
  0
LINE
  8
0
 62
     0
 10
240.419
 20
13.2305
 30
0.0
 11
240.419
 21
26.0312
 31
0.0
  0
LINE
  8
0
 62
     0
 10
240.419
 20
26.0312
 30
0.0
 11
241.219
 21
26.0312
 31
0.0
  0
LINE
  8
0
 62
     0
 10
241.219
 20
26.0312
 30
0.0
 11
241.219
 21
26.6306
 31
0.0
  0
LINE
  8
0
 62
     0
 10
241.219
 20
26.6306
 30
0.0
 11
255.218
 21
26.6306
 31
0.0
  0
LINE
  8
0
 62
     0
 10
274.268
 20
26.6306
 30
0.0
 11
274.268
 21
26.0312
 31
0.0
  0
LINE
  8
0
 62
     0
 10
274.268
 20
26.0312
 30
0.0
 11
275.069
 21
26.0312
 31
0.0
  0
LINE
  8
0
 62
     0
 10
275.069
 20
26.0312
 30
0.0
 11
275.069
 21
13.2305
 31
0.0
  0
LINE
  8
0
 62
     0
 10
275.069
 20
13.2305
 30
0.0
 11
274.268
 21
13.2305
 31
0.0
  0
LINE
  8
0
 62
     0
 10
274.268
 20
13.2305
 30
0.0
 11
274.268
 21
12.6325
 31
0.0
  0
LINE
  8
0
 62
     0
 10
274.268
 20
12.6325
 30
0.0
 11
260.269
 21
12.6325
 31
0.0
  0
LINE
  8
0
 62
     0
 10
260.269
 20
12.6325
 30
0.0
 11
260.269
 21
13.2305
 31
0.0
  0
LINE
  8
0
 62
     0
 10
260.269
 20
13.2305
 30
0.0
 11
259.469
 21
13.2305
 31
0.0
  0
LINE
  8
0
 62
     0
 10
259.469
 20
13.2305
 30
0.0
 11
259.469
 21
26.0312
 31
0.0
  0
LINE
  8
0
 62
     0
 10
259.469
 20
26.0312
 30
0.0
 11
260.269
 21
26.0312
 31
0.0
  0
LINE
  8
0
 62
     0
 10
260.269
 20
26.0312
 30
0.0
 11
260.269
 21
26.6306
 31
0.0
  0
LINE
  8
0
 62
     0
 10
260.269
 20
26.6306
 30
0.0
 11
274.268
 21
26.6306
 31
0.0
  0
LINE
  8
0
 62
     0
 10
293.318
 20
26.6306
 30
0.0
 11
293.318
 21
26.0312
 31
0.0
  0
LINE
  8
0
 62
     0
 10
293.318
 20
26.0312
 30
0.0
 11
294.119
 21
26.0312
 31
0.0
  0
LINE
  8
0
 62
     0
 10
294.119
 20
26.0312
 30
0.0
 11
294.119
 21
13.2305
 31
0.0
  0
LINE
  8
0
 62
     0
 10
294.119
 20
13.2305
 30
0.0
 11
293.318
 21
13.2305
 31
0.0
  0
LINE
  8
0
 62
     0
 10
293.318
 20
13.2305
 30
0.0
 11
293.318
 21
12.6325
 31
0.0
  0
LINE
  8
0
 62
     0
 10
293.318
 20
12.6325
 30
0.0
 11
279.319
 21
12.6325
 31
0.0
  0
LINE
  8
0
 62
     0
 10
279.319
 20
12.6325
 30
0.0
 11
279.319
 21
13.2305
 31
0.0
  0
LINE
  8
0
 62
     0
 10
279.319
 20
13.2305
 30
0.0
 11
278.519
 21
13.2305
 31
0.0
  0
LINE
  8
0
 62
     0
 10
278.519
 20
13.2305
 30
0.0
 11
278.519
 21
26.0312
 31
0.0
  0
LINE
  8
0
 62
     0
 10
278.519
 20
26.0312
 30
0.0
 11
279.319
 21
26.0312
 31
0.0
  0
LINE
  8
0
 62
     0
 10
279.319
 20
26.0312
 30
0.0
 11
279.319
 21
26.6306
 31
0.0
  0
LINE
  8
0
 62
     0
 10
279.319
 20
26.6306
 30
0.0
 11
293.318
 21
26.6306
 31
0.0
  0
LINE
  8
0
 62
     0
 10
312.368
 20
26.6306
 30
0.0
 11
312.368
 21
26.0312
 31
0.0
  0
LINE
  8
0
 62
     0
 10
312.368
 20
26.0312
 30
0.0
 11
313.169
 21
26.0312
 31
0.0
  0
LINE
  8
0
 62
     0
 10
313.169
 20
26.0312
 30
0.0
 11
313.169
 21
13.2305
 31
0.0
  0
LINE
  8
0
 62
     0
 10
313.169
 20
13.2305
 30
0.0
 11
312.368
 21
13.2305
 31
0.0
  0
LINE
  8
0
 62
     0
 10
312.368
 20
13.2305
 30
0.0
 11
312.368
 21
12.6325
 31
0.0
  0
LINE
  8
0
 62
     0
 10
312.368
 20
12.6325
 30
0.0
 11
298.369
 21
12.6325
 31
0.0
  0
LINE
  8
0
 62
     0
 10
298.369
 20
12.6325
 30
0.0
 11
298.369
 21
13.2305
 31
0.0
  0
LINE
  8
0
 62
     0
 10
298.369
 20
13.2305
 30
0.0
 11
297.569
 21
13.2305
 31
0.0
  0
LINE
  8
0
 62
     0
 10
297.569
 20
13.2305
 30
0.0
 11
297.569
 21
26.0312
 31
0.0
  0
LINE
  8
0
 62
     0
 10
297.569
 20
26.0312
 30
0.0
 11
298.369
 21
26.0312
 31
0.0
  0
LINE
  8
0
 62
     0
 10
298.369
 20
26.0312
 30
0.0
 11
298.369
 21
26.6306
 31
0.0
  0
LINE
  8
0
 62
     0
 10
298.369
 20
26.6306
 30
0.0
 11
312.368
 21
26.6306
 31
0.0
  0
LINE
  8
0
 62
     0
 10
331.418
 20
26.6306
 30
0.0
 11
331.418
 21
26.0312
 31
0.0
  0
LINE
  8
0
 62
     0
 10
331.418
 20
26.0312
 30
0.0
 11
332.219
 21
26.0312
 31
0.0
  0
LINE
  8
0
 62
     0
 10
332.219
 20
26.0312
 30
0.0
 11
332.219
 21
13.2305
 31
0.0
  0
LINE
  8
0
 62
     0
 10
332.219
 20
13.2305
 30
0.0
 11
331.418
 21
13.2305
 31
0.0
  0
LINE
  8
0
 62
     0
 10
331.418
 20
13.2305
 30
0.0
 11
331.418
 21
12.6325
 31
0.0
  0
LINE
  8
0
 62
     0
 10
331.418
 20
12.6325
 30
0.0
 11
317.419
 21
12.6325
 31
0.0
  0
LINE
  8
0
 62
     0
 10
317.419
 20
12.6325
 30
0.0
 11
317.419
 21
13.2305
 31
0.0
  0
LINE
  8
0
 62
     0
 10
317.419
 20
13.2305
 30
0.0
 11
316.618
 21
13.2305
 31
0.0
  0
LINE
  8
0
 62
     0
 10
316.618
 20
13.2305
 30
0.0
 11
316.618
 21
26.0312
 31
0.0
  0
LINE
  8
0
 62
     0
 10
316.618
 20
26.0312
 30
0.0
 11
317.419
 21
26.0312
 31
0.0
  0
LINE
  8
0
 62
     0
 10
317.419
 20
26.0312
 30
0.0
 11
317.419
 21
26.6306
 31
0.0
  0
LINE
  8
0
 62
     0
 10
317.419
 20
26.6306
 30
0.0
 11
331.418
 21
26.6306
 31
0.0
  0
ENDSEC
  0
EOF
