<?xml version="1.0"?>
<!-- Generated by SVGo -->
<svg width="377.663mm" height="153.825mm"
     viewBox="0.000 0.000 377.663 153.825"
     xmlns="http://www.w3.org/2000/svg" 
     xmlns:xlink="http://www.w3.org/1999/xlink">
<polygon points="370.663,5.000 370.819,5.006 370.975,5.025 371.129,5.055 371.281,5.098 371.428,5.152 371.570,5.218 371.707,5.295 371.838,5.382 371.961,5.479 372.077,5.586 372.183,5.701 372.281,5.824 372.368,5.955 372.445,6.092 372.510,6.235 372.565,6.382 372.607,6.533 372.638,6.687 372.656,6.843 372.663,7.000 372.663,146.825 372.656,146.982 372.638,147.138 372.607,147.292 372.565,147.443 372.510,147.590 372.445,147.733 372.368,147.870 372.281,148.001 372.183,148.124 372.077,148.239 371.961,148.346 371.838,148.443 371.707,148.530 371.570,148.607 371.428,148.673 371.281,148.727 371.129,148.770 370.975,148.800 370.819,148.819 370.662,148.825 7.000,148.825 6.843,148.819 6.687,148.800 6.533,148.770 6.382,148.727 6.235,148.673 6.092,148.607 5.955,148.530 5.824,148.443 5.701,148.346 5.586,148.239 5.479,148.124 5.382,148.001 5.295,147.870 5.218,147.733 5.152,147.590 5.098,147.443 5.055,147.292 5.025,147.138 5.006,146.982 5.000,146.825 5.000,7.000 5.006,6.843 5.025,6.687 5.055,6.533 5.098,6.382 5.152,6.235 5.218,6.092 5.295,5.955 5.382,5.824 5.479,5.701 5.586,5.586 5.701,5.479 5.824,5.382 5.955,5.295 6.092,5.218 6.235,5.152 6.382,5.098 6.533,5.055 6.687,5.025 6.843,5.006 7.000,5.000" style="fill:none;stroke-width:0.2;stroke:black"/>
<rect x="15.000" y="15.000" width="347.663" height="123.825" style="fill:none;stroke-width:0.2;stroke:black"/>
<polygon points="129.221,8.500 129.684,8.573 130.103,8.786 130.434,9.118 130.647,9.536 130.721,10.000 130.647,10.464 130.434,10.882 130.103,11.214 129.684,11.427 129.221,11.500 128.757,11.427 128.339,11.214 128.007,10.882 127.794,10.464 127.721,10.000 127.794,9.536 128.007,9.118 128.339,8.786 128.757,8.573" style="fill:none;stroke-width:0.2;stroke:black"/>
<polygon points="248.442,8.500 248.905,8.573 249.323,8.786 249.655,9.118 249.868,9.536 249.942,10.000 249.868,10.464 249.655,10.882 249.323,11.214 248.905,11.427 248.442,11.500 247.978,11.427 247.560,11.214 247.228,10.882 247.015,10.464 246.942,10.000 247.015,9.536 247.228,9.118 247.560,8.786 247.978,8.573" style="fill:none;stroke-width:0.2;stroke:black"/>
<polygon points="367.663,8.500 368.126,8.573 368.544,8.786 368.876,9.118 369.089,9.536 369.163,10.000 369.089,10.464 368.876,10.882 368.544,11.214 368.126,11.427 367.663,11.500 367.199,11.427 366.781,11.214 366.449,10.882 366.236,10.464 366.163,10.000 366.236,9.536 366.449,9.118 366.781,8.786 367.199,8.573" style="fill:none;stroke-width:0.2;stroke:black"/>
<polygon points="367.663,142.325 368.126,142.398 368.544,142.611 368.876,142.943 369.089,143.361 369.163,143.825 369.089,144.289 368.876,144.707 368.544,145.039 368.126,145.252 367.663,145.325 367.199,145.252 366.781,145.039 366.449,144.707 366.236,144.289 366.163,143.825 366.236,143.361 366.449,142.943 366.781,142.611 367.199,142.398" style="fill:none;stroke-width:0.2;stroke:black"/>
<polygon points="248.442,142.325 248.905,142.398 249.323,142.611 249.655,142.943 249.868,143.361 249.942,143.825 249.868,144.289 249.655,144.707 249.323,145.039 248.905,145.252 248.442,145.325 247.978,145.252 247.560,145.039 247.228,144.707 247.015,144.289 246.942,143.825 247.015,143.361 247.228,142.943 247.560,142.611 247.978,142.398" style="fill:none;stroke-width:0.2;stroke:black"/>
<polygon points="129.221,142.325 129.684,142.398 130.103,142.611 130.434,142.943 130.647,143.361 130.721,143.825 130.647,144.289 130.434,144.707 130.103,145.039 129.684,145.252 129.221,145.325 128.757,145.252 128.339,145.039 128.007,144.707 127.794,144.289 127.721,143.825 127.794,143.361 128.007,142.943 128.339,142.611 128.757,142.398" style="fill:none;stroke-width:0.2;stroke:black"/>
<polygon points="10.000,142.325 10.464,142.398 10.882,142.611 11.214,142.943 11.427,143.361 11.500,143.825 11.427,144.289 11.214,144.707 10.882,145.039 10.464,145.252 10.000,145.325 9.536,145.252 9.118,145.039 8.786,144.707 8.573,144.289 8.500,143.825 8.573,143.361 8.786,142.943 9.118,142.611 9.536,142.398" style="fill:none;stroke-width:0.2;stroke:black"/>
<polygon points="10.000,8.500 10.464,8.573 10.882,8.786 11.214,9.118 11.427,9.536 11.500,10.000 11.427,10.464 11.214,10.882 10.882,11.214 10.464,11.427 10.000,11.500 9.536,11.427 9.118,11.214 8.786,10.882 8.573,10.464 8.500,10.000 8.573,9.536 8.786,9.118 9.118,8.786 9.536,8.573" style="fill:none;stroke-width:0.2;stroke:black"/>
</svg>
