  0
SECTION
  2
HEADER
  9
$ACADVER
  1
AC1009
  9
$EXTMIN
 10
0.0
 20
0.0
 30
0.0
  9
$EXTMAX
 10
1000.0
 20
1000.0
 30
0.0
  9
$FILLMODE
 70
 0
  9
$SPLFRAME
 70
 1
  0
ENDSEC
  0
SECTION
  2
TABLES
  0
TABLE
  2
LAYER
 70
1
  0
LAYER
  2
0
 70
     0
 62
     7
  6
CONTINUOUS
  0
ENDTAB
  0
ENDSEC
  0
SECTION
  2
ENTITIES
  0
LINE
  8
0
 62
     0
 10
365.756
 20
143.938
 30
0.0
 11
365.912
 21
143.932
 31
0.0
  0
LINE
  8
0
 62
     0
 10
365.912
 20
143.932
 30
0.0
 11
366.07
 21
143.913
 31
0.0
  0
LINE
  8
0
 62
     0
 10
366.07
 20
143.913
 30
0.0
 11
366.222
 21
143.882
 31
0.0
  0
LINE
  8
0
 62
     0
 10
366.222
 20
143.882
 30
0.0
 11
366.374
 21
143.839
 31
0.0
  0
LINE
  8
0
 62
     0
 10
366.374
 20
143.839
 30
0.0
 11
366.522
 21
143.786
 31
0.0
  0
LINE
  8
0
 62
     0
 10
366.522
 20
143.786
 30
0.0
 11
366.663
 21
143.72
 31
0.0
  0
LINE
  8
0
 62
     0
 10
366.663
 20
143.72
 30
0.0
 11
366.801
 21
143.643
 31
0.0
  0
LINE
  8
0
 62
     0
 10
366.801
 20
143.643
 30
0.0
 11
366.931
 21
143.556
 31
0.0
  0
LINE
  8
0
 62
     0
 10
366.931
 20
143.556
 30
0.0
 11
367.055
 21
143.458
 31
0.0
  0
LINE
  8
0
 62
     0
 10
367.055
 20
143.458
 30
0.0
 11
367.171
 21
143.352
 31
0.0
  0
LINE
  8
0
 62
     0
 10
367.171
 20
143.352
 30
0.0
 11
367.277
 21
143.236
 31
0.0
  0
LINE
  8
0
 62
     0
 10
367.277
 20
143.236
 30
0.0
 11
367.376
 21
143.113
 31
0.0
  0
LINE
  8
0
 62
     0
 10
367.376
 20
143.113
 30
0.0
 11
367.464
 21
142.983
 31
0.0
  0
LINE
  8
0
 62
     0
 10
367.464
 20
142.983
 30
0.0
 11
367.538
 21
142.846
 31
0.0
  0
LINE
  8
0
 62
     0
 10
367.538
 20
142.846
 30
0.0
 11
367.605
 21
142.703
 31
0.0
  0
LINE
  8
0
 62
     0
 10
367.605
 20
142.703
 30
0.0
 11
367.658
 21
142.555
 31
0.0
  0
LINE
  8
0
 62
     0
 10
367.658
 20
142.555
 30
0.0
 11
367.7
 21
142.405
 31
0.0
  0
LINE
  8
0
 62
     0
 10
367.7
 20
142.405
 30
0.0
 11
367.732
 21
142.251
 31
0.0
  0
LINE
  8
0
 62
     0
 10
367.732
 20
142.251
 30
0.0
 11
367.75
 21
142.095
 31
0.0
  0
LINE
  8
0
 62
     0
 10
367.75
 20
142.095
 30
0.0
 11
367.757
 21
141.938
 31
0.0
  0
LINE
  8
0
 62
     0
 10
367.757
 20
141.938
 30
0.0
 11
367.757
 21
2.11253
 31
0.0
  0
LINE
  8
0
 62
     0
 10
367.757
 20
2.11253
 30
0.0
 11
367.75
 21
1.95544
 31
0.0
  0
LINE
  8
0
 62
     0
 10
367.75
 20
1.95544
 30
0.0
 11
367.732
 21
1.79972
 31
0.0
  0
LINE
  8
0
 62
     0
 10
367.732
 20
1.79972
 30
0.0
 11
367.7
 21
1.64538
 31
0.0
  0
LINE
  8
0
 62
     0
 10
367.7
 20
1.64538
 30
0.0
 11
367.658
 21
1.4938
 31
0.0
  0
LINE
  8
0
 62
     0
 10
367.658
 20
1.4938
 30
0.0
 11
367.605
 21
1.34772
 31
0.0
  0
LINE
  8
0
 62
     0
 10
367.605
 20
1.34772
 30
0.0
 11
367.538
 21
1.2044
 31
0.0
  0
LINE
  8
0
 62
     0
 10
367.538
 20
1.2044
 30
0.0
 11
367.464
 21
1.06798
 31
0.0
  0
LINE
  8
0
 62
     0
 10
367.464
 20
1.06798
 30
0.0
 11
367.376
 21
0.937066
 31
0.0
  0
LINE
  8
0
 62
     0
 10
367.376
 20
0.937066
 30
0.0
 11
367.277
 21
0.813043
 31
0.0
  0
LINE
  8
0
 62
     0
 10
367.277
 20
0.813043
 30
0.0
 11
367.171
 21
0.698666
 31
0.0
  0
LINE
  8
0
 62
     0
 10
367.171
 20
0.698666
 30
0.0
 11
367.055
 21
0.591178
 31
0.0
  0
LINE
  8
0
 62
     0
 10
367.055
 20
0.591178
 30
0.0
 11
366.931
 21
0.494714
 31
0.0
  0
LINE
  8
0
 62
     0
 10
366.931
 20
0.494714
 30
0.0
 11
366.801
 21
0.407899
 31
0.0
  0
LINE
  8
0
 62
     0
 10
366.801
 20
0.407899
 30
0.0
 11
366.663
 21
0.330729
 31
0.0
  0
LINE
  8
0
 62
     0
 10
366.663
 20
0.330729
 30
0.0
 11
366.522
 21
0.264583
 31
0.0
  0
LINE
  8
0
 62
     0
 10
366.522
 20
0.264583
 30
0.0
 11
366.374
 21
0.21084
 31
0.0
  0
LINE
  8
0
 62
     0
 10
366.374
 20
0.21084
 30
0.0
 11
366.222
 21
0.166743
 31
0.0
  0
LINE
  8
0
 62
     0
 10
366.222
 20
0.166743
 30
0.0
 11
366.07
 21
0.137804
 31
0.0
  0
LINE
  8
0
 62
     0
 10
366.07
 20
0.137804
 30
0.0
 11
365.912
 21
0.118511
 31
0.0
  0
LINE
  8
0
 62
     0
 10
365.912
 20
0.118511
 30
0.0
 11
365.756
 21
0.112999
 31
0.0
  0
LINE
  8
0
 62
     0
 10
365.756
 20
0.112999
 30
0.0
 11
2.09324
 21
0.112999
 31
0.0
  0
LINE
  8
0
 62
     0
 10
2.09324
 20
0.112999
 30
0.0
 11
1.93614
 21
0.118511
 31
0.0
  0
LINE
  8
0
 62
     0
 10
1.93614
 20
0.118511
 30
0.0
 11
1.78043
 21
0.137804
 31
0.0
  0
LINE
  8
0
 62
     0
 10
1.78043
 20
0.137804
 30
0.0
 11
1.62609
 21
0.166743
 31
0.0
  0
LINE
  8
0
 62
     0
 10
1.62609
 20
0.166743
 30
0.0
 11
1.47588
 21
0.21084
 31
0.0
  0
LINE
  8
0
 62
     0
 10
1.47588
 20
0.21084
 30
0.0
 11
1.32843
 21
0.264583
 31
0.0
  0
LINE
  8
0
 62
     0
 10
1.32843
 20
0.264583
 30
0.0
 11
1.18511
 21
0.330729
 31
0.0
  0
LINE
  8
0
 62
     0
 10
1.18511
 20
0.330729
 30
0.0
 11
1.04869
 21
0.407899
 31
0.0
  0
LINE
  8
0
 62
     0
 10
1.04869
 20
0.407899
 30
0.0
 11
0.917773
 21
0.494714
 31
0.0
  0
LINE
  8
0
 62
     0
 10
0.917773
 20
0.494714
 30
0.0
 11
0.795129
 21
0.591178
 31
0.0
  0
LINE
  8
0
 62
     0
 10
0.795129
 20
0.591178
 30
0.0
 11
0.679372
 21
0.698666
 31
0.0
  0
LINE
  8
0
 62
     0
 10
0.679372
 20
0.698666
 30
0.0
 11
0.573264
 21
0.813043
 31
0.0
  0
LINE
  8
0
 62
     0
 10
0.573264
 20
0.813043
 30
0.0
 11
0.475424
 21
0.937066
 31
0.0
  0
LINE
  8
0
 62
     0
 10
0.475424
 20
0.937066
 30
0.0
 11
0.388606
 21
1.06798
 31
0.0
  0
LINE
  8
0
 62
     0
 10
0.388606
 20
1.06798
 30
0.0
 11
0.311437
 21
1.2044
 31
0.0
  0
LINE
  8
0
 62
     0
 10
0.311437
 20
1.2044
 30
0.0
 11
0.245291
 21
1.34772
 31
0.0
  0
LINE
  8
0
 62
     0
 10
0.245291
 20
1.34772
 30
0.0
 11
0.191547
 21
1.4938
 31
0.0
  0
LINE
  8
0
 62
     0
 10
0.191547
 20
1.4938
 30
0.0
 11
0.148828
 21
1.64538
 31
0.0
  0
LINE
  8
0
 62
     0
 10
0.148828
 20
1.64538
 30
0.0
 11
0.118511
 21
1.79972
 31
0.0
  0
LINE
  8
0
 62
     0
 10
0.118511
 20
1.79972
 30
0.0
 11
0.0992188
 21
1.95544
 31
0.0
  0
LINE
  8
0
 62
     0
 10
0.0992188
 20
1.95544
 30
0.0
 11
0.0937066
 21
2.11253
 31
0.0
  0
LINE
  8
0
 62
     0
 10
0.0937066
 20
2.11253
 30
0.0
 11
0.0937066
 21
141.938
 31
0.0
  0
LINE
  8
0
 62
     0
 10
0.0937066
 20
141.938
 30
0.0
 11
0.0992188
 21
142.095
 31
0.0
  0
LINE
  8
0
 62
     0
 10
0.0992188
 20
142.095
 30
0.0
 11
0.118511
 21
142.251
 31
0.0
  0
LINE
  8
0
 62
     0
 10
0.118511
 20
142.251
 30
0.0
 11
0.148828
 21
142.405
 31
0.0
  0
LINE
  8
0
 62
     0
 10
0.148828
 20
142.405
 30
0.0
 11
0.191547
 21
142.555
 31
0.0
  0
LINE
  8
0
 62
     0
 10
0.191547
 20
142.555
 30
0.0
 11
0.245291
 21
142.703
 31
0.0
  0
LINE
  8
0
 62
     0
 10
0.245291
 20
142.703
 30
0.0
 11
0.311437
 21
142.846
 31
0.0
  0
LINE
  8
0
 62
     0
 10
0.311437
 20
142.846
 30
0.0
 11
0.388606
 21
142.983
 31
0.0
  0
LINE
  8
0
 62
     0
 10
0.388606
 20
142.983
 30
0.0
 11
0.475424
 21
143.113
 31
0.0
  0
LINE
  8
0
 62
     0
 10
0.475424
 20
143.113
 30
0.0
 11
0.573264
 21
143.236
 31
0.0
  0
LINE
  8
0
 62
     0
 10
0.573264
 20
143.236
 30
0.0
 11
0.679372
 21
143.352
 31
0.0
  0
LINE
  8
0
 62
     0
 10
0.679372
 20
143.352
 30
0.0
 11
0.795129
 21
143.458
 31
0.0
  0
LINE
  8
0
 62
     0
 10
0.795129
 20
143.458
 30
0.0
 11
0.917773
 21
143.556
 31
0.0
  0
LINE
  8
0
 62
     0
 10
0.917773
 20
143.556
 30
0.0
 11
1.04869
 21
143.643
 31
0.0
  0
LINE
  8
0
 62
     0
 10
1.04869
 20
143.643
 30
0.0
 11
1.18511
 21
143.72
 31
0.0
  0
LINE
  8
0
 62
     0
 10
1.18511
 20
143.72
 30
0.0
 11
1.32843
 21
143.786
 31
0.0
  0
LINE
  8
0
 62
     0
 10
1.32843
 20
143.786
 30
0.0
 11
1.47588
 21
143.839
 31
0.0
  0
LINE
  8
0
 62
     0
 10
1.47588
 20
143.839
 30
0.0
 11
1.62609
 21
143.882
 31
0.0
  0
LINE
  8
0
 62
     0
 10
1.62609
 20
143.882
 30
0.0
 11
1.78043
 21
143.913
 31
0.0
  0
LINE
  8
0
 62
     0
 10
1.78043
 20
143.913
 30
0.0
 11
1.93614
 21
143.932
 31
0.0
  0
LINE
  8
0
 62
     0
 10
1.93614
 20
143.932
 30
0.0
 11
2.09324
 21
143.938
 31
0.0
  0
LINE
  8
0
 62
     0
 10
2.09324
 20
143.938
 30
0.0
 11
365.756
 21
143.938
 31
0.0
  0
LINE
  8
0
 62
     0
 10
10.0941
 20
133.937
 30
0.0
 11
357.755
 21
133.937
 31
0.0
  0
LINE
  8
0
 62
     0
 10
357.755
 20
133.937
 30
0.0
 11
357.755
 21
10.1121
 31
0.0
  0
LINE
  8
0
 62
     0
 10
357.755
 20
10.1121
 30
0.0
 11
10.0941
 21
10.1121
 31
0.0
  0
LINE
  8
0
 62
     0
 10
10.0941
 20
10.1121
 30
0.0
 11
10.0941
 21
133.937
 31
0.0
  0
LINE
  8
0
 62
     0
 10
124.314
 20
140.437
 30
0.0
 11
124.777
 21
140.364
 31
0.0
  0
LINE
  8
0
 62
     0
 10
124.777
 20
140.364
 30
0.0
 11
125.196
 21
140.152
 31
0.0
  0
LINE
  8
0
 62
     0
 10
125.196
 20
140.152
 30
0.0
 11
125.528
 21
139.82
 31
0.0
  0
LINE
  8
0
 62
     0
 10
125.528
 20
139.82
 30
0.0
 11
125.741
 21
139.401
 31
0.0
  0
LINE
  8
0
 62
     0
 10
125.741
 20
139.401
 30
0.0
 11
125.815
 21
138.938
 31
0.0
  0
LINE
  8
0
 62
     0
 10
125.815
 20
138.938
 30
0.0
 11
125.741
 21
138.473
 31
0.0
  0
LINE
  8
0
 62
     0
 10
125.741
 20
138.473
 30
0.0
 11
125.528
 21
138.056
 31
0.0
  0
LINE
  8
0
 62
     0
 10
125.528
 20
138.056
 30
0.0
 11
125.196
 21
137.724
 31
0.0
  0
LINE
  8
0
 62
     0
 10
125.196
 20
137.724
 30
0.0
 11
124.777
 21
137.51
 31
0.0
  0
LINE
  8
0
 62
     0
 10
124.777
 20
137.51
 30
0.0
 11
124.314
 21
137.437
 31
0.0
  0
LINE
  8
0
 62
     0
 10
124.314
 20
137.437
 30
0.0
 11
123.851
 21
137.51
 31
0.0
  0
LINE
  8
0
 62
     0
 10
123.851
 20
137.51
 30
0.0
 11
123.432
 21
137.724
 31
0.0
  0
LINE
  8
0
 62
     0
 10
123.432
 20
137.724
 30
0.0
 11
123.1
 21
138.056
 31
0.0
  0
LINE
  8
0
 62
     0
 10
123.1
 20
138.056
 30
0.0
 11
122.888
 21
138.473
 31
0.0
  0
LINE
  8
0
 62
     0
 10
122.888
 20
138.473
 30
0.0
 11
122.815
 21
138.938
 31
0.0
  0
LINE
  8
0
 62
     0
 10
122.815
 20
138.938
 30
0.0
 11
122.888
 21
139.401
 31
0.0
  0
LINE
  8
0
 62
     0
 10
122.888
 20
139.401
 30
0.0
 11
123.1
 21
139.82
 31
0.0
  0
LINE
  8
0
 62
     0
 10
123.1
 20
139.82
 30
0.0
 11
123.432
 21
140.152
 31
0.0
  0
LINE
  8
0
 62
     0
 10
123.432
 20
140.152
 30
0.0
 11
123.851
 21
140.364
 31
0.0
  0
LINE
  8
0
 62
     0
 10
123.851
 20
140.364
 30
0.0
 11
124.314
 21
140.437
 31
0.0
  0
LINE
  8
0
 62
     0
 10
243.535
 20
140.437
 30
0.0
 11
243.998
 21
140.364
 31
0.0
  0
LINE
  8
0
 62
     0
 10
243.998
 20
140.364
 30
0.0
 11
244.417
 21
140.152
 31
0.0
  0
LINE
  8
0
 62
     0
 10
244.417
 20
140.152
 30
0.0
 11
244.749
 21
139.82
 31
0.0
  0
LINE
  8
0
 62
     0
 10
244.749
 20
139.82
 30
0.0
 11
244.961
 21
139.401
 31
0.0
  0
LINE
  8
0
 62
     0
 10
244.961
 20
139.401
 30
0.0
 11
245.036
 21
138.938
 31
0.0
  0
LINE
  8
0
 62
     0
 10
245.036
 20
138.938
 30
0.0
 11
244.961
 21
138.473
 31
0.0
  0
LINE
  8
0
 62
     0
 10
244.961
 20
138.473
 30
0.0
 11
244.749
 21
138.056
 31
0.0
  0
LINE
  8
0
 62
     0
 10
244.749
 20
138.056
 30
0.0
 11
244.417
 21
137.724
 31
0.0
  0
LINE
  8
0
 62
     0
 10
244.417
 20
137.724
 30
0.0
 11
243.998
 21
137.51
 31
0.0
  0
LINE
  8
0
 62
     0
 10
243.998
 20
137.51
 30
0.0
 11
243.535
 21
137.437
 31
0.0
  0
LINE
  8
0
 62
     0
 10
243.535
 20
137.437
 30
0.0
 11
243.072
 21
137.51
 31
0.0
  0
LINE
  8
0
 62
     0
 10
243.072
 20
137.51
 30
0.0
 11
242.653
 21
137.724
 31
0.0
  0
LINE
  8
0
 62
     0
 10
242.653
 20
137.724
 30
0.0
 11
242.321
 21
138.056
 31
0.0
  0
LINE
  8
0
 62
     0
 10
242.321
 20
138.056
 30
0.0
 11
242.109
 21
138.473
 31
0.0
  0
LINE
  8
0
 62
     0
 10
242.109
 20
138.473
 30
0.0
 11
242.036
 21
138.938
 31
0.0
  0
LINE
  8
0
 62
     0
 10
242.036
 20
138.938
 30
0.0
 11
242.109
 21
139.401
 31
0.0
  0
LINE
  8
0
 62
     0
 10
242.109
 20
139.401
 30
0.0
 11
242.321
 21
139.82
 31
0.0
  0
LINE
  8
0
 62
     0
 10
242.321
 20
139.82
 30
0.0
 11
242.653
 21
140.152
 31
0.0
  0
LINE
  8
0
 62
     0
 10
242.653
 20
140.152
 30
0.0
 11
243.072
 21
140.364
 31
0.0
  0
LINE
  8
0
 62
     0
 10
243.072
 20
140.364
 30
0.0
 11
243.535
 21
140.437
 31
0.0
  0
LINE
  8
0
 62
     0
 10
362.758
 20
140.437
 30
0.0
 11
363.22
 21
140.364
 31
0.0
  0
LINE
  8
0
 62
     0
 10
363.22
 20
140.364
 30
0.0
 11
363.64
 21
140.152
 31
0.0
  0
LINE
  8
0
 62
     0
 10
363.64
 20
140.152
 30
0.0
 11
363.971
 21
139.82
 31
0.0
  0
LINE
  8
0
 62
     0
 10
363.971
 20
139.82
 30
0.0
 11
364.183
 21
139.401
 31
0.0
  0
LINE
  8
0
 62
     0
 10
364.183
 20
139.401
 30
0.0
 11
364.257
 21
138.938
 31
0.0
  0
LINE
  8
0
 62
     0
 10
364.257
 20
138.938
 30
0.0
 11
364.183
 21
138.473
 31
0.0
  0
LINE
  8
0
 62
     0
 10
364.183
 20
138.473
 30
0.0
 11
363.971
 21
138.056
 31
0.0
  0
LINE
  8
0
 62
     0
 10
363.971
 20
138.056
 30
0.0
 11
363.64
 21
137.724
 31
0.0
  0
LINE
  8
0
 62
     0
 10
363.64
 20
137.724
 30
0.0
 11
363.22
 21
137.51
 31
0.0
  0
LINE
  8
0
 62
     0
 10
363.22
 20
137.51
 30
0.0
 11
362.758
 21
137.437
 31
0.0
  0
LINE
  8
0
 62
     0
 10
362.758
 20
137.437
 30
0.0
 11
362.292
 21
137.51
 31
0.0
  0
LINE
  8
0
 62
     0
 10
362.292
 20
137.51
 30
0.0
 11
361.876
 21
137.724
 31
0.0
  0
LINE
  8
0
 62
     0
 10
361.876
 20
137.724
 30
0.0
 11
361.541
 21
138.056
 31
0.0
  0
LINE
  8
0
 62
     0
 10
361.541
 20
138.056
 30
0.0
 11
361.329
 21
138.473
 31
0.0
  0
LINE
  8
0
 62
     0
 10
361.329
 20
138.473
 30
0.0
 11
361.259
 21
138.938
 31
0.0
  0
LINE
  8
0
 62
     0
 10
361.259
 20
138.938
 30
0.0
 11
361.329
 21
139.401
 31
0.0
  0
LINE
  8
0
 62
     0
 10
361.329
 20
139.401
 30
0.0
 11
361.541
 21
139.82
 31
0.0
  0
LINE
  8
0
 62
     0
 10
361.541
 20
139.82
 30
0.0
 11
361.876
 21
140.152
 31
0.0
  0
LINE
  8
0
 62
     0
 10
361.876
 20
140.152
 30
0.0
 11
362.292
 21
140.364
 31
0.0
  0
LINE
  8
0
 62
     0
 10
362.292
 20
140.364
 30
0.0
 11
362.758
 21
140.437
 31
0.0
  0
LINE
  8
0
 62
     0
 10
362.758
 20
6.61183
 30
0.0
 11
363.22
 21
6.53881
 31
0.0
  0
LINE
  8
0
 62
     0
 10
363.22
 20
6.53881
 30
0.0
 11
363.64
 21
6.32658
 31
0.0
  0
LINE
  8
0
 62
     0
 10
363.64
 20
6.32658
 30
0.0
 11
363.971
 21
5.99447
 31
0.0
  0
LINE
  8
0
 62
     0
 10
363.971
 20
5.99447
 30
0.0
 11
364.183
 21
5.57692
 31
0.0
  0
LINE
  8
0
 62
     0
 10
364.183
 20
5.57692
 30
0.0
 11
364.257
 21
5.11253
 31
0.0
  0
LINE
  8
0
 62
     0
 10
364.257
 20
5.11253
 30
0.0
 11
364.183
 21
4.64813
 31
0.0
  0
LINE
  8
0
 62
     0
 10
364.183
 20
4.64813
 30
0.0
 11
363.971
 21
4.23058
 31
0.0
  0
LINE
  8
0
 62
     0
 10
363.971
 20
4.23058
 30
0.0
 11
363.64
 21
3.89848
 31
0.0
  0
LINE
  8
0
 62
     0
 10
363.64
 20
3.89848
 30
0.0
 11
363.22
 21
3.68487
 31
0.0
  0
LINE
  8
0
 62
     0
 10
363.22
 20
3.68487
 30
0.0
 11
362.758
 21
3.61184
 31
0.0
  0
LINE
  8
0
 62
     0
 10
362.758
 20
3.61184
 30
0.0
 11
362.292
 21
3.68487
 31
0.0
  0
LINE
  8
0
 62
     0
 10
362.292
 20
3.68487
 30
0.0
 11
361.876
 21
3.89848
 31
0.0
  0
LINE
  8
0
 62
     0
 10
361.876
 20
3.89848
 30
0.0
 11
361.541
 21
4.23058
 31
0.0
  0
LINE
  8
0
 62
     0
 10
361.541
 20
4.23058
 30
0.0
 11
361.329
 21
4.64813
 31
0.0
  0
LINE
  8
0
 62
     0
 10
361.329
 20
4.64813
 30
0.0
 11
361.259
 21
5.11253
 31
0.0
  0
LINE
  8
0
 62
     0
 10
361.259
 20
5.11253
 30
0.0
 11
361.329
 21
5.57692
 31
0.0
  0
LINE
  8
0
 62
     0
 10
361.329
 20
5.57692
 30
0.0
 11
361.541
 21
5.99447
 31
0.0
  0
LINE
  8
0
 62
     0
 10
361.541
 20
5.99447
 30
0.0
 11
361.876
 21
6.32658
 31
0.0
  0
LINE
  8
0
 62
     0
 10
361.876
 20
6.32658
 30
0.0
 11
362.292
 21
6.53881
 31
0.0
  0
LINE
  8
0
 62
     0
 10
362.292
 20
6.53881
 30
0.0
 11
362.758
 21
6.61183
 31
0.0
  0
LINE
  8
0
 62
     0
 10
243.535
 20
6.61183
 30
0.0
 11
243.998
 21
6.53881
 31
0.0
  0
LINE
  8
0
 62
     0
 10
243.998
 20
6.53881
 30
0.0
 11
244.417
 21
6.32658
 31
0.0
  0
LINE
  8
0
 62
     0
 10
244.417
 20
6.32658
 30
0.0
 11
244.749
 21
5.99447
 31
0.0
  0
LINE
  8
0
 62
     0
 10
244.749
 20
5.99447
 30
0.0
 11
244.961
 21
5.57692
 31
0.0
  0
LINE
  8
0
 62
     0
 10
244.961
 20
5.57692
 30
0.0
 11
245.036
 21
5.11253
 31
0.0
  0
LINE
  8
0
 62
     0
 10
245.036
 20
5.11253
 30
0.0
 11
244.961
 21
4.64813
 31
0.0
  0
LINE
  8
0
 62
     0
 10
244.961
 20
4.64813
 30
0.0
 11
244.749
 21
4.23058
 31
0.0
  0
LINE
  8
0
 62
     0
 10
244.749
 20
4.23058
 30
0.0
 11
244.417
 21
3.89848
 31
0.0
  0
LINE
  8
0
 62
     0
 10
244.417
 20
3.89848
 30
0.0
 11
243.998
 21
3.68487
 31
0.0
  0
LINE
  8
0
 62
     0
 10
243.998
 20
3.68487
 30
0.0
 11
243.535
 21
3.61184
 31
0.0
  0
LINE
  8
0
 62
     0
 10
243.535
 20
3.61184
 30
0.0
 11
243.072
 21
3.68487
 31
0.0
  0
LINE
  8
0
 62
     0
 10
243.072
 20
3.68487
 30
0.0
 11
242.653
 21
3.89848
 31
0.0
  0
LINE
  8
0
 62
     0
 10
242.653
 20
3.89848
 30
0.0
 11
242.321
 21
4.23058
 31
0.0
  0
LINE
  8
0
 62
     0
 10
242.321
 20
4.23058
 30
0.0
 11
242.109
 21
4.64813
 31
0.0
  0
LINE
  8
0
 62
     0
 10
242.109
 20
4.64813
 30
0.0
 11
242.036
 21
5.11253
 31
0.0
  0
LINE
  8
0
 62
     0
 10
242.036
 20
5.11253
 30
0.0
 11
242.109
 21
5.57692
 31
0.0
  0
LINE
  8
0
 62
     0
 10
242.109
 20
5.57692
 30
0.0
 11
242.321
 21
5.99447
 31
0.0
  0
LINE
  8
0
 62
     0
 10
242.321
 20
5.99447
 30
0.0
 11
242.653
 21
6.32658
 31
0.0
  0
LINE
  8
0
 62
     0
 10
242.653
 20
6.32658
 30
0.0
 11
243.072
 21
6.53881
 31
0.0
  0
LINE
  8
0
 62
     0
 10
243.072
 20
6.53881
 30
0.0
 11
243.535
 21
6.61183
 31
0.0
  0
LINE
  8
0
 62
     0
 10
124.314
 20
6.61183
 30
0.0
 11
124.777
 21
6.53881
 31
0.0
  0
LINE
  8
0
 62
     0
 10
124.777
 20
6.53881
 30
0.0
 11
125.196
 21
6.32658
 31
0.0
  0
LINE
  8
0
 62
     0
 10
125.196
 20
6.32658
 30
0.0
 11
125.528
 21
5.99447
 31
0.0
  0
LINE
  8
0
 62
     0
 10
125.528
 20
5.99447
 30
0.0
 11
125.741
 21
5.57692
 31
0.0
  0
LINE
  8
0
 62
     0
 10
125.741
 20
5.57692
 30
0.0
 11
125.815
 21
5.11253
 31
0.0
  0
LINE
  8
0
 62
     0
 10
125.815
 20
5.11253
 30
0.0
 11
125.741
 21
4.64813
 31
0.0
  0
LINE
  8
0
 62
     0
 10
125.741
 20
4.64813
 30
0.0
 11
125.528
 21
4.23058
 31
0.0
  0
LINE
  8
0
 62
     0
 10
125.528
 20
4.23058
 30
0.0
 11
125.196
 21
3.89848
 31
0.0
  0
LINE
  8
0
 62
     0
 10
125.196
 20
3.89848
 30
0.0
 11
124.777
 21
3.68487
 31
0.0
  0
LINE
  8
0
 62
     0
 10
124.777
 20
3.68487
 30
0.0
 11
124.314
 21
3.61184
 31
0.0
  0
LINE
  8
0
 62
     0
 10
124.314
 20
3.61184
 30
0.0
 11
123.851
 21
3.68487
 31
0.0
  0
LINE
  8
0
 62
     0
 10
123.851
 20
3.68487
 30
0.0
 11
123.432
 21
3.89848
 31
0.0
  0
LINE
  8
0
 62
     0
 10
123.432
 20
3.89848
 30
0.0
 11
123.1
 21
4.23058
 31
0.0
  0
LINE
  8
0
 62
     0
 10
123.1
 20
4.23058
 30
0.0
 11
122.888
 21
4.64813
 31
0.0
  0
LINE
  8
0
 62
     0
 10
122.888
 20
4.64813
 30
0.0
 11
122.815
 21
5.11253
 31
0.0
  0
LINE
  8
0
 62
     0
 10
122.815
 20
5.11253
 30
0.0
 11
122.888
 21
5.57692
 31
0.0
  0
LINE
  8
0
 62
     0
 10
122.888
 20
5.57692
 30
0.0
 11
123.1
 21
5.99447
 31
0.0
  0
LINE
  8
0
 62
     0
 10
123.1
 20
5.99447
 30
0.0
 11
123.432
 21
6.32658
 31
0.0
  0
LINE
  8
0
 62
     0
 10
123.432
 20
6.32658
 30
0.0
 11
123.851
 21
6.53881
 31
0.0
  0
LINE
  8
0
 62
     0
 10
123.851
 20
6.53881
 30
0.0
 11
124.314
 21
6.61183
 31
0.0
  0
LINE
  8
0
 62
     0
 10
5.09323
 20
6.61183
 30
0.0
 11
5.55763
 21
6.53881
 31
0.0
  0
LINE
  8
0
 62
     0
 10
5.55763
 20
6.53881
 30
0.0
 11
5.97517
 21
6.32658
 31
0.0
  0
LINE
  8
0
 62
     0
 10
5.97517
 20
6.32658
 30
0.0
 11
6.30728
 21
5.99447
 31
0.0
  0
LINE
  8
0
 62
     0
 10
6.30728
 20
5.99447
 30
0.0
 11
6.52089
 21
5.57692
 31
0.0
  0
LINE
  8
0
 62
     0
 10
6.52089
 20
5.57692
 30
0.0
 11
6.59391
 21
5.11253
 31
0.0
  0
LINE
  8
0
 62
     0
 10
6.59391
 20
5.11253
 30
0.0
 11
6.52089
 21
4.64813
 31
0.0
  0
LINE
  8
0
 62
     0
 10
6.52089
 20
4.64813
 30
0.0
 11
6.30728
 21
4.23058
 31
0.0
  0
LINE
  8
0
 62
     0
 10
6.30728
 20
4.23058
 30
0.0
 11
5.97517
 21
3.89848
 31
0.0
  0
LINE
  8
0
 62
     0
 10
5.97517
 20
3.89848
 30
0.0
 11
5.55763
 21
3.68487
 31
0.0
  0
LINE
  8
0
 62
     0
 10
5.55763
 20
3.68487
 30
0.0
 11
5.09323
 21
3.61184
 31
0.0
  0
LINE
  8
0
 62
     0
 10
5.09323
 20
3.61184
 30
0.0
 11
4.63021
 21
3.68487
 31
0.0
  0
LINE
  8
0
 62
     0
 10
4.63021
 20
3.68487
 30
0.0
 11
4.21128
 21
3.89848
 31
0.0
  0
LINE
  8
0
 62
     0
 10
4.21128
 20
3.89848
 30
0.0
 11
3.87918
 21
4.23058
 31
0.0
  0
LINE
  8
0
 62
     0
 10
3.87918
 20
4.23058
 30
0.0
 11
3.66695
 21
4.64813
 31
0.0
  0
LINE
  8
0
 62
     0
 10
3.66695
 20
4.64813
 30
0.0
 11
3.59392
 21
5.11253
 31
0.0
  0
LINE
  8
0
 62
     0
 10
3.59392
 20
5.11253
 30
0.0
 11
3.66695
 21
5.57692
 31
0.0
  0
LINE
  8
0
 62
     0
 10
3.66695
 20
5.57692
 30
0.0
 11
3.87918
 21
5.99447
 31
0.0
  0
LINE
  8
0
 62
     0
 10
3.87918
 20
5.99447
 30
0.0
 11
4.21128
 21
6.32658
 31
0.0
  0
LINE
  8
0
 62
     0
 10
4.21128
 20
6.32658
 30
0.0
 11
4.63021
 21
6.53881
 31
0.0
  0
LINE
  8
0
 62
     0
 10
4.63021
 20
6.53881
 30
0.0
 11
5.09323
 21
6.61183
 31
0.0
  0
LINE
  8
0
 62
     0
 10
5.09323
 20
140.437
 30
0.0
 11
5.55763
 21
140.364
 31
0.0
  0
LINE
  8
0
 62
     0
 10
5.55763
 20
140.364
 30
0.0
 11
5.97517
 21
140.152
 31
0.0
  0
LINE
  8
0
 62
     0
 10
5.97517
 20
140.152
 30
0.0
 11
6.30728
 21
139.82
 31
0.0
  0
LINE
  8
0
 62
     0
 10
6.30728
 20
139.82
 30
0.0
 11
6.52089
 21
139.401
 31
0.0
  0
LINE
  8
0
 62
     0
 10
6.52089
 20
139.401
 30
0.0
 11
6.59391
 21
138.938
 31
0.0
  0
LINE
  8
0
 62
     0
 10
6.59391
 20
138.938
 30
0.0
 11
6.52089
 21
138.473
 31
0.0
  0
LINE
  8
0
 62
     0
 10
6.52089
 20
138.473
 30
0.0
 11
6.30728
 21
138.056
 31
0.0
  0
LINE
  8
0
 62
     0
 10
6.30728
 20
138.056
 30
0.0
 11
5.97517
 21
137.724
 31
0.0
  0
LINE
  8
0
 62
     0
 10
5.97517
 20
137.724
 30
0.0
 11
5.55763
 21
137.51
 31
0.0
  0
LINE
  8
0
 62
     0
 10
5.55763
 20
137.51
 30
0.0
 11
5.09323
 21
137.437
 31
0.0
  0
LINE
  8
0
 62
     0
 10
5.09323
 20
137.437
 30
0.0
 11
4.63021
 21
137.51
 31
0.0
  0
LINE
  8
0
 62
     0
 10
4.63021
 20
137.51
 30
0.0
 11
4.21128
 21
137.724
 31
0.0
  0
LINE
  8
0
 62
     0
 10
4.21128
 20
137.724
 30
0.0
 11
3.87918
 21
138.056
 31
0.0
  0
LINE
  8
0
 62
     0
 10
3.87918
 20
138.056
 30
0.0
 11
3.66695
 21
138.473
 31
0.0
  0
LINE
  8
0
 62
     0
 10
3.66695
 20
138.473
 30
0.0
 11
3.59392
 21
138.938
 31
0.0
  0
LINE
  8
0
 62
     0
 10
3.59392
 20
138.938
 30
0.0
 11
3.66695
 21
139.401
 31
0.0
  0
LINE
  8
0
 62
     0
 10
3.66695
 20
139.401
 30
0.0
 11
3.87918
 21
139.82
 31
0.0
  0
LINE
  8
0
 62
     0
 10
3.87918
 20
139.82
 30
0.0
 11
4.21128
 21
140.152
 31
0.0
  0
LINE
  8
0
 62
     0
 10
4.21128
 20
140.152
 30
0.0
 11
4.63021
 21
140.364
 31
0.0
  0
LINE
  8
0
 62
     0
 10
4.63021
 20
140.364
 30
0.0
 11
5.09323
 21
140.437
 31
0.0
  0
ENDSEC
  0
EOF
