<?xml version="1.0"?>
<!-- Generated by SVGo -->
<svg width="100.200mm" height="119.250mm"
     viewBox="0.000 0.000 100.200 119.250"
     xmlns="http://www.w3.org/2000/svg" 
     xmlns:xlink="http://www.w3.org/1999/xlink">
<polygon points="93.200,5.000 93.357,5.006 93.513,5.025 93.667,5.055 93.818,5.098 93.965,5.152 94.108,5.218 94.245,5.295 94.376,5.382 94.499,5.479 94.614,5.586 94.721,5.701 94.818,5.824 94.905,5.955 94.982,6.092 95.048,6.235 95.102,6.382 95.145,6.533 95.175,6.687 95.194,6.843 95.200,7.000 95.200,112.250 95.194,112.407 95.175,112.563 95.145,112.717 95.102,112.868 95.048,113.015 94.982,113.158 94.905,113.295 94.818,113.426 94.721,113.549 94.614,113.664 94.499,113.771 94.376,113.868 94.245,113.955 94.108,114.032 93.965,114.098 93.818,114.152 93.667,114.195 93.513,114.225 93.357,114.244 93.200,114.250 7.000,114.250 6.843,114.244 6.687,114.225 6.533,114.195 6.382,114.152 6.235,114.098 6.092,114.032 5.955,113.955 5.824,113.868 5.701,113.771 5.586,113.664 5.479,113.549 5.382,113.426 5.295,113.295 5.218,113.158 5.152,113.015 5.098,112.868 5.055,112.717 5.025,112.563 5.006,112.407 5.000,112.250 5.000,7.000 5.006,6.843 5.025,6.687 5.055,6.533 5.098,6.382 5.152,6.235 5.218,6.092 5.295,5.955 5.382,5.824 5.479,5.701 5.586,5.586 5.701,5.479 5.824,5.382 5.955,5.295 6.092,5.218 6.235,5.152 6.382,5.098 6.533,5.055 6.687,5.025 6.843,5.006 7.000,5.000" style="fill:none;stroke-width:0.2;stroke:black"/>
<polygon points="50.100,6.500 50.718,6.598 51.276,6.882 51.718,7.324 52.002,7.882 52.100,8.500 52.002,9.118 51.718,9.676 51.276,10.118 50.718,10.402 50.100,10.500 49.482,10.402 48.924,10.118 48.482,9.676 48.198,9.118 48.100,8.500 48.198,7.882 48.482,7.324 48.924,6.882 49.482,6.598" style="fill:none;stroke-width:0.2;stroke:black"/>
<polygon points="91.700,6.500 92.318,6.598 92.876,6.882 93.318,7.324 93.602,7.882 93.700,8.500 93.602,9.118 93.318,9.676 92.876,10.118 92.318,10.402 91.700,10.500 91.082,10.402 90.524,10.118 90.082,9.676 89.798,9.118 89.700,8.500 89.798,7.882 90.082,7.324 90.524,6.882 91.082,6.598" style="fill:none;stroke-width:0.2;stroke:black"/>
<polygon points="91.700,57.625 92.318,57.723 92.876,58.007 93.318,58.449 93.602,59.007 93.700,59.625 93.602,60.243 93.318,60.801 92.876,61.243 92.318,61.527 91.700,61.625 91.082,61.527 90.524,61.243 90.082,60.801 89.798,60.243 89.700,59.625 89.798,59.007 90.082,58.449 90.524,58.007 91.082,57.723" style="fill:none;stroke-width:0.2;stroke:black"/>
<polygon points="91.700,108.750 92.318,108.848 92.876,109.132 93.318,109.574 93.602,110.132 93.700,110.750 93.602,111.368 93.318,111.926 92.876,112.368 92.318,112.652 91.700,112.750 91.082,112.652 90.524,112.368 90.082,111.926 89.798,111.368 89.700,110.750 89.798,110.132 90.082,109.574 90.524,109.132 91.082,108.848" style="fill:none;stroke-width:0.2;stroke:black"/>
<polygon points="50.100,108.750 50.718,108.848 51.276,109.132 51.718,109.574 52.002,110.132 52.100,110.750 52.002,111.368 51.718,111.926 51.276,112.368 50.718,112.652 50.100,112.750 49.482,112.652 48.924,112.368 48.482,111.926 48.198,111.368 48.100,110.750 48.198,110.132 48.482,109.574 48.924,109.132 49.482,108.848" style="fill:none;stroke-width:0.2;stroke:black"/>
<polygon points="8.500,108.750 9.118,108.848 9.676,109.132 10.118,109.574 10.402,110.132 10.500,110.750 10.402,111.368 10.118,111.926 9.676,112.368 9.118,112.652 8.500,112.750 7.882,112.652 7.324,112.368 6.882,111.926 6.598,111.368 6.500,110.750 6.598,110.132 6.882,109.574 7.324,109.132 7.882,108.848" style="fill:none;stroke-width:0.2;stroke:black"/>
<polygon points="8.500,57.625 9.118,57.723 9.676,58.007 10.118,58.449 10.402,59.007 10.500,59.625 10.402,60.243 10.118,60.801 9.676,61.243 9.118,61.527 8.500,61.625 7.882,61.527 7.324,61.243 6.882,60.801 6.598,60.243 6.500,59.625 6.598,59.007 6.882,58.449 7.324,58.007 7.882,57.723" style="fill:none;stroke-width:0.2;stroke:black"/>
<polygon points="8.500,6.500 9.118,6.598 9.676,6.882 10.118,7.324 10.402,7.882 10.500,8.500 10.402,9.118 10.118,9.676 9.676,10.118 9.118,10.402 8.500,10.500 7.882,10.402 7.324,10.118 6.882,9.676 6.598,9.118 6.500,8.500 6.598,7.882 6.882,7.324 7.324,6.882 7.882,6.598" style="fill:none;stroke-width:0.2;stroke:black"/>
</svg>
