  0
SECTION
  2
HEADER
  9
$ACADVER
  1
AC1009
  9
$EXTMIN
 10
0.0
 20
0.0
 30
0.0
  9
$EXTMAX
 10
1000.0
 20
1000.0
 30
0.0
  9
$FILLMODE
 70
 0
  9
$SPLFRAME
 70
 1
  0
ENDSEC
  0
SECTION
  2
TABLES
  0
TABLE
  2
LAYER
 70
1
  0
LAYER
  2
0
 70
     0
 62
     7
  6
CONTINUOUS
  0
ENDTAB
  0
ENDSEC
  0
SECTION
  2
ENTITIES
  0
LINE
  8
0
 62
     0
 10
88.2936
 20
109.343
 30
0.0
 11
88.4509
 21
109.338
 31
0.0
  0
LINE
  8
0
 62
     0
 10
88.4509
 20
109.338
 30
0.0
 11
88.6065
 21
109.318
 31
0.0
  0
LINE
  8
0
 62
     0
 10
88.6065
 20
109.318
 30
0.0
 11
88.7607
 21
109.288
 31
0.0
  0
LINE
  8
0
 62
     0
 10
88.7607
 20
109.288
 30
0.0
 11
88.9123
 21
109.245
 31
0.0
  0
LINE
  8
0
 62
     0
 10
88.9123
 20
109.245
 30
0.0
 11
89.0584
 21
109.193
 31
0.0
  0
LINE
  8
0
 62
     0
 10
89.0584
 20
109.193
 30
0.0
 11
89.2016
 21
109.125
 31
0.0
  0
LINE
  8
0
 62
     0
 10
89.2016
 20
109.125
 30
0.0
 11
89.3382
 21
109.048
 31
0.0
  0
LINE
  8
0
 62
     0
 10
89.3382
 20
109.048
 30
0.0
 11
89.469
 21
108.961
 31
0.0
  0
LINE
  8
0
 62
     0
 10
89.469
 20
108.961
 30
0.0
 11
89.5932
 21
108.864
 31
0.0
  0
LINE
  8
0
 62
     0
 10
89.5932
 20
108.864
 30
0.0
 11
89.7075
 21
108.758
 31
0.0
  0
LINE
  8
0
 62
     0
 10
89.7075
 20
108.758
 30
0.0
 11
89.8151
 21
108.642
 31
0.0
  0
LINE
  8
0
 62
     0
 10
89.8151
 20
108.642
 30
0.0
 11
89.9114
 21
108.519
 31
0.0
  0
LINE
  8
0
 62
     0
 10
89.9114
 20
108.519
 30
0.0
 11
89.9982
 21
108.388
 31
0.0
  0
LINE
  8
0
 62
     0
 10
89.9982
 20
108.388
 30
0.0
 11
90.0755
 21
108.253
 31
0.0
  0
LINE
  8
0
 62
     0
 10
90.0755
 20
108.253
 30
0.0
 11
90.1418
 21
108.108
 31
0.0
  0
LINE
  8
0
 62
     0
 10
90.1418
 20
108.108
 30
0.0
 11
90.1954
 21
107.961
 31
0.0
  0
LINE
  8
0
 62
     0
 10
90.1954
 20
107.961
 30
0.0
 11
90.2381
 21
107.812
 31
0.0
  0
LINE
  8
0
 62
     0
 10
90.2381
 20
107.812
 30
0.0
 11
90.2684
 21
107.656
 31
0.0
  0
LINE
  8
0
 62
     0
 10
90.2684
 20
107.656
 30
0.0
 11
90.2878
 21
107.501
 31
0.0
  0
LINE
  8
0
 62
     0
 10
90.2878
 20
107.501
 30
0.0
 11
90.2931
 21
107.344
 31
0.0
  0
LINE
  8
0
 62
     0
 10
90.2931
 20
107.344
 30
0.0
 11
90.2931
 21
2.09324
 31
0.0
  0
LINE
  8
0
 62
     0
 10
90.2931
 20
2.09324
 30
0.0
 11
90.2878
 21
1.93614
 31
0.0
  0
LINE
  8
0
 62
     0
 10
90.2878
 20
1.93614
 30
0.0
 11
90.2684
 21
1.78043
 31
0.0
  0
LINE
  8
0
 62
     0
 10
90.2684
 20
1.78043
 30
0.0
 11
90.2381
 21
1.62746
 31
0.0
  0
LINE
  8
0
 62
     0
 10
90.2381
 20
1.62746
 30
0.0
 11
90.1954
 21
1.4745
 31
0.0
  0
LINE
  8
0
 62
     0
 10
90.1954
 20
1.4745
 30
0.0
 11
90.1418
 21
1.32843
 31
0.0
  0
LINE
  8
0
 62
     0
 10
90.1418
 20
1.32843
 30
0.0
 11
90.0755
 21
1.18649
 31
0.0
  0
LINE
  8
0
 62
     0
 10
90.0755
 20
1.18649
 30
0.0
 11
89.9982
 21
1.04869
 31
0.0
  0
LINE
  8
0
 62
     0
 10
89.9982
 20
1.04869
 30
0.0
 11
89.9114
 21
0.917773
 31
0.0
  0
LINE
  8
0
 62
     0
 10
89.9114
 20
0.917773
 30
0.0
 11
89.8151
 21
0.79375
 31
0.0
  0
LINE
  8
0
 62
     0
 10
89.8151
 20
0.79375
 30
0.0
 11
89.7075
 21
0.679372
 31
0.0
  0
LINE
  8
0
 62
     0
 10
89.7075
 20
0.679372
 30
0.0
 11
89.5932
 21
0.571885
 31
0.0
  0
LINE
  8
0
 62
     0
 10
89.5932
 20
0.571885
 30
0.0
 11
89.469
 21
0.475424
 31
0.0
  0
LINE
  8
0
 62
     0
 10
89.469
 20
0.475424
 30
0.0
 11
89.3382
 21
0.388606
 31
0.0
  0
LINE
  8
0
 62
     0
 10
89.3382
 20
0.388606
 30
0.0
 11
89.2016
 21
0.311437
 31
0.0
  0
LINE
  8
0
 62
     0
 10
89.2016
 20
0.311437
 30
0.0
 11
89.0584
 21
0.245291
 31
0.0
  0
LINE
  8
0
 62
     0
 10
89.0584
 20
0.245291
 30
0.0
 11
88.9123
 21
0.191547
 31
0.0
  0
LINE
  8
0
 62
     0
 10
88.9123
 20
0.191547
 30
0.0
 11
88.7607
 21
0.148828
 31
0.0
  0
LINE
  8
0
 62
     0
 10
88.7607
 20
0.148828
 30
0.0
 11
88.6065
 21
0.118511
 31
0.0
  0
LINE
  8
0
 62
     0
 10
88.6065
 20
0.118511
 30
0.0
 11
88.4509
 21
0.0992188
 31
0.0
  0
LINE
  8
0
 62
     0
 10
88.4509
 20
0.0992188
 30
0.0
 11
88.2936
 21
0.0937066
 31
0.0
  0
LINE
  8
0
 62
     0
 10
88.2936
 20
0.0937066
 30
0.0
 11
2.09324
 21
0.0937066
 31
0.0
  0
LINE
  8
0
 62
     0
 10
2.09324
 20
0.0937066
 30
0.0
 11
1.93614
 21
0.0992188
 31
0.0
  0
LINE
  8
0
 62
     0
 10
1.93614
 20
0.0992188
 30
0.0
 11
1.78043
 21
0.118511
 31
0.0
  0
LINE
  8
0
 62
     0
 10
1.78043
 20
0.118511
 30
0.0
 11
1.62609
 21
0.148828
 31
0.0
  0
LINE
  8
0
 62
     0
 10
1.62609
 20
0.148828
 30
0.0
 11
1.47588
 21
0.191547
 31
0.0
  0
LINE
  8
0
 62
     0
 10
1.47588
 20
0.191547
 30
0.0
 11
1.32843
 21
0.245291
 31
0.0
  0
LINE
  8
0
 62
     0
 10
1.32843
 20
0.245291
 30
0.0
 11
1.18511
 21
0.311437
 31
0.0
  0
LINE
  8
0
 62
     0
 10
1.18511
 20
0.311437
 30
0.0
 11
1.04869
 21
0.388606
 31
0.0
  0
LINE
  8
0
 62
     0
 10
1.04869
 20
0.388606
 30
0.0
 11
0.917773
 21
0.475424
 31
0.0
  0
LINE
  8
0
 62
     0
 10
0.917773
 20
0.475424
 30
0.0
 11
0.795129
 21
0.571885
 31
0.0
  0
LINE
  8
0
 62
     0
 10
0.795129
 20
0.571885
 30
0.0
 11
0.679372
 21
0.679372
 31
0.0
  0
LINE
  8
0
 62
     0
 10
0.679372
 20
0.679372
 30
0.0
 11
0.573264
 21
0.79375
 31
0.0
  0
LINE
  8
0
 62
     0
 10
0.573264
 20
0.79375
 30
0.0
 11
0.475424
 21
0.917773
 31
0.0
  0
LINE
  8
0
 62
     0
 10
0.475424
 20
0.917773
 30
0.0
 11
0.388606
 21
1.04869
 31
0.0
  0
LINE
  8
0
 62
     0
 10
0.388606
 20
1.04869
 30
0.0
 11
0.311437
 21
1.18649
 31
0.0
  0
LINE
  8
0
 62
     0
 10
0.311437
 20
1.18649
 30
0.0
 11
0.245291
 21
1.32843
 31
0.0
  0
LINE
  8
0
 62
     0
 10
0.245291
 20
1.32843
 30
0.0
 11
0.191547
 21
1.4745
 31
0.0
  0
LINE
  8
0
 62
     0
 10
0.191547
 20
1.4745
 30
0.0
 11
0.148828
 21
1.62746
 31
0.0
  0
LINE
  8
0
 62
     0
 10
0.148828
 20
1.62746
 30
0.0
 11
0.118511
 21
1.78043
 31
0.0
  0
LINE
  8
0
 62
     0
 10
0.118511
 20
1.78043
 30
0.0
 11
0.0992188
 21
1.93614
 31
0.0
  0
LINE
  8
0
 62
     0
 10
0.0992188
 20
1.93614
 30
0.0
 11
0.0937066
 21
2.09324
 31
0.0
  0
LINE
  8
0
 62
     0
 10
0.0937066
 20
2.09324
 30
0.0
 11
0.0937066
 21
107.344
 31
0.0
  0
LINE
  8
0
 62
     0
 10
0.0937066
 20
107.344
 30
0.0
 11
0.0992188
 21
107.501
 31
0.0
  0
LINE
  8
0
 62
     0
 10
0.0992188
 20
107.501
 30
0.0
 11
0.118511
 21
107.656
 31
0.0
  0
LINE
  8
0
 62
     0
 10
0.118511
 20
107.656
 30
0.0
 11
0.148828
 21
107.812
 31
0.0
  0
LINE
  8
0
 62
     0
 10
0.148828
 20
107.812
 30
0.0
 11
0.191547
 21
107.961
 31
0.0
  0
LINE
  8
0
 62
     0
 10
0.191547
 20
107.961
 30
0.0
 11
0.245291
 21
108.108
 31
0.0
  0
LINE
  8
0
 62
     0
 10
0.245291
 20
108.108
 30
0.0
 11
0.311437
 21
108.253
 31
0.0
  0
LINE
  8
0
 62
     0
 10
0.311437
 20
108.253
 30
0.0
 11
0.388606
 21
108.388
 31
0.0
  0
LINE
  8
0
 62
     0
 10
0.388606
 20
108.388
 30
0.0
 11
0.475424
 21
108.519
 31
0.0
  0
LINE
  8
0
 62
     0
 10
0.475424
 20
108.519
 30
0.0
 11
0.573264
 21
108.642
 31
0.0
  0
LINE
  8
0
 62
     0
 10
0.573264
 20
108.642
 30
0.0
 11
0.679372
 21
108.758
 31
0.0
  0
LINE
  8
0
 62
     0
 10
0.679372
 20
108.758
 30
0.0
 11
0.795129
 21
108.864
 31
0.0
  0
LINE
  8
0
 62
     0
 10
0.795129
 20
108.864
 30
0.0
 11
0.917773
 21
108.961
 31
0.0
  0
LINE
  8
0
 62
     0
 10
0.917773
 20
108.961
 30
0.0
 11
1.04869
 21
109.048
 31
0.0
  0
LINE
  8
0
 62
     0
 10
1.04869
 20
109.048
 30
0.0
 11
1.18511
 21
109.125
 31
0.0
  0
LINE
  8
0
 62
     0
 10
1.18511
 20
109.125
 30
0.0
 11
1.32843
 21
109.193
 31
0.0
  0
LINE
  8
0
 62
     0
 10
1.32843
 20
109.193
 30
0.0
 11
1.47588
 21
109.245
 31
0.0
  0
LINE
  8
0
 62
     0
 10
1.47588
 20
109.245
 30
0.0
 11
1.62609
 21
109.288
 31
0.0
  0
LINE
  8
0
 62
     0
 10
1.62609
 20
109.288
 30
0.0
 11
1.78043
 21
109.318
 31
0.0
  0
LINE
  8
0
 62
     0
 10
1.78043
 20
109.318
 30
0.0
 11
1.93614
 21
109.338
 31
0.0
  0
LINE
  8
0
 62
     0
 10
1.93614
 20
109.338
 30
0.0
 11
2.09324
 21
109.343
 31
0.0
  0
LINE
  8
0
 62
     0
 10
2.09324
 20
109.343
 30
0.0
 11
88.2936
 21
109.343
 31
0.0
  0
LINE
  8
0
 62
     0
 10
45.194
 20
107.842
 30
0.0
 11
45.8114
 21
107.745
 31
0.0
  0
LINE
  8
0
 62
     0
 10
45.8114
 20
107.745
 30
0.0
 11
46.3695
 21
107.461
 31
0.0
  0
LINE
  8
0
 62
     0
 10
46.3695
 20
107.461
 30
0.0
 11
46.8118
 21
107.02
 31
0.0
  0
LINE
  8
0
 62
     0
 10
46.8118
 20
107.02
 30
0.0
 11
47.0958
 21
106.462
 31
0.0
  0
LINE
  8
0
 62
     0
 10
47.0958
 20
106.462
 30
0.0
 11
47.1936
 21
105.843
 31
0.0
  0
LINE
  8
0
 62
     0
 10
47.1936
 20
105.843
 30
0.0
 11
47.0958
 21
105.226
 31
0.0
  0
LINE
  8
0
 62
     0
 10
47.0958
 20
105.226
 30
0.0
 11
46.8118
 21
104.667
 31
0.0
  0
LINE
  8
0
 62
     0
 10
46.8118
 20
104.667
 30
0.0
 11
46.3695
 21
104.226
 31
0.0
  0
LINE
  8
0
 62
     0
 10
46.3695
 20
104.226
 30
0.0
 11
45.8114
 21
103.941
 31
0.0
  0
LINE
  8
0
 62
     0
 10
45.8114
 20
103.941
 30
0.0
 11
45.194
 21
103.845
 31
0.0
  0
LINE
  8
0
 62
     0
 10
45.194
 20
103.845
 30
0.0
 11
44.5752
 21
103.941
 31
0.0
  0
LINE
  8
0
 62
     0
 10
44.5752
 20
103.941
 30
0.0
 11
44.0171
 21
104.226
 31
0.0
  0
LINE
  8
0
 62
     0
 10
44.0171
 20
104.226
 30
0.0
 11
43.5762
 21
104.667
 31
0.0
  0
LINE
  8
0
 62
     0
 10
43.5762
 20
104.667
 30
0.0
 11
43.2911
 21
105.226
 31
0.0
  0
LINE
  8
0
 62
     0
 10
43.2911
 20
105.226
 30
0.0
 11
43.1934
 21
105.843
 31
0.0
  0
LINE
  8
0
 62
     0
 10
43.1934
 20
105.843
 30
0.0
 11
43.2911
 21
106.462
 31
0.0
  0
LINE
  8
0
 62
     0
 10
43.2911
 20
106.462
 30
0.0
 11
43.5762
 21
107.02
 31
0.0
  0
LINE
  8
0
 62
     0
 10
43.5762
 20
107.02
 30
0.0
 11
44.0171
 21
107.461
 31
0.0
  0
LINE
  8
0
 62
     0
 10
44.0171
 20
107.461
 30
0.0
 11
44.5752
 21
107.745
 31
0.0
  0
LINE
  8
0
 62
     0
 10
44.5752
 20
107.745
 30
0.0
 11
45.194
 21
107.842
 31
0.0
  0
LINE
  8
0
 62
     0
 10
86.7943
 20
107.842
 30
0.0
 11
87.4116
 21
107.745
 31
0.0
  0
LINE
  8
0
 62
     0
 10
87.4116
 20
107.745
 30
0.0
 11
87.9697
 21
107.461
 31
0.0
  0
LINE
  8
0
 62
     0
 10
87.9697
 20
107.461
 30
0.0
 11
88.4121
 21
107.02
 31
0.0
  0
LINE
  8
0
 62
     0
 10
88.4121
 20
107.02
 30
0.0
 11
88.6961
 21
106.462
 31
0.0
  0
LINE
  8
0
 62
     0
 10
88.6961
 20
106.462
 30
0.0
 11
88.7938
 21
105.843
 31
0.0
  0
LINE
  8
0
 62
     0
 10
88.7938
 20
105.843
 30
0.0
 11
88.6961
 21
105.226
 31
0.0
  0
LINE
  8
0
 62
     0
 10
88.6961
 20
105.226
 30
0.0
 11
88.4121
 21
104.667
 31
0.0
  0
LINE
  8
0
 62
     0
 10
88.4121
 20
104.667
 30
0.0
 11
87.9697
 21
104.226
 31
0.0
  0
LINE
  8
0
 62
     0
 10
87.9697
 20
104.226
 30
0.0
 11
87.4116
 21
103.941
 31
0.0
  0
LINE
  8
0
 62
     0
 10
87.4116
 20
103.941
 30
0.0
 11
86.7943
 21
103.845
 31
0.0
  0
LINE
  8
0
 62
     0
 10
86.7943
 20
103.845
 30
0.0
 11
86.1755
 21
103.941
 31
0.0
  0
LINE
  8
0
 62
     0
 10
86.1755
 20
103.941
 30
0.0
 11
85.6174
 21
104.226
 31
0.0
  0
LINE
  8
0
 62
     0
 10
85.6174
 20
104.226
 30
0.0
 11
85.175
 21
104.667
 31
0.0
  0
LINE
  8
0
 62
     0
 10
85.175
 20
104.667
 30
0.0
 11
84.8914
 21
105.226
 31
0.0
  0
LINE
  8
0
 62
     0
 10
84.8914
 20
105.226
 30
0.0
 11
84.7933
 21
105.843
 31
0.0
  0
LINE
  8
0
 62
     0
 10
84.7933
 20
105.843
 30
0.0
 11
84.8914
 21
106.462
 31
0.0
  0
LINE
  8
0
 62
     0
 10
84.8914
 20
106.462
 30
0.0
 11
85.175
 21
107.02
 31
0.0
  0
LINE
  8
0
 62
     0
 10
85.175
 20
107.02
 30
0.0
 11
85.6174
 21
107.461
 31
0.0
  0
LINE
  8
0
 62
     0
 10
85.6174
 20
107.461
 30
0.0
 11
86.1755
 21
107.745
 31
0.0
  0
LINE
  8
0
 62
     0
 10
86.1755
 20
107.745
 30
0.0
 11
86.7943
 21
107.842
 31
0.0
  0
LINE
  8
0
 62
     0
 10
86.7943
 20
56.7186
 30
0.0
 11
87.4116
 21
56.6208
 31
0.0
  0
LINE
  8
0
 62
     0
 10
87.4116
 20
56.6208
 30
0.0
 11
87.9697
 21
56.3369
 31
0.0
  0
LINE
  8
0
 62
     0
 10
87.9697
 20
56.3369
 30
0.0
 11
88.4121
 21
55.8959
 31
0.0
  0
LINE
  8
0
 62
     0
 10
88.4121
 20
55.8959
 30
0.0
 11
88.6961
 21
55.3378
 31
0.0
  0
LINE
  8
0
 62
     0
 10
88.6961
 20
55.3378
 30
0.0
 11
88.7938
 21
54.719
 31
0.0
  0
LINE
  8
0
 62
     0
 10
88.7938
 20
54.719
 30
0.0
 11
88.6961
 21
54.1016
 31
0.0
  0
LINE
  8
0
 62
     0
 10
88.6961
 20
54.1016
 30
0.0
 11
88.4121
 21
53.5436
 31
0.0
  0
LINE
  8
0
 62
     0
 10
88.4121
 20
53.5436
 30
0.0
 11
87.9697
 21
53.1001
 31
0.0
  0
LINE
  8
0
 62
     0
 10
87.9697
 20
53.1001
 30
0.0
 11
87.4116
 21
52.8161
 31
0.0
  0
LINE
  8
0
 62
     0
 10
87.4116
 20
52.8161
 30
0.0
 11
86.7943
 21
52.7195
 31
0.0
  0
LINE
  8
0
 62
     0
 10
86.7943
 20
52.7195
 30
0.0
 11
86.1755
 21
52.8161
 31
0.0
  0
LINE
  8
0
 62
     0
 10
86.1755
 20
52.8161
 30
0.0
 11
85.6174
 21
53.1001
 31
0.0
  0
LINE
  8
0
 62
     0
 10
85.6174
 20
53.1001
 30
0.0
 11
85.175
 21
53.5436
 31
0.0
  0
LINE
  8
0
 62
     0
 10
85.175
 20
53.5436
 30
0.0
 11
84.8914
 21
54.1016
 31
0.0
  0
LINE
  8
0
 62
     0
 10
84.8914
 20
54.1016
 30
0.0
 11
84.7933
 21
54.719
 31
0.0
  0
LINE
  8
0
 62
     0
 10
84.7933
 20
54.719
 30
0.0
 11
84.8914
 21
55.3378
 31
0.0
  0
LINE
  8
0
 62
     0
 10
84.8914
 20
55.3378
 30
0.0
 11
85.175
 21
55.8959
 31
0.0
  0
LINE
  8
0
 62
     0
 10
85.175
 20
55.8959
 30
0.0
 11
85.6174
 21
56.3369
 31
0.0
  0
LINE
  8
0
 62
     0
 10
85.6174
 20
56.3369
 30
0.0
 11
86.1755
 21
56.6208
 31
0.0
  0
LINE
  8
0
 62
     0
 10
86.1755
 20
56.6208
 30
0.0
 11
86.7943
 21
56.7186
 31
0.0
  0
LINE
  8
0
 62
     0
 10
86.7943
 20
5.59484
 30
0.0
 11
87.4116
 21
5.49561
 31
0.0
  0
LINE
  8
0
 62
     0
 10
87.4116
 20
5.49561
 30
0.0
 11
87.9697
 21
5.2131
 31
0.0
  0
LINE
  8
0
 62
     0
 10
87.9697
 20
5.2131
 30
0.0
 11
88.4121
 21
4.76938
 31
0.0
  0
LINE
  8
0
 62
     0
 10
88.4121
 20
4.76938
 30
0.0
 11
88.6961
 21
4.21266
 31
0.0
  0
LINE
  8
0
 62
     0
 10
88.6961
 20
4.21266
 30
0.0
 11
88.7938
 21
3.59255
 31
0.0
  0
LINE
  8
0
 62
     0
 10
88.7938
 20
3.59255
 30
0.0
 11
88.6961
 21
2.97518
 31
0.0
  0
LINE
  8
0
 62
     0
 10
88.6961
 20
2.97518
 30
0.0
 11
88.4121
 21
2.41708
 31
0.0
  0
LINE
  8
0
 62
     0
 10
88.4121
 20
2.41708
 30
0.0
 11
87.9697
 21
1.97473
 31
0.0
  0
LINE
  8
0
 62
     0
 10
87.9697
 20
1.97473
 30
0.0
 11
87.4116
 21
1.69085
 31
0.0
  0
LINE
  8
0
 62
     0
 10
87.4116
 20
1.69085
 30
0.0
 11
86.7943
 21
1.59301
 31
0.0
  0
LINE
  8
0
 62
     0
 10
86.7943
 20
1.59301
 30
0.0
 11
86.1755
 21
1.69085
 31
0.0
  0
LINE
  8
0
 62
     0
 10
86.1755
 20
1.69085
 30
0.0
 11
85.6174
 21
1.97473
 31
0.0
  0
LINE
  8
0
 62
     0
 10
85.6174
 20
1.97473
 30
0.0
 11
85.175
 21
2.41708
 31
0.0
  0
LINE
  8
0
 62
     0
 10
85.175
 20
2.41708
 30
0.0
 11
84.8914
 21
2.97518
 31
0.0
  0
LINE
  8
0
 62
     0
 10
84.8914
 20
2.97518
 30
0.0
 11
84.7933
 21
3.59255
 31
0.0
  0
LINE
  8
0
 62
     0
 10
84.7933
 20
3.59255
 30
0.0
 11
84.8914
 21
4.21266
 31
0.0
  0
LINE
  8
0
 62
     0
 10
84.8914
 20
4.21266
 30
0.0
 11
85.175
 21
4.76938
 31
0.0
  0
LINE
  8
0
 62
     0
 10
85.175
 20
4.76938
 30
0.0
 11
85.6174
 21
5.2131
 31
0.0
  0
LINE
  8
0
 62
     0
 10
85.6174
 20
5.2131
 30
0.0
 11
86.1755
 21
5.49561
 31
0.0
  0
LINE
  8
0
 62
     0
 10
86.1755
 20
5.49561
 30
0.0
 11
86.7943
 21
5.59484
 31
0.0
  0
LINE
  8
0
 62
     0
 10
45.194
 20
5.59484
 30
0.0
 11
45.8114
 21
5.49561
 31
0.0
  0
LINE
  8
0
 62
     0
 10
45.8114
 20
5.49561
 30
0.0
 11
46.3695
 21
5.2131
 31
0.0
  0
LINE
  8
0
 62
     0
 10
46.3695
 20
5.2131
 30
0.0
 11
46.8118
 21
4.76938
 31
0.0
  0
LINE
  8
0
 62
     0
 10
46.8118
 20
4.76938
 30
0.0
 11
47.0958
 21
4.21266
 31
0.0
  0
LINE
  8
0
 62
     0
 10
47.0958
 20
4.21266
 30
0.0
 11
47.1936
 21
3.59255
 31
0.0
  0
LINE
  8
0
 62
     0
 10
47.1936
 20
3.59255
 30
0.0
 11
47.0958
 21
2.97518
 31
0.0
  0
LINE
  8
0
 62
     0
 10
47.0958
 20
2.97518
 30
0.0
 11
46.8118
 21
2.41708
 31
0.0
  0
LINE
  8
0
 62
     0
 10
46.8118
 20
2.41708
 30
0.0
 11
46.3695
 21
1.97473
 31
0.0
  0
LINE
  8
0
 62
     0
 10
46.3695
 20
1.97473
 30
0.0
 11
45.8114
 21
1.69085
 31
0.0
  0
LINE
  8
0
 62
     0
 10
45.8114
 20
1.69085
 30
0.0
 11
45.194
 21
1.59301
 31
0.0
  0
LINE
  8
0
 62
     0
 10
45.194
 20
1.59301
 30
0.0
 11
44.5752
 21
1.69085
 31
0.0
  0
LINE
  8
0
 62
     0
 10
44.5752
 20
1.69085
 30
0.0
 11
44.0171
 21
1.97473
 31
0.0
  0
LINE
  8
0
 62
     0
 10
44.0171
 20
1.97473
 30
0.0
 11
43.5762
 21
2.41708
 31
0.0
  0
LINE
  8
0
 62
     0
 10
43.5762
 20
2.41708
 30
0.0
 11
43.2911
 21
2.97518
 31
0.0
  0
LINE
  8
0
 62
     0
 10
43.2911
 20
2.97518
 30
0.0
 11
43.1934
 21
3.59255
 31
0.0
  0
LINE
  8
0
 62
     0
 10
43.1934
 20
3.59255
 30
0.0
 11
43.2911
 21
4.21266
 31
0.0
  0
LINE
  8
0
 62
     0
 10
43.2911
 20
4.21266
 30
0.0
 11
43.5762
 21
4.76938
 31
0.0
  0
LINE
  8
0
 62
     0
 10
43.5762
 20
4.76938
 30
0.0
 11
44.0171
 21
5.2131
 31
0.0
  0
LINE
  8
0
 62
     0
 10
44.0171
 20
5.2131
 30
0.0
 11
44.5752
 21
5.49561
 31
0.0
  0
LINE
  8
0
 62
     0
 10
44.5752
 20
5.49561
 30
0.0
 11
45.194
 21
5.59484
 31
0.0
  0
LINE
  8
0
 62
     0
 10
3.59392
 20
5.59484
 30
0.0
 11
4.21128
 21
5.49561
 31
0.0
  0
LINE
  8
0
 62
     0
 10
4.21128
 20
5.49561
 30
0.0
 11
4.76938
 21
5.2131
 31
0.0
  0
LINE
  8
0
 62
     0
 10
4.76938
 20
5.2131
 30
0.0
 11
5.21173
 21
4.76938
 31
0.0
  0
LINE
  8
0
 62
     0
 10
5.21173
 20
4.76938
 30
0.0
 11
5.49561
 21
4.21266
 31
0.0
  0
LINE
  8
0
 62
     0
 10
5.49561
 20
4.21266
 30
0.0
 11
5.59347
 21
3.59255
 31
0.0
  0
LINE
  8
0
 62
     0
 10
5.59347
 20
3.59255
 30
0.0
 11
5.49561
 21
2.97518
 31
0.0
  0
LINE
  8
0
 62
     0
 10
5.49561
 20
2.97518
 30
0.0
 11
5.21173
 21
2.41708
 31
0.0
  0
LINE
  8
0
 62
     0
 10
5.21173
 20
2.41708
 30
0.0
 11
4.76938
 21
1.97473
 31
0.0
  0
LINE
  8
0
 62
     0
 10
4.76938
 20
1.97473
 30
0.0
 11
4.21128
 21
1.69085
 31
0.0
  0
LINE
  8
0
 62
     0
 10
4.21128
 20
1.69085
 30
0.0
 11
3.59392
 21
1.59301
 31
0.0
  0
LINE
  8
0
 62
     0
 10
3.59392
 20
1.59301
 30
0.0
 11
2.97518
 21
1.69085
 31
0.0
  0
LINE
  8
0
 62
     0
 10
2.97518
 20
1.69085
 30
0.0
 11
2.41708
 21
1.97473
 31
0.0
  0
LINE
  8
0
 62
     0
 10
2.41708
 20
1.97473
 30
0.0
 11
1.97611
 21
2.41708
 31
0.0
  0
LINE
  8
0
 62
     0
 10
1.97611
 20
2.41708
 30
0.0
 11
1.69223
 21
2.97518
 31
0.0
  0
LINE
  8
0
 62
     0
 10
1.69223
 20
2.97518
 30
0.0
 11
1.59439
 21
3.59255
 31
0.0
  0
LINE
  8
0
 62
     0
 10
1.59439
 20
3.59255
 30
0.0
 11
1.69223
 21
4.21266
 31
0.0
  0
LINE
  8
0
 62
     0
 10
1.69223
 20
4.21266
 30
0.0
 11
1.97611
 21
4.76938
 31
0.0
  0
LINE
  8
0
 62
     0
 10
1.97611
 20
4.76938
 30
0.0
 11
2.41708
 21
5.2131
 31
0.0
  0
LINE
  8
0
 62
     0
 10
2.41708
 20
5.2131
 30
0.0
 11
2.97518
 21
5.49561
 31
0.0
  0
LINE
  8
0
 62
     0
 10
2.97518
 20
5.49561
 30
0.0
 11
3.59392
 21
5.59484
 31
0.0
  0
LINE
  8
0
 62
     0
 10
3.59392
 20
56.7186
 30
0.0
 11
4.21128
 21
56.6208
 31
0.0
  0
LINE
  8
0
 62
     0
 10
4.21128
 20
56.6208
 30
0.0
 11
4.76938
 21
56.3369
 31
0.0
  0
LINE
  8
0
 62
     0
 10
4.76938
 20
56.3369
 30
0.0
 11
5.21173
 21
55.8959
 31
0.0
  0
LINE
  8
0
 62
     0
 10
5.21173
 20
55.8959
 30
0.0
 11
5.49561
 21
55.3378
 31
0.0
  0
LINE
  8
0
 62
     0
 10
5.49561
 20
55.3378
 30
0.0
 11
5.59347
 21
54.719
 31
0.0
  0
LINE
  8
0
 62
     0
 10
5.59347
 20
54.719
 30
0.0
 11
5.49561
 21
54.1016
 31
0.0
  0
LINE
  8
0
 62
     0
 10
5.49561
 20
54.1016
 30
0.0
 11
5.21173
 21
53.5436
 31
0.0
  0
LINE
  8
0
 62
     0
 10
5.21173
 20
53.5436
 30
0.0
 11
4.76938
 21
53.1001
 31
0.0
  0
LINE
  8
0
 62
     0
 10
4.76938
 20
53.1001
 30
0.0
 11
4.21128
 21
52.8161
 31
0.0
  0
LINE
  8
0
 62
     0
 10
4.21128
 20
52.8161
 30
0.0
 11
3.59392
 21
52.7195
 31
0.0
  0
LINE
  8
0
 62
     0
 10
3.59392
 20
52.7195
 30
0.0
 11
2.97518
 21
52.8161
 31
0.0
  0
LINE
  8
0
 62
     0
 10
2.97518
 20
52.8161
 30
0.0
 11
2.41708
 21
53.1001
 31
0.0
  0
LINE
  8
0
 62
     0
 10
2.41708
 20
53.1001
 30
0.0
 11
1.97611
 21
53.5436
 31
0.0
  0
LINE
  8
0
 62
     0
 10
1.97611
 20
53.5436
 30
0.0
 11
1.69223
 21
54.1016
 31
0.0
  0
LINE
  8
0
 62
     0
 10
1.69223
 20
54.1016
 30
0.0
 11
1.59439
 21
54.719
 31
0.0
  0
LINE
  8
0
 62
     0
 10
1.59439
 20
54.719
 30
0.0
 11
1.69223
 21
55.3378
 31
0.0
  0
LINE
  8
0
 62
     0
 10
1.69223
 20
55.3378
 30
0.0
 11
1.97611
 21
55.8959
 31
0.0
  0
LINE
  8
0
 62
     0
 10
1.97611
 20
55.8959
 30
0.0
 11
2.41708
 21
56.3369
 31
0.0
  0
LINE
  8
0
 62
     0
 10
2.41708
 20
56.3369
 30
0.0
 11
2.97518
 21
56.6208
 31
0.0
  0
LINE
  8
0
 62
     0
 10
2.97518
 20
56.6208
 30
0.0
 11
3.59392
 21
56.7186
 31
0.0
  0
LINE
  8
0
 62
     0
 10
3.59392
 20
107.842
 30
0.0
 11
4.21128
 21
107.745
 31
0.0
  0
LINE
  8
0
 62
     0
 10
4.21128
 20
107.745
 30
0.0
 11
4.76938
 21
107.461
 31
0.0
  0
LINE
  8
0
 62
     0
 10
4.76938
 20
107.461
 30
0.0
 11
5.21173
 21
107.02
 31
0.0
  0
LINE
  8
0
 62
     0
 10
5.21173
 20
107.02
 30
0.0
 11
5.49561
 21
106.462
 31
0.0
  0
LINE
  8
0
 62
     0
 10
5.49561
 20
106.462
 30
0.0
 11
5.59347
 21
105.843
 31
0.0
  0
LINE
  8
0
 62
     0
 10
5.59347
 20
105.843
 30
0.0
 11
5.49561
 21
105.226
 31
0.0
  0
LINE
  8
0
 62
     0
 10
5.49561
 20
105.226
 30
0.0
 11
5.21173
 21
104.667
 31
0.0
  0
LINE
  8
0
 62
     0
 10
5.21173
 20
104.667
 30
0.0
 11
4.76938
 21
104.226
 31
0.0
  0
LINE
  8
0
 62
     0
 10
4.76938
 20
104.226
 30
0.0
 11
4.21128
 21
103.941
 31
0.0
  0
LINE
  8
0
 62
     0
 10
4.21128
 20
103.941
 30
0.0
 11
3.59392
 21
103.845
 31
0.0
  0
LINE
  8
0
 62
     0
 10
3.59392
 20
103.845
 30
0.0
 11
2.97518
 21
103.941
 31
0.0
  0
LINE
  8
0
 62
     0
 10
2.97518
 20
103.941
 30
0.0
 11
2.41708
 21
104.226
 31
0.0
  0
LINE
  8
0
 62
     0
 10
2.41708
 20
104.226
 30
0.0
 11
1.97611
 21
104.667
 31
0.0
  0
LINE
  8
0
 62
     0
 10
1.97611
 20
104.667
 30
0.0
 11
1.69223
 21
105.226
 31
0.0
  0
LINE
  8
0
 62
     0
 10
1.69223
 20
105.226
 30
0.0
 11
1.59439
 21
105.843
 31
0.0
  0
LINE
  8
0
 62
     0
 10
1.59439
 20
105.843
 30
0.0
 11
1.69223
 21
106.462
 31
0.0
  0
LINE
  8
0
 62
     0
 10
1.69223
 20
106.462
 30
0.0
 11
1.97611
 21
107.02
 31
0.0
  0
LINE
  8
0
 62
     0
 10
1.97611
 20
107.02
 30
0.0
 11
2.41708
 21
107.461
 31
0.0
  0
LINE
  8
0
 62
     0
 10
2.41708
 20
107.461
 30
0.0
 11
2.97518
 21
107.745
 31
0.0
  0
LINE
  8
0
 62
     0
 10
2.97518
 20
107.745
 30
0.0
 11
3.59392
 21
107.842
 31
0.0
  0
ENDSEC
  0
EOF
