  0
SECTION
  2
HEADER
  9
$ACADVER
  1
AC1009
  9
$EXTMIN
 10
0.0
 20
0.0
 30
0.0
  9
$EXTMAX
 10
1000.0
 20
1000.0
 30
0.0
  9
$FILLMODE
 70
 0
  9
$SPLFRAME
 70
 1
  0
ENDSEC
  0
SECTION
  2
TABLES
  0
TABLE
  2
LAYER
 70
1
  0
LAYER
  2
0
 70
     0
 62
     7
  6
CONTINUOUS
  0
ENDTAB
  0
ENDSEC
  0
SECTION
  2
ENTITIES
  0
LINE
  8
0
 62
     0
 10
88.2936
 20
109.343
 30
0.0
 11
88.4509
 21
109.338
 31
0.0
  0
LINE
  8
0
 62
     0
 10
88.4509
 20
109.338
 30
0.0
 11
88.6065
 21
109.318
 31
0.0
  0
LINE
  8
0
 62
     0
 10
88.6065
 20
109.318
 30
0.0
 11
88.7607
 21
109.288
 31
0.0
  0
LINE
  8
0
 62
     0
 10
88.7607
 20
109.288
 30
0.0
 11
88.9123
 21
109.245
 31
0.0
  0
LINE
  8
0
 62
     0
 10
88.9123
 20
109.245
 30
0.0
 11
89.0584
 21
109.193
 31
0.0
  0
LINE
  8
0
 62
     0
 10
89.0584
 20
109.193
 30
0.0
 11
89.2016
 21
109.125
 31
0.0
  0
LINE
  8
0
 62
     0
 10
89.2016
 20
109.125
 30
0.0
 11
89.3382
 21
109.048
 31
0.0
  0
LINE
  8
0
 62
     0
 10
89.3382
 20
109.048
 30
0.0
 11
89.469
 21
108.961
 31
0.0
  0
LINE
  8
0
 62
     0
 10
89.469
 20
108.961
 30
0.0
 11
89.5932
 21
108.864
 31
0.0
  0
LINE
  8
0
 62
     0
 10
89.5932
 20
108.864
 30
0.0
 11
89.7075
 21
108.758
 31
0.0
  0
LINE
  8
0
 62
     0
 10
89.7075
 20
108.758
 30
0.0
 11
89.8151
 21
108.642
 31
0.0
  0
LINE
  8
0
 62
     0
 10
89.8151
 20
108.642
 30
0.0
 11
89.9114
 21
108.519
 31
0.0
  0
LINE
  8
0
 62
     0
 10
89.9114
 20
108.519
 30
0.0
 11
89.9982
 21
108.388
 31
0.0
  0
LINE
  8
0
 62
     0
 10
89.9982
 20
108.388
 30
0.0
 11
90.0755
 21
108.253
 31
0.0
  0
LINE
  8
0
 62
     0
 10
90.0755
 20
108.253
 30
0.0
 11
90.1418
 21
108.108
 31
0.0
  0
LINE
  8
0
 62
     0
 10
90.1418
 20
108.108
 30
0.0
 11
90.1954
 21
107.961
 31
0.0
  0
LINE
  8
0
 62
     0
 10
90.1954
 20
107.961
 30
0.0
 11
90.2381
 21
107.812
 31
0.0
  0
LINE
  8
0
 62
     0
 10
90.2381
 20
107.812
 30
0.0
 11
90.2684
 21
107.656
 31
0.0
  0
LINE
  8
0
 62
     0
 10
90.2684
 20
107.656
 30
0.0
 11
90.2878
 21
107.501
 31
0.0
  0
LINE
  8
0
 62
     0
 10
90.2878
 20
107.501
 30
0.0
 11
90.2931
 21
107.344
 31
0.0
  0
LINE
  8
0
 62
     0
 10
90.2931
 20
107.344
 30
0.0
 11
90.2931
 21
2.09324
 31
0.0
  0
LINE
  8
0
 62
     0
 10
90.2931
 20
2.09324
 30
0.0
 11
90.2878
 21
1.93614
 31
0.0
  0
LINE
  8
0
 62
     0
 10
90.2878
 20
1.93614
 30
0.0
 11
90.2684
 21
1.78043
 31
0.0
  0
LINE
  8
0
 62
     0
 10
90.2684
 20
1.78043
 30
0.0
 11
90.2381
 21
1.62746
 31
0.0
  0
LINE
  8
0
 62
     0
 10
90.2381
 20
1.62746
 30
0.0
 11
90.1954
 21
1.4745
 31
0.0
  0
LINE
  8
0
 62
     0
 10
90.1954
 20
1.4745
 30
0.0
 11
90.1418
 21
1.32843
 31
0.0
  0
LINE
  8
0
 62
     0
 10
90.1418
 20
1.32843
 30
0.0
 11
90.0755
 21
1.18649
 31
0.0
  0
LINE
  8
0
 62
     0
 10
90.0755
 20
1.18649
 30
0.0
 11
89.9982
 21
1.04869
 31
0.0
  0
LINE
  8
0
 62
     0
 10
89.9982
 20
1.04869
 30
0.0
 11
89.9114
 21
0.917773
 31
0.0
  0
LINE
  8
0
 62
     0
 10
89.9114
 20
0.917773
 30
0.0
 11
89.8151
 21
0.79375
 31
0.0
  0
LINE
  8
0
 62
     0
 10
89.8151
 20
0.79375
 30
0.0
 11
89.7075
 21
0.679372
 31
0.0
  0
LINE
  8
0
 62
     0
 10
89.7075
 20
0.679372
 30
0.0
 11
89.5932
 21
0.571885
 31
0.0
  0
LINE
  8
0
 62
     0
 10
89.5932
 20
0.571885
 30
0.0
 11
89.469
 21
0.475424
 31
0.0
  0
LINE
  8
0
 62
     0
 10
89.469
 20
0.475424
 30
0.0
 11
89.3382
 21
0.388606
 31
0.0
  0
LINE
  8
0
 62
     0
 10
89.3382
 20
0.388606
 30
0.0
 11
89.2016
 21
0.311437
 31
0.0
  0
LINE
  8
0
 62
     0
 10
89.2016
 20
0.311437
 30
0.0
 11
89.0584
 21
0.245291
 31
0.0
  0
LINE
  8
0
 62
     0
 10
89.0584
 20
0.245291
 30
0.0
 11
88.9123
 21
0.191547
 31
0.0
  0
LINE
  8
0
 62
     0
 10
88.9123
 20
0.191547
 30
0.0
 11
88.7607
 21
0.148828
 31
0.0
  0
LINE
  8
0
 62
     0
 10
88.7607
 20
0.148828
 30
0.0
 11
88.6065
 21
0.118511
 31
0.0
  0
LINE
  8
0
 62
     0
 10
88.6065
 20
0.118511
 30
0.0
 11
88.4509
 21
0.0992188
 31
0.0
  0
LINE
  8
0
 62
     0
 10
88.4509
 20
0.0992188
 30
0.0
 11
88.2936
 21
0.0937066
 31
0.0
  0
LINE
  8
0
 62
     0
 10
88.2936
 20
0.0937066
 30
0.0
 11
2.09324
 21
0.0937066
 31
0.0
  0
LINE
  8
0
 62
     0
 10
2.09324
 20
0.0937066
 30
0.0
 11
1.93614
 21
0.0992188
 31
0.0
  0
LINE
  8
0
 62
     0
 10
1.93614
 20
0.0992188
 30
0.0
 11
1.78043
 21
0.118511
 31
0.0
  0
LINE
  8
0
 62
     0
 10
1.78043
 20
0.118511
 30
0.0
 11
1.62609
 21
0.148828
 31
0.0
  0
LINE
  8
0
 62
     0
 10
1.62609
 20
0.148828
 30
0.0
 11
1.47588
 21
0.191547
 31
0.0
  0
LINE
  8
0
 62
     0
 10
1.47588
 20
0.191547
 30
0.0
 11
1.32843
 21
0.245291
 31
0.0
  0
LINE
  8
0
 62
     0
 10
1.32843
 20
0.245291
 30
0.0
 11
1.18511
 21
0.311437
 31
0.0
  0
LINE
  8
0
 62
     0
 10
1.18511
 20
0.311437
 30
0.0
 11
1.04869
 21
0.388606
 31
0.0
  0
LINE
  8
0
 62
     0
 10
1.04869
 20
0.388606
 30
0.0
 11
0.917773
 21
0.475424
 31
0.0
  0
LINE
  8
0
 62
     0
 10
0.917773
 20
0.475424
 30
0.0
 11
0.795129
 21
0.571885
 31
0.0
  0
LINE
  8
0
 62
     0
 10
0.795129
 20
0.571885
 30
0.0
 11
0.679372
 21
0.679372
 31
0.0
  0
LINE
  8
0
 62
     0
 10
0.679372
 20
0.679372
 30
0.0
 11
0.573264
 21
0.79375
 31
0.0
  0
LINE
  8
0
 62
     0
 10
0.573264
 20
0.79375
 30
0.0
 11
0.475424
 21
0.917773
 31
0.0
  0
LINE
  8
0
 62
     0
 10
0.475424
 20
0.917773
 30
0.0
 11
0.388606
 21
1.04869
 31
0.0
  0
LINE
  8
0
 62
     0
 10
0.388606
 20
1.04869
 30
0.0
 11
0.311437
 21
1.18649
 31
0.0
  0
LINE
  8
0
 62
     0
 10
0.311437
 20
1.18649
 30
0.0
 11
0.245291
 21
1.32843
 31
0.0
  0
LINE
  8
0
 62
     0
 10
0.245291
 20
1.32843
 30
0.0
 11
0.191547
 21
1.4745
 31
0.0
  0
LINE
  8
0
 62
     0
 10
0.191547
 20
1.4745
 30
0.0
 11
0.148828
 21
1.62746
 31
0.0
  0
LINE
  8
0
 62
     0
 10
0.148828
 20
1.62746
 30
0.0
 11
0.118511
 21
1.78043
 31
0.0
  0
LINE
  8
0
 62
     0
 10
0.118511
 20
1.78043
 30
0.0
 11
0.0992188
 21
1.93614
 31
0.0
  0
LINE
  8
0
 62
     0
 10
0.0992188
 20
1.93614
 30
0.0
 11
0.0937066
 21
2.09324
 31
0.0
  0
LINE
  8
0
 62
     0
 10
0.0937066
 20
2.09324
 30
0.0
 11
0.0937066
 21
107.344
 31
0.0
  0
LINE
  8
0
 62
     0
 10
0.0937066
 20
107.344
 30
0.0
 11
0.0992188
 21
107.501
 31
0.0
  0
LINE
  8
0
 62
     0
 10
0.0992188
 20
107.501
 30
0.0
 11
0.118511
 21
107.656
 31
0.0
  0
LINE
  8
0
 62
     0
 10
0.118511
 20
107.656
 30
0.0
 11
0.148828
 21
107.812
 31
0.0
  0
LINE
  8
0
 62
     0
 10
0.148828
 20
107.812
 30
0.0
 11
0.191547
 21
107.961
 31
0.0
  0
LINE
  8
0
 62
     0
 10
0.191547
 20
107.961
 30
0.0
 11
0.245291
 21
108.108
 31
0.0
  0
LINE
  8
0
 62
     0
 10
0.245291
 20
108.108
 30
0.0
 11
0.311437
 21
108.253
 31
0.0
  0
LINE
  8
0
 62
     0
 10
0.311437
 20
108.253
 30
0.0
 11
0.388606
 21
108.388
 31
0.0
  0
LINE
  8
0
 62
     0
 10
0.388606
 20
108.388
 30
0.0
 11
0.475424
 21
108.519
 31
0.0
  0
LINE
  8
0
 62
     0
 10
0.475424
 20
108.519
 30
0.0
 11
0.573264
 21
108.642
 31
0.0
  0
LINE
  8
0
 62
     0
 10
0.573264
 20
108.642
 30
0.0
 11
0.679372
 21
108.758
 31
0.0
  0
LINE
  8
0
 62
     0
 10
0.679372
 20
108.758
 30
0.0
 11
0.795129
 21
108.864
 31
0.0
  0
LINE
  8
0
 62
     0
 10
0.795129
 20
108.864
 30
0.0
 11
0.917773
 21
108.961
 31
0.0
  0
LINE
  8
0
 62
     0
 10
0.917773
 20
108.961
 30
0.0
 11
1.04869
 21
109.048
 31
0.0
  0
LINE
  8
0
 62
     0
 10
1.04869
 20
109.048
 30
0.0
 11
1.18511
 21
109.125
 31
0.0
  0
LINE
  8
0
 62
     0
 10
1.18511
 20
109.125
 30
0.0
 11
1.32843
 21
109.193
 31
0.0
  0
LINE
  8
0
 62
     0
 10
1.32843
 20
109.193
 30
0.0
 11
1.47588
 21
109.245
 31
0.0
  0
LINE
  8
0
 62
     0
 10
1.47588
 20
109.245
 30
0.0
 11
1.62609
 21
109.288
 31
0.0
  0
LINE
  8
0
 62
     0
 10
1.62609
 20
109.288
 30
0.0
 11
1.78043
 21
109.318
 31
0.0
  0
LINE
  8
0
 62
     0
 10
1.78043
 20
109.318
 30
0.0
 11
1.93614
 21
109.338
 31
0.0
  0
LINE
  8
0
 62
     0
 10
1.93614
 20
109.338
 30
0.0
 11
2.09324
 21
109.343
 31
0.0
  0
LINE
  8
0
 62
     0
 10
2.09324
 20
109.343
 30
0.0
 11
88.2936
 21
109.343
 31
0.0
  0
LINE
  8
0
 62
     0
 10
45.194
 20
107.842
 30
0.0
 11
45.8114
 21
107.745
 31
0.0
  0
LINE
  8
0
 62
     0
 10
45.8114
 20
107.745
 30
0.0
 11
46.3695
 21
107.461
 31
0.0
  0
LINE
  8
0
 62
     0
 10
46.3695
 20
107.461
 30
0.0
 11
46.8118
 21
107.02
 31
0.0
  0
LINE
  8
0
 62
     0
 10
46.8118
 20
107.02
 30
0.0
 11
47.0958
 21
106.462
 31
0.0
  0
LINE
  8
0
 62
     0
 10
47.0958
 20
106.462
 30
0.0
 11
47.1936
 21
105.843
 31
0.0
  0
LINE
  8
0
 62
     0
 10
47.1936
 20
105.843
 30
0.0
 11
47.0958
 21
105.226
 31
0.0
  0
LINE
  8
0
 62
     0
 10
47.0958
 20
105.226
 30
0.0
 11
46.8118
 21
104.667
 31
0.0
  0
LINE
  8
0
 62
     0
 10
46.8118
 20
104.667
 30
0.0
 11
46.3695
 21
104.226
 31
0.0
  0
LINE
  8
0
 62
     0
 10
46.3695
 20
104.226
 30
0.0
 11
45.8114
 21
103.941
 31
0.0
  0
LINE
  8
0
 62
     0
 10
45.8114
 20
103.941
 30
0.0
 11
45.194
 21
103.845
 31
0.0
  0
LINE
  8
0
 62
     0
 10
45.194
 20
103.845
 30
0.0
 11
44.5752
 21
103.941
 31
0.0
  0
LINE
  8
0
 62
     0
 10
44.5752
 20
103.941
 30
0.0
 11
44.0171
 21
104.226
 31
0.0
  0
LINE
  8
0
 62
     0
 10
44.0171
 20
104.226
 30
0.0
 11
43.5762
 21
104.667
 31
0.0
  0
LINE
  8
0
 62
     0
 10
43.5762
 20
104.667
 30
0.0
 11
43.2911
 21
105.226
 31
0.0
  0
LINE
  8
0
 62
     0
 10
43.2911
 20
105.226
 30
0.0
 11
43.1934
 21
105.843
 31
0.0
  0
LINE
  8
0
 62
     0
 10
43.1934
 20
105.843
 30
0.0
 11
43.2911
 21
106.462
 31
0.0
  0
LINE
  8
0
 62
     0
 10
43.2911
 20
106.462
 30
0.0
 11
43.5762
 21
107.02
 31
0.0
  0
LINE
  8
0
 62
     0
 10
43.5762
 20
107.02
 30
0.0
 11
44.0171
 21
107.461
 31
0.0
  0
LINE
  8
0
 62
     0
 10
44.0171
 20
107.461
 30
0.0
 11
44.5752
 21
107.745
 31
0.0
  0
LINE
  8
0
 62
     0
 10
44.5752
 20
107.745
 30
0.0
 11
45.194
 21
107.842
 31
0.0
  0
LINE
  8
0
 62
     0
 10
86.7943
 20
107.842
 30
0.0
 11
87.4116
 21
107.745
 31
0.0
  0
LINE
  8
0
 62
     0
 10
87.4116
 20
107.745
 30
0.0
 11
87.9697
 21
107.461
 31
0.0
  0
LINE
  8
0
 62
     0
 10
87.9697
 20
107.461
 30
0.0
 11
88.4121
 21
107.02
 31
0.0
  0
LINE
  8
0
 62
     0
 10
88.4121
 20
107.02
 30
0.0
 11
88.6961
 21
106.462
 31
0.0
  0
LINE
  8
0
 62
     0
 10
88.6961
 20
106.462
 30
0.0
 11
88.7938
 21
105.843
 31
0.0
  0
LINE
  8
0
 62
     0
 10
88.7938
 20
105.843
 30
0.0
 11
88.6961
 21
105.226
 31
0.0
  0
LINE
  8
0
 62
     0
 10
88.6961
 20
105.226
 30
0.0
 11
88.4121
 21
104.667
 31
0.0
  0
LINE
  8
0
 62
     0
 10
88.4121
 20
104.667
 30
0.0
 11
87.9697
 21
104.226
 31
0.0
  0
LINE
  8
0
 62
     0
 10
87.9697
 20
104.226
 30
0.0
 11
87.4116
 21
103.941
 31
0.0
  0
LINE
  8
0
 62
     0
 10
87.4116
 20
103.941
 30
0.0
 11
86.7943
 21
103.845
 31
0.0
  0
LINE
  8
0
 62
     0
 10
86.7943
 20
103.845
 30
0.0
 11
86.1755
 21
103.941
 31
0.0
  0
LINE
  8
0
 62
     0
 10
86.1755
 20
103.941
 30
0.0
 11
85.6174
 21
104.226
 31
0.0
  0
LINE
  8
0
 62
     0
 10
85.6174
 20
104.226
 30
0.0
 11
85.175
 21
104.667
 31
0.0
  0
LINE
  8
0
 62
     0
 10
85.175
 20
104.667
 30
0.0
 11
84.8914
 21
105.226
 31
0.0
  0
LINE
  8
0
 62
     0
 10
84.8914
 20
105.226
 30
0.0
 11
84.7933
 21
105.843
 31
0.0
  0
LINE
  8
0
 62
     0
 10
84.7933
 20
105.843
 30
0.0
 11
84.8914
 21
106.462
 31
0.0
  0
LINE
  8
0
 62
     0
 10
84.8914
 20
106.462
 30
0.0
 11
85.175
 21
107.02
 31
0.0
  0
LINE
  8
0
 62
     0
 10
85.175
 20
107.02
 30
0.0
 11
85.6174
 21
107.461
 31
0.0
  0
LINE
  8
0
 62
     0
 10
85.6174
 20
107.461
 30
0.0
 11
86.1755
 21
107.745
 31
0.0
  0
LINE
  8
0
 62
     0
 10
86.1755
 20
107.745
 30
0.0
 11
86.7943
 21
107.842
 31
0.0
  0
LINE
  8
0
 62
     0
 10
86.7943
 20
56.7186
 30
0.0
 11
87.4116
 21
56.6208
 31
0.0
  0
LINE
  8
0
 62
     0
 10
87.4116
 20
56.6208
 30
0.0
 11
87.9697
 21
56.3369
 31
0.0
  0
LINE
  8
0
 62
     0
 10
87.9697
 20
56.3369
 30
0.0
 11
88.4121
 21
55.8959
 31
0.0
  0
LINE
  8
0
 62
     0
 10
88.4121
 20
55.8959
 30
0.0
 11
88.6961
 21
55.3378
 31
0.0
  0
LINE
  8
0
 62
     0
 10
88.6961
 20
55.3378
 30
0.0
 11
88.7938
 21
54.719
 31
0.0
  0
LINE
  8
0
 62
     0
 10
88.7938
 20
54.719
 30
0.0
 11
88.6961
 21
54.1016
 31
0.0
  0
LINE
  8
0
 62
     0
 10
88.6961
 20
54.1016
 30
0.0
 11
88.4121
 21
53.5436
 31
0.0
  0
LINE
  8
0
 62
     0
 10
88.4121
 20
53.5436
 30
0.0
 11
87.9697
 21
53.1001
 31
0.0
  0
LINE
  8
0
 62
     0
 10
87.9697
 20
53.1001
 30
0.0
 11
87.4116
 21
52.8161
 31
0.0
  0
LINE
  8
0
 62
     0
 10
87.4116
 20
52.8161
 30
0.0
 11
86.7943
 21
52.7195
 31
0.0
  0
LINE
  8
0
 62
     0
 10
86.7943
 20
52.7195
 30
0.0
 11
86.1755
 21
52.8161
 31
0.0
  0
LINE
  8
0
 62
     0
 10
86.1755
 20
52.8161
 30
0.0
 11
85.6174
 21
53.1001
 31
0.0
  0
LINE
  8
0
 62
     0
 10
85.6174
 20
53.1001
 30
0.0
 11
85.175
 21
53.5436
 31
0.0
  0
LINE
  8
0
 62
     0
 10
85.175
 20
53.5436
 30
0.0
 11
84.8914
 21
54.1016
 31
0.0
  0
LINE
  8
0
 62
     0
 10
84.8914
 20
54.1016
 30
0.0
 11
84.7933
 21
54.719
 31
0.0
  0
LINE
  8
0
 62
     0
 10
84.7933
 20
54.719
 30
0.0
 11
84.8914
 21
55.3378
 31
0.0
  0
LINE
  8
0
 62
     0
 10
84.8914
 20
55.3378
 30
0.0
 11
85.175
 21
55.8959
 31
0.0
  0
LINE
  8
0
 62
     0
 10
85.175
 20
55.8959
 30
0.0
 11
85.6174
 21
56.3369
 31
0.0
  0
LINE
  8
0
 62
     0
 10
85.6174
 20
56.3369
 30
0.0
 11
86.1755
 21
56.6208
 31
0.0
  0
LINE
  8
0
 62
     0
 10
86.1755
 20
56.6208
 30
0.0
 11
86.7943
 21
56.7186
 31
0.0
  0
LINE
  8
0
 62
     0
 10
86.7943
 20
5.59484
 30
0.0
 11
87.4116
 21
5.49561
 31
0.0
  0
LINE
  8
0
 62
     0
 10
87.4116
 20
5.49561
 30
0.0
 11
87.9697
 21
5.2131
 31
0.0
  0
LINE
  8
0
 62
     0
 10
87.9697
 20
5.2131
 30
0.0
 11
88.4121
 21
4.76938
 31
0.0
  0
LINE
  8
0
 62
     0
 10
88.4121
 20
4.76938
 30
0.0
 11
88.6961
 21
4.21266
 31
0.0
  0
LINE
  8
0
 62
     0
 10
88.6961
 20
4.21266
 30
0.0
 11
88.7938
 21
3.59255
 31
0.0
  0
LINE
  8
0
 62
     0
 10
88.7938
 20
3.59255
 30
0.0
 11
88.6961
 21
2.97518
 31
0.0
  0
LINE
  8
0
 62
     0
 10
88.6961
 20
2.97518
 30
0.0
 11
88.4121
 21
2.41708
 31
0.0
  0
LINE
  8
0
 62
     0
 10
88.4121
 20
2.41708
 30
0.0
 11
87.9697
 21
1.97473
 31
0.0
  0
LINE
  8
0
 62
     0
 10
87.9697
 20
1.97473
 30
0.0
 11
87.4116
 21
1.69085
 31
0.0
  0
LINE
  8
0
 62
     0
 10
87.4116
 20
1.69085
 30
0.0
 11
86.7943
 21
1.59301
 31
0.0
  0
LINE
  8
0
 62
     0
 10
86.7943
 20
1.59301
 30
0.0
 11
86.1755
 21
1.69085
 31
0.0
  0
LINE
  8
0
 62
     0
 10
86.1755
 20
1.69085
 30
0.0
 11
85.6174
 21
1.97473
 31
0.0
  0
LINE
  8
0
 62
     0
 10
85.6174
 20
1.97473
 30
0.0
 11
85.175
 21
2.41708
 31
0.0
  0
LINE
  8
0
 62
     0
 10
85.175
 20
2.41708
 30
0.0
 11
84.8914
 21
2.97518
 31
0.0
  0
LINE
  8
0
 62
     0
 10
84.8914
 20
2.97518
 30
0.0
 11
84.7933
 21
3.59255
 31
0.0
  0
LINE
  8
0
 62
     0
 10
84.7933
 20
3.59255
 30
0.0
 11
84.8914
 21
4.21266
 31
0.0
  0
LINE
  8
0
 62
     0
 10
84.8914
 20
4.21266
 30
0.0
 11
85.175
 21
4.76938
 31
0.0
  0
LINE
  8
0
 62
     0
 10
85.175
 20
4.76938
 30
0.0
 11
85.6174
 21
5.2131
 31
0.0
  0
LINE
  8
0
 62
     0
 10
85.6174
 20
5.2131
 30
0.0
 11
86.1755
 21
5.49561
 31
0.0
  0
LINE
  8
0
 62
     0
 10
86.1755
 20
5.49561
 30
0.0
 11
86.7943
 21
5.59484
 31
0.0
  0
LINE
  8
0
 62
     0
 10
45.194
 20
5.59484
 30
0.0
 11
45.8114
 21
5.49561
 31
0.0
  0
LINE
  8
0
 62
     0
 10
45.8114
 20
5.49561
 30
0.0
 11
46.3695
 21
5.2131
 31
0.0
  0
LINE
  8
0
 62
     0
 10
46.3695
 20
5.2131
 30
0.0
 11
46.8118
 21
4.76938
 31
0.0
  0
LINE
  8
0
 62
     0
 10
46.8118
 20
4.76938
 30
0.0
 11
47.0958
 21
4.21266
 31
0.0
  0
LINE
  8
0
 62
     0
 10
47.0958
 20
4.21266
 30
0.0
 11
47.1936
 21
3.59255
 31
0.0
  0
LINE
  8
0
 62
     0
 10
47.1936
 20
3.59255
 30
0.0
 11
47.0958
 21
2.97518
 31
0.0
  0
LINE
  8
0
 62
     0
 10
47.0958
 20
2.97518
 30
0.0
 11
46.8118
 21
2.41708
 31
0.0
  0
LINE
  8
0
 62
     0
 10
46.8118
 20
2.41708
 30
0.0
 11
46.3695
 21
1.97473
 31
0.0
  0
LINE
  8
0
 62
     0
 10
46.3695
 20
1.97473
 30
0.0
 11
45.8114
 21
1.69085
 31
0.0
  0
LINE
  8
0
 62
     0
 10
45.8114
 20
1.69085
 30
0.0
 11
45.194
 21
1.59301
 31
0.0
  0
LINE
  8
0
 62
     0
 10
45.194
 20
1.59301
 30
0.0
 11
44.5752
 21
1.69085
 31
0.0
  0
LINE
  8
0
 62
     0
 10
44.5752
 20
1.69085
 30
0.0
 11
44.0171
 21
1.97473
 31
0.0
  0
LINE
  8
0
 62
     0
 10
44.0171
 20
1.97473
 30
0.0
 11
43.5762
 21
2.41708
 31
0.0
  0
LINE
  8
0
 62
     0
 10
43.5762
 20
2.41708
 30
0.0
 11
43.2911
 21
2.97518
 31
0.0
  0
LINE
  8
0
 62
     0
 10
43.2911
 20
2.97518
 30
0.0
 11
43.1934
 21
3.59255
 31
0.0
  0
LINE
  8
0
 62
     0
 10
43.1934
 20
3.59255
 30
0.0
 11
43.2911
 21
4.21266
 31
0.0
  0
LINE
  8
0
 62
     0
 10
43.2911
 20
4.21266
 30
0.0
 11
43.5762
 21
4.76938
 31
0.0
  0
LINE
  8
0
 62
     0
 10
43.5762
 20
4.76938
 30
0.0
 11
44.0171
 21
5.2131
 31
0.0
  0
LINE
  8
0
 62
     0
 10
44.0171
 20
5.2131
 30
0.0
 11
44.5752
 21
5.49561
 31
0.0
  0
LINE
  8
0
 62
     0
 10
44.5752
 20
5.49561
 30
0.0
 11
45.194
 21
5.59484
 31
0.0
  0
LINE
  8
0
 62
     0
 10
3.59392
 20
5.59484
 30
0.0
 11
4.21128
 21
5.49561
 31
0.0
  0
LINE
  8
0
 62
     0
 10
4.21128
 20
5.49561
 30
0.0
 11
4.76938
 21
5.2131
 31
0.0
  0
LINE
  8
0
 62
     0
 10
4.76938
 20
5.2131
 30
0.0
 11
5.21173
 21
4.76938
 31
0.0
  0
LINE
  8
0
 62
     0
 10
5.21173
 20
4.76938
 30
0.0
 11
5.49561
 21
4.21266
 31
0.0
  0
LINE
  8
0
 62
     0
 10
5.49561
 20
4.21266
 30
0.0
 11
5.59347
 21
3.59255
 31
0.0
  0
LINE
  8
0
 62
     0
 10
5.59347
 20
3.59255
 30
0.0
 11
5.49561
 21
2.97518
 31
0.0
  0
LINE
  8
0
 62
     0
 10
5.49561
 20
2.97518
 30
0.0
 11
5.21173
 21
2.41708
 31
0.0
  0
LINE
  8
0
 62
     0
 10
5.21173
 20
2.41708
 30
0.0
 11
4.76938
 21
1.97473
 31
0.0
  0
LINE
  8
0
 62
     0
 10
4.76938
 20
1.97473
 30
0.0
 11
4.21128
 21
1.69085
 31
0.0
  0
LINE
  8
0
 62
     0
 10
4.21128
 20
1.69085
 30
0.0
 11
3.59392
 21
1.59301
 31
0.0
  0
LINE
  8
0
 62
     0
 10
3.59392
 20
1.59301
 30
0.0
 11
2.97518
 21
1.69085
 31
0.0
  0
LINE
  8
0
 62
     0
 10
2.97518
 20
1.69085
 30
0.0
 11
2.41708
 21
1.97473
 31
0.0
  0
LINE
  8
0
 62
     0
 10
2.41708
 20
1.97473
 30
0.0
 11
1.97611
 21
2.41708
 31
0.0
  0
LINE
  8
0
 62
     0
 10
1.97611
 20
2.41708
 30
0.0
 11
1.69223
 21
2.97518
 31
0.0
  0
LINE
  8
0
 62
     0
 10
1.69223
 20
2.97518
 30
0.0
 11
1.59439
 21
3.59255
 31
0.0
  0
LINE
  8
0
 62
     0
 10
1.59439
 20
3.59255
 30
0.0
 11
1.69223
 21
4.21266
 31
0.0
  0
LINE
  8
0
 62
     0
 10
1.69223
 20
4.21266
 30
0.0
 11
1.97611
 21
4.76938
 31
0.0
  0
LINE
  8
0
 62
     0
 10
1.97611
 20
4.76938
 30
0.0
 11
2.41708
 21
5.2131
 31
0.0
  0
LINE
  8
0
 62
     0
 10
2.41708
 20
5.2131
 30
0.0
 11
2.97518
 21
5.49561
 31
0.0
  0
LINE
  8
0
 62
     0
 10
2.97518
 20
5.49561
 30
0.0
 11
3.59392
 21
5.59484
 31
0.0
  0
LINE
  8
0
 62
     0
 10
3.59392
 20
56.7186
 30
0.0
 11
4.21128
 21
56.6208
 31
0.0
  0
LINE
  8
0
 62
     0
 10
4.21128
 20
56.6208
 30
0.0
 11
4.76938
 21
56.3369
 31
0.0
  0
LINE
  8
0
 62
     0
 10
4.76938
 20
56.3369
 30
0.0
 11
5.21173
 21
55.8959
 31
0.0
  0
LINE
  8
0
 62
     0
 10
5.21173
 20
55.8959
 30
0.0
 11
5.49561
 21
55.3378
 31
0.0
  0
LINE
  8
0
 62
     0
 10
5.49561
 20
55.3378
 30
0.0
 11
5.59347
 21
54.719
 31
0.0
  0
LINE
  8
0
 62
     0
 10
5.59347
 20
54.719
 30
0.0
 11
5.49561
 21
54.1016
 31
0.0
  0
LINE
  8
0
 62
     0
 10
5.49561
 20
54.1016
 30
0.0
 11
5.21173
 21
53.5436
 31
0.0
  0
LINE
  8
0
 62
     0
 10
5.21173
 20
53.5436
 30
0.0
 11
4.76938
 21
53.1001
 31
0.0
  0
LINE
  8
0
 62
     0
 10
4.76938
 20
53.1001
 30
0.0
 11
4.21128
 21
52.8161
 31
0.0
  0
LINE
  8
0
 62
     0
 10
4.21128
 20
52.8161
 30
0.0
 11
3.59392
 21
52.7195
 31
0.0
  0
LINE
  8
0
 62
     0
 10
3.59392
 20
52.7195
 30
0.0
 11
2.97518
 21
52.8161
 31
0.0
  0
LINE
  8
0
 62
     0
 10
2.97518
 20
52.8161
 30
0.0
 11
2.41708
 21
53.1001
 31
0.0
  0
LINE
  8
0
 62
     0
 10
2.41708
 20
53.1001
 30
0.0
 11
1.97611
 21
53.5436
 31
0.0
  0
LINE
  8
0
 62
     0
 10
1.97611
 20
53.5436
 30
0.0
 11
1.69223
 21
54.1016
 31
0.0
  0
LINE
  8
0
 62
     0
 10
1.69223
 20
54.1016
 30
0.0
 11
1.59439
 21
54.719
 31
0.0
  0
LINE
  8
0
 62
     0
 10
1.59439
 20
54.719
 30
0.0
 11
1.69223
 21
55.3378
 31
0.0
  0
LINE
  8
0
 62
     0
 10
1.69223
 20
55.3378
 30
0.0
 11
1.97611
 21
55.8959
 31
0.0
  0
LINE
  8
0
 62
     0
 10
1.97611
 20
55.8959
 30
0.0
 11
2.41708
 21
56.3369
 31
0.0
  0
LINE
  8
0
 62
     0
 10
2.41708
 20
56.3369
 30
0.0
 11
2.97518
 21
56.6208
 31
0.0
  0
LINE
  8
0
 62
     0
 10
2.97518
 20
56.6208
 30
0.0
 11
3.59392
 21
56.7186
 31
0.0
  0
LINE
  8
0
 62
     0
 10
3.59392
 20
107.842
 30
0.0
 11
4.21128
 21
107.745
 31
0.0
  0
LINE
  8
0
 62
     0
 10
4.21128
 20
107.745
 30
0.0
 11
4.76938
 21
107.461
 31
0.0
  0
LINE
  8
0
 62
     0
 10
4.76938
 20
107.461
 30
0.0
 11
5.21173
 21
107.02
 31
0.0
  0
LINE
  8
0
 62
     0
 10
5.21173
 20
107.02
 30
0.0
 11
5.49561
 21
106.462
 31
0.0
  0
LINE
  8
0
 62
     0
 10
5.49561
 20
106.462
 30
0.0
 11
5.59347
 21
105.843
 31
0.0
  0
LINE
  8
0
 62
     0
 10
5.59347
 20
105.843
 30
0.0
 11
5.49561
 21
105.226
 31
0.0
  0
LINE
  8
0
 62
     0
 10
5.49561
 20
105.226
 30
0.0
 11
5.21173
 21
104.667
 31
0.0
  0
LINE
  8
0
 62
     0
 10
5.21173
 20
104.667
 30
0.0
 11
4.76938
 21
104.226
 31
0.0
  0
LINE
  8
0
 62
     0
 10
4.76938
 20
104.226
 30
0.0
 11
4.21128
 21
103.941
 31
0.0
  0
LINE
  8
0
 62
     0
 10
4.21128
 20
103.941
 30
0.0
 11
3.59392
 21
103.845
 31
0.0
  0
LINE
  8
0
 62
     0
 10
3.59392
 20
103.845
 30
0.0
 11
2.97518
 21
103.941
 31
0.0
  0
LINE
  8
0
 62
     0
 10
2.97518
 20
103.941
 30
0.0
 11
2.41708
 21
104.226
 31
0.0
  0
LINE
  8
0
 62
     0
 10
2.41708
 20
104.226
 30
0.0
 11
1.97611
 21
104.667
 31
0.0
  0
LINE
  8
0
 62
     0
 10
1.97611
 20
104.667
 30
0.0
 11
1.69223
 21
105.226
 31
0.0
  0
LINE
  8
0
 62
     0
 10
1.69223
 20
105.226
 30
0.0
 11
1.59439
 21
105.843
 31
0.0
  0
LINE
  8
0
 62
     0
 10
1.59439
 20
105.843
 30
0.0
 11
1.69223
 21
106.462
 31
0.0
  0
LINE
  8
0
 62
     0
 10
1.69223
 20
106.462
 30
0.0
 11
1.97611
 21
107.02
 31
0.0
  0
LINE
  8
0
 62
     0
 10
1.97611
 20
107.02
 30
0.0
 11
2.41708
 21
107.461
 31
0.0
  0
LINE
  8
0
 62
     0
 10
2.41708
 20
107.461
 30
0.0
 11
2.97518
 21
107.745
 31
0.0
  0
LINE
  8
0
 62
     0
 10
2.97518
 20
107.745
 30
0.0
 11
3.59392
 21
107.842
 31
0.0
  0
LINE
  8
0
 62
     0
 10
23.6182
 20
86.4182
 30
0.0
 11
23.6182
 21
85.8188
 31
0.0
  0
LINE
  8
0
 62
     0
 10
23.6182
 20
85.8188
 30
0.0
 11
9.6187
 21
85.8188
 31
0.0
  0
LINE
  8
0
 62
     0
 10
9.6187
 20
85.8188
 30
0.0
 11
9.6187
 21
86.4182
 31
0.0
  0
LINE
  8
0
 62
     0
 10
9.6187
 20
86.4182
 30
0.0
 11
8.81807
 21
86.4182
 31
0.0
  0
LINE
  8
0
 62
     0
 10
8.81807
 20
86.4182
 30
0.0
 11
8.81807
 21
99.2188
 31
0.0
  0
LINE
  8
0
 62
     0
 10
8.81807
 20
99.2188
 30
0.0
 11
9.6187
 21
99.2188
 31
0.0
  0
LINE
  8
0
 62
     0
 10
9.6187
 20
99.2188
 30
0.0
 11
9.6187
 21
99.8181
 31
0.0
  0
LINE
  8
0
 62
     0
 10
9.6187
 20
99.8181
 30
0.0
 11
23.6182
 21
99.8181
 31
0.0
  0
LINE
  8
0
 62
     0
 10
23.6182
 20
99.8181
 30
0.0
 11
23.6182
 21
99.2188
 31
0.0
  0
LINE
  8
0
 62
     0
 10
23.6182
 20
99.2188
 30
0.0
 11
24.4189
 21
99.2188
 31
0.0
  0
LINE
  8
0
 62
     0
 10
24.4189
 20
99.2188
 30
0.0
 11
24.4189
 21
86.4182
 31
0.0
  0
LINE
  8
0
 62
     0
 10
24.4189
 20
86.4182
 30
0.0
 11
23.6182
 21
86.4182
 31
0.0
  0
LINE
  8
0
 62
     0
 10
23.6182
 20
67.3682
 30
0.0
 11
23.6182
 21
66.7688
 31
0.0
  0
LINE
  8
0
 62
     0
 10
23.6182
 20
66.7688
 30
0.0
 11
9.6187
 21
66.7688
 31
0.0
  0
LINE
  8
0
 62
     0
 10
9.6187
 20
66.7688
 30
0.0
 11
9.6187
 21
67.3682
 31
0.0
  0
LINE
  8
0
 62
     0
 10
9.6187
 20
67.3682
 30
0.0
 11
8.81807
 21
67.3682
 31
0.0
  0
LINE
  8
0
 62
     0
 10
8.81807
 20
67.3682
 30
0.0
 11
8.81807
 21
80.1688
 31
0.0
  0
LINE
  8
0
 62
     0
 10
8.81807
 20
80.1688
 30
0.0
 11
9.6187
 21
80.1688
 31
0.0
  0
LINE
  8
0
 62
     0
 10
9.6187
 20
80.1688
 30
0.0
 11
9.6187
 21
80.7681
 31
0.0
  0
LINE
  8
0
 62
     0
 10
9.6187
 20
80.7681
 30
0.0
 11
23.6182
 21
80.7681
 31
0.0
  0
LINE
  8
0
 62
     0
 10
23.6182
 20
80.7681
 30
0.0
 11
23.6182
 21
80.1688
 31
0.0
  0
LINE
  8
0
 62
     0
 10
23.6182
 20
80.1688
 30
0.0
 11
24.4189
 21
80.1688
 31
0.0
  0
LINE
  8
0
 62
     0
 10
24.4189
 20
80.1688
 30
0.0
 11
24.4189
 21
67.3682
 31
0.0
  0
LINE
  8
0
 62
     0
 10
24.4189
 20
67.3682
 30
0.0
 11
23.6182
 21
67.3682
 31
0.0
  0
LINE
  8
0
 62
     0
 10
23.6182
 20
48.3182
 30
0.0
 11
23.6182
 21
47.7188
 31
0.0
  0
LINE
  8
0
 62
     0
 10
23.6182
 20
47.7188
 30
0.0
 11
9.6187
 21
47.7188
 31
0.0
  0
LINE
  8
0
 62
     0
 10
9.6187
 20
47.7188
 30
0.0
 11
9.6187
 21
48.3182
 31
0.0
  0
LINE
  8
0
 62
     0
 10
9.6187
 20
48.3182
 30
0.0
 11
8.81807
 21
48.3182
 31
0.0
  0
LINE
  8
0
 62
     0
 10
8.81807
 20
48.3182
 30
0.0
 11
8.81807
 21
61.1188
 31
0.0
  0
LINE
  8
0
 62
     0
 10
8.81807
 20
61.1188
 30
0.0
 11
9.6187
 21
61.1188
 31
0.0
  0
LINE
  8
0
 62
     0
 10
9.6187
 20
61.1188
 30
0.0
 11
9.6187
 21
61.7181
 31
0.0
  0
LINE
  8
0
 62
     0
 10
9.6187
 20
61.7181
 30
0.0
 11
23.6182
 21
61.7181
 31
0.0
  0
LINE
  8
0
 62
     0
 10
23.6182
 20
61.7181
 30
0.0
 11
23.6182
 21
61.1188
 31
0.0
  0
LINE
  8
0
 62
     0
 10
23.6182
 20
61.1188
 30
0.0
 11
24.4189
 21
61.1188
 31
0.0
  0
LINE
  8
0
 62
     0
 10
24.4189
 20
61.1188
 30
0.0
 11
24.4189
 21
48.3182
 31
0.0
  0
LINE
  8
0
 62
     0
 10
24.4189
 20
48.3182
 30
0.0
 11
23.6182
 21
48.3182
 31
0.0
  0
LINE
  8
0
 62
     0
 10
23.6182
 20
29.2681
 30
0.0
 11
23.6182
 21
28.6687
 31
0.0
  0
LINE
  8
0
 62
     0
 10
23.6182
 20
28.6687
 30
0.0
 11
9.6187
 21
28.6687
 31
0.0
  0
LINE
  8
0
 62
     0
 10
9.6187
 20
28.6687
 30
0.0
 11
9.6187
 21
29.2681
 31
0.0
  0
LINE
  8
0
 62
     0
 10
9.6187
 20
29.2681
 30
0.0
 11
8.81807
 21
29.2681
 31
0.0
  0
LINE
  8
0
 62
     0
 10
8.81807
 20
29.2681
 30
0.0
 11
8.81807
 21
42.0688
 31
0.0
  0
LINE
  8
0
 62
     0
 10
8.81807
 20
42.0688
 30
0.0
 11
9.6187
 21
42.0688
 31
0.0
  0
LINE
  8
0
 62
     0
 10
9.6187
 20
42.0688
 30
0.0
 11
9.6187
 21
42.6681
 31
0.0
  0
LINE
  8
0
 62
     0
 10
9.6187
 20
42.6681
 30
0.0
 11
23.6182
 21
42.6681
 31
0.0
  0
LINE
  8
0
 62
     0
 10
23.6182
 20
42.6681
 30
0.0
 11
23.6182
 21
42.0688
 31
0.0
  0
LINE
  8
0
 62
     0
 10
23.6182
 20
42.0688
 30
0.0
 11
24.4189
 21
42.0688
 31
0.0
  0
LINE
  8
0
 62
     0
 10
24.4189
 20
42.0688
 30
0.0
 11
24.4189
 21
29.2681
 31
0.0
  0
LINE
  8
0
 62
     0
 10
24.4189
 20
29.2681
 30
0.0
 11
23.6182
 21
29.2681
 31
0.0
  0
LINE
  8
0
 62
     0
 10
41.3688
 20
16.1189
 30
0.0
 11
41.3688
 21
9.84885
 31
0.0
  0
LINE
  8
0
 62
     0
 10
41.3688
 20
9.84885
 30
0.0
 11
39.7439
 21
9.84885
 31
0.0
  0
LINE
  8
0
 62
     0
 10
39.7439
 20
9.84885
 30
0.0
 11
39.7439
 21
8.86767
 31
0.0
  0
LINE
  8
0
 62
     0
 10
39.7439
 20
8.86767
 30
0.0
 11
36.4437
 21
8.86767
 31
0.0
  0
LINE
  8
0
 62
     0
 10
36.4437
 20
8.86767
 30
0.0
 11
36.4437
 21
9.84885
 31
0.0
  0
LINE
  8
0
 62
     0
 10
36.4437
 20
9.84885
 30
0.0
 11
34.7183
 21
9.84885
 31
0.0
  0
LINE
  8
0
 62
     0
 10
34.7183
 20
9.84885
 30
0.0
 11
34.7183
 21
10.6481
 31
0.0
  0
LINE
  8
0
 62
     0
 10
34.7183
 20
10.6481
 30
0.0
 11
33.9439
 21
10.6481
 31
0.0
  0
LINE
  8
0
 62
     0
 10
33.9439
 20
10.6481
 30
0.0
 11
33.9439
 21
10.2181
 31
0.0
  0
LINE
  8
0
 62
     0
 10
33.9439
 20
10.2181
 30
0.0
 11
33.1432
 21
10.2181
 31
0.0
  0
LINE
  8
0
 62
     0
 10
33.1432
 20
10.2181
 30
0.0
 11
33.1432
 21
9.6187
 31
0.0
  0
LINE
  8
0
 62
     0
 10
33.1432
 20
9.6187
 30
0.0
 11
19.1437
 21
9.6187
 31
0.0
  0
LINE
  8
0
 62
     0
 10
19.1437
 20
9.6187
 30
0.0
 11
19.1437
 21
10.2181
 31
0.0
  0
LINE
  8
0
 62
     0
 10
19.1437
 20
10.2181
 30
0.0
 11
18.3431
 21
10.2181
 31
0.0
  0
LINE
  8
0
 62
     0
 10
18.3431
 20
10.2181
 30
0.0
 11
18.3431
 21
10.6481
 31
0.0
  0
LINE
  8
0
 62
     0
 10
18.3431
 20
10.6481
 30
0.0
 11
17.5686
 21
10.6481
 31
0.0
  0
LINE
  8
0
 62
     0
 10
17.5686
 20
10.6481
 30
0.0
 11
17.5686
 21
9.84885
 31
0.0
  0
LINE
  8
0
 62
     0
 10
17.5686
 20
9.84885
 30
0.0
 11
15.8433
 21
9.84885
 31
0.0
  0
LINE
  8
0
 62
     0
 10
15.8433
 20
9.84885
 30
0.0
 11
15.8433
 21
8.86767
 31
0.0
  0
LINE
  8
0
 62
     0
 10
15.8433
 20
8.86767
 30
0.0
 11
12.5443
 21
8.86767
 31
0.0
  0
LINE
  8
0
 62
     0
 10
12.5443
 20
8.86767
 30
0.0
 11
12.5443
 21
9.84885
 31
0.0
  0
LINE
  8
0
 62
     0
 10
12.5443
 20
9.84885
 30
0.0
 11
10.9182
 21
9.84885
 31
0.0
  0
LINE
  8
0
 62
     0
 10
10.9182
 20
9.84885
 30
0.0
 11
10.9182
 21
16.1189
 31
0.0
  0
LINE
  8
0
 62
     0
 10
10.9182
 20
16.1189
 30
0.0
 11
10.0432
 21
16.1189
 31
0.0
  0
LINE
  8
0
 62
     0
 10
10.0432
 20
16.1189
 30
0.0
 11
10.0432
 21
18.9177
 31
0.0
  0
LINE
  8
0
 62
     0
 10
10.0432
 20
18.9177
 30
0.0
 11
10.9182
 21
18.9177
 31
0.0
  0
LINE
  8
0
 62
     0
 10
10.9182
 20
18.9177
 30
0.0
 11
10.9182
 21
22.1478
 31
0.0
  0
LINE
  8
0
 62
     0
 10
10.9182
 20
22.1478
 30
0.0
 11
12.5443
 21
22.1478
 31
0.0
  0
LINE
  8
0
 62
     0
 10
12.5443
 20
22.1478
 30
0.0
 11
12.5443
 21
23.0684
 31
0.0
  0
LINE
  8
0
 62
     0
 10
12.5443
 20
23.0684
 30
0.0
 11
15.8433
 21
23.0684
 31
0.0
  0
LINE
  8
0
 62
     0
 10
15.8433
 20
23.0684
 30
0.0
 11
15.8433
 21
22.1478
 31
0.0
  0
LINE
  8
0
 62
     0
 10
15.8433
 20
22.1478
 30
0.0
 11
17.5686
 21
22.1478
 31
0.0
  0
LINE
  8
0
 62
     0
 10
17.5686
 20
22.1478
 30
0.0
 11
17.5686
 21
21.3486
 31
0.0
  0
LINE
  8
0
 62
     0
 10
17.5686
 20
21.3486
 30
0.0
 11
18.3431
 21
21.3486
 31
0.0
  0
LINE
  8
0
 62
     0
 10
18.3431
 20
21.3486
 30
0.0
 11
18.3431
 21
23.0188
 31
0.0
  0
LINE
  8
0
 62
     0
 10
18.3431
 20
23.0188
 30
0.0
 11
19.1437
 21
23.0188
 31
0.0
  0
LINE
  8
0
 62
     0
 10
19.1437
 20
23.0188
 30
0.0
 11
19.1437
 21
23.6182
 31
0.0
  0
LINE
  8
0
 62
     0
 10
19.1437
 20
23.6182
 30
0.0
 11
33.1432
 21
23.6182
 31
0.0
  0
LINE
  8
0
 62
     0
 10
33.1432
 20
23.6182
 30
0.0
 11
33.1432
 21
23.0188
 31
0.0
  0
LINE
  8
0
 62
     0
 10
33.1432
 20
23.0188
 30
0.0
 11
33.9439
 21
23.0188
 31
0.0
  0
LINE
  8
0
 62
     0
 10
33.9439
 20
23.0188
 30
0.0
 11
33.9439
 21
21.3486
 31
0.0
  0
LINE
  8
0
 62
     0
 10
33.9439
 20
21.3486
 30
0.0
 11
34.7183
 21
21.3486
 31
0.0
  0
LINE
  8
0
 62
     0
 10
34.7183
 20
21.3486
 30
0.0
 11
34.7183
 21
22.1478
 31
0.0
  0
LINE
  8
0
 62
     0
 10
34.7183
 20
22.1478
 30
0.0
 11
36.4437
 21
22.1478
 31
0.0
  0
LINE
  8
0
 62
     0
 10
36.4437
 20
22.1478
 30
0.0
 11
36.4437
 21
23.0684
 31
0.0
  0
LINE
  8
0
 62
     0
 10
36.4437
 20
23.0684
 30
0.0
 11
39.7439
 21
23.0684
 31
0.0
  0
LINE
  8
0
 62
     0
 10
39.7439
 20
23.0684
 30
0.0
 11
39.7439
 21
22.1478
 31
0.0
  0
LINE
  8
0
 62
     0
 10
39.7439
 20
22.1478
 30
0.0
 11
41.3688
 21
22.1478
 31
0.0
  0
LINE
  8
0
 62
     0
 10
41.3688
 20
22.1478
 30
0.0
 11
41.3688
 21
18.9177
 31
0.0
  0
LINE
  8
0
 62
     0
 10
41.3688
 20
18.9177
 30
0.0
 11
42.2437
 21
18.9177
 31
0.0
  0
LINE
  8
0
 62
     0
 10
42.2437
 20
18.9177
 30
0.0
 11
42.2437
 21
16.1189
 31
0.0
  0
LINE
  8
0
 62
     0
 10
42.2437
 20
16.1189
 30
0.0
 11
41.3688
 21
16.1189
 31
0.0
  0
LINE
  8
0
 62
     0
 10
42.6681
 20
86.4182
 30
0.0
 11
42.6681
 21
85.8188
 31
0.0
  0
LINE
  8
0
 62
     0
 10
42.6681
 20
85.8188
 30
0.0
 11
28.6687
 21
85.8188
 31
0.0
  0
LINE
  8
0
 62
     0
 10
28.6687
 20
85.8188
 30
0.0
 11
28.6687
 21
86.4182
 31
0.0
  0
LINE
  8
0
 62
     0
 10
28.6687
 20
86.4182
 30
0.0
 11
27.8681
 21
86.4182
 31
0.0
  0
LINE
  8
0
 62
     0
 10
27.8681
 20
86.4182
 30
0.0
 11
27.8681
 21
99.2188
 31
0.0
  0
LINE
  8
0
 62
     0
 10
27.8681
 20
99.2188
 30
0.0
 11
28.6687
 21
99.2188
 31
0.0
  0
LINE
  8
0
 62
     0
 10
28.6687
 20
99.2188
 30
0.0
 11
28.6687
 21
99.8181
 31
0.0
  0
LINE
  8
0
 62
     0
 10
28.6687
 20
99.8181
 30
0.0
 11
42.6681
 21
99.8181
 31
0.0
  0
LINE
  8
0
 62
     0
 10
42.6681
 20
99.8181
 30
0.0
 11
42.6681
 21
99.2188
 31
0.0
  0
LINE
  8
0
 62
     0
 10
42.6681
 20
99.2188
 30
0.0
 11
43.4689
 21
99.2188
 31
0.0
  0
LINE
  8
0
 62
     0
 10
43.4689
 20
99.2188
 30
0.0
 11
43.4689
 21
86.4182
 31
0.0
  0
LINE
  8
0
 62
     0
 10
43.4689
 20
86.4182
 30
0.0
 11
42.6681
 21
86.4182
 31
0.0
  0
LINE
  8
0
 62
     0
 10
42.6681
 20
67.3682
 30
0.0
 11
42.6681
 21
66.7688
 31
0.0
  0
LINE
  8
0
 62
     0
 10
42.6681
 20
66.7688
 30
0.0
 11
28.6687
 21
66.7688
 31
0.0
  0
LINE
  8
0
 62
     0
 10
28.6687
 20
66.7688
 30
0.0
 11
28.6687
 21
67.3682
 31
0.0
  0
LINE
  8
0
 62
     0
 10
28.6687
 20
67.3682
 30
0.0
 11
27.8681
 21
67.3682
 31
0.0
  0
LINE
  8
0
 62
     0
 10
27.8681
 20
67.3682
 30
0.0
 11
27.8681
 21
80.1688
 31
0.0
  0
LINE
  8
0
 62
     0
 10
27.8681
 20
80.1688
 30
0.0
 11
28.6687
 21
80.1688
 31
0.0
  0
LINE
  8
0
 62
     0
 10
28.6687
 20
80.1688
 30
0.0
 11
28.6687
 21
80.7681
 31
0.0
  0
LINE
  8
0
 62
     0
 10
28.6687
 20
80.7681
 30
0.0
 11
42.6681
 21
80.7681
 31
0.0
  0
LINE
  8
0
 62
     0
 10
42.6681
 20
80.7681
 30
0.0
 11
42.6681
 21
80.1688
 31
0.0
  0
LINE
  8
0
 62
     0
 10
42.6681
 20
80.1688
 30
0.0
 11
43.4689
 21
80.1688
 31
0.0
  0
LINE
  8
0
 62
     0
 10
43.4689
 20
80.1688
 30
0.0
 11
43.4689
 21
67.3682
 31
0.0
  0
LINE
  8
0
 62
     0
 10
43.4689
 20
67.3682
 30
0.0
 11
42.6681
 21
67.3682
 31
0.0
  0
LINE
  8
0
 62
     0
 10
42.6681
 20
48.3182
 30
0.0
 11
42.6681
 21
47.7188
 31
0.0
  0
LINE
  8
0
 62
     0
 10
42.6681
 20
47.7188
 30
0.0
 11
28.6687
 21
47.7188
 31
0.0
  0
LINE
  8
0
 62
     0
 10
28.6687
 20
47.7188
 30
0.0
 11
28.6687
 21
48.3182
 31
0.0
  0
LINE
  8
0
 62
     0
 10
28.6687
 20
48.3182
 30
0.0
 11
27.8681
 21
48.3182
 31
0.0
  0
LINE
  8
0
 62
     0
 10
27.8681
 20
48.3182
 30
0.0
 11
27.8681
 21
61.1188
 31
0.0
  0
LINE
  8
0
 62
     0
 10
27.8681
 20
61.1188
 30
0.0
 11
28.6687
 21
61.1188
 31
0.0
  0
LINE
  8
0
 62
     0
 10
28.6687
 20
61.1188
 30
0.0
 11
28.6687
 21
61.7181
 31
0.0
  0
LINE
  8
0
 62
     0
 10
28.6687
 20
61.7181
 30
0.0
 11
42.6681
 21
61.7181
 31
0.0
  0
LINE
  8
0
 62
     0
 10
42.6681
 20
61.7181
 30
0.0
 11
42.6681
 21
61.1188
 31
0.0
  0
LINE
  8
0
 62
     0
 10
42.6681
 20
61.1188
 30
0.0
 11
43.4689
 21
61.1188
 31
0.0
  0
LINE
  8
0
 62
     0
 10
43.4689
 20
61.1188
 30
0.0
 11
43.4689
 21
48.3182
 31
0.0
  0
LINE
  8
0
 62
     0
 10
43.4689
 20
48.3182
 30
0.0
 11
42.6681
 21
48.3182
 31
0.0
  0
LINE
  8
0
 62
     0
 10
42.6681
 20
29.2681
 30
0.0
 11
42.6681
 21
28.6687
 31
0.0
  0
LINE
  8
0
 62
     0
 10
42.6681
 20
28.6687
 30
0.0
 11
28.6687
 21
28.6687
 31
0.0
  0
LINE
  8
0
 62
     0
 10
28.6687
 20
28.6687
 30
0.0
 11
28.6687
 21
29.2681
 31
0.0
  0
LINE
  8
0
 62
     0
 10
28.6687
 20
29.2681
 30
0.0
 11
27.8681
 21
29.2681
 31
0.0
  0
LINE
  8
0
 62
     0
 10
27.8681
 20
29.2681
 30
0.0
 11
27.8681
 21
42.0688
 31
0.0
  0
LINE
  8
0
 62
     0
 10
27.8681
 20
42.0688
 30
0.0
 11
28.6687
 21
42.0688
 31
0.0
  0
LINE
  8
0
 62
     0
 10
28.6687
 20
42.0688
 30
0.0
 11
28.6687
 21
42.6681
 31
0.0
  0
LINE
  8
0
 62
     0
 10
28.6687
 20
42.6681
 30
0.0
 11
42.6681
 21
42.6681
 31
0.0
  0
LINE
  8
0
 62
     0
 10
42.6681
 20
42.6681
 30
0.0
 11
42.6681
 21
42.0688
 31
0.0
  0
LINE
  8
0
 62
     0
 10
42.6681
 20
42.0688
 30
0.0
 11
43.4689
 21
42.0688
 31
0.0
  0
LINE
  8
0
 62
     0
 10
43.4689
 20
42.0688
 30
0.0
 11
43.4689
 21
29.2681
 31
0.0
  0
LINE
  8
0
 62
     0
 10
43.4689
 20
29.2681
 30
0.0
 11
42.6681
 21
29.2681
 31
0.0
  0
LINE
  8
0
 62
     0
 10
61.7181
 20
86.4182
 30
0.0
 11
61.7181
 21
85.8188
 31
0.0
  0
LINE
  8
0
 62
     0
 10
61.7181
 20
85.8188
 30
0.0
 11
47.7188
 21
85.8188
 31
0.0
  0
LINE
  8
0
 62
     0
 10
47.7188
 20
85.8188
 30
0.0
 11
47.7188
 21
86.4182
 31
0.0
  0
LINE
  8
0
 62
     0
 10
47.7188
 20
86.4182
 30
0.0
 11
46.918
 21
86.4182
 31
0.0
  0
LINE
  8
0
 62
     0
 10
46.918
 20
86.4182
 30
0.0
 11
46.918
 21
99.2188
 31
0.0
  0
LINE
  8
0
 62
     0
 10
46.918
 20
99.2188
 30
0.0
 11
47.7188
 21
99.2188
 31
0.0
  0
LINE
  8
0
 62
     0
 10
47.7188
 20
99.2188
 30
0.0
 11
47.7188
 21
99.8181
 31
0.0
  0
LINE
  8
0
 62
     0
 10
47.7188
 20
99.8181
 30
0.0
 11
61.7181
 21
99.8181
 31
0.0
  0
LINE
  8
0
 62
     0
 10
61.7181
 20
99.8181
 30
0.0
 11
61.7181
 21
99.2188
 31
0.0
  0
LINE
  8
0
 62
     0
 10
61.7181
 20
99.2188
 30
0.0
 11
62.5189
 21
99.2188
 31
0.0
  0
LINE
  8
0
 62
     0
 10
62.5189
 20
99.2188
 30
0.0
 11
62.5189
 21
86.4182
 31
0.0
  0
LINE
  8
0
 62
     0
 10
62.5189
 20
86.4182
 30
0.0
 11
61.7181
 21
86.4182
 31
0.0
  0
LINE
  8
0
 62
     0
 10
61.7181
 20
67.3682
 30
0.0
 11
61.7181
 21
66.7688
 31
0.0
  0
LINE
  8
0
 62
     0
 10
61.7181
 20
66.7688
 30
0.0
 11
47.7188
 21
66.7688
 31
0.0
  0
LINE
  8
0
 62
     0
 10
47.7188
 20
66.7688
 30
0.0
 11
47.7188
 21
67.3682
 31
0.0
  0
LINE
  8
0
 62
     0
 10
47.7188
 20
67.3682
 30
0.0
 11
46.918
 21
67.3682
 31
0.0
  0
LINE
  8
0
 62
     0
 10
46.918
 20
67.3682
 30
0.0
 11
46.918
 21
80.1688
 31
0.0
  0
LINE
  8
0
 62
     0
 10
46.918
 20
80.1688
 30
0.0
 11
47.7188
 21
80.1688
 31
0.0
  0
LINE
  8
0
 62
     0
 10
47.7188
 20
80.1688
 30
0.0
 11
47.7188
 21
80.7681
 31
0.0
  0
LINE
  8
0
 62
     0
 10
47.7188
 20
80.7681
 30
0.0
 11
61.7181
 21
80.7681
 31
0.0
  0
LINE
  8
0
 62
     0
 10
61.7181
 20
80.7681
 30
0.0
 11
61.7181
 21
80.1688
 31
0.0
  0
LINE
  8
0
 62
     0
 10
61.7181
 20
80.1688
 30
0.0
 11
62.5189
 21
80.1688
 31
0.0
  0
LINE
  8
0
 62
     0
 10
62.5189
 20
80.1688
 30
0.0
 11
62.5189
 21
67.3682
 31
0.0
  0
LINE
  8
0
 62
     0
 10
62.5189
 20
67.3682
 30
0.0
 11
61.7181
 21
67.3682
 31
0.0
  0
LINE
  8
0
 62
     0
 10
61.7181
 20
48.3182
 30
0.0
 11
61.7181
 21
47.7188
 31
0.0
  0
LINE
  8
0
 62
     0
 10
61.7181
 20
47.7188
 30
0.0
 11
47.7188
 21
47.7188
 31
0.0
  0
LINE
  8
0
 62
     0
 10
47.7188
 20
47.7188
 30
0.0
 11
47.7188
 21
48.3182
 31
0.0
  0
LINE
  8
0
 62
     0
 10
47.7188
 20
48.3182
 30
0.0
 11
46.918
 21
48.3182
 31
0.0
  0
LINE
  8
0
 62
     0
 10
46.918
 20
48.3182
 30
0.0
 11
46.918
 21
61.1188
 31
0.0
  0
LINE
  8
0
 62
     0
 10
46.918
 20
61.1188
 30
0.0
 11
47.7188
 21
61.1188
 31
0.0
  0
LINE
  8
0
 62
     0
 10
47.7188
 20
61.1188
 30
0.0
 11
47.7188
 21
61.7181
 31
0.0
  0
LINE
  8
0
 62
     0
 10
47.7188
 20
61.7181
 30
0.0
 11
61.7181
 21
61.7181
 31
0.0
  0
LINE
  8
0
 62
     0
 10
61.7181
 20
61.7181
 30
0.0
 11
61.7181
 21
61.1188
 31
0.0
  0
LINE
  8
0
 62
     0
 10
61.7181
 20
61.1188
 30
0.0
 11
62.5189
 21
61.1188
 31
0.0
  0
LINE
  8
0
 62
     0
 10
62.5189
 20
61.1188
 30
0.0
 11
62.5189
 21
48.3182
 31
0.0
  0
LINE
  8
0
 62
     0
 10
62.5189
 20
48.3182
 30
0.0
 11
61.7181
 21
48.3182
 31
0.0
  0
LINE
  8
0
 62
     0
 10
61.7181
 20
29.2681
 30
0.0
 11
61.7181
 21
28.6687
 31
0.0
  0
LINE
  8
0
 62
     0
 10
61.7181
 20
28.6687
 30
0.0
 11
47.7188
 21
28.6687
 31
0.0
  0
LINE
  8
0
 62
     0
 10
47.7188
 20
28.6687
 30
0.0
 11
47.7188
 21
29.2681
 31
0.0
  0
LINE
  8
0
 62
     0
 10
47.7188
 20
29.2681
 30
0.0
 11
46.918
 21
29.2681
 31
0.0
  0
LINE
  8
0
 62
     0
 10
46.918
 20
29.2681
 30
0.0
 11
46.918
 21
42.0688
 31
0.0
  0
LINE
  8
0
 62
     0
 10
46.918
 20
42.0688
 30
0.0
 11
47.7188
 21
42.0688
 31
0.0
  0
LINE
  8
0
 62
     0
 10
47.7188
 20
42.0688
 30
0.0
 11
47.7188
 21
42.6681
 31
0.0
  0
LINE
  8
0
 62
     0
 10
47.7188
 20
42.6681
 30
0.0
 11
61.7181
 21
42.6681
 31
0.0
  0
LINE
  8
0
 62
     0
 10
61.7181
 20
42.6681
 30
0.0
 11
61.7181
 21
42.0688
 31
0.0
  0
LINE
  8
0
 62
     0
 10
61.7181
 20
42.0688
 30
0.0
 11
62.5189
 21
42.0688
 31
0.0
  0
LINE
  8
0
 62
     0
 10
62.5189
 20
42.0688
 30
0.0
 11
62.5189
 21
29.2681
 31
0.0
  0
LINE
  8
0
 62
     0
 10
62.5189
 20
29.2681
 30
0.0
 11
61.7181
 21
29.2681
 31
0.0
  0
LINE
  8
0
 62
     0
 10
61.7181
 20
10.2181
 30
0.0
 11
61.7181
 21
9.6187
 31
0.0
  0
LINE
  8
0
 62
     0
 10
61.7181
 20
9.6187
 30
0.0
 11
47.7188
 21
9.6187
 31
0.0
  0
LINE
  8
0
 62
     0
 10
47.7188
 20
9.6187
 30
0.0
 11
47.7188
 21
10.2181
 31
0.0
  0
LINE
  8
0
 62
     0
 10
47.7188
 20
10.2181
 30
0.0
 11
46.918
 21
10.2181
 31
0.0
  0
LINE
  8
0
 62
     0
 10
46.918
 20
10.2181
 30
0.0
 11
46.918
 21
23.0188
 31
0.0
  0
LINE
  8
0
 62
     0
 10
46.918
 20
23.0188
 30
0.0
 11
47.7188
 21
23.0188
 31
0.0
  0
LINE
  8
0
 62
     0
 10
47.7188
 20
23.0188
 30
0.0
 11
47.7188
 21
23.6182
 31
0.0
  0
LINE
  8
0
 62
     0
 10
47.7188
 20
23.6182
 30
0.0
 11
61.7181
 21
23.6182
 31
0.0
  0
LINE
  8
0
 62
     0
 10
61.7181
 20
23.6182
 30
0.0
 11
61.7181
 21
23.0188
 31
0.0
  0
LINE
  8
0
 62
     0
 10
61.7181
 20
23.0188
 30
0.0
 11
62.5189
 21
23.0188
 31
0.0
  0
LINE
  8
0
 62
     0
 10
62.5189
 20
23.0188
 30
0.0
 11
62.5189
 21
10.2181
 31
0.0
  0
LINE
  8
0
 62
     0
 10
62.5189
 20
10.2181
 30
0.0
 11
61.7181
 21
10.2181
 31
0.0
  0
LINE
  8
0
 62
     0
 10
80.1688
 20
57.2438
 30
0.0
 11
80.1688
 21
56.443
 31
0.0
  0
LINE
  8
0
 62
     0
 10
80.1688
 20
56.443
 30
0.0
 11
78.4987
 21
56.443
 31
0.0
  0
LINE
  8
0
 62
     0
 10
78.4987
 20
56.443
 30
0.0
 11
78.4987
 21
55.6687
 31
0.0
  0
LINE
  8
0
 62
     0
 10
78.4987
 20
55.6687
 30
0.0
 11
79.2992
 21
55.6687
 31
0.0
  0
LINE
  8
0
 62
     0
 10
79.2992
 20
55.6687
 30
0.0
 11
79.2992
 21
53.9433
 31
0.0
  0
LINE
  8
0
 62
     0
 10
79.2992
 20
53.9433
 30
0.0
 11
80.2185
 21
53.9433
 31
0.0
  0
LINE
  8
0
 62
     0
 10
80.2185
 20
53.9433
 30
0.0
 11
80.2185
 21
50.643
 31
0.0
  0
LINE
  8
0
 62
     0
 10
80.2185
 20
50.643
 30
0.0
 11
79.2992
 21
50.643
 31
0.0
  0
LINE
  8
0
 62
     0
 10
79.2992
 20
50.643
 30
0.0
 11
79.2992
 21
49.0181
 31
0.0
  0
LINE
  8
0
 62
     0
 10
79.2992
 20
49.0181
 30
0.0
 11
76.0691
 21
49.0181
 31
0.0
  0
LINE
  8
0
 62
     0
 10
76.0691
 20
49.0181
 30
0.0
 11
76.0691
 21
48.1432
 31
0.0
  0
LINE
  8
0
 62
     0
 10
76.0691
 20
48.1432
 30
0.0
 11
73.2688
 21
48.1432
 31
0.0
  0
LINE
  8
0
 62
     0
 10
73.2688
 20
48.1432
 30
0.0
 11
73.2688
 21
49.0181
 31
0.0
  0
LINE
  8
0
 62
     0
 10
73.2688
 20
49.0181
 30
0.0
 11
66.9988
 21
49.0181
 31
0.0
  0
LINE
  8
0
 62
     0
 10
66.9988
 20
49.0181
 30
0.0
 11
66.9988
 21
50.643
 31
0.0
  0
LINE
  8
0
 62
     0
 10
66.9988
 20
50.643
 30
0.0
 11
66.0192
 21
50.643
 31
0.0
  0
LINE
  8
0
 62
     0
 10
66.0192
 20
50.643
 30
0.0
 11
66.0192
 21
53.9433
 31
0.0
  0
LINE
  8
0
 62
     0
 10
66.0192
 20
53.9433
 30
0.0
 11
66.9988
 21
53.9433
 31
0.0
  0
LINE
  8
0
 62
     0
 10
66.9988
 20
53.9433
 30
0.0
 11
66.9988
 21
55.6687
 31
0.0
  0
LINE
  8
0
 62
     0
 10
66.9988
 20
55.6687
 30
0.0
 11
67.7982
 21
55.6687
 31
0.0
  0
LINE
  8
0
 62
     0
 10
67.7982
 20
55.6687
 30
0.0
 11
67.7982
 21
56.443
 31
0.0
  0
LINE
  8
0
 62
     0
 10
67.7982
 20
56.443
 30
0.0
 11
67.3682
 21
56.443
 31
0.0
  0
LINE
  8
0
 62
     0
 10
67.3682
 20
56.443
 30
0.0
 11
67.3682
 21
57.2438
 31
0.0
  0
LINE
  8
0
 62
     0
 10
67.3682
 20
57.2438
 30
0.0
 11
66.7688
 21
57.2438
 31
0.0
  0
LINE
  8
0
 62
     0
 10
66.7688
 20
57.2438
 30
0.0
 11
66.7688
 21
71.2431
 31
0.0
  0
LINE
  8
0
 62
     0
 10
66.7688
 20
71.2431
 30
0.0
 11
67.3682
 21
71.2431
 31
0.0
  0
LINE
  8
0
 62
     0
 10
67.3682
 20
71.2431
 30
0.0
 11
67.3682
 21
72.0439
 31
0.0
  0
LINE
  8
0
 62
     0
 10
67.3682
 20
72.0439
 30
0.0
 11
67.7982
 21
72.0439
 31
0.0
  0
LINE
  8
0
 62
     0
 10
67.7982
 20
72.0439
 30
0.0
 11
67.7982
 21
72.8183
 31
0.0
  0
LINE
  8
0
 62
     0
 10
67.7982
 20
72.8183
 30
0.0
 11
66.9988
 21
72.8183
 31
0.0
  0
LINE
  8
0
 62
     0
 10
66.9988
 20
72.8183
 30
0.0
 11
66.9988
 21
74.5437
 31
0.0
  0
LINE
  8
0
 62
     0
 10
66.9988
 20
74.5437
 30
0.0
 11
66.0192
 21
74.5437
 31
0.0
  0
LINE
  8
0
 62
     0
 10
66.0192
 20
74.5437
 30
0.0
 11
66.0192
 21
77.8425
 31
0.0
  0
LINE
  8
0
 62
     0
 10
66.0192
 20
77.8425
 30
0.0
 11
66.9988
 21
77.8425
 31
0.0
  0
LINE
  8
0
 62
     0
 10
66.9988
 20
77.8425
 30
0.0
 11
66.9988
 21
79.4688
 31
0.0
  0
LINE
  8
0
 62
     0
 10
66.9988
 20
79.4688
 30
0.0
 11
73.2688
 21
79.4688
 31
0.0
  0
LINE
  8
0
 62
     0
 10
73.2688
 20
79.4688
 30
0.0
 11
73.2688
 21
80.3437
 31
0.0
  0
LINE
  8
0
 62
     0
 10
73.2688
 20
80.3437
 30
0.0
 11
76.0691
 21
80.3437
 31
0.0
  0
LINE
  8
0
 62
     0
 10
76.0691
 20
80.3437
 30
0.0
 11
76.0691
 21
79.4688
 31
0.0
  0
LINE
  8
0
 62
     0
 10
76.0691
 20
79.4688
 30
0.0
 11
79.2992
 21
79.4688
 31
0.0
  0
LINE
  8
0
 62
     0
 10
79.2992
 20
79.4688
 30
0.0
 11
79.2992
 21
77.8425
 31
0.0
  0
LINE
  8
0
 62
     0
 10
79.2992
 20
77.8425
 30
0.0
 11
80.2185
 21
77.8425
 31
0.0
  0
LINE
  8
0
 62
     0
 10
80.2185
 20
77.8425
 30
0.0
 11
80.2185
 21
74.5437
 31
0.0
  0
LINE
  8
0
 62
     0
 10
80.2185
 20
74.5437
 30
0.0
 11
79.2992
 21
74.5437
 31
0.0
  0
LINE
  8
0
 62
     0
 10
79.2992
 20
74.5437
 30
0.0
 11
79.2992
 21
72.8183
 31
0.0
  0
LINE
  8
0
 62
     0
 10
79.2992
 20
72.8183
 30
0.0
 11
78.4987
 21
72.8183
 31
0.0
  0
LINE
  8
0
 62
     0
 10
78.4987
 20
72.8183
 30
0.0
 11
78.4987
 21
72.0439
 31
0.0
  0
LINE
  8
0
 62
     0
 10
78.4987
 20
72.0439
 30
0.0
 11
80.1688
 21
72.0439
 31
0.0
  0
LINE
  8
0
 62
     0
 10
80.1688
 20
72.0439
 30
0.0
 11
80.1688
 21
71.2431
 31
0.0
  0
LINE
  8
0
 62
     0
 10
80.1688
 20
71.2431
 30
0.0
 11
80.7681
 21
71.2431
 31
0.0
  0
LINE
  8
0
 62
     0
 10
80.7681
 20
71.2431
 30
0.0
 11
80.7681
 21
57.2438
 31
0.0
  0
LINE
  8
0
 62
     0
 10
80.7681
 20
57.2438
 30
0.0
 11
80.1688
 21
57.2438
 31
0.0
  0
LINE
  8
0
 62
     0
 10
80.1688
 20
19.1437
 30
0.0
 11
80.1688
 21
18.3431
 31
0.0
  0
LINE
  8
0
 62
     0
 10
80.1688
 20
18.3431
 30
0.0
 11
78.4987
 21
18.3431
 31
0.0
  0
LINE
  8
0
 62
     0
 10
78.4987
 20
18.3431
 30
0.0
 11
78.4987
 21
17.5686
 31
0.0
  0
LINE
  8
0
 62
     0
 10
78.4987
 20
17.5686
 30
0.0
 11
79.2992
 21
17.5686
 31
0.0
  0
LINE
  8
0
 62
     0
 10
79.2992
 20
17.5686
 30
0.0
 11
79.2992
 21
15.8433
 31
0.0
  0
LINE
  8
0
 62
     0
 10
79.2992
 20
15.8433
 30
0.0
 11
80.2185
 21
15.8433
 31
0.0
  0
LINE
  8
0
 62
     0
 10
80.2185
 20
15.8433
 30
0.0
 11
80.2185
 21
12.5429
 31
0.0
  0
LINE
  8
0
 62
     0
 10
80.2185
 20
12.5429
 30
0.0
 11
79.2992
 21
12.5429
 31
0.0
  0
LINE
  8
0
 62
     0
 10
79.2992
 20
12.5429
 30
0.0
 11
79.2992
 21
10.9182
 31
0.0
  0
LINE
  8
0
 62
     0
 10
79.2992
 20
10.9182
 30
0.0
 11
76.0691
 21
10.9182
 31
0.0
  0
LINE
  8
0
 62
     0
 10
76.0691
 20
10.9182
 30
0.0
 11
76.0691
 21
10.0432
 31
0.0
  0
LINE
  8
0
 62
     0
 10
76.0691
 20
10.0432
 30
0.0
 11
73.2688
 21
10.0432
 31
0.0
  0
LINE
  8
0
 62
     0
 10
73.2688
 20
10.0432
 30
0.0
 11
73.2688
 21
10.9182
 31
0.0
  0
LINE
  8
0
 62
     0
 10
73.2688
 20
10.9182
 30
0.0
 11
66.9988
 21
10.9182
 31
0.0
  0
LINE
  8
0
 62
     0
 10
66.9988
 20
10.9182
 30
0.0
 11
66.9988
 21
12.5429
 31
0.0
  0
LINE
  8
0
 62
     0
 10
66.9988
 20
12.5429
 30
0.0
 11
66.0192
 21
12.5429
 31
0.0
  0
LINE
  8
0
 62
     0
 10
66.0192
 20
12.5429
 30
0.0
 11
66.0192
 21
15.8433
 31
0.0
  0
LINE
  8
0
 62
     0
 10
66.0192
 20
15.8433
 30
0.0
 11
66.9988
 21
15.8433
 31
0.0
  0
LINE
  8
0
 62
     0
 10
66.9988
 20
15.8433
 30
0.0
 11
66.9988
 21
17.5686
 31
0.0
  0
LINE
  8
0
 62
     0
 10
66.9988
 20
17.5686
 30
0.0
 11
67.7982
 21
17.5686
 31
0.0
  0
LINE
  8
0
 62
     0
 10
67.7982
 20
17.5686
 30
0.0
 11
67.7982
 21
18.3431
 31
0.0
  0
LINE
  8
0
 62
     0
 10
67.7982
 20
18.3431
 30
0.0
 11
67.3682
 21
18.3431
 31
0.0
  0
LINE
  8
0
 62
     0
 10
67.3682
 20
18.3431
 30
0.0
 11
67.3682
 21
19.1437
 31
0.0
  0
LINE
  8
0
 62
     0
 10
67.3682
 20
19.1437
 30
0.0
 11
66.7688
 21
19.1437
 31
0.0
  0
LINE
  8
0
 62
     0
 10
66.7688
 20
19.1437
 30
0.0
 11
66.7688
 21
33.1432
 31
0.0
  0
LINE
  8
0
 62
     0
 10
66.7688
 20
33.1432
 30
0.0
 11
67.3682
 21
33.1432
 31
0.0
  0
LINE
  8
0
 62
     0
 10
67.3682
 20
33.1432
 30
0.0
 11
67.3682
 21
33.9439
 31
0.0
  0
LINE
  8
0
 62
     0
 10
67.3682
 20
33.9439
 30
0.0
 11
67.7982
 21
33.9439
 31
0.0
  0
LINE
  8
0
 62
     0
 10
67.7982
 20
33.9439
 30
0.0
 11
67.7982
 21
34.7183
 31
0.0
  0
LINE
  8
0
 62
     0
 10
67.7982
 20
34.7183
 30
0.0
 11
66.9988
 21
34.7183
 31
0.0
  0
LINE
  8
0
 62
     0
 10
66.9988
 20
34.7183
 30
0.0
 11
66.9988
 21
36.4437
 31
0.0
  0
LINE
  8
0
 62
     0
 10
66.9988
 20
36.4437
 30
0.0
 11
66.0192
 21
36.4437
 31
0.0
  0
LINE
  8
0
 62
     0
 10
66.0192
 20
36.4437
 30
0.0
 11
66.0192
 21
39.7425
 31
0.0
  0
LINE
  8
0
 62
     0
 10
66.0192
 20
39.7425
 30
0.0
 11
66.9988
 21
39.7425
 31
0.0
  0
LINE
  8
0
 62
     0
 10
66.9988
 20
39.7425
 30
0.0
 11
66.9988
 21
41.3688
 31
0.0
  0
LINE
  8
0
 62
     0
 10
66.9988
 20
41.3688
 30
0.0
 11
73.2688
 21
41.3688
 31
0.0
  0
LINE
  8
0
 62
     0
 10
73.2688
 20
41.3688
 30
0.0
 11
73.2688
 21
42.2437
 31
0.0
  0
LINE
  8
0
 62
     0
 10
73.2688
 20
42.2437
 30
0.0
 11
76.0691
 21
42.2437
 31
0.0
  0
LINE
  8
0
 62
     0
 10
76.0691
 20
42.2437
 30
0.0
 11
76.0691
 21
41.3688
 31
0.0
  0
LINE
  8
0
 62
     0
 10
76.0691
 20
41.3688
 30
0.0
 11
79.2992
 21
41.3688
 31
0.0
  0
LINE
  8
0
 62
     0
 10
79.2992
 20
41.3688
 30
0.0
 11
79.2992
 21
39.7425
 31
0.0
  0
LINE
  8
0
 62
     0
 10
79.2992
 20
39.7425
 30
0.0
 11
80.2185
 21
39.7425
 31
0.0
  0
LINE
  8
0
 62
     0
 10
80.2185
 20
39.7425
 30
0.0
 11
80.2185
 21
36.4437
 31
0.0
  0
LINE
  8
0
 62
     0
 10
80.2185
 20
36.4437
 30
0.0
 11
79.2992
 21
36.4437
 31
0.0
  0
LINE
  8
0
 62
     0
 10
79.2992
 20
36.4437
 30
0.0
 11
79.2992
 21
34.7183
 31
0.0
  0
LINE
  8
0
 62
     0
 10
79.2992
 20
34.7183
 30
0.0
 11
78.4987
 21
34.7183
 31
0.0
  0
LINE
  8
0
 62
     0
 10
78.4987
 20
34.7183
 30
0.0
 11
78.4987
 21
33.9439
 31
0.0
  0
LINE
  8
0
 62
     0
 10
78.4987
 20
33.9439
 30
0.0
 11
80.1688
 21
33.9439
 31
0.0
  0
LINE
  8
0
 62
     0
 10
80.1688
 20
33.9439
 30
0.0
 11
80.1688
 21
33.1432
 31
0.0
  0
LINE
  8
0
 62
     0
 10
80.1688
 20
33.1432
 30
0.0
 11
80.7681
 21
33.1432
 31
0.0
  0
LINE
  8
0
 62
     0
 10
80.7681
 20
33.1432
 30
0.0
 11
80.7681
 21
19.1437
 31
0.0
  0
LINE
  8
0
 62
     0
 10
80.7681
 20
19.1437
 30
0.0
 11
80.1688
 21
19.1437
 31
0.0
  0
LINE
  8
0
 62
     0
 10
80.7681
 20
86.4182
 30
0.0
 11
80.7681
 21
85.8188
 31
0.0
  0
LINE
  8
0
 62
     0
 10
80.7681
 20
85.8188
 30
0.0
 11
66.7688
 21
85.8188
 31
0.0
  0
LINE
  8
0
 62
     0
 10
66.7688
 20
85.8188
 30
0.0
 11
66.7688
 21
86.4182
 31
0.0
  0
LINE
  8
0
 62
     0
 10
66.7688
 20
86.4182
 30
0.0
 11
65.968
 21
86.4182
 31
0.0
  0
LINE
  8
0
 62
     0
 10
65.968
 20
86.4182
 30
0.0
 11
65.968
 21
99.2188
 31
0.0
  0
LINE
  8
0
 62
     0
 10
65.968
 20
99.2188
 30
0.0
 11
66.7688
 21
99.2188
 31
0.0
  0
LINE
  8
0
 62
     0
 10
66.7688
 20
99.2188
 30
0.0
 11
66.7688
 21
99.8181
 31
0.0
  0
LINE
  8
0
 62
     0
 10
66.7688
 20
99.8181
 30
0.0
 11
80.7681
 21
99.8181
 31
0.0
  0
LINE
  8
0
 62
     0
 10
80.7681
 20
99.8181
 30
0.0
 11
80.7681
 21
99.2188
 31
0.0
  0
LINE
  8
0
 62
     0
 10
80.7681
 20
99.2188
 30
0.0
 11
81.5689
 21
99.2188
 31
0.0
  0
LINE
  8
0
 62
     0
 10
81.5689
 20
99.2188
 30
0.0
 11
81.5689
 21
86.4182
 31
0.0
  0
LINE
  8
0
 62
     0
 10
81.5689
 20
86.4182
 30
0.0
 11
80.7681
 21
86.4182
 31
0.0
  0
ENDSEC
  0
EOF
