<?xml version="1.0"?>
<!-- Generated by SVGo -->
<svg width="100.200mm" height="119.250mm"
     viewBox="0.000 0.000 100.200 119.250"
     xmlns="http://www.w3.org/2000/svg" 
     xmlns:xlink="http://www.w3.org/1999/xlink">
<polygon points="93.200,5.000 93.357,5.006 93.513,5.025 93.667,5.055 93.818,5.098 93.965,5.152 94.108,5.218 94.245,5.295 94.376,5.382 94.499,5.479 94.614,5.586 94.721,5.701 94.818,5.824 94.905,5.955 94.982,6.092 95.048,6.235 95.102,6.382 95.145,6.533 95.175,6.687 95.194,6.843 95.200,7.000 95.200,112.250 95.194,112.407 95.175,112.563 95.145,112.717 95.102,112.868 95.048,113.015 94.982,113.158 94.905,113.295 94.818,113.426 94.721,113.549 94.614,113.664 94.499,113.771 94.376,113.868 94.245,113.955 94.108,114.032 93.965,114.098 93.818,114.152 93.667,114.195 93.513,114.225 93.357,114.244 93.200,114.250 7.000,114.250 6.843,114.244 6.687,114.225 6.533,114.195 6.382,114.152 6.235,114.098 6.092,114.032 5.955,113.955 5.824,113.868 5.701,113.771 5.586,113.664 5.479,113.549 5.382,113.426 5.295,113.295 5.218,113.158 5.152,113.015 5.098,112.868 5.055,112.717 5.025,112.563 5.006,112.407 5.000,112.250 5.000,7.000 5.006,6.843 5.025,6.687 5.055,6.533 5.098,6.382 5.152,6.235 5.218,6.092 5.295,5.955 5.382,5.824 5.479,5.701 5.586,5.586 5.701,5.479 5.824,5.382 5.955,5.295 6.092,5.218 6.235,5.152 6.382,5.098 6.533,5.055 6.687,5.025 6.843,5.006 7.000,5.000" style="fill:none;stroke-width:0.2;stroke:black"/>
<polygon points="50.100,6.500 50.718,6.598 51.276,6.882 51.718,7.324 52.002,7.882 52.100,8.500 52.002,9.118 51.718,9.676 51.276,10.118 50.718,10.402 50.100,10.500 49.482,10.402 48.924,10.118 48.482,9.676 48.198,9.118 48.100,8.500 48.198,7.882 48.482,7.324 48.924,6.882 49.482,6.598" style="fill:none;stroke-width:0.2;stroke:black"/>
<polygon points="91.700,6.500 92.318,6.598 92.876,6.882 93.318,7.324 93.602,7.882 93.700,8.500 93.602,9.118 93.318,9.676 92.876,10.118 92.318,10.402 91.700,10.500 91.082,10.402 90.524,10.118 90.082,9.676 89.798,9.118 89.700,8.500 89.798,7.882 90.082,7.324 90.524,6.882 91.082,6.598" style="fill:none;stroke-width:0.2;stroke:black"/>
<polygon points="91.700,57.625 92.318,57.723 92.876,58.007 93.318,58.449 93.602,59.007 93.700,59.625 93.602,60.243 93.318,60.801 92.876,61.243 92.318,61.527 91.700,61.625 91.082,61.527 90.524,61.243 90.082,60.801 89.798,60.243 89.700,59.625 89.798,59.007 90.082,58.449 90.524,58.007 91.082,57.723" style="fill:none;stroke-width:0.2;stroke:black"/>
<polygon points="91.700,108.750 92.318,108.848 92.876,109.132 93.318,109.574 93.602,110.132 93.700,110.750 93.602,111.368 93.318,111.926 92.876,112.368 92.318,112.652 91.700,112.750 91.082,112.652 90.524,112.368 90.082,111.926 89.798,111.368 89.700,110.750 89.798,110.132 90.082,109.574 90.524,109.132 91.082,108.848" style="fill:none;stroke-width:0.2;stroke:black"/>
<polygon points="50.100,108.750 50.718,108.848 51.276,109.132 51.718,109.574 52.002,110.132 52.100,110.750 52.002,111.368 51.718,111.926 51.276,112.368 50.718,112.652 50.100,112.750 49.482,112.652 48.924,112.368 48.482,111.926 48.198,111.368 48.100,110.750 48.198,110.132 48.482,109.574 48.924,109.132 49.482,108.848" style="fill:none;stroke-width:0.2;stroke:black"/>
<polygon points="8.500,108.750 9.118,108.848 9.676,109.132 10.118,109.574 10.402,110.132 10.500,110.750 10.402,111.368 10.118,111.926 9.676,112.368 9.118,112.652 8.500,112.750 7.882,112.652 7.324,112.368 6.882,111.926 6.598,111.368 6.500,110.750 6.598,110.132 6.882,109.574 7.324,109.132 7.882,108.848" style="fill:none;stroke-width:0.2;stroke:black"/>
<polygon points="8.500,57.625 9.118,57.723 9.676,58.007 10.118,58.449 10.402,59.007 10.500,59.625 10.402,60.243 10.118,60.801 9.676,61.243 9.118,61.527 8.500,61.625 7.882,61.527 7.324,61.243 6.882,60.801 6.598,60.243 6.500,59.625 6.598,59.007 6.882,58.449 7.324,58.007 7.882,57.723" style="fill:none;stroke-width:0.2;stroke:black"/>
<polygon points="8.500,6.500 9.118,6.598 9.676,6.882 10.118,7.324 10.402,7.882 10.500,8.500 10.402,9.118 10.118,9.676 9.676,10.118 9.118,10.402 8.500,10.500 7.882,10.402 7.324,10.118 6.882,9.676 6.598,9.118 6.500,8.500 6.598,7.882 6.882,7.324 7.324,6.882 7.882,6.598" style="fill:none;stroke-width:0.2;stroke:black"/>
<polygon points="28.525,27.925 28.525,28.525 14.525,28.525 14.525,27.925 13.725,27.925 13.725,15.125 14.525,15.125 14.525,14.525 28.525,14.525 28.525,15.125 29.325,15.125 29.325,27.925" style="fill:none;stroke-width:0.2;stroke:black"/>
<polygon points="28.525,46.975 28.525,47.575 14.525,47.575 14.525,46.975 13.725,46.975 13.725,34.175 14.525,34.175 14.525,33.575 28.525,33.575 28.525,34.175 29.325,34.175 29.325,46.975" style="fill:none;stroke-width:0.2;stroke:black"/>
<polygon points="28.525,66.025 28.525,66.625 14.525,66.625 14.525,66.025 13.725,66.025 13.725,53.225 14.525,53.225 14.525,52.625 28.525,52.625 28.525,53.225 29.325,53.225 29.325,66.025" style="fill:none;stroke-width:0.2;stroke:black"/>
<polygon points="28.525,85.075 28.525,85.675 14.525,85.675 14.525,85.075 13.725,85.075 13.725,72.275 14.525,72.275 14.525,71.675 28.525,71.675 28.525,72.275 29.325,72.275 29.325,85.075" style="fill:none;stroke-width:0.2;stroke:black"/>
<polygon points="46.275,98.225 46.275,104.495 44.650,104.495 44.650,105.475 41.350,105.475 41.350,104.495 39.625,104.495 39.625,103.695 38.850,103.695 38.850,104.125 38.050,104.125 38.050,104.725 24.050,104.725 24.050,104.125 23.250,104.125 23.250,103.695 22.475,103.695 22.475,104.495 20.750,104.495 20.750,105.475 17.450,105.475 17.450,104.495 15.825,104.495 15.825,98.225 14.950,98.225 14.950,95.425 15.825,95.425 15.825,92.195 17.450,92.195 17.450,91.275 20.750,91.275 20.750,92.195 22.475,92.195 22.475,92.995 23.250,92.995 23.250,91.325 24.050,91.325 24.050,90.725 38.050,90.725 38.050,91.325 38.850,91.325 38.850,92.995 39.625,92.995 39.625,92.195 41.350,92.195 41.350,91.275 44.650,91.275 44.650,92.195 46.275,92.195 46.275,95.425 47.150,95.425 47.150,98.225" style="fill:none;stroke-width:0.2;stroke:black"/>
<polygon points="47.575,27.925 47.575,28.525 33.575,28.525 33.575,27.925 32.775,27.925 32.775,15.125 33.575,15.125 33.575,14.525 47.575,14.525 47.575,15.125 48.375,15.125 48.375,27.925" style="fill:none;stroke-width:0.2;stroke:black"/>
<polygon points="47.575,46.975 47.575,47.575 33.575,47.575 33.575,46.975 32.775,46.975 32.775,34.175 33.575,34.175 33.575,33.575 47.575,33.575 47.575,34.175 48.375,34.175 48.375,46.975" style="fill:none;stroke-width:0.2;stroke:black"/>
<polygon points="47.575,66.025 47.575,66.625 33.575,66.625 33.575,66.025 32.775,66.025 32.775,53.225 33.575,53.225 33.575,52.625 47.575,52.625 47.575,53.225 48.375,53.225 48.375,66.025" style="fill:none;stroke-width:0.2;stroke:black"/>
<polygon points="47.575,85.075 47.575,85.675 33.575,85.675 33.575,85.075 32.775,85.075 32.775,72.275 33.575,72.275 33.575,71.675 47.575,71.675 47.575,72.275 48.375,72.275 48.375,85.075" style="fill:none;stroke-width:0.2;stroke:black"/>
<polygon points="66.625,27.925 66.625,28.525 52.625,28.525 52.625,27.925 51.825,27.925 51.825,15.125 52.625,15.125 52.625,14.525 66.625,14.525 66.625,15.125 67.425,15.125 67.425,27.925" style="fill:none;stroke-width:0.2;stroke:black"/>
<polygon points="66.625,46.975 66.625,47.575 52.625,47.575 52.625,46.975 51.825,46.975 51.825,34.175 52.625,34.175 52.625,33.575 66.625,33.575 66.625,34.175 67.425,34.175 67.425,46.975" style="fill:none;stroke-width:0.2;stroke:black"/>
<polygon points="66.625,66.025 66.625,66.625 52.625,66.625 52.625,66.025 51.825,66.025 51.825,53.225 52.625,53.225 52.625,52.625 66.625,52.625 66.625,53.225 67.425,53.225 67.425,66.025" style="fill:none;stroke-width:0.2;stroke:black"/>
<polygon points="66.625,85.075 66.625,85.675 52.625,85.675 52.625,85.075 51.825,85.075 51.825,72.275 52.625,72.275 52.625,71.675 66.625,71.675 66.625,72.275 67.425,72.275 67.425,85.075" style="fill:none;stroke-width:0.2;stroke:black"/>
<polygon points="66.625,104.125 66.625,104.725 52.625,104.725 52.625,104.125 51.825,104.125 51.825,91.325 52.625,91.325 52.625,90.725 66.625,90.725 66.625,91.325 67.425,91.325 67.425,104.125" style="fill:none;stroke-width:0.2;stroke:black"/>
<polygon points="85.075,57.100 85.075,57.900 83.405,57.900 83.405,58.675 84.205,58.675 84.205,60.400 85.125,60.400 85.125,63.700 84.205,63.700 84.205,65.325 80.975,65.325 80.975,66.200 78.175,66.200 78.175,65.325 71.905,65.325 71.905,63.700 70.925,63.700 70.925,60.400 71.905,60.400 71.905,58.675 72.705,58.675 72.705,57.900 72.275,57.900 72.275,57.100 71.675,57.100 71.675,43.100 72.275,43.100 72.275,42.300 72.705,42.300 72.705,41.525 71.905,41.525 71.905,39.800 70.925,39.800 70.925,36.500 71.905,36.500 71.905,34.875 78.175,34.875 78.175,34.000 80.975,34.000 80.975,34.875 84.205,34.875 84.205,36.500 85.125,36.500 85.125,39.800 84.205,39.800 84.205,41.525 83.405,41.525 83.405,42.300 85.075,42.300 85.075,43.100 85.675,43.100 85.675,57.100" style="fill:none;stroke-width:0.2;stroke:black"/>
<polygon points="85.075,95.200 85.075,96.000 83.405,96.000 83.405,96.775 84.205,96.775 84.205,98.500 85.125,98.500 85.125,101.800 84.205,101.800 84.205,103.425 80.975,103.425 80.975,104.300 78.175,104.300 78.175,103.425 71.905,103.425 71.905,101.800 70.925,101.800 70.925,98.500 71.905,98.500 71.905,96.775 72.705,96.775 72.705,96.000 72.275,96.000 72.275,95.200 71.675,95.200 71.675,81.200 72.275,81.200 72.275,80.400 72.705,80.400 72.705,79.625 71.905,79.625 71.905,77.900 70.925,77.900 70.925,74.600 71.905,74.600 71.905,72.975 78.175,72.975 78.175,72.100 80.975,72.100 80.975,72.975 84.205,72.975 84.205,74.600 85.125,74.600 85.125,77.900 84.205,77.900 84.205,79.625 83.405,79.625 83.405,80.400 85.075,80.400 85.075,81.200 85.675,81.200 85.675,95.200" style="fill:none;stroke-width:0.2;stroke:black"/>
<polygon points="85.675,27.925 85.675,28.525 71.675,28.525 71.675,27.925 70.875,27.925 70.875,15.125 71.675,15.125 71.675,14.525 85.675,14.525 85.675,15.125 86.475,15.125 86.475,27.925" style="fill:none;stroke-width:0.2;stroke:black"/>
</svg>
