  0
SECTION
  2
HEADER
  9
$ACADVER
  1
AC1009
  9
$EXTMIN
 10
0.0
 20
0.0
 30
0.0
  9
$EXTMAX
 10
1000.0
 20
1000.0
 30
0.0
  9
$FILLMODE
 70
 0
  9
$SPLFRAME
 70
 1
  0
ENDSEC
  0
SECTION
  2
TABLES
  0
TABLE
  2
LAYER
 70
1
  0
LAYER
  2
0
 70
     0
 62
     7
  6
CONTINUOUS
  0
ENDTAB
  0
ENDSEC
  0
SECTION
  2
ENTITIES
  0
LINE
  8
0
 62
     0
 10
94.2936
 20
143.938
 30
0.0
 11
94.4506
 21
143.932
 31
0.0
  0
LINE
  8
0
 62
     0
 10
94.4506
 20
143.932
 30
0.0
 11
94.6065
 21
143.913
 31
0.0
  0
LINE
  8
0
 62
     0
 10
94.6065
 20
143.913
 30
0.0
 11
94.7607
 21
143.882
 31
0.0
  0
LINE
  8
0
 62
     0
 10
94.7607
 20
143.882
 30
0.0
 11
94.9124
 21
143.839
 31
0.0
  0
LINE
  8
0
 62
     0
 10
94.9124
 20
143.839
 30
0.0
 11
95.0584
 21
143.786
 31
0.0
  0
LINE
  8
0
 62
     0
 10
95.0584
 20
143.786
 30
0.0
 11
95.2017
 21
143.72
 31
0.0
  0
LINE
  8
0
 62
     0
 10
95.2017
 20
143.72
 30
0.0
 11
95.3382
 21
143.643
 31
0.0
  0
LINE
  8
0
 62
     0
 10
95.3382
 20
143.643
 30
0.0
 11
95.4691
 21
143.556
 31
0.0
  0
LINE
  8
0
 62
     0
 10
95.4691
 20
143.556
 30
0.0
 11
95.5933
 21
143.458
 31
0.0
  0
LINE
  8
0
 62
     0
 10
95.5933
 20
143.458
 30
0.0
 11
95.7076
 21
143.352
 31
0.0
  0
LINE
  8
0
 62
     0
 10
95.7076
 20
143.352
 30
0.0
 11
95.8151
 21
143.236
 31
0.0
  0
LINE
  8
0
 62
     0
 10
95.8151
 20
143.236
 30
0.0
 11
95.9115
 21
143.113
 31
0.0
  0
LINE
  8
0
 62
     0
 10
95.9115
 20
143.113
 30
0.0
 11
95.9982
 21
142.983
 31
0.0
  0
LINE
  8
0
 62
     0
 10
95.9982
 20
142.983
 30
0.0
 11
96.0755
 21
142.846
 31
0.0
  0
LINE
  8
0
 62
     0
 10
96.0755
 20
142.846
 30
0.0
 11
96.1415
 21
142.703
 31
0.0
  0
LINE
  8
0
 62
     0
 10
96.1415
 20
142.703
 30
0.0
 11
96.1954
 21
142.555
 31
0.0
  0
LINE
  8
0
 62
     0
 10
96.1954
 20
142.555
 30
0.0
 11
96.2395
 21
142.405
 31
0.0
  0
LINE
  8
0
 62
     0
 10
96.2395
 20
142.405
 30
0.0
 11
96.2685
 21
142.251
 31
0.0
  0
LINE
  8
0
 62
     0
 10
96.2685
 20
142.251
 30
0.0
 11
96.2875
 21
142.095
 31
0.0
  0
LINE
  8
0
 62
     0
 10
96.2875
 20
142.095
 30
0.0
 11
96.2932
 21
141.938
 31
0.0
  0
LINE
  8
0
 62
     0
 10
96.2932
 20
141.938
 30
0.0
 11
96.2932
 21
2.11253
 31
0.0
  0
LINE
  8
0
 62
     0
 10
96.2932
 20
2.11253
 30
0.0
 11
96.2875
 21
1.95544
 31
0.0
  0
LINE
  8
0
 62
     0
 10
96.2875
 20
1.95544
 30
0.0
 11
96.2685
 21
1.79972
 31
0.0
  0
LINE
  8
0
 62
     0
 10
96.2685
 20
1.79972
 30
0.0
 11
96.2395
 21
1.64538
 31
0.0
  0
LINE
  8
0
 62
     0
 10
96.2395
 20
1.64538
 30
0.0
 11
96.1954
 21
1.4938
 31
0.0
  0
LINE
  8
0
 62
     0
 10
96.1954
 20
1.4938
 30
0.0
 11
96.1415
 21
1.34772
 31
0.0
  0
LINE
  8
0
 62
     0
 10
96.1415
 20
1.34772
 30
0.0
 11
96.0755
 21
1.2044
 31
0.0
  0
LINE
  8
0
 62
     0
 10
96.0755
 20
1.2044
 30
0.0
 11
95.9982
 21
1.06798
 31
0.0
  0
LINE
  8
0
 62
     0
 10
95.9982
 20
1.06798
 30
0.0
 11
95.9115
 21
0.937066
 31
0.0
  0
LINE
  8
0
 62
     0
 10
95.9115
 20
0.937066
 30
0.0
 11
95.8151
 21
0.813043
 31
0.0
  0
LINE
  8
0
 62
     0
 10
95.8151
 20
0.813043
 30
0.0
 11
95.7076
 21
0.698666
 31
0.0
  0
LINE
  8
0
 62
     0
 10
95.7076
 20
0.698666
 30
0.0
 11
95.5933
 21
0.591178
 31
0.0
  0
LINE
  8
0
 62
     0
 10
95.5933
 20
0.591178
 30
0.0
 11
95.4691
 21
0.494714
 31
0.0
  0
LINE
  8
0
 62
     0
 10
95.4691
 20
0.494714
 30
0.0
 11
95.3382
 21
0.407899
 31
0.0
  0
LINE
  8
0
 62
     0
 10
95.3382
 20
0.407899
 30
0.0
 11
95.2017
 21
0.330729
 31
0.0
  0
LINE
  8
0
 62
     0
 10
95.2017
 20
0.330729
 30
0.0
 11
95.0584
 21
0.264583
 31
0.0
  0
LINE
  8
0
 62
     0
 10
95.0584
 20
0.264583
 30
0.0
 11
94.9124
 21
0.21084
 31
0.0
  0
LINE
  8
0
 62
     0
 10
94.9124
 20
0.21084
 30
0.0
 11
94.7607
 21
0.166743
 31
0.0
  0
LINE
  8
0
 62
     0
 10
94.7607
 20
0.166743
 30
0.0
 11
94.6065
 21
0.137804
 31
0.0
  0
LINE
  8
0
 62
     0
 10
94.6065
 20
0.137804
 30
0.0
 11
94.4506
 21
0.118511
 31
0.0
  0
LINE
  8
0
 62
     0
 10
94.4506
 20
0.118511
 30
0.0
 11
94.2936
 21
0.112999
 31
0.0
  0
LINE
  8
0
 62
     0
 10
94.2936
 20
0.112999
 30
0.0
 11
2.09324
 21
0.112999
 31
0.0
  0
LINE
  8
0
 62
     0
 10
2.09324
 20
0.112999
 30
0.0
 11
1.93614
 21
0.118511
 31
0.0
  0
LINE
  8
0
 62
     0
 10
1.93614
 20
0.118511
 30
0.0
 11
1.78043
 21
0.137804
 31
0.0
  0
LINE
  8
0
 62
     0
 10
1.78043
 20
0.137804
 30
0.0
 11
1.62609
 21
0.166743
 31
0.0
  0
LINE
  8
0
 62
     0
 10
1.62609
 20
0.166743
 30
0.0
 11
1.47588
 21
0.21084
 31
0.0
  0
LINE
  8
0
 62
     0
 10
1.47588
 20
0.21084
 30
0.0
 11
1.32843
 21
0.264583
 31
0.0
  0
LINE
  8
0
 62
     0
 10
1.32843
 20
0.264583
 30
0.0
 11
1.18511
 21
0.330729
 31
0.0
  0
LINE
  8
0
 62
     0
 10
1.18511
 20
0.330729
 30
0.0
 11
1.04869
 21
0.407899
 31
0.0
  0
LINE
  8
0
 62
     0
 10
1.04869
 20
0.407899
 30
0.0
 11
0.917773
 21
0.494714
 31
0.0
  0
LINE
  8
0
 62
     0
 10
0.917773
 20
0.494714
 30
0.0
 11
0.795129
 21
0.591178
 31
0.0
  0
LINE
  8
0
 62
     0
 10
0.795129
 20
0.591178
 30
0.0
 11
0.679372
 21
0.698666
 31
0.0
  0
LINE
  8
0
 62
     0
 10
0.679372
 20
0.698666
 30
0.0
 11
0.573264
 21
0.813043
 31
0.0
  0
LINE
  8
0
 62
     0
 10
0.573264
 20
0.813043
 30
0.0
 11
0.475424
 21
0.937066
 31
0.0
  0
LINE
  8
0
 62
     0
 10
0.475424
 20
0.937066
 30
0.0
 11
0.388606
 21
1.06798
 31
0.0
  0
LINE
  8
0
 62
     0
 10
0.388606
 20
1.06798
 30
0.0
 11
0.311437
 21
1.2044
 31
0.0
  0
LINE
  8
0
 62
     0
 10
0.311437
 20
1.2044
 30
0.0
 11
0.245291
 21
1.34772
 31
0.0
  0
LINE
  8
0
 62
     0
 10
0.245291
 20
1.34772
 30
0.0
 11
0.191547
 21
1.4938
 31
0.0
  0
LINE
  8
0
 62
     0
 10
0.191547
 20
1.4938
 30
0.0
 11
0.148828
 21
1.64538
 31
0.0
  0
LINE
  8
0
 62
     0
 10
0.148828
 20
1.64538
 30
0.0
 11
0.118511
 21
1.79972
 31
0.0
  0
LINE
  8
0
 62
     0
 10
0.118511
 20
1.79972
 30
0.0
 11
0.0992188
 21
1.95544
 31
0.0
  0
LINE
  8
0
 62
     0
 10
0.0992188
 20
1.95544
 30
0.0
 11
0.0937066
 21
2.11253
 31
0.0
  0
LINE
  8
0
 62
     0
 10
0.0937066
 20
2.11253
 30
0.0
 11
0.0937066
 21
141.938
 31
0.0
  0
LINE
  8
0
 62
     0
 10
0.0937066
 20
141.938
 30
0.0
 11
0.0992188
 21
142.095
 31
0.0
  0
LINE
  8
0
 62
     0
 10
0.0992188
 20
142.095
 30
0.0
 11
0.118511
 21
142.251
 31
0.0
  0
LINE
  8
0
 62
     0
 10
0.118511
 20
142.251
 30
0.0
 11
0.148828
 21
142.405
 31
0.0
  0
LINE
  8
0
 62
     0
 10
0.148828
 20
142.405
 30
0.0
 11
0.191547
 21
142.555
 31
0.0
  0
LINE
  8
0
 62
     0
 10
0.191547
 20
142.555
 30
0.0
 11
0.245291
 21
142.703
 31
0.0
  0
LINE
  8
0
 62
     0
 10
0.245291
 20
142.703
 30
0.0
 11
0.311437
 21
142.846
 31
0.0
  0
LINE
  8
0
 62
     0
 10
0.311437
 20
142.846
 30
0.0
 11
0.388606
 21
142.983
 31
0.0
  0
LINE
  8
0
 62
     0
 10
0.388606
 20
142.983
 30
0.0
 11
0.475424
 21
143.113
 31
0.0
  0
LINE
  8
0
 62
     0
 10
0.475424
 20
143.113
 30
0.0
 11
0.573264
 21
143.236
 31
0.0
  0
LINE
  8
0
 62
     0
 10
0.573264
 20
143.236
 30
0.0
 11
0.679372
 21
143.352
 31
0.0
  0
LINE
  8
0
 62
     0
 10
0.679372
 20
143.352
 30
0.0
 11
0.795129
 21
143.458
 31
0.0
  0
LINE
  8
0
 62
     0
 10
0.795129
 20
143.458
 30
0.0
 11
0.917773
 21
143.556
 31
0.0
  0
LINE
  8
0
 62
     0
 10
0.917773
 20
143.556
 30
0.0
 11
1.04869
 21
143.643
 31
0.0
  0
LINE
  8
0
 62
     0
 10
1.04869
 20
143.643
 30
0.0
 11
1.18511
 21
143.72
 31
0.0
  0
LINE
  8
0
 62
     0
 10
1.18511
 20
143.72
 30
0.0
 11
1.32843
 21
143.786
 31
0.0
  0
LINE
  8
0
 62
     0
 10
1.32843
 20
143.786
 30
0.0
 11
1.47588
 21
143.839
 31
0.0
  0
LINE
  8
0
 62
     0
 10
1.47588
 20
143.839
 30
0.0
 11
1.62609
 21
143.882
 31
0.0
  0
LINE
  8
0
 62
     0
 10
1.62609
 20
143.882
 30
0.0
 11
1.78043
 21
143.913
 31
0.0
  0
LINE
  8
0
 62
     0
 10
1.78043
 20
143.913
 30
0.0
 11
1.93614
 21
143.932
 31
0.0
  0
LINE
  8
0
 62
     0
 10
1.93614
 20
143.932
 30
0.0
 11
2.09324
 21
143.938
 31
0.0
  0
LINE
  8
0
 62
     0
 10
2.09324
 20
143.938
 30
0.0
 11
94.2936
 21
143.938
 31
0.0
  0
LINE
  8
0
 62
     0
 10
91.2936
 20
140.437
 30
0.0
 11
91.7582
 21
140.364
 31
0.0
  0
LINE
  8
0
 62
     0
 10
91.7582
 20
140.364
 30
0.0
 11
92.1755
 21
140.152
 31
0.0
  0
LINE
  8
0
 62
     0
 10
92.1755
 20
140.152
 30
0.0
 11
92.5079
 21
139.82
 31
0.0
  0
LINE
  8
0
 62
     0
 10
92.5079
 20
139.82
 30
0.0
 11
92.7213
 21
139.401
 31
0.0
  0
LINE
  8
0
 62
     0
 10
92.7213
 20
139.401
 30
0.0
 11
92.7943
 21
138.938
 31
0.0
  0
LINE
  8
0
 62
     0
 10
92.7943
 20
138.938
 30
0.0
 11
92.7213
 21
138.473
 31
0.0
  0
LINE
  8
0
 62
     0
 10
92.7213
 20
138.473
 30
0.0
 11
92.5079
 21
138.056
 31
0.0
  0
LINE
  8
0
 62
     0
 10
92.5079
 20
138.056
 30
0.0
 11
92.1755
 21
137.724
 31
0.0
  0
LINE
  8
0
 62
     0
 10
92.1755
 20
137.724
 30
0.0
 11
91.7582
 21
137.51
 31
0.0
  0
LINE
  8
0
 62
     0
 10
91.7582
 20
137.51
 30
0.0
 11
91.2936
 21
137.437
 31
0.0
  0
LINE
  8
0
 62
     0
 10
91.2936
 20
137.437
 30
0.0
 11
90.8293
 21
137.51
 31
0.0
  0
LINE
  8
0
 62
     0
 10
90.8293
 20
137.51
 30
0.0
 11
90.4117
 21
137.724
 31
0.0
  0
LINE
  8
0
 62
     0
 10
90.4117
 20
137.724
 30
0.0
 11
90.0797
 21
138.056
 31
0.0
  0
LINE
  8
0
 62
     0
 10
90.0797
 20
138.056
 30
0.0
 11
89.8673
 21
138.473
 31
0.0
  0
LINE
  8
0
 62
     0
 10
89.8673
 20
138.473
 30
0.0
 11
89.7943
 21
138.938
 31
0.0
  0
LINE
  8
0
 62
     0
 10
89.7943
 20
138.938
 30
0.0
 11
89.8673
 21
139.401
 31
0.0
  0
LINE
  8
0
 62
     0
 10
89.8673
 20
139.401
 30
0.0
 11
90.0797
 21
139.82
 31
0.0
  0
LINE
  8
0
 62
     0
 10
90.0797
 20
139.82
 30
0.0
 11
90.4117
 21
140.152
 31
0.0
  0
LINE
  8
0
 62
     0
 10
90.4117
 20
140.152
 30
0.0
 11
90.8293
 21
140.364
 31
0.0
  0
LINE
  8
0
 62
     0
 10
90.8293
 20
140.364
 30
0.0
 11
91.2936
 21
140.437
 31
0.0
  0
LINE
  8
0
 62
     0
 10
91.2936
 20
6.61183
 30
0.0
 11
91.7582
 21
6.53881
 31
0.0
  0
LINE
  8
0
 62
     0
 10
91.7582
 20
6.53881
 30
0.0
 11
92.1755
 21
6.32658
 31
0.0
  0
LINE
  8
0
 62
     0
 10
92.1755
 20
6.32658
 30
0.0
 11
92.5079
 21
5.99447
 31
0.0
  0
LINE
  8
0
 62
     0
 10
92.5079
 20
5.99447
 30
0.0
 11
92.7213
 21
5.57692
 31
0.0
  0
LINE
  8
0
 62
     0
 10
92.7213
 20
5.57692
 30
0.0
 11
92.7943
 21
5.11253
 31
0.0
  0
LINE
  8
0
 62
     0
 10
92.7943
 20
5.11253
 30
0.0
 11
92.7213
 21
4.64813
 31
0.0
  0
LINE
  8
0
 62
     0
 10
92.7213
 20
4.64813
 30
0.0
 11
92.5079
 21
4.23058
 31
0.0
  0
LINE
  8
0
 62
     0
 10
92.5079
 20
4.23058
 30
0.0
 11
92.1755
 21
3.89848
 31
0.0
  0
LINE
  8
0
 62
     0
 10
92.1755
 20
3.89848
 30
0.0
 11
91.7582
 21
3.68487
 31
0.0
  0
LINE
  8
0
 62
     0
 10
91.7582
 20
3.68487
 30
0.0
 11
91.2936
 21
3.61184
 31
0.0
  0
LINE
  8
0
 62
     0
 10
91.2936
 20
3.61184
 30
0.0
 11
90.8293
 21
3.68487
 31
0.0
  0
LINE
  8
0
 62
     0
 10
90.8293
 20
3.68487
 30
0.0
 11
90.4117
 21
3.89848
 31
0.0
  0
LINE
  8
0
 62
     0
 10
90.4117
 20
3.89848
 30
0.0
 11
90.0797
 21
4.23058
 31
0.0
  0
LINE
  8
0
 62
     0
 10
90.0797
 20
4.23058
 30
0.0
 11
89.8673
 21
4.64813
 31
0.0
  0
LINE
  8
0
 62
     0
 10
89.8673
 20
4.64813
 30
0.0
 11
89.7943
 21
5.11253
 31
0.0
  0
LINE
  8
0
 62
     0
 10
89.7943
 20
5.11253
 30
0.0
 11
89.8673
 21
5.57692
 31
0.0
  0
LINE
  8
0
 62
     0
 10
89.8673
 20
5.57692
 30
0.0
 11
90.0797
 21
5.99447
 31
0.0
  0
LINE
  8
0
 62
     0
 10
90.0797
 20
5.99447
 30
0.0
 11
90.4117
 21
6.32658
 31
0.0
  0
LINE
  8
0
 62
     0
 10
90.4117
 20
6.32658
 30
0.0
 11
90.8293
 21
6.53881
 31
0.0
  0
LINE
  8
0
 62
     0
 10
90.8293
 20
6.53881
 30
0.0
 11
91.2936
 21
6.61183
 31
0.0
  0
LINE
  8
0
 62
     0
 10
5.09323
 20
6.61183
 30
0.0
 11
5.55763
 21
6.53881
 31
0.0
  0
LINE
  8
0
 62
     0
 10
5.55763
 20
6.53881
 30
0.0
 11
5.97517
 21
6.32658
 31
0.0
  0
LINE
  8
0
 62
     0
 10
5.97517
 20
6.32658
 30
0.0
 11
6.30728
 21
5.99447
 31
0.0
  0
LINE
  8
0
 62
     0
 10
6.30728
 20
5.99447
 30
0.0
 11
6.52089
 21
5.57692
 31
0.0
  0
LINE
  8
0
 62
     0
 10
6.52089
 20
5.57692
 30
0.0
 11
6.59391
 21
5.11253
 31
0.0
  0
LINE
  8
0
 62
     0
 10
6.59391
 20
5.11253
 30
0.0
 11
6.52089
 21
4.64813
 31
0.0
  0
LINE
  8
0
 62
     0
 10
6.52089
 20
4.64813
 30
0.0
 11
6.30728
 21
4.23058
 31
0.0
  0
LINE
  8
0
 62
     0
 10
6.30728
 20
4.23058
 30
0.0
 11
5.97517
 21
3.89848
 31
0.0
  0
LINE
  8
0
 62
     0
 10
5.97517
 20
3.89848
 30
0.0
 11
5.55763
 21
3.68487
 31
0.0
  0
LINE
  8
0
 62
     0
 10
5.55763
 20
3.68487
 30
0.0
 11
5.09323
 21
3.61184
 31
0.0
  0
LINE
  8
0
 62
     0
 10
5.09323
 20
3.61184
 30
0.0
 11
4.63021
 21
3.68487
 31
0.0
  0
LINE
  8
0
 62
     0
 10
4.63021
 20
3.68487
 30
0.0
 11
4.21128
 21
3.89848
 31
0.0
  0
LINE
  8
0
 62
     0
 10
4.21128
 20
3.89848
 30
0.0
 11
3.87918
 21
4.23058
 31
0.0
  0
LINE
  8
0
 62
     0
 10
3.87918
 20
4.23058
 30
0.0
 11
3.66695
 21
4.64813
 31
0.0
  0
LINE
  8
0
 62
     0
 10
3.66695
 20
4.64813
 30
0.0
 11
3.59392
 21
5.11253
 31
0.0
  0
LINE
  8
0
 62
     0
 10
3.59392
 20
5.11253
 30
0.0
 11
3.66695
 21
5.57692
 31
0.0
  0
LINE
  8
0
 62
     0
 10
3.66695
 20
5.57692
 30
0.0
 11
3.87918
 21
5.99447
 31
0.0
  0
LINE
  8
0
 62
     0
 10
3.87918
 20
5.99447
 30
0.0
 11
4.21128
 21
6.32658
 31
0.0
  0
LINE
  8
0
 62
     0
 10
4.21128
 20
6.32658
 30
0.0
 11
4.63021
 21
6.53881
 31
0.0
  0
LINE
  8
0
 62
     0
 10
4.63021
 20
6.53881
 30
0.0
 11
5.09323
 21
6.61183
 31
0.0
  0
LINE
  8
0
 62
     0
 10
5.09323
 20
140.437
 30
0.0
 11
5.55763
 21
140.364
 31
0.0
  0
LINE
  8
0
 62
     0
 10
5.55763
 20
140.364
 30
0.0
 11
5.97517
 21
140.152
 31
0.0
  0
LINE
  8
0
 62
     0
 10
5.97517
 20
140.152
 30
0.0
 11
6.30728
 21
139.82
 31
0.0
  0
LINE
  8
0
 62
     0
 10
6.30728
 20
139.82
 30
0.0
 11
6.52089
 21
139.401
 31
0.0
  0
LINE
  8
0
 62
     0
 10
6.52089
 20
139.401
 30
0.0
 11
6.59391
 21
138.938
 31
0.0
  0
LINE
  8
0
 62
     0
 10
6.59391
 20
138.938
 30
0.0
 11
6.52089
 21
138.473
 31
0.0
  0
LINE
  8
0
 62
     0
 10
6.52089
 20
138.473
 30
0.0
 11
6.30728
 21
138.056
 31
0.0
  0
LINE
  8
0
 62
     0
 10
6.30728
 20
138.056
 30
0.0
 11
5.97517
 21
137.724
 31
0.0
  0
LINE
  8
0
 62
     0
 10
5.97517
 20
137.724
 30
0.0
 11
5.55763
 21
137.51
 31
0.0
  0
LINE
  8
0
 62
     0
 10
5.55763
 20
137.51
 30
0.0
 11
5.09323
 21
137.437
 31
0.0
  0
LINE
  8
0
 62
     0
 10
5.09323
 20
137.437
 30
0.0
 11
4.63021
 21
137.51
 31
0.0
  0
LINE
  8
0
 62
     0
 10
4.63021
 20
137.51
 30
0.0
 11
4.21128
 21
137.724
 31
0.0
  0
LINE
  8
0
 62
     0
 10
4.21128
 20
137.724
 30
0.0
 11
3.87918
 21
138.056
 31
0.0
  0
LINE
  8
0
 62
     0
 10
3.87918
 20
138.056
 30
0.0
 11
3.66695
 21
138.473
 31
0.0
  0
LINE
  8
0
 62
     0
 10
3.66695
 20
138.473
 30
0.0
 11
3.59392
 21
138.938
 31
0.0
  0
LINE
  8
0
 62
     0
 10
3.59392
 20
138.938
 30
0.0
 11
3.66695
 21
139.401
 31
0.0
  0
LINE
  8
0
 62
     0
 10
3.66695
 20
139.401
 30
0.0
 11
3.87918
 21
139.82
 31
0.0
  0
LINE
  8
0
 62
     0
 10
3.87918
 20
139.82
 30
0.0
 11
4.21128
 21
140.152
 31
0.0
  0
LINE
  8
0
 62
     0
 10
4.21128
 20
140.152
 30
0.0
 11
4.63021
 21
140.364
 31
0.0
  0
LINE
  8
0
 62
     0
 10
4.63021
 20
140.364
 30
0.0
 11
5.09323
 21
140.437
 31
0.0
  0
ENDSEC
  0
EOF
