<?xml version="1.0" encoding="UTF-8" standalone="no"?>
<svg
   xmlns:dc="http://purl.org/dc/elements/1.1/"
   xmlns:cc="http://creativecommons.org/ns#"
   xmlns:rdf="http://www.w3.org/1999/02/22-rdf-syntax-ns#"
   xmlns:svg="http://www.w3.org/2000/svg"
   xmlns="http://www.w3.org/2000/svg"
   id="svg440"
   version="1.1"
   viewBox="0.000 0.000 377.663 153.825"
   height="153.825mm"
   width="377.663mm">
  <metadata
     id="metadata446">
    <rdf:RDF>
      <cc:Work
         rdf:about="">
        <dc:format>image/svg+xml</dc:format>
        <dc:type
           rdf:resource="http://purl.org/dc/dcmitype/StillImage" />
        <dc:title></dc:title>
      </cc:Work>
    </rdf:RDF>
  </metadata>
  <defs
     id="defs444" />
  <path
     id="path5151"
     d="M 349.93861,21.752101 330.0731,21.315496 h -19.21061 l -24.01325,-0.218302 h -18.774 -19.42891 l -18.9923,-0.436605 h -28.3793 -19.4289 -18.99231 -19.4289 l -27.7244,-0.436604 H 96.27132 77.27902 58.06842 L 20.0838,20.660589"
     style="fill:none;stroke:#0000ff;stroke-width:2.64583349;stroke-linecap:butt;stroke-linejoin:miter;stroke-miterlimit:4;stroke-dasharray:none;stroke-opacity:1" />
  <path
     id="path5153"
     d="m 20.95701,50.131401 18.5557,-0.436605 19.42891,0.218303 h 19.2106 l 38.42121,0.218302 18.11909,-0.218302 h 19.86552 l 19.2106,-0.218303 18.774,0.436605 h 18.9923 l 18.9923,-0.436605 18.9923,0.218303 28.161,0.218302 33.61856,-0.436605 19.64721,-0.218302 18.9923,0.218302"
     style="fill:none;stroke:#0000ff;stroke-width:2.64583349;stroke-linecap:butt;stroke-linejoin:miter;stroke-miterlimit:4;stroke-dasharray:none;stroke-opacity:1" />
  <path
     id="path5155"
     d="m 349.0654,69.342004 -19.86551,-0.218299 -18.3374,-0.654908 -28.5976,0.218303 h -23.57665 l -19.42891,0.218302 h -19.2106 L 201.05643,68.6871 h -18.5557 L 163.29012,68.468797 143.86122,68.6871 125.52382,68.468797 105.87661,68.6871 86.88431,68.468797 67.67371,68.250495 H 48.89972 25.10477"
     style="fill:none;stroke:#0000ff;stroke-width:2.64583349;stroke-linecap:butt;stroke-linejoin:miter;stroke-miterlimit:4;stroke-dasharray:none;stroke-opacity:1" />
  <path
     id="path5157"
     d="m 22.92175,125.66401 24.88644,-0.21831 23.57665,-0.2183 70.72996,-0.2183 71.38486,0.65491 24.01325,-0.21831 h 23.79496 23.57665 l 26.19627,-0.4366 19.86551,0.2183 18.3374,-0.2183"
     style="fill:none;stroke:#0000ff;stroke-width:2.64583349;stroke-linecap:butt;stroke-linejoin:miter;stroke-miterlimit:4;stroke-dasharray:none;stroke-opacity:1" />
  <path
     id="path5159"
     d="m 330.0731,106.89 -60.25145,0.2183 -34.71006,-0.4366 -19.42891,-0.2183 -19.42891,-0.2183 -18.33739,0.4366 -19.2106,-0.2183 H 139.27687 119.62966 100.85566 82.51827 63.08936 L 32.09043,106.89"
     style="fill:none;stroke:#0000ff;stroke-width:2.64583349;stroke-linecap:butt;stroke-linejoin:miter;stroke-miterlimit:4;stroke-dasharray:none;stroke-opacity:1" />
  <path
     id="path5161"
     d="m 27.50608,88.116005 27.06949,-0.436605 18.77399,-0.218303 19.42891,-0.436604 18.99232,0.218302 18.33738,0.436605 19.64722,-0.218303 18.9923,-0.218302 19.2106,0.218302 18.11909,-0.218302 h 19.64721 l 18.9923,0.218302 31.21723,-0.218302"
     style="fill:none;stroke:#0000ff;stroke-width:2.64583349;stroke-linecap:butt;stroke-linejoin:miter;stroke-miterlimit:4;stroke-dasharray:none;stroke-opacity:1" />
  <path
     id="path5117"
     d="m 357.57919,20.660589 0.6549,27.942695 v 19.647211 l -0.2183,57.850115"
     style="fill:none;stroke:#00ff00;stroke-width:2.64583349;stroke-linecap:butt;stroke-linejoin:miter;stroke-miterlimit:4;stroke-dasharray:none;stroke-opacity:1" />
  <path
     id="path5119"
     d="m 338.80519,20.442286 -0.43661,28.815906 0.21831,18.992302 -0.43661,38.421216 v 19.6472"
     style="fill:none;stroke:#00ff00;stroke-width:2.64583349;stroke-linecap:butt;stroke-linejoin:miter;stroke-miterlimit:4;stroke-dasharray:none;stroke-opacity:1" />
  <path
     id="path5121"
     d="m 319.15798,20.223985 0.2183,29.689113 -0.6549,18.337397 0.4366,57.631815"
     style="fill:none;stroke:#00ff00;stroke-width:2.64583349;stroke-linecap:butt;stroke-linejoin:miter;stroke-miterlimit:4;stroke-dasharray:none;stroke-opacity:1" />
  <path
     id="path5123"
     d="m 296.01793,20.005682 -10.0419,29.034207 4.58435,19.428908 -6.98568,18.337393 10.04191,39.07612"
     style="fill:none;stroke:#00ff00;stroke-width:2.64583349;stroke-linecap:butt;stroke-linejoin:miter;stroke-miterlimit:4;stroke-dasharray:none;stroke-opacity:1" />
  <path
     id="path5125"
     d="m 277.24394,20.005682 -19.64721,29.470812 9.8236,18.119093 10.69681,39.076113"
     style="fill:none;stroke:#00ff00;stroke-width:2.64583349;stroke-linecap:butt;stroke-linejoin:miter;stroke-miterlimit:4;stroke-dasharray:none;stroke-opacity:1" />
  <path
     id="path5127"
     d="m 257.59672,20.223985 -19.4289,28.597602 9.82361,18.774001 5.02095,19.647206 17.02758,39.076116"
     style="fill:none;stroke:#00ff00;stroke-width:2.64583349;stroke-linecap:butt;stroke-linejoin:miter;stroke-miterlimit:4;stroke-dasharray:none;stroke-opacity:1" />
  <path
     id="path5129"
     d="m 238.38612,20.223985 -19.4289,29.470811 10.04191,18.555698 4.36604,19.210603 9.82361,18.992303 2.61962,18.9923"
     style="fill:none;stroke:#00ff00;stroke-width:2.64583349;stroke-linecap:butt;stroke-linejoin:miter;stroke-miterlimit:4;stroke-dasharray:none;stroke-opacity:1" />
  <path
     id="path5131"
     d="m 209.57021,20.005682 -10.0419,28.815904 9.8236,19.210605 4.80266,19.210604 9.8236,18.992305 -2.18302,18.9923"
     style="fill:none;stroke:#00ff00;stroke-width:2.64583349;stroke-linecap:butt;stroke-linejoin:miter;stroke-miterlimit:4;stroke-dasharray:none;stroke-opacity:1" />
  <path
     id="path5133"
     d="m 191.01452,20.223985 -10.26021,29.034207 10.04191,18.773999 4.80265,19.428906 9.16869,19.210603"
     style="fill:none;stroke:#00ff00;stroke-width:2.64583349;stroke-linecap:butt;stroke-linejoin:miter;stroke-miterlimit:4;stroke-dasharray:none;stroke-opacity:1" />
  <path
     id="path5135"
     d="m 171.58562,20.660589 -9.82361,29.034207 10.04191,18.555698 4.58434,19.210602 9.6053,19.210604"
     style="fill:none;stroke:#00ff00;stroke-width:2.64583349;stroke-linecap:butt;stroke-linejoin:miter;stroke-miterlimit:4;stroke-dasharray:none;stroke-opacity:1" />
  <path
     id="path5137"
     d="m 152.59332,20.223985 -9.60531,29.034207 9.82361,19.210604 5.23926,18.773998 9.387,19.428916"
     style="fill:none;stroke:#00ff00;stroke-width:2.64583349;stroke-linecap:butt;stroke-linejoin:miter;stroke-miterlimit:4;stroke-dasharray:none;stroke-opacity:1" />
  <path
     id="path5139"
     d="m 123.99571,19.787379 0.2183,29.470812 9.1687,18.992303 5.23926,19.210602 9.8236,18.774004 2.61962,19.4289"
     style="fill:none;stroke:#00ff00;stroke-width:2.64583349;stroke-linecap:butt;stroke-linejoin:miter;stroke-miterlimit:4;stroke-dasharray:none;stroke-opacity:1" />
  <path
     id="path5141"
     d="m 104.34851,20.660589 0.21829,29.034208 10.04191,18.774 4.80266,18.992299 9.38699,19.647204"
     style="fill:none;stroke:#00ff00;stroke-width:2.64583349;stroke-linecap:butt;stroke-linejoin:miter;stroke-miterlimit:4;stroke-dasharray:none;stroke-opacity:1" />
  <path
     id="path5143"
     d="m 85.35621,20.660589 -0.2183,29.034207 9.82359,18.992303 5.23925,18.9923 9.16869,19.428911"
     style="fill:none;stroke:#00ff00;stroke-width:2.64583349;stroke-linecap:butt;stroke-linejoin:miter;stroke-miterlimit:4;stroke-dasharray:none;stroke-opacity:1" />
  <path
     id="path5145"
     d="m 66.80052,20.660589 -0.43661,28.815905 10.2602,18.992302 4.14774,19.210603 9.60529,19.210611 -12.00661,18.77399"
     style="fill:none;stroke:#00ff00;stroke-width:2.64583349;stroke-linecap:butt;stroke-linejoin:miter;stroke-miterlimit:4;stroke-dasharray:none;stroke-opacity:1" />
  <path
     id="path5147"
     d="M 46.935,48.603284 56.97691,68.032192 61.77957,87.242794 71.16655,106.89 54.57556,125.8823"
     style="fill:none;stroke:#00ff00;stroke-width:2.64583349;stroke-linecap:butt;stroke-linejoin:miter;stroke-miterlimit:4;stroke-dasharray:none;stroke-opacity:1" />
  <path
     id="path5149"
     d="m 27.94268,20.878891 -0.21829,29.470812 5.02094,19.64721 2.83795,18.773997 3.92943,19.21061 -9.16868,18.55569"
     style="fill:none;stroke:#00ff00;stroke-width:2.64583349;stroke-linecap:butt;stroke-linejoin:miter;stroke-miterlimit:4;stroke-dasharray:none;stroke-opacity:1" />
  <polygon
     id="polygon248"
     style="fill:none;stroke:#000000;stroke-width:0.2"
     points="371.838,5.382 371.961,5.479 372.077,5.586 372.183,5.701 372.281,5.824 372.368,5.955 372.445,6.092 372.51,6.235 372.565,6.382 372.607,6.533 372.638,6.687 372.656,6.843 372.663,7 372.663,146.825 372.656,146.982 372.638,147.138 372.607,147.292 372.565,147.443 372.51,147.59 372.445,147.733 372.368,147.87 372.281,148.001 372.183,148.124 372.077,148.239 371.961,148.346 371.838,148.443 371.707,148.53 371.57,148.607 371.428,148.673 371.281,148.727 371.129,148.77 370.975,148.8 370.819,148.819 370.662,148.825 7,148.825 6.843,148.819 6.687,148.8 6.533,148.77 6.382,148.727 6.235,148.673 6.092,148.607 5.955,148.53 5.824,148.443 5.701,148.346 5.586,148.239 5.479,148.124 5.382,148.001 5.295,147.87 5.218,147.733 5.152,147.59 5.098,147.443 5.055,147.292 5.025,147.138 5.006,146.982 5,146.825 5,7 5.006,6.843 5.025,6.687 5.055,6.533 5.098,6.382 5.152,6.235 5.218,6.092 5.295,5.955 5.382,5.824 5.479,5.701 5.586,5.586 5.701,5.479 5.824,5.382 5.955,5.295 6.092,5.218 6.235,5.152 6.382,5.098 6.533,5.055 6.687,5.025 6.843,5.006 7,5 370.663,5 370.819,5.006 370.975,5.025 371.129,5.055 371.281,5.098 371.428,5.152 371.57,5.218 371.707,5.295 " />
  <polygon
     id="polygon250"
     style="fill:none;stroke:#000000;stroke-width:0.2"
     points="130.647,10.464 130.434,10.882 130.103,11.214 129.684,11.427 129.221,11.5 128.757,11.427 128.339,11.214 128.007,10.882 127.794,10.464 127.721,10 127.794,9.536 128.007,9.118 128.339,8.786 128.757,8.573 129.221,8.5 129.684,8.573 130.103,8.786 130.434,9.118 130.647,9.536 130.721,10 " />
  <polygon
     id="polygon252"
     style="fill:none;stroke:#000000;stroke-width:0.2"
     points="249.868,10.464 249.655,10.882 249.323,11.214 248.905,11.427 248.442,11.5 247.978,11.427 247.56,11.214 247.228,10.882 247.015,10.464 246.942,10 247.015,9.536 247.228,9.118 247.56,8.786 247.978,8.573 248.442,8.5 248.905,8.573 249.323,8.786 249.655,9.118 249.868,9.536 249.942,10 " />
  <polygon
     id="polygon254"
     style="fill:none;stroke:#000000;stroke-width:0.2"
     points="369.089,10.464 368.876,10.882 368.544,11.214 368.126,11.427 367.663,11.5 367.199,11.427 366.781,11.214 366.449,10.882 366.236,10.464 366.163,10 366.236,9.536 366.449,9.118 366.781,8.786 367.199,8.573 367.663,8.5 368.126,8.573 368.544,8.786 368.876,9.118 369.089,9.536 369.163,10 " />
  <polygon
     id="polygon256"
     style="fill:none;stroke:#000000;stroke-width:0.2"
     points="369.089,144.289 368.876,144.707 368.544,145.039 368.126,145.252 367.663,145.325 367.199,145.252 366.781,145.039 366.449,144.707 366.236,144.289 366.163,143.825 366.236,143.361 366.449,142.943 366.781,142.611 367.199,142.398 367.663,142.325 368.126,142.398 368.544,142.611 368.876,142.943 369.089,143.361 369.163,143.825 " />
  <polygon
     id="polygon258"
     style="fill:none;stroke:#000000;stroke-width:0.2"
     points="249.868,144.289 249.655,144.707 249.323,145.039 248.905,145.252 248.442,145.325 247.978,145.252 247.56,145.039 247.228,144.707 247.015,144.289 246.942,143.825 247.015,143.361 247.228,142.943 247.56,142.611 247.978,142.398 248.442,142.325 248.905,142.398 249.323,142.611 249.655,142.943 249.868,143.361 249.942,143.825 " />
  <polygon
     id="polygon260"
     style="fill:none;stroke:#000000;stroke-width:0.2"
     points="130.647,144.289 130.434,144.707 130.103,145.039 129.684,145.252 129.221,145.325 128.757,145.252 128.339,145.039 128.007,144.707 127.794,144.289 127.721,143.825 127.794,143.361 128.007,142.943 128.339,142.611 128.757,142.398 129.221,142.325 129.684,142.398 130.103,142.611 130.434,142.943 130.647,143.361 130.721,143.825 " />
  <polygon
     id="polygon262"
     style="fill:none;stroke:#000000;stroke-width:0.2"
     points="11.427,144.289 11.214,144.707 10.882,145.039 10.464,145.252 10,145.325 9.536,145.252 9.118,145.039 8.786,144.707 8.573,144.289 8.5,143.825 8.573,143.361 8.786,142.943 9.118,142.611 9.536,142.398 10,142.325 10.464,142.398 10.882,142.611 11.214,142.943 11.427,143.361 11.5,143.825 " />
  <polygon
     id="polygon264"
     style="fill:none;stroke:#000000;stroke-width:0.2"
     points="11.427,10.464 11.214,10.882 10.882,11.214 10.464,11.427 10,11.5 9.536,11.427 9.118,11.214 8.786,10.882 8.573,10.464 8.5,10 8.573,9.536 8.786,9.118 9.118,8.786 9.536,8.573 10,8.5 10.464,8.573 10.882,8.786 11.214,9.118 11.427,9.536 11.5,10 " />
  <polygon
     id="polygon266"
     style="fill:none;stroke:#000000;stroke-width:0.2"
     points="17.525,18.125 17.525,17.525 31.525,17.525 31.525,18.125 32.325,18.125 32.325,30.925 31.525,30.925 31.525,31.525 17.525,31.525 17.525,30.925 16.725,30.925 16.725,18.125 " />
  <polygon
     id="polygon268"
     style="fill:none;stroke:#000000;stroke-width:0.2"
     points="17.525,46.7 17.525,46.1 31.525,46.1 31.525,46.7 32.325,46.7 32.325,59.5 31.525,59.5 31.525,60.1 17.525,60.1 17.525,59.5 16.725,59.5 16.725,46.7 " />
  <polygon
     id="polygon270"
     style="fill:none;stroke:#000000;stroke-width:0.2"
     points="19.906,122.9 19.906,122.3 33.906,122.3 33.906,122.9 34.706,122.9 34.706,135.7 33.906,135.7 33.906,136.3 19.906,136.3 19.906,135.7 19.106,135.7 19.106,122.9 " />
  <polygon
     id="polygon272"
     style="fill:none;stroke:#000000;stroke-width:0.2"
     points="22.288,65.75 22.288,65.15 36.288,65.15 36.288,65.75 37.087,65.75 37.087,78.55 36.288,78.55 36.288,79.15 22.288,79.15 22.288,78.55 21.488,78.55 21.488,65.75 " />
  <polygon
     id="polygon274"
     style="fill:none;stroke:#000000;stroke-width:0.2"
     points="24.669,84.8 24.669,84.2 38.669,84.2 38.669,84.8 39.469,84.8 39.469,97.6 38.669,97.6 38.669,98.2 24.669,98.2 24.669,97.6 23.869,97.6 23.869,84.8 " />
  <polygon
     id="polygon276"
     style="fill:none;stroke:#000000;stroke-width:0.2"
     points="36.575,46.7 36.575,46.1 50.575,46.1 50.575,46.7 51.375,46.7 51.375,59.5 50.575,59.5 50.575,60.1 36.575,60.1 36.575,59.5 35.775,59.5 35.775,46.7 " />
  <polygon
     id="polygon278"
     style="fill:none;stroke:#000000;stroke-width:0.2"
     points="45.006,117.02 45.006,116.22 44.231,116.22 44.231,116.65 43.431,116.65 43.431,117.25 29.431,117.25 29.431,116.65 28.631,116.65 28.631,116.22 27.856,116.22 27.856,117.02 26.131,117.02 26.131,118 22.831,118 22.831,117.02 21.206,117.02 21.206,110.75 20.331,110.75 20.331,107.95 21.206,107.95 21.206,104.72 22.831,104.72 22.831,103.8 26.131,103.8 26.131,104.72 27.856,104.72 27.856,105.52 28.631,105.52 28.631,103.85 29.431,103.85 29.431,103.25 43.431,103.25 43.431,103.85 44.231,103.85 44.231,105.52 45.006,105.52 45.006,104.72 46.731,104.72 46.731,103.8 50.031,103.8 50.031,104.72 51.656,104.72 51.656,107.95 52.531,107.95 52.531,110.75 51.656,110.75 51.656,117.02 50.031,117.02 50.031,118 46.731,118 46.731,117.02 " />
  <polygon
     id="polygon280"
     style="fill:none;stroke:#000000;stroke-width:0.2"
     points="43.719,122.9 43.719,122.3 57.719,122.3 57.719,122.9 58.519,122.9 58.519,135.7 57.719,135.7 57.719,136.3 43.719,136.3 43.719,135.7 42.919,135.7 42.919,122.9 " />
  <polygon
     id="polygon282"
     style="fill:none;stroke:#000000;stroke-width:0.2"
     points="46.1,65.75 46.1,65.15 60.1,65.15 60.1,65.75 60.9,65.75 60.9,78.55 60.1,78.55 60.1,79.15 46.1,79.15 46.1,78.55 45.3,78.55 45.3,65.75 " />
  <polygon
     id="polygon284"
     style="fill:none;stroke:#000000;stroke-width:0.2"
     points="50.862,84.8 50.862,84.2 64.862,84.2 64.862,84.8 65.662,84.8 65.662,97.6 64.862,97.6 64.862,98.2 50.862,98.2 50.862,97.6 50.062,97.6 50.062,84.8 " />
  <polygon
     id="polygon286"
     style="fill:none;stroke:#000000;stroke-width:0.2"
     points="55.625,18.125 55.625,17.525 69.625,17.525 69.625,18.125 70.425,18.125 70.425,30.925 69.625,30.925 69.625,31.525 55.625,31.525 55.625,30.925 54.825,30.925 54.825,18.125 " />
  <polygon
     id="polygon288"
     style="fill:none;stroke:#000000;stroke-width:0.2"
     points="55.625,46.7 55.625,46.1 69.625,46.1 69.625,46.7 70.425,46.7 70.425,59.5 69.625,59.5 69.625,60.1 55.625,60.1 55.625,59.5 54.825,59.5 54.825,46.7 " />
  <polygon
     id="polygon290"
     style="fill:none;stroke:#000000;stroke-width:0.2"
     points="60.388,103.85 60.388,103.25 74.388,103.25 74.388,103.85 75.188,103.85 75.188,116.65 74.388,116.65 74.388,117.25 60.388,117.25 60.388,116.65 59.588,116.65 59.588,103.85 " />
  <polygon
     id="polygon292"
     style="fill:none;stroke:#000000;stroke-width:0.2"
     points="65.15,65.75 65.15,65.15 79.15,65.15 79.15,65.75 79.95,65.75 79.95,78.55 79.15,78.55 79.15,79.15 65.15,79.15 65.15,78.55 64.35,78.55 64.35,65.75 " />
  <polygon
     id="polygon294"
     style="fill:none;stroke:#000000;stroke-width:0.2"
     points="67.531,122.9 67.531,122.3 81.531,122.3 81.531,122.9 82.331,122.9 82.331,135.7 81.531,135.7 81.531,136.3 67.531,136.3 67.531,135.7 66.731,135.7 66.731,122.9 " />
  <polygon
     id="polygon296"
     style="fill:none;stroke:#000000;stroke-width:0.2"
     points="69.912,84.8 69.912,84.2 83.912,84.2 83.912,84.8 84.712,84.8 84.712,97.6 83.912,97.6 83.912,98.2 69.912,98.2 69.912,97.6 69.112,97.6 69.112,84.8 " />
  <polygon
     id="polygon298"
     style="fill:none;stroke:#000000;stroke-width:0.2"
     points="74.675,18.125 74.675,17.525 88.675,17.525 88.675,18.125 89.475,18.125 89.475,30.925 88.675,30.925 88.675,31.525 74.675,31.525 74.675,30.925 73.875,30.925 73.875,18.125 " />
  <polygon
     id="polygon300"
     style="fill:none;stroke:#000000;stroke-width:0.2"
     points="74.675,46.7 74.675,46.1 88.675,46.1 88.675,46.7 89.475,46.7 89.475,59.5 88.675,59.5 88.675,60.1 74.675,60.1 74.675,59.5 73.875,59.5 73.875,46.7 " />
  <polygon
     id="polygon302"
     style="fill:none;stroke:#000000;stroke-width:0.2"
     points="79.438,103.85 79.438,103.25 93.438,103.25 93.438,103.85 94.238,103.85 94.238,116.65 93.438,116.65 93.438,117.25 79.438,117.25 79.438,116.65 78.638,116.65 78.638,103.85 " />
  <polygon
     id="polygon304"
     style="fill:none;stroke:#000000;stroke-width:0.2"
     points="84.2,65.75 84.2,65.15 98.2,65.15 98.2,65.75 99,65.75 99,78.55 98.2,78.55 98.2,79.15 84.2,79.15 84.2,78.55 83.4,78.55 83.4,65.75 " />
  <polygon
     id="polygon306"
     style="fill:none;stroke:#000000;stroke-width:0.2"
     points="88.962,84.8 88.962,84.2 102.962,84.2 102.962,84.8 103.762,84.8 103.762,97.6 102.962,97.6 102.962,98.2 88.962,98.2 88.962,97.6 88.162,97.6 88.162,84.8 " />
  <polygon
     id="polygon308"
     style="fill:none;stroke:#000000;stroke-width:0.2"
     points="93.725,18.125 93.725,17.525 107.725,17.525 107.725,18.125 108.525,18.125 108.525,30.925 107.725,30.925 107.725,31.525 93.725,31.525 93.725,30.925 92.925,30.925 92.925,18.125 " />
  <polygon
     id="polygon310"
     style="fill:none;stroke:#000000;stroke-width:0.2"
     points="93.725,46.7 93.725,46.1 107.725,46.1 107.725,46.7 108.525,46.7 108.525,59.5 107.725,59.5 107.725,60.1 93.725,60.1 93.725,59.5 92.925,59.5 92.925,46.7 " />
  <polygon
     id="polygon312"
     style="fill:none;stroke:#000000;stroke-width:0.2"
     points="98.488,103.85 98.488,103.25 112.488,103.25 112.488,103.85 113.288,103.85 113.288,116.65 112.488,116.65 112.488,117.25 98.488,117.25 98.488,116.65 97.688,116.65 97.688,103.85 " />
  <polygon
     id="polygon314"
     style="fill:none;stroke:#000000;stroke-width:0.2"
     points="103.25,65.75 103.25,65.15 117.25,65.15 117.25,65.75 118.05,65.75 118.05,78.55 117.25,78.55 117.25,79.15 103.25,79.15 103.25,78.55 102.45,78.55 102.45,65.75 " />
  <polygon
     id="polygon316"
     style="fill:none;stroke:#000000;stroke-width:0.2"
     points="108.012,84.8 108.012,84.2 122.012,84.2 122.012,84.8 122.812,84.8 122.812,97.6 122.012,97.6 122.012,98.2 108.012,98.2 108.012,97.6 107.212,97.6 107.212,84.8 " />
  <polygon
     id="polygon318"
     style="fill:none;stroke:#000000;stroke-width:0.2"
     points="112.775,18.125 112.775,17.525 126.775,17.525 126.775,18.125 127.575,18.125 127.575,30.925 126.775,30.925 126.775,31.525 112.775,31.525 112.775,30.925 111.975,30.925 111.975,18.125 " />
  <polygon
     id="polygon320"
     style="fill:none;stroke:#000000;stroke-width:0.2"
     points="112.775,46.7 112.775,46.1 126.775,46.1 126.775,46.7 127.575,46.7 127.575,59.5 126.775,59.5 126.775,60.1 112.775,60.1 112.775,59.5 111.975,59.5 111.975,46.7 " />
  <polygon
     id="polygon322"
     style="fill:none;stroke:#000000;stroke-width:0.2"
     points="117.538,103.85 117.538,103.25 131.538,103.25 131.538,103.85 132.338,103.85 132.338,116.65 131.538,116.65 131.538,117.25 117.538,117.25 117.538,116.65 116.738,116.65 116.738,103.85 " />
  <polygon
     id="polygon324"
     style="fill:none;stroke:#000000;stroke-width:0.2"
     points="122.3,65.75 122.3,65.15 136.3,65.15 136.3,65.75 137.1,65.75 137.1,78.55 136.3,78.55 136.3,79.15 122.3,79.15 122.3,78.55 121.5,78.55 121.5,65.75 " />
  <polygon
     id="polygon326"
     style="fill:none;stroke:#000000;stroke-width:0.2"
     points="127.062,84.8 127.062,84.2 141.062,84.2 141.062,84.8 141.863,84.8 141.863,97.6 141.062,97.6 141.062,98.2 127.062,98.2 127.062,97.6 126.263,97.6 126.263,84.8 " />
  <polygon
     id="polygon328"
     style="fill:none;stroke:#000000;stroke-width:0.2"
     points="131.825,46.7 131.825,46.1 145.825,46.1 145.825,46.7 146.625,46.7 146.625,59.5 145.825,59.5 145.825,60.1 131.825,60.1 131.825,59.5 131.025,59.5 131.025,46.7 " />
  <polygon
     id="polygon330"
     style="fill:none;stroke:#000000;stroke-width:0.2"
     points="136.588,103.85 136.588,103.25 150.588,103.25 150.588,103.85 151.388,103.85 151.388,116.65 150.588,116.65 150.588,117.25 136.588,117.25 136.588,116.65 135.787,116.65 135.787,103.85 " />
  <polygon
     id="polygon332"
     style="fill:none;stroke:#000000;stroke-width:0.2"
     points="141.35,18.125 141.35,17.525 155.35,17.525 155.35,18.125 156.15,18.125 156.15,30.925 155.35,30.925 155.35,31.525 141.35,31.525 141.35,30.925 140.55,30.925 140.55,18.125 " />
  <polygon
     id="polygon334"
     style="fill:none;stroke:#000000;stroke-width:0.2"
     points="141.35,65.75 141.35,65.15 155.35,65.15 155.35,65.75 156.15,65.75 156.15,78.55 155.35,78.55 155.35,79.15 141.35,79.15 141.35,78.55 140.55,78.55 140.55,65.75 " />
  <polygon
     id="polygon336"
     style="fill:none;stroke:#000000;stroke-width:0.2"
     points="146.113,84.8 146.113,84.2 160.113,84.2 160.113,84.8 160.913,84.8 160.913,97.6 160.113,97.6 160.113,98.2 146.113,98.2 146.113,97.6 145.312,97.6 145.312,84.8 " />
  <polygon
     id="polygon338"
     style="fill:none;stroke:#000000;stroke-width:0.2"
     points="150.875,46.7 150.875,46.1 164.875,46.1 164.875,46.7 165.675,46.7 165.675,59.5 164.875,59.5 164.875,60.1 150.875,60.1 150.875,59.5 150.075,59.5 150.075,46.7 " />
  <polygon
     id="polygon340"
     style="fill:none;stroke:#000000;stroke-width:0.2"
     points="155.638,103.85 155.638,103.25 169.638,103.25 169.638,103.85 170.438,103.85 170.438,116.65 169.638,116.65 169.638,117.25 155.638,117.25 155.638,116.65 154.838,116.65 154.838,103.85 " />
  <polygon
     id="polygon342"
     style="fill:none;stroke:#000000;stroke-width:0.2"
     points="160.4,18.125 160.4,17.525 174.4,17.525 174.4,18.125 175.2,18.125 175.2,30.925 174.4,30.925 174.4,31.525 160.4,31.525 160.4,30.925 159.6,30.925 159.6,18.125 " />
  <polygon
     id="polygon344"
     style="fill:none;stroke:#000000;stroke-width:0.2"
     points="160.4,65.75 160.4,65.15 174.4,65.15 174.4,65.75 175.2,65.75 175.2,78.55 174.4,78.55 174.4,79.15 160.4,79.15 160.4,78.55 159.6,78.55 159.6,65.75 " />
  <polygon
     id="polygon346"
     style="fill:none;stroke:#000000;stroke-width:0.2"
     points="165.163,84.8 165.163,84.2 179.163,84.2 179.163,84.8 179.963,84.8 179.963,97.6 179.163,97.6 179.163,98.2 165.163,98.2 165.163,97.6 164.363,97.6 164.363,84.8 " />
  <polygon
     id="polygon348"
     style="fill:none;stroke:#000000;stroke-width:0.2"
     points="169.925,46.7 169.925,46.1 183.925,46.1 183.925,46.7 184.725,46.7 184.725,59.5 183.925,59.5 183.925,60.1 169.925,60.1 169.925,59.5 169.125,59.5 169.125,46.7 " />
  <polygon
     id="polygon350"
     style="fill:none;stroke:#000000;stroke-width:0.2"
     points="174.688,103.85 174.688,103.25 188.688,103.25 188.688,103.85 189.488,103.85 189.488,116.65 188.688,116.65 188.688,117.25 174.688,117.25 174.688,116.65 173.888,116.65 173.888,103.85 " />
  <polygon
     id="polygon352"
     style="fill:none;stroke:#000000;stroke-width:0.2"
     points="179.45,18.125 179.45,17.525 193.45,17.525 193.45,18.125 194.25,18.125 194.25,30.925 193.45,30.925 193.45,31.525 179.45,31.525 179.45,30.925 178.65,30.925 178.65,18.125 " />
  <polygon
     id="polygon354"
     style="fill:none;stroke:#000000;stroke-width:0.2"
     points="179.45,65.75 179.45,65.15 193.45,65.15 193.45,65.75 194.25,65.75 194.25,78.55 193.45,78.55 193.45,79.15 179.45,79.15 179.45,78.55 178.65,78.55 178.65,65.75 " />
  <polygon
     id="polygon356"
     style="fill:none;stroke:#000000;stroke-width:0.2"
     points="184.213,84.8 184.213,84.2 198.213,84.2 198.213,84.8 199.013,84.8 199.013,97.6 198.213,97.6 198.213,98.2 184.213,98.2 184.213,97.6 183.413,97.6 183.413,84.8 " />
  <polygon
     id="polygon358"
     style="fill:none;stroke:#000000;stroke-width:0.2"
     points="192.644,136.07 192.644,131.6 153.769,131.6 153.769,135.7 152.969,135.7 152.969,136.3 138.969,136.3 138.969,135.7 138.169,135.7 138.169,131.6 99.294,131.6 99.294,136.07 97.619,136.07 97.619,137.05 94.319,137.05 94.319,136.07 92.644,136.07 92.644,129.8 91.769,129.8 91.769,127 92.644,127 92.644,123.77 94.319,123.77 94.319,122.85 97.619,122.85 97.619,123.77 99.294,123.77 99.294,127 138.169,127 138.169,122.9 138.969,122.9 138.969,122.3 152.969,122.3 152.969,122.9 153.769,122.9 153.769,127 192.644,127 192.644,123.77 194.319,123.77 194.319,122.85 197.619,122.85 197.619,123.77 199.294,123.77 199.294,127 200.169,127 200.169,129.8 199.294,129.8 199.294,136.07 197.619,136.07 197.619,137.05 194.319,137.05 194.319,136.07 " />
  <polygon
     id="polygon360"
     style="fill:none;stroke:#000000;stroke-width:0.2"
     points="188.975,46.7 188.975,46.1 202.975,46.1 202.975,46.7 203.775,46.7 203.775,59.5 202.975,59.5 202.975,60.1 188.975,60.1 188.975,59.5 188.175,59.5 188.175,46.7 " />
  <polygon
     id="polygon362"
     style="fill:none;stroke:#000000;stroke-width:0.2"
     points="193.738,103.85 193.738,103.25 207.738,103.25 207.738,103.85 208.538,103.85 208.538,116.65 207.738,116.65 207.738,117.25 193.738,117.25 193.738,116.65 192.938,116.65 192.938,103.85 " />
  <polygon
     id="polygon364"
     style="fill:none;stroke:#000000;stroke-width:0.2"
     points="198.5,18.125 198.5,17.525 212.5,17.525 212.5,18.125 213.3,18.125 213.3,30.925 212.5,30.925 212.5,31.525 198.5,31.525 198.5,30.925 197.7,30.925 197.7,18.125 " />
  <polygon
     id="polygon366"
     style="fill:none;stroke:#000000;stroke-width:0.2"
     points="198.5,65.75 198.5,65.15 212.5,65.15 212.5,65.75 213.3,65.75 213.3,78.55 212.5,78.55 212.5,79.15 198.5,79.15 198.5,78.55 197.7,78.55 197.7,65.75 " />
  <polygon
     id="polygon368"
     style="fill:none;stroke:#000000;stroke-width:0.2"
     points="203.263,84.8 203.263,84.2 217.263,84.2 217.263,84.8 218.063,84.8 218.063,97.6 217.263,97.6 217.263,98.2 203.263,98.2 203.263,97.6 202.463,97.6 202.463,84.8 " />
  <polygon
     id="polygon370"
     style="fill:none;stroke:#000000;stroke-width:0.2"
     points="208.025,46.7 208.025,46.1 222.025,46.1 222.025,46.7 222.825,46.7 222.825,59.5 222.025,59.5 222.025,60.1 208.025,60.1 208.025,59.5 207.225,59.5 207.225,46.7 " />
  <polygon
     id="polygon372"
     style="fill:none;stroke:#000000;stroke-width:0.2"
     points="210.406,122.9 210.406,122.3 224.406,122.3 224.406,122.9 225.206,122.9 225.206,135.7 224.406,135.7 224.406,136.3 210.406,136.3 210.406,135.7 209.606,135.7 209.606,122.9 " />
  <polygon
     id="polygon374"
     style="fill:none;stroke:#000000;stroke-width:0.2"
     points="212.788,103.85 212.788,103.25 226.788,103.25 226.788,103.85 227.588,103.85 227.588,116.65 226.788,116.65 226.788,117.25 212.788,117.25 212.788,116.65 211.988,116.65 211.988,103.85 " />
  <polygon
     id="polygon376"
     style="fill:none;stroke:#000000;stroke-width:0.2"
     points="217.55,65.75 217.55,65.15 231.55,65.15 231.55,65.75 232.35,65.75 232.35,78.55 231.55,78.55 231.55,79.15 217.55,79.15 217.55,78.55 216.75,78.55 216.75,65.75 " />
  <polygon
     id="polygon378"
     style="fill:none;stroke:#000000;stroke-width:0.2"
     points="222.313,84.8 222.313,84.2 236.313,84.2 236.313,84.8 237.113,84.8 237.113,97.6 236.313,97.6 236.313,98.2 222.313,98.2 222.313,97.6 221.513,97.6 221.513,84.8 " />
  <polygon
     id="polygon380"
     style="fill:none;stroke:#000000;stroke-width:0.2"
     points="227.075,18.125 227.075,17.525 241.075,17.525 241.075,18.125 241.875,18.125 241.875,30.925 241.075,30.925 241.075,31.525 227.075,31.525 227.075,30.925 226.275,30.925 226.275,18.125 " />
  <polygon
     id="polygon382"
     style="fill:none;stroke:#000000;stroke-width:0.2"
     points="227.075,46.7 227.075,46.1 241.075,46.1 241.075,46.7 241.875,46.7 241.875,59.5 241.075,59.5 241.075,60.1 227.075,60.1 227.075,59.5 226.275,59.5 226.275,46.7 " />
  <polygon
     id="polygon384"
     style="fill:none;stroke:#000000;stroke-width:0.2"
     points="231.838,103.85 231.838,103.25 245.838,103.25 245.838,103.85 246.638,103.85 246.638,116.65 245.838,116.65 245.838,117.25 231.838,117.25 231.838,116.65 231.038,116.65 231.038,103.85 " />
  <polygon
     id="polygon386"
     style="fill:none;stroke:#000000;stroke-width:0.2"
     points="234.219,122.9 234.219,122.3 248.219,122.3 248.219,122.9 249.019,122.9 249.019,135.7 248.219,135.7 248.219,136.3 234.219,136.3 234.219,135.7 233.419,135.7 233.419,122.9 " />
  <polygon
     id="polygon388"
     style="fill:none;stroke:#000000;stroke-width:0.2"
     points="236.6,65.75 236.6,65.15 250.6,65.15 250.6,65.75 251.4,65.75 251.4,78.55 250.6,78.55 250.6,79.15 236.6,79.15 236.6,78.55 235.8,78.55 235.8,65.75 " />
  <polygon
     id="polygon390"
     style="fill:none;stroke:#000000;stroke-width:0.2"
     points="241.363,84.8 241.363,84.2 255.363,84.2 255.363,84.8 256.163,84.8 256.163,97.6 255.363,97.6 255.363,98.2 241.363,98.2 241.363,97.6 240.563,97.6 240.563,84.8 " />
  <polygon
     id="polygon392"
     style="fill:none;stroke:#000000;stroke-width:0.2"
     points="246.125,18.125 246.125,17.525 260.125,17.525 260.125,18.125 260.925,18.125 260.925,30.925 260.125,30.925 260.125,31.525 246.125,31.525 246.125,30.925 245.325,30.925 245.325,18.125 " />
  <polygon
     id="polygon394"
     style="fill:none;stroke:#000000;stroke-width:0.2"
     points="246.125,46.7 246.125,46.1 260.125,46.1 260.125,46.7 260.925,46.7 260.925,59.5 260.125,59.5 260.125,60.1 246.125,60.1 246.125,59.5 245.325,59.5 245.325,46.7 " />
  <polygon
     id="polygon396"
     style="fill:none;stroke:#000000;stroke-width:0.2"
     points="255.65,65.75 255.65,65.15 269.65,65.15 269.65,65.75 270.45,65.75 270.45,78.55 269.65,78.55 269.65,79.15 255.65,79.15 255.65,78.55 254.85,78.55 254.85,65.75 " />
  <polygon
     id="polygon398"
     style="fill:none;stroke:#000000;stroke-width:0.2"
     points="258.031,122.9 258.031,122.3 272.031,122.3 272.031,122.9 272.831,122.9 272.831,135.7 272.031,135.7 272.031,136.3 258.031,136.3 258.031,135.7 257.231,135.7 257.231,122.9 " />
  <polygon
     id="polygon400"
     style="fill:none;stroke:#000000;stroke-width:0.2"
     points="265.175,18.125 265.175,17.525 279.175,17.525 279.175,18.125 279.975,18.125 279.975,30.925 279.175,30.925 279.175,31.525 265.175,31.525 265.175,30.925 264.375,30.925 264.375,18.125 " />
  <polygon
     id="polygon402"
     style="fill:none;stroke:#000000;stroke-width:0.2"
     points="283.131,117.02 283.131,116.22 282.356,116.22 282.356,116.65 281.556,116.65 281.556,117.25 267.556,117.25 267.556,116.65 266.756,116.65 266.756,116.22 265.981,116.22 265.981,117.02 264.256,117.02 264.256,118 260.956,118 260.956,117.02 259.331,117.02 259.331,110.75 258.456,110.75 258.456,107.95 259.331,107.95 259.331,104.72 260.956,104.72 260.956,103.8 264.256,103.8 264.256,104.72 265.981,104.72 265.981,105.52 266.756,105.52 266.756,103.85 267.556,103.85 267.556,103.25 281.556,103.25 281.556,103.85 282.356,103.85 282.356,105.52 283.131,105.52 283.131,104.72 284.856,104.72 284.856,103.8 288.156,103.8 288.156,104.72 289.781,104.72 289.781,107.95 290.656,107.95 290.656,110.75 289.781,110.75 289.781,117.02 288.156,117.02 288.156,118 284.856,118 284.856,117.02 " />
  <polygon
     id="polygon404"
     style="fill:none;stroke:#000000;stroke-width:0.2"
     points="279.463,65.75 279.463,65.15 293.463,65.15 293.463,65.75 294.263,65.75 294.263,78.55 293.463,78.55 293.463,79.15 279.463,79.15 279.463,78.55 278.663,78.55 278.663,65.75 " />
  <polygon
     id="polygon406"
     style="fill:none;stroke:#000000;stroke-width:0.2"
     points="287.894,97.97 287.894,97.17 287.119,97.17 287.119,97.6 286.319,97.6 286.319,98.2 272.319,98.2 272.319,97.6 271.519,97.6 271.519,97.17 270.744,97.17 270.744,97.97 269.019,97.97 269.019,98.95 265.719,98.95 265.719,97.97 264.094,97.97 264.094,91.7 263.219,91.7 263.219,88.9 264.094,88.9 264.094,85.67 265.719,85.67 265.719,84.75 269.019,84.75 269.019,85.67 270.744,85.67 270.744,86.47 271.519,86.47 271.519,84.8 272.319,84.8 272.319,84.2 286.319,84.2 286.319,84.8 287.119,84.8 287.119,86.47 287.894,86.47 287.894,85.67 289.619,85.67 289.619,84.75 292.919,84.75 292.919,85.67 294.544,85.67 294.544,88.9 295.419,88.9 295.419,91.7 294.544,91.7 294.544,97.97 292.919,97.97 292.919,98.95 289.619,98.95 289.619,97.97 " />
  <polygon
     id="polygon408"
     style="fill:none;stroke:#000000;stroke-width:0.2"
     points="281.844,122.9 281.844,122.3 295.844,122.3 295.844,122.9 296.644,122.9 296.644,135.7 295.844,135.7 295.844,136.3 281.844,136.3 281.844,135.7 281.044,135.7 281.044,122.9 " />
  <polygon
     id="polygon410"
     style="fill:none;stroke:#000000;stroke-width:0.2"
     points="290.275,59.87 290.275,59.07 289.5,59.07 289.5,59.5 288.7,59.5 288.7,60.1 274.7,60.1 274.7,59.5 273.9,59.5 273.9,59.07 273.125,59.07 273.125,59.87 271.4,59.87 271.4,60.85 268.1,60.85 268.1,59.87 266.475,59.87 266.475,53.6 265.6,53.6 265.6,50.8 266.475,50.8 266.475,47.57 268.1,47.57 268.1,46.65 271.4,46.65 271.4,47.57 273.125,47.57 273.125,48.37 273.9,48.37 273.9,46.7 274.7,46.7 274.7,46.1 288.7,46.1 288.7,46.7 289.5,46.7 289.5,48.37 290.275,48.37 290.275,47.57 292,47.57 292,46.65 295.3,46.65 295.3,47.57 296.925,47.57 296.925,50.8 297.8,50.8 297.8,53.6 296.925,53.6 296.925,59.87 295.3,59.87 295.3,60.85 292,60.85 292,59.87 " />
  <polygon
     id="polygon412"
     style="fill:none;stroke:#000000;stroke-width:0.2"
     points="284.225,18.125 284.225,17.525 298.225,17.525 298.225,18.125 299.025,18.125 299.025,30.925 298.225,30.925 298.225,31.525 284.225,31.525 284.225,30.925 283.425,30.925 283.425,18.125 " />
  <polygon
     id="polygon414"
     style="fill:none;stroke:#000000;stroke-width:0.2"
     points="308.038,46.7 308.038,46.1 322.038,46.1 322.038,46.7 322.838,46.7 322.838,59.5 322.038,59.5 322.038,60.1 308.038,60.1 308.038,59.5 307.238,59.5 307.238,46.7 " />
  <polygon
     id="polygon416"
     style="fill:none;stroke:#000000;stroke-width:0.2"
     points="308.038,122.9 308.038,122.3 322.038,122.3 322.038,122.9 322.838,122.9 322.838,135.7 322.038,135.7 322.038,136.3 308.038,136.3 308.038,135.7 307.238,135.7 307.238,122.9 " />
  <polygon
     id="polygon418"
     style="fill:none;stroke:#000000;stroke-width:0.2"
     points="308.038,18.125 308.038,17.525 322.038,17.525 322.038,18.125 322.838,18.125 322.838,30.925 322.038,30.925 322.038,31.525 308.038,31.525 308.038,30.925 307.238,30.925 307.238,18.125 " />
  <polygon
     id="polygon420"
     style="fill:none;stroke:#000000;stroke-width:0.2"
     points="308.038,65.75 308.038,65.15 322.038,65.15 322.038,65.75 322.838,65.75 322.838,78.55 322.038,78.55 322.038,79.15 308.038,79.15 308.038,78.55 307.238,78.55 307.238,65.75 " />
  <polygon
     id="polygon422"
     style="fill:none;stroke:#000000;stroke-width:0.2"
     points="327.088,46.7 327.088,46.1 341.088,46.1 341.088,46.7 341.888,46.7 341.888,59.5 341.088,59.5 341.088,60.1 327.088,60.1 327.088,59.5 326.288,59.5 326.288,46.7 " />
  <polygon
     id="polygon424"
     style="fill:none;stroke:#000000;stroke-width:0.2"
     points="327.088,122.9 327.088,122.3 341.088,122.3 341.088,122.9 341.888,122.9 341.888,135.7 341.088,135.7 341.088,136.3 327.088,136.3 327.088,135.7 326.288,135.7 326.288,122.9 " />
  <polygon
     id="polygon426"
     style="fill:none;stroke:#000000;stroke-width:0.2"
     points="327.088,18.125 327.088,17.525 341.088,17.525 341.088,18.125 341.888,18.125 341.888,30.925 341.088,30.925 341.088,31.525 327.088,31.525 327.088,30.925 326.288,30.925 326.288,18.125 " />
  <polygon
     id="polygon428"
     style="fill:none;stroke:#000000;stroke-width:0.2"
     points="327.088,65.75 327.088,65.15 341.088,65.15 341.088,65.75 341.888,65.75 341.888,78.55 341.088,78.55 341.088,79.15 327.088,79.15 327.088,78.55 326.288,78.55 326.288,65.75 " />
  <polygon
     id="polygon430"
     style="fill:none;stroke:#000000;stroke-width:0.2"
     points="327.088,103.85 327.088,103.25 341.088,103.25 341.088,103.85 341.888,103.85 341.888,116.65 341.088,116.65 341.088,117.25 327.088,117.25 327.088,116.65 326.288,116.65 326.288,103.85 " />
  <polygon
     id="polygon432"
     style="fill:none;stroke:#000000;stroke-width:0.2"
     points="346.138,46.7 346.138,46.1 360.138,46.1 360.138,46.7 360.938,46.7 360.938,59.5 360.138,59.5 360.138,60.1 346.138,60.1 346.138,59.5 345.338,59.5 345.338,46.7 " />
  <polygon
     id="polygon434"
     style="fill:none;stroke:#000000;stroke-width:0.2"
     points="346.138,122.9 346.138,122.3 360.138,122.3 360.138,122.9 360.938,122.9 360.938,135.7 360.138,135.7 360.138,136.3 346.138,136.3 346.138,135.7 345.338,135.7 345.338,122.9 " />
  <polygon
     id="polygon436"
     style="fill:none;stroke:#000000;stroke-width:0.2"
     points="346.138,18.125 346.138,17.525 360.138,17.525 360.138,18.125 360.938,18.125 360.938,30.925 360.138,30.925 360.138,31.525 346.138,31.525 346.138,30.925 345.338,30.925 345.338,18.125 " />
  <polygon
     id="polygon438"
     style="fill:none;stroke:#000000;stroke-width:0.2"
     points="346.138,65.75 346.138,65.15 360.138,65.15 360.138,65.75 360.938,65.75 360.938,78.55 360.138,78.55 360.138,79.15 346.138,79.15 346.138,78.55 345.338,78.55 345.338,65.75 " />
</svg>
