  0
SECTION
  2
HEADER
  9
$ACADVER
  1
AC1009
  9
$EXTMIN
 10
0.0
 20
0.0
 30
0.0
  9
$EXTMAX
 10
1000.0
 20
1000.0
 30
0.0
  9
$FILLMODE
 70
 0
  9
$SPLFRAME
 70
 1
  0
ENDSEC
  0
SECTION
  2
TABLES
  0
TABLE
  2
LAYER
 70
1
  0
LAYER
  2
0
 70
     0
 62
     7
  6
CONTINUOUS
  0
ENDTAB
  0
ENDSEC
  0
SECTION
  2
ENTITIES
  0
LINE
  8
0
 62
     0
 10
335.944
 20
33.1556
 30
0.0
 11
336.101
 21
33.1515
 31
0.0
  0
LINE
  8
0
 62
     0
 10
336.101
 20
33.1515
 30
0.0
 11
336.257
 21
33.1308
 31
0.0
  0
LINE
  8
0
 62
     0
 10
336.257
 20
33.1308
 30
0.0
 11
336.411
 21
33.1005
 31
0.0
  0
LINE
  8
0
 62
     0
 10
336.411
 20
33.1005
 30
0.0
 11
336.562
 21
33.0577
 31
0.0
  0
LINE
  8
0
 62
     0
 10
336.562
 20
33.0577
 30
0.0
 11
336.708
 21
33.0054
 31
0.0
  0
LINE
  8
0
 62
     0
 10
336.708
 20
33.0054
 30
0.0
 11
336.852
 21
32.9379
 31
0.0
  0
LINE
  8
0
 62
     0
 10
336.852
 20
32.9379
 30
0.0
 11
336.988
 21
32.8607
 31
0.0
  0
LINE
  8
0
 62
     0
 10
336.988
 20
32.8607
 30
0.0
 11
337.119
 21
32.7739
 31
0.0
  0
LINE
  8
0
 62
     0
 10
337.119
 20
32.7739
 30
0.0
 11
337.243
 21
32.676
 31
0.0
  0
LINE
  8
0
 62
     0
 10
337.243
 20
32.676
 30
0.0
 11
337.358
 21
32.5699
 31
0.0
  0
LINE
  8
0
 62
     0
 10
337.358
 20
32.5699
 30
0.0
 11
337.465
 21
32.4542
 31
0.0
  0
LINE
  8
0
 62
     0
 10
337.465
 20
32.4542
 30
0.0
 11
337.561
 21
32.3315
 31
0.0
  0
LINE
  8
0
 62
     0
 10
337.561
 20
32.3315
 30
0.0
 11
337.648
 21
32.2006
 31
0.0
  0
LINE
  8
0
 62
     0
 10
337.648
 20
32.2006
 30
0.0
 11
337.725
 21
32.0656
 31
0.0
  0
LINE
  8
0
 62
     0
 10
337.725
 20
32.0656
 30
0.0
 11
337.792
 21
31.9209
 31
0.0
  0
LINE
  8
0
 62
     0
 10
337.792
 20
31.9209
 30
0.0
 11
337.845
 21
31.7734
 31
0.0
  0
LINE
  8
0
 62
     0
 10
337.845
 20
31.7734
 30
0.0
 11
337.888
 21
31.6246
 31
0.0
  0
LINE
  8
0
 62
     0
 10
337.888
 20
31.6246
 30
0.0
 11
337.918
 21
31.4689
 31
0.0
  0
LINE
  8
0
 62
     0
 10
337.918
 20
31.4689
 30
0.0
 11
337.938
 21
31.3145
 31
0.0
  0
LINE
  8
0
 62
     0
 10
337.938
 20
31.3145
 30
0.0
 11
337.943
 21
31.1561
 31
0.0
  0
LINE
  8
0
 62
     0
 10
337.943
 20
31.1561
 30
0.0
 11
337.943
 21
2.10702
 31
0.0
  0
LINE
  8
0
 62
     0
 10
337.943
 20
2.10702
 30
0.0
 11
337.938
 21
1.94855
 31
0.0
  0
LINE
  8
0
 62
     0
 10
337.938
 20
1.94855
 30
0.0
 11
337.918
 21
1.79283
 31
0.0
  0
LINE
  8
0
 62
     0
 10
337.918
 20
1.79283
 30
0.0
 11
337.888
 21
1.63987
 31
0.0
  0
LINE
  8
0
 62
     0
 10
337.888
 20
1.63987
 30
0.0
 11
337.845
 21
1.48828
 31
0.0
  0
LINE
  8
0
 62
     0
 10
337.845
 20
1.48828
 30
0.0
 11
337.792
 21
1.34221
 31
0.0
  0
LINE
  8
0
 62
     0
 10
337.792
 20
1.34221
 30
0.0
 11
337.725
 21
1.19889
 31
0.0
  0
LINE
  8
0
 62
     0
 10
337.725
 20
1.19889
 30
0.0
 11
337.648
 21
1.06247
 31
0.0
  0
LINE
  8
0
 62
     0
 10
337.648
 20
1.06247
 30
0.0
 11
337.561
 21
0.931556
 31
0.0
  0
LINE
  8
0
 62
     0
 10
337.561
 20
0.931556
 30
0.0
 11
337.465
 21
0.806154
 31
0.0
  0
LINE
  8
0
 62
     0
 10
337.465
 20
0.806154
 30
0.0
 11
337.358
 21
0.693152
 31
0.0
  0
LINE
  8
0
 62
     0
 10
337.358
 20
0.693152
 30
0.0
 11
337.243
 21
0.584288
 31
0.0
  0
LINE
  8
0
 62
     0
 10
337.243
 20
0.584288
 30
0.0
 11
337.119
 21
0.489204
 31
0.0
  0
LINE
  8
0
 62
     0
 10
337.119
 20
0.489204
 30
0.0
 11
336.988
 21
0.402389
 31
0.0
  0
LINE
  8
0
 62
     0
 10
336.988
 20
0.402389
 30
0.0
 11
336.852
 21
0.323839
 31
0.0
  0
LINE
  8
0
 62
     0
 10
336.852
 20
0.323839
 30
0.0
 11
336.708
 21
0.257693
 31
0.0
  0
LINE
  8
0
 62
     0
 10
336.708
 20
0.257693
 30
0.0
 11
336.562
 21
0.20395
 31
0.0
  0
LINE
  8
0
 62
     0
 10
336.562
 20
0.20395
 30
0.0
 11
336.411
 21
0.16123
 31
0.0
  0
LINE
  8
0
 62
     0
 10
336.411
 20
0.16123
 30
0.0
 11
336.257
 21
0.130914
 31
0.0
  0
LINE
  8
0
 62
     0
 10
336.257
 20
0.130914
 30
0.0
 11
336.101
 21
0.111621
 31
0.0
  0
LINE
  8
0
 62
     0
 10
336.101
 20
0.111621
 30
0.0
 11
335.944
 21
0.107487
 31
0.0
  0
LINE
  8
0
 62
     0
 10
335.944
 20
0.107487
 30
0.0
 11
2.09324
 21
0.107487
 31
0.0
  0
LINE
  8
0
 62
     0
 10
2.09324
 20
0.107487
 30
0.0
 11
1.93614
 21
0.111621
 31
0.0
  0
LINE
  8
0
 62
     0
 10
1.93614
 20
0.111621
 30
0.0
 11
1.78043
 21
0.130914
 31
0.0
  0
LINE
  8
0
 62
     0
 10
1.78043
 20
0.130914
 30
0.0
 11
1.62609
 21
0.16123
 31
0.0
  0
LINE
  8
0
 62
     0
 10
1.62609
 20
0.16123
 30
0.0
 11
1.47588
 21
0.20395
 31
0.0
  0
LINE
  8
0
 62
     0
 10
1.47588
 20
0.20395
 30
0.0
 11
1.32843
 21
0.257693
 31
0.0
  0
LINE
  8
0
 62
     0
 10
1.32843
 20
0.257693
 30
0.0
 11
1.18511
 21
0.323839
 31
0.0
  0
LINE
  8
0
 62
     0
 10
1.18511
 20
0.323839
 30
0.0
 11
1.04869
 21
0.402389
 31
0.0
  0
LINE
  8
0
 62
     0
 10
1.04869
 20
0.402389
 30
0.0
 11
0.917773
 21
0.489204
 31
0.0
  0
LINE
  8
0
 62
     0
 10
0.917773
 20
0.489204
 30
0.0
 11
0.795129
 21
0.584288
 31
0.0
  0
LINE
  8
0
 62
     0
 10
0.795129
 20
0.584288
 30
0.0
 11
0.679372
 21
0.693152
 31
0.0
  0
LINE
  8
0
 62
     0
 10
0.679372
 20
0.693152
 30
0.0
 11
0.573264
 21
0.806154
 31
0.0
  0
LINE
  8
0
 62
     0
 10
0.573264
 20
0.806154
 30
0.0
 11
0.475424
 21
0.931556
 31
0.0
  0
LINE
  8
0
 62
     0
 10
0.475424
 20
0.931556
 30
0.0
 11
0.388606
 21
1.06247
 31
0.0
  0
LINE
  8
0
 62
     0
 10
0.388606
 20
1.06247
 30
0.0
 11
0.311437
 21
1.19889
 31
0.0
  0
LINE
  8
0
 62
     0
 10
0.311437
 20
1.19889
 30
0.0
 11
0.245291
 21
1.34221
 31
0.0
  0
LINE
  8
0
 62
     0
 10
0.245291
 20
1.34221
 30
0.0
 11
0.191547
 21
1.48828
 31
0.0
  0
LINE
  8
0
 62
     0
 10
0.191547
 20
1.48828
 30
0.0
 11
0.148828
 21
1.63987
 31
0.0
  0
LINE
  8
0
 62
     0
 10
0.148828
 20
1.63987
 30
0.0
 11
0.118511
 21
1.79283
 31
0.0
  0
LINE
  8
0
 62
     0
 10
0.118511
 20
1.79283
 30
0.0
 11
0.0992188
 21
1.94855
 31
0.0
  0
LINE
  8
0
 62
     0
 10
0.0992188
 20
1.94855
 30
0.0
 11
0.0937066
 21
2.10702
 31
0.0
  0
LINE
  8
0
 62
     0
 10
0.0937066
 20
2.10702
 30
0.0
 11
0.0937066
 21
31.1561
 31
0.0
  0
LINE
  8
0
 62
     0
 10
0.0937066
 20
31.1561
 30
0.0
 11
0.0992188
 21
31.3145
 31
0.0
  0
LINE
  8
0
 62
     0
 10
0.0992188
 20
31.3145
 30
0.0
 11
0.118511
 21
31.4689
 31
0.0
  0
LINE
  8
0
 62
     0
 10
0.118511
 20
31.4689
 30
0.0
 11
0.148828
 21
31.6246
 31
0.0
  0
LINE
  8
0
 62
     0
 10
0.148828
 20
31.6246
 30
0.0
 11
0.191547
 21
31.7734
 31
0.0
  0
LINE
  8
0
 62
     0
 10
0.191547
 20
31.7734
 30
0.0
 11
0.245291
 21
31.9209
 31
0.0
  0
LINE
  8
0
 62
     0
 10
0.245291
 20
31.9209
 30
0.0
 11
0.311437
 21
32.0656
 31
0.0
  0
LINE
  8
0
 62
     0
 10
0.311437
 20
32.0656
 30
0.0
 11
0.388606
 21
32.2006
 31
0.0
  0
LINE
  8
0
 62
     0
 10
0.388606
 20
32.2006
 30
0.0
 11
0.475424
 21
32.3315
 31
0.0
  0
LINE
  8
0
 62
     0
 10
0.475424
 20
32.3315
 30
0.0
 11
0.573264
 21
32.4542
 31
0.0
  0
LINE
  8
0
 62
     0
 10
0.573264
 20
32.4542
 30
0.0
 11
0.679372
 21
32.5699
 31
0.0
  0
LINE
  8
0
 62
     0
 10
0.679372
 20
32.5699
 30
0.0
 11
0.795129
 21
32.676
 31
0.0
  0
LINE
  8
0
 62
     0
 10
0.795129
 20
32.676
 30
0.0
 11
0.917773
 21
32.7739
 31
0.0
  0
LINE
  8
0
 62
     0
 10
0.917773
 20
32.7739
 30
0.0
 11
1.04869
 21
32.8607
 31
0.0
  0
LINE
  8
0
 62
     0
 10
1.04869
 20
32.8607
 30
0.0
 11
1.18511
 21
32.9379
 31
0.0
  0
LINE
  8
0
 62
     0
 10
1.18511
 20
32.9379
 30
0.0
 11
1.32843
 21
33.0054
 31
0.0
  0
LINE
  8
0
 62
     0
 10
1.32843
 20
33.0054
 30
0.0
 11
1.47588
 21
33.0577
 31
0.0
  0
LINE
  8
0
 62
     0
 10
1.47588
 20
33.0577
 30
0.0
 11
1.62609
 21
33.1005
 31
0.0
  0
LINE
  8
0
 62
     0
 10
1.62609
 20
33.1005
 30
0.0
 11
1.78043
 21
33.1308
 31
0.0
  0
LINE
  8
0
 62
     0
 10
1.78043
 20
33.1308
 30
0.0
 11
1.93614
 21
33.1515
 31
0.0
  0
LINE
  8
0
 62
     0
 10
1.93614
 20
33.1515
 30
0.0
 11
2.09324
 21
33.1556
 31
0.0
  0
LINE
  8
0
 62
     0
 10
2.09324
 20
33.1556
 30
0.0
 11
335.944
 21
33.1556
 31
0.0
  0
LINE
  8
0
 62
     0
 10
7.09415
 20
26.1565
 30
0.0
 11
330.944
 21
26.1565
 31
0.0
  0
LINE
  8
0
 62
     0
 10
330.944
 20
26.1565
 30
0.0
 11
330.944
 21
7.10653
 31
0.0
  0
LINE
  8
0
 62
     0
 10
330.944
 20
7.10653
 30
0.0
 11
7.09415
 21
7.10653
 31
0.0
  0
LINE
  8
0
 62
     0
 10
7.09415
 20
7.10653
 30
0.0
 11
7.09415
 21
26.1565
 31
0.0
  0
LINE
  8
0
 62
     0
 10
113.877
 20
31.6549
 30
0.0
 11
114.494
 21
31.5571
 31
0.0
  0
LINE
  8
0
 62
     0
 10
114.494
 20
31.5571
 30
0.0
 11
115.052
 21
31.2732
 31
0.0
  0
LINE
  8
0
 62
     0
 10
115.052
 20
31.2732
 30
0.0
 11
115.495
 21
30.8322
 31
0.0
  0
LINE
  8
0
 62
     0
 10
115.495
 20
30.8322
 30
0.0
 11
115.778
 21
30.2741
 31
0.0
  0
LINE
  8
0
 62
     0
 10
115.778
 20
30.2741
 30
0.0
 11
115.877
 21
29.6554
 31
0.0
  0
LINE
  8
0
 62
     0
 10
115.877
 20
29.6554
 30
0.0
 11
115.778
 21
29.038
 31
0.0
  0
LINE
  8
0
 62
     0
 10
115.778
 20
29.038
 30
0.0
 11
115.495
 21
28.4799
 31
0.0
  0
LINE
  8
0
 62
     0
 10
115.495
 20
28.4799
 30
0.0
 11
115.052
 21
28.039
 31
0.0
  0
LINE
  8
0
 62
     0
 10
115.052
 20
28.039
 30
0.0
 11
114.494
 21
27.7551
 31
0.0
  0
LINE
  8
0
 62
     0
 10
114.494
 20
27.7551
 30
0.0
 11
113.877
 21
27.6572
 31
0.0
  0
LINE
  8
0
 62
     0
 10
113.877
 20
27.6572
 30
0.0
 11
113.258
 21
27.7551
 31
0.0
  0
LINE
  8
0
 62
     0
 10
113.258
 20
27.7551
 30
0.0
 11
112.702
 21
28.039
 31
0.0
  0
LINE
  8
0
 62
     0
 10
112.702
 20
28.039
 30
0.0
 11
112.259
 21
28.4799
 31
0.0
  0
LINE
  8
0
 62
     0
 10
112.259
 20
28.4799
 30
0.0
 11
111.975
 21
29.038
 31
0.0
  0
LINE
  8
0
 62
     0
 10
111.975
 20
29.038
 30
0.0
 11
111.877
 21
29.6554
 31
0.0
  0
LINE
  8
0
 62
     0
 10
111.877
 20
29.6554
 30
0.0
 11
111.975
 21
30.2741
 31
0.0
  0
LINE
  8
0
 62
     0
 10
111.975
 20
30.2741
 30
0.0
 11
112.259
 21
30.8322
 31
0.0
  0
LINE
  8
0
 62
     0
 10
112.259
 20
30.8322
 30
0.0
 11
112.702
 21
31.2732
 31
0.0
  0
LINE
  8
0
 62
     0
 10
112.702
 20
31.2732
 30
0.0
 11
113.258
 21
31.5571
 31
0.0
  0
LINE
  8
0
 62
     0
 10
113.258
 20
31.5571
 30
0.0
 11
113.877
 21
31.6549
 31
0.0
  0
LINE
  8
0
 62
     0
 10
224.161
 20
31.6549
 30
0.0
 11
224.779
 21
31.5571
 31
0.0
  0
LINE
  8
0
 62
     0
 10
224.779
 20
31.5571
 30
0.0
 11
225.335
 21
31.2732
 31
0.0
  0
LINE
  8
0
 62
     0
 10
225.335
 20
31.2732
 30
0.0
 11
225.779
 21
30.8322
 31
0.0
  0
LINE
  8
0
 62
     0
 10
225.779
 20
30.8322
 30
0.0
 11
226.063
 21
30.2741
 31
0.0
  0
LINE
  8
0
 62
     0
 10
226.063
 20
30.2741
 30
0.0
 11
226.161
 21
29.6554
 31
0.0
  0
LINE
  8
0
 62
     0
 10
226.161
 20
29.6554
 30
0.0
 11
226.063
 21
29.038
 31
0.0
  0
LINE
  8
0
 62
     0
 10
226.063
 20
29.038
 30
0.0
 11
225.779
 21
28.4799
 31
0.0
  0
LINE
  8
0
 62
     0
 10
225.779
 20
28.4799
 30
0.0
 11
225.335
 21
28.039
 31
0.0
  0
LINE
  8
0
 62
     0
 10
225.335
 20
28.039
 30
0.0
 11
224.779
 21
27.7551
 31
0.0
  0
LINE
  8
0
 62
     0
 10
224.779
 20
27.7551
 30
0.0
 11
224.161
 21
27.6572
 31
0.0
  0
LINE
  8
0
 62
     0
 10
224.161
 20
27.6572
 30
0.0
 11
223.543
 21
27.7551
 31
0.0
  0
LINE
  8
0
 62
     0
 10
223.543
 20
27.7551
 30
0.0
 11
222.984
 21
28.039
 31
0.0
  0
LINE
  8
0
 62
     0
 10
222.984
 20
28.039
 30
0.0
 11
222.542
 21
28.4799
 31
0.0
  0
LINE
  8
0
 62
     0
 10
222.542
 20
28.4799
 30
0.0
 11
222.258
 21
29.038
 31
0.0
  0
LINE
  8
0
 62
     0
 10
222.258
 20
29.038
 30
0.0
 11
222.16
 21
29.6554
 31
0.0
  0
LINE
  8
0
 62
     0
 10
222.16
 20
29.6554
 30
0.0
 11
222.258
 21
30.2741
 31
0.0
  0
LINE
  8
0
 62
     0
 10
222.258
 20
30.2741
 30
0.0
 11
222.542
 21
30.8322
 31
0.0
  0
LINE
  8
0
 62
     0
 10
222.542
 20
30.8322
 30
0.0
 11
222.984
 21
31.2732
 31
0.0
  0
LINE
  8
0
 62
     0
 10
222.984
 20
31.2732
 30
0.0
 11
223.543
 21
31.5571
 31
0.0
  0
LINE
  8
0
 62
     0
 10
223.543
 20
31.5571
 30
0.0
 11
224.161
 21
31.6549
 31
0.0
  0
LINE
  8
0
 62
     0
 10
334.444
 20
31.6549
 30
0.0
 11
335.062
 21
31.5571
 31
0.0
  0
LINE
  8
0
 62
     0
 10
335.062
 20
31.5571
 30
0.0
 11
335.62
 21
31.2732
 31
0.0
  0
LINE
  8
0
 62
     0
 10
335.62
 20
31.2732
 30
0.0
 11
336.062
 21
30.8322
 31
0.0
  0
LINE
  8
0
 62
     0
 10
336.062
 20
30.8322
 30
0.0
 11
336.346
 21
30.2741
 31
0.0
  0
LINE
  8
0
 62
     0
 10
336.346
 20
30.2741
 30
0.0
 11
336.444
 21
29.6554
 31
0.0
  0
LINE
  8
0
 62
     0
 10
336.444
 20
29.6554
 30
0.0
 11
336.346
 21
29.038
 31
0.0
  0
LINE
  8
0
 62
     0
 10
336.346
 20
29.038
 30
0.0
 11
336.062
 21
28.4799
 31
0.0
  0
LINE
  8
0
 62
     0
 10
336.062
 20
28.4799
 30
0.0
 11
335.62
 21
28.039
 31
0.0
  0
LINE
  8
0
 62
     0
 10
335.62
 20
28.039
 30
0.0
 11
335.062
 21
27.7551
 31
0.0
  0
LINE
  8
0
 62
     0
 10
335.062
 20
27.7551
 30
0.0
 11
334.444
 21
27.6572
 31
0.0
  0
LINE
  8
0
 62
     0
 10
334.444
 20
27.6572
 30
0.0
 11
333.825
 21
27.7551
 31
0.0
  0
LINE
  8
0
 62
     0
 10
333.825
 20
27.7551
 30
0.0
 11
333.267
 21
28.039
 31
0.0
  0
LINE
  8
0
 62
     0
 10
333.267
 20
28.039
 30
0.0
 11
332.825
 21
28.4799
 31
0.0
  0
LINE
  8
0
 62
     0
 10
332.825
 20
28.4799
 30
0.0
 11
332.541
 21
29.038
 31
0.0
  0
LINE
  8
0
 62
     0
 10
332.541
 20
29.038
 30
0.0
 11
332.443
 21
29.6554
 31
0.0
  0
LINE
  8
0
 62
     0
 10
332.443
 20
29.6554
 30
0.0
 11
332.541
 21
30.2741
 31
0.0
  0
LINE
  8
0
 62
     0
 10
332.541
 20
30.2741
 30
0.0
 11
332.825
 21
30.8322
 31
0.0
  0
LINE
  8
0
 62
     0
 10
332.825
 20
30.8322
 30
0.0
 11
333.267
 21
31.2732
 31
0.0
  0
LINE
  8
0
 62
     0
 10
333.267
 20
31.2732
 30
0.0
 11
333.825
 21
31.5571
 31
0.0
  0
LINE
  8
0
 62
     0
 10
333.825
 20
31.5571
 30
0.0
 11
334.444
 21
31.6549
 31
0.0
  0
LINE
  8
0
 62
     0
 10
334.444
 20
5.60723
 30
0.0
 11
335.062
 21
5.50803
 31
0.0
  0
LINE
  8
0
 62
     0
 10
335.062
 20
5.50803
 30
0.0
 11
335.62
 21
5.22552
 31
0.0
  0
LINE
  8
0
 62
     0
 10
335.62
 20
5.22552
 30
0.0
 11
336.062
 21
4.78317
 31
0.0
  0
LINE
  8
0
 62
     0
 10
336.062
 20
4.78317
 30
0.0
 11
336.346
 21
4.22508
 31
0.0
  0
LINE
  8
0
 62
     0
 10
336.346
 20
4.22508
 30
0.0
 11
336.444
 21
3.60634
 31
0.0
  0
LINE
  8
0
 62
     0
 10
336.444
 20
3.60634
 30
0.0
 11
336.346
 21
2.98897
 31
0.0
  0
LINE
  8
0
 62
     0
 10
336.346
 20
2.98897
 30
0.0
 11
336.062
 21
2.43086
 31
0.0
  0
LINE
  8
0
 62
     0
 10
336.062
 20
2.43086
 30
0.0
 11
335.62
 21
1.98851
 31
0.0
  0
LINE
  8
0
 62
     0
 10
335.62
 20
1.98851
 30
0.0
 11
335.062
 21
1.70326
 31
0.0
  0
LINE
  8
0
 62
     0
 10
335.062
 20
1.70326
 30
0.0
 11
334.444
 21
1.60679
 31
0.0
  0
LINE
  8
0
 62
     0
 10
334.444
 20
1.60679
 30
0.0
 11
333.825
 21
1.70326
 31
0.0
  0
LINE
  8
0
 62
     0
 10
333.825
 20
1.70326
 30
0.0
 11
333.267
 21
1.98851
 31
0.0
  0
LINE
  8
0
 62
     0
 10
333.267
 20
1.98851
 30
0.0
 11
332.825
 21
2.43086
 31
0.0
  0
LINE
  8
0
 62
     0
 10
332.825
 20
2.43086
 30
0.0
 11
332.541
 21
2.98897
 31
0.0
  0
LINE
  8
0
 62
     0
 10
332.541
 20
2.98897
 30
0.0
 11
332.443
 21
3.60634
 31
0.0
  0
LINE
  8
0
 62
     0
 10
332.443
 20
3.60634
 30
0.0
 11
332.541
 21
4.22508
 31
0.0
  0
LINE
  8
0
 62
     0
 10
332.541
 20
4.22508
 30
0.0
 11
332.825
 21
4.78317
 31
0.0
  0
LINE
  8
0
 62
     0
 10
332.825
 20
4.78317
 30
0.0
 11
333.267
 21
5.22552
 31
0.0
  0
LINE
  8
0
 62
     0
 10
333.267
 20
5.22552
 30
0.0
 11
333.825
 21
5.50803
 31
0.0
  0
LINE
  8
0
 62
     0
 10
333.825
 20
5.50803
 30
0.0
 11
334.444
 21
5.60723
 31
0.0
  0
LINE
  8
0
 62
     0
 10
224.161
 20
5.60723
 30
0.0
 11
224.779
 21
5.50803
 31
0.0
  0
LINE
  8
0
 62
     0
 10
224.779
 20
5.50803
 30
0.0
 11
225.335
 21
5.22552
 31
0.0
  0
LINE
  8
0
 62
     0
 10
225.335
 20
5.22552
 30
0.0
 11
225.779
 21
4.78317
 31
0.0
  0
LINE
  8
0
 62
     0
 10
225.779
 20
4.78317
 30
0.0
 11
226.063
 21
4.22508
 31
0.0
  0
LINE
  8
0
 62
     0
 10
226.063
 20
4.22508
 30
0.0
 11
226.161
 21
3.60634
 31
0.0
  0
LINE
  8
0
 62
     0
 10
226.161
 20
3.60634
 30
0.0
 11
226.063
 21
2.98897
 31
0.0
  0
LINE
  8
0
 62
     0
 10
226.063
 20
2.98897
 30
0.0
 11
225.779
 21
2.43086
 31
0.0
  0
LINE
  8
0
 62
     0
 10
225.779
 20
2.43086
 30
0.0
 11
225.335
 21
1.98851
 31
0.0
  0
LINE
  8
0
 62
     0
 10
225.335
 20
1.98851
 30
0.0
 11
224.779
 21
1.70326
 31
0.0
  0
LINE
  8
0
 62
     0
 10
224.779
 20
1.70326
 30
0.0
 11
224.161
 21
1.60679
 31
0.0
  0
LINE
  8
0
 62
     0
 10
224.161
 20
1.60679
 30
0.0
 11
223.543
 21
1.70326
 31
0.0
  0
LINE
  8
0
 62
     0
 10
223.543
 20
1.70326
 30
0.0
 11
222.984
 21
1.98851
 31
0.0
  0
LINE
  8
0
 62
     0
 10
222.984
 20
1.98851
 30
0.0
 11
222.542
 21
2.43086
 31
0.0
  0
LINE
  8
0
 62
     0
 10
222.542
 20
2.43086
 30
0.0
 11
222.258
 21
2.98897
 31
0.0
  0
LINE
  8
0
 62
     0
 10
222.258
 20
2.98897
 30
0.0
 11
222.16
 21
3.60634
 31
0.0
  0
LINE
  8
0
 62
     0
 10
222.16
 20
3.60634
 30
0.0
 11
222.258
 21
4.22508
 31
0.0
  0
LINE
  8
0
 62
     0
 10
222.258
 20
4.22508
 30
0.0
 11
222.542
 21
4.78317
 31
0.0
  0
LINE
  8
0
 62
     0
 10
222.542
 20
4.78317
 30
0.0
 11
222.984
 21
5.22552
 31
0.0
  0
LINE
  8
0
 62
     0
 10
222.984
 20
5.22552
 30
0.0
 11
223.543
 21
5.50803
 31
0.0
  0
LINE
  8
0
 62
     0
 10
223.543
 20
5.50803
 30
0.0
 11
224.161
 21
5.60723
 31
0.0
  0
LINE
  8
0
 62
     0
 10
113.877
 20
5.60723
 30
0.0
 11
114.494
 21
5.50803
 31
0.0
  0
LINE
  8
0
 62
     0
 10
114.494
 20
5.50803
 30
0.0
 11
115.052
 21
5.22552
 31
0.0
  0
LINE
  8
0
 62
     0
 10
115.052
 20
5.22552
 30
0.0
 11
115.495
 21
4.78317
 31
0.0
  0
LINE
  8
0
 62
     0
 10
115.495
 20
4.78317
 30
0.0
 11
115.778
 21
4.22508
 31
0.0
  0
LINE
  8
0
 62
     0
 10
115.778
 20
4.22508
 30
0.0
 11
115.877
 21
3.60634
 31
0.0
  0
LINE
  8
0
 62
     0
 10
115.877
 20
3.60634
 30
0.0
 11
115.778
 21
2.98897
 31
0.0
  0
LINE
  8
0
 62
     0
 10
115.778
 20
2.98897
 30
0.0
 11
115.495
 21
2.43086
 31
0.0
  0
LINE
  8
0
 62
     0
 10
115.495
 20
2.43086
 30
0.0
 11
115.052
 21
1.98851
 31
0.0
  0
LINE
  8
0
 62
     0
 10
115.052
 20
1.98851
 30
0.0
 11
114.494
 21
1.70326
 31
0.0
  0
LINE
  8
0
 62
     0
 10
114.494
 20
1.70326
 30
0.0
 11
113.877
 21
1.60679
 31
0.0
  0
LINE
  8
0
 62
     0
 10
113.877
 20
1.60679
 30
0.0
 11
113.258
 21
1.70326
 31
0.0
  0
LINE
  8
0
 62
     0
 10
113.258
 20
1.70326
 30
0.0
 11
112.702
 21
1.98851
 31
0.0
  0
LINE
  8
0
 62
     0
 10
112.702
 20
1.98851
 30
0.0
 11
112.259
 21
2.43086
 31
0.0
  0
LINE
  8
0
 62
     0
 10
112.259
 20
2.43086
 30
0.0
 11
111.975
 21
2.98897
 31
0.0
  0
LINE
  8
0
 62
     0
 10
111.975
 20
2.98897
 30
0.0
 11
111.877
 21
3.60634
 31
0.0
  0
LINE
  8
0
 62
     0
 10
111.877
 20
3.60634
 30
0.0
 11
111.975
 21
4.22508
 31
0.0
  0
LINE
  8
0
 62
     0
 10
111.975
 20
4.22508
 30
0.0
 11
112.259
 21
4.78317
 31
0.0
  0
LINE
  8
0
 62
     0
 10
112.259
 20
4.78317
 30
0.0
 11
112.702
 21
5.22552
 31
0.0
  0
LINE
  8
0
 62
     0
 10
112.702
 20
5.22552
 30
0.0
 11
113.258
 21
5.50803
 31
0.0
  0
LINE
  8
0
 62
     0
 10
113.258
 20
5.50803
 30
0.0
 11
113.877
 21
5.60723
 31
0.0
  0
LINE
  8
0
 62
     0
 10
3.59392
 20
5.60723
 30
0.0
 11
4.21128
 21
5.50803
 31
0.0
  0
LINE
  8
0
 62
     0
 10
4.21128
 20
5.50803
 30
0.0
 11
4.76938
 21
5.22552
 31
0.0
  0
LINE
  8
0
 62
     0
 10
4.76938
 20
5.22552
 30
0.0
 11
5.21173
 21
4.78317
 31
0.0
  0
LINE
  8
0
 62
     0
 10
5.21173
 20
4.78317
 30
0.0
 11
5.49561
 21
4.22508
 31
0.0
  0
LINE
  8
0
 62
     0
 10
5.49561
 20
4.22508
 30
0.0
 11
5.59347
 21
3.60634
 31
0.0
  0
LINE
  8
0
 62
     0
 10
5.59347
 20
3.60634
 30
0.0
 11
5.49561
 21
2.98897
 31
0.0
  0
LINE
  8
0
 62
     0
 10
5.49561
 20
2.98897
 30
0.0
 11
5.21173
 21
2.43086
 31
0.0
  0
LINE
  8
0
 62
     0
 10
5.21173
 20
2.43086
 30
0.0
 11
4.76938
 21
1.98851
 31
0.0
  0
LINE
  8
0
 62
     0
 10
4.76938
 20
1.98851
 30
0.0
 11
4.21128
 21
1.70326
 31
0.0
  0
LINE
  8
0
 62
     0
 10
4.21128
 20
1.70326
 30
0.0
 11
3.59392
 21
1.60679
 31
0.0
  0
LINE
  8
0
 62
     0
 10
3.59392
 20
1.60679
 30
0.0
 11
2.97518
 21
1.70326
 31
0.0
  0
LINE
  8
0
 62
     0
 10
2.97518
 20
1.70326
 30
0.0
 11
2.41708
 21
1.98851
 31
0.0
  0
LINE
  8
0
 62
     0
 10
2.41708
 20
1.98851
 30
0.0
 11
1.97611
 21
2.43086
 31
0.0
  0
LINE
  8
0
 62
     0
 10
1.97611
 20
2.43086
 30
0.0
 11
1.69223
 21
2.98897
 31
0.0
  0
LINE
  8
0
 62
     0
 10
1.69223
 20
2.98897
 30
0.0
 11
1.59439
 21
3.60634
 31
0.0
  0
LINE
  8
0
 62
     0
 10
1.59439
 20
3.60634
 30
0.0
 11
1.69223
 21
4.22508
 31
0.0
  0
LINE
  8
0
 62
     0
 10
1.69223
 20
4.22508
 30
0.0
 11
1.97611
 21
4.78317
 31
0.0
  0
LINE
  8
0
 62
     0
 10
1.97611
 20
4.78317
 30
0.0
 11
2.41708
 21
5.22552
 31
0.0
  0
LINE
  8
0
 62
     0
 10
2.41708
 20
5.22552
 30
0.0
 11
2.97518
 21
5.50803
 31
0.0
  0
LINE
  8
0
 62
     0
 10
2.97518
 20
5.50803
 30
0.0
 11
3.59392
 21
5.60723
 31
0.0
  0
LINE
  8
0
 62
     0
 10
3.59392
 20
31.6549
 30
0.0
 11
4.21128
 21
31.5571
 31
0.0
  0
LINE
  8
0
 62
     0
 10
4.21128
 20
31.5571
 30
0.0
 11
4.76938
 21
31.2732
 31
0.0
  0
LINE
  8
0
 62
     0
 10
4.76938
 20
31.2732
 30
0.0
 11
5.21173
 21
30.8322
 31
0.0
  0
LINE
  8
0
 62
     0
 10
5.21173
 20
30.8322
 30
0.0
 11
5.49561
 21
30.2741
 31
0.0
  0
LINE
  8
0
 62
     0
 10
5.49561
 20
30.2741
 30
0.0
 11
5.59347
 21
29.6554
 31
0.0
  0
LINE
  8
0
 62
     0
 10
5.59347
 20
29.6554
 30
0.0
 11
5.49561
 21
29.038
 31
0.0
  0
LINE
  8
0
 62
     0
 10
5.49561
 20
29.038
 30
0.0
 11
5.21173
 21
28.4799
 31
0.0
  0
LINE
  8
0
 62
     0
 10
5.21173
 20
28.4799
 30
0.0
 11
4.76938
 21
28.039
 31
0.0
  0
LINE
  8
0
 62
     0
 10
4.76938
 20
28.039
 30
0.0
 11
4.21128
 21
27.7551
 31
0.0
  0
LINE
  8
0
 62
     0
 10
4.21128
 20
27.7551
 30
0.0
 11
3.59392
 21
27.6572
 31
0.0
  0
LINE
  8
0
 62
     0
 10
3.59392
 20
27.6572
 30
0.0
 11
2.97518
 21
27.7551
 31
0.0
  0
LINE
  8
0
 62
     0
 10
2.97518
 20
27.7551
 30
0.0
 11
2.41708
 21
28.039
 31
0.0
  0
LINE
  8
0
 62
     0
 10
2.41708
 20
28.039
 30
0.0
 11
1.97611
 21
28.4799
 31
0.0
  0
LINE
  8
0
 62
     0
 10
1.97611
 20
28.4799
 30
0.0
 11
1.69223
 21
29.038
 31
0.0
  0
LINE
  8
0
 62
     0
 10
1.69223
 20
29.038
 30
0.0
 11
1.59439
 21
29.6554
 31
0.0
  0
LINE
  8
0
 62
     0
 10
1.59439
 20
29.6554
 30
0.0
 11
1.69223
 21
30.2741
 31
0.0
  0
LINE
  8
0
 62
     0
 10
1.69223
 20
30.2741
 30
0.0
 11
1.97611
 21
30.8322
 31
0.0
  0
LINE
  8
0
 62
     0
 10
1.97611
 20
30.8322
 30
0.0
 11
2.41708
 21
31.2732
 31
0.0
  0
LINE
  8
0
 62
     0
 10
2.41708
 20
31.2732
 30
0.0
 11
2.97518
 21
31.5571
 31
0.0
  0
LINE
  8
0
 62
     0
 10
2.97518
 20
31.5571
 30
0.0
 11
3.59392
 21
31.6549
 31
0.0
  0
ENDSEC
  0
EOF
