<?xml version="1.0"?>
<!-- Generated by SVGo -->
<svg width="347.850mm" height="43.050mm"
     viewBox="0.000 0.000 347.850 43.050"
     xmlns="http://www.w3.org/2000/svg" 
     xmlns:xlink="http://www.w3.org/1999/xlink">
<polygon points="340.850,5.000 341.007,5.006 341.163,5.025 341.317,5.055 341.468,5.098 341.615,5.152 341.758,5.218 341.895,5.295 342.026,5.382 342.149,5.479 342.264,5.586 342.371,5.701 342.468,5.824 342.555,5.955 342.632,6.092 342.698,6.235 342.752,6.382 342.795,6.533 342.825,6.687 342.844,6.843 342.850,7.000 342.850,36.050 342.844,36.207 342.825,36.363 342.795,36.517 342.752,36.668 342.698,36.815 342.632,36.958 342.555,37.095 342.468,37.226 342.371,37.349 342.264,37.464 342.149,37.571 342.026,37.668 341.895,37.755 341.758,37.832 341.615,37.898 341.468,37.952 341.317,37.995 341.163,38.025 341.007,38.044 340.850,38.050 7.000,38.050 6.843,38.044 6.687,38.025 6.533,37.995 6.382,37.952 6.235,37.898 6.092,37.832 5.955,37.755 5.824,37.668 5.701,37.571 5.586,37.464 5.479,37.349 5.382,37.226 5.295,37.095 5.218,36.958 5.152,36.815 5.098,36.668 5.055,36.517 5.025,36.363 5.006,36.207 5.000,36.050 5.000,7.000 5.006,6.843 5.025,6.687 5.055,6.533 5.098,6.382 5.152,6.235 5.218,6.092 5.295,5.955 5.382,5.824 5.479,5.701 5.586,5.586 5.701,5.479 5.824,5.382 5.955,5.295 6.092,5.218 6.235,5.152 6.382,5.098 6.533,5.055 6.687,5.025 6.843,5.006 7.000,5.000" style="fill:none;stroke-width:0.2;stroke:black"/>
<polygon points="118.783,6.500 119.401,6.598 119.959,6.882 120.401,7.324 120.685,7.882 120.783,8.500 120.685,9.118 120.401,9.676 119.959,10.118 119.401,10.402 118.783,10.500 118.165,10.402 117.608,10.118 117.165,9.676 116.881,9.118 116.783,8.500 116.881,7.882 117.165,7.324 117.608,6.882 118.165,6.598" style="fill:none;stroke-width:0.2;stroke:black"/>
<polygon points="229.067,6.500 229.685,6.598 230.242,6.882 230.685,7.324 230.969,7.882 231.067,8.500 230.969,9.118 230.685,9.676 230.242,10.118 229.685,10.402 229.067,10.500 228.449,10.402 227.891,10.118 227.449,9.676 227.165,9.118 227.067,8.500 227.165,7.882 227.449,7.324 227.891,6.882 228.449,6.598" style="fill:none;stroke-width:0.2;stroke:black"/>
<polygon points="339.350,6.500 339.968,6.598 340.526,6.882 340.968,7.324 341.252,7.882 341.350,8.500 341.252,9.118 340.968,9.676 340.526,10.118 339.968,10.402 339.350,10.500 338.732,10.402 338.174,10.118 337.732,9.676 337.448,9.118 337.350,8.500 337.448,7.882 337.732,7.324 338.174,6.882 338.732,6.598" style="fill:none;stroke-width:0.2;stroke:black"/>
<polygon points="339.350,32.550 339.968,32.648 340.526,32.932 340.968,33.374 341.252,33.932 341.350,34.550 341.252,35.168 340.968,35.726 340.526,36.168 339.968,36.452 339.350,36.550 338.732,36.452 338.174,36.168 337.732,35.726 337.448,35.168 337.350,34.550 337.448,33.932 337.732,33.374 338.174,32.932 338.732,32.648" style="fill:none;stroke-width:0.2;stroke:black"/>
<polygon points="229.067,32.550 229.685,32.648 230.242,32.932 230.685,33.374 230.969,33.932 231.067,34.550 230.969,35.168 230.685,35.726 230.242,36.168 229.685,36.452 229.067,36.550 228.449,36.452 227.891,36.168 227.449,35.726 227.165,35.168 227.067,34.550 227.165,33.932 227.449,33.374 227.891,32.932 228.449,32.648" style="fill:none;stroke-width:0.2;stroke:black"/>
<polygon points="118.783,32.550 119.401,32.648 119.959,32.932 120.401,33.374 120.685,33.932 120.783,34.550 120.685,35.168 120.401,35.726 119.959,36.168 119.401,36.452 118.783,36.550 118.165,36.452 117.608,36.168 117.165,35.726 116.881,35.168 116.783,34.550 116.881,33.932 117.165,33.374 117.608,32.932 118.165,32.648" style="fill:none;stroke-width:0.2;stroke:black"/>
<polygon points="8.500,32.550 9.118,32.648 9.676,32.932 10.118,33.374 10.402,33.932 10.500,34.550 10.402,35.168 10.118,35.726 9.676,36.168 9.118,36.452 8.500,36.550 7.882,36.452 7.324,36.168 6.882,35.726 6.598,35.168 6.500,34.550 6.598,33.932 6.882,33.374 7.324,32.932 7.882,32.648" style="fill:none;stroke-width:0.2;stroke:black"/>
<polygon points="8.500,6.500 9.118,6.598 9.676,6.882 10.118,7.324 10.402,7.882 10.500,8.500 10.402,9.118 10.118,9.676 9.676,10.118 9.118,10.402 8.500,10.500 7.882,10.402 7.324,10.118 6.882,9.676 6.598,9.118 6.500,8.500 6.598,7.882 6.882,7.324 7.324,6.882 7.882,6.598" style="fill:none;stroke-width:0.2;stroke:black"/>
<polygon points="28.525,14.525 28.525,15.125 29.325,15.125 29.325,27.925 28.525,27.925 28.525,28.525 14.525,28.525 14.525,27.925 13.725,27.925 13.725,15.125 14.525,15.125 14.525,14.525" style="fill:none;stroke-width:0.2;stroke:black"/>
<polygon points="47.575,14.525 47.575,15.125 48.375,15.125 48.375,27.925 47.575,27.925 47.575,28.525 33.575,28.525 33.575,27.925 32.775,27.925 32.775,15.125 33.575,15.125 33.575,14.525" style="fill:none;stroke-width:0.2;stroke:black"/>
<polygon points="66.625,14.525 66.625,15.125 67.425,15.125 67.425,27.925 66.625,27.925 66.625,28.525 52.625,28.525 52.625,27.925 51.825,27.925 51.825,15.125 52.625,15.125 52.625,14.525" style="fill:none;stroke-width:0.2;stroke:black"/>
<polygon points="85.675,14.525 85.675,15.125 86.475,15.125 86.475,27.925 85.675,27.925 85.675,28.525 71.675,28.525 71.675,27.925 70.875,27.925 70.875,15.125 71.675,15.125 71.675,14.525" style="fill:none;stroke-width:0.2;stroke:black"/>
<polygon points="104.725,14.525 104.725,15.125 105.525,15.125 105.525,27.925 104.725,27.925 104.725,28.525 90.725,28.525 90.725,27.925 89.925,27.925 89.925,15.125 90.725,15.125 90.725,14.525" style="fill:none;stroke-width:0.2;stroke:black"/>
<polygon points="123.775,14.525 123.775,15.125 124.575,15.125 124.575,27.925 123.775,27.925 123.775,28.525 109.775,28.525 109.775,27.925 108.975,27.925 108.975,15.125 109.775,15.125 109.775,14.525" style="fill:none;stroke-width:0.2;stroke:black"/>
<polygon points="142.825,14.525 142.825,15.125 143.625,15.125 143.625,27.925 142.825,27.925 142.825,28.525 128.825,28.525 128.825,27.925 128.025,27.925 128.025,15.125 128.825,15.125 128.825,14.525" style="fill:none;stroke-width:0.2;stroke:black"/>
<polygon points="161.875,14.525 161.875,15.125 162.675,15.125 162.675,27.925 161.875,27.925 161.875,28.525 147.875,28.525 147.875,27.925 147.075,27.925 147.075,15.125 147.875,15.125 147.875,14.525" style="fill:none;stroke-width:0.2;stroke:black"/>
<polygon points="180.925,14.525 180.925,15.125 181.725,15.125 181.725,27.925 180.925,27.925 180.925,28.525 166.925,28.525 166.925,27.925 166.125,27.925 166.125,15.125 166.925,15.125 166.925,14.525" style="fill:none;stroke-width:0.2;stroke:black"/>
<polygon points="199.975,14.525 199.975,15.125 200.775,15.125 200.775,27.925 199.975,27.925 199.975,28.525 185.975,28.525 185.975,27.925 185.175,27.925 185.175,15.125 185.975,15.125 185.975,14.525" style="fill:none;stroke-width:0.2;stroke:black"/>
<polygon points="219.025,14.525 219.025,15.125 219.825,15.125 219.825,27.925 219.025,27.925 219.025,28.525 205.025,28.525 205.025,27.925 204.225,27.925 204.225,15.125 205.025,15.125 205.025,14.525" style="fill:none;stroke-width:0.2;stroke:black"/>
<polygon points="238.075,14.525 238.075,15.125 238.875,15.125 238.875,27.925 238.075,27.925 238.075,28.525 224.075,28.525 224.075,27.925 223.275,27.925 223.275,15.125 224.075,15.125 224.075,14.525" style="fill:none;stroke-width:0.2;stroke:black"/>
<polygon points="257.125,14.525 257.125,15.125 257.925,15.125 257.925,27.925 257.125,27.925 257.125,28.525 243.125,28.525 243.125,27.925 242.325,27.925 242.325,15.125 243.125,15.125 243.125,14.525" style="fill:none;stroke-width:0.2;stroke:black"/>
<polygon points="276.175,14.525 276.175,15.125 276.975,15.125 276.975,27.925 276.175,27.925 276.175,28.525 262.175,28.525 262.175,27.925 261.375,27.925 261.375,15.125 262.175,15.125 262.175,14.525" style="fill:none;stroke-width:0.2;stroke:black"/>
<polygon points="295.225,14.525 295.225,15.125 296.025,15.125 296.025,27.925 295.225,27.925 295.225,28.525 281.225,28.525 281.225,27.925 280.425,27.925 280.425,15.125 281.225,15.125 281.225,14.525" style="fill:none;stroke-width:0.2;stroke:black"/>
<polygon points="314.275,14.525 314.275,15.125 315.075,15.125 315.075,27.925 314.275,27.925 314.275,28.525 300.275,28.525 300.275,27.925 299.475,27.925 299.475,15.125 300.275,15.125 300.275,14.525" style="fill:none;stroke-width:0.2;stroke:black"/>
<polygon points="333.325,14.525 333.325,15.125 334.125,15.125 334.125,27.925 333.325,27.925 333.325,28.525 319.325,28.525 319.325,27.925 318.525,27.925 318.525,15.125 319.325,15.125 319.325,14.525" style="fill:none;stroke-width:0.2;stroke:black"/>
</svg>
