  0
SECTION
  2
HEADER
  9
$ACADVER
  1
AC1009
  9
$EXTMIN
 10
0.0
 20
0.0
 30
0.0
  9
$EXTMAX
 10
1000.0
 20
1000.0
 30
0.0
  9
$FILLMODE
 70
 0
  9
$SPLFRAME
 70
 1
  0
ENDSEC
  0
SECTION
  2
TABLES
  0
TABLE
  2
LAYER
 70
1
  0
LAYER
  2
0
 70
     0
 62
     7
  6
CONTINUOUS
  0
ENDTAB
  0
ENDSEC
  0
SECTION
  2
ENTITIES
  0
LINE
  8
0
 62
     0
 10
357.755
 20
135.938
 30
0.0
 11
357.911
 21
135.932
 31
0.0
  0
LINE
  8
0
 62
     0
 10
357.911
 20
135.932
 30
0.0
 11
358.069
 21
135.913
 31
0.0
  0
LINE
  8
0
 62
     0
 10
358.069
 20
135.913
 30
0.0
 11
358.221
 21
135.883
 31
0.0
  0
LINE
  8
0
 62
     0
 10
358.221
 20
135.883
 30
0.0
 11
358.376
 21
135.84
 31
0.0
  0
LINE
  8
0
 62
     0
 10
358.376
 20
135.84
 30
0.0
 11
358.521
 21
135.786
 31
0.0
  0
LINE
  8
0
 62
     0
 10
358.521
 20
135.786
 30
0.0
 11
358.662
 21
135.72
 31
0.0
  0
LINE
  8
0
 62
     0
 10
358.662
 20
135.72
 30
0.0
 11
358.8
 21
135.643
 31
0.0
  0
LINE
  8
0
 62
     0
 10
358.8
 20
135.643
 30
0.0
 11
358.934
 21
135.556
 31
0.0
  0
LINE
  8
0
 62
     0
 10
358.934
 20
135.556
 30
0.0
 11
359.054
 21
135.459
 31
0.0
  0
LINE
  8
0
 62
     0
 10
359.054
 20
135.459
 30
0.0
 11
359.17
 21
135.352
 31
0.0
  0
LINE
  8
0
 62
     0
 10
359.17
 20
135.352
 30
0.0
 11
359.276
 21
135.237
 31
0.0
  0
LINE
  8
0
 62
     0
 10
359.276
 20
135.237
 30
0.0
 11
359.375
 21
135.114
 31
0.0
  0
LINE
  8
0
 62
     0
 10
359.375
 20
135.114
 30
0.0
 11
359.463
 21
134.983
 31
0.0
  0
LINE
  8
0
 62
     0
 10
359.463
 20
134.983
 30
0.0
 11
359.537
 21
134.846
 31
0.0
  0
LINE
  8
0
 62
     0
 10
359.537
 20
134.846
 30
0.0
 11
359.604
 21
134.703
 31
0.0
  0
LINE
  8
0
 62
     0
 10
359.604
 20
134.703
 30
0.0
 11
359.657
 21
134.556
 31
0.0
  0
LINE
  8
0
 62
     0
 10
359.657
 20
134.556
 30
0.0
 11
359.703
 21
134.406
 31
0.0
  0
LINE
  8
0
 62
     0
 10
359.703
 20
134.406
 30
0.0
 11
359.731
 21
134.251
 31
0.0
  0
LINE
  8
0
 62
     0
 10
359.731
 20
134.251
 30
0.0
 11
359.749
 21
134.095
 31
0.0
  0
LINE
  8
0
 62
     0
 10
359.749
 20
134.095
 30
0.0
 11
359.756
 21
133.938
 31
0.0
  0
LINE
  8
0
 62
     0
 10
359.756
 20
133.938
 30
0.0
 11
359.756
 21
2.11253
 31
0.0
  0
LINE
  8
0
 62
     0
 10
359.756
 20
2.11253
 30
0.0
 11
359.749
 21
1.95544
 31
0.0
  0
LINE
  8
0
 62
     0
 10
359.749
 20
1.95544
 30
0.0
 11
359.731
 21
1.79972
 31
0.0
  0
LINE
  8
0
 62
     0
 10
359.731
 20
1.79972
 30
0.0
 11
359.703
 21
1.64538
 31
0.0
  0
LINE
  8
0
 62
     0
 10
359.703
 20
1.64538
 30
0.0
 11
359.657
 21
1.49517
 31
0.0
  0
LINE
  8
0
 62
     0
 10
359.657
 20
1.49517
 30
0.0
 11
359.604
 21
1.34772
 31
0.0
  0
LINE
  8
0
 62
     0
 10
359.604
 20
1.34772
 30
0.0
 11
359.537
 21
1.2044
 31
0.0
  0
LINE
  8
0
 62
     0
 10
359.537
 20
1.2044
 30
0.0
 11
359.463
 21
1.06798
 31
0.0
  0
LINE
  8
0
 62
     0
 10
359.463
 20
1.06798
 30
0.0
 11
359.375
 21
0.937066
 31
0.0
  0
LINE
  8
0
 62
     0
 10
359.375
 20
0.937066
 30
0.0
 11
359.276
 21
0.814419
 31
0.0
  0
LINE
  8
0
 62
     0
 10
359.276
 20
0.814419
 30
0.0
 11
359.17
 21
0.698666
 31
0.0
  0
LINE
  8
0
 62
     0
 10
359.17
 20
0.698666
 30
0.0
 11
359.054
 21
0.592557
 31
0.0
  0
LINE
  8
0
 62
     0
 10
359.054
 20
0.592557
 30
0.0
 11
358.934
 21
0.494714
 31
0.0
  0
LINE
  8
0
 62
     0
 10
358.934
 20
0.494714
 30
0.0
 11
358.8
 21
0.407899
 31
0.0
  0
LINE
  8
0
 62
     0
 10
358.8
 20
0.407899
 30
0.0
 11
358.662
 21
0.330729
 31
0.0
  0
LINE
  8
0
 62
     0
 10
358.662
 20
0.330729
 30
0.0
 11
358.521
 21
0.264583
 31
0.0
  0
LINE
  8
0
 62
     0
 10
358.521
 20
0.264583
 30
0.0
 11
358.376
 21
0.21084
 31
0.0
  0
LINE
  8
0
 62
     0
 10
358.376
 20
0.21084
 30
0.0
 11
358.221
 21
0.168121
 31
0.0
  0
LINE
  8
0
 62
     0
 10
358.221
 20
0.168121
 30
0.0
 11
358.069
 21
0.137804
 31
0.0
  0
LINE
  8
0
 62
     0
 10
358.069
 20
0.137804
 30
0.0
 11
357.911
 21
0.118511
 31
0.0
  0
LINE
  8
0
 62
     0
 10
357.911
 20
0.118511
 30
0.0
 11
357.755
 21
0.112999
 31
0.0
  0
LINE
  8
0
 62
     0
 10
357.755
 20
0.112999
 30
0.0
 11
2.09324
 21
0.112999
 31
0.0
  0
LINE
  8
0
 62
     0
 10
2.09324
 20
0.112999
 30
0.0
 11
1.93614
 21
0.118511
 31
0.0
  0
LINE
  8
0
 62
     0
 10
1.93614
 20
0.118511
 30
0.0
 11
1.78043
 21
0.137804
 31
0.0
  0
LINE
  8
0
 62
     0
 10
1.78043
 20
0.137804
 30
0.0
 11
1.62609
 21
0.168121
 31
0.0
  0
LINE
  8
0
 62
     0
 10
1.62609
 20
0.168121
 30
0.0
 11
1.47588
 21
0.21084
 31
0.0
  0
LINE
  8
0
 62
     0
 10
1.47588
 20
0.21084
 30
0.0
 11
1.32843
 21
0.264583
 31
0.0
  0
LINE
  8
0
 62
     0
 10
1.32843
 20
0.264583
 30
0.0
 11
1.18511
 21
0.330729
 31
0.0
  0
LINE
  8
0
 62
     0
 10
1.18511
 20
0.330729
 30
0.0
 11
1.04869
 21
0.407899
 31
0.0
  0
LINE
  8
0
 62
     0
 10
1.04869
 20
0.407899
 30
0.0
 11
0.917773
 21
0.494714
 31
0.0
  0
LINE
  8
0
 62
     0
 10
0.917773
 20
0.494714
 30
0.0
 11
0.795129
 21
0.592557
 31
0.0
  0
LINE
  8
0
 62
     0
 10
0.795129
 20
0.592557
 30
0.0
 11
0.679372
 21
0.698666
 31
0.0
  0
LINE
  8
0
 62
     0
 10
0.679372
 20
0.698666
 30
0.0
 11
0.573264
 21
0.814419
 31
0.0
  0
LINE
  8
0
 62
     0
 10
0.573264
 20
0.814419
 30
0.0
 11
0.475424
 21
0.937066
 31
0.0
  0
LINE
  8
0
 62
     0
 10
0.475424
 20
0.937066
 30
0.0
 11
0.388606
 21
1.06798
 31
0.0
  0
LINE
  8
0
 62
     0
 10
0.388606
 20
1.06798
 30
0.0
 11
0.311437
 21
1.2044
 31
0.0
  0
LINE
  8
0
 62
     0
 10
0.311437
 20
1.2044
 30
0.0
 11
0.245291
 21
1.34772
 31
0.0
  0
LINE
  8
0
 62
     0
 10
0.245291
 20
1.34772
 30
0.0
 11
0.191547
 21
1.49517
 31
0.0
  0
LINE
  8
0
 62
     0
 10
0.191547
 20
1.49517
 30
0.0
 11
0.148828
 21
1.64538
 31
0.0
  0
LINE
  8
0
 62
     0
 10
0.148828
 20
1.64538
 30
0.0
 11
0.118511
 21
1.79972
 31
0.0
  0
LINE
  8
0
 62
     0
 10
0.118511
 20
1.79972
 30
0.0
 11
0.0992188
 21
1.95544
 31
0.0
  0
LINE
  8
0
 62
     0
 10
0.0992188
 20
1.95544
 30
0.0
 11
0.0937066
 21
2.11253
 31
0.0
  0
LINE
  8
0
 62
     0
 10
0.0937066
 20
2.11253
 30
0.0
 11
0.0937066
 21
133.938
 31
0.0
  0
LINE
  8
0
 62
     0
 10
0.0937066
 20
133.938
 30
0.0
 11
0.0992188
 21
134.095
 31
0.0
  0
LINE
  8
0
 62
     0
 10
0.0992188
 20
134.095
 30
0.0
 11
0.118511
 21
134.251
 31
0.0
  0
LINE
  8
0
 62
     0
 10
0.118511
 20
134.251
 30
0.0
 11
0.148828
 21
134.406
 31
0.0
  0
LINE
  8
0
 62
     0
 10
0.148828
 20
134.406
 30
0.0
 11
0.191547
 21
134.556
 31
0.0
  0
LINE
  8
0
 62
     0
 10
0.191547
 20
134.556
 30
0.0
 11
0.245291
 21
134.703
 31
0.0
  0
LINE
  8
0
 62
     0
 10
0.245291
 20
134.703
 30
0.0
 11
0.311437
 21
134.846
 31
0.0
  0
LINE
  8
0
 62
     0
 10
0.311437
 20
134.846
 30
0.0
 11
0.388606
 21
134.983
 31
0.0
  0
LINE
  8
0
 62
     0
 10
0.388606
 20
134.983
 30
0.0
 11
0.475424
 21
135.114
 31
0.0
  0
LINE
  8
0
 62
     0
 10
0.475424
 20
135.114
 30
0.0
 11
0.573264
 21
135.237
 31
0.0
  0
LINE
  8
0
 62
     0
 10
0.573264
 20
135.237
 30
0.0
 11
0.679372
 21
135.352
 31
0.0
  0
LINE
  8
0
 62
     0
 10
0.679372
 20
135.352
 30
0.0
 11
0.795129
 21
135.459
 31
0.0
  0
LINE
  8
0
 62
     0
 10
0.795129
 20
135.459
 30
0.0
 11
0.917773
 21
135.556
 31
0.0
  0
LINE
  8
0
 62
     0
 10
0.917773
 20
135.556
 30
0.0
 11
1.04869
 21
135.643
 31
0.0
  0
LINE
  8
0
 62
     0
 10
1.04869
 20
135.643
 30
0.0
 11
1.18511
 21
135.72
 31
0.0
  0
LINE
  8
0
 62
     0
 10
1.18511
 20
135.72
 30
0.0
 11
1.32843
 21
135.786
 31
0.0
  0
LINE
  8
0
 62
     0
 10
1.32843
 20
135.786
 30
0.0
 11
1.47588
 21
135.84
 31
0.0
  0
LINE
  8
0
 62
     0
 10
1.47588
 20
135.84
 30
0.0
 11
1.62609
 21
135.883
 31
0.0
  0
LINE
  8
0
 62
     0
 10
1.62609
 20
135.883
 30
0.0
 11
1.78043
 21
135.913
 31
0.0
  0
LINE
  8
0
 62
     0
 10
1.78043
 20
135.913
 30
0.0
 11
1.93614
 21
135.932
 31
0.0
  0
LINE
  8
0
 62
     0
 10
1.93614
 20
135.932
 30
0.0
 11
2.09324
 21
135.938
 31
0.0
  0
LINE
  8
0
 62
     0
 10
2.09324
 20
135.938
 30
0.0
 11
357.755
 21
135.938
 31
0.0
  0
LINE
  8
0
 62
     0
 10
6.09367
 20
129.938
 30
0.0
 11
353.755
 21
129.938
 31
0.0
  0
LINE
  8
0
 62
     0
 10
353.755
 20
129.938
 30
0.0
 11
353.755
 21
6.11297
 31
0.0
  0
LINE
  8
0
 62
     0
 10
353.755
 20
6.11297
 30
0.0
 11
6.09367
 21
6.11297
 31
0.0
  0
LINE
  8
0
 62
     0
 10
6.09367
 20
6.11297
 30
0.0
 11
6.09367
 21
129.938
 31
0.0
  0
LINE
  8
0
 62
     0
 10
120.982
 20
134.437
 30
0.0
 11
121.445
 21
134.364
 31
0.0
  0
LINE
  8
0
 62
     0
 10
121.445
 20
134.364
 30
0.0
 11
121.863
 21
134.152
 31
0.0
  0
LINE
  8
0
 62
     0
 10
121.863
 20
134.152
 30
0.0
 11
122.195
 21
133.82
 31
0.0
  0
LINE
  8
0
 62
     0
 10
122.195
 20
133.82
 30
0.0
 11
122.408
 21
133.402
 31
0.0
  0
LINE
  8
0
 62
     0
 10
122.408
 20
133.402
 30
0.0
 11
122.481
 21
132.938
 31
0.0
  0
LINE
  8
0
 62
     0
 10
122.481
 20
132.938
 30
0.0
 11
122.408
 21
132.474
 31
0.0
  0
LINE
  8
0
 62
     0
 10
122.408
 20
132.474
 30
0.0
 11
122.195
 21
132.056
 31
0.0
  0
LINE
  8
0
 62
     0
 10
122.195
 20
132.056
 30
0.0
 11
121.863
 21
131.724
 31
0.0
  0
LINE
  8
0
 62
     0
 10
121.863
 20
131.724
 30
0.0
 11
121.445
 21
131.51
 31
0.0
  0
LINE
  8
0
 62
     0
 10
121.445
 20
131.51
 30
0.0
 11
120.982
 21
131.437
 31
0.0
  0
LINE
  8
0
 62
     0
 10
120.982
 20
131.437
 30
0.0
 11
120.518
 21
131.51
 31
0.0
  0
LINE
  8
0
 62
     0
 10
120.518
 20
131.51
 30
0.0
 11
120.1
 21
131.724
 31
0.0
  0
LINE
  8
0
 62
     0
 10
120.1
 20
131.724
 30
0.0
 11
119.768
 21
132.056
 31
0.0
  0
LINE
  8
0
 62
     0
 10
119.768
 20
132.056
 30
0.0
 11
119.555
 21
132.474
 31
0.0
  0
LINE
  8
0
 62
     0
 10
119.555
 20
132.474
 30
0.0
 11
119.482
 21
132.938
 31
0.0
  0
LINE
  8
0
 62
     0
 10
119.482
 20
132.938
 30
0.0
 11
119.555
 21
133.402
 31
0.0
  0
LINE
  8
0
 62
     0
 10
119.555
 20
133.402
 30
0.0
 11
119.768
 21
133.82
 31
0.0
  0
LINE
  8
0
 62
     0
 10
119.768
 20
133.82
 30
0.0
 11
120.1
 21
134.152
 31
0.0
  0
LINE
  8
0
 62
     0
 10
120.1
 20
134.152
 30
0.0
 11
120.518
 21
134.364
 31
0.0
  0
LINE
  8
0
 62
     0
 10
120.518
 20
134.364
 30
0.0
 11
120.982
 21
134.437
 31
0.0
  0
LINE
  8
0
 62
     0
 10
238.869
 20
134.437
 30
0.0
 11
239.332
 21
134.364
 31
0.0
  0
LINE
  8
0
 62
     0
 10
239.332
 20
134.364
 30
0.0
 11
239.751
 21
134.152
 31
0.0
  0
LINE
  8
0
 62
     0
 10
239.751
 20
134.152
 30
0.0
 11
240.083
 21
133.82
 31
0.0
  0
LINE
  8
0
 62
     0
 10
240.083
 20
133.82
 30
0.0
 11
240.295
 21
133.402
 31
0.0
  0
LINE
  8
0
 62
     0
 10
240.295
 20
133.402
 30
0.0
 11
240.368
 21
132.938
 31
0.0
  0
LINE
  8
0
 62
     0
 10
240.368
 20
132.938
 30
0.0
 11
240.295
 21
132.474
 31
0.0
  0
LINE
  8
0
 62
     0
 10
240.295
 20
132.474
 30
0.0
 11
240.083
 21
132.056
 31
0.0
  0
LINE
  8
0
 62
     0
 10
240.083
 20
132.056
 30
0.0
 11
239.751
 21
131.724
 31
0.0
  0
LINE
  8
0
 62
     0
 10
239.751
 20
131.724
 30
0.0
 11
239.332
 21
131.51
 31
0.0
  0
LINE
  8
0
 62
     0
 10
239.332
 20
131.51
 30
0.0
 11
238.869
 21
131.437
 31
0.0
  0
LINE
  8
0
 62
     0
 10
238.869
 20
131.437
 30
0.0
 11
238.405
 21
131.51
 31
0.0
  0
LINE
  8
0
 62
     0
 10
238.405
 20
131.51
 30
0.0
 11
237.987
 21
131.724
 31
0.0
  0
LINE
  8
0
 62
     0
 10
237.987
 20
131.724
 30
0.0
 11
237.655
 21
132.056
 31
0.0
  0
LINE
  8
0
 62
     0
 10
237.655
 20
132.056
 30
0.0
 11
237.442
 21
132.474
 31
0.0
  0
LINE
  8
0
 62
     0
 10
237.442
 20
132.474
 30
0.0
 11
237.368
 21
132.938
 31
0.0
  0
LINE
  8
0
 62
     0
 10
237.368
 20
132.938
 30
0.0
 11
237.442
 21
133.402
 31
0.0
  0
LINE
  8
0
 62
     0
 10
237.442
 20
133.402
 30
0.0
 11
237.655
 21
133.82
 31
0.0
  0
LINE
  8
0
 62
     0
 10
237.655
 20
133.82
 30
0.0
 11
237.987
 21
134.152
 31
0.0
  0
LINE
  8
0
 62
     0
 10
237.987
 20
134.152
 30
0.0
 11
238.405
 21
134.364
 31
0.0
  0
LINE
  8
0
 62
     0
 10
238.405
 20
134.364
 30
0.0
 11
238.869
 21
134.437
 31
0.0
  0
LINE
  8
0
 62
     0
 10
356.757
 20
134.437
 30
0.0
 11
357.219
 21
134.364
 31
0.0
  0
LINE
  8
0
 62
     0
 10
357.219
 20
134.364
 30
0.0
 11
357.639
 21
134.152
 31
0.0
  0
LINE
  8
0
 62
     0
 10
357.639
 20
134.152
 30
0.0
 11
357.971
 21
133.82
 31
0.0
  0
LINE
  8
0
 62
     0
 10
357.971
 20
133.82
 30
0.0
 11
358.182
 21
133.402
 31
0.0
  0
LINE
  8
0
 62
     0
 10
358.182
 20
133.402
 30
0.0
 11
358.256
 21
132.938
 31
0.0
  0
LINE
  8
0
 62
     0
 10
358.256
 20
132.938
 30
0.0
 11
358.182
 21
132.474
 31
0.0
  0
LINE
  8
0
 62
     0
 10
358.182
 20
132.474
 30
0.0
 11
357.971
 21
132.056
 31
0.0
  0
LINE
  8
0
 62
     0
 10
357.971
 20
132.056
 30
0.0
 11
357.639
 21
131.724
 31
0.0
  0
LINE
  8
0
 62
     0
 10
357.639
 20
131.724
 30
0.0
 11
357.219
 21
131.51
 31
0.0
  0
LINE
  8
0
 62
     0
 10
357.219
 20
131.51
 30
0.0
 11
356.757
 21
131.437
 31
0.0
  0
LINE
  8
0
 62
     0
 10
356.757
 20
131.437
 30
0.0
 11
356.291
 21
131.51
 31
0.0
  0
LINE
  8
0
 62
     0
 10
356.291
 20
131.51
 30
0.0
 11
355.875
 21
131.724
 31
0.0
  0
LINE
  8
0
 62
     0
 10
355.875
 20
131.724
 30
0.0
 11
355.544
 21
132.056
 31
0.0
  0
LINE
  8
0
 62
     0
 10
355.544
 20
132.056
 30
0.0
 11
355.328
 21
132.474
 31
0.0
  0
LINE
  8
0
 62
     0
 10
355.328
 20
132.474
 30
0.0
 11
355.258
 21
132.938
 31
0.0
  0
LINE
  8
0
 62
     0
 10
355.258
 20
132.938
 30
0.0
 11
355.328
 21
133.402
 31
0.0
  0
LINE
  8
0
 62
     0
 10
355.328
 20
133.402
 30
0.0
 11
355.544
 21
133.82
 31
0.0
  0
LINE
  8
0
 62
     0
 10
355.544
 20
133.82
 30
0.0
 11
355.875
 21
134.152
 31
0.0
  0
LINE
  8
0
 62
     0
 10
355.875
 20
134.152
 30
0.0
 11
356.291
 21
134.364
 31
0.0
  0
LINE
  8
0
 62
     0
 10
356.291
 20
134.364
 30
0.0
 11
356.757
 21
134.437
 31
0.0
  0
LINE
  8
0
 62
     0
 10
356.757
 20
4.61229
 30
0.0
 11
357.219
 21
4.53926
 31
0.0
  0
LINE
  8
0
 62
     0
 10
357.219
 20
4.53926
 30
0.0
 11
357.639
 21
4.32703
 31
0.0
  0
LINE
  8
0
 62
     0
 10
357.639
 20
4.32703
 30
0.0
 11
357.971
 21
3.99493
 31
0.0
  0
LINE
  8
0
 62
     0
 10
357.971
 20
3.99493
 30
0.0
 11
358.182
 21
3.57738
 31
0.0
  0
LINE
  8
0
 62
     0
 10
358.182
 20
3.57738
 30
0.0
 11
358.256
 21
3.11299
 31
0.0
  0
LINE
  8
0
 62
     0
 10
358.256
 20
3.11299
 30
0.0
 11
358.182
 21
2.64859
 31
0.0
  0
LINE
  8
0
 62
     0
 10
358.182
 20
2.64859
 30
0.0
 11
357.971
 21
2.23104
 31
0.0
  0
LINE
  8
0
 62
     0
 10
357.971
 20
2.23104
 30
0.0
 11
357.639
 21
1.89894
 31
0.0
  0
LINE
  8
0
 62
     0
 10
357.639
 20
1.89894
 30
0.0
 11
357.219
 21
1.68534
 31
0.0
  0
LINE
  8
0
 62
     0
 10
357.219
 20
1.68534
 30
0.0
 11
356.757
 21
1.6123
 31
0.0
  0
LINE
  8
0
 62
     0
 10
356.757
 20
1.6123
 30
0.0
 11
356.291
 21
1.68534
 31
0.0
  0
LINE
  8
0
 62
     0
 10
356.291
 20
1.68534
 30
0.0
 11
355.875
 21
1.89894
 31
0.0
  0
LINE
  8
0
 62
     0
 10
355.875
 20
1.89894
 30
0.0
 11
355.544
 21
2.23104
 31
0.0
  0
LINE
  8
0
 62
     0
 10
355.544
 20
2.23104
 30
0.0
 11
355.328
 21
2.64859
 31
0.0
  0
LINE
  8
0
 62
     0
 10
355.328
 20
2.64859
 30
0.0
 11
355.258
 21
3.11299
 31
0.0
  0
LINE
  8
0
 62
     0
 10
355.258
 20
3.11299
 30
0.0
 11
355.328
 21
3.57738
 31
0.0
  0
LINE
  8
0
 62
     0
 10
355.328
 20
3.57738
 30
0.0
 11
355.544
 21
3.99493
 31
0.0
  0
LINE
  8
0
 62
     0
 10
355.544
 20
3.99493
 30
0.0
 11
355.875
 21
4.32703
 31
0.0
  0
LINE
  8
0
 62
     0
 10
355.875
 20
4.32703
 30
0.0
 11
356.291
 21
4.53926
 31
0.0
  0
LINE
  8
0
 62
     0
 10
356.291
 20
4.53926
 30
0.0
 11
356.757
 21
4.61229
 31
0.0
  0
LINE
  8
0
 62
     0
 10
238.869
 20
4.61229
 30
0.0
 11
239.332
 21
4.53926
 31
0.0
  0
LINE
  8
0
 62
     0
 10
239.332
 20
4.53926
 30
0.0
 11
239.751
 21
4.32703
 31
0.0
  0
LINE
  8
0
 62
     0
 10
239.751
 20
4.32703
 30
0.0
 11
240.083
 21
3.99493
 31
0.0
  0
LINE
  8
0
 62
     0
 10
240.083
 20
3.99493
 30
0.0
 11
240.295
 21
3.57738
 31
0.0
  0
LINE
  8
0
 62
     0
 10
240.295
 20
3.57738
 30
0.0
 11
240.368
 21
3.11299
 31
0.0
  0
LINE
  8
0
 62
     0
 10
240.368
 20
3.11299
 30
0.0
 11
240.295
 21
2.64859
 31
0.0
  0
LINE
  8
0
 62
     0
 10
240.295
 20
2.64859
 30
0.0
 11
240.083
 21
2.23104
 31
0.0
  0
LINE
  8
0
 62
     0
 10
240.083
 20
2.23104
 30
0.0
 11
239.751
 21
1.89894
 31
0.0
  0
LINE
  8
0
 62
     0
 10
239.751
 20
1.89894
 30
0.0
 11
239.332
 21
1.68534
 31
0.0
  0
LINE
  8
0
 62
     0
 10
239.332
 20
1.68534
 30
0.0
 11
238.869
 21
1.6123
 31
0.0
  0
LINE
  8
0
 62
     0
 10
238.869
 20
1.6123
 30
0.0
 11
238.405
 21
1.68534
 31
0.0
  0
LINE
  8
0
 62
     0
 10
238.405
 20
1.68534
 30
0.0
 11
237.987
 21
1.89894
 31
0.0
  0
LINE
  8
0
 62
     0
 10
237.987
 20
1.89894
 30
0.0
 11
237.655
 21
2.23104
 31
0.0
  0
LINE
  8
0
 62
     0
 10
237.655
 20
2.23104
 30
0.0
 11
237.442
 21
2.64859
 31
0.0
  0
LINE
  8
0
 62
     0
 10
237.442
 20
2.64859
 30
0.0
 11
237.368
 21
3.11299
 31
0.0
  0
LINE
  8
0
 62
     0
 10
237.368
 20
3.11299
 30
0.0
 11
237.442
 21
3.57738
 31
0.0
  0
LINE
  8
0
 62
     0
 10
237.442
 20
3.57738
 30
0.0
 11
237.655
 21
3.99493
 31
0.0
  0
LINE
  8
0
 62
     0
 10
237.655
 20
3.99493
 30
0.0
 11
237.987
 21
4.32703
 31
0.0
  0
LINE
  8
0
 62
     0
 10
237.987
 20
4.32703
 30
0.0
 11
238.405
 21
4.53926
 31
0.0
  0
LINE
  8
0
 62
     0
 10
238.405
 20
4.53926
 30
0.0
 11
238.869
 21
4.61229
 31
0.0
  0
LINE
  8
0
 62
     0
 10
120.982
 20
4.61229
 30
0.0
 11
121.445
 21
4.53926
 31
0.0
  0
LINE
  8
0
 62
     0
 10
121.445
 20
4.53926
 30
0.0
 11
121.863
 21
4.32703
 31
0.0
  0
LINE
  8
0
 62
     0
 10
121.863
 20
4.32703
 30
0.0
 11
122.195
 21
3.99493
 31
0.0
  0
LINE
  8
0
 62
     0
 10
122.195
 20
3.99493
 30
0.0
 11
122.408
 21
3.57738
 31
0.0
  0
LINE
  8
0
 62
     0
 10
122.408
 20
3.57738
 30
0.0
 11
122.481
 21
3.11299
 31
0.0
  0
LINE
  8
0
 62
     0
 10
122.481
 20
3.11299
 30
0.0
 11
122.408
 21
2.64859
 31
0.0
  0
LINE
  8
0
 62
     0
 10
122.408
 20
2.64859
 30
0.0
 11
122.195
 21
2.23104
 31
0.0
  0
LINE
  8
0
 62
     0
 10
122.195
 20
2.23104
 30
0.0
 11
121.863
 21
1.89894
 31
0.0
  0
LINE
  8
0
 62
     0
 10
121.863
 20
1.89894
 30
0.0
 11
121.445
 21
1.68534
 31
0.0
  0
LINE
  8
0
 62
     0
 10
121.445
 20
1.68534
 30
0.0
 11
120.982
 21
1.6123
 31
0.0
  0
LINE
  8
0
 62
     0
 10
120.982
 20
1.6123
 30
0.0
 11
120.518
 21
1.68534
 31
0.0
  0
LINE
  8
0
 62
     0
 10
120.518
 20
1.68534
 30
0.0
 11
120.1
 21
1.89894
 31
0.0
  0
LINE
  8
0
 62
     0
 10
120.1
 20
1.89894
 30
0.0
 11
119.768
 21
2.23104
 31
0.0
  0
LINE
  8
0
 62
     0
 10
119.768
 20
2.23104
 30
0.0
 11
119.555
 21
2.64859
 31
0.0
  0
LINE
  8
0
 62
     0
 10
119.555
 20
2.64859
 30
0.0
 11
119.482
 21
3.11299
 31
0.0
  0
LINE
  8
0
 62
     0
 10
119.482
 20
3.11299
 30
0.0
 11
119.555
 21
3.57738
 31
0.0
  0
LINE
  8
0
 62
     0
 10
119.555
 20
3.57738
 30
0.0
 11
119.768
 21
3.99493
 31
0.0
  0
LINE
  8
0
 62
     0
 10
119.768
 20
3.99493
 30
0.0
 11
120.1
 21
4.32703
 31
0.0
  0
LINE
  8
0
 62
     0
 10
120.1
 20
4.32703
 30
0.0
 11
120.518
 21
4.53926
 31
0.0
  0
LINE
  8
0
 62
     0
 10
120.518
 20
4.53926
 30
0.0
 11
120.982
 21
4.61229
 31
0.0
  0
LINE
  8
0
 62
     0
 10
3.0937
 20
4.61229
 30
0.0
 11
3.55808
 21
4.53926
 31
0.0
  0
LINE
  8
0
 62
     0
 10
3.55808
 20
4.53926
 30
0.0
 11
3.97563
 21
4.32703
 31
0.0
  0
LINE
  8
0
 62
     0
 10
3.97563
 20
4.32703
 30
0.0
 11
4.30773
 21
3.99493
 31
0.0
  0
LINE
  8
0
 62
     0
 10
4.30773
 20
3.99493
 30
0.0
 11
4.52134
 21
3.57738
 31
0.0
  0
LINE
  8
0
 62
     0
 10
4.52134
 20
3.57738
 30
0.0
 11
4.59437
 21
3.11299
 31
0.0
  0
LINE
  8
0
 62
     0
 10
4.59437
 20
3.11299
 30
0.0
 11
4.52134
 21
2.64859
 31
0.0
  0
LINE
  8
0
 62
     0
 10
4.52134
 20
2.64859
 30
0.0
 11
4.30773
 21
2.23104
 31
0.0
  0
LINE
  8
0
 62
     0
 10
4.30773
 20
2.23104
 30
0.0
 11
3.97563
 21
1.89894
 31
0.0
  0
LINE
  8
0
 62
     0
 10
3.97563
 20
1.89894
 30
0.0
 11
3.55808
 21
1.68534
 31
0.0
  0
LINE
  8
0
 62
     0
 10
3.55808
 20
1.68534
 30
0.0
 11
3.0937
 21
1.6123
 31
0.0
  0
LINE
  8
0
 62
     0
 10
3.0937
 20
1.6123
 30
0.0
 11
2.6293
 21
1.68534
 31
0.0
  0
LINE
  8
0
 62
     0
 10
2.6293
 20
1.68534
 30
0.0
 11
2.21175
 21
1.89894
 31
0.0
  0
LINE
  8
0
 62
     0
 10
2.21175
 20
1.89894
 30
0.0
 11
1.87965
 21
2.23104
 31
0.0
  0
LINE
  8
0
 62
     0
 10
1.87965
 20
2.23104
 30
0.0
 11
1.66743
 21
2.64859
 31
0.0
  0
LINE
  8
0
 62
     0
 10
1.66743
 20
2.64859
 30
0.0
 11
1.59439
 21
3.11299
 31
0.0
  0
LINE
  8
0
 62
     0
 10
1.59439
 20
3.11299
 30
0.0
 11
1.66743
 21
3.57738
 31
0.0
  0
LINE
  8
0
 62
     0
 10
1.66743
 20
3.57738
 30
0.0
 11
1.87965
 21
3.99493
 31
0.0
  0
LINE
  8
0
 62
     0
 10
1.87965
 20
3.99493
 30
0.0
 11
2.21175
 21
4.32703
 31
0.0
  0
LINE
  8
0
 62
     0
 10
2.21175
 20
4.32703
 30
0.0
 11
2.6293
 21
4.53926
 31
0.0
  0
LINE
  8
0
 62
     0
 10
2.6293
 20
4.53926
 30
0.0
 11
3.0937
 21
4.61229
 31
0.0
  0
LINE
  8
0
 62
     0
 10
3.0937
 20
134.437
 30
0.0
 11
3.55808
 21
134.364
 31
0.0
  0
LINE
  8
0
 62
     0
 10
3.55808
 20
134.364
 30
0.0
 11
3.97563
 21
134.152
 31
0.0
  0
LINE
  8
0
 62
     0
 10
3.97563
 20
134.152
 30
0.0
 11
4.30773
 21
133.82
 31
0.0
  0
LINE
  8
0
 62
     0
 10
4.30773
 20
133.82
 30
0.0
 11
4.52134
 21
133.402
 31
0.0
  0
LINE
  8
0
 62
     0
 10
4.52134
 20
133.402
 30
0.0
 11
4.59437
 21
132.938
 31
0.0
  0
LINE
  8
0
 62
     0
 10
4.59437
 20
132.938
 30
0.0
 11
4.52134
 21
132.474
 31
0.0
  0
LINE
  8
0
 62
     0
 10
4.52134
 20
132.474
 30
0.0
 11
4.30773
 21
132.056
 31
0.0
  0
LINE
  8
0
 62
     0
 10
4.30773
 20
132.056
 30
0.0
 11
3.97563
 21
131.724
 31
0.0
  0
LINE
  8
0
 62
     0
 10
3.97563
 20
131.724
 30
0.0
 11
3.55808
 21
131.51
 31
0.0
  0
LINE
  8
0
 62
     0
 10
3.55808
 20
131.51
 30
0.0
 11
3.0937
 21
131.437
 31
0.0
  0
LINE
  8
0
 62
     0
 10
3.0937
 20
131.437
 30
0.0
 11
2.6293
 21
131.51
 31
0.0
  0
LINE
  8
0
 62
     0
 10
2.6293
 20
131.51
 30
0.0
 11
2.21175
 21
131.724
 31
0.0
  0
LINE
  8
0
 62
     0
 10
2.21175
 20
131.724
 30
0.0
 11
1.87965
 21
132.056
 31
0.0
  0
LINE
  8
0
 62
     0
 10
1.87965
 20
132.056
 30
0.0
 11
1.66743
 21
132.474
 31
0.0
  0
LINE
  8
0
 62
     0
 10
1.66743
 20
132.474
 30
0.0
 11
1.59439
 21
132.938
 31
0.0
  0
LINE
  8
0
 62
     0
 10
1.59439
 20
132.938
 30
0.0
 11
1.66743
 21
133.402
 31
0.0
  0
LINE
  8
0
 62
     0
 10
1.66743
 20
133.402
 30
0.0
 11
1.87965
 21
133.82
 31
0.0
  0
LINE
  8
0
 62
     0
 10
1.87965
 20
133.82
 30
0.0
 11
2.21175
 21
134.152
 31
0.0
  0
LINE
  8
0
 62
     0
 10
2.21175
 20
134.152
 30
0.0
 11
2.6293
 21
134.364
 31
0.0
  0
LINE
  8
0
 62
     0
 10
2.6293
 20
134.364
 30
0.0
 11
3.0937
 21
134.437
 31
0.0
  0
ENDSEC
  0
EOF
