<?xml version="1.0"?>
<!-- Generated by SVGo -->
<svg width="369.663mm" height="145.825mm"
     viewBox="0.000 0.000 369.663 145.825"
     xmlns="http://www.w3.org/2000/svg" 
     xmlns:xlink="http://www.w3.org/1999/xlink">
<polygon points="364.663,7.000 364.656,6.843 364.638,6.687 364.607,6.533 364.565,6.382 364.510,6.235 364.445,6.092 364.368,5.955 364.281,5.824 364.183,5.701 364.077,5.586 363.961,5.479 363.838,5.382 363.707,5.295 363.570,5.218 363.428,5.152 363.281,5.098 363.129,5.055 362.975,5.025 362.819,5.006 362.663,5.000 189.831,5.000 189.831,11.000 358.663,11.000 358.663,134.825 11.000,134.825 11.000,11.000 179.831,11.000 179.831,5.000 7.000,5.000 6.843,5.006 6.687,5.025 6.533,5.055 6.382,5.098 6.235,5.152 6.092,5.218 5.955,5.295 5.824,5.382 5.701,5.479 5.586,5.586 5.479,5.701 5.382,5.824 5.295,5.955 5.218,6.092 5.152,6.235 5.098,6.382 5.055,6.533 5.025,6.687 5.006,6.843 5.000,7.000 5.000,138.825 5.006,138.982 5.025,139.138 5.055,139.292 5.098,139.443 5.152,139.590 5.218,139.733 5.295,139.870 5.382,140.001 5.479,140.124 5.586,140.239 5.701,140.346 5.824,140.443 5.955,140.530 6.092,140.607 6.235,140.673 6.382,140.727 6.533,140.770 6.687,140.800 6.843,140.819 7.000,140.825 362.662,140.825 362.819,140.819 362.975,140.800 363.129,140.770 363.281,140.727 363.428,140.673 363.570,140.607 363.707,140.530 363.838,140.443 363.961,140.346 364.077,140.239 364.183,140.124 364.281,140.001 364.368,139.870 364.445,139.733 364.510,139.590 364.565,139.443 364.607,139.292 364.638,139.138 364.656,138.982 364.663,138.825" style="fill:none;stroke-width:0.2;stroke:black"/>
<polygon points="125.888,6.500 126.351,6.573 126.769,6.786 127.101,7.118 127.314,7.536 127.388,8.000 127.314,8.464 127.101,8.882 126.769,9.214 126.351,9.427 125.888,9.500 125.424,9.427 125.006,9.214 124.674,8.882 124.461,8.464 124.388,8.000 124.461,7.536 124.674,7.118 125.006,6.786 125.424,6.573" style="fill:none;stroke-width:0.2;stroke:black"/>
<polygon points="243.775,6.500 244.239,6.573 244.657,6.786 244.989,7.118 245.202,7.536 245.275,8.000 245.202,8.464 244.989,8.882 244.657,9.214 244.239,9.427 243.775,9.500 243.311,9.427 242.893,9.214 242.561,8.882 242.348,8.464 242.275,8.000 242.348,7.536 242.561,7.118 242.893,6.786 243.311,6.573" style="fill:none;stroke-width:0.2;stroke:black"/>
<polygon points="361.663,6.500 362.126,6.573 362.544,6.786 362.876,7.118 363.089,7.536 363.162,8.000 363.089,8.464 362.876,8.882 362.544,9.214 362.126,9.427 361.663,9.500 361.199,9.427 360.781,9.214 360.449,8.882 360.236,8.464 360.163,8.000 360.236,7.536 360.449,7.118 360.781,6.786 361.199,6.573" style="fill:none;stroke-width:0.2;stroke:black"/>
<polygon points="361.663,136.325 362.126,136.398 362.544,136.611 362.876,136.943 363.089,137.361 363.162,137.825 363.089,138.289 362.876,138.707 362.544,139.039 362.126,139.252 361.663,139.325 361.199,139.252 360.781,139.039 360.449,138.707 360.236,138.289 360.163,137.825 360.236,137.361 360.449,136.943 360.781,136.611 361.199,136.398" style="fill:none;stroke-width:0.2;stroke:black"/>
<polygon points="243.775,136.325 244.239,136.398 244.657,136.611 244.989,136.943 245.202,137.361 245.275,137.825 245.202,138.289 244.989,138.707 244.657,139.039 244.239,139.252 243.775,139.325 243.311,139.252 242.893,139.039 242.561,138.707 242.348,138.289 242.275,137.825 242.348,137.361 242.561,136.943 242.893,136.611 243.311,136.398" style="fill:none;stroke-width:0.2;stroke:black"/>
<polygon points="125.888,136.325 126.351,136.398 126.769,136.611 127.101,136.943 127.314,137.361 127.388,137.825 127.314,138.289 127.101,138.707 126.769,139.039 126.351,139.252 125.888,139.325 125.424,139.252 125.006,139.039 124.674,138.707 124.461,138.289 124.388,137.825 124.461,137.361 124.674,136.943 125.006,136.611 125.424,136.398" style="fill:none;stroke-width:0.2;stroke:black"/>
<polygon points="8.000,136.325 8.464,136.398 8.882,136.611 9.214,136.943 9.427,137.361 9.500,137.825 9.427,138.289 9.214,138.707 8.882,139.039 8.464,139.252 8.000,139.325 7.536,139.252 7.118,139.039 6.786,138.707 6.573,138.289 6.500,137.825 6.573,137.361 6.786,136.943 7.118,136.611 7.536,136.398" style="fill:none;stroke-width:0.2;stroke:black"/>
<polygon points="8.000,6.500 8.464,6.573 8.882,6.786 9.214,7.118 9.427,7.536 9.500,8.000 9.427,8.464 9.214,8.882 8.882,9.214 8.464,9.427 8.000,9.500 7.536,9.427 7.118,9.214 6.786,8.882 6.573,8.464 6.500,8.000 6.573,7.536 6.786,7.118 7.118,6.786 7.536,6.573" style="fill:none;stroke-width:0.2;stroke:black"/>
</svg>
