<?xml version="1.0"?>
<!-- Generated by SVGo -->
<svg width="369.663mm" height="145.825mm"
     viewBox="0.000 0.000 369.663 145.825"
     xmlns="http://www.w3.org/2000/svg" 
     xmlns:xlink="http://www.w3.org/1999/xlink">
<polygon points="362.663,5.000 362.819,5.006 362.975,5.025 363.129,5.055 363.281,5.098 363.428,5.152 363.570,5.218 363.707,5.295 363.838,5.382 363.961,5.479 364.077,5.586 364.183,5.701 364.281,5.824 364.368,5.955 364.445,6.092 364.510,6.235 364.565,6.382 364.607,6.533 364.638,6.687 364.656,6.843 364.663,7.000 364.663,138.825 364.656,138.982 364.638,139.138 364.607,139.292 364.565,139.443 364.510,139.590 364.445,139.733 364.368,139.870 364.281,140.001 364.183,140.124 364.077,140.239 363.961,140.346 363.838,140.443 363.707,140.530 363.570,140.607 363.428,140.673 363.281,140.727 363.129,140.770 362.975,140.800 362.819,140.819 362.662,140.825 7.000,140.825 6.843,140.819 6.687,140.800 6.533,140.770 6.382,140.727 6.235,140.673 6.092,140.607 5.955,140.530 5.824,140.443 5.701,140.346 5.586,140.239 5.479,140.124 5.382,140.001 5.295,139.870 5.218,139.733 5.152,139.590 5.098,139.443 5.055,139.292 5.025,139.138 5.006,138.982 5.000,138.825 5.000,7.000 5.006,6.843 5.025,6.687 5.055,6.533 5.098,6.382 5.152,6.235 5.218,6.092 5.295,5.955 5.382,5.824 5.479,5.701 5.586,5.586 5.701,5.479 5.824,5.382 5.955,5.295 6.092,5.218 6.235,5.152 6.382,5.098 6.533,5.055 6.687,5.025 6.843,5.006 7.000,5.000" style="fill:none;stroke-width:0.2;stroke:black"/>
<polygon points="125.888,6.500 126.351,6.573 126.769,6.786 127.101,7.118 127.314,7.536 127.388,8.000 127.314,8.464 127.101,8.882 126.769,9.214 126.351,9.427 125.888,9.500 125.424,9.427 125.006,9.214 124.674,8.882 124.461,8.464 124.388,8.000 124.461,7.536 124.674,7.118 125.006,6.786 125.424,6.573" style="fill:none;stroke-width:0.2;stroke:black"/>
<polygon points="243.775,6.500 244.239,6.573 244.657,6.786 244.989,7.118 245.202,7.536 245.275,8.000 245.202,8.464 244.989,8.882 244.657,9.214 244.239,9.427 243.775,9.500 243.311,9.427 242.893,9.214 242.561,8.882 242.348,8.464 242.275,8.000 242.348,7.536 242.561,7.118 242.893,6.786 243.311,6.573" style="fill:none;stroke-width:0.2;stroke:black"/>
<polygon points="361.663,6.500 362.126,6.573 362.544,6.786 362.876,7.118 363.089,7.536 363.162,8.000 363.089,8.464 362.876,8.882 362.544,9.214 362.126,9.427 361.663,9.500 361.199,9.427 360.781,9.214 360.449,8.882 360.236,8.464 360.163,8.000 360.236,7.536 360.449,7.118 360.781,6.786 361.199,6.573" style="fill:none;stroke-width:0.2;stroke:black"/>
<polygon points="361.663,136.325 362.126,136.398 362.544,136.611 362.876,136.943 363.089,137.361 363.162,137.825 363.089,138.289 362.876,138.707 362.544,139.039 362.126,139.252 361.663,139.325 361.199,139.252 360.781,139.039 360.449,138.707 360.236,138.289 360.163,137.825 360.236,137.361 360.449,136.943 360.781,136.611 361.199,136.398" style="fill:none;stroke-width:0.2;stroke:black"/>
<polygon points="243.775,136.325 244.239,136.398 244.657,136.611 244.989,136.943 245.202,137.361 245.275,137.825 245.202,138.289 244.989,138.707 244.657,139.039 244.239,139.252 243.775,139.325 243.311,139.252 242.893,139.039 242.561,138.707 242.348,138.289 242.275,137.825 242.348,137.361 242.561,136.943 242.893,136.611 243.311,136.398" style="fill:none;stroke-width:0.2;stroke:black"/>
<polygon points="125.888,136.325 126.351,136.398 126.769,136.611 127.101,136.943 127.314,137.361 127.388,137.825 127.314,138.289 127.101,138.707 126.769,139.039 126.351,139.252 125.888,139.325 125.424,139.252 125.006,139.039 124.674,138.707 124.461,138.289 124.388,137.825 124.461,137.361 124.674,136.943 125.006,136.611 125.424,136.398" style="fill:none;stroke-width:0.2;stroke:black"/>
<polygon points="8.000,136.325 8.464,136.398 8.882,136.611 9.214,136.943 9.427,137.361 9.500,137.825 9.427,138.289 9.214,138.707 8.882,139.039 8.464,139.252 8.000,139.325 7.536,139.252 7.118,139.039 6.786,138.707 6.573,138.289 6.500,137.825 6.573,137.361 6.786,136.943 7.118,136.611 7.536,136.398" style="fill:none;stroke-width:0.2;stroke:black"/>
<polygon points="8.000,6.500 8.464,6.573 8.882,6.786 9.214,7.118 9.427,7.536 9.500,8.000 9.427,8.464 9.214,8.882 8.882,9.214 8.464,9.427 8.000,9.500 7.536,9.427 7.118,9.214 6.786,8.882 6.573,8.464 6.500,8.000 6.573,7.536 6.786,7.118 7.118,6.786 7.536,6.573" style="fill:none;stroke-width:0.2;stroke:black"/>
<polygon points="27.525,26.925 27.525,27.525 13.525,27.525 13.525,26.925 12.725,26.925 12.725,14.125 13.525,14.125 13.525,13.525 27.525,13.525 27.525,14.125 28.325,14.125 28.325,26.925" style="fill:none;stroke-width:0.2;stroke:black"/>
<polygon points="27.525,55.500 27.525,56.100 13.525,56.100 13.525,55.500 12.725,55.500 12.725,42.700 13.525,42.700 13.525,42.100 27.525,42.100 27.525,42.700 28.325,42.700 28.325,55.500" style="fill:none;stroke-width:0.2;stroke:black"/>
<polygon points="29.906,131.700 29.906,132.300 15.906,132.300 15.906,131.700 15.106,131.700 15.106,118.900 15.906,118.900 15.906,118.300 29.906,118.300 29.906,118.900 30.706,118.900 30.706,131.700" style="fill:none;stroke-width:0.2;stroke:black"/>
<polygon points="32.288,74.550 32.288,75.150 18.288,75.150 18.288,74.550 17.488,74.550 17.488,61.750 18.288,61.750 18.288,61.150 32.288,61.150 32.288,61.750 33.087,61.750 33.087,74.550" style="fill:none;stroke-width:0.2;stroke:black"/>
<polygon points="34.669,93.600 34.669,94.200 20.669,94.200 20.669,93.600 19.869,93.600 19.869,80.800 20.669,80.800 20.669,80.200 34.669,80.200 34.669,80.800 35.469,80.800 35.469,93.600" style="fill:none;stroke-width:0.2;stroke:black"/>
<polygon points="46.575,55.500 46.575,56.100 32.575,56.100 32.575,55.500 31.775,55.500 31.775,42.700 32.575,42.700 32.575,42.100 46.575,42.100 46.575,42.700 47.375,42.700 47.375,55.500" style="fill:none;stroke-width:0.2;stroke:black"/>
<polygon points="47.656,106.750 47.656,113.020 46.031,113.020 46.031,114.000 42.731,114.000 42.731,113.020 41.006,113.020 41.006,112.220 40.231,112.220 40.231,112.650 39.431,112.650 39.431,113.250 25.431,113.250 25.431,112.650 24.631,112.650 24.631,112.220 23.856,112.220 23.856,113.020 22.131,113.020 22.131,114.000 18.831,114.000 18.831,113.020 17.206,113.020 17.206,106.750 16.331,106.750 16.331,103.950 17.206,103.950 17.206,100.720 18.831,100.720 18.831,99.800 22.131,99.800 22.131,100.720 23.856,100.720 23.856,101.520 24.631,101.520 24.631,99.850 25.431,99.850 25.431,99.250 39.431,99.250 39.431,99.850 40.231,99.850 40.231,101.520 41.006,101.520 41.006,100.720 42.731,100.720 42.731,99.800 46.031,99.800 46.031,100.720 47.656,100.720 47.656,103.950 48.531,103.950 48.531,106.750" style="fill:none;stroke-width:0.2;stroke:black"/>
<polygon points="53.719,131.700 53.719,132.300 39.719,132.300 39.719,131.700 38.919,131.700 38.919,118.900 39.719,118.900 39.719,118.300 53.719,118.300 53.719,118.900 54.519,118.900 54.519,131.700" style="fill:none;stroke-width:0.2;stroke:black"/>
<polygon points="56.100,74.550 56.100,75.150 42.100,75.150 42.100,74.550 41.300,74.550 41.300,61.750 42.100,61.750 42.100,61.150 56.100,61.150 56.100,61.750 56.900,61.750 56.900,74.550" style="fill:none;stroke-width:0.2;stroke:black"/>
<polygon points="60.862,93.600 60.862,94.200 46.862,94.200 46.862,93.600 46.062,93.600 46.062,80.800 46.862,80.800 46.862,80.200 60.862,80.200 60.862,80.800 61.662,80.800 61.662,93.600" style="fill:none;stroke-width:0.2;stroke:black"/>
<polygon points="65.625,26.925 65.625,27.525 51.625,27.525 51.625,26.925 50.825,26.925 50.825,14.125 51.625,14.125 51.625,13.525 65.625,13.525 65.625,14.125 66.425,14.125 66.425,26.925" style="fill:none;stroke-width:0.2;stroke:black"/>
<polygon points="65.625,55.500 65.625,56.100 51.625,56.100 51.625,55.500 50.825,55.500 50.825,42.700 51.625,42.700 51.625,42.100 65.625,42.100 65.625,42.700 66.425,42.700 66.425,55.500" style="fill:none;stroke-width:0.2;stroke:black"/>
<polygon points="70.388,112.650 70.388,113.250 56.388,113.250 56.388,112.650 55.588,112.650 55.588,99.850 56.388,99.850 56.388,99.250 70.388,99.250 70.388,99.850 71.188,99.850 71.188,112.650" style="fill:none;stroke-width:0.2;stroke:black"/>
<polygon points="75.150,74.550 75.150,75.150 61.150,75.150 61.150,74.550 60.350,74.550 60.350,61.750 61.150,61.750 61.150,61.150 75.150,61.150 75.150,61.750 75.950,61.750 75.950,74.550" style="fill:none;stroke-width:0.2;stroke:black"/>
<polygon points="77.531,131.700 77.531,132.300 63.531,132.300 63.531,131.700 62.731,131.700 62.731,118.900 63.531,118.900 63.531,118.300 77.531,118.300 77.531,118.900 78.331,118.900 78.331,131.700" style="fill:none;stroke-width:0.2;stroke:black"/>
<polygon points="79.912,93.600 79.912,94.200 65.912,94.200 65.912,93.600 65.112,93.600 65.112,80.800 65.912,80.800 65.912,80.200 79.912,80.200 79.912,80.800 80.712,80.800 80.712,93.600" style="fill:none;stroke-width:0.2;stroke:black"/>
<polygon points="84.675,26.925 84.675,27.525 70.675,27.525 70.675,26.925 69.875,26.925 69.875,14.125 70.675,14.125 70.675,13.525 84.675,13.525 84.675,14.125 85.475,14.125 85.475,26.925" style="fill:none;stroke-width:0.2;stroke:black"/>
<polygon points="84.675,55.500 84.675,56.100 70.675,56.100 70.675,55.500 69.875,55.500 69.875,42.700 70.675,42.700 70.675,42.100 84.675,42.100 84.675,42.700 85.475,42.700 85.475,55.500" style="fill:none;stroke-width:0.2;stroke:black"/>
<polygon points="89.438,112.650 89.438,113.250 75.438,113.250 75.438,112.650 74.638,112.650 74.638,99.850 75.438,99.850 75.438,99.250 89.438,99.250 89.438,99.850 90.238,99.850 90.238,112.650" style="fill:none;stroke-width:0.2;stroke:black"/>
<polygon points="94.200,74.550 94.200,75.150 80.200,75.150 80.200,74.550 79.400,74.550 79.400,61.750 80.200,61.750 80.200,61.150 94.200,61.150 94.200,61.750 95.000,61.750 95.000,74.550" style="fill:none;stroke-width:0.2;stroke:black"/>
<polygon points="98.962,93.600 98.962,94.200 84.962,94.200 84.962,93.600 84.162,93.600 84.162,80.800 84.962,80.800 84.962,80.200 98.962,80.200 98.962,80.800 99.762,80.800 99.762,93.600" style="fill:none;stroke-width:0.2;stroke:black"/>
<polygon points="103.725,26.925 103.725,27.525 89.725,27.525 89.725,26.925 88.925,26.925 88.925,14.125 89.725,14.125 89.725,13.525 103.725,13.525 103.725,14.125 104.525,14.125 104.525,26.925" style="fill:none;stroke-width:0.2;stroke:black"/>
<polygon points="103.725,55.500 103.725,56.100 89.725,56.100 89.725,55.500 88.925,55.500 88.925,42.700 89.725,42.700 89.725,42.100 103.725,42.100 103.725,42.700 104.525,42.700 104.525,55.500" style="fill:none;stroke-width:0.2;stroke:black"/>
<polygon points="108.488,112.650 108.488,113.250 94.488,113.250 94.488,112.650 93.688,112.650 93.688,99.850 94.488,99.850 94.488,99.250 108.488,99.250 108.488,99.850 109.288,99.850 109.288,112.650" style="fill:none;stroke-width:0.2;stroke:black"/>
<polygon points="113.250,74.550 113.250,75.150 99.250,75.150 99.250,74.550 98.450,74.550 98.450,61.750 99.250,61.750 99.250,61.150 113.250,61.150 113.250,61.750 114.050,61.750 114.050,74.550" style="fill:none;stroke-width:0.2;stroke:black"/>
<polygon points="118.012,93.600 118.012,94.200 104.012,94.200 104.012,93.600 103.212,93.600 103.212,80.800 104.012,80.800 104.012,80.200 118.012,80.200 118.012,80.800 118.812,80.800 118.812,93.600" style="fill:none;stroke-width:0.2;stroke:black"/>
<polygon points="122.775,26.925 122.775,27.525 108.775,27.525 108.775,26.925 107.975,26.925 107.975,14.125 108.775,14.125 108.775,13.525 122.775,13.525 122.775,14.125 123.575,14.125 123.575,26.925" style="fill:none;stroke-width:0.2;stroke:black"/>
<polygon points="122.775,55.500 122.775,56.100 108.775,56.100 108.775,55.500 107.975,55.500 107.975,42.700 108.775,42.700 108.775,42.100 122.775,42.100 122.775,42.700 123.575,42.700 123.575,55.500" style="fill:none;stroke-width:0.2;stroke:black"/>
<polygon points="127.538,112.650 127.538,113.250 113.538,113.250 113.538,112.650 112.738,112.650 112.738,99.850 113.538,99.850 113.538,99.250 127.538,99.250 127.538,99.850 128.338,99.850 128.338,112.650" style="fill:none;stroke-width:0.2;stroke:black"/>
<polygon points="132.300,74.550 132.300,75.150 118.300,75.150 118.300,74.550 117.500,74.550 117.500,61.750 118.300,61.750 118.300,61.150 132.300,61.150 132.300,61.750 133.100,61.750 133.100,74.550" style="fill:none;stroke-width:0.2;stroke:black"/>
<polygon points="137.062,93.600 137.062,94.200 123.062,94.200 123.062,93.600 122.263,93.600 122.263,80.800 123.062,80.800 123.062,80.200 137.062,80.200 137.062,80.800 137.863,80.800 137.863,93.600" style="fill:none;stroke-width:0.2;stroke:black"/>
<polygon points="141.825,55.500 141.825,56.100 127.825,56.100 127.825,55.500 127.025,55.500 127.025,42.700 127.825,42.700 127.825,42.100 141.825,42.100 141.825,42.700 142.625,42.700 142.625,55.500" style="fill:none;stroke-width:0.2;stroke:black"/>
<polygon points="146.588,112.650 146.588,113.250 132.588,113.250 132.588,112.650 131.787,112.650 131.787,99.850 132.588,99.850 132.588,99.250 146.588,99.250 146.588,99.850 147.388,99.850 147.388,112.650" style="fill:none;stroke-width:0.2;stroke:black"/>
<polygon points="151.350,26.925 151.350,27.525 137.350,27.525 137.350,26.925 136.550,26.925 136.550,14.125 137.350,14.125 137.350,13.525 151.350,13.525 151.350,14.125 152.150,14.125 152.150,26.925" style="fill:none;stroke-width:0.2;stroke:black"/>
<polygon points="151.350,74.550 151.350,75.150 137.350,75.150 137.350,74.550 136.550,74.550 136.550,61.750 137.350,61.750 137.350,61.150 151.350,61.150 151.350,61.750 152.150,61.750 152.150,74.550" style="fill:none;stroke-width:0.2;stroke:black"/>
<polygon points="156.113,93.600 156.113,94.200 142.113,94.200 142.113,93.600 141.312,93.600 141.312,80.800 142.113,80.800 142.113,80.200 156.113,80.200 156.113,80.800 156.913,80.800 156.913,93.600" style="fill:none;stroke-width:0.2;stroke:black"/>
<polygon points="160.875,55.500 160.875,56.100 146.875,56.100 146.875,55.500 146.075,55.500 146.075,42.700 146.875,42.700 146.875,42.100 160.875,42.100 160.875,42.700 161.675,42.700 161.675,55.500" style="fill:none;stroke-width:0.2;stroke:black"/>
<polygon points="165.638,112.650 165.638,113.250 151.638,113.250 151.638,112.650 150.838,112.650 150.838,99.850 151.638,99.850 151.638,99.250 165.638,99.250 165.638,99.850 166.438,99.850 166.438,112.650" style="fill:none;stroke-width:0.2;stroke:black"/>
<polygon points="170.400,26.925 170.400,27.525 156.400,27.525 156.400,26.925 155.600,26.925 155.600,14.125 156.400,14.125 156.400,13.525 170.400,13.525 170.400,14.125 171.200,14.125 171.200,26.925" style="fill:none;stroke-width:0.2;stroke:black"/>
<polygon points="170.400,74.550 170.400,75.150 156.400,75.150 156.400,74.550 155.600,74.550 155.600,61.750 156.400,61.750 156.400,61.150 170.400,61.150 170.400,61.750 171.200,61.750 171.200,74.550" style="fill:none;stroke-width:0.2;stroke:black"/>
<polygon points="175.163,93.600 175.163,94.200 161.163,94.200 161.163,93.600 160.363,93.600 160.363,80.800 161.163,80.800 161.163,80.200 175.163,80.200 175.163,80.800 175.963,80.800 175.963,93.600" style="fill:none;stroke-width:0.2;stroke:black"/>
<polygon points="179.925,55.500 179.925,56.100 165.925,56.100 165.925,55.500 165.125,55.500 165.125,42.700 165.925,42.700 165.925,42.100 179.925,42.100 179.925,42.700 180.725,42.700 180.725,55.500" style="fill:none;stroke-width:0.2;stroke:black"/>
<polygon points="184.688,112.650 184.688,113.250 170.688,113.250 170.688,112.650 169.888,112.650 169.888,99.850 170.688,99.850 170.688,99.250 184.688,99.250 184.688,99.850 185.488,99.850 185.488,112.650" style="fill:none;stroke-width:0.2;stroke:black"/>
<polygon points="189.450,26.925 189.450,27.525 175.450,27.525 175.450,26.925 174.650,26.925 174.650,14.125 175.450,14.125 175.450,13.525 189.450,13.525 189.450,14.125 190.250,14.125 190.250,26.925" style="fill:none;stroke-width:0.2;stroke:black"/>
<polygon points="189.450,74.550 189.450,75.150 175.450,75.150 175.450,74.550 174.650,74.550 174.650,61.750 175.450,61.750 175.450,61.150 189.450,61.150 189.450,61.750 190.250,61.750 190.250,74.550" style="fill:none;stroke-width:0.2;stroke:black"/>
<polygon points="194.213,93.600 194.213,94.200 180.213,94.200 180.213,93.600 179.413,93.600 179.413,80.800 180.213,80.800 180.213,80.200 194.213,80.200 194.213,80.800 195.013,80.800 195.013,93.600" style="fill:none;stroke-width:0.2;stroke:black"/>
<polygon points="195.294,125.800 195.294,132.070 193.619,132.070 193.619,133.050 190.319,133.050 190.319,132.070 188.644,132.070 188.644,127.600 149.769,127.600 149.769,131.700 148.969,131.700 148.969,132.300 134.969,132.300 134.969,131.700 134.169,131.700 134.169,127.600 95.294,127.600 95.294,132.070 93.619,132.070 93.619,133.050 90.319,133.050 90.319,132.070 88.644,132.070 88.644,125.800 87.769,125.800 87.769,123.000 88.644,123.000 88.644,119.770 90.319,119.770 90.319,118.850 93.619,118.850 93.619,119.770 95.294,119.770 95.294,123.000 134.169,123.000 134.169,118.900 134.969,118.900 134.969,118.300 148.969,118.300 148.969,118.900 149.769,118.900 149.769,123.000 188.644,123.000 188.644,119.770 190.319,119.770 190.319,118.850 193.619,118.850 193.619,119.770 195.294,119.770 195.294,123.000 196.169,123.000 196.169,125.800" style="fill:none;stroke-width:0.2;stroke:black"/>
<polygon points="198.975,55.500 198.975,56.100 184.975,56.100 184.975,55.500 184.175,55.500 184.175,42.700 184.975,42.700 184.975,42.100 198.975,42.100 198.975,42.700 199.775,42.700 199.775,55.500" style="fill:none;stroke-width:0.2;stroke:black"/>
<polygon points="203.738,112.650 203.738,113.250 189.738,113.250 189.738,112.650 188.938,112.650 188.938,99.850 189.738,99.850 189.738,99.250 203.738,99.250 203.738,99.850 204.538,99.850 204.538,112.650" style="fill:none;stroke-width:0.2;stroke:black"/>
<polygon points="208.500,26.925 208.500,27.525 194.500,27.525 194.500,26.925 193.700,26.925 193.700,14.125 194.500,14.125 194.500,13.525 208.500,13.525 208.500,14.125 209.300,14.125 209.300,26.925" style="fill:none;stroke-width:0.2;stroke:black"/>
<polygon points="208.500,74.550 208.500,75.150 194.500,75.150 194.500,74.550 193.700,74.550 193.700,61.750 194.500,61.750 194.500,61.150 208.500,61.150 208.500,61.750 209.300,61.750 209.300,74.550" style="fill:none;stroke-width:0.2;stroke:black"/>
<polygon points="213.263,93.600 213.263,94.200 199.263,94.200 199.263,93.600 198.463,93.600 198.463,80.800 199.263,80.800 199.263,80.200 213.263,80.200 213.263,80.800 214.063,80.800 214.063,93.600" style="fill:none;stroke-width:0.2;stroke:black"/>
<polygon points="218.025,55.500 218.025,56.100 204.025,56.100 204.025,55.500 203.225,55.500 203.225,42.700 204.025,42.700 204.025,42.100 218.025,42.100 218.025,42.700 218.825,42.700 218.825,55.500" style="fill:none;stroke-width:0.2;stroke:black"/>
<polygon points="220.406,131.700 220.406,132.300 206.406,132.300 206.406,131.700 205.606,131.700 205.606,118.900 206.406,118.900 206.406,118.300 220.406,118.300 220.406,118.900 221.206,118.900 221.206,131.700" style="fill:none;stroke-width:0.2;stroke:black"/>
<polygon points="222.788,112.650 222.788,113.250 208.788,113.250 208.788,112.650 207.988,112.650 207.988,99.850 208.788,99.850 208.788,99.250 222.788,99.250 222.788,99.850 223.588,99.850 223.588,112.650" style="fill:none;stroke-width:0.2;stroke:black"/>
<polygon points="227.550,74.550 227.550,75.150 213.550,75.150 213.550,74.550 212.750,74.550 212.750,61.750 213.550,61.750 213.550,61.150 227.550,61.150 227.550,61.750 228.350,61.750 228.350,74.550" style="fill:none;stroke-width:0.2;stroke:black"/>
<polygon points="232.313,93.600 232.313,94.200 218.313,94.200 218.313,93.600 217.513,93.600 217.513,80.800 218.313,80.800 218.313,80.200 232.313,80.200 232.313,80.800 233.113,80.800 233.113,93.600" style="fill:none;stroke-width:0.2;stroke:black"/>
<polygon points="237.075,26.925 237.075,27.525 223.075,27.525 223.075,26.925 222.275,26.925 222.275,14.125 223.075,14.125 223.075,13.525 237.075,13.525 237.075,14.125 237.875,14.125 237.875,26.925" style="fill:none;stroke-width:0.2;stroke:black"/>
<polygon points="237.075,55.500 237.075,56.100 223.075,56.100 223.075,55.500 222.275,55.500 222.275,42.700 223.075,42.700 223.075,42.100 237.075,42.100 237.075,42.700 237.875,42.700 237.875,55.500" style="fill:none;stroke-width:0.2;stroke:black"/>
<polygon points="241.838,112.650 241.838,113.250 227.838,113.250 227.838,112.650 227.038,112.650 227.038,99.850 227.838,99.850 227.838,99.250 241.838,99.250 241.838,99.850 242.638,99.850 242.638,112.650" style="fill:none;stroke-width:0.2;stroke:black"/>
<polygon points="244.219,131.700 244.219,132.300 230.219,132.300 230.219,131.700 229.419,131.700 229.419,118.900 230.219,118.900 230.219,118.300 244.219,118.300 244.219,118.900 245.019,118.900 245.019,131.700" style="fill:none;stroke-width:0.2;stroke:black"/>
<polygon points="246.600,74.550 246.600,75.150 232.600,75.150 232.600,74.550 231.800,74.550 231.800,61.750 232.600,61.750 232.600,61.150 246.600,61.150 246.600,61.750 247.400,61.750 247.400,74.550" style="fill:none;stroke-width:0.2;stroke:black"/>
<polygon points="251.363,93.600 251.363,94.200 237.363,94.200 237.363,93.600 236.563,93.600 236.563,80.800 237.363,80.800 237.363,80.200 251.363,80.200 251.363,80.800 252.163,80.800 252.163,93.600" style="fill:none;stroke-width:0.2;stroke:black"/>
<polygon points="256.125,26.925 256.125,27.525 242.125,27.525 242.125,26.925 241.325,26.925 241.325,14.125 242.125,14.125 242.125,13.525 256.125,13.525 256.125,14.125 256.925,14.125 256.925,26.925" style="fill:none;stroke-width:0.2;stroke:black"/>
<polygon points="256.125,55.500 256.125,56.100 242.125,56.100 242.125,55.500 241.325,55.500 241.325,42.700 242.125,42.700 242.125,42.100 256.125,42.100 256.125,42.700 256.925,42.700 256.925,55.500" style="fill:none;stroke-width:0.2;stroke:black"/>
<polygon points="265.650,74.550 265.650,75.150 251.650,75.150 251.650,74.550 250.850,74.550 250.850,61.750 251.650,61.750 251.650,61.150 265.650,61.150 265.650,61.750 266.450,61.750 266.450,74.550" style="fill:none;stroke-width:0.2;stroke:black"/>
<polygon points="268.031,131.700 268.031,132.300 254.031,132.300 254.031,131.700 253.231,131.700 253.231,118.900 254.031,118.900 254.031,118.300 268.031,118.300 268.031,118.900 268.831,118.900 268.831,131.700" style="fill:none;stroke-width:0.2;stroke:black"/>
<polygon points="275.175,26.925 275.175,27.525 261.175,27.525 261.175,26.925 260.375,26.925 260.375,14.125 261.175,14.125 261.175,13.525 275.175,13.525 275.175,14.125 275.975,14.125 275.975,26.925" style="fill:none;stroke-width:0.2;stroke:black"/>
<polygon points="285.781,106.750 285.781,113.020 284.156,113.020 284.156,114.000 280.856,114.000 280.856,113.020 279.131,113.020 279.131,112.220 278.356,112.220 278.356,112.650 277.556,112.650 277.556,113.250 263.556,113.250 263.556,112.650 262.756,112.650 262.756,112.220 261.981,112.220 261.981,113.020 260.256,113.020 260.256,114.000 256.956,114.000 256.956,113.020 255.331,113.020 255.331,106.750 254.456,106.750 254.456,103.950 255.331,103.950 255.331,100.720 256.956,100.720 256.956,99.800 260.256,99.800 260.256,100.720 261.981,100.720 261.981,101.520 262.756,101.520 262.756,99.850 263.556,99.850 263.556,99.250 277.556,99.250 277.556,99.850 278.356,99.850 278.356,101.520 279.131,101.520 279.131,100.720 280.856,100.720 280.856,99.800 284.156,99.800 284.156,100.720 285.781,100.720 285.781,103.950 286.656,103.950 286.656,106.750" style="fill:none;stroke-width:0.2;stroke:black"/>
<polygon points="289.463,74.550 289.463,75.150 275.463,75.150 275.463,74.550 274.663,74.550 274.663,61.750 275.463,61.750 275.463,61.150 289.463,61.150 289.463,61.750 290.263,61.750 290.263,74.550" style="fill:none;stroke-width:0.2;stroke:black"/>
<polygon points="290.544,87.700 290.544,93.970 288.919,93.970 288.919,94.950 285.619,94.950 285.619,93.970 283.894,93.970 283.894,93.170 283.119,93.170 283.119,93.600 282.319,93.600 282.319,94.200 268.319,94.200 268.319,93.600 267.519,93.600 267.519,93.170 266.744,93.170 266.744,93.970 265.019,93.970 265.019,94.950 261.719,94.950 261.719,93.970 260.094,93.970 260.094,87.700 259.219,87.700 259.219,84.900 260.094,84.900 260.094,81.670 261.719,81.670 261.719,80.750 265.019,80.750 265.019,81.670 266.744,81.670 266.744,82.470 267.519,82.470 267.519,80.800 268.319,80.800 268.319,80.200 282.319,80.200 282.319,80.800 283.119,80.800 283.119,82.470 283.894,82.470 283.894,81.670 285.619,81.670 285.619,80.750 288.919,80.750 288.919,81.670 290.544,81.670 290.544,84.900 291.419,84.900 291.419,87.700" style="fill:none;stroke-width:0.2;stroke:black"/>
<polygon points="291.844,131.700 291.844,132.300 277.844,132.300 277.844,131.700 277.044,131.700 277.044,118.900 277.844,118.900 277.844,118.300 291.844,118.300 291.844,118.900 292.644,118.900 292.644,131.700" style="fill:none;stroke-width:0.2;stroke:black"/>
<polygon points="292.925,49.600 292.925,55.870 291.300,55.870 291.300,56.850 288.000,56.850 288.000,55.870 286.275,55.870 286.275,55.070 285.500,55.070 285.500,55.500 284.700,55.500 284.700,56.100 270.700,56.100 270.700,55.500 269.900,55.500 269.900,55.070 269.125,55.070 269.125,55.870 267.400,55.870 267.400,56.850 264.100,56.850 264.100,55.870 262.475,55.870 262.475,49.600 261.600,49.600 261.600,46.800 262.475,46.800 262.475,43.570 264.100,43.570 264.100,42.650 267.400,42.650 267.400,43.570 269.125,43.570 269.125,44.370 269.900,44.370 269.900,42.700 270.700,42.700 270.700,42.100 284.700,42.100 284.700,42.700 285.500,42.700 285.500,44.370 286.275,44.370 286.275,43.570 288.000,43.570 288.000,42.650 291.300,42.650 291.300,43.570 292.925,43.570 292.925,46.800 293.800,46.800 293.800,49.600" style="fill:none;stroke-width:0.2;stroke:black"/>
<polygon points="294.225,26.925 294.225,27.525 280.225,27.525 280.225,26.925 279.425,26.925 279.425,14.125 280.225,14.125 280.225,13.525 294.225,13.525 294.225,14.125 295.025,14.125 295.025,26.925" style="fill:none;stroke-width:0.2;stroke:black"/>
<polygon points="318.038,55.500 318.038,56.100 304.038,56.100 304.038,55.500 303.238,55.500 303.238,42.700 304.038,42.700 304.038,42.100 318.038,42.100 318.038,42.700 318.838,42.700 318.838,55.500" style="fill:none;stroke-width:0.2;stroke:black"/>
<polygon points="318.038,74.550 318.038,75.150 304.038,75.150 304.038,74.550 303.238,74.550 303.238,61.750 304.038,61.750 304.038,61.150 318.038,61.150 318.038,61.750 318.838,61.750 318.838,74.550" style="fill:none;stroke-width:0.2;stroke:black"/>
<polygon points="318.038,131.700 318.038,132.300 304.038,132.300 304.038,131.700 303.238,131.700 303.238,118.900 304.038,118.900 304.038,118.300 318.038,118.300 318.038,118.900 318.838,118.900 318.838,131.700" style="fill:none;stroke-width:0.2;stroke:black"/>
<polygon points="318.038,26.925 318.038,27.525 304.038,27.525 304.038,26.925 303.238,26.925 303.238,14.125 304.038,14.125 304.038,13.525 318.038,13.525 318.038,14.125 318.838,14.125 318.838,26.925" style="fill:none;stroke-width:0.2;stroke:black"/>
<polygon points="337.088,55.500 337.088,56.100 323.088,56.100 323.088,55.500 322.288,55.500 322.288,42.700 323.088,42.700 323.088,42.100 337.088,42.100 337.088,42.700 337.888,42.700 337.888,55.500" style="fill:none;stroke-width:0.2;stroke:black"/>
<polygon points="337.088,74.550 337.088,75.150 323.088,75.150 323.088,74.550 322.288,74.550 322.288,61.750 323.088,61.750 323.088,61.150 337.088,61.150 337.088,61.750 337.888,61.750 337.888,74.550" style="fill:none;stroke-width:0.2;stroke:black"/>
<polygon points="337.088,131.700 337.088,132.300 323.088,132.300 323.088,131.700 322.288,131.700 322.288,118.900 323.088,118.900 323.088,118.300 337.088,118.300 337.088,118.900 337.888,118.900 337.888,131.700" style="fill:none;stroke-width:0.2;stroke:black"/>
<polygon points="337.088,26.925 337.088,27.525 323.088,27.525 323.088,26.925 322.288,26.925 322.288,14.125 323.088,14.125 323.088,13.525 337.088,13.525 337.088,14.125 337.888,14.125 337.888,26.925" style="fill:none;stroke-width:0.2;stroke:black"/>
<polygon points="337.088,112.650 337.088,113.250 323.088,113.250 323.088,112.650 322.288,112.650 322.288,99.850 323.088,99.850 323.088,99.250 337.088,99.250 337.088,99.850 337.888,99.850 337.888,112.650" style="fill:none;stroke-width:0.2;stroke:black"/>
<polygon points="356.138,55.500 356.138,56.100 342.138,56.100 342.138,55.500 341.338,55.500 341.338,42.700 342.138,42.700 342.138,42.100 356.138,42.100 356.138,42.700 356.938,42.700 356.938,55.500" style="fill:none;stroke-width:0.2;stroke:black"/>
<polygon points="356.138,74.550 356.138,75.150 342.138,75.150 342.138,74.550 341.338,74.550 341.338,61.750 342.138,61.750 342.138,61.150 356.138,61.150 356.138,61.750 356.938,61.750 356.938,74.550" style="fill:none;stroke-width:0.2;stroke:black"/>
<polygon points="356.138,131.700 356.138,132.300 342.138,132.300 342.138,131.700 341.338,131.700 341.338,118.900 342.138,118.900 342.138,118.300 356.138,118.300 356.138,118.900 356.938,118.900 356.938,131.700" style="fill:none;stroke-width:0.2;stroke:black"/>
<polygon points="356.138,26.925 356.138,27.525 342.138,27.525 342.138,26.925 341.338,26.925 341.338,14.125 342.138,14.125 342.138,13.525 356.138,13.525 356.138,14.125 356.938,14.125 356.938,26.925" style="fill:none;stroke-width:0.2;stroke:black"/>
</svg>
