<?xml version="1.0"?>
<!-- Generated by SVGo -->
<svg width="377.663mm" height="153.825mm"
     viewBox="0.000 0.000 377.663 153.825"
     xmlns="http://www.w3.org/2000/svg" 
     xmlns:xlink="http://www.w3.org/1999/xlink">
<polygon points="370.663,5.000 370.819,5.006 370.975,5.025 371.129,5.055 371.281,5.098 371.428,5.152 371.570,5.218 371.707,5.295 371.838,5.382 371.961,5.479 372.077,5.586 372.183,5.701 372.281,5.824 372.368,5.955 372.445,6.092 372.510,6.235 372.565,6.382 372.607,6.533 372.638,6.687 372.656,6.843 372.663,7.000 372.663,146.825 372.656,146.982 372.638,147.138 372.607,147.292 372.565,147.443 372.510,147.590 372.445,147.733 372.368,147.870 372.281,148.001 372.183,148.124 372.077,148.239 371.961,148.346 371.838,148.443 371.707,148.530 371.570,148.607 371.428,148.673 371.281,148.727 371.129,148.770 370.975,148.800 370.819,148.819 370.662,148.825 7.000,148.825 6.843,148.819 6.687,148.800 6.533,148.770 6.382,148.727 6.235,148.673 6.092,148.607 5.955,148.530 5.824,148.443 5.701,148.346 5.586,148.239 5.479,148.124 5.382,148.001 5.295,147.870 5.218,147.733 5.152,147.590 5.098,147.443 5.055,147.292 5.025,147.138 5.006,146.982 5.000,146.825 5.000,7.000 5.006,6.843 5.025,6.687 5.055,6.533 5.098,6.382 5.152,6.235 5.218,6.092 5.295,5.955 5.382,5.824 5.479,5.701 5.586,5.586 5.701,5.479 5.824,5.382 5.955,5.295 6.092,5.218 6.235,5.152 6.382,5.098 6.533,5.055 6.687,5.025 6.843,5.006 7.000,5.000" style="fill:none;stroke-width:0.2;stroke:black"/>
<polygon points="129.221,8.500 129.684,8.573 130.103,8.786 130.434,9.118 130.647,9.536 130.721,10.000 130.647,10.464 130.434,10.882 130.103,11.214 129.684,11.427 129.221,11.500 128.757,11.427 128.339,11.214 128.007,10.882 127.794,10.464 127.721,10.000 127.794,9.536 128.007,9.118 128.339,8.786 128.757,8.573" style="fill:none;stroke-width:0.2;stroke:black"/>
<polygon points="248.442,8.500 248.905,8.573 249.323,8.786 249.655,9.118 249.868,9.536 249.942,10.000 249.868,10.464 249.655,10.882 249.323,11.214 248.905,11.427 248.442,11.500 247.978,11.427 247.560,11.214 247.228,10.882 247.015,10.464 246.942,10.000 247.015,9.536 247.228,9.118 247.560,8.786 247.978,8.573" style="fill:none;stroke-width:0.2;stroke:black"/>
<polygon points="367.663,8.500 368.126,8.573 368.544,8.786 368.876,9.118 369.089,9.536 369.163,10.000 369.089,10.464 368.876,10.882 368.544,11.214 368.126,11.427 367.663,11.500 367.199,11.427 366.781,11.214 366.449,10.882 366.236,10.464 366.163,10.000 366.236,9.536 366.449,9.118 366.781,8.786 367.199,8.573" style="fill:none;stroke-width:0.2;stroke:black"/>
<polygon points="367.663,142.325 368.126,142.398 368.544,142.611 368.876,142.943 369.089,143.361 369.163,143.825 369.089,144.289 368.876,144.707 368.544,145.039 368.126,145.252 367.663,145.325 367.199,145.252 366.781,145.039 366.449,144.707 366.236,144.289 366.163,143.825 366.236,143.361 366.449,142.943 366.781,142.611 367.199,142.398" style="fill:none;stroke-width:0.2;stroke:black"/>
<polygon points="248.442,142.325 248.905,142.398 249.323,142.611 249.655,142.943 249.868,143.361 249.942,143.825 249.868,144.289 249.655,144.707 249.323,145.039 248.905,145.252 248.442,145.325 247.978,145.252 247.560,145.039 247.228,144.707 247.015,144.289 246.942,143.825 247.015,143.361 247.228,142.943 247.560,142.611 247.978,142.398" style="fill:none;stroke-width:0.2;stroke:black"/>
<polygon points="129.221,142.325 129.684,142.398 130.103,142.611 130.434,142.943 130.647,143.361 130.721,143.825 130.647,144.289 130.434,144.707 130.103,145.039 129.684,145.252 129.221,145.325 128.757,145.252 128.339,145.039 128.007,144.707 127.794,144.289 127.721,143.825 127.794,143.361 128.007,142.943 128.339,142.611 128.757,142.398" style="fill:none;stroke-width:0.2;stroke:black"/>
<polygon points="10.000,142.325 10.464,142.398 10.882,142.611 11.214,142.943 11.427,143.361 11.500,143.825 11.427,144.289 11.214,144.707 10.882,145.039 10.464,145.252 10.000,145.325 9.536,145.252 9.118,145.039 8.786,144.707 8.573,144.289 8.500,143.825 8.573,143.361 8.786,142.943 9.118,142.611 9.536,142.398" style="fill:none;stroke-width:0.2;stroke:black"/>
<polygon points="10.000,8.500 10.464,8.573 10.882,8.786 11.214,9.118 11.427,9.536 11.500,10.000 11.427,10.464 11.214,10.882 10.882,11.214 10.464,11.427 10.000,11.500 9.536,11.427 9.118,11.214 8.786,10.882 8.573,10.464 8.500,10.000 8.573,9.536 8.786,9.118 9.118,8.786 9.536,8.573" style="fill:none;stroke-width:0.2;stroke:black"/>
<polygon points="31.525,30.925 31.525,31.525 17.525,31.525 17.525,30.925 16.725,30.925 16.725,18.125 17.525,18.125 17.525,17.525 31.525,17.525 31.525,18.125 32.325,18.125 32.325,30.925" style="fill:none;stroke-width:0.2;stroke:black"/>
<polygon points="31.525,59.500 31.525,60.100 17.525,60.100 17.525,59.500 16.725,59.500 16.725,46.700 17.525,46.700 17.525,46.100 31.525,46.100 31.525,46.700 32.325,46.700 32.325,59.500" style="fill:none;stroke-width:0.2;stroke:black"/>
<polygon points="33.906,135.700 33.906,136.300 19.906,136.300 19.906,135.700 19.106,135.700 19.106,122.900 19.906,122.900 19.906,122.300 33.906,122.300 33.906,122.900 34.706,122.900 34.706,135.700" style="fill:none;stroke-width:0.2;stroke:black"/>
<polygon points="36.288,78.550 36.288,79.150 22.288,79.150 22.288,78.550 21.488,78.550 21.488,65.750 22.288,65.750 22.288,65.150 36.288,65.150 36.288,65.750 37.087,65.750 37.087,78.550" style="fill:none;stroke-width:0.2;stroke:black"/>
<polygon points="38.669,97.600 38.669,98.200 24.669,98.200 24.669,97.600 23.869,97.600 23.869,84.800 24.669,84.800 24.669,84.200 38.669,84.200 38.669,84.800 39.469,84.800 39.469,97.600" style="fill:none;stroke-width:0.2;stroke:black"/>
<polygon points="50.575,59.500 50.575,60.100 36.575,60.100 36.575,59.500 35.775,59.500 35.775,46.700 36.575,46.700 36.575,46.100 50.575,46.100 50.575,46.700 51.375,46.700 51.375,59.500" style="fill:none;stroke-width:0.2;stroke:black"/>
<polygon points="51.656,110.750 51.656,117.020 50.031,117.020 50.031,118.000 46.731,118.000 46.731,117.020 45.006,117.020 45.006,116.220 44.231,116.220 44.231,116.650 43.431,116.650 43.431,117.250 29.431,117.250 29.431,116.650 28.631,116.650 28.631,116.220 27.856,116.220 27.856,117.020 26.131,117.020 26.131,118.000 22.831,118.000 22.831,117.020 21.206,117.020 21.206,110.750 20.331,110.750 20.331,107.950 21.206,107.950 21.206,104.720 22.831,104.720 22.831,103.800 26.131,103.800 26.131,104.720 27.856,104.720 27.856,105.520 28.631,105.520 28.631,103.850 29.431,103.850 29.431,103.250 43.431,103.250 43.431,103.850 44.231,103.850 44.231,105.520 45.006,105.520 45.006,104.720 46.731,104.720 46.731,103.800 50.031,103.800 50.031,104.720 51.656,104.720 51.656,107.950 52.531,107.950 52.531,110.750" style="fill:none;stroke-width:0.2;stroke:black"/>
<polygon points="57.719,135.700 57.719,136.300 43.719,136.300 43.719,135.700 42.919,135.700 42.919,122.900 43.719,122.900 43.719,122.300 57.719,122.300 57.719,122.900 58.519,122.900 58.519,135.700" style="fill:none;stroke-width:0.2;stroke:black"/>
<polygon points="60.100,78.550 60.100,79.150 46.100,79.150 46.100,78.550 45.300,78.550 45.300,65.750 46.100,65.750 46.100,65.150 60.100,65.150 60.100,65.750 60.900,65.750 60.900,78.550" style="fill:none;stroke-width:0.2;stroke:black"/>
<polygon points="64.862,97.600 64.862,98.200 50.862,98.200 50.862,97.600 50.062,97.600 50.062,84.800 50.862,84.800 50.862,84.200 64.862,84.200 64.862,84.800 65.662,84.800 65.662,97.600" style="fill:none;stroke-width:0.2;stroke:black"/>
<polygon points="69.625,30.925 69.625,31.525 55.625,31.525 55.625,30.925 54.825,30.925 54.825,18.125 55.625,18.125 55.625,17.525 69.625,17.525 69.625,18.125 70.425,18.125 70.425,30.925" style="fill:none;stroke-width:0.2;stroke:black"/>
<polygon points="69.625,59.500 69.625,60.100 55.625,60.100 55.625,59.500 54.825,59.500 54.825,46.700 55.625,46.700 55.625,46.100 69.625,46.100 69.625,46.700 70.425,46.700 70.425,59.500" style="fill:none;stroke-width:0.2;stroke:black"/>
<polygon points="74.388,116.650 74.388,117.250 60.388,117.250 60.388,116.650 59.588,116.650 59.588,103.850 60.388,103.850 60.388,103.250 74.388,103.250 74.388,103.850 75.188,103.850 75.188,116.650" style="fill:none;stroke-width:0.2;stroke:black"/>
<polygon points="79.150,78.550 79.150,79.150 65.150,79.150 65.150,78.550 64.350,78.550 64.350,65.750 65.150,65.750 65.150,65.150 79.150,65.150 79.150,65.750 79.950,65.750 79.950,78.550" style="fill:none;stroke-width:0.2;stroke:black"/>
<polygon points="81.531,135.700 81.531,136.300 67.531,136.300 67.531,135.700 66.731,135.700 66.731,122.900 67.531,122.900 67.531,122.300 81.531,122.300 81.531,122.900 82.331,122.900 82.331,135.700" style="fill:none;stroke-width:0.2;stroke:black"/>
<polygon points="83.912,97.600 83.912,98.200 69.912,98.200 69.912,97.600 69.112,97.600 69.112,84.800 69.912,84.800 69.912,84.200 83.912,84.200 83.912,84.800 84.712,84.800 84.712,97.600" style="fill:none;stroke-width:0.2;stroke:black"/>
<polygon points="88.675,30.925 88.675,31.525 74.675,31.525 74.675,30.925 73.875,30.925 73.875,18.125 74.675,18.125 74.675,17.525 88.675,17.525 88.675,18.125 89.475,18.125 89.475,30.925" style="fill:none;stroke-width:0.2;stroke:black"/>
<polygon points="88.675,59.500 88.675,60.100 74.675,60.100 74.675,59.500 73.875,59.500 73.875,46.700 74.675,46.700 74.675,46.100 88.675,46.100 88.675,46.700 89.475,46.700 89.475,59.500" style="fill:none;stroke-width:0.2;stroke:black"/>
<polygon points="93.438,116.650 93.438,117.250 79.438,117.250 79.438,116.650 78.638,116.650 78.638,103.850 79.438,103.850 79.438,103.250 93.438,103.250 93.438,103.850 94.238,103.850 94.238,116.650" style="fill:none;stroke-width:0.2;stroke:black"/>
<polygon points="98.200,78.550 98.200,79.150 84.200,79.150 84.200,78.550 83.400,78.550 83.400,65.750 84.200,65.750 84.200,65.150 98.200,65.150 98.200,65.750 99.000,65.750 99.000,78.550" style="fill:none;stroke-width:0.2;stroke:black"/>
<polygon points="102.962,97.600 102.962,98.200 88.962,98.200 88.962,97.600 88.162,97.600 88.162,84.800 88.962,84.800 88.962,84.200 102.962,84.200 102.962,84.800 103.762,84.800 103.762,97.600" style="fill:none;stroke-width:0.2;stroke:black"/>
<polygon points="107.725,30.925 107.725,31.525 93.725,31.525 93.725,30.925 92.925,30.925 92.925,18.125 93.725,18.125 93.725,17.525 107.725,17.525 107.725,18.125 108.525,18.125 108.525,30.925" style="fill:none;stroke-width:0.2;stroke:black"/>
<polygon points="107.725,59.500 107.725,60.100 93.725,60.100 93.725,59.500 92.925,59.500 92.925,46.700 93.725,46.700 93.725,46.100 107.725,46.100 107.725,46.700 108.525,46.700 108.525,59.500" style="fill:none;stroke-width:0.2;stroke:black"/>
<polygon points="112.488,116.650 112.488,117.250 98.488,117.250 98.488,116.650 97.688,116.650 97.688,103.850 98.488,103.850 98.488,103.250 112.488,103.250 112.488,103.850 113.288,103.850 113.288,116.650" style="fill:none;stroke-width:0.2;stroke:black"/>
<polygon points="117.250,78.550 117.250,79.150 103.250,79.150 103.250,78.550 102.450,78.550 102.450,65.750 103.250,65.750 103.250,65.150 117.250,65.150 117.250,65.750 118.050,65.750 118.050,78.550" style="fill:none;stroke-width:0.2;stroke:black"/>
<polygon points="122.012,97.600 122.012,98.200 108.012,98.200 108.012,97.600 107.212,97.600 107.212,84.800 108.012,84.800 108.012,84.200 122.012,84.200 122.012,84.800 122.812,84.800 122.812,97.600" style="fill:none;stroke-width:0.2;stroke:black"/>
<polygon points="126.775,30.925 126.775,31.525 112.775,31.525 112.775,30.925 111.975,30.925 111.975,18.125 112.775,18.125 112.775,17.525 126.775,17.525 126.775,18.125 127.575,18.125 127.575,30.925" style="fill:none;stroke-width:0.2;stroke:black"/>
<polygon points="126.775,59.500 126.775,60.100 112.775,60.100 112.775,59.500 111.975,59.500 111.975,46.700 112.775,46.700 112.775,46.100 126.775,46.100 126.775,46.700 127.575,46.700 127.575,59.500" style="fill:none;stroke-width:0.2;stroke:black"/>
<polygon points="131.538,116.650 131.538,117.250 117.538,117.250 117.538,116.650 116.738,116.650 116.738,103.850 117.538,103.850 117.538,103.250 131.538,103.250 131.538,103.850 132.338,103.850 132.338,116.650" style="fill:none;stroke-width:0.2;stroke:black"/>
<polygon points="136.300,78.550 136.300,79.150 122.300,79.150 122.300,78.550 121.500,78.550 121.500,65.750 122.300,65.750 122.300,65.150 136.300,65.150 136.300,65.750 137.100,65.750 137.100,78.550" style="fill:none;stroke-width:0.2;stroke:black"/>
<polygon points="141.062,97.600 141.062,98.200 127.062,98.200 127.062,97.600 126.263,97.600 126.263,84.800 127.062,84.800 127.062,84.200 141.062,84.200 141.062,84.800 141.863,84.800 141.863,97.600" style="fill:none;stroke-width:0.2;stroke:black"/>
<polygon points="145.825,59.500 145.825,60.100 131.825,60.100 131.825,59.500 131.025,59.500 131.025,46.700 131.825,46.700 131.825,46.100 145.825,46.100 145.825,46.700 146.625,46.700 146.625,59.500" style="fill:none;stroke-width:0.2;stroke:black"/>
<polygon points="150.588,116.650 150.588,117.250 136.588,117.250 136.588,116.650 135.787,116.650 135.787,103.850 136.588,103.850 136.588,103.250 150.588,103.250 150.588,103.850 151.388,103.850 151.388,116.650" style="fill:none;stroke-width:0.2;stroke:black"/>
<polygon points="155.350,30.925 155.350,31.525 141.350,31.525 141.350,30.925 140.550,30.925 140.550,18.125 141.350,18.125 141.350,17.525 155.350,17.525 155.350,18.125 156.150,18.125 156.150,30.925" style="fill:none;stroke-width:0.2;stroke:black"/>
<polygon points="155.350,78.550 155.350,79.150 141.350,79.150 141.350,78.550 140.550,78.550 140.550,65.750 141.350,65.750 141.350,65.150 155.350,65.150 155.350,65.750 156.150,65.750 156.150,78.550" style="fill:none;stroke-width:0.2;stroke:black"/>
<polygon points="160.113,97.600 160.113,98.200 146.113,98.200 146.113,97.600 145.312,97.600 145.312,84.800 146.113,84.800 146.113,84.200 160.113,84.200 160.113,84.800 160.913,84.800 160.913,97.600" style="fill:none;stroke-width:0.2;stroke:black"/>
<polygon points="164.875,59.500 164.875,60.100 150.875,60.100 150.875,59.500 150.075,59.500 150.075,46.700 150.875,46.700 150.875,46.100 164.875,46.100 164.875,46.700 165.675,46.700 165.675,59.500" style="fill:none;stroke-width:0.2;stroke:black"/>
<polygon points="169.638,116.650 169.638,117.250 155.638,117.250 155.638,116.650 154.838,116.650 154.838,103.850 155.638,103.850 155.638,103.250 169.638,103.250 169.638,103.850 170.438,103.850 170.438,116.650" style="fill:none;stroke-width:0.2;stroke:black"/>
<polygon points="174.400,30.925 174.400,31.525 160.400,31.525 160.400,30.925 159.600,30.925 159.600,18.125 160.400,18.125 160.400,17.525 174.400,17.525 174.400,18.125 175.200,18.125 175.200,30.925" style="fill:none;stroke-width:0.2;stroke:black"/>
<polygon points="174.400,78.550 174.400,79.150 160.400,79.150 160.400,78.550 159.600,78.550 159.600,65.750 160.400,65.750 160.400,65.150 174.400,65.150 174.400,65.750 175.200,65.750 175.200,78.550" style="fill:none;stroke-width:0.2;stroke:black"/>
<polygon points="179.163,97.600 179.163,98.200 165.163,98.200 165.163,97.600 164.363,97.600 164.363,84.800 165.163,84.800 165.163,84.200 179.163,84.200 179.163,84.800 179.963,84.800 179.963,97.600" style="fill:none;stroke-width:0.2;stroke:black"/>
<polygon points="183.925,59.500 183.925,60.100 169.925,60.100 169.925,59.500 169.125,59.500 169.125,46.700 169.925,46.700 169.925,46.100 183.925,46.100 183.925,46.700 184.725,46.700 184.725,59.500" style="fill:none;stroke-width:0.2;stroke:black"/>
<polygon points="188.688,116.650 188.688,117.250 174.688,117.250 174.688,116.650 173.888,116.650 173.888,103.850 174.688,103.850 174.688,103.250 188.688,103.250 188.688,103.850 189.488,103.850 189.488,116.650" style="fill:none;stroke-width:0.2;stroke:black"/>
<polygon points="193.450,30.925 193.450,31.525 179.450,31.525 179.450,30.925 178.650,30.925 178.650,18.125 179.450,18.125 179.450,17.525 193.450,17.525 193.450,18.125 194.250,18.125 194.250,30.925" style="fill:none;stroke-width:0.2;stroke:black"/>
<polygon points="193.450,78.550 193.450,79.150 179.450,79.150 179.450,78.550 178.650,78.550 178.650,65.750 179.450,65.750 179.450,65.150 193.450,65.150 193.450,65.750 194.250,65.750 194.250,78.550" style="fill:none;stroke-width:0.2;stroke:black"/>
<polygon points="198.213,97.600 198.213,98.200 184.213,98.200 184.213,97.600 183.413,97.600 183.413,84.800 184.213,84.800 184.213,84.200 198.213,84.200 198.213,84.800 199.013,84.800 199.013,97.600" style="fill:none;stroke-width:0.2;stroke:black"/>
<polygon points="199.294,129.800 199.294,136.070 197.619,136.070 197.619,137.050 194.319,137.050 194.319,136.070 192.644,136.070 192.644,131.600 153.769,131.600 153.769,135.700 152.969,135.700 152.969,136.300 138.969,136.300 138.969,135.700 138.169,135.700 138.169,131.600 99.294,131.600 99.294,136.070 97.619,136.070 97.619,137.050 94.319,137.050 94.319,136.070 92.644,136.070 92.644,129.800 91.769,129.800 91.769,127.000 92.644,127.000 92.644,123.770 94.319,123.770 94.319,122.850 97.619,122.850 97.619,123.770 99.294,123.770 99.294,127.000 138.169,127.000 138.169,122.900 138.969,122.900 138.969,122.300 152.969,122.300 152.969,122.900 153.769,122.900 153.769,127.000 192.644,127.000 192.644,123.770 194.319,123.770 194.319,122.850 197.619,122.850 197.619,123.770 199.294,123.770 199.294,127.000 200.169,127.000 200.169,129.800" style="fill:none;stroke-width:0.2;stroke:black"/>
<polygon points="202.975,59.500 202.975,60.100 188.975,60.100 188.975,59.500 188.175,59.500 188.175,46.700 188.975,46.700 188.975,46.100 202.975,46.100 202.975,46.700 203.775,46.700 203.775,59.500" style="fill:none;stroke-width:0.2;stroke:black"/>
<polygon points="207.738,116.650 207.738,117.250 193.738,117.250 193.738,116.650 192.938,116.650 192.938,103.850 193.738,103.850 193.738,103.250 207.738,103.250 207.738,103.850 208.538,103.850 208.538,116.650" style="fill:none;stroke-width:0.2;stroke:black"/>
<polygon points="212.500,30.925 212.500,31.525 198.500,31.525 198.500,30.925 197.700,30.925 197.700,18.125 198.500,18.125 198.500,17.525 212.500,17.525 212.500,18.125 213.300,18.125 213.300,30.925" style="fill:none;stroke-width:0.2;stroke:black"/>
<polygon points="212.500,78.550 212.500,79.150 198.500,79.150 198.500,78.550 197.700,78.550 197.700,65.750 198.500,65.750 198.500,65.150 212.500,65.150 212.500,65.750 213.300,65.750 213.300,78.550" style="fill:none;stroke-width:0.2;stroke:black"/>
<polygon points="217.263,97.600 217.263,98.200 203.263,98.200 203.263,97.600 202.463,97.600 202.463,84.800 203.263,84.800 203.263,84.200 217.263,84.200 217.263,84.800 218.063,84.800 218.063,97.600" style="fill:none;stroke-width:0.2;stroke:black"/>
<polygon points="222.025,59.500 222.025,60.100 208.025,60.100 208.025,59.500 207.225,59.500 207.225,46.700 208.025,46.700 208.025,46.100 222.025,46.100 222.025,46.700 222.825,46.700 222.825,59.500" style="fill:none;stroke-width:0.2;stroke:black"/>
<polygon points="224.406,135.700 224.406,136.300 210.406,136.300 210.406,135.700 209.606,135.700 209.606,122.900 210.406,122.900 210.406,122.300 224.406,122.300 224.406,122.900 225.206,122.900 225.206,135.700" style="fill:none;stroke-width:0.2;stroke:black"/>
<polygon points="226.788,116.650 226.788,117.250 212.788,117.250 212.788,116.650 211.988,116.650 211.988,103.850 212.788,103.850 212.788,103.250 226.788,103.250 226.788,103.850 227.588,103.850 227.588,116.650" style="fill:none;stroke-width:0.2;stroke:black"/>
<polygon points="231.550,78.550 231.550,79.150 217.550,79.150 217.550,78.550 216.750,78.550 216.750,65.750 217.550,65.750 217.550,65.150 231.550,65.150 231.550,65.750 232.350,65.750 232.350,78.550" style="fill:none;stroke-width:0.2;stroke:black"/>
<polygon points="236.313,97.600 236.313,98.200 222.313,98.200 222.313,97.600 221.513,97.600 221.513,84.800 222.313,84.800 222.313,84.200 236.313,84.200 236.313,84.800 237.113,84.800 237.113,97.600" style="fill:none;stroke-width:0.2;stroke:black"/>
<polygon points="241.075,30.925 241.075,31.525 227.075,31.525 227.075,30.925 226.275,30.925 226.275,18.125 227.075,18.125 227.075,17.525 241.075,17.525 241.075,18.125 241.875,18.125 241.875,30.925" style="fill:none;stroke-width:0.2;stroke:black"/>
<polygon points="241.075,59.500 241.075,60.100 227.075,60.100 227.075,59.500 226.275,59.500 226.275,46.700 227.075,46.700 227.075,46.100 241.075,46.100 241.075,46.700 241.875,46.700 241.875,59.500" style="fill:none;stroke-width:0.2;stroke:black"/>
<polygon points="245.838,116.650 245.838,117.250 231.838,117.250 231.838,116.650 231.038,116.650 231.038,103.850 231.838,103.850 231.838,103.250 245.838,103.250 245.838,103.850 246.638,103.850 246.638,116.650" style="fill:none;stroke-width:0.2;stroke:black"/>
<polygon points="248.219,135.700 248.219,136.300 234.219,136.300 234.219,135.700 233.419,135.700 233.419,122.900 234.219,122.900 234.219,122.300 248.219,122.300 248.219,122.900 249.019,122.900 249.019,135.700" style="fill:none;stroke-width:0.2;stroke:black"/>
<polygon points="250.600,78.550 250.600,79.150 236.600,79.150 236.600,78.550 235.800,78.550 235.800,65.750 236.600,65.750 236.600,65.150 250.600,65.150 250.600,65.750 251.400,65.750 251.400,78.550" style="fill:none;stroke-width:0.2;stroke:black"/>
<polygon points="255.363,97.600 255.363,98.200 241.363,98.200 241.363,97.600 240.563,97.600 240.563,84.800 241.363,84.800 241.363,84.200 255.363,84.200 255.363,84.800 256.163,84.800 256.163,97.600" style="fill:none;stroke-width:0.2;stroke:black"/>
<polygon points="260.125,30.925 260.125,31.525 246.125,31.525 246.125,30.925 245.325,30.925 245.325,18.125 246.125,18.125 246.125,17.525 260.125,17.525 260.125,18.125 260.925,18.125 260.925,30.925" style="fill:none;stroke-width:0.2;stroke:black"/>
<polygon points="260.125,59.500 260.125,60.100 246.125,60.100 246.125,59.500 245.325,59.500 245.325,46.700 246.125,46.700 246.125,46.100 260.125,46.100 260.125,46.700 260.925,46.700 260.925,59.500" style="fill:none;stroke-width:0.2;stroke:black"/>
<polygon points="269.650,78.550 269.650,79.150 255.650,79.150 255.650,78.550 254.850,78.550 254.850,65.750 255.650,65.750 255.650,65.150 269.650,65.150 269.650,65.750 270.450,65.750 270.450,78.550" style="fill:none;stroke-width:0.2;stroke:black"/>
<polygon points="272.031,135.700 272.031,136.300 258.031,136.300 258.031,135.700 257.231,135.700 257.231,122.900 258.031,122.900 258.031,122.300 272.031,122.300 272.031,122.900 272.831,122.900 272.831,135.700" style="fill:none;stroke-width:0.2;stroke:black"/>
<polygon points="279.175,30.925 279.175,31.525 265.175,31.525 265.175,30.925 264.375,30.925 264.375,18.125 265.175,18.125 265.175,17.525 279.175,17.525 279.175,18.125 279.975,18.125 279.975,30.925" style="fill:none;stroke-width:0.2;stroke:black"/>
<polygon points="289.781,110.750 289.781,117.020 288.156,117.020 288.156,118.000 284.856,118.000 284.856,117.020 283.131,117.020 283.131,116.220 282.356,116.220 282.356,116.650 281.556,116.650 281.556,117.250 267.556,117.250 267.556,116.650 266.756,116.650 266.756,116.220 265.981,116.220 265.981,117.020 264.256,117.020 264.256,118.000 260.956,118.000 260.956,117.020 259.331,117.020 259.331,110.750 258.456,110.750 258.456,107.950 259.331,107.950 259.331,104.720 260.956,104.720 260.956,103.800 264.256,103.800 264.256,104.720 265.981,104.720 265.981,105.520 266.756,105.520 266.756,103.850 267.556,103.850 267.556,103.250 281.556,103.250 281.556,103.850 282.356,103.850 282.356,105.520 283.131,105.520 283.131,104.720 284.856,104.720 284.856,103.800 288.156,103.800 288.156,104.720 289.781,104.720 289.781,107.950 290.656,107.950 290.656,110.750" style="fill:none;stroke-width:0.2;stroke:black"/>
<polygon points="293.463,78.550 293.463,79.150 279.463,79.150 279.463,78.550 278.663,78.550 278.663,65.750 279.463,65.750 279.463,65.150 293.463,65.150 293.463,65.750 294.263,65.750 294.263,78.550" style="fill:none;stroke-width:0.2;stroke:black"/>
<polygon points="294.544,91.700 294.544,97.970 292.919,97.970 292.919,98.950 289.619,98.950 289.619,97.970 287.894,97.970 287.894,97.170 287.119,97.170 287.119,97.600 286.319,97.600 286.319,98.200 272.319,98.200 272.319,97.600 271.519,97.600 271.519,97.170 270.744,97.170 270.744,97.970 269.019,97.970 269.019,98.950 265.719,98.950 265.719,97.970 264.094,97.970 264.094,91.700 263.219,91.700 263.219,88.900 264.094,88.900 264.094,85.670 265.719,85.670 265.719,84.750 269.019,84.750 269.019,85.670 270.744,85.670 270.744,86.470 271.519,86.470 271.519,84.800 272.319,84.800 272.319,84.200 286.319,84.200 286.319,84.800 287.119,84.800 287.119,86.470 287.894,86.470 287.894,85.670 289.619,85.670 289.619,84.750 292.919,84.750 292.919,85.670 294.544,85.670 294.544,88.900 295.419,88.900 295.419,91.700" style="fill:none;stroke-width:0.2;stroke:black"/>
<polygon points="295.844,135.700 295.844,136.300 281.844,136.300 281.844,135.700 281.044,135.700 281.044,122.900 281.844,122.900 281.844,122.300 295.844,122.300 295.844,122.900 296.644,122.900 296.644,135.700" style="fill:none;stroke-width:0.2;stroke:black"/>
<polygon points="296.925,53.600 296.925,59.870 295.300,59.870 295.300,60.850 292.000,60.850 292.000,59.870 290.275,59.870 290.275,59.070 289.500,59.070 289.500,59.500 288.700,59.500 288.700,60.100 274.700,60.100 274.700,59.500 273.900,59.500 273.900,59.070 273.125,59.070 273.125,59.870 271.400,59.870 271.400,60.850 268.100,60.850 268.100,59.870 266.475,59.870 266.475,53.600 265.600,53.600 265.600,50.800 266.475,50.800 266.475,47.570 268.100,47.570 268.100,46.650 271.400,46.650 271.400,47.570 273.125,47.570 273.125,48.370 273.900,48.370 273.900,46.700 274.700,46.700 274.700,46.100 288.700,46.100 288.700,46.700 289.500,46.700 289.500,48.370 290.275,48.370 290.275,47.570 292.000,47.570 292.000,46.650 295.300,46.650 295.300,47.570 296.925,47.570 296.925,50.800 297.800,50.800 297.800,53.600" style="fill:none;stroke-width:0.2;stroke:black"/>
<polygon points="298.225,30.925 298.225,31.525 284.225,31.525 284.225,30.925 283.425,30.925 283.425,18.125 284.225,18.125 284.225,17.525 298.225,17.525 298.225,18.125 299.025,18.125 299.025,30.925" style="fill:none;stroke-width:0.2;stroke:black"/>
<polygon points="322.038,59.500 322.038,60.100 308.038,60.100 308.038,59.500 307.238,59.500 307.238,46.700 308.038,46.700 308.038,46.100 322.038,46.100 322.038,46.700 322.838,46.700 322.838,59.500" style="fill:none;stroke-width:0.2;stroke:black"/>
<polygon points="322.038,135.700 322.038,136.300 308.038,136.300 308.038,135.700 307.238,135.700 307.238,122.900 308.038,122.900 308.038,122.300 322.038,122.300 322.038,122.900 322.838,122.900 322.838,135.700" style="fill:none;stroke-width:0.2;stroke:black"/>
<polygon points="322.038,30.925 322.038,31.525 308.038,31.525 308.038,30.925 307.238,30.925 307.238,18.125 308.038,18.125 308.038,17.525 322.038,17.525 322.038,18.125 322.838,18.125 322.838,30.925" style="fill:none;stroke-width:0.2;stroke:black"/>
<polygon points="322.038,78.550 322.038,79.150 308.038,79.150 308.038,78.550 307.238,78.550 307.238,65.750 308.038,65.750 308.038,65.150 322.038,65.150 322.038,65.750 322.838,65.750 322.838,78.550" style="fill:none;stroke-width:0.2;stroke:black"/>
<polygon points="341.088,59.500 341.088,60.100 327.088,60.100 327.088,59.500 326.288,59.500 326.288,46.700 327.088,46.700 327.088,46.100 341.088,46.100 341.088,46.700 341.888,46.700 341.888,59.500" style="fill:none;stroke-width:0.2;stroke:black"/>
<polygon points="341.088,135.700 341.088,136.300 327.088,136.300 327.088,135.700 326.288,135.700 326.288,122.900 327.088,122.900 327.088,122.300 341.088,122.300 341.088,122.900 341.888,122.900 341.888,135.700" style="fill:none;stroke-width:0.2;stroke:black"/>
<polygon points="341.088,30.925 341.088,31.525 327.088,31.525 327.088,30.925 326.288,30.925 326.288,18.125 327.088,18.125 327.088,17.525 341.088,17.525 341.088,18.125 341.888,18.125 341.888,30.925" style="fill:none;stroke-width:0.2;stroke:black"/>
<polygon points="341.088,78.550 341.088,79.150 327.088,79.150 327.088,78.550 326.288,78.550 326.288,65.750 327.088,65.750 327.088,65.150 341.088,65.150 341.088,65.750 341.888,65.750 341.888,78.550" style="fill:none;stroke-width:0.2;stroke:black"/>
<polygon points="341.088,116.650 341.088,117.250 327.088,117.250 327.088,116.650 326.288,116.650 326.288,103.850 327.088,103.850 327.088,103.250 341.088,103.250 341.088,103.850 341.888,103.850 341.888,116.650" style="fill:none;stroke-width:0.2;stroke:black"/>
<polygon points="360.138,59.500 360.138,60.100 346.138,60.100 346.138,59.500 345.338,59.500 345.338,46.700 346.138,46.700 346.138,46.100 360.138,46.100 360.138,46.700 360.938,46.700 360.938,59.500" style="fill:none;stroke-width:0.2;stroke:black"/>
<polygon points="360.138,135.700 360.138,136.300 346.138,136.300 346.138,135.700 345.338,135.700 345.338,122.900 346.138,122.900 346.138,122.300 360.138,122.300 360.138,122.900 360.938,122.900 360.938,135.700" style="fill:none;stroke-width:0.2;stroke:black"/>
<polygon points="360.138,30.925 360.138,31.525 346.138,31.525 346.138,30.925 345.338,30.925 345.338,18.125 346.138,18.125 346.138,17.525 360.138,17.525 360.138,18.125 360.938,18.125 360.938,30.925" style="fill:none;stroke-width:0.2;stroke:black"/>
<polygon points="360.138,78.550 360.138,79.150 346.138,79.150 346.138,78.550 345.338,78.550 345.338,65.750 346.138,65.750 346.138,65.150 360.138,65.150 360.138,65.750 360.938,65.750 360.938,78.550" style="fill:none;stroke-width:0.2;stroke:black"/>
</svg>
