  0
SECTION
  2
HEADER
  9
$ACADVER
  1
AC1009
  9
$EXTMIN
 10
0.0
 20
0.0
 30
0.0
  9
$EXTMAX
 10
1000.0
 20
1000.0
 30
0.0
  9
$FILLMODE
 70
 0
  9
$SPLFRAME
 70
 1
  0
ENDSEC
  0
SECTION
  2
TABLES
  0
TABLE
  2
LAYER
 70
1
  0
LAYER
  2
0
 70
     0
 62
     7
  6
CONTINUOUS
  0
ENDTAB
  0
ENDSEC
  0
SECTION
  2
ENTITIES
  0
LINE
  8
0
 62
     0
 10
357.755
 20
135.938
 30
0.0
 11
357.911
 21
135.932
 31
0.0
  0
LINE
  8
0
 62
     0
 10
357.911
 20
135.932
 30
0.0
 11
358.069
 21
135.913
 31
0.0
  0
LINE
  8
0
 62
     0
 10
358.069
 20
135.913
 30
0.0
 11
358.221
 21
135.883
 31
0.0
  0
LINE
  8
0
 62
     0
 10
358.221
 20
135.883
 30
0.0
 11
358.376
 21
135.84
 31
0.0
  0
LINE
  8
0
 62
     0
 10
358.376
 20
135.84
 30
0.0
 11
358.521
 21
135.786
 31
0.0
  0
LINE
  8
0
 62
     0
 10
358.521
 20
135.786
 30
0.0
 11
358.662
 21
135.72
 31
0.0
  0
LINE
  8
0
 62
     0
 10
358.662
 20
135.72
 30
0.0
 11
358.8
 21
135.643
 31
0.0
  0
LINE
  8
0
 62
     0
 10
358.8
 20
135.643
 30
0.0
 11
358.934
 21
135.556
 31
0.0
  0
LINE
  8
0
 62
     0
 10
358.934
 20
135.556
 30
0.0
 11
359.054
 21
135.459
 31
0.0
  0
LINE
  8
0
 62
     0
 10
359.054
 20
135.459
 30
0.0
 11
359.17
 21
135.352
 31
0.0
  0
LINE
  8
0
 62
     0
 10
359.17
 20
135.352
 30
0.0
 11
359.276
 21
135.237
 31
0.0
  0
LINE
  8
0
 62
     0
 10
359.276
 20
135.237
 30
0.0
 11
359.375
 21
135.114
 31
0.0
  0
LINE
  8
0
 62
     0
 10
359.375
 20
135.114
 30
0.0
 11
359.463
 21
134.983
 31
0.0
  0
LINE
  8
0
 62
     0
 10
359.463
 20
134.983
 30
0.0
 11
359.537
 21
134.846
 31
0.0
  0
LINE
  8
0
 62
     0
 10
359.537
 20
134.846
 30
0.0
 11
359.604
 21
134.703
 31
0.0
  0
LINE
  8
0
 62
     0
 10
359.604
 20
134.703
 30
0.0
 11
359.657
 21
134.556
 31
0.0
  0
LINE
  8
0
 62
     0
 10
359.657
 20
134.556
 30
0.0
 11
359.703
 21
134.406
 31
0.0
  0
LINE
  8
0
 62
     0
 10
359.703
 20
134.406
 30
0.0
 11
359.731
 21
134.251
 31
0.0
  0
LINE
  8
0
 62
     0
 10
359.731
 20
134.251
 30
0.0
 11
359.749
 21
134.095
 31
0.0
  0
LINE
  8
0
 62
     0
 10
359.749
 20
134.095
 30
0.0
 11
359.756
 21
133.938
 31
0.0
  0
LINE
  8
0
 62
     0
 10
359.756
 20
133.938
 30
0.0
 11
359.756
 21
2.11253
 31
0.0
  0
LINE
  8
0
 62
     0
 10
359.756
 20
2.11253
 30
0.0
 11
359.749
 21
1.95544
 31
0.0
  0
LINE
  8
0
 62
     0
 10
359.749
 20
1.95544
 30
0.0
 11
359.731
 21
1.79972
 31
0.0
  0
LINE
  8
0
 62
     0
 10
359.731
 20
1.79972
 30
0.0
 11
359.703
 21
1.64538
 31
0.0
  0
LINE
  8
0
 62
     0
 10
359.703
 20
1.64538
 30
0.0
 11
359.657
 21
1.49517
 31
0.0
  0
LINE
  8
0
 62
     0
 10
359.657
 20
1.49517
 30
0.0
 11
359.604
 21
1.34772
 31
0.0
  0
LINE
  8
0
 62
     0
 10
359.604
 20
1.34772
 30
0.0
 11
359.537
 21
1.2044
 31
0.0
  0
LINE
  8
0
 62
     0
 10
359.537
 20
1.2044
 30
0.0
 11
359.463
 21
1.06798
 31
0.0
  0
LINE
  8
0
 62
     0
 10
359.463
 20
1.06798
 30
0.0
 11
359.375
 21
0.937066
 31
0.0
  0
LINE
  8
0
 62
     0
 10
359.375
 20
0.937066
 30
0.0
 11
359.276
 21
0.814419
 31
0.0
  0
LINE
  8
0
 62
     0
 10
359.276
 20
0.814419
 30
0.0
 11
359.17
 21
0.698666
 31
0.0
  0
LINE
  8
0
 62
     0
 10
359.17
 20
0.698666
 30
0.0
 11
359.054
 21
0.592557
 31
0.0
  0
LINE
  8
0
 62
     0
 10
359.054
 20
0.592557
 30
0.0
 11
358.934
 21
0.494714
 31
0.0
  0
LINE
  8
0
 62
     0
 10
358.934
 20
0.494714
 30
0.0
 11
358.8
 21
0.407899
 31
0.0
  0
LINE
  8
0
 62
     0
 10
358.8
 20
0.407899
 30
0.0
 11
358.662
 21
0.330729
 31
0.0
  0
LINE
  8
0
 62
     0
 10
358.662
 20
0.330729
 30
0.0
 11
358.521
 21
0.264583
 31
0.0
  0
LINE
  8
0
 62
     0
 10
358.521
 20
0.264583
 30
0.0
 11
358.376
 21
0.21084
 31
0.0
  0
LINE
  8
0
 62
     0
 10
358.376
 20
0.21084
 30
0.0
 11
358.221
 21
0.168121
 31
0.0
  0
LINE
  8
0
 62
     0
 10
358.221
 20
0.168121
 30
0.0
 11
358.069
 21
0.137804
 31
0.0
  0
LINE
  8
0
 62
     0
 10
358.069
 20
0.137804
 30
0.0
 11
357.911
 21
0.118511
 31
0.0
  0
LINE
  8
0
 62
     0
 10
357.911
 20
0.118511
 30
0.0
 11
357.755
 21
0.112999
 31
0.0
  0
LINE
  8
0
 62
     0
 10
357.755
 20
0.112999
 30
0.0
 11
2.09324
 21
0.112999
 31
0.0
  0
LINE
  8
0
 62
     0
 10
2.09324
 20
0.112999
 30
0.0
 11
1.93614
 21
0.118511
 31
0.0
  0
LINE
  8
0
 62
     0
 10
1.93614
 20
0.118511
 30
0.0
 11
1.78043
 21
0.137804
 31
0.0
  0
LINE
  8
0
 62
     0
 10
1.78043
 20
0.137804
 30
0.0
 11
1.62609
 21
0.168121
 31
0.0
  0
LINE
  8
0
 62
     0
 10
1.62609
 20
0.168121
 30
0.0
 11
1.47588
 21
0.21084
 31
0.0
  0
LINE
  8
0
 62
     0
 10
1.47588
 20
0.21084
 30
0.0
 11
1.32843
 21
0.264583
 31
0.0
  0
LINE
  8
0
 62
     0
 10
1.32843
 20
0.264583
 30
0.0
 11
1.18511
 21
0.330729
 31
0.0
  0
LINE
  8
0
 62
     0
 10
1.18511
 20
0.330729
 30
0.0
 11
1.04869
 21
0.407899
 31
0.0
  0
LINE
  8
0
 62
     0
 10
1.04869
 20
0.407899
 30
0.0
 11
0.917773
 21
0.494714
 31
0.0
  0
LINE
  8
0
 62
     0
 10
0.917773
 20
0.494714
 30
0.0
 11
0.795129
 21
0.592557
 31
0.0
  0
LINE
  8
0
 62
     0
 10
0.795129
 20
0.592557
 30
0.0
 11
0.679372
 21
0.698666
 31
0.0
  0
LINE
  8
0
 62
     0
 10
0.679372
 20
0.698666
 30
0.0
 11
0.573264
 21
0.814419
 31
0.0
  0
LINE
  8
0
 62
     0
 10
0.573264
 20
0.814419
 30
0.0
 11
0.475424
 21
0.937066
 31
0.0
  0
LINE
  8
0
 62
     0
 10
0.475424
 20
0.937066
 30
0.0
 11
0.388606
 21
1.06798
 31
0.0
  0
LINE
  8
0
 62
     0
 10
0.388606
 20
1.06798
 30
0.0
 11
0.311437
 21
1.2044
 31
0.0
  0
LINE
  8
0
 62
     0
 10
0.311437
 20
1.2044
 30
0.0
 11
0.245291
 21
1.34772
 31
0.0
  0
LINE
  8
0
 62
     0
 10
0.245291
 20
1.34772
 30
0.0
 11
0.191547
 21
1.49517
 31
0.0
  0
LINE
  8
0
 62
     0
 10
0.191547
 20
1.49517
 30
0.0
 11
0.148828
 21
1.64538
 31
0.0
  0
LINE
  8
0
 62
     0
 10
0.148828
 20
1.64538
 30
0.0
 11
0.118511
 21
1.79972
 31
0.0
  0
LINE
  8
0
 62
     0
 10
0.118511
 20
1.79972
 30
0.0
 11
0.0992188
 21
1.95544
 31
0.0
  0
LINE
  8
0
 62
     0
 10
0.0992188
 20
1.95544
 30
0.0
 11
0.0937066
 21
2.11253
 31
0.0
  0
LINE
  8
0
 62
     0
 10
0.0937066
 20
2.11253
 30
0.0
 11
0.0937066
 21
133.938
 31
0.0
  0
LINE
  8
0
 62
     0
 10
0.0937066
 20
133.938
 30
0.0
 11
0.0992188
 21
134.095
 31
0.0
  0
LINE
  8
0
 62
     0
 10
0.0992188
 20
134.095
 30
0.0
 11
0.118511
 21
134.251
 31
0.0
  0
LINE
  8
0
 62
     0
 10
0.118511
 20
134.251
 30
0.0
 11
0.148828
 21
134.406
 31
0.0
  0
LINE
  8
0
 62
     0
 10
0.148828
 20
134.406
 30
0.0
 11
0.191547
 21
134.556
 31
0.0
  0
LINE
  8
0
 62
     0
 10
0.191547
 20
134.556
 30
0.0
 11
0.245291
 21
134.703
 31
0.0
  0
LINE
  8
0
 62
     0
 10
0.245291
 20
134.703
 30
0.0
 11
0.311437
 21
134.846
 31
0.0
  0
LINE
  8
0
 62
     0
 10
0.311437
 20
134.846
 30
0.0
 11
0.388606
 21
134.983
 31
0.0
  0
LINE
  8
0
 62
     0
 10
0.388606
 20
134.983
 30
0.0
 11
0.475424
 21
135.114
 31
0.0
  0
LINE
  8
0
 62
     0
 10
0.475424
 20
135.114
 30
0.0
 11
0.573264
 21
135.237
 31
0.0
  0
LINE
  8
0
 62
     0
 10
0.573264
 20
135.237
 30
0.0
 11
0.679372
 21
135.352
 31
0.0
  0
LINE
  8
0
 62
     0
 10
0.679372
 20
135.352
 30
0.0
 11
0.795129
 21
135.459
 31
0.0
  0
LINE
  8
0
 62
     0
 10
0.795129
 20
135.459
 30
0.0
 11
0.917773
 21
135.556
 31
0.0
  0
LINE
  8
0
 62
     0
 10
0.917773
 20
135.556
 30
0.0
 11
1.04869
 21
135.643
 31
0.0
  0
LINE
  8
0
 62
     0
 10
1.04869
 20
135.643
 30
0.0
 11
1.18511
 21
135.72
 31
0.0
  0
LINE
  8
0
 62
     0
 10
1.18511
 20
135.72
 30
0.0
 11
1.32843
 21
135.786
 31
0.0
  0
LINE
  8
0
 62
     0
 10
1.32843
 20
135.786
 30
0.0
 11
1.47588
 21
135.84
 31
0.0
  0
LINE
  8
0
 62
     0
 10
1.47588
 20
135.84
 30
0.0
 11
1.62609
 21
135.883
 31
0.0
  0
LINE
  8
0
 62
     0
 10
1.62609
 20
135.883
 30
0.0
 11
1.78043
 21
135.913
 31
0.0
  0
LINE
  8
0
 62
     0
 10
1.78043
 20
135.913
 30
0.0
 11
1.93614
 21
135.932
 31
0.0
  0
LINE
  8
0
 62
     0
 10
1.93614
 20
135.932
 30
0.0
 11
2.09324
 21
135.938
 31
0.0
  0
LINE
  8
0
 62
     0
 10
2.09324
 20
135.938
 30
0.0
 11
357.755
 21
135.938
 31
0.0
  0
LINE
  8
0
 62
     0
 10
120.982
 20
134.437
 30
0.0
 11
121.445
 21
134.364
 31
0.0
  0
LINE
  8
0
 62
     0
 10
121.445
 20
134.364
 30
0.0
 11
121.863
 21
134.152
 31
0.0
  0
LINE
  8
0
 62
     0
 10
121.863
 20
134.152
 30
0.0
 11
122.195
 21
133.82
 31
0.0
  0
LINE
  8
0
 62
     0
 10
122.195
 20
133.82
 30
0.0
 11
122.408
 21
133.402
 31
0.0
  0
LINE
  8
0
 62
     0
 10
122.408
 20
133.402
 30
0.0
 11
122.481
 21
132.938
 31
0.0
  0
LINE
  8
0
 62
     0
 10
122.481
 20
132.938
 30
0.0
 11
122.408
 21
132.474
 31
0.0
  0
LINE
  8
0
 62
     0
 10
122.408
 20
132.474
 30
0.0
 11
122.195
 21
132.056
 31
0.0
  0
LINE
  8
0
 62
     0
 10
122.195
 20
132.056
 30
0.0
 11
121.863
 21
131.724
 31
0.0
  0
LINE
  8
0
 62
     0
 10
121.863
 20
131.724
 30
0.0
 11
121.445
 21
131.51
 31
0.0
  0
LINE
  8
0
 62
     0
 10
121.445
 20
131.51
 30
0.0
 11
120.982
 21
131.437
 31
0.0
  0
LINE
  8
0
 62
     0
 10
120.982
 20
131.437
 30
0.0
 11
120.518
 21
131.51
 31
0.0
  0
LINE
  8
0
 62
     0
 10
120.518
 20
131.51
 30
0.0
 11
120.1
 21
131.724
 31
0.0
  0
LINE
  8
0
 62
     0
 10
120.1
 20
131.724
 30
0.0
 11
119.768
 21
132.056
 31
0.0
  0
LINE
  8
0
 62
     0
 10
119.768
 20
132.056
 30
0.0
 11
119.555
 21
132.474
 31
0.0
  0
LINE
  8
0
 62
     0
 10
119.555
 20
132.474
 30
0.0
 11
119.482
 21
132.938
 31
0.0
  0
LINE
  8
0
 62
     0
 10
119.482
 20
132.938
 30
0.0
 11
119.555
 21
133.402
 31
0.0
  0
LINE
  8
0
 62
     0
 10
119.555
 20
133.402
 30
0.0
 11
119.768
 21
133.82
 31
0.0
  0
LINE
  8
0
 62
     0
 10
119.768
 20
133.82
 30
0.0
 11
120.1
 21
134.152
 31
0.0
  0
LINE
  8
0
 62
     0
 10
120.1
 20
134.152
 30
0.0
 11
120.518
 21
134.364
 31
0.0
  0
LINE
  8
0
 62
     0
 10
120.518
 20
134.364
 30
0.0
 11
120.982
 21
134.437
 31
0.0
  0
LINE
  8
0
 62
     0
 10
238.869
 20
134.437
 30
0.0
 11
239.332
 21
134.364
 31
0.0
  0
LINE
  8
0
 62
     0
 10
239.332
 20
134.364
 30
0.0
 11
239.751
 21
134.152
 31
0.0
  0
LINE
  8
0
 62
     0
 10
239.751
 20
134.152
 30
0.0
 11
240.083
 21
133.82
 31
0.0
  0
LINE
  8
0
 62
     0
 10
240.083
 20
133.82
 30
0.0
 11
240.295
 21
133.402
 31
0.0
  0
LINE
  8
0
 62
     0
 10
240.295
 20
133.402
 30
0.0
 11
240.368
 21
132.938
 31
0.0
  0
LINE
  8
0
 62
     0
 10
240.368
 20
132.938
 30
0.0
 11
240.295
 21
132.474
 31
0.0
  0
LINE
  8
0
 62
     0
 10
240.295
 20
132.474
 30
0.0
 11
240.083
 21
132.056
 31
0.0
  0
LINE
  8
0
 62
     0
 10
240.083
 20
132.056
 30
0.0
 11
239.751
 21
131.724
 31
0.0
  0
LINE
  8
0
 62
     0
 10
239.751
 20
131.724
 30
0.0
 11
239.332
 21
131.51
 31
0.0
  0
LINE
  8
0
 62
     0
 10
239.332
 20
131.51
 30
0.0
 11
238.869
 21
131.437
 31
0.0
  0
LINE
  8
0
 62
     0
 10
238.869
 20
131.437
 30
0.0
 11
238.405
 21
131.51
 31
0.0
  0
LINE
  8
0
 62
     0
 10
238.405
 20
131.51
 30
0.0
 11
237.987
 21
131.724
 31
0.0
  0
LINE
  8
0
 62
     0
 10
237.987
 20
131.724
 30
0.0
 11
237.655
 21
132.056
 31
0.0
  0
LINE
  8
0
 62
     0
 10
237.655
 20
132.056
 30
0.0
 11
237.442
 21
132.474
 31
0.0
  0
LINE
  8
0
 62
     0
 10
237.442
 20
132.474
 30
0.0
 11
237.368
 21
132.938
 31
0.0
  0
LINE
  8
0
 62
     0
 10
237.368
 20
132.938
 30
0.0
 11
237.442
 21
133.402
 31
0.0
  0
LINE
  8
0
 62
     0
 10
237.442
 20
133.402
 30
0.0
 11
237.655
 21
133.82
 31
0.0
  0
LINE
  8
0
 62
     0
 10
237.655
 20
133.82
 30
0.0
 11
237.987
 21
134.152
 31
0.0
  0
LINE
  8
0
 62
     0
 10
237.987
 20
134.152
 30
0.0
 11
238.405
 21
134.364
 31
0.0
  0
LINE
  8
0
 62
     0
 10
238.405
 20
134.364
 30
0.0
 11
238.869
 21
134.437
 31
0.0
  0
LINE
  8
0
 62
     0
 10
356.757
 20
134.437
 30
0.0
 11
357.219
 21
134.364
 31
0.0
  0
LINE
  8
0
 62
     0
 10
357.219
 20
134.364
 30
0.0
 11
357.639
 21
134.152
 31
0.0
  0
LINE
  8
0
 62
     0
 10
357.639
 20
134.152
 30
0.0
 11
357.971
 21
133.82
 31
0.0
  0
LINE
  8
0
 62
     0
 10
357.971
 20
133.82
 30
0.0
 11
358.182
 21
133.402
 31
0.0
  0
LINE
  8
0
 62
     0
 10
358.182
 20
133.402
 30
0.0
 11
358.256
 21
132.938
 31
0.0
  0
LINE
  8
0
 62
     0
 10
358.256
 20
132.938
 30
0.0
 11
358.182
 21
132.474
 31
0.0
  0
LINE
  8
0
 62
     0
 10
358.182
 20
132.474
 30
0.0
 11
357.971
 21
132.056
 31
0.0
  0
LINE
  8
0
 62
     0
 10
357.971
 20
132.056
 30
0.0
 11
357.639
 21
131.724
 31
0.0
  0
LINE
  8
0
 62
     0
 10
357.639
 20
131.724
 30
0.0
 11
357.219
 21
131.51
 31
0.0
  0
LINE
  8
0
 62
     0
 10
357.219
 20
131.51
 30
0.0
 11
356.757
 21
131.437
 31
0.0
  0
LINE
  8
0
 62
     0
 10
356.757
 20
131.437
 30
0.0
 11
356.291
 21
131.51
 31
0.0
  0
LINE
  8
0
 62
     0
 10
356.291
 20
131.51
 30
0.0
 11
355.875
 21
131.724
 31
0.0
  0
LINE
  8
0
 62
     0
 10
355.875
 20
131.724
 30
0.0
 11
355.544
 21
132.056
 31
0.0
  0
LINE
  8
0
 62
     0
 10
355.544
 20
132.056
 30
0.0
 11
355.328
 21
132.474
 31
0.0
  0
LINE
  8
0
 62
     0
 10
355.328
 20
132.474
 30
0.0
 11
355.258
 21
132.938
 31
0.0
  0
LINE
  8
0
 62
     0
 10
355.258
 20
132.938
 30
0.0
 11
355.328
 21
133.402
 31
0.0
  0
LINE
  8
0
 62
     0
 10
355.328
 20
133.402
 30
0.0
 11
355.544
 21
133.82
 31
0.0
  0
LINE
  8
0
 62
     0
 10
355.544
 20
133.82
 30
0.0
 11
355.875
 21
134.152
 31
0.0
  0
LINE
  8
0
 62
     0
 10
355.875
 20
134.152
 30
0.0
 11
356.291
 21
134.364
 31
0.0
  0
LINE
  8
0
 62
     0
 10
356.291
 20
134.364
 30
0.0
 11
356.757
 21
134.437
 31
0.0
  0
LINE
  8
0
 62
     0
 10
356.757
 20
4.61229
 30
0.0
 11
357.219
 21
4.53926
 31
0.0
  0
LINE
  8
0
 62
     0
 10
357.219
 20
4.53926
 30
0.0
 11
357.639
 21
4.32703
 31
0.0
  0
LINE
  8
0
 62
     0
 10
357.639
 20
4.32703
 30
0.0
 11
357.971
 21
3.99493
 31
0.0
  0
LINE
  8
0
 62
     0
 10
357.971
 20
3.99493
 30
0.0
 11
358.182
 21
3.57738
 31
0.0
  0
LINE
  8
0
 62
     0
 10
358.182
 20
3.57738
 30
0.0
 11
358.256
 21
3.11299
 31
0.0
  0
LINE
  8
0
 62
     0
 10
358.256
 20
3.11299
 30
0.0
 11
358.182
 21
2.64859
 31
0.0
  0
LINE
  8
0
 62
     0
 10
358.182
 20
2.64859
 30
0.0
 11
357.971
 21
2.23104
 31
0.0
  0
LINE
  8
0
 62
     0
 10
357.971
 20
2.23104
 30
0.0
 11
357.639
 21
1.89894
 31
0.0
  0
LINE
  8
0
 62
     0
 10
357.639
 20
1.89894
 30
0.0
 11
357.219
 21
1.68534
 31
0.0
  0
LINE
  8
0
 62
     0
 10
357.219
 20
1.68534
 30
0.0
 11
356.757
 21
1.6123
 31
0.0
  0
LINE
  8
0
 62
     0
 10
356.757
 20
1.6123
 30
0.0
 11
356.291
 21
1.68534
 31
0.0
  0
LINE
  8
0
 62
     0
 10
356.291
 20
1.68534
 30
0.0
 11
355.875
 21
1.89894
 31
0.0
  0
LINE
  8
0
 62
     0
 10
355.875
 20
1.89894
 30
0.0
 11
355.544
 21
2.23104
 31
0.0
  0
LINE
  8
0
 62
     0
 10
355.544
 20
2.23104
 30
0.0
 11
355.328
 21
2.64859
 31
0.0
  0
LINE
  8
0
 62
     0
 10
355.328
 20
2.64859
 30
0.0
 11
355.258
 21
3.11299
 31
0.0
  0
LINE
  8
0
 62
     0
 10
355.258
 20
3.11299
 30
0.0
 11
355.328
 21
3.57738
 31
0.0
  0
LINE
  8
0
 62
     0
 10
355.328
 20
3.57738
 30
0.0
 11
355.544
 21
3.99493
 31
0.0
  0
LINE
  8
0
 62
     0
 10
355.544
 20
3.99493
 30
0.0
 11
355.875
 21
4.32703
 31
0.0
  0
LINE
  8
0
 62
     0
 10
355.875
 20
4.32703
 30
0.0
 11
356.291
 21
4.53926
 31
0.0
  0
LINE
  8
0
 62
     0
 10
356.291
 20
4.53926
 30
0.0
 11
356.757
 21
4.61229
 31
0.0
  0
LINE
  8
0
 62
     0
 10
238.869
 20
4.61229
 30
0.0
 11
239.332
 21
4.53926
 31
0.0
  0
LINE
  8
0
 62
     0
 10
239.332
 20
4.53926
 30
0.0
 11
239.751
 21
4.32703
 31
0.0
  0
LINE
  8
0
 62
     0
 10
239.751
 20
4.32703
 30
0.0
 11
240.083
 21
3.99493
 31
0.0
  0
LINE
  8
0
 62
     0
 10
240.083
 20
3.99493
 30
0.0
 11
240.295
 21
3.57738
 31
0.0
  0
LINE
  8
0
 62
     0
 10
240.295
 20
3.57738
 30
0.0
 11
240.368
 21
3.11299
 31
0.0
  0
LINE
  8
0
 62
     0
 10
240.368
 20
3.11299
 30
0.0
 11
240.295
 21
2.64859
 31
0.0
  0
LINE
  8
0
 62
     0
 10
240.295
 20
2.64859
 30
0.0
 11
240.083
 21
2.23104
 31
0.0
  0
LINE
  8
0
 62
     0
 10
240.083
 20
2.23104
 30
0.0
 11
239.751
 21
1.89894
 31
0.0
  0
LINE
  8
0
 62
     0
 10
239.751
 20
1.89894
 30
0.0
 11
239.332
 21
1.68534
 31
0.0
  0
LINE
  8
0
 62
     0
 10
239.332
 20
1.68534
 30
0.0
 11
238.869
 21
1.6123
 31
0.0
  0
LINE
  8
0
 62
     0
 10
238.869
 20
1.6123
 30
0.0
 11
238.405
 21
1.68534
 31
0.0
  0
LINE
  8
0
 62
     0
 10
238.405
 20
1.68534
 30
0.0
 11
237.987
 21
1.89894
 31
0.0
  0
LINE
  8
0
 62
     0
 10
237.987
 20
1.89894
 30
0.0
 11
237.655
 21
2.23104
 31
0.0
  0
LINE
  8
0
 62
     0
 10
237.655
 20
2.23104
 30
0.0
 11
237.442
 21
2.64859
 31
0.0
  0
LINE
  8
0
 62
     0
 10
237.442
 20
2.64859
 30
0.0
 11
237.368
 21
3.11299
 31
0.0
  0
LINE
  8
0
 62
     0
 10
237.368
 20
3.11299
 30
0.0
 11
237.442
 21
3.57738
 31
0.0
  0
LINE
  8
0
 62
     0
 10
237.442
 20
3.57738
 30
0.0
 11
237.655
 21
3.99493
 31
0.0
  0
LINE
  8
0
 62
     0
 10
237.655
 20
3.99493
 30
0.0
 11
237.987
 21
4.32703
 31
0.0
  0
LINE
  8
0
 62
     0
 10
237.987
 20
4.32703
 30
0.0
 11
238.405
 21
4.53926
 31
0.0
  0
LINE
  8
0
 62
     0
 10
238.405
 20
4.53926
 30
0.0
 11
238.869
 21
4.61229
 31
0.0
  0
LINE
  8
0
 62
     0
 10
120.982
 20
4.61229
 30
0.0
 11
121.445
 21
4.53926
 31
0.0
  0
LINE
  8
0
 62
     0
 10
121.445
 20
4.53926
 30
0.0
 11
121.863
 21
4.32703
 31
0.0
  0
LINE
  8
0
 62
     0
 10
121.863
 20
4.32703
 30
0.0
 11
122.195
 21
3.99493
 31
0.0
  0
LINE
  8
0
 62
     0
 10
122.195
 20
3.99493
 30
0.0
 11
122.408
 21
3.57738
 31
0.0
  0
LINE
  8
0
 62
     0
 10
122.408
 20
3.57738
 30
0.0
 11
122.481
 21
3.11299
 31
0.0
  0
LINE
  8
0
 62
     0
 10
122.481
 20
3.11299
 30
0.0
 11
122.408
 21
2.64859
 31
0.0
  0
LINE
  8
0
 62
     0
 10
122.408
 20
2.64859
 30
0.0
 11
122.195
 21
2.23104
 31
0.0
  0
LINE
  8
0
 62
     0
 10
122.195
 20
2.23104
 30
0.0
 11
121.863
 21
1.89894
 31
0.0
  0
LINE
  8
0
 62
     0
 10
121.863
 20
1.89894
 30
0.0
 11
121.445
 21
1.68534
 31
0.0
  0
LINE
  8
0
 62
     0
 10
121.445
 20
1.68534
 30
0.0
 11
120.982
 21
1.6123
 31
0.0
  0
LINE
  8
0
 62
     0
 10
120.982
 20
1.6123
 30
0.0
 11
120.518
 21
1.68534
 31
0.0
  0
LINE
  8
0
 62
     0
 10
120.518
 20
1.68534
 30
0.0
 11
120.1
 21
1.89894
 31
0.0
  0
LINE
  8
0
 62
     0
 10
120.1
 20
1.89894
 30
0.0
 11
119.768
 21
2.23104
 31
0.0
  0
LINE
  8
0
 62
     0
 10
119.768
 20
2.23104
 30
0.0
 11
119.555
 21
2.64859
 31
0.0
  0
LINE
  8
0
 62
     0
 10
119.555
 20
2.64859
 30
0.0
 11
119.482
 21
3.11299
 31
0.0
  0
LINE
  8
0
 62
     0
 10
119.482
 20
3.11299
 30
0.0
 11
119.555
 21
3.57738
 31
0.0
  0
LINE
  8
0
 62
     0
 10
119.555
 20
3.57738
 30
0.0
 11
119.768
 21
3.99493
 31
0.0
  0
LINE
  8
0
 62
     0
 10
119.768
 20
3.99493
 30
0.0
 11
120.1
 21
4.32703
 31
0.0
  0
LINE
  8
0
 62
     0
 10
120.1
 20
4.32703
 30
0.0
 11
120.518
 21
4.53926
 31
0.0
  0
LINE
  8
0
 62
     0
 10
120.518
 20
4.53926
 30
0.0
 11
120.982
 21
4.61229
 31
0.0
  0
LINE
  8
0
 62
     0
 10
3.0937
 20
4.61229
 30
0.0
 11
3.55808
 21
4.53926
 31
0.0
  0
LINE
  8
0
 62
     0
 10
3.55808
 20
4.53926
 30
0.0
 11
3.97563
 21
4.32703
 31
0.0
  0
LINE
  8
0
 62
     0
 10
3.97563
 20
4.32703
 30
0.0
 11
4.30773
 21
3.99493
 31
0.0
  0
LINE
  8
0
 62
     0
 10
4.30773
 20
3.99493
 30
0.0
 11
4.52134
 21
3.57738
 31
0.0
  0
LINE
  8
0
 62
     0
 10
4.52134
 20
3.57738
 30
0.0
 11
4.59437
 21
3.11299
 31
0.0
  0
LINE
  8
0
 62
     0
 10
4.59437
 20
3.11299
 30
0.0
 11
4.52134
 21
2.64859
 31
0.0
  0
LINE
  8
0
 62
     0
 10
4.52134
 20
2.64859
 30
0.0
 11
4.30773
 21
2.23104
 31
0.0
  0
LINE
  8
0
 62
     0
 10
4.30773
 20
2.23104
 30
0.0
 11
3.97563
 21
1.89894
 31
0.0
  0
LINE
  8
0
 62
     0
 10
3.97563
 20
1.89894
 30
0.0
 11
3.55808
 21
1.68534
 31
0.0
  0
LINE
  8
0
 62
     0
 10
3.55808
 20
1.68534
 30
0.0
 11
3.0937
 21
1.6123
 31
0.0
  0
LINE
  8
0
 62
     0
 10
3.0937
 20
1.6123
 30
0.0
 11
2.6293
 21
1.68534
 31
0.0
  0
LINE
  8
0
 62
     0
 10
2.6293
 20
1.68534
 30
0.0
 11
2.21175
 21
1.89894
 31
0.0
  0
LINE
  8
0
 62
     0
 10
2.21175
 20
1.89894
 30
0.0
 11
1.87965
 21
2.23104
 31
0.0
  0
LINE
  8
0
 62
     0
 10
1.87965
 20
2.23104
 30
0.0
 11
1.66743
 21
2.64859
 31
0.0
  0
LINE
  8
0
 62
     0
 10
1.66743
 20
2.64859
 30
0.0
 11
1.59439
 21
3.11299
 31
0.0
  0
LINE
  8
0
 62
     0
 10
1.59439
 20
3.11299
 30
0.0
 11
1.66743
 21
3.57738
 31
0.0
  0
LINE
  8
0
 62
     0
 10
1.66743
 20
3.57738
 30
0.0
 11
1.87965
 21
3.99493
 31
0.0
  0
LINE
  8
0
 62
     0
 10
1.87965
 20
3.99493
 30
0.0
 11
2.21175
 21
4.32703
 31
0.0
  0
LINE
  8
0
 62
     0
 10
2.21175
 20
4.32703
 30
0.0
 11
2.6293
 21
4.53926
 31
0.0
  0
LINE
  8
0
 62
     0
 10
2.6293
 20
4.53926
 30
0.0
 11
3.0937
 21
4.61229
 31
0.0
  0
LINE
  8
0
 62
     0
 10
3.0937
 20
134.437
 30
0.0
 11
3.55808
 21
134.364
 31
0.0
  0
LINE
  8
0
 62
     0
 10
3.55808
 20
134.364
 30
0.0
 11
3.97563
 21
134.152
 31
0.0
  0
LINE
  8
0
 62
     0
 10
3.97563
 20
134.152
 30
0.0
 11
4.30773
 21
133.82
 31
0.0
  0
LINE
  8
0
 62
     0
 10
4.30773
 20
133.82
 30
0.0
 11
4.52134
 21
133.402
 31
0.0
  0
LINE
  8
0
 62
     0
 10
4.52134
 20
133.402
 30
0.0
 11
4.59437
 21
132.938
 31
0.0
  0
LINE
  8
0
 62
     0
 10
4.59437
 20
132.938
 30
0.0
 11
4.52134
 21
132.474
 31
0.0
  0
LINE
  8
0
 62
     0
 10
4.52134
 20
132.474
 30
0.0
 11
4.30773
 21
132.056
 31
0.0
  0
LINE
  8
0
 62
     0
 10
4.30773
 20
132.056
 30
0.0
 11
3.97563
 21
131.724
 31
0.0
  0
LINE
  8
0
 62
     0
 10
3.97563
 20
131.724
 30
0.0
 11
3.55808
 21
131.51
 31
0.0
  0
LINE
  8
0
 62
     0
 10
3.55808
 20
131.51
 30
0.0
 11
3.0937
 21
131.437
 31
0.0
  0
LINE
  8
0
 62
     0
 10
3.0937
 20
131.437
 30
0.0
 11
2.6293
 21
131.51
 31
0.0
  0
LINE
  8
0
 62
     0
 10
2.6293
 20
131.51
 30
0.0
 11
2.21175
 21
131.724
 31
0.0
  0
LINE
  8
0
 62
     0
 10
2.21175
 20
131.724
 30
0.0
 11
1.87965
 21
132.056
 31
0.0
  0
LINE
  8
0
 62
     0
 10
1.87965
 20
132.056
 30
0.0
 11
1.66743
 21
132.474
 31
0.0
  0
LINE
  8
0
 62
     0
 10
1.66743
 20
132.474
 30
0.0
 11
1.59439
 21
132.938
 31
0.0
  0
LINE
  8
0
 62
     0
 10
1.59439
 20
132.938
 30
0.0
 11
1.66743
 21
133.402
 31
0.0
  0
LINE
  8
0
 62
     0
 10
1.66743
 20
133.402
 30
0.0
 11
1.87965
 21
133.82
 31
0.0
  0
LINE
  8
0
 62
     0
 10
1.87965
 20
133.82
 30
0.0
 11
2.21175
 21
134.152
 31
0.0
  0
LINE
  8
0
 62
     0
 10
2.21175
 20
134.152
 30
0.0
 11
2.6293
 21
134.364
 31
0.0
  0
LINE
  8
0
 62
     0
 10
2.6293
 20
134.364
 30
0.0
 11
3.0937
 21
134.437
 31
0.0
  0
LINE
  8
0
 62
     0
 10
22.6191
 20
114.014
 30
0.0
 11
22.6191
 21
113.412
 31
0.0
  0
LINE
  8
0
 62
     0
 10
22.6191
 20
113.412
 30
0.0
 11
8.61826
 21
113.412
 31
0.0
  0
LINE
  8
0
 62
     0
 10
8.61826
 20
113.412
 30
0.0
 11
8.61826
 21
114.014
 31
0.0
  0
LINE
  8
0
 62
     0
 10
8.61826
 20
114.014
 30
0.0
 11
7.819
 21
114.014
 31
0.0
  0
LINE
  8
0
 62
     0
 10
7.819
 20
114.014
 30
0.0
 11
7.819
 21
126.813
 31
0.0
  0
LINE
  8
0
 62
     0
 10
7.819
 20
126.813
 30
0.0
 11
8.61826
 21
126.813
 31
0.0
  0
LINE
  8
0
 62
     0
 10
8.61826
 20
126.813
 30
0.0
 11
8.61826
 21
127.413
 31
0.0
  0
LINE
  8
0
 62
     0
 10
8.61826
 20
127.413
 30
0.0
 11
22.6191
 21
127.413
 31
0.0
  0
LINE
  8
0
 62
     0
 10
22.6191
 20
127.413
 30
0.0
 11
22.6191
 21
126.813
 31
0.0
  0
LINE
  8
0
 62
     0
 10
22.6191
 20
126.813
 30
0.0
 11
23.4184
 21
126.813
 31
0.0
  0
LINE
  8
0
 62
     0
 10
23.4184
 20
126.813
 30
0.0
 11
23.4184
 21
114.014
 31
0.0
  0
LINE
  8
0
 62
     0
 10
23.4184
 20
114.014
 30
0.0
 11
22.6191
 21
114.014
 31
0.0
  0
LINE
  8
0
 62
     0
 10
22.6191
 20
85.4385
 30
0.0
 11
22.6191
 21
84.8374
 31
0.0
  0
LINE
  8
0
 62
     0
 10
22.6191
 20
84.8374
 30
0.0
 11
8.61826
 21
84.8374
 31
0.0
  0
LINE
  8
0
 62
     0
 10
8.61826
 20
84.8374
 30
0.0
 11
8.61826
 21
85.4385
 31
0.0
  0
LINE
  8
0
 62
     0
 10
8.61826
 20
85.4385
 30
0.0
 11
7.819
 21
85.4385
 31
0.0
  0
LINE
  8
0
 62
     0
 10
7.819
 20
85.4385
 30
0.0
 11
7.819
 21
98.2377
 31
0.0
  0
LINE
  8
0
 62
     0
 10
7.819
 20
98.2377
 30
0.0
 11
8.61826
 21
98.2377
 31
0.0
  0
LINE
  8
0
 62
     0
 10
8.61826
 20
98.2377
 30
0.0
 11
8.61826
 21
98.8385
 31
0.0
  0
LINE
  8
0
 62
     0
 10
8.61826
 20
98.8385
 30
0.0
 11
22.6191
 21
98.8385
 31
0.0
  0
LINE
  8
0
 62
     0
 10
22.6191
 20
98.8385
 30
0.0
 11
22.6191
 21
98.2377
 31
0.0
  0
LINE
  8
0
 62
     0
 10
22.6191
 20
98.2377
 30
0.0
 11
23.4184
 21
98.2377
 31
0.0
  0
LINE
  8
0
 62
     0
 10
23.4184
 20
98.2377
 30
0.0
 11
23.4184
 21
85.4385
 31
0.0
  0
LINE
  8
0
 62
     0
 10
23.4184
 20
85.4385
 30
0.0
 11
22.6191
 21
85.4385
 31
0.0
  0
LINE
  8
0
 62
     0
 10
25.0004
 20
9.23837
 30
0.0
 11
25.0004
 21
8.63755
 31
0.0
  0
LINE
  8
0
 62
     0
 10
25.0004
 20
8.63755
 30
0.0
 11
10.9995
 21
8.63755
 31
0.0
  0
LINE
  8
0
 62
     0
 10
10.9995
 20
8.63755
 30
0.0
 11
10.9995
 21
9.23837
 31
0.0
  0
LINE
  8
0
 62
     0
 10
10.9995
 20
9.23837
 30
0.0
 11
10.2003
 21
9.23837
 31
0.0
  0
LINE
  8
0
 62
     0
 10
10.2003
 20
9.23837
 30
0.0
 11
10.2003
 21
22.0376
 31
0.0
  0
LINE
  8
0
 62
     0
 10
10.2003
 20
22.0376
 30
0.0
 11
10.9995
 21
22.0376
 31
0.0
  0
LINE
  8
0
 62
     0
 10
10.9995
 20
22.0376
 30
0.0
 11
10.9995
 21
22.6384
 31
0.0
  0
LINE
  8
0
 62
     0
 10
10.9995
 20
22.6384
 30
0.0
 11
25.0004
 21
22.6384
 31
0.0
  0
LINE
  8
0
 62
     0
 10
25.0004
 20
22.6384
 30
0.0
 11
25.0004
 21
22.0376
 31
0.0
  0
LINE
  8
0
 62
     0
 10
25.0004
 20
22.0376
 30
0.0
 11
25.7996
 21
22.0376
 31
0.0
  0
LINE
  8
0
 62
     0
 10
25.7996
 20
22.0376
 30
0.0
 11
25.7996
 21
9.23837
 31
0.0
  0
LINE
  8
0
 62
     0
 10
25.7996
 20
9.23837
 30
0.0
 11
25.0004
 21
9.23837
 31
0.0
  0
LINE
  8
0
 62
     0
 10
27.3816
 20
66.3885
 30
0.0
 11
27.3816
 21
65.7874
 31
0.0
  0
LINE
  8
0
 62
     0
 10
27.3816
 20
65.7874
 30
0.0
 11
13.3821
 21
65.7874
 31
0.0
  0
LINE
  8
0
 62
     0
 10
13.3821
 20
65.7874
 30
0.0
 11
13.3821
 21
66.3885
 31
0.0
  0
LINE
  8
0
 62
     0
 10
13.3821
 20
66.3885
 30
0.0
 11
12.5815
 21
66.3885
 31
0.0
  0
LINE
  8
0
 62
     0
 10
12.5815
 20
66.3885
 30
0.0
 11
12.5815
 21
79.1877
 31
0.0
  0
LINE
  8
0
 62
     0
 10
12.5815
 20
79.1877
 30
0.0
 11
13.3821
 21
79.1877
 31
0.0
  0
LINE
  8
0
 62
     0
 10
13.3821
 20
79.1877
 30
0.0
 11
13.3821
 21
79.7885
 31
0.0
  0
LINE
  8
0
 62
     0
 10
13.3821
 20
79.7885
 30
0.0
 11
27.3816
 21
79.7885
 31
0.0
  0
LINE
  8
0
 62
     0
 10
27.3816
 20
79.7885
 30
0.0
 11
27.3816
 21
79.1877
 31
0.0
  0
LINE
  8
0
 62
     0
 10
27.3816
 20
79.1877
 30
0.0
 11
28.1809
 21
79.1877
 31
0.0
  0
LINE
  8
0
 62
     0
 10
28.1809
 20
79.1877
 30
0.0
 11
28.1809
 21
66.3885
 31
0.0
  0
LINE
  8
0
 62
     0
 10
28.1809
 20
66.3885
 30
0.0
 11
27.3816
 21
66.3885
 31
0.0
  0
LINE
  8
0
 62
     0
 10
29.7629
 20
47.3385
 30
0.0
 11
29.7629
 21
46.7374
 31
0.0
  0
LINE
  8
0
 62
     0
 10
29.7629
 20
46.7374
 30
0.0
 11
15.7634
 21
46.7374
 31
0.0
  0
LINE
  8
0
 62
     0
 10
15.7634
 20
46.7374
 30
0.0
 11
15.7634
 21
47.3385
 31
0.0
  0
LINE
  8
0
 62
     0
 10
15.7634
 20
47.3385
 30
0.0
 11
14.9628
 21
47.3385
 31
0.0
  0
LINE
  8
0
 62
     0
 10
14.9628
 20
47.3385
 30
0.0
 11
14.9628
 21
60.1377
 31
0.0
  0
LINE
  8
0
 62
     0
 10
14.9628
 20
60.1377
 30
0.0
 11
15.7634
 21
60.1377
 31
0.0
  0
LINE
  8
0
 62
     0
 10
15.7634
 20
60.1377
 30
0.0
 11
15.7634
 21
60.7385
 31
0.0
  0
LINE
  8
0
 62
     0
 10
15.7634
 20
60.7385
 30
0.0
 11
29.7629
 21
60.7385
 31
0.0
  0
LINE
  8
0
 62
     0
 10
29.7629
 20
60.7385
 30
0.0
 11
29.7629
 21
60.1377
 31
0.0
  0
LINE
  8
0
 62
     0
 10
29.7629
 20
60.1377
 30
0.0
 11
30.5621
 21
60.1377
 31
0.0
  0
LINE
  8
0
 62
     0
 10
30.5621
 20
60.1377
 30
0.0
 11
30.5621
 21
47.3385
 31
0.0
  0
LINE
  8
0
 62
     0
 10
30.5621
 20
47.3385
 30
0.0
 11
29.7629
 21
47.3385
 31
0.0
  0
LINE
  8
0
 62
     0
 10
41.6691
 20
85.4385
 30
0.0
 11
41.6691
 21
84.8374
 31
0.0
  0
LINE
  8
0
 62
     0
 10
41.6691
 20
84.8374
 30
0.0
 11
27.6683
 21
84.8374
 31
0.0
  0
LINE
  8
0
 62
     0
 10
27.6683
 20
84.8374
 30
0.0
 11
27.6683
 21
85.4385
 31
0.0
  0
LINE
  8
0
 62
     0
 10
27.6683
 20
85.4385
 30
0.0
 11
26.869
 21
85.4385
 31
0.0
  0
LINE
  8
0
 62
     0
 10
26.869
 20
85.4385
 30
0.0
 11
26.869
 21
98.2377
 31
0.0
  0
LINE
  8
0
 62
     0
 10
26.869
 20
98.2377
 30
0.0
 11
27.6683
 21
98.2377
 31
0.0
  0
LINE
  8
0
 62
     0
 10
27.6683
 20
98.2377
 30
0.0
 11
27.6683
 21
98.8385
 31
0.0
  0
LINE
  8
0
 62
     0
 10
27.6683
 20
98.8385
 30
0.0
 11
41.6691
 21
98.8385
 31
0.0
  0
LINE
  8
0
 62
     0
 10
41.6691
 20
98.8385
 30
0.0
 11
41.6691
 21
98.2377
 31
0.0
  0
LINE
  8
0
 62
     0
 10
41.6691
 20
98.2377
 30
0.0
 11
42.4684
 21
98.2377
 31
0.0
  0
LINE
  8
0
 62
     0
 10
42.4684
 20
98.2377
 30
0.0
 11
42.4684
 21
85.4385
 31
0.0
  0
LINE
  8
0
 62
     0
 10
42.4684
 20
85.4385
 30
0.0
 11
41.6691
 21
85.4385
 31
0.0
  0
LINE
  8
0
 62
     0
 10
42.7496
 20
34.1878
 30
0.0
 11
42.7496
 21
27.9177
 31
0.0
  0
LINE
  8
0
 62
     0
 10
42.7496
 20
27.9177
 30
0.0
 11
41.1247
 21
27.9177
 31
0.0
  0
LINE
  8
0
 62
     0
 10
41.1247
 20
27.9177
 30
0.0
 11
41.1247
 21
26.9379
 31
0.0
  0
LINE
  8
0
 62
     0
 10
41.1247
 20
26.9379
 30
0.0
 11
37.8245
 21
26.9379
 31
0.0
  0
LINE
  8
0
 62
     0
 10
37.8245
 20
26.9379
 30
0.0
 11
37.8245
 21
27.9177
 31
0.0
  0
LINE
  8
0
 62
     0
 10
37.8245
 20
27.9177
 30
0.0
 11
36.099
 21
27.9177
 31
0.0
  0
LINE
  8
0
 62
     0
 10
36.099
 20
27.9177
 30
0.0
 11
36.099
 21
28.7183
 31
0.0
  0
LINE
  8
0
 62
     0
 10
36.099
 20
28.7183
 30
0.0
 11
35.3247
 21
28.7183
 31
0.0
  0
LINE
  8
0
 62
     0
 10
35.3247
 20
28.7183
 30
0.0
 11
35.3247
 21
28.2884
 31
0.0
  0
LINE
  8
0
 62
     0
 10
35.3247
 20
28.2884
 30
0.0
 11
34.5254
 21
28.2884
 31
0.0
  0
LINE
  8
0
 62
     0
 10
34.5254
 20
28.2884
 30
0.0
 11
34.5254
 21
27.6876
 31
0.0
  0
LINE
  8
0
 62
     0
 10
34.5254
 20
27.6876
 30
0.0
 11
20.5245
 21
27.6876
 31
0.0
  0
LINE
  8
0
 62
     0
 10
20.5245
 20
27.6876
 30
0.0
 11
20.5245
 21
28.2884
 31
0.0
  0
LINE
  8
0
 62
     0
 10
20.5245
 20
28.2884
 30
0.0
 11
19.7253
 21
28.2884
 31
0.0
  0
LINE
  8
0
 62
     0
 10
19.7253
 20
28.2884
 30
0.0
 11
19.7253
 21
28.7183
 31
0.0
  0
LINE
  8
0
 62
     0
 10
19.7253
 20
28.7183
 30
0.0
 11
18.9494
 21
28.7183
 31
0.0
  0
LINE
  8
0
 62
     0
 10
18.9494
 20
28.7183
 30
0.0
 11
18.9494
 21
27.9177
 31
0.0
  0
LINE
  8
0
 62
     0
 10
18.9494
 20
27.9177
 30
0.0
 11
17.2241
 21
27.9177
 31
0.0
  0
LINE
  8
0
 62
     0
 10
17.2241
 20
27.9177
 30
0.0
 11
17.2241
 21
26.9379
 31
0.0
  0
LINE
  8
0
 62
     0
 10
17.2241
 20
26.9379
 30
0.0
 11
13.9251
 21
26.9379
 31
0.0
  0
LINE
  8
0
 62
     0
 10
13.9251
 20
26.9379
 30
0.0
 11
13.9251
 21
27.9177
 31
0.0
  0
LINE
  8
0
 62
     0
 10
13.9251
 20
27.9177
 30
0.0
 11
12.3004
 21
27.9177
 31
0.0
  0
LINE
  8
0
 62
     0
 10
12.3004
 20
27.9177
 30
0.0
 11
12.3004
 21
34.1878
 31
0.0
  0
LINE
  8
0
 62
     0
 10
12.3004
 20
34.1878
 30
0.0
 11
11.4253
 21
34.1878
 31
0.0
  0
LINE
  8
0
 62
     0
 10
11.4253
 20
34.1878
 30
0.0
 11
11.4253
 21
36.988
 31
0.0
  0
LINE
  8
0
 62
     0
 10
11.4253
 20
36.988
 30
0.0
 11
12.3004
 21
36.988
 31
0.0
  0
LINE
  8
0
 62
     0
 10
12.3004
 20
36.988
 30
0.0
 11
12.3004
 21
40.2181
 31
0.0
  0
LINE
  8
0
 62
     0
 10
12.3004
 20
40.2181
 30
0.0
 11
13.9251
 21
40.2181
 31
0.0
  0
LINE
  8
0
 62
     0
 10
13.9251
 20
40.2181
 30
0.0
 11
13.9251
 21
41.1385
 31
0.0
  0
LINE
  8
0
 62
     0
 10
13.9251
 20
41.1385
 30
0.0
 11
17.2241
 21
41.1385
 31
0.0
  0
LINE
  8
0
 62
     0
 10
17.2241
 20
41.1385
 30
0.0
 11
17.2241
 21
40.2181
 31
0.0
  0
LINE
  8
0
 62
     0
 10
17.2241
 20
40.2181
 30
0.0
 11
18.9494
 21
40.2181
 31
0.0
  0
LINE
  8
0
 62
     0
 10
18.9494
 20
40.2181
 30
0.0
 11
18.9494
 21
39.4173
 31
0.0
  0
LINE
  8
0
 62
     0
 10
18.9494
 20
39.4173
 30
0.0
 11
19.7253
 21
39.4173
 31
0.0
  0
LINE
  8
0
 62
     0
 10
19.7253
 20
39.4173
 30
0.0
 11
19.7253
 21
41.0877
 31
0.0
  0
LINE
  8
0
 62
     0
 10
19.7253
 20
41.0877
 30
0.0
 11
20.5245
 21
41.0877
 31
0.0
  0
LINE
  8
0
 62
     0
 10
20.5245
 20
41.0877
 30
0.0
 11
20.5245
 21
41.6885
 31
0.0
  0
LINE
  8
0
 62
     0
 10
20.5245
 20
41.6885
 30
0.0
 11
34.5254
 21
41.6885
 31
0.0
  0
LINE
  8
0
 62
     0
 10
34.5254
 20
41.6885
 30
0.0
 11
34.5254
 21
41.0877
 31
0.0
  0
LINE
  8
0
 62
     0
 10
34.5254
 20
41.0877
 30
0.0
 11
35.3247
 21
41.0877
 31
0.0
  0
LINE
  8
0
 62
     0
 10
35.3247
 20
41.0877
 30
0.0
 11
35.3247
 21
39.4173
 31
0.0
  0
LINE
  8
0
 62
     0
 10
35.3247
 20
39.4173
 30
0.0
 11
36.099
 21
39.4173
 31
0.0
  0
LINE
  8
0
 62
     0
 10
36.099
 20
39.4173
 30
0.0
 11
36.099
 21
40.2181
 31
0.0
  0
LINE
  8
0
 62
     0
 10
36.099
 20
40.2181
 30
0.0
 11
37.8245
 21
40.2181
 31
0.0
  0
LINE
  8
0
 62
     0
 10
37.8245
 20
40.2181
 30
0.0
 11
37.8245
 21
41.1385
 31
0.0
  0
LINE
  8
0
 62
     0
 10
37.8245
 20
41.1385
 30
0.0
 11
41.1247
 21
41.1385
 31
0.0
  0
LINE
  8
0
 62
     0
 10
41.1247
 20
41.1385
 30
0.0
 11
41.1247
 21
40.2181
 31
0.0
  0
LINE
  8
0
 62
     0
 10
41.1247
 20
40.2181
 30
0.0
 11
42.7496
 21
40.2181
 31
0.0
  0
LINE
  8
0
 62
     0
 10
42.7496
 20
40.2181
 30
0.0
 11
42.7496
 21
36.988
 31
0.0
  0
LINE
  8
0
 62
     0
 10
42.7496
 20
36.988
 30
0.0
 11
43.6245
 21
36.988
 31
0.0
  0
LINE
  8
0
 62
     0
 10
43.6245
 20
36.988
 30
0.0
 11
43.6245
 21
34.1878
 31
0.0
  0
LINE
  8
0
 62
     0
 10
43.6245
 20
34.1878
 30
0.0
 11
42.7496
 21
34.1878
 31
0.0
  0
LINE
  8
0
 62
     0
 10
48.8128
 20
9.23837
 30
0.0
 11
48.8128
 21
8.63755
 31
0.0
  0
LINE
  8
0
 62
     0
 10
48.8128
 20
8.63755
 30
0.0
 11
34.8134
 21
8.63755
 31
0.0
  0
LINE
  8
0
 62
     0
 10
34.8134
 20
8.63755
 30
0.0
 11
34.8134
 21
9.23837
 31
0.0
  0
LINE
  8
0
 62
     0
 10
34.8134
 20
9.23837
 30
0.0
 11
34.0128
 21
9.23837
 31
0.0
  0
LINE
  8
0
 62
     0
 10
34.0128
 20
9.23837
 30
0.0
 11
34.0128
 21
22.0376
 31
0.0
  0
LINE
  8
0
 62
     0
 10
34.0128
 20
22.0376
 30
0.0
 11
34.8134
 21
22.0376
 31
0.0
  0
LINE
  8
0
 62
     0
 10
34.8134
 20
22.0376
 30
0.0
 11
34.8134
 21
22.6384
 31
0.0
  0
LINE
  8
0
 62
     0
 10
34.8134
 20
22.6384
 30
0.0
 11
48.8128
 21
22.6384
 31
0.0
  0
LINE
  8
0
 62
     0
 10
48.8128
 20
22.6384
 30
0.0
 11
48.8128
 21
22.0376
 31
0.0
  0
LINE
  8
0
 62
     0
 10
48.8128
 20
22.0376
 30
0.0
 11
49.6122
 21
22.0376
 31
0.0
  0
LINE
  8
0
 62
     0
 10
49.6122
 20
22.0376
 30
0.0
 11
49.6122
 21
9.23837
 31
0.0
  0
LINE
  8
0
 62
     0
 10
49.6122
 20
9.23837
 30
0.0
 11
48.8128
 21
9.23837
 31
0.0
  0
LINE
  8
0
 62
     0
 10
51.1941
 20
66.3885
 30
0.0
 11
51.1941
 21
65.7874
 31
0.0
  0
LINE
  8
0
 62
     0
 10
51.1941
 20
65.7874
 30
0.0
 11
37.1934
 21
65.7874
 31
0.0
  0
LINE
  8
0
 62
     0
 10
37.1934
 20
65.7874
 30
0.0
 11
37.1934
 21
66.3885
 31
0.0
  0
LINE
  8
0
 62
     0
 10
37.1934
 20
66.3885
 30
0.0
 11
36.394
 21
66.3885
 31
0.0
  0
LINE
  8
0
 62
     0
 10
36.394
 20
66.3885
 30
0.0
 11
36.394
 21
79.1877
 31
0.0
  0
LINE
  8
0
 62
     0
 10
36.394
 20
79.1877
 30
0.0
 11
37.1934
 21
79.1877
 31
0.0
  0
LINE
  8
0
 62
     0
 10
37.1934
 20
79.1877
 30
0.0
 11
37.1934
 21
79.7885
 31
0.0
  0
LINE
  8
0
 62
     0
 10
37.1934
 20
79.7885
 30
0.0
 11
51.1941
 21
79.7885
 31
0.0
  0
LINE
  8
0
 62
     0
 10
51.1941
 20
79.7885
 30
0.0
 11
51.1941
 21
79.1877
 31
0.0
  0
LINE
  8
0
 62
     0
 10
51.1941
 20
79.1877
 30
0.0
 11
51.9934
 21
79.1877
 31
0.0
  0
LINE
  8
0
 62
     0
 10
51.9934
 20
79.1877
 30
0.0
 11
51.9934
 21
66.3885
 31
0.0
  0
LINE
  8
0
 62
     0
 10
51.9934
 20
66.3885
 30
0.0
 11
51.1941
 21
66.3885
 31
0.0
  0
LINE
  8
0
 62
     0
 10
55.9551
 20
47.3385
 30
0.0
 11
55.9551
 21
46.7374
 31
0.0
  0
LINE
  8
0
 62
     0
 10
55.9551
 20
46.7374
 30
0.0
 11
41.9559
 21
46.7374
 31
0.0
  0
LINE
  8
0
 62
     0
 10
41.9559
 20
46.7374
 30
0.0
 11
41.9559
 21
47.3385
 31
0.0
  0
LINE
  8
0
 62
     0
 10
41.9559
 20
47.3385
 30
0.0
 11
41.1551
 21
47.3385
 31
0.0
  0
LINE
  8
0
 62
     0
 10
41.1551
 20
47.3385
 30
0.0
 11
41.1551
 21
60.1377
 31
0.0
  0
LINE
  8
0
 62
     0
 10
41.1551
 20
60.1377
 30
0.0
 11
41.9559
 21
60.1377
 31
0.0
  0
LINE
  8
0
 62
     0
 10
41.9559
 20
60.1377
 30
0.0
 11
41.9559
 21
60.7385
 31
0.0
  0
LINE
  8
0
 62
     0
 10
41.9559
 20
60.7385
 30
0.0
 11
55.9551
 21
60.7385
 31
0.0
  0
LINE
  8
0
 62
     0
 10
55.9551
 20
60.7385
 30
0.0
 11
55.9551
 21
60.1377
 31
0.0
  0
LINE
  8
0
 62
     0
 10
55.9551
 20
60.1377
 30
0.0
 11
56.7559
 21
60.1377
 31
0.0
  0
LINE
  8
0
 62
     0
 10
56.7559
 20
60.1377
 30
0.0
 11
56.7559
 21
47.3385
 31
0.0
  0
LINE
  8
0
 62
     0
 10
56.7559
 20
47.3385
 30
0.0
 11
55.9551
 21
47.3385
 31
0.0
  0
LINE
  8
0
 62
     0
 10
60.7191
 20
114.014
 30
0.0
 11
60.7191
 21
113.412
 31
0.0
  0
LINE
  8
0
 62
     0
 10
60.7191
 20
113.412
 30
0.0
 11
46.7184
 21
113.412
 31
0.0
  0
LINE
  8
0
 62
     0
 10
46.7184
 20
113.412
 30
0.0
 11
46.7184
 21
114.014
 31
0.0
  0
LINE
  8
0
 62
     0
 10
46.7184
 20
114.014
 30
0.0
 11
45.919
 21
114.014
 31
0.0
  0
LINE
  8
0
 62
     0
 10
45.919
 20
114.014
 30
0.0
 11
45.919
 21
126.813
 31
0.0
  0
LINE
  8
0
 62
     0
 10
45.919
 20
126.813
 30
0.0
 11
46.7184
 21
126.813
 31
0.0
  0
LINE
  8
0
 62
     0
 10
46.7184
 20
126.813
 30
0.0
 11
46.7184
 21
127.413
 31
0.0
  0
LINE
  8
0
 62
     0
 10
46.7184
 20
127.413
 30
0.0
 11
60.7191
 21
127.413
 31
0.0
  0
LINE
  8
0
 62
     0
 10
60.7191
 20
127.413
 30
0.0
 11
60.7191
 21
126.813
 31
0.0
  0
LINE
  8
0
 62
     0
 10
60.7191
 20
126.813
 30
0.0
 11
61.5184
 21
126.813
 31
0.0
  0
LINE
  8
0
 62
     0
 10
61.5184
 20
126.813
 30
0.0
 11
61.5184
 21
114.014
 31
0.0
  0
LINE
  8
0
 62
     0
 10
61.5184
 20
114.014
 30
0.0
 11
60.7191
 21
114.014
 31
0.0
  0
LINE
  8
0
 62
     0
 10
60.7191
 20
85.4385
 30
0.0
 11
60.7191
 21
84.8374
 31
0.0
  0
LINE
  8
0
 62
     0
 10
60.7191
 20
84.8374
 30
0.0
 11
46.7184
 21
84.8374
 31
0.0
  0
LINE
  8
0
 62
     0
 10
46.7184
 20
84.8374
 30
0.0
 11
46.7184
 21
85.4385
 31
0.0
  0
LINE
  8
0
 62
     0
 10
46.7184
 20
85.4385
 30
0.0
 11
45.919
 21
85.4385
 31
0.0
  0
LINE
  8
0
 62
     0
 10
45.919
 20
85.4385
 30
0.0
 11
45.919
 21
98.2377
 31
0.0
  0
LINE
  8
0
 62
     0
 10
45.919
 20
98.2377
 30
0.0
 11
46.7184
 21
98.2377
 31
0.0
  0
LINE
  8
0
 62
     0
 10
46.7184
 20
98.2377
 30
0.0
 11
46.7184
 21
98.8385
 31
0.0
  0
LINE
  8
0
 62
     0
 10
46.7184
 20
98.8385
 30
0.0
 11
60.7191
 21
98.8385
 31
0.0
  0
LINE
  8
0
 62
     0
 10
60.7191
 20
98.8385
 30
0.0
 11
60.7191
 21
98.2377
 31
0.0
  0
LINE
  8
0
 62
     0
 10
60.7191
 20
98.2377
 30
0.0
 11
61.5184
 21
98.2377
 31
0.0
  0
LINE
  8
0
 62
     0
 10
61.5184
 20
98.2377
 30
0.0
 11
61.5184
 21
85.4385
 31
0.0
  0
LINE
  8
0
 62
     0
 10
61.5184
 20
85.4385
 30
0.0
 11
60.7191
 21
85.4385
 31
0.0
  0
LINE
  8
0
 62
     0
 10
65.4816
 20
28.2884
 30
0.0
 11
65.4816
 21
27.6876
 31
0.0
  0
LINE
  8
0
 62
     0
 10
65.4816
 20
27.6876
 30
0.0
 11
51.4823
 21
27.6876
 31
0.0
  0
LINE
  8
0
 62
     0
 10
51.4823
 20
27.6876
 30
0.0
 11
51.4823
 21
28.2884
 31
0.0
  0
LINE
  8
0
 62
     0
 10
51.4823
 20
28.2884
 30
0.0
 11
50.6815
 21
28.2884
 31
0.0
  0
LINE
  8
0
 62
     0
 10
50.6815
 20
28.2884
 30
0.0
 11
50.6815
 21
41.0877
 31
0.0
  0
LINE
  8
0
 62
     0
 10
50.6815
 20
41.0877
 30
0.0
 11
51.4823
 21
41.0877
 31
0.0
  0
LINE
  8
0
 62
     0
 10
51.4823
 20
41.0877
 30
0.0
 11
51.4823
 21
41.6885
 31
0.0
  0
LINE
  8
0
 62
     0
 10
51.4823
 20
41.6885
 30
0.0
 11
65.4816
 21
41.6885
 31
0.0
  0
LINE
  8
0
 62
     0
 10
65.4816
 20
41.6885
 30
0.0
 11
65.4816
 21
41.0877
 31
0.0
  0
LINE
  8
0
 62
     0
 10
65.4816
 20
41.0877
 30
0.0
 11
66.2824
 21
41.0877
 31
0.0
  0
LINE
  8
0
 62
     0
 10
66.2824
 20
41.0877
 30
0.0
 11
66.2824
 21
28.2884
 31
0.0
  0
LINE
  8
0
 62
     0
 10
66.2824
 20
28.2884
 30
0.0
 11
65.4816
 21
28.2884
 31
0.0
  0
LINE
  8
0
 62
     0
 10
70.2441
 20
66.3885
 30
0.0
 11
70.2441
 21
65.7874
 31
0.0
  0
LINE
  8
0
 62
     0
 10
70.2441
 20
65.7874
 30
0.0
 11
56.2434
 21
65.7874
 31
0.0
  0
LINE
  8
0
 62
     0
 10
56.2434
 20
65.7874
 30
0.0
 11
56.2434
 21
66.3885
 31
0.0
  0
LINE
  8
0
 62
     0
 10
56.2434
 20
66.3885
 30
0.0
 11
55.444
 21
66.3885
 31
0.0
  0
LINE
  8
0
 62
     0
 10
55.444
 20
66.3885
 30
0.0
 11
55.444
 21
79.1877
 31
0.0
  0
LINE
  8
0
 62
     0
 10
55.444
 20
79.1877
 30
0.0
 11
56.2434
 21
79.1877
 31
0.0
  0
LINE
  8
0
 62
     0
 10
56.2434
 20
79.1877
 30
0.0
 11
56.2434
 21
79.7885
 31
0.0
  0
LINE
  8
0
 62
     0
 10
56.2434
 20
79.7885
 30
0.0
 11
70.2441
 21
79.7885
 31
0.0
  0
LINE
  8
0
 62
     0
 10
70.2441
 20
79.7885
 30
0.0
 11
70.2441
 21
79.1877
 31
0.0
  0
LINE
  8
0
 62
     0
 10
70.2441
 20
79.1877
 30
0.0
 11
71.0434
 21
79.1877
 31
0.0
  0
LINE
  8
0
 62
     0
 10
71.0434
 20
79.1877
 30
0.0
 11
71.0434
 21
66.3885
 31
0.0
  0
LINE
  8
0
 62
     0
 10
71.0434
 20
66.3885
 30
0.0
 11
70.2441
 21
66.3885
 31
0.0
  0
LINE
  8
0
 62
     0
 10
72.6253
 20
9.23837
 30
0.0
 11
72.6253
 21
8.63755
 31
0.0
  0
LINE
  8
0
 62
     0
 10
72.6253
 20
8.63755
 30
0.0
 11
58.6246
 21
8.63755
 31
0.0
  0
LINE
  8
0
 62
     0
 10
58.6246
 20
8.63755
 30
0.0
 11
58.6246
 21
9.23837
 31
0.0
  0
LINE
  8
0
 62
     0
 10
58.6246
 20
9.23837
 30
0.0
 11
57.8252
 21
9.23837
 31
0.0
  0
LINE
  8
0
 62
     0
 10
57.8252
 20
9.23837
 30
0.0
 11
57.8252
 21
22.0376
 31
0.0
  0
LINE
  8
0
 62
     0
 10
57.8252
 20
22.0376
 30
0.0
 11
58.6246
 21
22.0376
 31
0.0
  0
LINE
  8
0
 62
     0
 10
58.6246
 20
22.0376
 30
0.0
 11
58.6246
 21
22.6384
 31
0.0
  0
LINE
  8
0
 62
     0
 10
58.6246
 20
22.6384
 30
0.0
 11
72.6253
 21
22.6384
 31
0.0
  0
LINE
  8
0
 62
     0
 10
72.6253
 20
22.6384
 30
0.0
 11
72.6253
 21
22.0376
 31
0.0
  0
LINE
  8
0
 62
     0
 10
72.6253
 20
22.0376
 30
0.0
 11
73.4247
 21
22.0376
 31
0.0
  0
LINE
  8
0
 62
     0
 10
73.4247
 20
22.0376
 30
0.0
 11
73.4247
 21
9.23837
 31
0.0
  0
LINE
  8
0
 62
     0
 10
73.4247
 20
9.23837
 30
0.0
 11
72.6253
 21
9.23837
 31
0.0
  0
LINE
  8
0
 62
     0
 10
75.0051
 20
47.3385
 30
0.0
 11
75.0051
 21
46.7374
 31
0.0
  0
LINE
  8
0
 62
     0
 10
75.0051
 20
46.7374
 30
0.0
 11
61.0059
 21
46.7374
 31
0.0
  0
LINE
  8
0
 62
     0
 10
61.0059
 20
46.7374
 30
0.0
 11
61.0059
 21
47.3385
 31
0.0
  0
LINE
  8
0
 62
     0
 10
61.0059
 20
47.3385
 30
0.0
 11
60.2051
 21
47.3385
 31
0.0
  0
LINE
  8
0
 62
     0
 10
60.2051
 20
47.3385
 30
0.0
 11
60.2051
 21
60.1377
 31
0.0
  0
LINE
  8
0
 62
     0
 10
60.2051
 20
60.1377
 30
0.0
 11
61.0059
 21
60.1377
 31
0.0
  0
LINE
  8
0
 62
     0
 10
61.0059
 20
60.1377
 30
0.0
 11
61.0059
 21
60.7385
 31
0.0
  0
LINE
  8
0
 62
     0
 10
61.0059
 20
60.7385
 30
0.0
 11
75.0051
 21
60.7385
 31
0.0
  0
LINE
  8
0
 62
     0
 10
75.0051
 20
60.7385
 30
0.0
 11
75.0051
 21
60.1377
 31
0.0
  0
LINE
  8
0
 62
     0
 10
75.0051
 20
60.1377
 30
0.0
 11
75.8059
 21
60.1377
 31
0.0
  0
LINE
  8
0
 62
     0
 10
75.8059
 20
60.1377
 30
0.0
 11
75.8059
 21
47.3385
 31
0.0
  0
LINE
  8
0
 62
     0
 10
75.8059
 20
47.3385
 30
0.0
 11
75.0051
 21
47.3385
 31
0.0
  0
LINE
  8
0
 62
     0
 10
79.7691
 20
114.014
 30
0.0
 11
79.7691
 21
113.412
 31
0.0
  0
LINE
  8
0
 62
     0
 10
79.7691
 20
113.412
 30
0.0
 11
65.7684
 21
113.412
 31
0.0
  0
LINE
  8
0
 62
     0
 10
65.7684
 20
113.412
 30
0.0
 11
65.7684
 21
114.014
 31
0.0
  0
LINE
  8
0
 62
     0
 10
65.7684
 20
114.014
 30
0.0
 11
64.969
 21
114.014
 31
0.0
  0
LINE
  8
0
 62
     0
 10
64.969
 20
114.014
 30
0.0
 11
64.969
 21
126.813
 31
0.0
  0
LINE
  8
0
 62
     0
 10
64.969
 20
126.813
 30
0.0
 11
65.7684
 21
126.813
 31
0.0
  0
LINE
  8
0
 62
     0
 10
65.7684
 20
126.813
 30
0.0
 11
65.7684
 21
127.413
 31
0.0
  0
LINE
  8
0
 62
     0
 10
65.7684
 20
127.413
 30
0.0
 11
79.7691
 21
127.413
 31
0.0
  0
LINE
  8
0
 62
     0
 10
79.7691
 20
127.413
 30
0.0
 11
79.7691
 21
126.813
 31
0.0
  0
LINE
  8
0
 62
     0
 10
79.7691
 20
126.813
 30
0.0
 11
80.5684
 21
126.813
 31
0.0
  0
LINE
  8
0
 62
     0
 10
80.5684
 20
126.813
 30
0.0
 11
80.5684
 21
114.014
 31
0.0
  0
LINE
  8
0
 62
     0
 10
80.5684
 20
114.014
 30
0.0
 11
79.7691
 21
114.014
 31
0.0
  0
LINE
  8
0
 62
     0
 10
79.7691
 20
85.4385
 30
0.0
 11
79.7691
 21
84.8374
 31
0.0
  0
LINE
  8
0
 62
     0
 10
79.7691
 20
84.8374
 30
0.0
 11
65.7684
 21
84.8374
 31
0.0
  0
LINE
  8
0
 62
     0
 10
65.7684
 20
84.8374
 30
0.0
 11
65.7684
 21
85.4385
 31
0.0
  0
LINE
  8
0
 62
     0
 10
65.7684
 20
85.4385
 30
0.0
 11
64.969
 21
85.4385
 31
0.0
  0
LINE
  8
0
 62
     0
 10
64.969
 20
85.4385
 30
0.0
 11
64.969
 21
98.2377
 31
0.0
  0
LINE
  8
0
 62
     0
 10
64.969
 20
98.2377
 30
0.0
 11
65.7684
 21
98.2377
 31
0.0
  0
LINE
  8
0
 62
     0
 10
65.7684
 20
98.2377
 30
0.0
 11
65.7684
 21
98.8385
 31
0.0
  0
LINE
  8
0
 62
     0
 10
65.7684
 20
98.8385
 30
0.0
 11
79.7691
 21
98.8385
 31
0.0
  0
LINE
  8
0
 62
     0
 10
79.7691
 20
98.8385
 30
0.0
 11
79.7691
 21
98.2377
 31
0.0
  0
LINE
  8
0
 62
     0
 10
79.7691
 20
98.2377
 30
0.0
 11
80.5684
 21
98.2377
 31
0.0
  0
LINE
  8
0
 62
     0
 10
80.5684
 20
98.2377
 30
0.0
 11
80.5684
 21
85.4385
 31
0.0
  0
LINE
  8
0
 62
     0
 10
80.5684
 20
85.4385
 30
0.0
 11
79.7691
 21
85.4385
 31
0.0
  0
LINE
  8
0
 62
     0
 10
84.5316
 20
28.2884
 30
0.0
 11
84.5316
 21
27.6876
 31
0.0
  0
LINE
  8
0
 62
     0
 10
84.5316
 20
27.6876
 30
0.0
 11
70.5323
 21
27.6876
 31
0.0
  0
LINE
  8
0
 62
     0
 10
70.5323
 20
27.6876
 30
0.0
 11
70.5323
 21
28.2884
 31
0.0
  0
LINE
  8
0
 62
     0
 10
70.5323
 20
28.2884
 30
0.0
 11
69.7315
 21
28.2884
 31
0.0
  0
LINE
  8
0
 62
     0
 10
69.7315
 20
28.2884
 30
0.0
 11
69.7315
 21
41.0877
 31
0.0
  0
LINE
  8
0
 62
     0
 10
69.7315
 20
41.0877
 30
0.0
 11
70.5323
 21
41.0877
 31
0.0
  0
LINE
  8
0
 62
     0
 10
70.5323
 20
41.0877
 30
0.0
 11
70.5323
 21
41.6885
 31
0.0
  0
LINE
  8
0
 62
     0
 10
70.5323
 20
41.6885
 30
0.0
 11
84.5316
 21
41.6885
 31
0.0
  0
LINE
  8
0
 62
     0
 10
84.5316
 20
41.6885
 30
0.0
 11
84.5316
 21
41.0877
 31
0.0
  0
LINE
  8
0
 62
     0
 10
84.5316
 20
41.0877
 30
0.0
 11
85.3324
 21
41.0877
 31
0.0
  0
LINE
  8
0
 62
     0
 10
85.3324
 20
41.0877
 30
0.0
 11
85.3324
 21
28.2884
 31
0.0
  0
LINE
  8
0
 62
     0
 10
85.3324
 20
28.2884
 30
0.0
 11
84.5316
 21
28.2884
 31
0.0
  0
LINE
  8
0
 62
     0
 10
89.2941
 20
66.3885
 30
0.0
 11
89.2941
 21
65.7874
 31
0.0
  0
LINE
  8
0
 62
     0
 10
89.2941
 20
65.7874
 30
0.0
 11
75.2934
 21
65.7874
 31
0.0
  0
LINE
  8
0
 62
     0
 10
75.2934
 20
65.7874
 30
0.0
 11
75.2934
 21
66.3885
 31
0.0
  0
LINE
  8
0
 62
     0
 10
75.2934
 20
66.3885
 30
0.0
 11
74.494
 21
66.3885
 31
0.0
  0
LINE
  8
0
 62
     0
 10
74.494
 20
66.3885
 30
0.0
 11
74.494
 21
79.1877
 31
0.0
  0
LINE
  8
0
 62
     0
 10
74.494
 20
79.1877
 30
0.0
 11
75.2934
 21
79.1877
 31
0.0
  0
LINE
  8
0
 62
     0
 10
75.2934
 20
79.1877
 30
0.0
 11
75.2934
 21
79.7885
 31
0.0
  0
LINE
  8
0
 62
     0
 10
75.2934
 20
79.7885
 30
0.0
 11
89.2941
 21
79.7885
 31
0.0
  0
LINE
  8
0
 62
     0
 10
89.2941
 20
79.7885
 30
0.0
 11
89.2941
 21
79.1877
 31
0.0
  0
LINE
  8
0
 62
     0
 10
89.2941
 20
79.1877
 30
0.0
 11
90.0934
 21
79.1877
 31
0.0
  0
LINE
  8
0
 62
     0
 10
90.0934
 20
79.1877
 30
0.0
 11
90.0934
 21
66.3885
 31
0.0
  0
LINE
  8
0
 62
     0
 10
90.0934
 20
66.3885
 30
0.0
 11
89.2941
 21
66.3885
 31
0.0
  0
LINE
  8
0
 62
     0
 10
94.0551
 20
47.3385
 30
0.0
 11
94.0551
 21
46.7374
 31
0.0
  0
LINE
  8
0
 62
     0
 10
94.0551
 20
46.7374
 30
0.0
 11
80.0559
 21
46.7374
 31
0.0
  0
LINE
  8
0
 62
     0
 10
80.0559
 20
46.7374
 30
0.0
 11
80.0559
 21
47.3385
 31
0.0
  0
LINE
  8
0
 62
     0
 10
80.0559
 20
47.3385
 30
0.0
 11
79.2551
 21
47.3385
 31
0.0
  0
LINE
  8
0
 62
     0
 10
79.2551
 20
47.3385
 30
0.0
 11
79.2551
 21
60.1377
 31
0.0
  0
LINE
  8
0
 62
     0
 10
79.2551
 20
60.1377
 30
0.0
 11
80.0559
 21
60.1377
 31
0.0
  0
LINE
  8
0
 62
     0
 10
80.0559
 20
60.1377
 30
0.0
 11
80.0559
 21
60.7385
 31
0.0
  0
LINE
  8
0
 62
     0
 10
80.0559
 20
60.7385
 30
0.0
 11
94.0551
 21
60.7385
 31
0.0
  0
LINE
  8
0
 62
     0
 10
94.0551
 20
60.7385
 30
0.0
 11
94.0551
 21
60.1377
 31
0.0
  0
LINE
  8
0
 62
     0
 10
94.0551
 20
60.1377
 30
0.0
 11
94.8559
 21
60.1377
 31
0.0
  0
LINE
  8
0
 62
     0
 10
94.8559
 20
60.1377
 30
0.0
 11
94.8559
 21
47.3385
 31
0.0
  0
LINE
  8
0
 62
     0
 10
94.8559
 20
47.3385
 30
0.0
 11
94.0551
 21
47.3385
 31
0.0
  0
LINE
  8
0
 62
     0
 10
98.8191
 20
114.014
 30
0.0
 11
98.8191
 21
113.412
 31
0.0
  0
LINE
  8
0
 62
     0
 10
98.8191
 20
113.412
 30
0.0
 11
84.8184
 21
113.412
 31
0.0
  0
LINE
  8
0
 62
     0
 10
84.8184
 20
113.412
 30
0.0
 11
84.8184
 21
114.014
 31
0.0
  0
LINE
  8
0
 62
     0
 10
84.8184
 20
114.014
 30
0.0
 11
84.019
 21
114.014
 31
0.0
  0
LINE
  8
0
 62
     0
 10
84.019
 20
114.014
 30
0.0
 11
84.019
 21
126.813
 31
0.0
  0
LINE
  8
0
 62
     0
 10
84.019
 20
126.813
 30
0.0
 11
84.8184
 21
126.813
 31
0.0
  0
LINE
  8
0
 62
     0
 10
84.8184
 20
126.813
 30
0.0
 11
84.8184
 21
127.413
 31
0.0
  0
LINE
  8
0
 62
     0
 10
84.8184
 20
127.413
 30
0.0
 11
98.8191
 21
127.413
 31
0.0
  0
LINE
  8
0
 62
     0
 10
98.8191
 20
127.413
 30
0.0
 11
98.8191
 21
126.813
 31
0.0
  0
LINE
  8
0
 62
     0
 10
98.8191
 20
126.813
 30
0.0
 11
99.6184
 21
126.813
 31
0.0
  0
LINE
  8
0
 62
     0
 10
99.6184
 20
126.813
 30
0.0
 11
99.6184
 21
114.014
 31
0.0
  0
LINE
  8
0
 62
     0
 10
99.6184
 20
114.014
 30
0.0
 11
98.8191
 21
114.014
 31
0.0
  0
LINE
  8
0
 62
     0
 10
98.8191
 20
85.4385
 30
0.0
 11
98.8191
 21
84.8374
 31
0.0
  0
LINE
  8
0
 62
     0
 10
98.8191
 20
84.8374
 30
0.0
 11
84.8184
 21
84.8374
 31
0.0
  0
LINE
  8
0
 62
     0
 10
84.8184
 20
84.8374
 30
0.0
 11
84.8184
 21
85.4385
 31
0.0
  0
LINE
  8
0
 62
     0
 10
84.8184
 20
85.4385
 30
0.0
 11
84.019
 21
85.4385
 31
0.0
  0
LINE
  8
0
 62
     0
 10
84.019
 20
85.4385
 30
0.0
 11
84.019
 21
98.2377
 31
0.0
  0
LINE
  8
0
 62
     0
 10
84.019
 20
98.2377
 30
0.0
 11
84.8184
 21
98.2377
 31
0.0
  0
LINE
  8
0
 62
     0
 10
84.8184
 20
98.2377
 30
0.0
 11
84.8184
 21
98.8385
 31
0.0
  0
LINE
  8
0
 62
     0
 10
84.8184
 20
98.8385
 30
0.0
 11
98.8191
 21
98.8385
 31
0.0
  0
LINE
  8
0
 62
     0
 10
98.8191
 20
98.8385
 30
0.0
 11
98.8191
 21
98.2377
 31
0.0
  0
LINE
  8
0
 62
     0
 10
98.8191
 20
98.2377
 30
0.0
 11
99.6184
 21
98.2377
 31
0.0
  0
LINE
  8
0
 62
     0
 10
99.6184
 20
98.2377
 30
0.0
 11
99.6184
 21
85.4385
 31
0.0
  0
LINE
  8
0
 62
     0
 10
99.6184
 20
85.4385
 30
0.0
 11
98.8191
 21
85.4385
 31
0.0
  0
LINE
  8
0
 62
     0
 10
103.582
 20
28.2884
 30
0.0
 11
103.582
 21
27.6876
 31
0.0
  0
LINE
  8
0
 62
     0
 10
103.582
 20
27.6876
 30
0.0
 11
89.5823
 21
27.6876
 31
0.0
  0
LINE
  8
0
 62
     0
 10
89.5823
 20
27.6876
 30
0.0
 11
89.5823
 21
28.2884
 31
0.0
  0
LINE
  8
0
 62
     0
 10
89.5823
 20
28.2884
 30
0.0
 11
88.7815
 21
28.2884
 31
0.0
  0
LINE
  8
0
 62
     0
 10
88.7815
 20
28.2884
 30
0.0
 11
88.7815
 21
41.0877
 31
0.0
  0
LINE
  8
0
 62
     0
 10
88.7815
 20
41.0877
 30
0.0
 11
89.5823
 21
41.0877
 31
0.0
  0
LINE
  8
0
 62
     0
 10
89.5823
 20
41.0877
 30
0.0
 11
89.5823
 21
41.6885
 31
0.0
  0
LINE
  8
0
 62
     0
 10
89.5823
 20
41.6885
 30
0.0
 11
103.582
 21
41.6885
 31
0.0
  0
LINE
  8
0
 62
     0
 10
103.582
 20
41.6885
 30
0.0
 11
103.582
 21
41.0877
 31
0.0
  0
LINE
  8
0
 62
     0
 10
103.582
 20
41.0877
 30
0.0
 11
104.382
 21
41.0877
 31
0.0
  0
LINE
  8
0
 62
     0
 10
104.382
 20
41.0877
 30
0.0
 11
104.382
 21
28.2884
 31
0.0
  0
LINE
  8
0
 62
     0
 10
104.382
 20
28.2884
 30
0.0
 11
103.582
 21
28.2884
 31
0.0
  0
LINE
  8
0
 62
     0
 10
108.344
 20
66.3885
 30
0.0
 11
108.344
 21
65.7874
 31
0.0
  0
LINE
  8
0
 62
     0
 10
108.344
 20
65.7874
 30
0.0
 11
94.3434
 21
65.7874
 31
0.0
  0
LINE
  8
0
 62
     0
 10
94.3434
 20
65.7874
 30
0.0
 11
94.3434
 21
66.3885
 31
0.0
  0
LINE
  8
0
 62
     0
 10
94.3434
 20
66.3885
 30
0.0
 11
93.544
 21
66.3885
 31
0.0
  0
LINE
  8
0
 62
     0
 10
93.544
 20
66.3885
 30
0.0
 11
93.544
 21
79.1877
 31
0.0
  0
LINE
  8
0
 62
     0
 10
93.544
 20
79.1877
 30
0.0
 11
94.3434
 21
79.1877
 31
0.0
  0
LINE
  8
0
 62
     0
 10
94.3434
 20
79.1877
 30
0.0
 11
94.3434
 21
79.7885
 31
0.0
  0
LINE
  8
0
 62
     0
 10
94.3434
 20
79.7885
 30
0.0
 11
108.344
 21
79.7885
 31
0.0
  0
LINE
  8
0
 62
     0
 10
108.344
 20
79.7885
 30
0.0
 11
108.344
 21
79.1877
 31
0.0
  0
LINE
  8
0
 62
     0
 10
108.344
 20
79.1877
 30
0.0
 11
109.143
 21
79.1877
 31
0.0
  0
LINE
  8
0
 62
     0
 10
109.143
 20
79.1877
 30
0.0
 11
109.143
 21
66.3885
 31
0.0
  0
LINE
  8
0
 62
     0
 10
109.143
 20
66.3885
 30
0.0
 11
108.344
 21
66.3885
 31
0.0
  0
LINE
  8
0
 62
     0
 10
113.105
 20
47.3385
 30
0.0
 11
113.105
 21
46.7374
 31
0.0
  0
LINE
  8
0
 62
     0
 10
113.105
 20
46.7374
 30
0.0
 11
99.1059
 21
46.7374
 31
0.0
  0
LINE
  8
0
 62
     0
 10
99.1059
 20
46.7374
 30
0.0
 11
99.1059
 21
47.3385
 31
0.0
  0
LINE
  8
0
 62
     0
 10
99.1059
 20
47.3385
 30
0.0
 11
98.3051
 21
47.3385
 31
0.0
  0
LINE
  8
0
 62
     0
 10
98.3051
 20
47.3385
 30
0.0
 11
98.3051
 21
60.1377
 31
0.0
  0
LINE
  8
0
 62
     0
 10
98.3051
 20
60.1377
 30
0.0
 11
99.1059
 21
60.1377
 31
0.0
  0
LINE
  8
0
 62
     0
 10
99.1059
 20
60.1377
 30
0.0
 11
99.1059
 21
60.7385
 31
0.0
  0
LINE
  8
0
 62
     0
 10
99.1059
 20
60.7385
 30
0.0
 11
113.105
 21
60.7385
 31
0.0
  0
LINE
  8
0
 62
     0
 10
113.105
 20
60.7385
 30
0.0
 11
113.105
 21
60.1377
 31
0.0
  0
LINE
  8
0
 62
     0
 10
113.105
 20
60.1377
 30
0.0
 11
113.906
 21
60.1377
 31
0.0
  0
LINE
  8
0
 62
     0
 10
113.906
 20
60.1377
 30
0.0
 11
113.906
 21
47.3385
 31
0.0
  0
LINE
  8
0
 62
     0
 10
113.906
 20
47.3385
 30
0.0
 11
113.105
 21
47.3385
 31
0.0
  0
LINE
  8
0
 62
     0
 10
117.869
 20
114.014
 30
0.0
 11
117.869
 21
113.412
 31
0.0
  0
LINE
  8
0
 62
     0
 10
117.869
 20
113.412
 30
0.0
 11
103.868
 21
113.412
 31
0.0
  0
LINE
  8
0
 62
     0
 10
103.868
 20
113.412
 30
0.0
 11
103.868
 21
114.014
 31
0.0
  0
LINE
  8
0
 62
     0
 10
103.868
 20
114.014
 30
0.0
 11
103.069
 21
114.014
 31
0.0
  0
LINE
  8
0
 62
     0
 10
103.069
 20
114.014
 30
0.0
 11
103.069
 21
126.813
 31
0.0
  0
LINE
  8
0
 62
     0
 10
103.069
 20
126.813
 30
0.0
 11
103.868
 21
126.813
 31
0.0
  0
LINE
  8
0
 62
     0
 10
103.868
 20
126.813
 30
0.0
 11
103.868
 21
127.413
 31
0.0
  0
LINE
  8
0
 62
     0
 10
103.868
 20
127.413
 30
0.0
 11
117.869
 21
127.413
 31
0.0
  0
LINE
  8
0
 62
     0
 10
117.869
 20
127.413
 30
0.0
 11
117.869
 21
126.813
 31
0.0
  0
LINE
  8
0
 62
     0
 10
117.869
 20
126.813
 30
0.0
 11
118.668
 21
126.813
 31
0.0
  0
LINE
  8
0
 62
     0
 10
118.668
 20
126.813
 30
0.0
 11
118.668
 21
114.014
 31
0.0
  0
LINE
  8
0
 62
     0
 10
118.668
 20
114.014
 30
0.0
 11
117.869
 21
114.014
 31
0.0
  0
LINE
  8
0
 62
     0
 10
117.869
 20
85.4385
 30
0.0
 11
117.869
 21
84.8374
 31
0.0
  0
LINE
  8
0
 62
     0
 10
117.869
 20
84.8374
 30
0.0
 11
103.868
 21
84.8374
 31
0.0
  0
LINE
  8
0
 62
     0
 10
103.868
 20
84.8374
 30
0.0
 11
103.868
 21
85.4385
 31
0.0
  0
LINE
  8
0
 62
     0
 10
103.868
 20
85.4385
 30
0.0
 11
103.069
 21
85.4385
 31
0.0
  0
LINE
  8
0
 62
     0
 10
103.069
 20
85.4385
 30
0.0
 11
103.069
 21
98.2377
 31
0.0
  0
LINE
  8
0
 62
     0
 10
103.069
 20
98.2377
 30
0.0
 11
103.868
 21
98.2377
 31
0.0
  0
LINE
  8
0
 62
     0
 10
103.868
 20
98.2377
 30
0.0
 11
103.868
 21
98.8385
 31
0.0
  0
LINE
  8
0
 62
     0
 10
103.868
 20
98.8385
 30
0.0
 11
117.869
 21
98.8385
 31
0.0
  0
LINE
  8
0
 62
     0
 10
117.869
 20
98.8385
 30
0.0
 11
117.869
 21
98.2377
 31
0.0
  0
LINE
  8
0
 62
     0
 10
117.869
 20
98.2377
 30
0.0
 11
118.668
 21
98.2377
 31
0.0
  0
LINE
  8
0
 62
     0
 10
118.668
 20
98.2377
 30
0.0
 11
118.668
 21
85.4385
 31
0.0
  0
LINE
  8
0
 62
     0
 10
118.668
 20
85.4385
 30
0.0
 11
117.869
 21
85.4385
 31
0.0
  0
LINE
  8
0
 62
     0
 10
122.632
 20
28.2884
 30
0.0
 11
122.632
 21
27.6876
 31
0.0
  0
LINE
  8
0
 62
     0
 10
122.632
 20
27.6876
 30
0.0
 11
108.632
 21
27.6876
 31
0.0
  0
LINE
  8
0
 62
     0
 10
108.632
 20
27.6876
 30
0.0
 11
108.632
 21
28.2884
 31
0.0
  0
LINE
  8
0
 62
     0
 10
108.632
 20
28.2884
 30
0.0
 11
107.831
 21
28.2884
 31
0.0
  0
LINE
  8
0
 62
     0
 10
107.831
 20
28.2884
 30
0.0
 11
107.831
 21
41.0877
 31
0.0
  0
LINE
  8
0
 62
     0
 10
107.831
 20
41.0877
 30
0.0
 11
108.632
 21
41.0877
 31
0.0
  0
LINE
  8
0
 62
     0
 10
108.632
 20
41.0877
 30
0.0
 11
108.632
 21
41.6885
 31
0.0
  0
LINE
  8
0
 62
     0
 10
108.632
 20
41.6885
 30
0.0
 11
122.632
 21
41.6885
 31
0.0
  0
LINE
  8
0
 62
     0
 10
122.632
 20
41.6885
 30
0.0
 11
122.632
 21
41.0877
 31
0.0
  0
LINE
  8
0
 62
     0
 10
122.632
 20
41.0877
 30
0.0
 11
123.432
 21
41.0877
 31
0.0
  0
LINE
  8
0
 62
     0
 10
123.432
 20
41.0877
 30
0.0
 11
123.432
 21
28.2884
 31
0.0
  0
LINE
  8
0
 62
     0
 10
123.432
 20
28.2884
 30
0.0
 11
122.632
 21
28.2884
 31
0.0
  0
LINE
  8
0
 62
     0
 10
127.394
 20
66.3885
 30
0.0
 11
127.394
 21
65.7874
 31
0.0
  0
LINE
  8
0
 62
     0
 10
127.394
 20
65.7874
 30
0.0
 11
113.393
 21
65.7874
 31
0.0
  0
LINE
  8
0
 62
     0
 10
113.393
 20
65.7874
 30
0.0
 11
113.393
 21
66.3885
 31
0.0
  0
LINE
  8
0
 62
     0
 10
113.393
 20
66.3885
 30
0.0
 11
112.594
 21
66.3885
 31
0.0
  0
LINE
  8
0
 62
     0
 10
112.594
 20
66.3885
 30
0.0
 11
112.594
 21
79.1877
 31
0.0
  0
LINE
  8
0
 62
     0
 10
112.594
 20
79.1877
 30
0.0
 11
113.393
 21
79.1877
 31
0.0
  0
LINE
  8
0
 62
     0
 10
113.393
 20
79.1877
 30
0.0
 11
113.393
 21
79.7885
 31
0.0
  0
LINE
  8
0
 62
     0
 10
113.393
 20
79.7885
 30
0.0
 11
127.394
 21
79.7885
 31
0.0
  0
LINE
  8
0
 62
     0
 10
127.394
 20
79.7885
 30
0.0
 11
127.394
 21
79.1877
 31
0.0
  0
LINE
  8
0
 62
     0
 10
127.394
 20
79.1877
 30
0.0
 11
128.193
 21
79.1877
 31
0.0
  0
LINE
  8
0
 62
     0
 10
128.193
 20
79.1877
 30
0.0
 11
128.193
 21
66.3885
 31
0.0
  0
LINE
  8
0
 62
     0
 10
128.193
 20
66.3885
 30
0.0
 11
127.394
 21
66.3885
 31
0.0
  0
LINE
  8
0
 62
     0
 10
132.155
 20
47.3385
 30
0.0
 11
132.155
 21
46.7374
 31
0.0
  0
LINE
  8
0
 62
     0
 10
132.155
 20
46.7374
 30
0.0
 11
118.156
 21
46.7374
 31
0.0
  0
LINE
  8
0
 62
     0
 10
118.156
 20
46.7374
 30
0.0
 11
118.156
 21
47.3385
 31
0.0
  0
LINE
  8
0
 62
     0
 10
118.156
 20
47.3385
 30
0.0
 11
117.356
 21
47.3385
 31
0.0
  0
LINE
  8
0
 62
     0
 10
117.356
 20
47.3385
 30
0.0
 11
117.356
 21
60.1377
 31
0.0
  0
LINE
  8
0
 62
     0
 10
117.356
 20
60.1377
 30
0.0
 11
118.156
 21
60.1377
 31
0.0
  0
LINE
  8
0
 62
     0
 10
118.156
 20
60.1377
 30
0.0
 11
118.156
 21
60.7385
 31
0.0
  0
LINE
  8
0
 62
     0
 10
118.156
 20
60.7385
 30
0.0
 11
132.155
 21
60.7385
 31
0.0
  0
LINE
  8
0
 62
     0
 10
132.155
 20
60.7385
 30
0.0
 11
132.155
 21
60.1377
 31
0.0
  0
LINE
  8
0
 62
     0
 10
132.155
 20
60.1377
 30
0.0
 11
132.957
 21
60.1377
 31
0.0
  0
LINE
  8
0
 62
     0
 10
132.957
 20
60.1377
 30
0.0
 11
132.957
 21
47.3385
 31
0.0
  0
LINE
  8
0
 62
     0
 10
132.957
 20
47.3385
 30
0.0
 11
132.155
 21
47.3385
 31
0.0
  0
LINE
  8
0
 62
     0
 10
136.919
 20
85.4385
 30
0.0
 11
136.919
 21
84.8374
 31
0.0
  0
LINE
  8
0
 62
     0
 10
136.919
 20
84.8374
 30
0.0
 11
122.918
 21
84.8374
 31
0.0
  0
LINE
  8
0
 62
     0
 10
122.918
 20
84.8374
 30
0.0
 11
122.918
 21
85.4385
 31
0.0
  0
LINE
  8
0
 62
     0
 10
122.918
 20
85.4385
 30
0.0
 11
122.119
 21
85.4385
 31
0.0
  0
LINE
  8
0
 62
     0
 10
122.119
 20
85.4385
 30
0.0
 11
122.119
 21
98.2377
 31
0.0
  0
LINE
  8
0
 62
     0
 10
122.119
 20
98.2377
 30
0.0
 11
122.918
 21
98.2377
 31
0.0
  0
LINE
  8
0
 62
     0
 10
122.918
 20
98.2377
 30
0.0
 11
122.918
 21
98.8385
 31
0.0
  0
LINE
  8
0
 62
     0
 10
122.918
 20
98.8385
 30
0.0
 11
136.919
 21
98.8385
 31
0.0
  0
LINE
  8
0
 62
     0
 10
136.919
 20
98.8385
 30
0.0
 11
136.919
 21
98.2377
 31
0.0
  0
LINE
  8
0
 62
     0
 10
136.919
 20
98.2377
 30
0.0
 11
137.718
 21
98.2377
 31
0.0
  0
LINE
  8
0
 62
     0
 10
137.718
 20
98.2377
 30
0.0
 11
137.718
 21
85.4385
 31
0.0
  0
LINE
  8
0
 62
     0
 10
137.718
 20
85.4385
 30
0.0
 11
136.919
 21
85.4385
 31
0.0
  0
LINE
  8
0
 62
     0
 10
141.682
 20
28.2884
 30
0.0
 11
141.682
 21
27.6876
 31
0.0
  0
LINE
  8
0
 62
     0
 10
141.682
 20
27.6876
 30
0.0
 11
127.682
 21
27.6876
 31
0.0
  0
LINE
  8
0
 62
     0
 10
127.682
 20
27.6876
 30
0.0
 11
127.682
 21
28.2884
 31
0.0
  0
LINE
  8
0
 62
     0
 10
127.682
 20
28.2884
 30
0.0
 11
126.88
 21
28.2884
 31
0.0
  0
LINE
  8
0
 62
     0
 10
126.88
 20
28.2884
 30
0.0
 11
126.88
 21
41.0877
 31
0.0
  0
LINE
  8
0
 62
     0
 10
126.88
 20
41.0877
 30
0.0
 11
127.682
 21
41.0877
 31
0.0
  0
LINE
  8
0
 62
     0
 10
127.682
 20
41.0877
 30
0.0
 11
127.682
 21
41.6885
 31
0.0
  0
LINE
  8
0
 62
     0
 10
127.682
 20
41.6885
 30
0.0
 11
141.682
 21
41.6885
 31
0.0
  0
LINE
  8
0
 62
     0
 10
141.682
 20
41.6885
 30
0.0
 11
141.682
 21
41.0877
 31
0.0
  0
LINE
  8
0
 62
     0
 10
141.682
 20
41.0877
 30
0.0
 11
142.482
 21
41.0877
 31
0.0
  0
LINE
  8
0
 62
     0
 10
142.482
 20
41.0877
 30
0.0
 11
142.482
 21
28.2884
 31
0.0
  0
LINE
  8
0
 62
     0
 10
142.482
 20
28.2884
 30
0.0
 11
141.682
 21
28.2884
 31
0.0
  0
LINE
  8
0
 62
     0
 10
146.444
 20
114.014
 30
0.0
 11
146.444
 21
113.412
 31
0.0
  0
LINE
  8
0
 62
     0
 10
146.444
 20
113.412
 30
0.0
 11
132.443
 21
113.412
 31
0.0
  0
LINE
  8
0
 62
     0
 10
132.443
 20
113.412
 30
0.0
 11
132.443
 21
114.014
 31
0.0
  0
LINE
  8
0
 62
     0
 10
132.443
 20
114.014
 30
0.0
 11
131.644
 21
114.014
 31
0.0
  0
LINE
  8
0
 62
     0
 10
131.644
 20
114.014
 30
0.0
 11
131.644
 21
126.813
 31
0.0
  0
LINE
  8
0
 62
     0
 10
131.644
 20
126.813
 30
0.0
 11
132.443
 21
126.813
 31
0.0
  0
LINE
  8
0
 62
     0
 10
132.443
 20
126.813
 30
0.0
 11
132.443
 21
127.413
 31
0.0
  0
LINE
  8
0
 62
     0
 10
132.443
 20
127.413
 30
0.0
 11
146.444
 21
127.413
 31
0.0
  0
LINE
  8
0
 62
     0
 10
146.444
 20
127.413
 30
0.0
 11
146.444
 21
126.813
 31
0.0
  0
LINE
  8
0
 62
     0
 10
146.444
 20
126.813
 30
0.0
 11
147.243
 21
126.813
 31
0.0
  0
LINE
  8
0
 62
     0
 10
147.243
 20
126.813
 30
0.0
 11
147.243
 21
114.014
 31
0.0
  0
LINE
  8
0
 62
     0
 10
147.243
 20
114.014
 30
0.0
 11
146.444
 21
114.014
 31
0.0
  0
LINE
  8
0
 62
     0
 10
146.444
 20
66.3885
 30
0.0
 11
146.444
 21
65.7874
 31
0.0
  0
LINE
  8
0
 62
     0
 10
146.444
 20
65.7874
 30
0.0
 11
132.443
 21
65.7874
 31
0.0
  0
LINE
  8
0
 62
     0
 10
132.443
 20
65.7874
 30
0.0
 11
132.443
 21
66.3885
 31
0.0
  0
LINE
  8
0
 62
     0
 10
132.443
 20
66.3885
 30
0.0
 11
131.644
 21
66.3885
 31
0.0
  0
LINE
  8
0
 62
     0
 10
131.644
 20
66.3885
 30
0.0
 11
131.644
 21
79.1877
 31
0.0
  0
LINE
  8
0
 62
     0
 10
131.644
 20
79.1877
 30
0.0
 11
132.443
 21
79.1877
 31
0.0
  0
LINE
  8
0
 62
     0
 10
132.443
 20
79.1877
 30
0.0
 11
132.443
 21
79.7885
 31
0.0
  0
LINE
  8
0
 62
     0
 10
132.443
 20
79.7885
 30
0.0
 11
146.444
 21
79.7885
 31
0.0
  0
LINE
  8
0
 62
     0
 10
146.444
 20
79.7885
 30
0.0
 11
146.444
 21
79.1877
 31
0.0
  0
LINE
  8
0
 62
     0
 10
146.444
 20
79.1877
 30
0.0
 11
147.243
 21
79.1877
 31
0.0
  0
LINE
  8
0
 62
     0
 10
147.243
 20
79.1877
 30
0.0
 11
147.243
 21
66.3885
 31
0.0
  0
LINE
  8
0
 62
     0
 10
147.243
 20
66.3885
 30
0.0
 11
146.444
 21
66.3885
 31
0.0
  0
LINE
  8
0
 62
     0
 10
151.207
 20
47.3385
 30
0.0
 11
151.207
 21
46.7374
 31
0.0
  0
LINE
  8
0
 62
     0
 10
151.207
 20
46.7374
 30
0.0
 11
137.207
 21
46.7374
 31
0.0
  0
LINE
  8
0
 62
     0
 10
137.207
 20
46.7374
 30
0.0
 11
137.207
 21
47.3385
 31
0.0
  0
LINE
  8
0
 62
     0
 10
137.207
 20
47.3385
 30
0.0
 11
136.405
 21
47.3385
 31
0.0
  0
LINE
  8
0
 62
     0
 10
136.405
 20
47.3385
 30
0.0
 11
136.405
 21
60.1377
 31
0.0
  0
LINE
  8
0
 62
     0
 10
136.405
 20
60.1377
 30
0.0
 11
137.207
 21
60.1377
 31
0.0
  0
LINE
  8
0
 62
     0
 10
137.207
 20
60.1377
 30
0.0
 11
137.207
 21
60.7385
 31
0.0
  0
LINE
  8
0
 62
     0
 10
137.207
 20
60.7385
 30
0.0
 11
151.207
 21
60.7385
 31
0.0
  0
LINE
  8
0
 62
     0
 10
151.207
 20
60.7385
 30
0.0
 11
151.207
 21
60.1377
 31
0.0
  0
LINE
  8
0
 62
     0
 10
151.207
 20
60.1377
 30
0.0
 11
152.007
 21
60.1377
 31
0.0
  0
LINE
  8
0
 62
     0
 10
152.007
 20
60.1377
 30
0.0
 11
152.007
 21
47.3385
 31
0.0
  0
LINE
  8
0
 62
     0
 10
152.007
 20
47.3385
 30
0.0
 11
151.207
 21
47.3385
 31
0.0
  0
LINE
  8
0
 62
     0
 10
155.969
 20
85.4385
 30
0.0
 11
155.969
 21
84.8374
 31
0.0
  0
LINE
  8
0
 62
     0
 10
155.969
 20
84.8374
 30
0.0
 11
141.968
 21
84.8374
 31
0.0
  0
LINE
  8
0
 62
     0
 10
141.968
 20
84.8374
 30
0.0
 11
141.968
 21
85.4385
 31
0.0
  0
LINE
  8
0
 62
     0
 10
141.968
 20
85.4385
 30
0.0
 11
141.169
 21
85.4385
 31
0.0
  0
LINE
  8
0
 62
     0
 10
141.169
 20
85.4385
 30
0.0
 11
141.169
 21
98.2377
 31
0.0
  0
LINE
  8
0
 62
     0
 10
141.169
 20
98.2377
 30
0.0
 11
141.968
 21
98.2377
 31
0.0
  0
LINE
  8
0
 62
     0
 10
141.968
 20
98.2377
 30
0.0
 11
141.968
 21
98.8385
 31
0.0
  0
LINE
  8
0
 62
     0
 10
141.968
 20
98.8385
 30
0.0
 11
155.969
 21
98.8385
 31
0.0
  0
LINE
  8
0
 62
     0
 10
155.969
 20
98.8385
 30
0.0
 11
155.969
 21
98.2377
 31
0.0
  0
LINE
  8
0
 62
     0
 10
155.969
 20
98.2377
 30
0.0
 11
156.768
 21
98.2377
 31
0.0
  0
LINE
  8
0
 62
     0
 10
156.768
 20
98.2377
 30
0.0
 11
156.768
 21
85.4385
 31
0.0
  0
LINE
  8
0
 62
     0
 10
156.768
 20
85.4385
 30
0.0
 11
155.969
 21
85.4385
 31
0.0
  0
LINE
  8
0
 62
     0
 10
160.732
 20
28.2884
 30
0.0
 11
160.732
 21
27.6876
 31
0.0
  0
LINE
  8
0
 62
     0
 10
160.732
 20
27.6876
 30
0.0
 11
146.732
 21
27.6876
 31
0.0
  0
LINE
  8
0
 62
     0
 10
146.732
 20
27.6876
 30
0.0
 11
146.732
 21
28.2884
 31
0.0
  0
LINE
  8
0
 62
     0
 10
146.732
 20
28.2884
 30
0.0
 11
145.931
 21
28.2884
 31
0.0
  0
LINE
  8
0
 62
     0
 10
145.931
 20
28.2884
 30
0.0
 11
145.931
 21
41.0877
 31
0.0
  0
LINE
  8
0
 62
     0
 10
145.931
 20
41.0877
 30
0.0
 11
146.732
 21
41.0877
 31
0.0
  0
LINE
  8
0
 62
     0
 10
146.732
 20
41.0877
 30
0.0
 11
146.732
 21
41.6885
 31
0.0
  0
LINE
  8
0
 62
     0
 10
146.732
 20
41.6885
 30
0.0
 11
160.732
 21
41.6885
 31
0.0
  0
LINE
  8
0
 62
     0
 10
160.732
 20
41.6885
 30
0.0
 11
160.732
 21
41.0877
 31
0.0
  0
LINE
  8
0
 62
     0
 10
160.732
 20
41.0877
 30
0.0
 11
161.532
 21
41.0877
 31
0.0
  0
LINE
  8
0
 62
     0
 10
161.532
 20
41.0877
 30
0.0
 11
161.532
 21
28.2884
 31
0.0
  0
LINE
  8
0
 62
     0
 10
161.532
 20
28.2884
 30
0.0
 11
160.732
 21
28.2884
 31
0.0
  0
LINE
  8
0
 62
     0
 10
165.494
 20
114.014
 30
0.0
 11
165.494
 21
113.412
 31
0.0
  0
LINE
  8
0
 62
     0
 10
165.494
 20
113.412
 30
0.0
 11
151.493
 21
113.412
 31
0.0
  0
LINE
  8
0
 62
     0
 10
151.493
 20
113.412
 30
0.0
 11
151.493
 21
114.014
 31
0.0
  0
LINE
  8
0
 62
     0
 10
151.493
 20
114.014
 30
0.0
 11
150.694
 21
114.014
 31
0.0
  0
LINE
  8
0
 62
     0
 10
150.694
 20
114.014
 30
0.0
 11
150.694
 21
126.813
 31
0.0
  0
LINE
  8
0
 62
     0
 10
150.694
 20
126.813
 30
0.0
 11
151.493
 21
126.813
 31
0.0
  0
LINE
  8
0
 62
     0
 10
151.493
 20
126.813
 30
0.0
 11
151.493
 21
127.413
 31
0.0
  0
LINE
  8
0
 62
     0
 10
151.493
 20
127.413
 30
0.0
 11
165.494
 21
127.413
 31
0.0
  0
LINE
  8
0
 62
     0
 10
165.494
 20
127.413
 30
0.0
 11
165.494
 21
126.813
 31
0.0
  0
LINE
  8
0
 62
     0
 10
165.494
 20
126.813
 30
0.0
 11
166.293
 21
126.813
 31
0.0
  0
LINE
  8
0
 62
     0
 10
166.293
 20
126.813
 30
0.0
 11
166.293
 21
114.014
 31
0.0
  0
LINE
  8
0
 62
     0
 10
166.293
 20
114.014
 30
0.0
 11
165.494
 21
114.014
 31
0.0
  0
LINE
  8
0
 62
     0
 10
165.494
 20
66.3885
 30
0.0
 11
165.494
 21
65.7874
 31
0.0
  0
LINE
  8
0
 62
     0
 10
165.494
 20
65.7874
 30
0.0
 11
151.493
 21
65.7874
 31
0.0
  0
LINE
  8
0
 62
     0
 10
151.493
 20
65.7874
 30
0.0
 11
151.493
 21
66.3885
 31
0.0
  0
LINE
  8
0
 62
     0
 10
151.493
 20
66.3885
 30
0.0
 11
150.694
 21
66.3885
 31
0.0
  0
LINE
  8
0
 62
     0
 10
150.694
 20
66.3885
 30
0.0
 11
150.694
 21
79.1877
 31
0.0
  0
LINE
  8
0
 62
     0
 10
150.694
 20
79.1877
 30
0.0
 11
151.493
 21
79.1877
 31
0.0
  0
LINE
  8
0
 62
     0
 10
151.493
 20
79.1877
 30
0.0
 11
151.493
 21
79.7885
 31
0.0
  0
LINE
  8
0
 62
     0
 10
151.493
 20
79.7885
 30
0.0
 11
165.494
 21
79.7885
 31
0.0
  0
LINE
  8
0
 62
     0
 10
165.494
 20
79.7885
 30
0.0
 11
165.494
 21
79.1877
 31
0.0
  0
LINE
  8
0
 62
     0
 10
165.494
 20
79.1877
 30
0.0
 11
166.293
 21
79.1877
 31
0.0
  0
LINE
  8
0
 62
     0
 10
166.293
 20
79.1877
 30
0.0
 11
166.293
 21
66.3885
 31
0.0
  0
LINE
  8
0
 62
     0
 10
166.293
 20
66.3885
 30
0.0
 11
165.494
 21
66.3885
 31
0.0
  0
LINE
  8
0
 62
     0
 10
170.257
 20
47.3385
 30
0.0
 11
170.257
 21
46.7374
 31
0.0
  0
LINE
  8
0
 62
     0
 10
170.257
 20
46.7374
 30
0.0
 11
156.257
 21
46.7374
 31
0.0
  0
LINE
  8
0
 62
     0
 10
156.257
 20
46.7374
 30
0.0
 11
156.257
 21
47.3385
 31
0.0
  0
LINE
  8
0
 62
     0
 10
156.257
 20
47.3385
 30
0.0
 11
155.456
 21
47.3385
 31
0.0
  0
LINE
  8
0
 62
     0
 10
155.456
 20
47.3385
 30
0.0
 11
155.456
 21
60.1377
 31
0.0
  0
LINE
  8
0
 62
     0
 10
155.456
 20
60.1377
 30
0.0
 11
156.257
 21
60.1377
 31
0.0
  0
LINE
  8
0
 62
     0
 10
156.257
 20
60.1377
 30
0.0
 11
156.257
 21
60.7385
 31
0.0
  0
LINE
  8
0
 62
     0
 10
156.257
 20
60.7385
 30
0.0
 11
170.257
 21
60.7385
 31
0.0
  0
LINE
  8
0
 62
     0
 10
170.257
 20
60.7385
 30
0.0
 11
170.257
 21
60.1377
 31
0.0
  0
LINE
  8
0
 62
     0
 10
170.257
 20
60.1377
 30
0.0
 11
171.057
 21
60.1377
 31
0.0
  0
LINE
  8
0
 62
     0
 10
171.057
 20
60.1377
 30
0.0
 11
171.057
 21
47.3385
 31
0.0
  0
LINE
  8
0
 62
     0
 10
171.057
 20
47.3385
 30
0.0
 11
170.257
 21
47.3385
 31
0.0
  0
LINE
  8
0
 62
     0
 10
175.019
 20
85.4385
 30
0.0
 11
175.019
 21
84.8374
 31
0.0
  0
LINE
  8
0
 62
     0
 10
175.019
 20
84.8374
 30
0.0
 11
161.018
 21
84.8374
 31
0.0
  0
LINE
  8
0
 62
     0
 10
161.018
 20
84.8374
 30
0.0
 11
161.018
 21
85.4385
 31
0.0
  0
LINE
  8
0
 62
     0
 10
161.018
 20
85.4385
 30
0.0
 11
160.219
 21
85.4385
 31
0.0
  0
LINE
  8
0
 62
     0
 10
160.219
 20
85.4385
 30
0.0
 11
160.219
 21
98.2377
 31
0.0
  0
LINE
  8
0
 62
     0
 10
160.219
 20
98.2377
 30
0.0
 11
161.018
 21
98.2377
 31
0.0
  0
LINE
  8
0
 62
     0
 10
161.018
 20
98.2377
 30
0.0
 11
161.018
 21
98.8385
 31
0.0
  0
LINE
  8
0
 62
     0
 10
161.018
 20
98.8385
 30
0.0
 11
175.019
 21
98.8385
 31
0.0
  0
LINE
  8
0
 62
     0
 10
175.019
 20
98.8385
 30
0.0
 11
175.019
 21
98.2377
 31
0.0
  0
LINE
  8
0
 62
     0
 10
175.019
 20
98.2377
 30
0.0
 11
175.818
 21
98.2377
 31
0.0
  0
LINE
  8
0
 62
     0
 10
175.818
 20
98.2377
 30
0.0
 11
175.818
 21
85.4385
 31
0.0
  0
LINE
  8
0
 62
     0
 10
175.818
 20
85.4385
 30
0.0
 11
175.019
 21
85.4385
 31
0.0
  0
LINE
  8
0
 62
     0
 10
179.782
 20
28.2884
 30
0.0
 11
179.782
 21
27.6876
 31
0.0
  0
LINE
  8
0
 62
     0
 10
179.782
 20
27.6876
 30
0.0
 11
165.782
 21
27.6876
 31
0.0
  0
LINE
  8
0
 62
     0
 10
165.782
 20
27.6876
 30
0.0
 11
165.782
 21
28.2884
 31
0.0
  0
LINE
  8
0
 62
     0
 10
165.782
 20
28.2884
 30
0.0
 11
164.981
 21
28.2884
 31
0.0
  0
LINE
  8
0
 62
     0
 10
164.981
 20
28.2884
 30
0.0
 11
164.981
 21
41.0877
 31
0.0
  0
LINE
  8
0
 62
     0
 10
164.981
 20
41.0877
 30
0.0
 11
165.782
 21
41.0877
 31
0.0
  0
LINE
  8
0
 62
     0
 10
165.782
 20
41.0877
 30
0.0
 11
165.782
 21
41.6885
 31
0.0
  0
LINE
  8
0
 62
     0
 10
165.782
 20
41.6885
 30
0.0
 11
179.782
 21
41.6885
 31
0.0
  0
LINE
  8
0
 62
     0
 10
179.782
 20
41.6885
 30
0.0
 11
179.782
 21
41.0877
 31
0.0
  0
LINE
  8
0
 62
     0
 10
179.782
 20
41.0877
 30
0.0
 11
180.582
 21
41.0877
 31
0.0
  0
LINE
  8
0
 62
     0
 10
180.582
 20
41.0877
 30
0.0
 11
180.582
 21
28.2884
 31
0.0
  0
LINE
  8
0
 62
     0
 10
180.582
 20
28.2884
 30
0.0
 11
179.782
 21
28.2884
 31
0.0
  0
LINE
  8
0
 62
     0
 10
184.544
 20
114.014
 30
0.0
 11
184.544
 21
113.412
 31
0.0
  0
LINE
  8
0
 62
     0
 10
184.544
 20
113.412
 30
0.0
 11
170.543
 21
113.412
 31
0.0
  0
LINE
  8
0
 62
     0
 10
170.543
 20
113.412
 30
0.0
 11
170.543
 21
114.014
 31
0.0
  0
LINE
  8
0
 62
     0
 10
170.543
 20
114.014
 30
0.0
 11
169.744
 21
114.014
 31
0.0
  0
LINE
  8
0
 62
     0
 10
169.744
 20
114.014
 30
0.0
 11
169.744
 21
126.813
 31
0.0
  0
LINE
  8
0
 62
     0
 10
169.744
 20
126.813
 30
0.0
 11
170.543
 21
126.813
 31
0.0
  0
LINE
  8
0
 62
     0
 10
170.543
 20
126.813
 30
0.0
 11
170.543
 21
127.413
 31
0.0
  0
LINE
  8
0
 62
     0
 10
170.543
 20
127.413
 30
0.0
 11
184.544
 21
127.413
 31
0.0
  0
LINE
  8
0
 62
     0
 10
184.544
 20
127.413
 30
0.0
 11
184.544
 21
126.813
 31
0.0
  0
LINE
  8
0
 62
     0
 10
184.544
 20
126.813
 30
0.0
 11
185.343
 21
126.813
 31
0.0
  0
LINE
  8
0
 62
     0
 10
185.343
 20
126.813
 30
0.0
 11
185.343
 21
114.014
 31
0.0
  0
LINE
  8
0
 62
     0
 10
185.343
 20
114.014
 30
0.0
 11
184.544
 21
114.014
 31
0.0
  0
LINE
  8
0
 62
     0
 10
184.544
 20
66.3885
 30
0.0
 11
184.544
 21
65.7874
 31
0.0
  0
LINE
  8
0
 62
     0
 10
184.544
 20
65.7874
 30
0.0
 11
170.543
 21
65.7874
 31
0.0
  0
LINE
  8
0
 62
     0
 10
170.543
 20
65.7874
 30
0.0
 11
170.543
 21
66.3885
 31
0.0
  0
LINE
  8
0
 62
     0
 10
170.543
 20
66.3885
 30
0.0
 11
169.744
 21
66.3885
 31
0.0
  0
LINE
  8
0
 62
     0
 10
169.744
 20
66.3885
 30
0.0
 11
169.744
 21
79.1877
 31
0.0
  0
LINE
  8
0
 62
     0
 10
169.744
 20
79.1877
 30
0.0
 11
170.543
 21
79.1877
 31
0.0
  0
LINE
  8
0
 62
     0
 10
170.543
 20
79.1877
 30
0.0
 11
170.543
 21
79.7885
 31
0.0
  0
LINE
  8
0
 62
     0
 10
170.543
 20
79.7885
 30
0.0
 11
184.544
 21
79.7885
 31
0.0
  0
LINE
  8
0
 62
     0
 10
184.544
 20
79.7885
 30
0.0
 11
184.544
 21
79.1877
 31
0.0
  0
LINE
  8
0
 62
     0
 10
184.544
 20
79.1877
 30
0.0
 11
185.343
 21
79.1877
 31
0.0
  0
LINE
  8
0
 62
     0
 10
185.343
 20
79.1877
 30
0.0
 11
185.343
 21
66.3885
 31
0.0
  0
LINE
  8
0
 62
     0
 10
185.343
 20
66.3885
 30
0.0
 11
184.544
 21
66.3885
 31
0.0
  0
LINE
  8
0
 62
     0
 10
189.307
 20
47.3385
 30
0.0
 11
189.307
 21
46.7374
 31
0.0
  0
LINE
  8
0
 62
     0
 10
189.307
 20
46.7374
 30
0.0
 11
175.307
 21
46.7374
 31
0.0
  0
LINE
  8
0
 62
     0
 10
175.307
 20
46.7374
 30
0.0
 11
175.307
 21
47.3385
 31
0.0
  0
LINE
  8
0
 62
     0
 10
175.307
 20
47.3385
 30
0.0
 11
174.506
 21
47.3385
 31
0.0
  0
LINE
  8
0
 62
     0
 10
174.506
 20
47.3385
 30
0.0
 11
174.506
 21
60.1377
 31
0.0
  0
LINE
  8
0
 62
     0
 10
174.506
 20
60.1377
 30
0.0
 11
175.307
 21
60.1377
 31
0.0
  0
LINE
  8
0
 62
     0
 10
175.307
 20
60.1377
 30
0.0
 11
175.307
 21
60.7385
 31
0.0
  0
LINE
  8
0
 62
     0
 10
175.307
 20
60.7385
 30
0.0
 11
189.307
 21
60.7385
 31
0.0
  0
LINE
  8
0
 62
     0
 10
189.307
 20
60.7385
 30
0.0
 11
189.307
 21
60.1377
 31
0.0
  0
LINE
  8
0
 62
     0
 10
189.307
 20
60.1377
 30
0.0
 11
190.107
 21
60.1377
 31
0.0
  0
LINE
  8
0
 62
     0
 10
190.107
 20
60.1377
 30
0.0
 11
190.107
 21
47.3385
 31
0.0
  0
LINE
  8
0
 62
     0
 10
190.107
 20
47.3385
 30
0.0
 11
189.307
 21
47.3385
 31
0.0
  0
LINE
  8
0
 62
     0
 10
190.389
 20
15.1378
 30
0.0
 11
190.389
 21
8.86767
 31
0.0
  0
LINE
  8
0
 62
     0
 10
190.389
 20
8.86767
 30
0.0
 11
188.713
 21
8.86767
 31
0.0
  0
LINE
  8
0
 62
     0
 10
188.713
 20
8.86767
 30
0.0
 11
188.713
 21
7.8879
 31
0.0
  0
LINE
  8
0
 62
     0
 10
188.713
 20
7.8879
 30
0.0
 11
185.412
 21
7.8879
 31
0.0
  0
LINE
  8
0
 62
     0
 10
185.412
 20
7.8879
 30
0.0
 11
185.412
 21
8.86767
 31
0.0
  0
LINE
  8
0
 62
     0
 10
185.412
 20
8.86767
 30
0.0
 11
183.738
 21
8.86767
 31
0.0
  0
LINE
  8
0
 62
     0
 10
183.738
 20
8.86767
 30
0.0
 11
183.738
 21
13.338
 31
0.0
  0
LINE
  8
0
 62
     0
 10
183.738
 20
13.338
 30
0.0
 11
144.862
 21
13.338
 31
0.0
  0
LINE
  8
0
 62
     0
 10
144.862
 20
13.338
 30
0.0
 11
144.862
 21
9.23837
 31
0.0
  0
LINE
  8
0
 62
     0
 10
144.862
 20
9.23837
 30
0.0
 11
144.063
 21
9.23837
 31
0.0
  0
LINE
  8
0
 62
     0
 10
144.063
 20
9.23837
 30
0.0
 11
144.063
 21
8.63755
 31
0.0
  0
LINE
  8
0
 62
     0
 10
144.063
 20
8.63755
 30
0.0
 11
130.064
 21
8.63755
 31
0.0
  0
LINE
  8
0
 62
     0
 10
130.064
 20
8.63755
 30
0.0
 11
130.064
 21
9.23837
 31
0.0
  0
LINE
  8
0
 62
     0
 10
130.064
 20
9.23837
 30
0.0
 11
129.263
 21
9.23837
 31
0.0
  0
LINE
  8
0
 62
     0
 10
129.263
 20
9.23837
 30
0.0
 11
129.263
 21
13.338
 31
0.0
  0
LINE
  8
0
 62
     0
 10
129.263
 20
13.338
 30
0.0
 11
90.3884
 21
13.338
 31
0.0
  0
LINE
  8
0
 62
     0
 10
90.3884
 20
13.338
 30
0.0
 11
90.3884
 21
8.86767
 31
0.0
  0
LINE
  8
0
 62
     0
 10
90.3884
 20
8.86767
 30
0.0
 11
88.7127
 21
8.86767
 31
0.0
  0
LINE
  8
0
 62
     0
 10
88.7127
 20
8.86767
 30
0.0
 11
88.7127
 21
7.8879
 31
0.0
  0
LINE
  8
0
 62
     0
 10
88.7127
 20
7.8879
 30
0.0
 11
85.4121
 21
7.8879
 31
0.0
  0
LINE
  8
0
 62
     0
 10
85.4121
 20
7.8879
 30
0.0
 11
85.4121
 21
8.86767
 31
0.0
  0
LINE
  8
0
 62
     0
 10
85.4121
 20
8.86767
 30
0.0
 11
83.7378
 21
8.86767
 31
0.0
  0
LINE
  8
0
 62
     0
 10
83.7378
 20
8.86767
 30
0.0
 11
83.7378
 21
15.1378
 31
0.0
  0
LINE
  8
0
 62
     0
 10
83.7378
 20
15.1378
 30
0.0
 11
82.8629
 21
15.1378
 31
0.0
  0
LINE
  8
0
 62
     0
 10
82.8629
 20
15.1378
 30
0.0
 11
82.8629
 21
17.9379
 31
0.0
  0
LINE
  8
0
 62
     0
 10
82.8629
 20
17.9379
 30
0.0
 11
83.7378
 21
17.9379
 31
0.0
  0
LINE
  8
0
 62
     0
 10
83.7378
 20
17.9379
 30
0.0
 11
83.7378
 21
21.168
 31
0.0
  0
LINE
  8
0
 62
     0
 10
83.7378
 20
21.168
 30
0.0
 11
85.4121
 21
21.168
 31
0.0
  0
LINE
  8
0
 62
     0
 10
85.4121
 20
21.168
 30
0.0
 11
85.4121
 21
22.0886
 31
0.0
  0
LINE
  8
0
 62
     0
 10
85.4121
 20
22.0886
 30
0.0
 11
88.7127
 21
22.0886
 31
0.0
  0
LINE
  8
0
 62
     0
 10
88.7127
 20
22.0886
 30
0.0
 11
88.7127
 21
21.168
 31
0.0
  0
LINE
  8
0
 62
     0
 10
88.7127
 20
21.168
 30
0.0
 11
90.3884
 21
21.168
 31
0.0
  0
LINE
  8
0
 62
     0
 10
90.3884
 20
21.168
 30
0.0
 11
90.3884
 21
17.9379
 31
0.0
  0
LINE
  8
0
 62
     0
 10
90.3884
 20
17.9379
 30
0.0
 11
129.263
 21
17.9379
 31
0.0
  0
LINE
  8
0
 62
     0
 10
129.263
 20
17.9379
 30
0.0
 11
129.263
 21
22.0376
 31
0.0
  0
LINE
  8
0
 62
     0
 10
129.263
 20
22.0376
 30
0.0
 11
130.064
 21
22.0376
 31
0.0
  0
LINE
  8
0
 62
     0
 10
130.064
 20
22.0376
 30
0.0
 11
130.064
 21
22.6384
 31
0.0
  0
LINE
  8
0
 62
     0
 10
130.064
 20
22.6384
 30
0.0
 11
144.063
 21
22.6384
 31
0.0
  0
LINE
  8
0
 62
     0
 10
144.063
 20
22.6384
 30
0.0
 11
144.063
 21
22.0376
 31
0.0
  0
LINE
  8
0
 62
     0
 10
144.063
 20
22.0376
 30
0.0
 11
144.862
 21
22.0376
 31
0.0
  0
LINE
  8
0
 62
     0
 10
144.862
 20
22.0376
 30
0.0
 11
144.862
 21
17.9379
 31
0.0
  0
LINE
  8
0
 62
     0
 10
144.862
 20
17.9379
 30
0.0
 11
183.738
 21
17.9379
 31
0.0
  0
LINE
  8
0
 62
     0
 10
183.738
 20
17.9379
 30
0.0
 11
183.738
 21
21.168
 31
0.0
  0
LINE
  8
0
 62
     0
 10
183.738
 20
21.168
 30
0.0
 11
185.412
 21
21.168
 31
0.0
  0
LINE
  8
0
 62
     0
 10
185.412
 20
21.168
 30
0.0
 11
185.412
 21
22.0886
 31
0.0
  0
LINE
  8
0
 62
     0
 10
185.412
 20
22.0886
 30
0.0
 11
188.713
 21
22.0886
 31
0.0
  0
LINE
  8
0
 62
     0
 10
188.713
 20
22.0886
 30
0.0
 11
188.713
 21
21.168
 31
0.0
  0
LINE
  8
0
 62
     0
 10
188.713
 20
21.168
 30
0.0
 11
190.389
 21
21.168
 31
0.0
  0
LINE
  8
0
 62
     0
 10
190.389
 20
21.168
 30
0.0
 11
190.389
 21
17.9379
 31
0.0
  0
LINE
  8
0
 62
     0
 10
190.389
 20
17.9379
 30
0.0
 11
191.262
 21
17.9379
 31
0.0
  0
LINE
  8
0
 62
     0
 10
191.262
 20
17.9379
 30
0.0
 11
191.262
 21
15.1378
 31
0.0
  0
LINE
  8
0
 62
     0
 10
191.262
 20
15.1378
 30
0.0
 11
190.389
 21
15.1378
 31
0.0
  0
LINE
  8
0
 62
     0
 10
194.069
 20
85.4385
 30
0.0
 11
194.069
 21
84.8374
 31
0.0
  0
LINE
  8
0
 62
     0
 10
194.069
 20
84.8374
 30
0.0
 11
180.068
 21
84.8374
 31
0.0
  0
LINE
  8
0
 62
     0
 10
180.068
 20
84.8374
 30
0.0
 11
180.068
 21
85.4385
 31
0.0
  0
LINE
  8
0
 62
     0
 10
180.068
 20
85.4385
 30
0.0
 11
179.269
 21
85.4385
 31
0.0
  0
LINE
  8
0
 62
     0
 10
179.269
 20
85.4385
 30
0.0
 11
179.269
 21
98.2377
 31
0.0
  0
LINE
  8
0
 62
     0
 10
179.269
 20
98.2377
 30
0.0
 11
180.068
 21
98.2377
 31
0.0
  0
LINE
  8
0
 62
     0
 10
180.068
 20
98.2377
 30
0.0
 11
180.068
 21
98.8385
 31
0.0
  0
LINE
  8
0
 62
     0
 10
180.068
 20
98.8385
 30
0.0
 11
194.069
 21
98.8385
 31
0.0
  0
LINE
  8
0
 62
     0
 10
194.069
 20
98.8385
 30
0.0
 11
194.069
 21
98.2377
 31
0.0
  0
LINE
  8
0
 62
     0
 10
194.069
 20
98.2377
 30
0.0
 11
194.868
 21
98.2377
 31
0.0
  0
LINE
  8
0
 62
     0
 10
194.868
 20
98.2377
 30
0.0
 11
194.868
 21
85.4385
 31
0.0
  0
LINE
  8
0
 62
     0
 10
194.868
 20
85.4385
 30
0.0
 11
194.069
 21
85.4385
 31
0.0
  0
LINE
  8
0
 62
     0
 10
198.832
 20
28.2884
 30
0.0
 11
198.832
 21
27.6876
 31
0.0
  0
LINE
  8
0
 62
     0
 10
198.832
 20
27.6876
 30
0.0
 11
184.832
 21
27.6876
 31
0.0
  0
LINE
  8
0
 62
     0
 10
184.832
 20
27.6876
 30
0.0
 11
184.832
 21
28.2884
 31
0.0
  0
LINE
  8
0
 62
     0
 10
184.832
 20
28.2884
 30
0.0
 11
184.031
 21
28.2884
 31
0.0
  0
LINE
  8
0
 62
     0
 10
184.031
 20
28.2884
 30
0.0
 11
184.031
 21
41.0877
 31
0.0
  0
LINE
  8
0
 62
     0
 10
184.031
 20
41.0877
 30
0.0
 11
184.832
 21
41.0877
 31
0.0
  0
LINE
  8
0
 62
     0
 10
184.832
 20
41.0877
 30
0.0
 11
184.832
 21
41.6885
 31
0.0
  0
LINE
  8
0
 62
     0
 10
184.832
 20
41.6885
 30
0.0
 11
198.832
 21
41.6885
 31
0.0
  0
LINE
  8
0
 62
     0
 10
198.832
 20
41.6885
 30
0.0
 11
198.832
 21
41.0877
 31
0.0
  0
LINE
  8
0
 62
     0
 10
198.832
 20
41.0877
 30
0.0
 11
199.632
 21
41.0877
 31
0.0
  0
LINE
  8
0
 62
     0
 10
199.632
 20
41.0877
 30
0.0
 11
199.632
 21
28.2884
 31
0.0
  0
LINE
  8
0
 62
     0
 10
199.632
 20
28.2884
 30
0.0
 11
198.832
 21
28.2884
 31
0.0
  0
LINE
  8
0
 62
     0
 10
203.594
 20
114.014
 30
0.0
 11
203.594
 21
113.412
 31
0.0
  0
LINE
  8
0
 62
     0
 10
203.594
 20
113.412
 30
0.0
 11
189.593
 21
113.412
 31
0.0
  0
LINE
  8
0
 62
     0
 10
189.593
 20
113.412
 30
0.0
 11
189.593
 21
114.014
 31
0.0
  0
LINE
  8
0
 62
     0
 10
189.593
 20
114.014
 30
0.0
 11
188.794
 21
114.014
 31
0.0
  0
LINE
  8
0
 62
     0
 10
188.794
 20
114.014
 30
0.0
 11
188.794
 21
126.813
 31
0.0
  0
LINE
  8
0
 62
     0
 10
188.794
 20
126.813
 30
0.0
 11
189.593
 21
126.813
 31
0.0
  0
LINE
  8
0
 62
     0
 10
189.593
 20
126.813
 30
0.0
 11
189.593
 21
127.413
 31
0.0
  0
LINE
  8
0
 62
     0
 10
189.593
 20
127.413
 30
0.0
 11
203.594
 21
127.413
 31
0.0
  0
LINE
  8
0
 62
     0
 10
203.594
 20
127.413
 30
0.0
 11
203.594
 21
126.813
 31
0.0
  0
LINE
  8
0
 62
     0
 10
203.594
 20
126.813
 30
0.0
 11
204.393
 21
126.813
 31
0.0
  0
LINE
  8
0
 62
     0
 10
204.393
 20
126.813
 30
0.0
 11
204.393
 21
114.014
 31
0.0
  0
LINE
  8
0
 62
     0
 10
204.393
 20
114.014
 30
0.0
 11
203.594
 21
114.014
 31
0.0
  0
LINE
  8
0
 62
     0
 10
203.594
 20
66.3885
 30
0.0
 11
203.594
 21
65.7874
 31
0.0
  0
LINE
  8
0
 62
     0
 10
203.594
 20
65.7874
 30
0.0
 11
189.593
 21
65.7874
 31
0.0
  0
LINE
  8
0
 62
     0
 10
189.593
 20
65.7874
 30
0.0
 11
189.593
 21
66.3885
 31
0.0
  0
LINE
  8
0
 62
     0
 10
189.593
 20
66.3885
 30
0.0
 11
188.794
 21
66.3885
 31
0.0
  0
LINE
  8
0
 62
     0
 10
188.794
 20
66.3885
 30
0.0
 11
188.794
 21
79.1877
 31
0.0
  0
LINE
  8
0
 62
     0
 10
188.794
 20
79.1877
 30
0.0
 11
189.593
 21
79.1877
 31
0.0
  0
LINE
  8
0
 62
     0
 10
189.593
 20
79.1877
 30
0.0
 11
189.593
 21
79.7885
 31
0.0
  0
LINE
  8
0
 62
     0
 10
189.593
 20
79.7885
 30
0.0
 11
203.594
 21
79.7885
 31
0.0
  0
LINE
  8
0
 62
     0
 10
203.594
 20
79.7885
 30
0.0
 11
203.594
 21
79.1877
 31
0.0
  0
LINE
  8
0
 62
     0
 10
203.594
 20
79.1877
 30
0.0
 11
204.393
 21
79.1877
 31
0.0
  0
LINE
  8
0
 62
     0
 10
204.393
 20
79.1877
 30
0.0
 11
204.393
 21
66.3885
 31
0.0
  0
LINE
  8
0
 62
     0
 10
204.393
 20
66.3885
 30
0.0
 11
203.594
 21
66.3885
 31
0.0
  0
LINE
  8
0
 62
     0
 10
208.357
 20
47.3385
 30
0.0
 11
208.357
 21
46.7374
 31
0.0
  0
LINE
  8
0
 62
     0
 10
208.357
 20
46.7374
 30
0.0
 11
194.357
 21
46.7374
 31
0.0
  0
LINE
  8
0
 62
     0
 10
194.357
 20
46.7374
 30
0.0
 11
194.357
 21
47.3385
 31
0.0
  0
LINE
  8
0
 62
     0
 10
194.357
 20
47.3385
 30
0.0
 11
193.556
 21
47.3385
 31
0.0
  0
LINE
  8
0
 62
     0
 10
193.556
 20
47.3385
 30
0.0
 11
193.556
 21
60.1377
 31
0.0
  0
LINE
  8
0
 62
     0
 10
193.556
 20
60.1377
 30
0.0
 11
194.357
 21
60.1377
 31
0.0
  0
LINE
  8
0
 62
     0
 10
194.357
 20
60.1377
 30
0.0
 11
194.357
 21
60.7385
 31
0.0
  0
LINE
  8
0
 62
     0
 10
194.357
 20
60.7385
 30
0.0
 11
208.357
 21
60.7385
 31
0.0
  0
LINE
  8
0
 62
     0
 10
208.357
 20
60.7385
 30
0.0
 11
208.357
 21
60.1377
 31
0.0
  0
LINE
  8
0
 62
     0
 10
208.357
 20
60.1377
 30
0.0
 11
209.157
 21
60.1377
 31
0.0
  0
LINE
  8
0
 62
     0
 10
209.157
 20
60.1377
 30
0.0
 11
209.157
 21
47.3385
 31
0.0
  0
LINE
  8
0
 62
     0
 10
209.157
 20
47.3385
 30
0.0
 11
208.357
 21
47.3385
 31
0.0
  0
LINE
  8
0
 62
     0
 10
213.119
 20
85.4385
 30
0.0
 11
213.119
 21
84.8374
 31
0.0
  0
LINE
  8
0
 62
     0
 10
213.119
 20
84.8374
 30
0.0
 11
199.118
 21
84.8374
 31
0.0
  0
LINE
  8
0
 62
     0
 10
199.118
 20
84.8374
 30
0.0
 11
199.118
 21
85.4385
 31
0.0
  0
LINE
  8
0
 62
     0
 10
199.118
 20
85.4385
 30
0.0
 11
198.319
 21
85.4385
 31
0.0
  0
LINE
  8
0
 62
     0
 10
198.319
 20
85.4385
 30
0.0
 11
198.319
 21
98.2377
 31
0.0
  0
LINE
  8
0
 62
     0
 10
198.319
 20
98.2377
 30
0.0
 11
199.118
 21
98.2377
 31
0.0
  0
LINE
  8
0
 62
     0
 10
199.118
 20
98.2377
 30
0.0
 11
199.118
 21
98.8385
 31
0.0
  0
LINE
  8
0
 62
     0
 10
199.118
 20
98.8385
 30
0.0
 11
213.119
 21
98.8385
 31
0.0
  0
LINE
  8
0
 62
     0
 10
213.119
 20
98.8385
 30
0.0
 11
213.119
 21
98.2377
 31
0.0
  0
LINE
  8
0
 62
     0
 10
213.119
 20
98.2377
 30
0.0
 11
213.918
 21
98.2377
 31
0.0
  0
LINE
  8
0
 62
     0
 10
213.918
 20
98.2377
 30
0.0
 11
213.918
 21
85.4385
 31
0.0
  0
LINE
  8
0
 62
     0
 10
213.918
 20
85.4385
 30
0.0
 11
213.119
 21
85.4385
 31
0.0
  0
LINE
  8
0
 62
     0
 10
215.5
 20
9.23837
 30
0.0
 11
215.5
 21
8.63755
 31
0.0
  0
LINE
  8
0
 62
     0
 10
215.5
 20
8.63755
 30
0.0
 11
201.5
 21
8.63755
 31
0.0
  0
LINE
  8
0
 62
     0
 10
201.5
 20
8.63755
 30
0.0
 11
201.5
 21
9.23837
 31
0.0
  0
LINE
  8
0
 62
     0
 10
201.5
 20
9.23837
 30
0.0
 11
200.7
 21
9.23837
 31
0.0
  0
LINE
  8
0
 62
     0
 10
200.7
 20
9.23837
 30
0.0
 11
200.7
 21
22.0376
 31
0.0
  0
LINE
  8
0
 62
     0
 10
200.7
 20
22.0376
 30
0.0
 11
201.5
 21
22.0376
 31
0.0
  0
LINE
  8
0
 62
     0
 10
201.5
 20
22.0376
 30
0.0
 11
201.5
 21
22.6384
 31
0.0
  0
LINE
  8
0
 62
     0
 10
201.5
 20
22.6384
 30
0.0
 11
215.5
 21
22.6384
 31
0.0
  0
LINE
  8
0
 62
     0
 10
215.5
 20
22.6384
 30
0.0
 11
215.5
 21
22.0376
 31
0.0
  0
LINE
  8
0
 62
     0
 10
215.5
 20
22.0376
 30
0.0
 11
216.3
 21
22.0376
 31
0.0
  0
LINE
  8
0
 62
     0
 10
216.3
 20
22.0376
 30
0.0
 11
216.3
 21
9.23837
 31
0.0
  0
LINE
  8
0
 62
     0
 10
216.3
 20
9.23837
 30
0.0
 11
215.5
 21
9.23837
 31
0.0
  0
LINE
  8
0
 62
     0
 10
217.882
 20
28.2884
 30
0.0
 11
217.882
 21
27.6876
 31
0.0
  0
LINE
  8
0
 62
     0
 10
217.882
 20
27.6876
 30
0.0
 11
203.882
 21
27.6876
 31
0.0
  0
LINE
  8
0
 62
     0
 10
203.882
 20
27.6876
 30
0.0
 11
203.882
 21
28.2884
 31
0.0
  0
LINE
  8
0
 62
     0
 10
203.882
 20
28.2884
 30
0.0
 11
203.081
 21
28.2884
 31
0.0
  0
LINE
  8
0
 62
     0
 10
203.081
 20
28.2884
 30
0.0
 11
203.081
 21
41.0877
 31
0.0
  0
LINE
  8
0
 62
     0
 10
203.081
 20
41.0877
 30
0.0
 11
203.882
 21
41.0877
 31
0.0
  0
LINE
  8
0
 62
     0
 10
203.882
 20
41.0877
 30
0.0
 11
203.882
 21
41.6885
 31
0.0
  0
LINE
  8
0
 62
     0
 10
203.882
 20
41.6885
 30
0.0
 11
217.882
 21
41.6885
 31
0.0
  0
LINE
  8
0
 62
     0
 10
217.882
 20
41.6885
 30
0.0
 11
217.882
 21
41.0877
 31
0.0
  0
LINE
  8
0
 62
     0
 10
217.882
 20
41.0877
 30
0.0
 11
218.682
 21
41.0877
 31
0.0
  0
LINE
  8
0
 62
     0
 10
218.682
 20
41.0877
 30
0.0
 11
218.682
 21
28.2884
 31
0.0
  0
LINE
  8
0
 62
     0
 10
218.682
 20
28.2884
 30
0.0
 11
217.882
 21
28.2884
 31
0.0
  0
LINE
  8
0
 62
     0
 10
222.644
 20
66.3885
 30
0.0
 11
222.644
 21
65.7874
 31
0.0
  0
LINE
  8
0
 62
     0
 10
222.644
 20
65.7874
 30
0.0
 11
208.643
 21
65.7874
 31
0.0
  0
LINE
  8
0
 62
     0
 10
208.643
 20
65.7874
 30
0.0
 11
208.643
 21
66.3885
 31
0.0
  0
LINE
  8
0
 62
     0
 10
208.643
 20
66.3885
 30
0.0
 11
207.844
 21
66.3885
 31
0.0
  0
LINE
  8
0
 62
     0
 10
207.844
 20
66.3885
 30
0.0
 11
207.844
 21
79.1877
 31
0.0
  0
LINE
  8
0
 62
     0
 10
207.844
 20
79.1877
 30
0.0
 11
208.643
 21
79.1877
 31
0.0
  0
LINE
  8
0
 62
     0
 10
208.643
 20
79.1877
 30
0.0
 11
208.643
 21
79.7885
 31
0.0
  0
LINE
  8
0
 62
     0
 10
208.643
 20
79.7885
 30
0.0
 11
222.644
 21
79.7885
 31
0.0
  0
LINE
  8
0
 62
     0
 10
222.644
 20
79.7885
 30
0.0
 11
222.644
 21
79.1877
 31
0.0
  0
LINE
  8
0
 62
     0
 10
222.644
 20
79.1877
 30
0.0
 11
223.443
 21
79.1877
 31
0.0
  0
LINE
  8
0
 62
     0
 10
223.443
 20
79.1877
 30
0.0
 11
223.443
 21
66.3885
 31
0.0
  0
LINE
  8
0
 62
     0
 10
223.443
 20
66.3885
 30
0.0
 11
222.644
 21
66.3885
 31
0.0
  0
LINE
  8
0
 62
     0
 10
227.407
 20
47.3385
 30
0.0
 11
227.407
 21
46.7374
 31
0.0
  0
LINE
  8
0
 62
     0
 10
227.407
 20
46.7374
 30
0.0
 11
213.407
 21
46.7374
 31
0.0
  0
LINE
  8
0
 62
     0
 10
213.407
 20
46.7374
 30
0.0
 11
213.407
 21
47.3385
 31
0.0
  0
LINE
  8
0
 62
     0
 10
213.407
 20
47.3385
 30
0.0
 11
212.606
 21
47.3385
 31
0.0
  0
LINE
  8
0
 62
     0
 10
212.606
 20
47.3385
 30
0.0
 11
212.606
 21
60.1377
 31
0.0
  0
LINE
  8
0
 62
     0
 10
212.606
 20
60.1377
 30
0.0
 11
213.407
 21
60.1377
 31
0.0
  0
LINE
  8
0
 62
     0
 10
213.407
 20
60.1377
 30
0.0
 11
213.407
 21
60.7385
 31
0.0
  0
LINE
  8
0
 62
     0
 10
213.407
 20
60.7385
 30
0.0
 11
227.407
 21
60.7385
 31
0.0
  0
LINE
  8
0
 62
     0
 10
227.407
 20
60.7385
 30
0.0
 11
227.407
 21
60.1377
 31
0.0
  0
LINE
  8
0
 62
     0
 10
227.407
 20
60.1377
 30
0.0
 11
228.207
 21
60.1377
 31
0.0
  0
LINE
  8
0
 62
     0
 10
228.207
 20
60.1377
 30
0.0
 11
228.207
 21
47.3385
 31
0.0
  0
LINE
  8
0
 62
     0
 10
228.207
 20
47.3385
 30
0.0
 11
227.407
 21
47.3385
 31
0.0
  0
LINE
  8
0
 62
     0
 10
232.169
 20
114.014
 30
0.0
 11
232.169
 21
113.412
 31
0.0
  0
LINE
  8
0
 62
     0
 10
232.169
 20
113.412
 30
0.0
 11
218.168
 21
113.412
 31
0.0
  0
LINE
  8
0
 62
     0
 10
218.168
 20
113.412
 30
0.0
 11
218.168
 21
114.014
 31
0.0
  0
LINE
  8
0
 62
     0
 10
218.168
 20
114.014
 30
0.0
 11
217.369
 21
114.014
 31
0.0
  0
LINE
  8
0
 62
     0
 10
217.369
 20
114.014
 30
0.0
 11
217.369
 21
126.813
 31
0.0
  0
LINE
  8
0
 62
     0
 10
217.369
 20
126.813
 30
0.0
 11
218.168
 21
126.813
 31
0.0
  0
LINE
  8
0
 62
     0
 10
218.168
 20
126.813
 30
0.0
 11
218.168
 21
127.413
 31
0.0
  0
LINE
  8
0
 62
     0
 10
218.168
 20
127.413
 30
0.0
 11
232.169
 21
127.413
 31
0.0
  0
LINE
  8
0
 62
     0
 10
232.169
 20
127.413
 30
0.0
 11
232.169
 21
126.813
 31
0.0
  0
LINE
  8
0
 62
     0
 10
232.169
 20
126.813
 30
0.0
 11
232.968
 21
126.813
 31
0.0
  0
LINE
  8
0
 62
     0
 10
232.968
 20
126.813
 30
0.0
 11
232.968
 21
114.014
 31
0.0
  0
LINE
  8
0
 62
     0
 10
232.968
 20
114.014
 30
0.0
 11
232.169
 21
114.014
 31
0.0
  0
LINE
  8
0
 62
     0
 10
232.169
 20
85.4385
 30
0.0
 11
232.169
 21
84.8374
 31
0.0
  0
LINE
  8
0
 62
     0
 10
232.169
 20
84.8374
 30
0.0
 11
218.168
 21
84.8374
 31
0.0
  0
LINE
  8
0
 62
     0
 10
218.168
 20
84.8374
 30
0.0
 11
218.168
 21
85.4385
 31
0.0
  0
LINE
  8
0
 62
     0
 10
218.168
 20
85.4385
 30
0.0
 11
217.369
 21
85.4385
 31
0.0
  0
LINE
  8
0
 62
     0
 10
217.369
 20
85.4385
 30
0.0
 11
217.369
 21
98.2377
 31
0.0
  0
LINE
  8
0
 62
     0
 10
217.369
 20
98.2377
 30
0.0
 11
218.168
 21
98.2377
 31
0.0
  0
LINE
  8
0
 62
     0
 10
218.168
 20
98.2377
 30
0.0
 11
218.168
 21
98.8385
 31
0.0
  0
LINE
  8
0
 62
     0
 10
218.168
 20
98.8385
 30
0.0
 11
232.169
 21
98.8385
 31
0.0
  0
LINE
  8
0
 62
     0
 10
232.169
 20
98.8385
 30
0.0
 11
232.169
 21
98.2377
 31
0.0
  0
LINE
  8
0
 62
     0
 10
232.169
 20
98.2377
 30
0.0
 11
232.968
 21
98.2377
 31
0.0
  0
LINE
  8
0
 62
     0
 10
232.968
 20
98.2377
 30
0.0
 11
232.968
 21
85.4385
 31
0.0
  0
LINE
  8
0
 62
     0
 10
232.968
 20
85.4385
 30
0.0
 11
232.169
 21
85.4385
 31
0.0
  0
LINE
  8
0
 62
     0
 10
236.932
 20
28.2884
 30
0.0
 11
236.932
 21
27.6876
 31
0.0
  0
LINE
  8
0
 62
     0
 10
236.932
 20
27.6876
 30
0.0
 11
222.932
 21
27.6876
 31
0.0
  0
LINE
  8
0
 62
     0
 10
222.932
 20
27.6876
 30
0.0
 11
222.932
 21
28.2884
 31
0.0
  0
LINE
  8
0
 62
     0
 10
222.932
 20
28.2884
 30
0.0
 11
222.131
 21
28.2884
 31
0.0
  0
LINE
  8
0
 62
     0
 10
222.131
 20
28.2884
 30
0.0
 11
222.131
 21
41.0877
 31
0.0
  0
LINE
  8
0
 62
     0
 10
222.131
 20
41.0877
 30
0.0
 11
222.932
 21
41.0877
 31
0.0
  0
LINE
  8
0
 62
     0
 10
222.932
 20
41.0877
 30
0.0
 11
222.932
 21
41.6885
 31
0.0
  0
LINE
  8
0
 62
     0
 10
222.932
 20
41.6885
 30
0.0
 11
236.932
 21
41.6885
 31
0.0
  0
LINE
  8
0
 62
     0
 10
236.932
 20
41.6885
 30
0.0
 11
236.932
 21
41.0877
 31
0.0
  0
LINE
  8
0
 62
     0
 10
236.932
 20
41.0877
 30
0.0
 11
237.732
 21
41.0877
 31
0.0
  0
LINE
  8
0
 62
     0
 10
237.732
 20
41.0877
 30
0.0
 11
237.732
 21
28.2884
 31
0.0
  0
LINE
  8
0
 62
     0
 10
237.732
 20
28.2884
 30
0.0
 11
236.932
 21
28.2884
 31
0.0
  0
LINE
  8
0
 62
     0
 10
239.313
 20
9.23837
 30
0.0
 11
239.313
 21
8.63755
 31
0.0
  0
LINE
  8
0
 62
     0
 10
239.313
 20
8.63755
 30
0.0
 11
225.314
 21
8.63755
 31
0.0
  0
LINE
  8
0
 62
     0
 10
225.314
 20
8.63755
 30
0.0
 11
225.314
 21
9.23837
 31
0.0
  0
LINE
  8
0
 62
     0
 10
225.314
 20
9.23837
 30
0.0
 11
224.513
 21
9.23837
 31
0.0
  0
LINE
  8
0
 62
     0
 10
224.513
 20
9.23837
 30
0.0
 11
224.513
 21
22.0376
 31
0.0
  0
LINE
  8
0
 62
     0
 10
224.513
 20
22.0376
 30
0.0
 11
225.314
 21
22.0376
 31
0.0
  0
LINE
  8
0
 62
     0
 10
225.314
 20
22.0376
 30
0.0
 11
225.314
 21
22.6384
 31
0.0
  0
LINE
  8
0
 62
     0
 10
225.314
 20
22.6384
 30
0.0
 11
239.313
 21
22.6384
 31
0.0
  0
LINE
  8
0
 62
     0
 10
239.313
 20
22.6384
 30
0.0
 11
239.313
 21
22.0376
 31
0.0
  0
LINE
  8
0
 62
     0
 10
239.313
 20
22.0376
 30
0.0
 11
240.112
 21
22.0376
 31
0.0
  0
LINE
  8
0
 62
     0
 10
240.112
 20
22.0376
 30
0.0
 11
240.112
 21
9.23837
 31
0.0
  0
LINE
  8
0
 62
     0
 10
240.112
 20
9.23837
 30
0.0
 11
239.313
 21
9.23837
 31
0.0
  0
LINE
  8
0
 62
     0
 10
241.694
 20
66.3885
 30
0.0
 11
241.694
 21
65.7874
 31
0.0
  0
LINE
  8
0
 62
     0
 10
241.694
 20
65.7874
 30
0.0
 11
227.693
 21
65.7874
 31
0.0
  0
LINE
  8
0
 62
     0
 10
227.693
 20
65.7874
 30
0.0
 11
227.693
 21
66.3885
 31
0.0
  0
LINE
  8
0
 62
     0
 10
227.693
 20
66.3885
 30
0.0
 11
226.894
 21
66.3885
 31
0.0
  0
LINE
  8
0
 62
     0
 10
226.894
 20
66.3885
 30
0.0
 11
226.894
 21
79.1877
 31
0.0
  0
LINE
  8
0
 62
     0
 10
226.894
 20
79.1877
 30
0.0
 11
227.693
 21
79.1877
 31
0.0
  0
LINE
  8
0
 62
     0
 10
227.693
 20
79.1877
 30
0.0
 11
227.693
 21
79.7885
 31
0.0
  0
LINE
  8
0
 62
     0
 10
227.693
 20
79.7885
 30
0.0
 11
241.694
 21
79.7885
 31
0.0
  0
LINE
  8
0
 62
     0
 10
241.694
 20
79.7885
 30
0.0
 11
241.694
 21
79.1877
 31
0.0
  0
LINE
  8
0
 62
     0
 10
241.694
 20
79.1877
 30
0.0
 11
242.493
 21
79.1877
 31
0.0
  0
LINE
  8
0
 62
     0
 10
242.493
 20
79.1877
 30
0.0
 11
242.493
 21
66.3885
 31
0.0
  0
LINE
  8
0
 62
     0
 10
242.493
 20
66.3885
 30
0.0
 11
241.694
 21
66.3885
 31
0.0
  0
LINE
  8
0
 62
     0
 10
246.457
 20
47.3385
 30
0.0
 11
246.457
 21
46.7374
 31
0.0
  0
LINE
  8
0
 62
     0
 10
246.457
 20
46.7374
 30
0.0
 11
232.457
 21
46.7374
 31
0.0
  0
LINE
  8
0
 62
     0
 10
232.457
 20
46.7374
 30
0.0
 11
232.457
 21
47.3385
 31
0.0
  0
LINE
  8
0
 62
     0
 10
232.457
 20
47.3385
 30
0.0
 11
231.656
 21
47.3385
 31
0.0
  0
LINE
  8
0
 62
     0
 10
231.656
 20
47.3385
 30
0.0
 11
231.656
 21
60.1377
 31
0.0
  0
LINE
  8
0
 62
     0
 10
231.656
 20
60.1377
 30
0.0
 11
232.457
 21
60.1377
 31
0.0
  0
LINE
  8
0
 62
     0
 10
232.457
 20
60.1377
 30
0.0
 11
232.457
 21
60.7385
 31
0.0
  0
LINE
  8
0
 62
     0
 10
232.457
 20
60.7385
 30
0.0
 11
246.457
 21
60.7385
 31
0.0
  0
LINE
  8
0
 62
     0
 10
246.457
 20
60.7385
 30
0.0
 11
246.457
 21
60.1377
 31
0.0
  0
LINE
  8
0
 62
     0
 10
246.457
 20
60.1377
 30
0.0
 11
247.257
 21
60.1377
 31
0.0
  0
LINE
  8
0
 62
     0
 10
247.257
 20
60.1377
 30
0.0
 11
247.257
 21
47.3385
 31
0.0
  0
LINE
  8
0
 62
     0
 10
247.257
 20
47.3385
 30
0.0
 11
246.457
 21
47.3385
 31
0.0
  0
LINE
  8
0
 62
     0
 10
251.219
 20
114.014
 30
0.0
 11
251.219
 21
113.412
 31
0.0
  0
LINE
  8
0
 62
     0
 10
251.219
 20
113.412
 30
0.0
 11
237.218
 21
113.412
 31
0.0
  0
LINE
  8
0
 62
     0
 10
237.218
 20
113.412
 30
0.0
 11
237.218
 21
114.014
 31
0.0
  0
LINE
  8
0
 62
     0
 10
237.218
 20
114.014
 30
0.0
 11
236.419
 21
114.014
 31
0.0
  0
LINE
  8
0
 62
     0
 10
236.419
 20
114.014
 30
0.0
 11
236.419
 21
126.813
 31
0.0
  0
LINE
  8
0
 62
     0
 10
236.419
 20
126.813
 30
0.0
 11
237.218
 21
126.813
 31
0.0
  0
LINE
  8
0
 62
     0
 10
237.218
 20
126.813
 30
0.0
 11
237.218
 21
127.413
 31
0.0
  0
LINE
  8
0
 62
     0
 10
237.218
 20
127.413
 30
0.0
 11
251.219
 21
127.413
 31
0.0
  0
LINE
  8
0
 62
     0
 10
251.219
 20
127.413
 30
0.0
 11
251.219
 21
126.813
 31
0.0
  0
LINE
  8
0
 62
     0
 10
251.219
 20
126.813
 30
0.0
 11
252.018
 21
126.813
 31
0.0
  0
LINE
  8
0
 62
     0
 10
252.018
 20
126.813
 30
0.0
 11
252.018
 21
114.014
 31
0.0
  0
LINE
  8
0
 62
     0
 10
252.018
 20
114.014
 30
0.0
 11
251.219
 21
114.014
 31
0.0
  0
LINE
  8
0
 62
     0
 10
251.219
 20
85.4385
 30
0.0
 11
251.219
 21
84.8374
 31
0.0
  0
LINE
  8
0
 62
     0
 10
251.219
 20
84.8374
 30
0.0
 11
237.218
 21
84.8374
 31
0.0
  0
LINE
  8
0
 62
     0
 10
237.218
 20
84.8374
 30
0.0
 11
237.218
 21
85.4385
 31
0.0
  0
LINE
  8
0
 62
     0
 10
237.218
 20
85.4385
 30
0.0
 11
236.419
 21
85.4385
 31
0.0
  0
LINE
  8
0
 62
     0
 10
236.419
 20
85.4385
 30
0.0
 11
236.419
 21
98.2377
 31
0.0
  0
LINE
  8
0
 62
     0
 10
236.419
 20
98.2377
 30
0.0
 11
237.218
 21
98.2377
 31
0.0
  0
LINE
  8
0
 62
     0
 10
237.218
 20
98.2377
 30
0.0
 11
237.218
 21
98.8385
 31
0.0
  0
LINE
  8
0
 62
     0
 10
237.218
 20
98.8385
 30
0.0
 11
251.219
 21
98.8385
 31
0.0
  0
LINE
  8
0
 62
     0
 10
251.219
 20
98.8385
 30
0.0
 11
251.219
 21
98.2377
 31
0.0
  0
LINE
  8
0
 62
     0
 10
251.219
 20
98.2377
 30
0.0
 11
252.018
 21
98.2377
 31
0.0
  0
LINE
  8
0
 62
     0
 10
252.018
 20
98.2377
 30
0.0
 11
252.018
 21
85.4385
 31
0.0
  0
LINE
  8
0
 62
     0
 10
252.018
 20
85.4385
 30
0.0
 11
251.219
 21
85.4385
 31
0.0
  0
LINE
  8
0
 62
     0
 10
260.744
 20
66.3885
 30
0.0
 11
260.744
 21
65.7874
 31
0.0
  0
LINE
  8
0
 62
     0
 10
260.744
 20
65.7874
 30
0.0
 11
246.743
 21
65.7874
 31
0.0
  0
LINE
  8
0
 62
     0
 10
246.743
 20
65.7874
 30
0.0
 11
246.743
 21
66.3885
 31
0.0
  0
LINE
  8
0
 62
     0
 10
246.743
 20
66.3885
 30
0.0
 11
245.944
 21
66.3885
 31
0.0
  0
LINE
  8
0
 62
     0
 10
245.944
 20
66.3885
 30
0.0
 11
245.944
 21
79.1877
 31
0.0
  0
LINE
  8
0
 62
     0
 10
245.944
 20
79.1877
 30
0.0
 11
246.743
 21
79.1877
 31
0.0
  0
LINE
  8
0
 62
     0
 10
246.743
 20
79.1877
 30
0.0
 11
246.743
 21
79.7885
 31
0.0
  0
LINE
  8
0
 62
     0
 10
246.743
 20
79.7885
 30
0.0
 11
260.744
 21
79.7885
 31
0.0
  0
LINE
  8
0
 62
     0
 10
260.744
 20
79.7885
 30
0.0
 11
260.744
 21
79.1877
 31
0.0
  0
LINE
  8
0
 62
     0
 10
260.744
 20
79.1877
 30
0.0
 11
261.543
 21
79.1877
 31
0.0
  0
LINE
  8
0
 62
     0
 10
261.543
 20
79.1877
 30
0.0
 11
261.543
 21
66.3885
 31
0.0
  0
LINE
  8
0
 62
     0
 10
261.543
 20
66.3885
 30
0.0
 11
260.744
 21
66.3885
 31
0.0
  0
LINE
  8
0
 62
     0
 10
263.125
 20
9.23837
 30
0.0
 11
263.125
 21
8.63755
 31
0.0
  0
LINE
  8
0
 62
     0
 10
263.125
 20
8.63755
 30
0.0
 11
249.125
 21
8.63755
 31
0.0
  0
LINE
  8
0
 62
     0
 10
249.125
 20
8.63755
 30
0.0
 11
249.125
 21
9.23837
 31
0.0
  0
LINE
  8
0
 62
     0
 10
249.125
 20
9.23837
 30
0.0
 11
248.325
 21
9.23837
 31
0.0
  0
LINE
  8
0
 62
     0
 10
248.325
 20
9.23837
 30
0.0
 11
248.325
 21
22.0376
 31
0.0
  0
LINE
  8
0
 62
     0
 10
248.325
 20
22.0376
 30
0.0
 11
249.125
 21
22.0376
 31
0.0
  0
LINE
  8
0
 62
     0
 10
249.125
 20
22.0376
 30
0.0
 11
249.125
 21
22.6384
 31
0.0
  0
LINE
  8
0
 62
     0
 10
249.125
 20
22.6384
 30
0.0
 11
263.125
 21
22.6384
 31
0.0
  0
LINE
  8
0
 62
     0
 10
263.125
 20
22.6384
 30
0.0
 11
263.125
 21
22.0376
 31
0.0
  0
LINE
  8
0
 62
     0
 10
263.125
 20
22.0376
 30
0.0
 11
263.925
 21
22.0376
 31
0.0
  0
LINE
  8
0
 62
     0
 10
263.925
 20
22.0376
 30
0.0
 11
263.925
 21
9.23837
 31
0.0
  0
LINE
  8
0
 62
     0
 10
263.925
 20
9.23837
 30
0.0
 11
263.125
 21
9.23837
 31
0.0
  0
LINE
  8
0
 62
     0
 10
270.269
 20
114.014
 30
0.0
 11
270.269
 21
113.412
 31
0.0
  0
LINE
  8
0
 62
     0
 10
270.269
 20
113.412
 30
0.0
 11
256.268
 21
113.412
 31
0.0
  0
LINE
  8
0
 62
     0
 10
256.268
 20
113.412
 30
0.0
 11
256.268
 21
114.014
 31
0.0
  0
LINE
  8
0
 62
     0
 10
256.268
 20
114.014
 30
0.0
 11
255.469
 21
114.014
 31
0.0
  0
LINE
  8
0
 62
     0
 10
255.469
 20
114.014
 30
0.0
 11
255.469
 21
126.813
 31
0.0
  0
LINE
  8
0
 62
     0
 10
255.469
 20
126.813
 30
0.0
 11
256.268
 21
126.813
 31
0.0
  0
LINE
  8
0
 62
     0
 10
256.268
 20
126.813
 30
0.0
 11
256.268
 21
127.413
 31
0.0
  0
LINE
  8
0
 62
     0
 10
256.268
 20
127.413
 30
0.0
 11
270.269
 21
127.413
 31
0.0
  0
LINE
  8
0
 62
     0
 10
270.269
 20
127.413
 30
0.0
 11
270.269
 21
126.813
 31
0.0
  0
LINE
  8
0
 62
     0
 10
270.269
 20
126.813
 30
0.0
 11
271.068
 21
126.813
 31
0.0
  0
LINE
  8
0
 62
     0
 10
271.068
 20
126.813
 30
0.0
 11
271.068
 21
114.014
 31
0.0
  0
LINE
  8
0
 62
     0
 10
271.068
 20
114.014
 30
0.0
 11
270.269
 21
114.014
 31
0.0
  0
LINE
  8
0
 62
     0
 10
280.875
 20
34.1878
 30
0.0
 11
280.875
 21
27.9177
 31
0.0
  0
LINE
  8
0
 62
     0
 10
280.875
 20
27.9177
 30
0.0
 11
279.25
 21
27.9177
 31
0.0
  0
LINE
  8
0
 62
     0
 10
279.25
 20
27.9177
 30
0.0
 11
279.25
 21
26.9379
 31
0.0
  0
LINE
  8
0
 62
     0
 10
279.25
 20
26.9379
 30
0.0
 11
275.949
 21
26.9379
 31
0.0
  0
LINE
  8
0
 62
     0
 10
275.949
 20
26.9379
 30
0.0
 11
275.949
 21
27.9177
 31
0.0
  0
LINE
  8
0
 62
     0
 10
275.949
 20
27.9177
 30
0.0
 11
274.224
 21
27.9177
 31
0.0
  0
LINE
  8
0
 62
     0
 10
274.224
 20
27.9177
 30
0.0
 11
274.224
 21
28.7183
 31
0.0
  0
LINE
  8
0
 62
     0
 10
274.224
 20
28.7183
 30
0.0
 11
273.45
 21
28.7183
 31
0.0
  0
LINE
  8
0
 62
     0
 10
273.45
 20
28.7183
 30
0.0
 11
273.45
 21
28.2884
 31
0.0
  0
LINE
  8
0
 62
     0
 10
273.45
 20
28.2884
 30
0.0
 11
272.65
 21
28.2884
 31
0.0
  0
LINE
  8
0
 62
     0
 10
272.65
 20
28.2884
 30
0.0
 11
272.65
 21
27.6876
 31
0.0
  0
LINE
  8
0
 62
     0
 10
272.65
 20
27.6876
 30
0.0
 11
258.65
 21
27.6876
 31
0.0
  0
LINE
  8
0
 62
     0
 10
258.65
 20
27.6876
 30
0.0
 11
258.65
 21
28.2884
 31
0.0
  0
LINE
  8
0
 62
     0
 10
258.65
 20
28.2884
 30
0.0
 11
257.85
 21
28.2884
 31
0.0
  0
LINE
  8
0
 62
     0
 10
257.85
 20
28.2884
 30
0.0
 11
257.85
 21
28.7183
 31
0.0
  0
LINE
  8
0
 62
     0
 10
257.85
 20
28.7183
 30
0.0
 11
257.074
 21
28.7183
 31
0.0
  0
LINE
  8
0
 62
     0
 10
257.074
 20
28.7183
 30
0.0
 11
257.074
 21
27.9177
 31
0.0
  0
LINE
  8
0
 62
     0
 10
257.074
 20
27.9177
 30
0.0
 11
255.349
 21
27.9177
 31
0.0
  0
LINE
  8
0
 62
     0
 10
255.349
 20
27.9177
 30
0.0
 11
255.349
 21
26.9379
 31
0.0
  0
LINE
  8
0
 62
     0
 10
255.349
 20
26.9379
 30
0.0
 11
252.05
 21
26.9379
 31
0.0
  0
LINE
  8
0
 62
     0
 10
252.05
 20
26.9379
 30
0.0
 11
252.05
 21
27.9177
 31
0.0
  0
LINE
  8
0
 62
     0
 10
252.05
 20
27.9177
 30
0.0
 11
250.425
 21
27.9177
 31
0.0
  0
LINE
  8
0
 62
     0
 10
250.425
 20
27.9177
 30
0.0
 11
250.425
 21
34.1878
 31
0.0
  0
LINE
  8
0
 62
     0
 10
250.425
 20
34.1878
 30
0.0
 11
249.55
 21
34.1878
 31
0.0
  0
LINE
  8
0
 62
     0
 10
249.55
 20
34.1878
 30
0.0
 11
249.55
 21
36.988
 31
0.0
  0
LINE
  8
0
 62
     0
 10
249.55
 20
36.988
 30
0.0
 11
250.425
 21
36.988
 31
0.0
  0
LINE
  8
0
 62
     0
 10
250.425
 20
36.988
 30
0.0
 11
250.425
 21
40.2181
 31
0.0
  0
LINE
  8
0
 62
     0
 10
250.425
 20
40.2181
 30
0.0
 11
252.05
 21
40.2181
 31
0.0
  0
LINE
  8
0
 62
     0
 10
252.05
 20
40.2181
 30
0.0
 11
252.05
 21
41.1385
 31
0.0
  0
LINE
  8
0
 62
     0
 10
252.05
 20
41.1385
 30
0.0
 11
255.349
 21
41.1385
 31
0.0
  0
LINE
  8
0
 62
     0
 10
255.349
 20
41.1385
 30
0.0
 11
255.349
 21
40.2181
 31
0.0
  0
LINE
  8
0
 62
     0
 10
255.349
 20
40.2181
 30
0.0
 11
257.074
 21
40.2181
 31
0.0
  0
LINE
  8
0
 62
     0
 10
257.074
 20
40.2181
 30
0.0
 11
257.074
 21
39.4173
 31
0.0
  0
LINE
  8
0
 62
     0
 10
257.074
 20
39.4173
 30
0.0
 11
257.85
 21
39.4173
 31
0.0
  0
LINE
  8
0
 62
     0
 10
257.85
 20
39.4173
 30
0.0
 11
257.85
 21
41.0877
 31
0.0
  0
LINE
  8
0
 62
     0
 10
257.85
 20
41.0877
 30
0.0
 11
258.65
 21
41.0877
 31
0.0
  0
LINE
  8
0
 62
     0
 10
258.65
 20
41.0877
 30
0.0
 11
258.65
 21
41.6885
 31
0.0
  0
LINE
  8
0
 62
     0
 10
258.65
 20
41.6885
 30
0.0
 11
272.65
 21
41.6885
 31
0.0
  0
LINE
  8
0
 62
     0
 10
272.65
 20
41.6885
 30
0.0
 11
272.65
 21
41.0877
 31
0.0
  0
LINE
  8
0
 62
     0
 10
272.65
 20
41.0877
 30
0.0
 11
273.45
 21
41.0877
 31
0.0
  0
LINE
  8
0
 62
     0
 10
273.45
 20
41.0877
 30
0.0
 11
273.45
 21
39.4173
 31
0.0
  0
LINE
  8
0
 62
     0
 10
273.45
 20
39.4173
 30
0.0
 11
274.224
 21
39.4173
 31
0.0
  0
LINE
  8
0
 62
     0
 10
274.224
 20
39.4173
 30
0.0
 11
274.224
 21
40.2181
 31
0.0
  0
LINE
  8
0
 62
     0
 10
274.224
 20
40.2181
 30
0.0
 11
275.949
 21
40.2181
 31
0.0
  0
LINE
  8
0
 62
     0
 10
275.949
 20
40.2181
 30
0.0
 11
275.949
 21
41.1385
 31
0.0
  0
LINE
  8
0
 62
     0
 10
275.949
 20
41.1385
 30
0.0
 11
279.25
 21
41.1385
 31
0.0
  0
LINE
  8
0
 62
     0
 10
279.25
 20
41.1385
 30
0.0
 11
279.25
 21
40.2181
 31
0.0
  0
LINE
  8
0
 62
     0
 10
279.25
 20
40.2181
 30
0.0
 11
280.875
 21
40.2181
 31
0.0
  0
LINE
  8
0
 62
     0
 10
280.875
 20
40.2181
 30
0.0
 11
280.875
 21
36.988
 31
0.0
  0
LINE
  8
0
 62
     0
 10
280.875
 20
36.988
 30
0.0
 11
281.749
 21
36.988
 31
0.0
  0
LINE
  8
0
 62
     0
 10
281.749
 20
36.988
 30
0.0
 11
281.749
 21
34.1878
 31
0.0
  0
LINE
  8
0
 62
     0
 10
281.749
 20
34.1878
 30
0.0
 11
280.875
 21
34.1878
 31
0.0
  0
LINE
  8
0
 62
     0
 10
284.557
 20
66.3885
 30
0.0
 11
284.557
 21
65.7874
 31
0.0
  0
LINE
  8
0
 62
     0
 10
284.557
 20
65.7874
 30
0.0
 11
270.557
 21
65.7874
 31
0.0
  0
LINE
  8
0
 62
     0
 10
270.557
 20
65.7874
 30
0.0
 11
270.557
 21
66.3885
 31
0.0
  0
LINE
  8
0
 62
     0
 10
270.557
 20
66.3885
 30
0.0
 11
269.756
 21
66.3885
 31
0.0
  0
LINE
  8
0
 62
     0
 10
269.756
 20
66.3885
 30
0.0
 11
269.756
 21
79.1877
 31
0.0
  0
LINE
  8
0
 62
     0
 10
269.756
 20
79.1877
 30
0.0
 11
270.557
 21
79.1877
 31
0.0
  0
LINE
  8
0
 62
     0
 10
270.557
 20
79.1877
 30
0.0
 11
270.557
 21
79.7885
 31
0.0
  0
LINE
  8
0
 62
     0
 10
270.557
 20
79.7885
 30
0.0
 11
284.557
 21
79.7885
 31
0.0
  0
LINE
  8
0
 62
     0
 10
284.557
 20
79.7885
 30
0.0
 11
284.557
 21
79.1877
 31
0.0
  0
LINE
  8
0
 62
     0
 10
284.557
 20
79.1877
 30
0.0
 11
285.357
 21
79.1877
 31
0.0
  0
LINE
  8
0
 62
     0
 10
285.357
 20
79.1877
 30
0.0
 11
285.357
 21
66.3885
 31
0.0
  0
LINE
  8
0
 62
     0
 10
285.357
 20
66.3885
 30
0.0
 11
284.557
 21
66.3885
 31
0.0
  0
LINE
  8
0
 62
     0
 10
285.639
 20
53.2377
 30
0.0
 11
285.639
 21
46.9678
 31
0.0
  0
LINE
  8
0
 62
     0
 10
285.639
 20
46.9678
 30
0.0
 11
284.012
 21
46.9678
 31
0.0
  0
LINE
  8
0
 62
     0
 10
284.012
 20
46.9678
 30
0.0
 11
284.012
 21
45.9878
 31
0.0
  0
LINE
  8
0
 62
     0
 10
284.012
 20
45.9878
 30
0.0
 11
280.713
 21
45.9878
 31
0.0
  0
LINE
  8
0
 62
     0
 10
280.713
 20
45.9878
 30
0.0
 11
280.713
 21
46.9678
 31
0.0
  0
LINE
  8
0
 62
     0
 10
280.713
 20
46.9678
 30
0.0
 11
278.988
 21
46.9678
 31
0.0
  0
LINE
  8
0
 62
     0
 10
278.988
 20
46.9678
 30
0.0
 11
278.988
 21
47.7682
 31
0.0
  0
LINE
  8
0
 62
     0
 10
278.988
 20
47.7682
 30
0.0
 11
278.212
 21
47.7682
 31
0.0
  0
LINE
  8
0
 62
     0
 10
278.212
 20
47.7682
 30
0.0
 11
278.212
 21
47.3385
 31
0.0
  0
LINE
  8
0
 62
     0
 10
278.212
 20
47.3385
 30
0.0
 11
277.413
 21
47.3385
 31
0.0
  0
LINE
  8
0
 62
     0
 10
277.413
 20
47.3385
 30
0.0
 11
277.413
 21
46.7374
 31
0.0
  0
LINE
  8
0
 62
     0
 10
277.413
 20
46.7374
 30
0.0
 11
263.414
 21
46.7374
 31
0.0
  0
LINE
  8
0
 62
     0
 10
263.414
 20
46.7374
 30
0.0
 11
263.414
 21
47.3385
 31
0.0
  0
LINE
  8
0
 62
     0
 10
263.414
 20
47.3385
 30
0.0
 11
262.613
 21
47.3385
 31
0.0
  0
LINE
  8
0
 62
     0
 10
262.613
 20
47.3385
 30
0.0
 11
262.613
 21
47.7682
 31
0.0
  0
LINE
  8
0
 62
     0
 10
262.613
 20
47.7682
 30
0.0
 11
261.838
 21
47.7682
 31
0.0
  0
LINE
  8
0
 62
     0
 10
261.838
 20
47.7682
 30
0.0
 11
261.838
 21
46.9678
 31
0.0
  0
LINE
  8
0
 62
     0
 10
261.838
 20
46.9678
 30
0.0
 11
260.113
 21
46.9678
 31
0.0
  0
LINE
  8
0
 62
     0
 10
260.113
 20
46.9678
 30
0.0
 11
260.113
 21
45.9878
 31
0.0
  0
LINE
  8
0
 62
     0
 10
260.113
 20
45.9878
 30
0.0
 11
256.813
 21
45.9878
 31
0.0
  0
LINE
  8
0
 62
     0
 10
256.813
 20
45.9878
 30
0.0
 11
256.813
 21
46.9678
 31
0.0
  0
LINE
  8
0
 62
     0
 10
256.813
 20
46.9678
 30
0.0
 11
255.188
 21
46.9678
 31
0.0
  0
LINE
  8
0
 62
     0
 10
255.188
 20
46.9678
 30
0.0
 11
255.188
 21
53.2377
 31
0.0
  0
LINE
  8
0
 62
     0
 10
255.188
 20
53.2377
 30
0.0
 11
254.313
 21
53.2377
 31
0.0
  0
LINE
  8
0
 62
     0
 10
254.313
 20
53.2377
 30
0.0
 11
254.313
 21
56.038
 31
0.0
  0
LINE
  8
0
 62
     0
 10
254.313
 20
56.038
 30
0.0
 11
255.188
 21
56.038
 31
0.0
  0
LINE
  8
0
 62
     0
 10
255.188
 20
56.038
 30
0.0
 11
255.188
 21
59.2681
 31
0.0
  0
LINE
  8
0
 62
     0
 10
255.188
 20
59.2681
 30
0.0
 11
256.813
 21
59.2681
 31
0.0
  0
LINE
  8
0
 62
     0
 10
256.813
 20
59.2681
 30
0.0
 11
256.813
 21
60.1885
 31
0.0
  0
LINE
  8
0
 62
     0
 10
256.813
 20
60.1885
 30
0.0
 11
260.113
 21
60.1885
 31
0.0
  0
LINE
  8
0
 62
     0
 10
260.113
 20
60.1885
 30
0.0
 11
260.113
 21
59.2681
 31
0.0
  0
LINE
  8
0
 62
     0
 10
260.113
 20
59.2681
 30
0.0
 11
261.838
 21
59.2681
 31
0.0
  0
LINE
  8
0
 62
     0
 10
261.838
 20
59.2681
 30
0.0
 11
261.838
 21
58.4673
 31
0.0
  0
LINE
  8
0
 62
     0
 10
261.838
 20
58.4673
 30
0.0
 11
262.613
 21
58.4673
 31
0.0
  0
LINE
  8
0
 62
     0
 10
262.613
 20
58.4673
 30
0.0
 11
262.613
 21
60.1377
 31
0.0
  0
LINE
  8
0
 62
     0
 10
262.613
 20
60.1377
 30
0.0
 11
263.414
 21
60.1377
 31
0.0
  0
LINE
  8
0
 62
     0
 10
263.414
 20
60.1377
 30
0.0
 11
263.414
 21
60.7385
 31
0.0
  0
LINE
  8
0
 62
     0
 10
263.414
 20
60.7385
 30
0.0
 11
277.413
 21
60.7385
 31
0.0
  0
LINE
  8
0
 62
     0
 10
277.413
 20
60.7385
 30
0.0
 11
277.413
 21
60.1377
 31
0.0
  0
LINE
  8
0
 62
     0
 10
277.413
 20
60.1377
 30
0.0
 11
278.212
 21
60.1377
 31
0.0
  0
LINE
  8
0
 62
     0
 10
278.212
 20
60.1377
 30
0.0
 11
278.212
 21
58.4673
 31
0.0
  0
LINE
  8
0
 62
     0
 10
278.212
 20
58.4673
 30
0.0
 11
278.988
 21
58.4673
 31
0.0
  0
LINE
  8
0
 62
     0
 10
278.988
 20
58.4673
 30
0.0
 11
278.988
 21
59.2681
 31
0.0
  0
LINE
  8
0
 62
     0
 10
278.988
 20
59.2681
 30
0.0
 11
280.713
 21
59.2681
 31
0.0
  0
LINE
  8
0
 62
     0
 10
280.713
 20
59.2681
 30
0.0
 11
280.713
 21
60.1885
 31
0.0
  0
LINE
  8
0
 62
     0
 10
280.713
 20
60.1885
 30
0.0
 11
284.012
 21
60.1885
 31
0.0
  0
LINE
  8
0
 62
     0
 10
284.012
 20
60.1885
 30
0.0
 11
284.012
 21
59.2681
 31
0.0
  0
LINE
  8
0
 62
     0
 10
284.012
 20
59.2681
 30
0.0
 11
285.639
 21
59.2681
 31
0.0
  0
LINE
  8
0
 62
     0
 10
285.639
 20
59.2681
 30
0.0
 11
285.639
 21
56.038
 31
0.0
  0
LINE
  8
0
 62
     0
 10
285.639
 20
56.038
 30
0.0
 11
286.512
 21
56.038
 31
0.0
  0
LINE
  8
0
 62
     0
 10
286.512
 20
56.038
 30
0.0
 11
286.512
 21
53.2377
 31
0.0
  0
LINE
  8
0
 62
     0
 10
286.512
 20
53.2377
 30
0.0
 11
285.639
 21
53.2377
 31
0.0
  0
LINE
  8
0
 62
     0
 10
286.938
 20
9.23837
 30
0.0
 11
286.938
 21
8.63755
 31
0.0
  0
LINE
  8
0
 62
     0
 10
286.938
 20
8.63755
 30
0.0
 11
272.939
 21
8.63755
 31
0.0
  0
LINE
  8
0
 62
     0
 10
272.939
 20
8.63755
 30
0.0
 11
272.939
 21
9.23837
 31
0.0
  0
LINE
  8
0
 62
     0
 10
272.939
 20
9.23837
 30
0.0
 11
272.138
 21
9.23837
 31
0.0
  0
LINE
  8
0
 62
     0
 10
272.138
 20
9.23837
 30
0.0
 11
272.138
 21
22.0376
 31
0.0
  0
LINE
  8
0
 62
     0
 10
272.138
 20
22.0376
 30
0.0
 11
272.939
 21
22.0376
 31
0.0
  0
LINE
  8
0
 62
     0
 10
272.939
 20
22.0376
 30
0.0
 11
272.939
 21
22.6384
 31
0.0
  0
LINE
  8
0
 62
     0
 10
272.939
 20
22.6384
 30
0.0
 11
286.938
 21
22.6384
 31
0.0
  0
LINE
  8
0
 62
     0
 10
286.938
 20
22.6384
 30
0.0
 11
286.938
 21
22.0376
 31
0.0
  0
LINE
  8
0
 62
     0
 10
286.938
 20
22.0376
 30
0.0
 11
287.737
 21
22.0376
 31
0.0
  0
LINE
  8
0
 62
     0
 10
287.737
 20
22.0376
 30
0.0
 11
287.737
 21
9.23837
 31
0.0
  0
LINE
  8
0
 62
     0
 10
287.737
 20
9.23837
 30
0.0
 11
286.938
 21
9.23837
 31
0.0
  0
LINE
  8
0
 62
     0
 10
288.018
 20
91.3377
 30
0.0
 11
288.018
 21
85.0678
 31
0.0
  0
LINE
  8
0
 62
     0
 10
288.018
 20
85.0678
 30
0.0
 11
286.393
 21
85.0678
 31
0.0
  0
LINE
  8
0
 62
     0
 10
286.393
 20
85.0678
 30
0.0
 11
286.393
 21
84.0878
 31
0.0
  0
LINE
  8
0
 62
     0
 10
286.393
 20
84.0878
 30
0.0
 11
283.093
 21
84.0878
 31
0.0
  0
LINE
  8
0
 62
     0
 10
283.093
 20
84.0878
 30
0.0
 11
283.093
 21
85.0678
 31
0.0
  0
LINE
  8
0
 62
     0
 10
283.093
 20
85.0678
 30
0.0
 11
281.369
 21
85.0678
 31
0.0
  0
LINE
  8
0
 62
     0
 10
281.369
 20
85.0678
 30
0.0
 11
281.369
 21
85.8682
 31
0.0
  0
LINE
  8
0
 62
     0
 10
281.369
 20
85.8682
 30
0.0
 11
280.593
 21
85.8682
 31
0.0
  0
LINE
  8
0
 62
     0
 10
280.593
 20
85.8682
 30
0.0
 11
280.593
 21
85.4385
 31
0.0
  0
LINE
  8
0
 62
     0
 10
280.593
 20
85.4385
 30
0.0
 11
279.794
 21
85.4385
 31
0.0
  0
LINE
  8
0
 62
     0
 10
279.794
 20
85.4385
 30
0.0
 11
279.794
 21
84.8374
 31
0.0
  0
LINE
  8
0
 62
     0
 10
279.794
 20
84.8374
 30
0.0
 11
265.793
 21
84.8374
 31
0.0
  0
LINE
  8
0
 62
     0
 10
265.793
 20
84.8374
 30
0.0
 11
265.793
 21
85.4385
 31
0.0
  0
LINE
  8
0
 62
     0
 10
265.793
 20
85.4385
 30
0.0
 11
264.994
 21
85.4385
 31
0.0
  0
LINE
  8
0
 62
     0
 10
264.994
 20
85.4385
 30
0.0
 11
264.994
 21
85.8682
 31
0.0
  0
LINE
  8
0
 62
     0
 10
264.994
 20
85.8682
 30
0.0
 11
264.218
 21
85.8682
 31
0.0
  0
LINE
  8
0
 62
     0
 10
264.218
 20
85.8682
 30
0.0
 11
264.218
 21
85.0678
 31
0.0
  0
LINE
  8
0
 62
     0
 10
264.218
 20
85.0678
 30
0.0
 11
262.494
 21
85.0678
 31
0.0
  0
LINE
  8
0
 62
     0
 10
262.494
 20
85.0678
 30
0.0
 11
262.494
 21
84.0878
 31
0.0
  0
LINE
  8
0
 62
     0
 10
262.494
 20
84.0878
 30
0.0
 11
259.194
 21
84.0878
 31
0.0
  0
LINE
  8
0
 62
     0
 10
259.194
 20
84.0878
 30
0.0
 11
259.194
 21
85.0678
 31
0.0
  0
LINE
  8
0
 62
     0
 10
259.194
 20
85.0678
 30
0.0
 11
257.569
 21
85.0678
 31
0.0
  0
LINE
  8
0
 62
     0
 10
257.569
 20
85.0678
 30
0.0
 11
257.569
 21
91.3377
 31
0.0
  0
LINE
  8
0
 62
     0
 10
257.569
 20
91.3377
 30
0.0
 11
256.694
 21
91.3377
 31
0.0
  0
LINE
  8
0
 62
     0
 10
256.694
 20
91.3377
 30
0.0
 11
256.694
 21
94.138
 31
0.0
  0
LINE
  8
0
 62
     0
 10
256.694
 20
94.138
 30
0.0
 11
257.569
 21
94.138
 31
0.0
  0
LINE
  8
0
 62
     0
 10
257.569
 20
94.138
 30
0.0
 11
257.569
 21
97.3681
 31
0.0
  0
LINE
  8
0
 62
     0
 10
257.569
 20
97.3681
 30
0.0
 11
259.194
 21
97.3681
 31
0.0
  0
LINE
  8
0
 62
     0
 10
259.194
 20
97.3681
 30
0.0
 11
259.194
 21
98.2885
 31
0.0
  0
LINE
  8
0
 62
     0
 10
259.194
 20
98.2885
 30
0.0
 11
262.494
 21
98.2885
 31
0.0
  0
LINE
  8
0
 62
     0
 10
262.494
 20
98.2885
 30
0.0
 11
262.494
 21
97.3681
 31
0.0
  0
LINE
  8
0
 62
     0
 10
262.494
 20
97.3681
 30
0.0
 11
264.218
 21
97.3681
 31
0.0
  0
LINE
  8
0
 62
     0
 10
264.218
 20
97.3681
 30
0.0
 11
264.218
 21
96.5673
 31
0.0
  0
LINE
  8
0
 62
     0
 10
264.218
 20
96.5673
 30
0.0
 11
264.994
 21
96.5673
 31
0.0
  0
LINE
  8
0
 62
     0
 10
264.994
 20
96.5673
 30
0.0
 11
264.994
 21
98.2377
 31
0.0
  0
LINE
  8
0
 62
     0
 10
264.994
 20
98.2377
 30
0.0
 11
265.793
 21
98.2377
 31
0.0
  0
LINE
  8
0
 62
     0
 10
265.793
 20
98.2377
 30
0.0
 11
265.793
 21
98.8385
 31
0.0
  0
LINE
  8
0
 62
     0
 10
265.793
 20
98.8385
 30
0.0
 11
279.794
 21
98.8385
 31
0.0
  0
LINE
  8
0
 62
     0
 10
279.794
 20
98.8385
 30
0.0
 11
279.794
 21
98.2377
 31
0.0
  0
LINE
  8
0
 62
     0
 10
279.794
 20
98.2377
 30
0.0
 11
280.593
 21
98.2377
 31
0.0
  0
LINE
  8
0
 62
     0
 10
280.593
 20
98.2377
 30
0.0
 11
280.593
 21
96.5673
 31
0.0
  0
LINE
  8
0
 62
     0
 10
280.593
 20
96.5673
 30
0.0
 11
281.369
 21
96.5673
 31
0.0
  0
LINE
  8
0
 62
     0
 10
281.369
 20
96.5673
 30
0.0
 11
281.369
 21
97.3681
 31
0.0
  0
LINE
  8
0
 62
     0
 10
281.369
 20
97.3681
 30
0.0
 11
283.093
 21
97.3681
 31
0.0
  0
LINE
  8
0
 62
     0
 10
283.093
 20
97.3681
 30
0.0
 11
283.093
 21
98.2885
 31
0.0
  0
LINE
  8
0
 62
     0
 10
283.093
 20
98.2885
 30
0.0
 11
286.393
 21
98.2885
 31
0.0
  0
LINE
  8
0
 62
     0
 10
286.393
 20
98.2885
 30
0.0
 11
286.393
 21
97.3681
 31
0.0
  0
LINE
  8
0
 62
     0
 10
286.393
 20
97.3681
 30
0.0
 11
288.018
 21
97.3681
 31
0.0
  0
LINE
  8
0
 62
     0
 10
288.018
 20
97.3681
 30
0.0
 11
288.018
 21
94.138
 31
0.0
  0
LINE
  8
0
 62
     0
 10
288.018
 20
94.138
 30
0.0
 11
288.893
 21
94.138
 31
0.0
  0
LINE
  8
0
 62
     0
 10
288.893
 20
94.138
 30
0.0
 11
288.893
 21
91.3377
 31
0.0
  0
LINE
  8
0
 62
     0
 10
288.893
 20
91.3377
 30
0.0
 11
288.018
 21
91.3377
 31
0.0
  0
LINE
  8
0
 62
     0
 10
289.319
 20
114.014
 30
0.0
 11
289.319
 21
113.412
 31
0.0
  0
LINE
  8
0
 62
     0
 10
289.319
 20
113.412
 30
0.0
 11
275.318
 21
113.412
 31
0.0
  0
LINE
  8
0
 62
     0
 10
275.318
 20
113.412
 30
0.0
 11
275.318
 21
114.014
 31
0.0
  0
LINE
  8
0
 62
     0
 10
275.318
 20
114.014
 30
0.0
 11
274.519
 21
114.014
 31
0.0
  0
LINE
  8
0
 62
     0
 10
274.519
 20
114.014
 30
0.0
 11
274.519
 21
126.813
 31
0.0
  0
LINE
  8
0
 62
     0
 10
274.519
 20
126.813
 30
0.0
 11
275.318
 21
126.813
 31
0.0
  0
LINE
  8
0
 62
     0
 10
275.318
 20
126.813
 30
0.0
 11
275.318
 21
127.413
 31
0.0
  0
LINE
  8
0
 62
     0
 10
275.318
 20
127.413
 30
0.0
 11
289.319
 21
127.413
 31
0.0
  0
LINE
  8
0
 62
     0
 10
289.319
 20
127.413
 30
0.0
 11
289.319
 21
126.813
 31
0.0
  0
LINE
  8
0
 62
     0
 10
289.319
 20
126.813
 30
0.0
 11
290.118
 21
126.813
 31
0.0
  0
LINE
  8
0
 62
     0
 10
290.118
 20
126.813
 30
0.0
 11
290.118
 21
114.014
 31
0.0
  0
LINE
  8
0
 62
     0
 10
290.118
 20
114.014
 30
0.0
 11
289.319
 21
114.014
 31
0.0
  0
LINE
  8
0
 62
     0
 10
313.132
 20
85.4385
 30
0.0
 11
313.132
 21
84.8374
 31
0.0
  0
LINE
  8
0
 62
     0
 10
313.132
 20
84.8374
 30
0.0
 11
299.132
 21
84.8374
 31
0.0
  0
LINE
  8
0
 62
     0
 10
299.132
 20
84.8374
 30
0.0
 11
299.132
 21
85.4385
 31
0.0
  0
LINE
  8
0
 62
     0
 10
299.132
 20
85.4385
 30
0.0
 11
298.331
 21
85.4385
 31
0.0
  0
LINE
  8
0
 62
     0
 10
298.331
 20
85.4385
 30
0.0
 11
298.331
 21
98.2377
 31
0.0
  0
LINE
  8
0
 62
     0
 10
298.331
 20
98.2377
 30
0.0
 11
299.132
 21
98.2377
 31
0.0
  0
LINE
  8
0
 62
     0
 10
299.132
 20
98.2377
 30
0.0
 11
299.132
 21
98.8385
 31
0.0
  0
LINE
  8
0
 62
     0
 10
299.132
 20
98.8385
 30
0.0
 11
313.132
 21
98.8385
 31
0.0
  0
LINE
  8
0
 62
     0
 10
313.132
 20
98.8385
 30
0.0
 11
313.132
 21
98.2377
 31
0.0
  0
LINE
  8
0
 62
     0
 10
313.132
 20
98.2377
 30
0.0
 11
313.932
 21
98.2377
 31
0.0
  0
LINE
  8
0
 62
     0
 10
313.932
 20
98.2377
 30
0.0
 11
313.932
 21
85.4385
 31
0.0
  0
LINE
  8
0
 62
     0
 10
313.932
 20
85.4385
 30
0.0
 11
313.132
 21
85.4385
 31
0.0
  0
LINE
  8
0
 62
     0
 10
313.132
 20
66.3885
 30
0.0
 11
313.132
 21
65.7874
 31
0.0
  0
LINE
  8
0
 62
     0
 10
313.132
 20
65.7874
 30
0.0
 11
299.132
 21
65.7874
 31
0.0
  0
LINE
  8
0
 62
     0
 10
299.132
 20
65.7874
 30
0.0
 11
299.132
 21
66.3885
 31
0.0
  0
LINE
  8
0
 62
     0
 10
299.132
 20
66.3885
 30
0.0
 11
298.331
 21
66.3885
 31
0.0
  0
LINE
  8
0
 62
     0
 10
298.331
 20
66.3885
 30
0.0
 11
298.331
 21
79.1877
 31
0.0
  0
LINE
  8
0
 62
     0
 10
298.331
 20
79.1877
 30
0.0
 11
299.132
 21
79.1877
 31
0.0
  0
LINE
  8
0
 62
     0
 10
299.132
 20
79.1877
 30
0.0
 11
299.132
 21
79.7885
 31
0.0
  0
LINE
  8
0
 62
     0
 10
299.132
 20
79.7885
 30
0.0
 11
313.132
 21
79.7885
 31
0.0
  0
LINE
  8
0
 62
     0
 10
313.132
 20
79.7885
 30
0.0
 11
313.132
 21
79.1877
 31
0.0
  0
LINE
  8
0
 62
     0
 10
313.132
 20
79.1877
 30
0.0
 11
313.932
 21
79.1877
 31
0.0
  0
LINE
  8
0
 62
     0
 10
313.932
 20
79.1877
 30
0.0
 11
313.932
 21
66.3885
 31
0.0
  0
LINE
  8
0
 62
     0
 10
313.932
 20
66.3885
 30
0.0
 11
313.132
 21
66.3885
 31
0.0
  0
LINE
  8
0
 62
     0
 10
313.132
 20
9.23837
 30
0.0
 11
313.132
 21
8.63755
 31
0.0
  0
LINE
  8
0
 62
     0
 10
313.132
 20
8.63755
 30
0.0
 11
299.132
 21
8.63755
 31
0.0
  0
LINE
  8
0
 62
     0
 10
299.132
 20
8.63755
 30
0.0
 11
299.132
 21
9.23837
 31
0.0
  0
LINE
  8
0
 62
     0
 10
299.132
 20
9.23837
 30
0.0
 11
298.331
 21
9.23837
 31
0.0
  0
LINE
  8
0
 62
     0
 10
298.331
 20
9.23837
 30
0.0
 11
298.331
 21
22.0376
 31
0.0
  0
LINE
  8
0
 62
     0
 10
298.331
 20
22.0376
 30
0.0
 11
299.132
 21
22.0376
 31
0.0
  0
LINE
  8
0
 62
     0
 10
299.132
 20
22.0376
 30
0.0
 11
299.132
 21
22.6384
 31
0.0
  0
LINE
  8
0
 62
     0
 10
299.132
 20
22.6384
 30
0.0
 11
313.132
 21
22.6384
 31
0.0
  0
LINE
  8
0
 62
     0
 10
313.132
 20
22.6384
 30
0.0
 11
313.132
 21
22.0376
 31
0.0
  0
LINE
  8
0
 62
     0
 10
313.132
 20
22.0376
 30
0.0
 11
313.932
 21
22.0376
 31
0.0
  0
LINE
  8
0
 62
     0
 10
313.932
 20
22.0376
 30
0.0
 11
313.932
 21
9.23837
 31
0.0
  0
LINE
  8
0
 62
     0
 10
313.932
 20
9.23837
 30
0.0
 11
313.132
 21
9.23837
 31
0.0
  0
LINE
  8
0
 62
     0
 10
313.132
 20
114.014
 30
0.0
 11
313.132
 21
113.412
 31
0.0
  0
LINE
  8
0
 62
     0
 10
313.132
 20
113.412
 30
0.0
 11
299.132
 21
113.412
 31
0.0
  0
LINE
  8
0
 62
     0
 10
299.132
 20
113.412
 30
0.0
 11
299.132
 21
114.014
 31
0.0
  0
LINE
  8
0
 62
     0
 10
299.132
 20
114.014
 30
0.0
 11
298.331
 21
114.014
 31
0.0
  0
LINE
  8
0
 62
     0
 10
298.331
 20
114.014
 30
0.0
 11
298.331
 21
126.813
 31
0.0
  0
LINE
  8
0
 62
     0
 10
298.331
 20
126.813
 30
0.0
 11
299.132
 21
126.813
 31
0.0
  0
LINE
  8
0
 62
     0
 10
299.132
 20
126.813
 30
0.0
 11
299.132
 21
127.413
 31
0.0
  0
LINE
  8
0
 62
     0
 10
299.132
 20
127.413
 30
0.0
 11
313.132
 21
127.413
 31
0.0
  0
LINE
  8
0
 62
     0
 10
313.132
 20
127.413
 30
0.0
 11
313.132
 21
126.813
 31
0.0
  0
LINE
  8
0
 62
     0
 10
313.132
 20
126.813
 30
0.0
 11
313.932
 21
126.813
 31
0.0
  0
LINE
  8
0
 62
     0
 10
313.932
 20
126.813
 30
0.0
 11
313.932
 21
114.014
 31
0.0
  0
LINE
  8
0
 62
     0
 10
313.932
 20
114.014
 30
0.0
 11
313.132
 21
114.014
 31
0.0
  0
LINE
  8
0
 62
     0
 10
332.182
 20
85.4385
 30
0.0
 11
332.182
 21
84.8374
 31
0.0
  0
LINE
  8
0
 62
     0
 10
332.182
 20
84.8374
 30
0.0
 11
318.182
 21
84.8374
 31
0.0
  0
LINE
  8
0
 62
     0
 10
318.182
 20
84.8374
 30
0.0
 11
318.182
 21
85.4385
 31
0.0
  0
LINE
  8
0
 62
     0
 10
318.182
 20
85.4385
 30
0.0
 11
317.381
 21
85.4385
 31
0.0
  0
LINE
  8
0
 62
     0
 10
317.381
 20
85.4385
 30
0.0
 11
317.381
 21
98.2377
 31
0.0
  0
LINE
  8
0
 62
     0
 10
317.381
 20
98.2377
 30
0.0
 11
318.182
 21
98.2377
 31
0.0
  0
LINE
  8
0
 62
     0
 10
318.182
 20
98.2377
 30
0.0
 11
318.182
 21
98.8385
 31
0.0
  0
LINE
  8
0
 62
     0
 10
318.182
 20
98.8385
 30
0.0
 11
332.182
 21
98.8385
 31
0.0
  0
LINE
  8
0
 62
     0
 10
332.182
 20
98.8385
 30
0.0
 11
332.182
 21
98.2377
 31
0.0
  0
LINE
  8
0
 62
     0
 10
332.182
 20
98.2377
 30
0.0
 11
332.982
 21
98.2377
 31
0.0
  0
LINE
  8
0
 62
     0
 10
332.982
 20
98.2377
 30
0.0
 11
332.982
 21
85.4385
 31
0.0
  0
LINE
  8
0
 62
     0
 10
332.982
 20
85.4385
 30
0.0
 11
332.182
 21
85.4385
 31
0.0
  0
LINE
  8
0
 62
     0
 10
332.182
 20
66.3885
 30
0.0
 11
332.182
 21
65.7874
 31
0.0
  0
LINE
  8
0
 62
     0
 10
332.182
 20
65.7874
 30
0.0
 11
318.182
 21
65.7874
 31
0.0
  0
LINE
  8
0
 62
     0
 10
318.182
 20
65.7874
 30
0.0
 11
318.182
 21
66.3885
 31
0.0
  0
LINE
  8
0
 62
     0
 10
318.182
 20
66.3885
 30
0.0
 11
317.381
 21
66.3885
 31
0.0
  0
LINE
  8
0
 62
     0
 10
317.381
 20
66.3885
 30
0.0
 11
317.381
 21
79.1877
 31
0.0
  0
LINE
  8
0
 62
     0
 10
317.381
 20
79.1877
 30
0.0
 11
318.182
 21
79.1877
 31
0.0
  0
LINE
  8
0
 62
     0
 10
318.182
 20
79.1877
 30
0.0
 11
318.182
 21
79.7885
 31
0.0
  0
LINE
  8
0
 62
     0
 10
318.182
 20
79.7885
 30
0.0
 11
332.182
 21
79.7885
 31
0.0
  0
LINE
  8
0
 62
     0
 10
332.182
 20
79.7885
 30
0.0
 11
332.182
 21
79.1877
 31
0.0
  0
LINE
  8
0
 62
     0
 10
332.182
 20
79.1877
 30
0.0
 11
332.982
 21
79.1877
 31
0.0
  0
LINE
  8
0
 62
     0
 10
332.982
 20
79.1877
 30
0.0
 11
332.982
 21
66.3885
 31
0.0
  0
LINE
  8
0
 62
     0
 10
332.982
 20
66.3885
 30
0.0
 11
332.182
 21
66.3885
 31
0.0
  0
LINE
  8
0
 62
     0
 10
332.182
 20
9.23837
 30
0.0
 11
332.182
 21
8.63755
 31
0.0
  0
LINE
  8
0
 62
     0
 10
332.182
 20
8.63755
 30
0.0
 11
318.182
 21
8.63755
 31
0.0
  0
LINE
  8
0
 62
     0
 10
318.182
 20
8.63755
 30
0.0
 11
318.182
 21
9.23837
 31
0.0
  0
LINE
  8
0
 62
     0
 10
318.182
 20
9.23837
 30
0.0
 11
317.381
 21
9.23837
 31
0.0
  0
LINE
  8
0
 62
     0
 10
317.381
 20
9.23837
 30
0.0
 11
317.381
 21
22.0376
 31
0.0
  0
LINE
  8
0
 62
     0
 10
317.381
 20
22.0376
 30
0.0
 11
318.182
 21
22.0376
 31
0.0
  0
LINE
  8
0
 62
     0
 10
318.182
 20
22.0376
 30
0.0
 11
318.182
 21
22.6384
 31
0.0
  0
LINE
  8
0
 62
     0
 10
318.182
 20
22.6384
 30
0.0
 11
332.182
 21
22.6384
 31
0.0
  0
LINE
  8
0
 62
     0
 10
332.182
 20
22.6384
 30
0.0
 11
332.182
 21
22.0376
 31
0.0
  0
LINE
  8
0
 62
     0
 10
332.182
 20
22.0376
 30
0.0
 11
332.982
 21
22.0376
 31
0.0
  0
LINE
  8
0
 62
     0
 10
332.982
 20
22.0376
 30
0.0
 11
332.982
 21
9.23837
 31
0.0
  0
LINE
  8
0
 62
     0
 10
332.982
 20
9.23837
 30
0.0
 11
332.182
 21
9.23837
 31
0.0
  0
LINE
  8
0
 62
     0
 10
332.182
 20
114.014
 30
0.0
 11
332.182
 21
113.412
 31
0.0
  0
LINE
  8
0
 62
     0
 10
332.182
 20
113.412
 30
0.0
 11
318.182
 21
113.412
 31
0.0
  0
LINE
  8
0
 62
     0
 10
318.182
 20
113.412
 30
0.0
 11
318.182
 21
114.014
 31
0.0
  0
LINE
  8
0
 62
     0
 10
318.182
 20
114.014
 30
0.0
 11
317.381
 21
114.014
 31
0.0
  0
LINE
  8
0
 62
     0
 10
317.381
 20
114.014
 30
0.0
 11
317.381
 21
126.813
 31
0.0
  0
LINE
  8
0
 62
     0
 10
317.381
 20
126.813
 30
0.0
 11
318.182
 21
126.813
 31
0.0
  0
LINE
  8
0
 62
     0
 10
318.182
 20
126.813
 30
0.0
 11
318.182
 21
127.413
 31
0.0
  0
LINE
  8
0
 62
     0
 10
318.182
 20
127.413
 30
0.0
 11
332.182
 21
127.413
 31
0.0
  0
LINE
  8
0
 62
     0
 10
332.182
 20
127.413
 30
0.0
 11
332.182
 21
126.813
 31
0.0
  0
LINE
  8
0
 62
     0
 10
332.182
 20
126.813
 30
0.0
 11
332.982
 21
126.813
 31
0.0
  0
LINE
  8
0
 62
     0
 10
332.982
 20
126.813
 30
0.0
 11
332.982
 21
114.014
 31
0.0
  0
LINE
  8
0
 62
     0
 10
332.982
 20
114.014
 30
0.0
 11
332.182
 21
114.014
 31
0.0
  0
LINE
  8
0
 62
     0
 10
332.182
 20
28.2884
 30
0.0
 11
332.182
 21
27.6876
 31
0.0
  0
LINE
  8
0
 62
     0
 10
332.182
 20
27.6876
 30
0.0
 11
318.182
 21
27.6876
 31
0.0
  0
LINE
  8
0
 62
     0
 10
318.182
 20
27.6876
 30
0.0
 11
318.182
 21
28.2884
 31
0.0
  0
LINE
  8
0
 62
     0
 10
318.182
 20
28.2884
 30
0.0
 11
317.381
 21
28.2884
 31
0.0
  0
LINE
  8
0
 62
     0
 10
317.381
 20
28.2884
 30
0.0
 11
317.381
 21
41.0877
 31
0.0
  0
LINE
  8
0
 62
     0
 10
317.381
 20
41.0877
 30
0.0
 11
318.182
 21
41.0877
 31
0.0
  0
LINE
  8
0
 62
     0
 10
318.182
 20
41.0877
 30
0.0
 11
318.182
 21
41.6885
 31
0.0
  0
LINE
  8
0
 62
     0
 10
318.182
 20
41.6885
 30
0.0
 11
332.182
 21
41.6885
 31
0.0
  0
LINE
  8
0
 62
     0
 10
332.182
 20
41.6885
 30
0.0
 11
332.182
 21
41.0877
 31
0.0
  0
LINE
  8
0
 62
     0
 10
332.182
 20
41.0877
 30
0.0
 11
332.982
 21
41.0877
 31
0.0
  0
LINE
  8
0
 62
     0
 10
332.982
 20
41.0877
 30
0.0
 11
332.982
 21
28.2884
 31
0.0
  0
LINE
  8
0
 62
     0
 10
332.982
 20
28.2884
 30
0.0
 11
332.182
 21
28.2884
 31
0.0
  0
LINE
  8
0
 62
     0
 10
351.232
 20
85.4385
 30
0.0
 11
351.232
 21
84.8374
 31
0.0
  0
LINE
  8
0
 62
     0
 10
351.232
 20
84.8374
 30
0.0
 11
337.232
 21
84.8374
 31
0.0
  0
LINE
  8
0
 62
     0
 10
337.232
 20
84.8374
 30
0.0
 11
337.232
 21
85.4385
 31
0.0
  0
LINE
  8
0
 62
     0
 10
337.232
 20
85.4385
 30
0.0
 11
336.431
 21
85.4385
 31
0.0
  0
LINE
  8
0
 62
     0
 10
336.431
 20
85.4385
 30
0.0
 11
336.431
 21
98.2377
 31
0.0
  0
LINE
  8
0
 62
     0
 10
336.431
 20
98.2377
 30
0.0
 11
337.232
 21
98.2377
 31
0.0
  0
LINE
  8
0
 62
     0
 10
337.232
 20
98.2377
 30
0.0
 11
337.232
 21
98.8385
 31
0.0
  0
LINE
  8
0
 62
     0
 10
337.232
 20
98.8385
 30
0.0
 11
351.232
 21
98.8385
 31
0.0
  0
LINE
  8
0
 62
     0
 10
351.232
 20
98.8385
 30
0.0
 11
351.232
 21
98.2377
 31
0.0
  0
LINE
  8
0
 62
     0
 10
351.232
 20
98.2377
 30
0.0
 11
352.032
 21
98.2377
 31
0.0
  0
LINE
  8
0
 62
     0
 10
352.032
 20
98.2377
 30
0.0
 11
352.032
 21
85.4385
 31
0.0
  0
LINE
  8
0
 62
     0
 10
352.032
 20
85.4385
 30
0.0
 11
351.232
 21
85.4385
 31
0.0
  0
LINE
  8
0
 62
     0
 10
351.232
 20
66.3885
 30
0.0
 11
351.232
 21
65.7874
 31
0.0
  0
LINE
  8
0
 62
     0
 10
351.232
 20
65.7874
 30
0.0
 11
337.232
 21
65.7874
 31
0.0
  0
LINE
  8
0
 62
     0
 10
337.232
 20
65.7874
 30
0.0
 11
337.232
 21
66.3885
 31
0.0
  0
LINE
  8
0
 62
     0
 10
337.232
 20
66.3885
 30
0.0
 11
336.431
 21
66.3885
 31
0.0
  0
LINE
  8
0
 62
     0
 10
336.431
 20
66.3885
 30
0.0
 11
336.431
 21
79.1877
 31
0.0
  0
LINE
  8
0
 62
     0
 10
336.431
 20
79.1877
 30
0.0
 11
337.232
 21
79.1877
 31
0.0
  0
LINE
  8
0
 62
     0
 10
337.232
 20
79.1877
 30
0.0
 11
337.232
 21
79.7885
 31
0.0
  0
LINE
  8
0
 62
     0
 10
337.232
 20
79.7885
 30
0.0
 11
351.232
 21
79.7885
 31
0.0
  0
LINE
  8
0
 62
     0
 10
351.232
 20
79.7885
 30
0.0
 11
351.232
 21
79.1877
 31
0.0
  0
LINE
  8
0
 62
     0
 10
351.232
 20
79.1877
 30
0.0
 11
352.032
 21
79.1877
 31
0.0
  0
LINE
  8
0
 62
     0
 10
352.032
 20
79.1877
 30
0.0
 11
352.032
 21
66.3885
 31
0.0
  0
LINE
  8
0
 62
     0
 10
352.032
 20
66.3885
 30
0.0
 11
351.232
 21
66.3885
 31
0.0
  0
LINE
  8
0
 62
     0
 10
351.232
 20
9.23837
 30
0.0
 11
351.232
 21
8.63755
 31
0.0
  0
LINE
  8
0
 62
     0
 10
351.232
 20
8.63755
 30
0.0
 11
337.232
 21
8.63755
 31
0.0
  0
LINE
  8
0
 62
     0
 10
337.232
 20
8.63755
 30
0.0
 11
337.232
 21
9.23837
 31
0.0
  0
LINE
  8
0
 62
     0
 10
337.232
 20
9.23837
 30
0.0
 11
336.431
 21
9.23837
 31
0.0
  0
LINE
  8
0
 62
     0
 10
336.431
 20
9.23837
 30
0.0
 11
336.431
 21
22.0376
 31
0.0
  0
LINE
  8
0
 62
     0
 10
336.431
 20
22.0376
 30
0.0
 11
337.232
 21
22.0376
 31
0.0
  0
LINE
  8
0
 62
     0
 10
337.232
 20
22.0376
 30
0.0
 11
337.232
 21
22.6384
 31
0.0
  0
LINE
  8
0
 62
     0
 10
337.232
 20
22.6384
 30
0.0
 11
351.232
 21
22.6384
 31
0.0
  0
LINE
  8
0
 62
     0
 10
351.232
 20
22.6384
 30
0.0
 11
351.232
 21
22.0376
 31
0.0
  0
LINE
  8
0
 62
     0
 10
351.232
 20
22.0376
 30
0.0
 11
352.032
 21
22.0376
 31
0.0
  0
LINE
  8
0
 62
     0
 10
352.032
 20
22.0376
 30
0.0
 11
352.032
 21
9.23837
 31
0.0
  0
LINE
  8
0
 62
     0
 10
352.032
 20
9.23837
 30
0.0
 11
351.232
 21
9.23837
 31
0.0
  0
LINE
  8
0
 62
     0
 10
351.232
 20
114.014
 30
0.0
 11
351.232
 21
113.412
 31
0.0
  0
LINE
  8
0
 62
     0
 10
351.232
 20
113.412
 30
0.0
 11
337.232
 21
113.412
 31
0.0
  0
LINE
  8
0
 62
     0
 10
337.232
 20
113.412
 30
0.0
 11
337.232
 21
114.014
 31
0.0
  0
LINE
  8
0
 62
     0
 10
337.232
 20
114.014
 30
0.0
 11
336.431
 21
114.014
 31
0.0
  0
LINE
  8
0
 62
     0
 10
336.431
 20
114.014
 30
0.0
 11
336.431
 21
126.813
 31
0.0
  0
LINE
  8
0
 62
     0
 10
336.431
 20
126.813
 30
0.0
 11
337.232
 21
126.813
 31
0.0
  0
LINE
  8
0
 62
     0
 10
337.232
 20
126.813
 30
0.0
 11
337.232
 21
127.413
 31
0.0
  0
LINE
  8
0
 62
     0
 10
337.232
 20
127.413
 30
0.0
 11
351.232
 21
127.413
 31
0.0
  0
LINE
  8
0
 62
     0
 10
351.232
 20
127.413
 30
0.0
 11
351.232
 21
126.813
 31
0.0
  0
LINE
  8
0
 62
     0
 10
351.232
 20
126.813
 30
0.0
 11
352.032
 21
126.813
 31
0.0
  0
LINE
  8
0
 62
     0
 10
352.032
 20
126.813
 30
0.0
 11
352.032
 21
114.014
 31
0.0
  0
LINE
  8
0
 62
     0
 10
352.032
 20
114.014
 30
0.0
 11
351.232
 21
114.014
 31
0.0
  0
ENDSEC
  0
EOF
