<?xml version="1.0"?>
<!-- Generated by SVGo -->
<svg width="353.850mm" height="49.050mm"
     viewBox="0.000 0.000 353.850 49.050"
     xmlns="http://www.w3.org/2000/svg" 
     xmlns:xlink="http://www.w3.org/1999/xlink">
<polygon points="346.850,5.000 347.007,5.006 347.163,5.025 347.317,5.055 347.468,5.098 347.615,5.152 347.758,5.218 347.895,5.295 348.026,5.382 348.149,5.479 348.264,5.586 348.371,5.701 348.468,5.824 348.555,5.955 348.632,6.092 348.698,6.235 348.752,6.382 348.795,6.533 348.825,6.687 348.844,6.843 348.850,7.000 348.850,42.050 348.844,42.207 348.825,42.363 348.795,42.517 348.752,42.668 348.698,42.815 348.632,42.958 348.555,43.095 348.468,43.226 348.371,43.349 348.264,43.464 348.149,43.571 348.026,43.668 347.895,43.755 347.758,43.832 347.615,43.898 347.468,43.952 347.317,43.995 347.163,44.025 347.007,44.044 346.850,44.050 7.000,44.050 6.843,44.044 6.687,44.025 6.533,43.995 6.382,43.952 6.235,43.898 6.092,43.832 5.955,43.755 5.824,43.668 5.701,43.571 5.586,43.464 5.479,43.349 5.382,43.226 5.295,43.095 5.218,42.958 5.152,42.815 5.098,42.668 5.055,42.517 5.025,42.363 5.006,42.207 5.000,42.050 5.000,7.000 5.006,6.843 5.025,6.687 5.055,6.533 5.098,6.382 5.152,6.235 5.218,6.092 5.295,5.955 5.382,5.824 5.479,5.701 5.586,5.586 5.701,5.479 5.824,5.382 5.955,5.295 6.092,5.218 6.235,5.152 6.382,5.098 6.533,5.055 6.687,5.025 6.843,5.006 7.000,5.000" style="fill:none;stroke-width:0.2;stroke:black"/>
<rect x="15.000" y="15.000" width="323.850" height="19.050" style="fill:none;stroke-width:0.2;stroke:black"/>
<polygon points="121.283,8.500 121.747,8.573 122.165,8.786 122.497,9.118 122.710,9.536 122.783,10.000 122.710,10.464 122.497,10.882 122.165,11.214 121.747,11.427 121.283,11.500 120.820,11.427 120.402,11.214 120.070,10.882 119.857,10.464 119.783,10.000 119.857,9.536 120.070,9.118 120.402,8.786 120.820,8.573" style="fill:none;stroke-width:0.2;stroke:black"/>
<polygon points="232.567,8.500 233.030,8.573 233.448,8.786 233.780,9.118 233.993,9.536 234.067,10.000 233.993,10.464 233.780,10.882 233.448,11.214 233.030,11.427 232.567,11.500 232.103,11.427 231.685,11.214 231.353,10.882 231.140,10.464 231.067,10.000 231.140,9.536 231.353,9.118 231.685,8.786 232.103,8.573" style="fill:none;stroke-width:0.2;stroke:black"/>
<polygon points="343.850,8.500 344.314,8.573 344.732,8.786 345.064,9.118 345.277,9.536 345.350,10.000 345.277,10.464 345.064,10.882 344.732,11.214 344.314,11.427 343.850,11.500 343.386,11.427 342.968,11.214 342.636,10.882 342.423,10.464 342.350,10.000 342.423,9.536 342.636,9.118 342.968,8.786 343.386,8.573" style="fill:none;stroke-width:0.2;stroke:black"/>
<polygon points="343.850,37.550 344.314,37.623 344.732,37.836 345.064,38.168 345.277,38.586 345.350,39.050 345.277,39.514 345.064,39.932 344.732,40.264 344.314,40.477 343.850,40.550 343.386,40.477 342.968,40.264 342.636,39.932 342.423,39.514 342.350,39.050 342.423,38.586 342.636,38.168 342.968,37.836 343.386,37.623" style="fill:none;stroke-width:0.2;stroke:black"/>
<polygon points="232.567,37.550 233.030,37.623 233.448,37.836 233.780,38.168 233.993,38.586 234.067,39.050 233.993,39.514 233.780,39.932 233.448,40.264 233.030,40.477 232.567,40.550 232.103,40.477 231.685,40.264 231.353,39.932 231.140,39.514 231.067,39.050 231.140,38.586 231.353,38.168 231.685,37.836 232.103,37.623" style="fill:none;stroke-width:0.2;stroke:black"/>
<polygon points="121.283,37.550 121.747,37.623 122.165,37.836 122.497,38.168 122.710,38.586 122.783,39.050 122.710,39.514 122.497,39.932 122.165,40.264 121.747,40.477 121.283,40.550 120.820,40.477 120.402,40.264 120.070,39.932 119.857,39.514 119.783,39.050 119.857,38.586 120.070,38.168 120.402,37.836 120.820,37.623" style="fill:none;stroke-width:0.2;stroke:black"/>
<polygon points="10.000,37.550 10.464,37.623 10.882,37.836 11.214,38.168 11.427,38.586 11.500,39.050 11.427,39.514 11.214,39.932 10.882,40.264 10.464,40.477 10.000,40.550 9.536,40.477 9.118,40.264 8.786,39.932 8.573,39.514 8.500,39.050 8.573,38.586 8.786,38.168 9.118,37.836 9.536,37.623" style="fill:none;stroke-width:0.2;stroke:black"/>
<polygon points="10.000,8.500 10.464,8.573 10.882,8.786 11.214,9.118 11.427,9.536 11.500,10.000 11.427,10.464 11.214,10.882 10.882,11.214 10.464,11.427 10.000,11.500 9.536,11.427 9.118,11.214 8.786,10.882 8.573,10.464 8.500,10.000 8.573,9.536 8.786,9.118 9.118,8.786 9.536,8.573" style="fill:none;stroke-width:0.2;stroke:black"/>
</svg>
