  0
SECTION
  2
HEADER
  9
$ACADVER
  1
AC1009
  9
$EXTMIN
 10
0.0
 20
0.0
 30
0.0
  9
$EXTMAX
 10
1000.0
 20
1000.0
 30
0.0
  9
$FILLMODE
 70
 0
  9
$SPLFRAME
 70
 1
  0
ENDSEC
  0
SECTION
  2
TABLES
  0
TABLE
  2
LAYER
 70
1
  0
LAYER
  2
0
 70
     0
 62
     7
  6
CONTINUOUS
  0
ENDTAB
  0
ENDSEC
  0
SECTION
  2
ENTITIES
  0
LINE
  8
0
 62
     0
 10
361.756
 20
135.938
 30
0.0
 11
361.749
 21
136.095
 31
0.0
  0
LINE
  8
0
 62
     0
 10
361.749
 20
136.095
 30
0.0
 11
361.731
 21
136.251
 31
0.0
  0
LINE
  8
0
 62
     0
 10
361.731
 20
136.251
 30
0.0
 11
361.7
 21
136.405
 31
0.0
  0
LINE
  8
0
 62
     0
 10
361.7
 20
136.405
 30
0.0
 11
361.661
 21
136.555
 31
0.0
  0
LINE
  8
0
 62
     0
 10
361.661
 20
136.555
 30
0.0
 11
361.604
 21
136.703
 31
0.0
  0
LINE
  8
0
 62
     0
 10
361.604
 20
136.703
 30
0.0
 11
361.541
 21
136.846
 31
0.0
  0
LINE
  8
0
 62
     0
 10
361.541
 20
136.846
 30
0.0
 11
361.463
 21
136.983
 31
0.0
  0
LINE
  8
0
 62
     0
 10
361.463
 20
136.983
 30
0.0
 11
361.375
 21
137.113
 31
0.0
  0
LINE
  8
0
 62
     0
 10
361.375
 20
137.113
 30
0.0
 11
361.276
 21
137.236
 31
0.0
  0
LINE
  8
0
 62
     0
 10
361.276
 20
137.236
 30
0.0
 11
361.17
 21
137.352
 31
0.0
  0
LINE
  8
0
 62
     0
 10
361.17
 20
137.352
 30
0.0
 11
361.054
 21
137.458
 31
0.0
  0
LINE
  8
0
 62
     0
 10
361.054
 20
137.458
 30
0.0
 11
360.93
 21
137.556
 31
0.0
  0
LINE
  8
0
 62
     0
 10
360.93
 20
137.556
 30
0.0
 11
360.8
 21
137.643
 31
0.0
  0
LINE
  8
0
 62
     0
 10
360.8
 20
137.643
 30
0.0
 11
360.666
 21
137.72
 31
0.0
  0
LINE
  8
0
 62
     0
 10
360.666
 20
137.72
 30
0.0
 11
360.521
 21
137.786
 31
0.0
  0
LINE
  8
0
 62
     0
 10
360.521
 20
137.786
 30
0.0
 11
360.377
 21
137.84
 31
0.0
  0
LINE
  8
0
 62
     0
 10
360.377
 20
137.84
 30
0.0
 11
360.225
 21
137.882
 31
0.0
  0
LINE
  8
0
 62
     0
 10
360.225
 20
137.882
 30
0.0
 11
360.07
 21
137.913
 31
0.0
  0
LINE
  8
0
 62
     0
 10
360.07
 20
137.913
 30
0.0
 11
359.914
 21
137.932
 31
0.0
  0
LINE
  8
0
 62
     0
 10
359.914
 20
137.932
 30
0.0
 11
359.756
 21
137.938
 31
0.0
  0
LINE
  8
0
 62
     0
 10
359.756
 20
137.938
 30
0.0
 11
185.925
 21
137.938
 31
0.0
  0
LINE
  8
0
 62
     0
 10
185.925
 20
137.938
 30
0.0
 11
185.925
 21
130.937
 31
0.0
  0
LINE
  8
0
 62
     0
 10
185.925
 20
130.937
 30
0.0
 11
354.757
 21
130.937
 31
0.0
  0
LINE
  8
0
 62
     0
 10
354.757
 20
130.937
 30
0.0
 11
354.757
 21
7.11207
 31
0.0
  0
LINE
  8
0
 62
     0
 10
354.757
 20
7.11207
 30
0.0
 11
7.09415
 21
7.11207
 31
0.0
  0
LINE
  8
0
 62
     0
 10
7.09415
 20
7.11207
 30
0.0
 11
7.09415
 21
130.937
 31
0.0
  0
LINE
  8
0
 62
     0
 10
7.09415
 20
130.937
 30
0.0
 11
175.925
 21
130.937
 31
0.0
  0
LINE
  8
0
 62
     0
 10
175.925
 20
130.937
 30
0.0
 11
175.925
 21
137.938
 31
0.0
  0
LINE
  8
0
 62
     0
 10
175.925
 20
137.938
 30
0.0
 11
2.09324
 21
137.938
 31
0.0
  0
LINE
  8
0
 62
     0
 10
2.09324
 20
137.938
 30
0.0
 11
1.93614
 21
137.932
 31
0.0
  0
LINE
  8
0
 62
     0
 10
1.93614
 20
137.932
 30
0.0
 11
1.78043
 21
137.913
 31
0.0
  0
LINE
  8
0
 62
     0
 10
1.78043
 20
137.913
 30
0.0
 11
1.62609
 21
137.882
 31
0.0
  0
LINE
  8
0
 62
     0
 10
1.62609
 20
137.882
 30
0.0
 11
1.47588
 21
137.84
 31
0.0
  0
LINE
  8
0
 62
     0
 10
1.47588
 20
137.84
 30
0.0
 11
1.32843
 21
137.786
 31
0.0
  0
LINE
  8
0
 62
     0
 10
1.32843
 20
137.786
 30
0.0
 11
1.18511
 21
137.72
 31
0.0
  0
LINE
  8
0
 62
     0
 10
1.18511
 20
137.72
 30
0.0
 11
1.04869
 21
137.643
 31
0.0
  0
LINE
  8
0
 62
     0
 10
1.04869
 20
137.643
 30
0.0
 11
0.917773
 21
137.556
 31
0.0
  0
LINE
  8
0
 62
     0
 10
0.917773
 20
137.556
 30
0.0
 11
0.795129
 21
137.458
 31
0.0
  0
LINE
  8
0
 62
     0
 10
0.795129
 20
137.458
 30
0.0
 11
0.679372
 21
137.352
 31
0.0
  0
LINE
  8
0
 62
     0
 10
0.679372
 20
137.352
 30
0.0
 11
0.573264
 21
137.236
 31
0.0
  0
LINE
  8
0
 62
     0
 10
0.573264
 20
137.236
 30
0.0
 11
0.475424
 21
137.113
 31
0.0
  0
LINE
  8
0
 62
     0
 10
0.475424
 20
137.113
 30
0.0
 11
0.388606
 21
136.983
 31
0.0
  0
LINE
  8
0
 62
     0
 10
0.388606
 20
136.983
 30
0.0
 11
0.311437
 21
136.846
 31
0.0
  0
LINE
  8
0
 62
     0
 10
0.311437
 20
136.846
 30
0.0
 11
0.245291
 21
136.703
 31
0.0
  0
LINE
  8
0
 62
     0
 10
0.245291
 20
136.703
 30
0.0
 11
0.191547
 21
136.555
 31
0.0
  0
LINE
  8
0
 62
     0
 10
0.191547
 20
136.555
 30
0.0
 11
0.148828
 21
136.405
 31
0.0
  0
LINE
  8
0
 62
     0
 10
0.148828
 20
136.405
 30
0.0
 11
0.118511
 21
136.251
 31
0.0
  0
LINE
  8
0
 62
     0
 10
0.118511
 20
136.251
 30
0.0
 11
0.0992188
 21
136.095
 31
0.0
  0
LINE
  8
0
 62
     0
 10
0.0992188
 20
136.095
 30
0.0
 11
0.0937066
 21
135.938
 31
0.0
  0
LINE
  8
0
 62
     0
 10
0.0937066
 20
135.938
 30
0.0
 11
0.0937066
 21
2.11253
 31
0.0
  0
LINE
  8
0
 62
     0
 10
0.0937066
 20
2.11253
 30
0.0
 11
0.0992188
 21
1.95544
 31
0.0
  0
LINE
  8
0
 62
     0
 10
0.0992188
 20
1.95544
 30
0.0
 11
0.118511
 21
1.79972
 31
0.0
  0
LINE
  8
0
 62
     0
 10
0.118511
 20
1.79972
 30
0.0
 11
0.148828
 21
1.64538
 31
0.0
  0
LINE
  8
0
 62
     0
 10
0.148828
 20
1.64538
 30
0.0
 11
0.191547
 21
1.4938
 31
0.0
  0
LINE
  8
0
 62
     0
 10
0.191547
 20
1.4938
 30
0.0
 11
0.245291
 21
1.34772
 31
0.0
  0
LINE
  8
0
 62
     0
 10
0.245291
 20
1.34772
 30
0.0
 11
0.311437
 21
1.2044
 31
0.0
  0
LINE
  8
0
 62
     0
 10
0.311437
 20
1.2044
 30
0.0
 11
0.388606
 21
1.06798
 31
0.0
  0
LINE
  8
0
 62
     0
 10
0.388606
 20
1.06798
 30
0.0
 11
0.475424
 21
0.937066
 31
0.0
  0
LINE
  8
0
 62
     0
 10
0.475424
 20
0.937066
 30
0.0
 11
0.573264
 21
0.813043
 31
0.0
  0
LINE
  8
0
 62
     0
 10
0.573264
 20
0.813043
 30
0.0
 11
0.679372
 21
0.698666
 31
0.0
  0
LINE
  8
0
 62
     0
 10
0.679372
 20
0.698666
 30
0.0
 11
0.795129
 21
0.591178
 31
0.0
  0
LINE
  8
0
 62
     0
 10
0.795129
 20
0.591178
 30
0.0
 11
0.917773
 21
0.494714
 31
0.0
  0
LINE
  8
0
 62
     0
 10
0.917773
 20
0.494714
 30
0.0
 11
1.04869
 21
0.407899
 31
0.0
  0
LINE
  8
0
 62
     0
 10
1.04869
 20
0.407899
 30
0.0
 11
1.18511
 21
0.330729
 31
0.0
  0
LINE
  8
0
 62
     0
 10
1.18511
 20
0.330729
 30
0.0
 11
1.32843
 21
0.264583
 31
0.0
  0
LINE
  8
0
 62
     0
 10
1.32843
 20
0.264583
 30
0.0
 11
1.47588
 21
0.21084
 31
0.0
  0
LINE
  8
0
 62
     0
 10
1.47588
 20
0.21084
 30
0.0
 11
1.62609
 21
0.168121
 31
0.0
  0
LINE
  8
0
 62
     0
 10
1.62609
 20
0.168121
 30
0.0
 11
1.78043
 21
0.137804
 31
0.0
  0
LINE
  8
0
 62
     0
 10
1.78043
 20
0.137804
 30
0.0
 11
1.93614
 21
0.118511
 31
0.0
  0
LINE
  8
0
 62
     0
 10
1.93614
 20
0.118511
 30
0.0
 11
2.09324
 21
0.112999
 31
0.0
  0
LINE
  8
0
 62
     0
 10
2.09324
 20
0.112999
 30
0.0
 11
359.756
 21
0.112999
 31
0.0
  0
LINE
  8
0
 62
     0
 10
359.756
 20
0.112999
 30
0.0
 11
359.914
 21
0.118511
 31
0.0
  0
LINE
  8
0
 62
     0
 10
359.914
 20
0.118511
 30
0.0
 11
360.07
 21
0.137804
 31
0.0
  0
LINE
  8
0
 62
     0
 10
360.07
 20
0.137804
 30
0.0
 11
360.225
 21
0.168121
 31
0.0
  0
LINE
  8
0
 62
     0
 10
360.225
 20
0.168121
 30
0.0
 11
360.377
 21
0.21084
 31
0.0
  0
LINE
  8
0
 62
     0
 10
360.377
 20
0.21084
 30
0.0
 11
360.521
 21
0.264583
 31
0.0
  0
LINE
  8
0
 62
     0
 10
360.521
 20
0.264583
 30
0.0
 11
360.666
 21
0.330729
 31
0.0
  0
LINE
  8
0
 62
     0
 10
360.666
 20
0.330729
 30
0.0
 11
360.8
 21
0.407899
 31
0.0
  0
LINE
  8
0
 62
     0
 10
360.8
 20
0.407899
 30
0.0
 11
360.93
 21
0.494714
 31
0.0
  0
LINE
  8
0
 62
     0
 10
360.93
 20
0.494714
 30
0.0
 11
361.054
 21
0.591178
 31
0.0
  0
LINE
  8
0
 62
     0
 10
361.054
 20
0.591178
 30
0.0
 11
361.17
 21
0.698666
 31
0.0
  0
LINE
  8
0
 62
     0
 10
361.17
 20
0.698666
 30
0.0
 11
361.276
 21
0.813043
 31
0.0
  0
LINE
  8
0
 62
     0
 10
361.276
 20
0.813043
 30
0.0
 11
361.375
 21
0.937066
 31
0.0
  0
LINE
  8
0
 62
     0
 10
361.375
 20
0.937066
 30
0.0
 11
361.463
 21
1.06798
 31
0.0
  0
LINE
  8
0
 62
     0
 10
361.463
 20
1.06798
 30
0.0
 11
361.541
 21
1.2044
 31
0.0
  0
LINE
  8
0
 62
     0
 10
361.541
 20
1.2044
 30
0.0
 11
361.604
 21
1.34772
 31
0.0
  0
LINE
  8
0
 62
     0
 10
361.604
 20
1.34772
 30
0.0
 11
361.661
 21
1.4938
 31
0.0
  0
LINE
  8
0
 62
     0
 10
361.661
 20
1.4938
 30
0.0
 11
361.7
 21
1.64538
 31
0.0
  0
LINE
  8
0
 62
     0
 10
361.7
 20
1.64538
 30
0.0
 11
361.731
 21
1.79972
 31
0.0
  0
LINE
  8
0
 62
     0
 10
361.731
 20
1.79972
 30
0.0
 11
361.749
 21
1.95544
 31
0.0
  0
LINE
  8
0
 62
     0
 10
361.749
 20
1.95544
 30
0.0
 11
361.756
 21
2.11253
 31
0.0
  0
LINE
  8
0
 62
     0
 10
361.756
 20
2.11253
 30
0.0
 11
361.756
 21
135.938
 31
0.0
  0
LINE
  8
0
 62
     0
 10
121.815
 20
136.437
 30
0.0
 11
122.433
 21
136.339
 31
0.0
  0
LINE
  8
0
 62
     0
 10
122.433
 20
136.339
 30
0.0
 11
122.99
 21
136.055
 31
0.0
  0
LINE
  8
0
 62
     0
 10
122.99
 20
136.055
 30
0.0
 11
123.432
 21
135.614
 31
0.0
  0
LINE
  8
0
 62
     0
 10
123.432
 20
135.614
 30
0.0
 11
123.716
 21
135.056
 31
0.0
  0
LINE
  8
0
 62
     0
 10
123.716
 20
135.056
 30
0.0
 11
123.815
 21
134.437
 31
0.0
  0
LINE
  8
0
 62
     0
 10
123.815
 20
134.437
 30
0.0
 11
123.716
 21
133.82
 31
0.0
  0
LINE
  8
0
 62
     0
 10
123.716
 20
133.82
 30
0.0
 11
123.432
 21
133.262
 31
0.0
  0
LINE
  8
0
 62
     0
 10
123.432
 20
133.262
 30
0.0
 11
122.99
 21
132.819
 31
0.0
  0
LINE
  8
0
 62
     0
 10
122.99
 20
132.819
 30
0.0
 11
122.433
 21
132.535
 31
0.0
  0
LINE
  8
0
 62
     0
 10
122.433
 20
132.535
 30
0.0
 11
121.815
 21
132.438
 31
0.0
  0
LINE
  8
0
 62
     0
 10
121.815
 20
132.438
 30
0.0
 11
121.197
 21
132.535
 31
0.0
  0
LINE
  8
0
 62
     0
 10
121.197
 20
132.535
 30
0.0
 11
120.639
 21
132.819
 31
0.0
  0
LINE
  8
0
 62
     0
 10
120.639
 20
132.819
 30
0.0
 11
120.197
 21
133.262
 31
0.0
  0
LINE
  8
0
 62
     0
 10
120.197
 20
133.262
 30
0.0
 11
119.913
 21
133.82
 31
0.0
  0
LINE
  8
0
 62
     0
 10
119.913
 20
133.82
 30
0.0
 11
119.815
 21
134.437
 31
0.0
  0
LINE
  8
0
 62
     0
 10
119.815
 20
134.437
 30
0.0
 11
119.913
 21
135.056
 31
0.0
  0
LINE
  8
0
 62
     0
 10
119.913
 20
135.056
 30
0.0
 11
120.197
 21
135.614
 31
0.0
  0
LINE
  8
0
 62
     0
 10
120.197
 20
135.614
 30
0.0
 11
120.639
 21
136.055
 31
0.0
  0
LINE
  8
0
 62
     0
 10
120.639
 20
136.055
 30
0.0
 11
121.197
 21
136.339
 31
0.0
  0
LINE
  8
0
 62
     0
 10
121.197
 20
136.339
 30
0.0
 11
121.815
 21
136.437
 31
0.0
  0
LINE
  8
0
 62
     0
 10
240.036
 20
136.437
 30
0.0
 11
240.654
 21
136.339
 31
0.0
  0
LINE
  8
0
 62
     0
 10
240.654
 20
136.339
 30
0.0
 11
241.21
 21
136.055
 31
0.0
  0
LINE
  8
0
 62
     0
 10
241.21
 20
136.055
 30
0.0
 11
241.654
 21
135.614
 31
0.0
  0
LINE
  8
0
 62
     0
 10
241.654
 20
135.614
 30
0.0
 11
241.938
 21
135.056
 31
0.0
  0
LINE
  8
0
 62
     0
 10
241.938
 20
135.056
 30
0.0
 11
242.036
 21
134.437
 31
0.0
  0
LINE
  8
0
 62
     0
 10
242.036
 20
134.437
 30
0.0
 11
241.938
 21
133.82
 31
0.0
  0
LINE
  8
0
 62
     0
 10
241.938
 20
133.82
 30
0.0
 11
241.654
 21
133.262
 31
0.0
  0
LINE
  8
0
 62
     0
 10
241.654
 20
133.262
 30
0.0
 11
241.21
 21
132.819
 31
0.0
  0
LINE
  8
0
 62
     0
 10
241.21
 20
132.819
 30
0.0
 11
240.654
 21
132.535
 31
0.0
  0
LINE
  8
0
 62
     0
 10
240.654
 20
132.535
 30
0.0
 11
240.036
 21
132.438
 31
0.0
  0
LINE
  8
0
 62
     0
 10
240.036
 20
132.438
 30
0.0
 11
239.418
 21
132.535
 31
0.0
  0
LINE
  8
0
 62
     0
 10
239.418
 20
132.535
 30
0.0
 11
238.859
 21
132.819
 31
0.0
  0
LINE
  8
0
 62
     0
 10
238.859
 20
132.819
 30
0.0
 11
238.417
 21
133.262
 31
0.0
  0
LINE
  8
0
 62
     0
 10
238.417
 20
133.262
 30
0.0
 11
238.133
 21
133.82
 31
0.0
  0
LINE
  8
0
 62
     0
 10
238.133
 20
133.82
 30
0.0
 11
238.035
 21
134.437
 31
0.0
  0
LINE
  8
0
 62
     0
 10
238.035
 20
134.437
 30
0.0
 11
238.133
 21
135.056
 31
0.0
  0
LINE
  8
0
 62
     0
 10
238.133
 20
135.056
 30
0.0
 11
238.417
 21
135.614
 31
0.0
  0
LINE
  8
0
 62
     0
 10
238.417
 20
135.614
 30
0.0
 11
238.859
 21
136.055
 31
0.0
  0
LINE
  8
0
 62
     0
 10
238.859
 20
136.055
 30
0.0
 11
239.418
 21
136.339
 31
0.0
  0
LINE
  8
0
 62
     0
 10
239.418
 20
136.339
 30
0.0
 11
240.036
 21
136.437
 31
0.0
  0
LINE
  8
0
 62
     0
 10
358.256
 20
136.437
 30
0.0
 11
358.874
 21
136.339
 31
0.0
  0
LINE
  8
0
 62
     0
 10
358.874
 20
136.339
 30
0.0
 11
359.431
 21
136.055
 31
0.0
  0
LINE
  8
0
 62
     0
 10
359.431
 20
136.055
 30
0.0
 11
359.876
 21
135.614
 31
0.0
  0
LINE
  8
0
 62
     0
 10
359.876
 20
135.614
 30
0.0
 11
360.158
 21
135.056
 31
0.0
  0
LINE
  8
0
 62
     0
 10
360.158
 20
135.056
 30
0.0
 11
360.257
 21
134.437
 31
0.0
  0
LINE
  8
0
 62
     0
 10
360.257
 20
134.437
 30
0.0
 11
360.158
 21
133.82
 31
0.0
  0
LINE
  8
0
 62
     0
 10
360.158
 20
133.82
 30
0.0
 11
359.876
 21
133.262
 31
0.0
  0
LINE
  8
0
 62
     0
 10
359.876
 20
133.262
 30
0.0
 11
359.431
 21
132.819
 31
0.0
  0
LINE
  8
0
 62
     0
 10
359.431
 20
132.819
 30
0.0
 11
358.874
 21
132.535
 31
0.0
  0
LINE
  8
0
 62
     0
 10
358.874
 20
132.535
 30
0.0
 11
358.256
 21
132.438
 31
0.0
  0
LINE
  8
0
 62
     0
 10
358.256
 20
132.438
 30
0.0
 11
357.639
 21
132.535
 31
0.0
  0
LINE
  8
0
 62
     0
 10
357.639
 20
132.535
 30
0.0
 11
357.082
 21
132.819
 31
0.0
  0
LINE
  8
0
 62
     0
 10
357.082
 20
132.819
 30
0.0
 11
356.637
 21
133.262
 31
0.0
  0
LINE
  8
0
 62
     0
 10
356.637
 20
133.262
 30
0.0
 11
356.355
 21
133.82
 31
0.0
  0
LINE
  8
0
 62
     0
 10
356.355
 20
133.82
 30
0.0
 11
356.256
 21
134.437
 31
0.0
  0
LINE
  8
0
 62
     0
 10
356.256
 20
134.437
 30
0.0
 11
356.355
 21
135.056
 31
0.0
  0
LINE
  8
0
 62
     0
 10
356.355
 20
135.056
 30
0.0
 11
356.637
 21
135.614
 31
0.0
  0
LINE
  8
0
 62
     0
 10
356.637
 20
135.614
 30
0.0
 11
357.082
 21
136.055
 31
0.0
  0
LINE
  8
0
 62
     0
 10
357.082
 20
136.055
 30
0.0
 11
357.639
 21
136.339
 31
0.0
  0
LINE
  8
0
 62
     0
 10
357.639
 20
136.339
 30
0.0
 11
358.256
 21
136.437
 31
0.0
  0
LINE
  8
0
 62
     0
 10
358.256
 20
5.61277
 30
0.0
 11
358.874
 21
5.5149
 31
0.0
  0
LINE
  8
0
 62
     0
 10
358.874
 20
5.5149
 30
0.0
 11
359.431
 21
5.23102
 31
0.0
  0
LINE
  8
0
 62
     0
 10
359.431
 20
5.23102
 30
0.0
 11
359.876
 21
4.78868
 31
0.0
  0
LINE
  8
0
 62
     0
 10
359.876
 20
4.78868
 30
0.0
 11
360.158
 21
4.23058
 31
0.0
  0
LINE
  8
0
 62
     0
 10
360.158
 20
4.23058
 30
0.0
 11
360.257
 21
3.61184
 31
0.0
  0
LINE
  8
0
 62
     0
 10
360.257
 20
3.61184
 30
0.0
 11
360.158
 21
2.99448
 31
0.0
  0
LINE
  8
0
 62
     0
 10
360.158
 20
2.99448
 30
0.0
 11
359.876
 21
2.43637
 31
0.0
  0
LINE
  8
0
 62
     0
 10
359.876
 20
2.43637
 30
0.0
 11
359.431
 21
1.99402
 31
0.0
  0
LINE
  8
0
 62
     0
 10
359.431
 20
1.99402
 30
0.0
 11
358.874
 21
1.71015
 31
0.0
  0
LINE
  8
0
 62
     0
 10
358.874
 20
1.71015
 30
0.0
 11
358.256
 21
1.6123
 31
0.0
  0
LINE
  8
0
 62
     0
 10
358.256
 20
1.6123
 30
0.0
 11
357.639
 21
1.71015
 31
0.0
  0
LINE
  8
0
 62
     0
 10
357.639
 20
1.71015
 30
0.0
 11
357.082
 21
1.99402
 31
0.0
  0
LINE
  8
0
 62
     0
 10
357.082
 20
1.99402
 30
0.0
 11
356.637
 21
2.43637
 31
0.0
  0
LINE
  8
0
 62
     0
 10
356.637
 20
2.43637
 30
0.0
 11
356.355
 21
2.99448
 31
0.0
  0
LINE
  8
0
 62
     0
 10
356.355
 20
2.99448
 30
0.0
 11
356.256
 21
3.61184
 31
0.0
  0
LINE
  8
0
 62
     0
 10
356.256
 20
3.61184
 30
0.0
 11
356.355
 21
4.23058
 31
0.0
  0
LINE
  8
0
 62
     0
 10
356.355
 20
4.23058
 30
0.0
 11
356.637
 21
4.78868
 31
0.0
  0
LINE
  8
0
 62
     0
 10
356.637
 20
4.78868
 30
0.0
 11
357.082
 21
5.23102
 31
0.0
  0
LINE
  8
0
 62
     0
 10
357.082
 20
5.23102
 30
0.0
 11
357.639
 21
5.5149
 31
0.0
  0
LINE
  8
0
 62
     0
 10
357.639
 20
5.5149
 30
0.0
 11
358.256
 21
5.61277
 31
0.0
  0
LINE
  8
0
 62
     0
 10
240.036
 20
5.61277
 30
0.0
 11
240.654
 21
5.5149
 31
0.0
  0
LINE
  8
0
 62
     0
 10
240.654
 20
5.5149
 30
0.0
 11
241.21
 21
5.23102
 31
0.0
  0
LINE
  8
0
 62
     0
 10
241.21
 20
5.23102
 30
0.0
 11
241.654
 21
4.78868
 31
0.0
  0
LINE
  8
0
 62
     0
 10
241.654
 20
4.78868
 30
0.0
 11
241.938
 21
4.23058
 31
0.0
  0
LINE
  8
0
 62
     0
 10
241.938
 20
4.23058
 30
0.0
 11
242.036
 21
3.61184
 31
0.0
  0
LINE
  8
0
 62
     0
 10
242.036
 20
3.61184
 30
0.0
 11
241.938
 21
2.99448
 31
0.0
  0
LINE
  8
0
 62
     0
 10
241.938
 20
2.99448
 30
0.0
 11
241.654
 21
2.43637
 31
0.0
  0
LINE
  8
0
 62
     0
 10
241.654
 20
2.43637
 30
0.0
 11
241.21
 21
1.99402
 31
0.0
  0
LINE
  8
0
 62
     0
 10
241.21
 20
1.99402
 30
0.0
 11
240.654
 21
1.71015
 31
0.0
  0
LINE
  8
0
 62
     0
 10
240.654
 20
1.71015
 30
0.0
 11
240.036
 21
1.6123
 31
0.0
  0
LINE
  8
0
 62
     0
 10
240.036
 20
1.6123
 30
0.0
 11
239.418
 21
1.71015
 31
0.0
  0
LINE
  8
0
 62
     0
 10
239.418
 20
1.71015
 30
0.0
 11
238.859
 21
1.99402
 31
0.0
  0
LINE
  8
0
 62
     0
 10
238.859
 20
1.99402
 30
0.0
 11
238.417
 21
2.43637
 31
0.0
  0
LINE
  8
0
 62
     0
 10
238.417
 20
2.43637
 30
0.0
 11
238.133
 21
2.99448
 31
0.0
  0
LINE
  8
0
 62
     0
 10
238.133
 20
2.99448
 30
0.0
 11
238.035
 21
3.61184
 31
0.0
  0
LINE
  8
0
 62
     0
 10
238.035
 20
3.61184
 30
0.0
 11
238.133
 21
4.23058
 31
0.0
  0
LINE
  8
0
 62
     0
 10
238.133
 20
4.23058
 30
0.0
 11
238.417
 21
4.78868
 31
0.0
  0
LINE
  8
0
 62
     0
 10
238.417
 20
4.78868
 30
0.0
 11
238.859
 21
5.23102
 31
0.0
  0
LINE
  8
0
 62
     0
 10
238.859
 20
5.23102
 30
0.0
 11
239.418
 21
5.5149
 31
0.0
  0
LINE
  8
0
 62
     0
 10
239.418
 20
5.5149
 30
0.0
 11
240.036
 21
5.61277
 31
0.0
  0
LINE
  8
0
 62
     0
 10
121.815
 20
5.61277
 30
0.0
 11
122.433
 21
5.5149
 31
0.0
  0
LINE
  8
0
 62
     0
 10
122.433
 20
5.5149
 30
0.0
 11
122.99
 21
5.23102
 31
0.0
  0
LINE
  8
0
 62
     0
 10
122.99
 20
5.23102
 30
0.0
 11
123.432
 21
4.78868
 31
0.0
  0
LINE
  8
0
 62
     0
 10
123.432
 20
4.78868
 30
0.0
 11
123.716
 21
4.23058
 31
0.0
  0
LINE
  8
0
 62
     0
 10
123.716
 20
4.23058
 30
0.0
 11
123.815
 21
3.61184
 31
0.0
  0
LINE
  8
0
 62
     0
 10
123.815
 20
3.61184
 30
0.0
 11
123.716
 21
2.99448
 31
0.0
  0
LINE
  8
0
 62
     0
 10
123.716
 20
2.99448
 30
0.0
 11
123.432
 21
2.43637
 31
0.0
  0
LINE
  8
0
 62
     0
 10
123.432
 20
2.43637
 30
0.0
 11
122.99
 21
1.99402
 31
0.0
  0
LINE
  8
0
 62
     0
 10
122.99
 20
1.99402
 30
0.0
 11
122.433
 21
1.71015
 31
0.0
  0
LINE
  8
0
 62
     0
 10
122.433
 20
1.71015
 30
0.0
 11
121.815
 21
1.6123
 31
0.0
  0
LINE
  8
0
 62
     0
 10
121.815
 20
1.6123
 30
0.0
 11
121.197
 21
1.71015
 31
0.0
  0
LINE
  8
0
 62
     0
 10
121.197
 20
1.71015
 30
0.0
 11
120.639
 21
1.99402
 31
0.0
  0
LINE
  8
0
 62
     0
 10
120.639
 20
1.99402
 30
0.0
 11
120.197
 21
2.43637
 31
0.0
  0
LINE
  8
0
 62
     0
 10
120.197
 20
2.43637
 30
0.0
 11
119.913
 21
2.99448
 31
0.0
  0
LINE
  8
0
 62
     0
 10
119.913
 20
2.99448
 30
0.0
 11
119.815
 21
3.61184
 31
0.0
  0
LINE
  8
0
 62
     0
 10
119.815
 20
3.61184
 30
0.0
 11
119.913
 21
4.23058
 31
0.0
  0
LINE
  8
0
 62
     0
 10
119.913
 20
4.23058
 30
0.0
 11
120.197
 21
4.78868
 31
0.0
  0
LINE
  8
0
 62
     0
 10
120.197
 20
4.78868
 30
0.0
 11
120.639
 21
5.23102
 31
0.0
  0
LINE
  8
0
 62
     0
 10
120.639
 20
5.23102
 30
0.0
 11
121.197
 21
5.5149
 31
0.0
  0
LINE
  8
0
 62
     0
 10
121.197
 20
5.5149
 30
0.0
 11
121.815
 21
5.61277
 31
0.0
  0
LINE
  8
0
 62
     0
 10
3.59392
 20
5.61277
 30
0.0
 11
4.21128
 21
5.5149
 31
0.0
  0
LINE
  8
0
 62
     0
 10
4.21128
 20
5.5149
 30
0.0
 11
4.76938
 21
5.23102
 31
0.0
  0
LINE
  8
0
 62
     0
 10
4.76938
 20
5.23102
 30
0.0
 11
5.21173
 21
4.78868
 31
0.0
  0
LINE
  8
0
 62
     0
 10
5.21173
 20
4.78868
 30
0.0
 11
5.49561
 21
4.23058
 31
0.0
  0
LINE
  8
0
 62
     0
 10
5.49561
 20
4.23058
 30
0.0
 11
5.59347
 21
3.61184
 31
0.0
  0
LINE
  8
0
 62
     0
 10
5.59347
 20
3.61184
 30
0.0
 11
5.49561
 21
2.99448
 31
0.0
  0
LINE
  8
0
 62
     0
 10
5.49561
 20
2.99448
 30
0.0
 11
5.21173
 21
2.43637
 31
0.0
  0
LINE
  8
0
 62
     0
 10
5.21173
 20
2.43637
 30
0.0
 11
4.76938
 21
1.99402
 31
0.0
  0
LINE
  8
0
 62
     0
 10
4.76938
 20
1.99402
 30
0.0
 11
4.21128
 21
1.71015
 31
0.0
  0
LINE
  8
0
 62
     0
 10
4.21128
 20
1.71015
 30
0.0
 11
3.59392
 21
1.6123
 31
0.0
  0
LINE
  8
0
 62
     0
 10
3.59392
 20
1.6123
 30
0.0
 11
2.97518
 21
1.71015
 31
0.0
  0
LINE
  8
0
 62
     0
 10
2.97518
 20
1.71015
 30
0.0
 11
2.41708
 21
1.99402
 31
0.0
  0
LINE
  8
0
 62
     0
 10
2.41708
 20
1.99402
 30
0.0
 11
1.97611
 21
2.43637
 31
0.0
  0
LINE
  8
0
 62
     0
 10
1.97611
 20
2.43637
 30
0.0
 11
1.69223
 21
2.99448
 31
0.0
  0
LINE
  8
0
 62
     0
 10
1.69223
 20
2.99448
 30
0.0
 11
1.59439
 21
3.61184
 31
0.0
  0
LINE
  8
0
 62
     0
 10
1.59439
 20
3.61184
 30
0.0
 11
1.69223
 21
4.23058
 31
0.0
  0
LINE
  8
0
 62
     0
 10
1.69223
 20
4.23058
 30
0.0
 11
1.97611
 21
4.78868
 31
0.0
  0
LINE
  8
0
 62
     0
 10
1.97611
 20
4.78868
 30
0.0
 11
2.41708
 21
5.23102
 31
0.0
  0
LINE
  8
0
 62
     0
 10
2.41708
 20
5.23102
 30
0.0
 11
2.97518
 21
5.5149
 31
0.0
  0
LINE
  8
0
 62
     0
 10
2.97518
 20
5.5149
 30
0.0
 11
3.59392
 21
5.61277
 31
0.0
  0
LINE
  8
0
 62
     0
 10
3.59392
 20
136.437
 30
0.0
 11
4.21128
 21
136.339
 31
0.0
  0
LINE
  8
0
 62
     0
 10
4.21128
 20
136.339
 30
0.0
 11
4.76938
 21
136.055
 31
0.0
  0
LINE
  8
0
 62
     0
 10
4.76938
 20
136.055
 30
0.0
 11
5.21173
 21
135.614
 31
0.0
  0
LINE
  8
0
 62
     0
 10
5.21173
 20
135.614
 30
0.0
 11
5.49561
 21
135.056
 31
0.0
  0
LINE
  8
0
 62
     0
 10
5.49561
 20
135.056
 30
0.0
 11
5.59347
 21
134.437
 31
0.0
  0
LINE
  8
0
 62
     0
 10
5.59347
 20
134.437
 30
0.0
 11
5.49561
 21
133.82
 31
0.0
  0
LINE
  8
0
 62
     0
 10
5.49561
 20
133.82
 30
0.0
 11
5.21173
 21
133.262
 31
0.0
  0
LINE
  8
0
 62
     0
 10
5.21173
 20
133.262
 30
0.0
 11
4.76938
 21
132.819
 31
0.0
  0
LINE
  8
0
 62
     0
 10
4.76938
 20
132.819
 30
0.0
 11
4.21128
 21
132.535
 31
0.0
  0
LINE
  8
0
 62
     0
 10
4.21128
 20
132.535
 30
0.0
 11
3.59392
 21
132.438
 31
0.0
  0
LINE
  8
0
 62
     0
 10
3.59392
 20
132.438
 30
0.0
 11
2.97518
 21
132.535
 31
0.0
  0
LINE
  8
0
 62
     0
 10
2.97518
 20
132.535
 30
0.0
 11
2.41708
 21
132.819
 31
0.0
  0
LINE
  8
0
 62
     0
 10
2.41708
 20
132.819
 30
0.0
 11
1.97611
 21
133.262
 31
0.0
  0
LINE
  8
0
 62
     0
 10
1.97611
 20
133.262
 30
0.0
 11
1.69223
 21
133.82
 31
0.0
  0
LINE
  8
0
 62
     0
 10
1.69223
 20
133.82
 30
0.0
 11
1.59439
 21
134.437
 31
0.0
  0
LINE
  8
0
 62
     0
 10
1.59439
 20
134.437
 30
0.0
 11
1.69223
 21
135.056
 31
0.0
  0
LINE
  8
0
 62
     0
 10
1.69223
 20
135.056
 30
0.0
 11
1.97611
 21
135.614
 31
0.0
  0
LINE
  8
0
 62
     0
 10
1.97611
 20
135.614
 30
0.0
 11
2.41708
 21
136.055
 31
0.0
  0
LINE
  8
0
 62
     0
 10
2.41708
 20
136.055
 30
0.0
 11
2.97518
 21
136.339
 31
0.0
  0
LINE
  8
0
 62
     0
 10
2.97518
 20
136.339
 30
0.0
 11
3.59392
 21
136.437
 31
0.0
  0
ENDSEC
  0
EOF
