<?xml version="1.0"?>
<!-- Generated by SVGo -->
<svg width="371.663mm" height="147.825mm"
     viewBox="0.000 0.000 371.663 147.825"
     xmlns="http://www.w3.org/2000/svg" 
     xmlns:xlink="http://www.w3.org/1999/xlink">
<polygon points="366.663,7.000 366.656,6.843 366.638,6.687 366.607,6.533 366.565,6.382 366.510,6.235 366.445,6.092 366.368,5.955 366.281,5.824 366.183,5.701 366.077,5.586 365.961,5.479 365.838,5.382 365.707,5.295 365.570,5.218 365.428,5.152 365.281,5.098 365.129,5.055 364.975,5.025 364.819,5.006 364.663,5.000 190.831,5.000 190.831,12.000 359.663,12.000 359.663,135.825 12.000,135.825 12.000,12.000 180.831,12.000 180.831,5.000 7.000,5.000 6.843,5.006 6.687,5.025 6.533,5.055 6.382,5.098 6.235,5.152 6.092,5.218 5.955,5.295 5.824,5.382 5.701,5.479 5.586,5.586 5.479,5.701 5.382,5.824 5.295,5.955 5.218,6.092 5.152,6.235 5.098,6.382 5.055,6.533 5.025,6.687 5.006,6.843 5.000,7.000 5.000,140.825 5.006,140.982 5.025,141.138 5.055,141.292 5.098,141.443 5.152,141.590 5.218,141.733 5.295,141.870 5.382,142.001 5.479,142.124 5.586,142.239 5.701,142.346 5.824,142.443 5.955,142.530 6.092,142.607 6.235,142.673 6.382,142.727 6.533,142.770 6.687,142.800 6.843,142.819 7.000,142.825 364.662,142.825 364.819,142.819 364.975,142.800 365.129,142.770 365.281,142.727 365.428,142.673 365.570,142.607 365.707,142.530 365.838,142.443 365.961,142.346 366.077,142.239 366.183,142.124 366.281,142.001 366.368,141.870 366.445,141.733 366.510,141.590 366.565,141.443 366.607,141.292 366.638,141.138 366.656,140.982 366.663,140.825" style="fill:none;stroke-width:0.2;stroke:black"/>
<polygon points="126.721,6.500 127.339,6.598 127.896,6.882 128.339,7.324 128.623,7.882 128.721,8.500 128.623,9.118 128.339,9.676 127.896,10.118 127.339,10.402 126.721,10.500 126.103,10.402 125.545,10.118 125.103,9.676 124.819,9.118 124.721,8.500 124.819,7.882 125.103,7.324 125.545,6.882 126.103,6.598" style="fill:none;stroke-width:0.2;stroke:black"/>
<polygon points="244.942,6.500 245.560,6.598 246.117,6.882 246.560,7.324 246.844,7.882 246.942,8.500 246.844,9.118 246.560,9.676 246.117,10.118 245.560,10.402 244.942,10.500 244.324,10.402 243.766,10.118 243.324,9.676 243.040,9.118 242.942,8.500 243.040,7.882 243.324,7.324 243.766,6.882 244.324,6.598" style="fill:none;stroke-width:0.2;stroke:black"/>
<polygon points="363.163,6.500 363.781,6.598 364.338,6.882 364.781,7.324 365.065,7.882 365.163,8.500 365.065,9.118 364.781,9.676 364.338,10.118 363.781,10.402 363.163,10.500 362.544,10.402 361.987,10.118 361.544,9.676 361.260,9.118 361.163,8.500 361.260,7.882 361.544,7.324 361.987,6.882 362.544,6.598" style="fill:none;stroke-width:0.2;stroke:black"/>
<polygon points="363.163,137.325 363.781,137.423 364.338,137.707 364.781,138.149 365.065,138.707 365.163,139.325 365.065,139.943 364.781,140.501 364.338,140.943 363.781,141.227 363.163,141.325 362.544,141.227 361.987,140.943 361.544,140.501 361.260,139.943 361.163,139.325 361.260,138.707 361.544,138.149 361.987,137.707 362.544,137.423" style="fill:none;stroke-width:0.2;stroke:black"/>
<polygon points="244.942,137.325 245.560,137.423 246.117,137.707 246.560,138.149 246.844,138.707 246.942,139.325 246.844,139.943 246.560,140.501 246.117,140.943 245.560,141.227 244.942,141.325 244.324,141.227 243.766,140.943 243.324,140.501 243.040,139.943 242.942,139.325 243.040,138.707 243.324,138.149 243.766,137.707 244.324,137.423" style="fill:none;stroke-width:0.2;stroke:black"/>
<polygon points="126.721,137.325 127.339,137.423 127.896,137.707 128.339,138.149 128.623,138.707 128.721,139.325 128.623,139.943 128.339,140.501 127.896,140.943 127.339,141.227 126.721,141.325 126.103,141.227 125.545,140.943 125.103,140.501 124.819,139.943 124.721,139.325 124.819,138.707 125.103,138.149 125.545,137.707 126.103,137.423" style="fill:none;stroke-width:0.2;stroke:black"/>
<polygon points="8.500,137.325 9.118,137.423 9.676,137.707 10.118,138.149 10.402,138.707 10.500,139.325 10.402,139.943 10.118,140.501 9.676,140.943 9.118,141.227 8.500,141.325 7.882,141.227 7.324,140.943 6.882,140.501 6.598,139.943 6.500,139.325 6.598,138.707 6.882,138.149 7.324,137.707 7.882,137.423" style="fill:none;stroke-width:0.2;stroke:black"/>
<polygon points="8.500,6.500 9.118,6.598 9.676,6.882 10.118,7.324 10.402,7.882 10.500,8.500 10.402,9.118 10.118,9.676 9.676,10.118 9.118,10.402 8.500,10.500 7.882,10.402 7.324,10.118 6.882,9.676 6.598,9.118 6.500,8.500 6.598,7.882 6.882,7.324 7.324,6.882 7.882,6.598" style="fill:none;stroke-width:0.2;stroke:black"/>
</svg>
