<?xml version="1.0"?>
<!-- Generated by SVGo -->
<svg width="371.663mm" height="147.825mm"
     viewBox="0.000 0.000 371.663 147.825"
     xmlns="http://www.w3.org/2000/svg" 
     xmlns:xlink="http://www.w3.org/1999/xlink">
<polygon points="364.663,5.000 364.819,5.006 364.975,5.025 365.129,5.055 365.281,5.098 365.428,5.152 365.570,5.218 365.707,5.295 365.838,5.382 365.961,5.479 366.077,5.586 366.183,5.701 366.281,5.824 366.368,5.955 366.445,6.092 366.510,6.235 366.565,6.382 366.607,6.533 366.638,6.687 366.656,6.843 366.663,7.000 366.663,140.825 366.656,140.982 366.638,141.138 366.607,141.292 366.565,141.443 366.510,141.590 366.445,141.733 366.368,141.870 366.281,142.001 366.183,142.124 366.077,142.239 365.961,142.346 365.838,142.443 365.707,142.530 365.570,142.607 365.428,142.673 365.281,142.727 365.129,142.770 364.975,142.800 364.819,142.819 364.662,142.825 7.000,142.825 6.843,142.819 6.687,142.800 6.533,142.770 6.382,142.727 6.235,142.673 6.092,142.607 5.955,142.530 5.824,142.443 5.701,142.346 5.586,142.239 5.479,142.124 5.382,142.001 5.295,141.870 5.218,141.733 5.152,141.590 5.098,141.443 5.055,141.292 5.025,141.138 5.006,140.982 5.000,140.825 5.000,7.000 5.006,6.843 5.025,6.687 5.055,6.533 5.098,6.382 5.152,6.235 5.218,6.092 5.295,5.955 5.382,5.824 5.479,5.701 5.586,5.586 5.701,5.479 5.824,5.382 5.955,5.295 6.092,5.218 6.235,5.152 6.382,5.098 6.533,5.055 6.687,5.025 6.843,5.006 7.000,5.000" style="fill:none;stroke-width:0.2;stroke:black"/>
<polygon points="126.721,6.500 127.339,6.598 127.896,6.882 128.339,7.324 128.623,7.882 128.721,8.500 128.623,9.118 128.339,9.676 127.896,10.118 127.339,10.402 126.721,10.500 126.103,10.402 125.545,10.118 125.103,9.676 124.819,9.118 124.721,8.500 124.819,7.882 125.103,7.324 125.545,6.882 126.103,6.598" style="fill:none;stroke-width:0.2;stroke:black"/>
<polygon points="244.942,6.500 245.560,6.598 246.117,6.882 246.560,7.324 246.844,7.882 246.942,8.500 246.844,9.118 246.560,9.676 246.117,10.118 245.560,10.402 244.942,10.500 244.324,10.402 243.766,10.118 243.324,9.676 243.040,9.118 242.942,8.500 243.040,7.882 243.324,7.324 243.766,6.882 244.324,6.598" style="fill:none;stroke-width:0.2;stroke:black"/>
<polygon points="363.163,6.500 363.781,6.598 364.338,6.882 364.781,7.324 365.065,7.882 365.163,8.500 365.065,9.118 364.781,9.676 364.338,10.118 363.781,10.402 363.163,10.500 362.544,10.402 361.987,10.118 361.544,9.676 361.260,9.118 361.163,8.500 361.260,7.882 361.544,7.324 361.987,6.882 362.544,6.598" style="fill:none;stroke-width:0.2;stroke:black"/>
<polygon points="363.163,137.325 363.781,137.423 364.338,137.707 364.781,138.149 365.065,138.707 365.163,139.325 365.065,139.943 364.781,140.501 364.338,140.943 363.781,141.227 363.163,141.325 362.544,141.227 361.987,140.943 361.544,140.501 361.260,139.943 361.163,139.325 361.260,138.707 361.544,138.149 361.987,137.707 362.544,137.423" style="fill:none;stroke-width:0.2;stroke:black"/>
<polygon points="244.942,137.325 245.560,137.423 246.117,137.707 246.560,138.149 246.844,138.707 246.942,139.325 246.844,139.943 246.560,140.501 246.117,140.943 245.560,141.227 244.942,141.325 244.324,141.227 243.766,140.943 243.324,140.501 243.040,139.943 242.942,139.325 243.040,138.707 243.324,138.149 243.766,137.707 244.324,137.423" style="fill:none;stroke-width:0.2;stroke:black"/>
<polygon points="126.721,137.325 127.339,137.423 127.896,137.707 128.339,138.149 128.623,138.707 128.721,139.325 128.623,139.943 128.339,140.501 127.896,140.943 127.339,141.227 126.721,141.325 126.103,141.227 125.545,140.943 125.103,140.501 124.819,139.943 124.721,139.325 124.819,138.707 125.103,138.149 125.545,137.707 126.103,137.423" style="fill:none;stroke-width:0.2;stroke:black"/>
<polygon points="8.500,137.325 9.118,137.423 9.676,137.707 10.118,138.149 10.402,138.707 10.500,139.325 10.402,139.943 10.118,140.501 9.676,140.943 9.118,141.227 8.500,141.325 7.882,141.227 7.324,140.943 6.882,140.501 6.598,139.943 6.500,139.325 6.598,138.707 6.882,138.149 7.324,137.707 7.882,137.423" style="fill:none;stroke-width:0.2;stroke:black"/>
<polygon points="8.500,6.500 9.118,6.598 9.676,6.882 10.118,7.324 10.402,7.882 10.500,8.500 10.402,9.118 10.118,9.676 9.676,10.118 9.118,10.402 8.500,10.500 7.882,10.402 7.324,10.118 6.882,9.676 6.598,9.118 6.500,8.500 6.598,7.882 6.882,7.324 7.324,6.882 7.882,6.598" style="fill:none;stroke-width:0.2;stroke:black"/>
<polygon points="28.525,27.925 28.525,28.525 14.525,28.525 14.525,27.925 13.725,27.925 13.725,15.125 14.525,15.125 14.525,14.525 28.525,14.525 28.525,15.125 29.325,15.125 29.325,27.925" style="fill:none;stroke-width:0.2;stroke:black"/>
<polygon points="28.525,56.500 28.525,57.100 14.525,57.100 14.525,56.500 13.725,56.500 13.725,43.700 14.525,43.700 14.525,43.100 28.525,43.100 28.525,43.700 29.325,43.700 29.325,56.500" style="fill:none;stroke-width:0.2;stroke:black"/>
<polygon points="30.906,132.700 30.906,133.300 16.906,133.300 16.906,132.700 16.106,132.700 16.106,119.900 16.906,119.900 16.906,119.300 30.906,119.300 30.906,119.900 31.706,119.900 31.706,132.700" style="fill:none;stroke-width:0.2;stroke:black"/>
<polygon points="33.288,75.550 33.288,76.150 19.288,76.150 19.288,75.550 18.488,75.550 18.488,62.750 19.288,62.750 19.288,62.150 33.288,62.150 33.288,62.750 34.087,62.750 34.087,75.550" style="fill:none;stroke-width:0.2;stroke:black"/>
<polygon points="35.669,94.600 35.669,95.200 21.669,95.200 21.669,94.600 20.869,94.600 20.869,81.800 21.669,81.800 21.669,81.200 35.669,81.200 35.669,81.800 36.469,81.800 36.469,94.600" style="fill:none;stroke-width:0.2;stroke:black"/>
<polygon points="47.575,56.500 47.575,57.100 33.575,57.100 33.575,56.500 32.775,56.500 32.775,43.700 33.575,43.700 33.575,43.100 47.575,43.100 47.575,43.700 48.375,43.700 48.375,56.500" style="fill:none;stroke-width:0.2;stroke:black"/>
<polygon points="48.656,107.750 48.656,114.020 47.031,114.020 47.031,115.000 43.731,115.000 43.731,114.020 42.006,114.020 42.006,113.220 41.231,113.220 41.231,113.650 40.431,113.650 40.431,114.250 26.431,114.250 26.431,113.650 25.631,113.650 25.631,113.220 24.856,113.220 24.856,114.020 23.131,114.020 23.131,115.000 19.831,115.000 19.831,114.020 18.206,114.020 18.206,107.750 17.331,107.750 17.331,104.950 18.206,104.950 18.206,101.720 19.831,101.720 19.831,100.800 23.131,100.800 23.131,101.720 24.856,101.720 24.856,102.520 25.631,102.520 25.631,100.850 26.431,100.850 26.431,100.250 40.431,100.250 40.431,100.850 41.231,100.850 41.231,102.520 42.006,102.520 42.006,101.720 43.731,101.720 43.731,100.800 47.031,100.800 47.031,101.720 48.656,101.720 48.656,104.950 49.531,104.950 49.531,107.750" style="fill:none;stroke-width:0.2;stroke:black"/>
<polygon points="54.719,132.700 54.719,133.300 40.719,133.300 40.719,132.700 39.919,132.700 39.919,119.900 40.719,119.900 40.719,119.300 54.719,119.300 54.719,119.900 55.519,119.900 55.519,132.700" style="fill:none;stroke-width:0.2;stroke:black"/>
<polygon points="57.100,75.550 57.100,76.150 43.100,76.150 43.100,75.550 42.300,75.550 42.300,62.750 43.100,62.750 43.100,62.150 57.100,62.150 57.100,62.750 57.900,62.750 57.900,75.550" style="fill:none;stroke-width:0.2;stroke:black"/>
<polygon points="61.862,94.600 61.862,95.200 47.862,95.200 47.862,94.600 47.062,94.600 47.062,81.800 47.862,81.800 47.862,81.200 61.862,81.200 61.862,81.800 62.662,81.800 62.662,94.600" style="fill:none;stroke-width:0.2;stroke:black"/>
<polygon points="66.625,27.925 66.625,28.525 52.625,28.525 52.625,27.925 51.825,27.925 51.825,15.125 52.625,15.125 52.625,14.525 66.625,14.525 66.625,15.125 67.425,15.125 67.425,27.925" style="fill:none;stroke-width:0.2;stroke:black"/>
<polygon points="66.625,56.500 66.625,57.100 52.625,57.100 52.625,56.500 51.825,56.500 51.825,43.700 52.625,43.700 52.625,43.100 66.625,43.100 66.625,43.700 67.425,43.700 67.425,56.500" style="fill:none;stroke-width:0.2;stroke:black"/>
<polygon points="71.388,113.650 71.388,114.250 57.388,114.250 57.388,113.650 56.588,113.650 56.588,100.850 57.388,100.850 57.388,100.250 71.388,100.250 71.388,100.850 72.188,100.850 72.188,113.650" style="fill:none;stroke-width:0.2;stroke:black"/>
<polygon points="76.150,75.550 76.150,76.150 62.150,76.150 62.150,75.550 61.350,75.550 61.350,62.750 62.150,62.750 62.150,62.150 76.150,62.150 76.150,62.750 76.950,62.750 76.950,75.550" style="fill:none;stroke-width:0.2;stroke:black"/>
<polygon points="78.531,132.700 78.531,133.300 64.531,133.300 64.531,132.700 63.731,132.700 63.731,119.900 64.531,119.900 64.531,119.300 78.531,119.300 78.531,119.900 79.331,119.900 79.331,132.700" style="fill:none;stroke-width:0.2;stroke:black"/>
<polygon points="80.912,94.600 80.912,95.200 66.912,95.200 66.912,94.600 66.112,94.600 66.112,81.800 66.912,81.800 66.912,81.200 80.912,81.200 80.912,81.800 81.712,81.800 81.712,94.600" style="fill:none;stroke-width:0.2;stroke:black"/>
<polygon points="85.675,27.925 85.675,28.525 71.675,28.525 71.675,27.925 70.875,27.925 70.875,15.125 71.675,15.125 71.675,14.525 85.675,14.525 85.675,15.125 86.475,15.125 86.475,27.925" style="fill:none;stroke-width:0.2;stroke:black"/>
<polygon points="85.675,56.500 85.675,57.100 71.675,57.100 71.675,56.500 70.875,56.500 70.875,43.700 71.675,43.700 71.675,43.100 85.675,43.100 85.675,43.700 86.475,43.700 86.475,56.500" style="fill:none;stroke-width:0.2;stroke:black"/>
<polygon points="90.438,113.650 90.438,114.250 76.438,114.250 76.438,113.650 75.638,113.650 75.638,100.850 76.438,100.850 76.438,100.250 90.438,100.250 90.438,100.850 91.238,100.850 91.238,113.650" style="fill:none;stroke-width:0.2;stroke:black"/>
<polygon points="95.200,75.550 95.200,76.150 81.200,76.150 81.200,75.550 80.400,75.550 80.400,62.750 81.200,62.750 81.200,62.150 95.200,62.150 95.200,62.750 96.000,62.750 96.000,75.550" style="fill:none;stroke-width:0.2;stroke:black"/>
<polygon points="99.962,94.600 99.962,95.200 85.962,95.200 85.962,94.600 85.162,94.600 85.162,81.800 85.962,81.800 85.962,81.200 99.962,81.200 99.962,81.800 100.762,81.800 100.762,94.600" style="fill:none;stroke-width:0.2;stroke:black"/>
<polygon points="104.725,27.925 104.725,28.525 90.725,28.525 90.725,27.925 89.925,27.925 89.925,15.125 90.725,15.125 90.725,14.525 104.725,14.525 104.725,15.125 105.525,15.125 105.525,27.925" style="fill:none;stroke-width:0.2;stroke:black"/>
<polygon points="104.725,56.500 104.725,57.100 90.725,57.100 90.725,56.500 89.925,56.500 89.925,43.700 90.725,43.700 90.725,43.100 104.725,43.100 104.725,43.700 105.525,43.700 105.525,56.500" style="fill:none;stroke-width:0.2;stroke:black"/>
<polygon points="109.488,113.650 109.488,114.250 95.488,114.250 95.488,113.650 94.688,113.650 94.688,100.850 95.488,100.850 95.488,100.250 109.488,100.250 109.488,100.850 110.288,100.850 110.288,113.650" style="fill:none;stroke-width:0.2;stroke:black"/>
<polygon points="114.250,75.550 114.250,76.150 100.250,76.150 100.250,75.550 99.450,75.550 99.450,62.750 100.250,62.750 100.250,62.150 114.250,62.150 114.250,62.750 115.050,62.750 115.050,75.550" style="fill:none;stroke-width:0.2;stroke:black"/>
<polygon points="119.012,94.600 119.012,95.200 105.012,95.200 105.012,94.600 104.212,94.600 104.212,81.800 105.012,81.800 105.012,81.200 119.012,81.200 119.012,81.800 119.812,81.800 119.812,94.600" style="fill:none;stroke-width:0.2;stroke:black"/>
<polygon points="123.775,27.925 123.775,28.525 109.775,28.525 109.775,27.925 108.975,27.925 108.975,15.125 109.775,15.125 109.775,14.525 123.775,14.525 123.775,15.125 124.575,15.125 124.575,27.925" style="fill:none;stroke-width:0.2;stroke:black"/>
<polygon points="123.775,56.500 123.775,57.100 109.775,57.100 109.775,56.500 108.975,56.500 108.975,43.700 109.775,43.700 109.775,43.100 123.775,43.100 123.775,43.700 124.575,43.700 124.575,56.500" style="fill:none;stroke-width:0.2;stroke:black"/>
<polygon points="128.538,113.650 128.538,114.250 114.538,114.250 114.538,113.650 113.738,113.650 113.738,100.850 114.538,100.850 114.538,100.250 128.538,100.250 128.538,100.850 129.338,100.850 129.338,113.650" style="fill:none;stroke-width:0.2;stroke:black"/>
<polygon points="133.300,75.550 133.300,76.150 119.300,76.150 119.300,75.550 118.500,75.550 118.500,62.750 119.300,62.750 119.300,62.150 133.300,62.150 133.300,62.750 134.100,62.750 134.100,75.550" style="fill:none;stroke-width:0.2;stroke:black"/>
<polygon points="138.062,94.600 138.062,95.200 124.062,95.200 124.062,94.600 123.263,94.600 123.263,81.800 124.062,81.800 124.062,81.200 138.062,81.200 138.062,81.800 138.863,81.800 138.863,94.600" style="fill:none;stroke-width:0.2;stroke:black"/>
<polygon points="142.825,56.500 142.825,57.100 128.825,57.100 128.825,56.500 128.025,56.500 128.025,43.700 128.825,43.700 128.825,43.100 142.825,43.100 142.825,43.700 143.625,43.700 143.625,56.500" style="fill:none;stroke-width:0.2;stroke:black"/>
<polygon points="147.588,113.650 147.588,114.250 133.588,114.250 133.588,113.650 132.787,113.650 132.787,100.850 133.588,100.850 133.588,100.250 147.588,100.250 147.588,100.850 148.388,100.850 148.388,113.650" style="fill:none;stroke-width:0.2;stroke:black"/>
<polygon points="152.350,27.925 152.350,28.525 138.350,28.525 138.350,27.925 137.550,27.925 137.550,15.125 138.350,15.125 138.350,14.525 152.350,14.525 152.350,15.125 153.150,15.125 153.150,27.925" style="fill:none;stroke-width:0.2;stroke:black"/>
<polygon points="152.350,75.550 152.350,76.150 138.350,76.150 138.350,75.550 137.550,75.550 137.550,62.750 138.350,62.750 138.350,62.150 152.350,62.150 152.350,62.750 153.150,62.750 153.150,75.550" style="fill:none;stroke-width:0.2;stroke:black"/>
<polygon points="157.113,94.600 157.113,95.200 143.113,95.200 143.113,94.600 142.312,94.600 142.312,81.800 143.113,81.800 143.113,81.200 157.113,81.200 157.113,81.800 157.913,81.800 157.913,94.600" style="fill:none;stroke-width:0.2;stroke:black"/>
<polygon points="161.875,56.500 161.875,57.100 147.875,57.100 147.875,56.500 147.075,56.500 147.075,43.700 147.875,43.700 147.875,43.100 161.875,43.100 161.875,43.700 162.675,43.700 162.675,56.500" style="fill:none;stroke-width:0.2;stroke:black"/>
<polygon points="166.638,113.650 166.638,114.250 152.638,114.250 152.638,113.650 151.838,113.650 151.838,100.850 152.638,100.850 152.638,100.250 166.638,100.250 166.638,100.850 167.438,100.850 167.438,113.650" style="fill:none;stroke-width:0.2;stroke:black"/>
<polygon points="171.400,27.925 171.400,28.525 157.400,28.525 157.400,27.925 156.600,27.925 156.600,15.125 157.400,15.125 157.400,14.525 171.400,14.525 171.400,15.125 172.200,15.125 172.200,27.925" style="fill:none;stroke-width:0.2;stroke:black"/>
<polygon points="171.400,75.550 171.400,76.150 157.400,76.150 157.400,75.550 156.600,75.550 156.600,62.750 157.400,62.750 157.400,62.150 171.400,62.150 171.400,62.750 172.200,62.750 172.200,75.550" style="fill:none;stroke-width:0.2;stroke:black"/>
<polygon points="176.163,94.600 176.163,95.200 162.163,95.200 162.163,94.600 161.363,94.600 161.363,81.800 162.163,81.800 162.163,81.200 176.163,81.200 176.163,81.800 176.963,81.800 176.963,94.600" style="fill:none;stroke-width:0.2;stroke:black"/>
<polygon points="180.925,56.500 180.925,57.100 166.925,57.100 166.925,56.500 166.125,56.500 166.125,43.700 166.925,43.700 166.925,43.100 180.925,43.100 180.925,43.700 181.725,43.700 181.725,56.500" style="fill:none;stroke-width:0.2;stroke:black"/>
<polygon points="185.688,113.650 185.688,114.250 171.688,114.250 171.688,113.650 170.888,113.650 170.888,100.850 171.688,100.850 171.688,100.250 185.688,100.250 185.688,100.850 186.488,100.850 186.488,113.650" style="fill:none;stroke-width:0.2;stroke:black"/>
<polygon points="190.450,27.925 190.450,28.525 176.450,28.525 176.450,27.925 175.650,27.925 175.650,15.125 176.450,15.125 176.450,14.525 190.450,14.525 190.450,15.125 191.250,15.125 191.250,27.925" style="fill:none;stroke-width:0.2;stroke:black"/>
<polygon points="190.450,75.550 190.450,76.150 176.450,76.150 176.450,75.550 175.650,75.550 175.650,62.750 176.450,62.750 176.450,62.150 190.450,62.150 190.450,62.750 191.250,62.750 191.250,75.550" style="fill:none;stroke-width:0.2;stroke:black"/>
<polygon points="195.213,94.600 195.213,95.200 181.213,95.200 181.213,94.600 180.413,94.600 180.413,81.800 181.213,81.800 181.213,81.200 195.213,81.200 195.213,81.800 196.013,81.800 196.013,94.600" style="fill:none;stroke-width:0.2;stroke:black"/>
<polygon points="196.294,126.800 196.294,133.070 194.619,133.070 194.619,134.050 191.319,134.050 191.319,133.070 189.644,133.070 189.644,128.600 150.769,128.600 150.769,132.700 149.969,132.700 149.969,133.300 135.969,133.300 135.969,132.700 135.169,132.700 135.169,128.600 96.294,128.600 96.294,133.070 94.619,133.070 94.619,134.050 91.319,134.050 91.319,133.070 89.644,133.070 89.644,126.800 88.769,126.800 88.769,124.000 89.644,124.000 89.644,120.770 91.319,120.770 91.319,119.850 94.619,119.850 94.619,120.770 96.294,120.770 96.294,124.000 135.169,124.000 135.169,119.900 135.969,119.900 135.969,119.300 149.969,119.300 149.969,119.900 150.769,119.900 150.769,124.000 189.644,124.000 189.644,120.770 191.319,120.770 191.319,119.850 194.619,119.850 194.619,120.770 196.294,120.770 196.294,124.000 197.169,124.000 197.169,126.800" style="fill:none;stroke-width:0.2;stroke:black"/>
<polygon points="199.975,56.500 199.975,57.100 185.975,57.100 185.975,56.500 185.175,56.500 185.175,43.700 185.975,43.700 185.975,43.100 199.975,43.100 199.975,43.700 200.775,43.700 200.775,56.500" style="fill:none;stroke-width:0.2;stroke:black"/>
<polygon points="204.738,113.650 204.738,114.250 190.738,114.250 190.738,113.650 189.938,113.650 189.938,100.850 190.738,100.850 190.738,100.250 204.738,100.250 204.738,100.850 205.538,100.850 205.538,113.650" style="fill:none;stroke-width:0.2;stroke:black"/>
<polygon points="209.500,27.925 209.500,28.525 195.500,28.525 195.500,27.925 194.700,27.925 194.700,15.125 195.500,15.125 195.500,14.525 209.500,14.525 209.500,15.125 210.300,15.125 210.300,27.925" style="fill:none;stroke-width:0.2;stroke:black"/>
<polygon points="209.500,75.550 209.500,76.150 195.500,76.150 195.500,75.550 194.700,75.550 194.700,62.750 195.500,62.750 195.500,62.150 209.500,62.150 209.500,62.750 210.300,62.750 210.300,75.550" style="fill:none;stroke-width:0.2;stroke:black"/>
<polygon points="214.263,94.600 214.263,95.200 200.263,95.200 200.263,94.600 199.463,94.600 199.463,81.800 200.263,81.800 200.263,81.200 214.263,81.200 214.263,81.800 215.063,81.800 215.063,94.600" style="fill:none;stroke-width:0.2;stroke:black"/>
<polygon points="219.025,56.500 219.025,57.100 205.025,57.100 205.025,56.500 204.225,56.500 204.225,43.700 205.025,43.700 205.025,43.100 219.025,43.100 219.025,43.700 219.825,43.700 219.825,56.500" style="fill:none;stroke-width:0.2;stroke:black"/>
<polygon points="221.406,132.700 221.406,133.300 207.406,133.300 207.406,132.700 206.606,132.700 206.606,119.900 207.406,119.900 207.406,119.300 221.406,119.300 221.406,119.900 222.206,119.900 222.206,132.700" style="fill:none;stroke-width:0.2;stroke:black"/>
<polygon points="223.788,113.650 223.788,114.250 209.788,114.250 209.788,113.650 208.988,113.650 208.988,100.850 209.788,100.850 209.788,100.250 223.788,100.250 223.788,100.850 224.588,100.850 224.588,113.650" style="fill:none;stroke-width:0.2;stroke:black"/>
<polygon points="228.550,75.550 228.550,76.150 214.550,76.150 214.550,75.550 213.750,75.550 213.750,62.750 214.550,62.750 214.550,62.150 228.550,62.150 228.550,62.750 229.350,62.750 229.350,75.550" style="fill:none;stroke-width:0.2;stroke:black"/>
<polygon points="233.313,94.600 233.313,95.200 219.313,95.200 219.313,94.600 218.513,94.600 218.513,81.800 219.313,81.800 219.313,81.200 233.313,81.200 233.313,81.800 234.113,81.800 234.113,94.600" style="fill:none;stroke-width:0.2;stroke:black"/>
<polygon points="238.075,27.925 238.075,28.525 224.075,28.525 224.075,27.925 223.275,27.925 223.275,15.125 224.075,15.125 224.075,14.525 238.075,14.525 238.075,15.125 238.875,15.125 238.875,27.925" style="fill:none;stroke-width:0.2;stroke:black"/>
<polygon points="238.075,56.500 238.075,57.100 224.075,57.100 224.075,56.500 223.275,56.500 223.275,43.700 224.075,43.700 224.075,43.100 238.075,43.100 238.075,43.700 238.875,43.700 238.875,56.500" style="fill:none;stroke-width:0.2;stroke:black"/>
<polygon points="242.838,113.650 242.838,114.250 228.838,114.250 228.838,113.650 228.038,113.650 228.038,100.850 228.838,100.850 228.838,100.250 242.838,100.250 242.838,100.850 243.638,100.850 243.638,113.650" style="fill:none;stroke-width:0.2;stroke:black"/>
<polygon points="245.219,132.700 245.219,133.300 231.219,133.300 231.219,132.700 230.419,132.700 230.419,119.900 231.219,119.900 231.219,119.300 245.219,119.300 245.219,119.900 246.019,119.900 246.019,132.700" style="fill:none;stroke-width:0.2;stroke:black"/>
<polygon points="247.600,75.550 247.600,76.150 233.600,76.150 233.600,75.550 232.800,75.550 232.800,62.750 233.600,62.750 233.600,62.150 247.600,62.150 247.600,62.750 248.400,62.750 248.400,75.550" style="fill:none;stroke-width:0.2;stroke:black"/>
<polygon points="252.363,94.600 252.363,95.200 238.363,95.200 238.363,94.600 237.563,94.600 237.563,81.800 238.363,81.800 238.363,81.200 252.363,81.200 252.363,81.800 253.163,81.800 253.163,94.600" style="fill:none;stroke-width:0.2;stroke:black"/>
<polygon points="257.125,27.925 257.125,28.525 243.125,28.525 243.125,27.925 242.325,27.925 242.325,15.125 243.125,15.125 243.125,14.525 257.125,14.525 257.125,15.125 257.925,15.125 257.925,27.925" style="fill:none;stroke-width:0.2;stroke:black"/>
<polygon points="257.125,56.500 257.125,57.100 243.125,57.100 243.125,56.500 242.325,56.500 242.325,43.700 243.125,43.700 243.125,43.100 257.125,43.100 257.125,43.700 257.925,43.700 257.925,56.500" style="fill:none;stroke-width:0.2;stroke:black"/>
<polygon points="266.650,75.550 266.650,76.150 252.650,76.150 252.650,75.550 251.850,75.550 251.850,62.750 252.650,62.750 252.650,62.150 266.650,62.150 266.650,62.750 267.450,62.750 267.450,75.550" style="fill:none;stroke-width:0.2;stroke:black"/>
<polygon points="269.031,132.700 269.031,133.300 255.031,133.300 255.031,132.700 254.231,132.700 254.231,119.900 255.031,119.900 255.031,119.300 269.031,119.300 269.031,119.900 269.831,119.900 269.831,132.700" style="fill:none;stroke-width:0.2;stroke:black"/>
<polygon points="276.175,27.925 276.175,28.525 262.175,28.525 262.175,27.925 261.375,27.925 261.375,15.125 262.175,15.125 262.175,14.525 276.175,14.525 276.175,15.125 276.975,15.125 276.975,27.925" style="fill:none;stroke-width:0.2;stroke:black"/>
<polygon points="286.781,107.750 286.781,114.020 285.156,114.020 285.156,115.000 281.856,115.000 281.856,114.020 280.131,114.020 280.131,113.220 279.356,113.220 279.356,113.650 278.556,113.650 278.556,114.250 264.556,114.250 264.556,113.650 263.756,113.650 263.756,113.220 262.981,113.220 262.981,114.020 261.256,114.020 261.256,115.000 257.956,115.000 257.956,114.020 256.331,114.020 256.331,107.750 255.456,107.750 255.456,104.950 256.331,104.950 256.331,101.720 257.956,101.720 257.956,100.800 261.256,100.800 261.256,101.720 262.981,101.720 262.981,102.520 263.756,102.520 263.756,100.850 264.556,100.850 264.556,100.250 278.556,100.250 278.556,100.850 279.356,100.850 279.356,102.520 280.131,102.520 280.131,101.720 281.856,101.720 281.856,100.800 285.156,100.800 285.156,101.720 286.781,101.720 286.781,104.950 287.656,104.950 287.656,107.750" style="fill:none;stroke-width:0.2;stroke:black"/>
<polygon points="290.463,75.550 290.463,76.150 276.463,76.150 276.463,75.550 275.663,75.550 275.663,62.750 276.463,62.750 276.463,62.150 290.463,62.150 290.463,62.750 291.263,62.750 291.263,75.550" style="fill:none;stroke-width:0.2;stroke:black"/>
<polygon points="291.544,88.700 291.544,94.970 289.919,94.970 289.919,95.950 286.619,95.950 286.619,94.970 284.894,94.970 284.894,94.170 284.119,94.170 284.119,94.600 283.319,94.600 283.319,95.200 269.319,95.200 269.319,94.600 268.519,94.600 268.519,94.170 267.744,94.170 267.744,94.970 266.019,94.970 266.019,95.950 262.719,95.950 262.719,94.970 261.094,94.970 261.094,88.700 260.219,88.700 260.219,85.900 261.094,85.900 261.094,82.670 262.719,82.670 262.719,81.750 266.019,81.750 266.019,82.670 267.744,82.670 267.744,83.470 268.519,83.470 268.519,81.800 269.319,81.800 269.319,81.200 283.319,81.200 283.319,81.800 284.119,81.800 284.119,83.470 284.894,83.470 284.894,82.670 286.619,82.670 286.619,81.750 289.919,81.750 289.919,82.670 291.544,82.670 291.544,85.900 292.419,85.900 292.419,88.700" style="fill:none;stroke-width:0.2;stroke:black"/>
<polygon points="292.844,132.700 292.844,133.300 278.844,133.300 278.844,132.700 278.044,132.700 278.044,119.900 278.844,119.900 278.844,119.300 292.844,119.300 292.844,119.900 293.644,119.900 293.644,132.700" style="fill:none;stroke-width:0.2;stroke:black"/>
<polygon points="293.925,50.600 293.925,56.870 292.300,56.870 292.300,57.850 289.000,57.850 289.000,56.870 287.275,56.870 287.275,56.070 286.500,56.070 286.500,56.500 285.700,56.500 285.700,57.100 271.700,57.100 271.700,56.500 270.900,56.500 270.900,56.070 270.125,56.070 270.125,56.870 268.400,56.870 268.400,57.850 265.100,57.850 265.100,56.870 263.475,56.870 263.475,50.600 262.600,50.600 262.600,47.800 263.475,47.800 263.475,44.570 265.100,44.570 265.100,43.650 268.400,43.650 268.400,44.570 270.125,44.570 270.125,45.370 270.900,45.370 270.900,43.700 271.700,43.700 271.700,43.100 285.700,43.100 285.700,43.700 286.500,43.700 286.500,45.370 287.275,45.370 287.275,44.570 289.000,44.570 289.000,43.650 292.300,43.650 292.300,44.570 293.925,44.570 293.925,47.800 294.800,47.800 294.800,50.600" style="fill:none;stroke-width:0.2;stroke:black"/>
<polygon points="295.225,27.925 295.225,28.525 281.225,28.525 281.225,27.925 280.425,27.925 280.425,15.125 281.225,15.125 281.225,14.525 295.225,14.525 295.225,15.125 296.025,15.125 296.025,27.925" style="fill:none;stroke-width:0.2;stroke:black"/>
<polygon points="319.038,56.500 319.038,57.100 305.038,57.100 305.038,56.500 304.238,56.500 304.238,43.700 305.038,43.700 305.038,43.100 319.038,43.100 319.038,43.700 319.838,43.700 319.838,56.500" style="fill:none;stroke-width:0.2;stroke:black"/>
<polygon points="319.038,75.550 319.038,76.150 305.038,76.150 305.038,75.550 304.238,75.550 304.238,62.750 305.038,62.750 305.038,62.150 319.038,62.150 319.038,62.750 319.838,62.750 319.838,75.550" style="fill:none;stroke-width:0.2;stroke:black"/>
<polygon points="319.038,132.700 319.038,133.300 305.038,133.300 305.038,132.700 304.238,132.700 304.238,119.900 305.038,119.900 305.038,119.300 319.038,119.300 319.038,119.900 319.838,119.900 319.838,132.700" style="fill:none;stroke-width:0.2;stroke:black"/>
<polygon points="319.038,27.925 319.038,28.525 305.038,28.525 305.038,27.925 304.238,27.925 304.238,15.125 305.038,15.125 305.038,14.525 319.038,14.525 319.038,15.125 319.838,15.125 319.838,27.925" style="fill:none;stroke-width:0.2;stroke:black"/>
<polygon points="338.088,56.500 338.088,57.100 324.088,57.100 324.088,56.500 323.288,56.500 323.288,43.700 324.088,43.700 324.088,43.100 338.088,43.100 338.088,43.700 338.888,43.700 338.888,56.500" style="fill:none;stroke-width:0.2;stroke:black"/>
<polygon points="338.088,75.550 338.088,76.150 324.088,76.150 324.088,75.550 323.288,75.550 323.288,62.750 324.088,62.750 324.088,62.150 338.088,62.150 338.088,62.750 338.888,62.750 338.888,75.550" style="fill:none;stroke-width:0.2;stroke:black"/>
<polygon points="338.088,132.700 338.088,133.300 324.088,133.300 324.088,132.700 323.288,132.700 323.288,119.900 324.088,119.900 324.088,119.300 338.088,119.300 338.088,119.900 338.888,119.900 338.888,132.700" style="fill:none;stroke-width:0.2;stroke:black"/>
<polygon points="338.088,27.925 338.088,28.525 324.088,28.525 324.088,27.925 323.288,27.925 323.288,15.125 324.088,15.125 324.088,14.525 338.088,14.525 338.088,15.125 338.888,15.125 338.888,27.925" style="fill:none;stroke-width:0.2;stroke:black"/>
<polygon points="338.088,113.650 338.088,114.250 324.088,114.250 324.088,113.650 323.288,113.650 323.288,100.850 324.088,100.850 324.088,100.250 338.088,100.250 338.088,100.850 338.888,100.850 338.888,113.650" style="fill:none;stroke-width:0.2;stroke:black"/>
<polygon points="357.138,56.500 357.138,57.100 343.138,57.100 343.138,56.500 342.338,56.500 342.338,43.700 343.138,43.700 343.138,43.100 357.138,43.100 357.138,43.700 357.938,43.700 357.938,56.500" style="fill:none;stroke-width:0.2;stroke:black"/>
<polygon points="357.138,75.550 357.138,76.150 343.138,76.150 343.138,75.550 342.338,75.550 342.338,62.750 343.138,62.750 343.138,62.150 357.138,62.150 357.138,62.750 357.938,62.750 357.938,75.550" style="fill:none;stroke-width:0.2;stroke:black"/>
<polygon points="357.138,132.700 357.138,133.300 343.138,133.300 343.138,132.700 342.338,132.700 342.338,119.900 343.138,119.900 343.138,119.300 357.138,119.300 357.138,119.900 357.938,119.900 357.938,132.700" style="fill:none;stroke-width:0.2;stroke:black"/>
<polygon points="357.138,27.925 357.138,28.525 343.138,28.525 343.138,27.925 342.338,27.925 342.338,15.125 343.138,15.125 343.138,14.525 357.138,14.525 357.138,15.125 357.938,15.125 357.938,27.925" style="fill:none;stroke-width:0.2;stroke:black"/>
</svg>
