  0
SECTION
  2
HEADER
  9
$ACADVER
  1
AC1009
  9
$EXTMIN
 10
0.0
 20
0.0
 30
0.0
  9
$EXTMAX
 10
1000.0
 20
1000.0
 30
0.0
  9
$FILLMODE
 70
 0
  9
$SPLFRAME
 70
 1
  0
ENDSEC
  0
SECTION
  2
TABLES
  0
TABLE
  2
LAYER
 70
1
  0
LAYER
  2
0
 70
     0
 62
     7
  6
CONTINUOUS
  0
ENDTAB
  0
ENDSEC
  0
SECTION
  2
ENTITIES
  0
LINE
  8
0
 62
     0
 10
359.756
 20
137.938
 30
0.0
 11
359.914
 21
137.932
 31
0.0
  0
LINE
  8
0
 62
     0
 10
359.914
 20
137.932
 30
0.0
 11
360.07
 21
137.913
 31
0.0
  0
LINE
  8
0
 62
     0
 10
360.07
 20
137.913
 30
0.0
 11
360.225
 21
137.882
 31
0.0
  0
LINE
  8
0
 62
     0
 10
360.225
 20
137.882
 30
0.0
 11
360.377
 21
137.84
 31
0.0
  0
LINE
  8
0
 62
     0
 10
360.377
 20
137.84
 30
0.0
 11
360.521
 21
137.786
 31
0.0
  0
LINE
  8
0
 62
     0
 10
360.521
 20
137.786
 30
0.0
 11
360.666
 21
137.72
 31
0.0
  0
LINE
  8
0
 62
     0
 10
360.666
 20
137.72
 30
0.0
 11
360.8
 21
137.643
 31
0.0
  0
LINE
  8
0
 62
     0
 10
360.8
 20
137.643
 30
0.0
 11
360.93
 21
137.556
 31
0.0
  0
LINE
  8
0
 62
     0
 10
360.93
 20
137.556
 30
0.0
 11
361.054
 21
137.458
 31
0.0
  0
LINE
  8
0
 62
     0
 10
361.054
 20
137.458
 30
0.0
 11
361.17
 21
137.352
 31
0.0
  0
LINE
  8
0
 62
     0
 10
361.17
 20
137.352
 30
0.0
 11
361.276
 21
137.236
 31
0.0
  0
LINE
  8
0
 62
     0
 10
361.276
 20
137.236
 30
0.0
 11
361.375
 21
137.113
 31
0.0
  0
LINE
  8
0
 62
     0
 10
361.375
 20
137.113
 30
0.0
 11
361.463
 21
136.983
 31
0.0
  0
LINE
  8
0
 62
     0
 10
361.463
 20
136.983
 30
0.0
 11
361.541
 21
136.846
 31
0.0
  0
LINE
  8
0
 62
     0
 10
361.541
 20
136.846
 30
0.0
 11
361.604
 21
136.703
 31
0.0
  0
LINE
  8
0
 62
     0
 10
361.604
 20
136.703
 30
0.0
 11
361.661
 21
136.555
 31
0.0
  0
LINE
  8
0
 62
     0
 10
361.661
 20
136.555
 30
0.0
 11
361.7
 21
136.405
 31
0.0
  0
LINE
  8
0
 62
     0
 10
361.7
 20
136.405
 30
0.0
 11
361.731
 21
136.251
 31
0.0
  0
LINE
  8
0
 62
     0
 10
361.731
 20
136.251
 30
0.0
 11
361.749
 21
136.095
 31
0.0
  0
LINE
  8
0
 62
     0
 10
361.749
 20
136.095
 30
0.0
 11
361.756
 21
135.938
 31
0.0
  0
LINE
  8
0
 62
     0
 10
361.756
 20
135.938
 30
0.0
 11
361.756
 21
2.11253
 31
0.0
  0
LINE
  8
0
 62
     0
 10
361.756
 20
2.11253
 30
0.0
 11
361.749
 21
1.95544
 31
0.0
  0
LINE
  8
0
 62
     0
 10
361.749
 20
1.95544
 30
0.0
 11
361.731
 21
1.79972
 31
0.0
  0
LINE
  8
0
 62
     0
 10
361.731
 20
1.79972
 30
0.0
 11
361.7
 21
1.64538
 31
0.0
  0
LINE
  8
0
 62
     0
 10
361.7
 20
1.64538
 30
0.0
 11
361.661
 21
1.4938
 31
0.0
  0
LINE
  8
0
 62
     0
 10
361.661
 20
1.4938
 30
0.0
 11
361.604
 21
1.34772
 31
0.0
  0
LINE
  8
0
 62
     0
 10
361.604
 20
1.34772
 30
0.0
 11
361.541
 21
1.2044
 31
0.0
  0
LINE
  8
0
 62
     0
 10
361.541
 20
1.2044
 30
0.0
 11
361.463
 21
1.06798
 31
0.0
  0
LINE
  8
0
 62
     0
 10
361.463
 20
1.06798
 30
0.0
 11
361.375
 21
0.937066
 31
0.0
  0
LINE
  8
0
 62
     0
 10
361.375
 20
0.937066
 30
0.0
 11
361.276
 21
0.813043
 31
0.0
  0
LINE
  8
0
 62
     0
 10
361.276
 20
0.813043
 30
0.0
 11
361.17
 21
0.698666
 31
0.0
  0
LINE
  8
0
 62
     0
 10
361.17
 20
0.698666
 30
0.0
 11
361.054
 21
0.591178
 31
0.0
  0
LINE
  8
0
 62
     0
 10
361.054
 20
0.591178
 30
0.0
 11
360.93
 21
0.494714
 31
0.0
  0
LINE
  8
0
 62
     0
 10
360.93
 20
0.494714
 30
0.0
 11
360.8
 21
0.407899
 31
0.0
  0
LINE
  8
0
 62
     0
 10
360.8
 20
0.407899
 30
0.0
 11
360.666
 21
0.330729
 31
0.0
  0
LINE
  8
0
 62
     0
 10
360.666
 20
0.330729
 30
0.0
 11
360.521
 21
0.264583
 31
0.0
  0
LINE
  8
0
 62
     0
 10
360.521
 20
0.264583
 30
0.0
 11
360.377
 21
0.21084
 31
0.0
  0
LINE
  8
0
 62
     0
 10
360.377
 20
0.21084
 30
0.0
 11
360.225
 21
0.168121
 31
0.0
  0
LINE
  8
0
 62
     0
 10
360.225
 20
0.168121
 30
0.0
 11
360.07
 21
0.137804
 31
0.0
  0
LINE
  8
0
 62
     0
 10
360.07
 20
0.137804
 30
0.0
 11
359.914
 21
0.118511
 31
0.0
  0
LINE
  8
0
 62
     0
 10
359.914
 20
0.118511
 30
0.0
 11
359.756
 21
0.112999
 31
0.0
  0
LINE
  8
0
 62
     0
 10
359.756
 20
0.112999
 30
0.0
 11
2.09324
 21
0.112999
 31
0.0
  0
LINE
  8
0
 62
     0
 10
2.09324
 20
0.112999
 30
0.0
 11
1.93614
 21
0.118511
 31
0.0
  0
LINE
  8
0
 62
     0
 10
1.93614
 20
0.118511
 30
0.0
 11
1.78043
 21
0.137804
 31
0.0
  0
LINE
  8
0
 62
     0
 10
1.78043
 20
0.137804
 30
0.0
 11
1.62609
 21
0.168121
 31
0.0
  0
LINE
  8
0
 62
     0
 10
1.62609
 20
0.168121
 30
0.0
 11
1.47588
 21
0.21084
 31
0.0
  0
LINE
  8
0
 62
     0
 10
1.47588
 20
0.21084
 30
0.0
 11
1.32843
 21
0.264583
 31
0.0
  0
LINE
  8
0
 62
     0
 10
1.32843
 20
0.264583
 30
0.0
 11
1.18511
 21
0.330729
 31
0.0
  0
LINE
  8
0
 62
     0
 10
1.18511
 20
0.330729
 30
0.0
 11
1.04869
 21
0.407899
 31
0.0
  0
LINE
  8
0
 62
     0
 10
1.04869
 20
0.407899
 30
0.0
 11
0.917773
 21
0.494714
 31
0.0
  0
LINE
  8
0
 62
     0
 10
0.917773
 20
0.494714
 30
0.0
 11
0.795129
 21
0.591178
 31
0.0
  0
LINE
  8
0
 62
     0
 10
0.795129
 20
0.591178
 30
0.0
 11
0.679372
 21
0.698666
 31
0.0
  0
LINE
  8
0
 62
     0
 10
0.679372
 20
0.698666
 30
0.0
 11
0.573264
 21
0.813043
 31
0.0
  0
LINE
  8
0
 62
     0
 10
0.573264
 20
0.813043
 30
0.0
 11
0.475424
 21
0.937066
 31
0.0
  0
LINE
  8
0
 62
     0
 10
0.475424
 20
0.937066
 30
0.0
 11
0.388606
 21
1.06798
 31
0.0
  0
LINE
  8
0
 62
     0
 10
0.388606
 20
1.06798
 30
0.0
 11
0.311437
 21
1.2044
 31
0.0
  0
LINE
  8
0
 62
     0
 10
0.311437
 20
1.2044
 30
0.0
 11
0.245291
 21
1.34772
 31
0.0
  0
LINE
  8
0
 62
     0
 10
0.245291
 20
1.34772
 30
0.0
 11
0.191547
 21
1.4938
 31
0.0
  0
LINE
  8
0
 62
     0
 10
0.191547
 20
1.4938
 30
0.0
 11
0.148828
 21
1.64538
 31
0.0
  0
LINE
  8
0
 62
     0
 10
0.148828
 20
1.64538
 30
0.0
 11
0.118511
 21
1.79972
 31
0.0
  0
LINE
  8
0
 62
     0
 10
0.118511
 20
1.79972
 30
0.0
 11
0.0992188
 21
1.95544
 31
0.0
  0
LINE
  8
0
 62
     0
 10
0.0992188
 20
1.95544
 30
0.0
 11
0.0937066
 21
2.11253
 31
0.0
  0
LINE
  8
0
 62
     0
 10
0.0937066
 20
2.11253
 30
0.0
 11
0.0937066
 21
135.938
 31
0.0
  0
LINE
  8
0
 62
     0
 10
0.0937066
 20
135.938
 30
0.0
 11
0.0992188
 21
136.095
 31
0.0
  0
LINE
  8
0
 62
     0
 10
0.0992188
 20
136.095
 30
0.0
 11
0.118511
 21
136.251
 31
0.0
  0
LINE
  8
0
 62
     0
 10
0.118511
 20
136.251
 30
0.0
 11
0.148828
 21
136.405
 31
0.0
  0
LINE
  8
0
 62
     0
 10
0.148828
 20
136.405
 30
0.0
 11
0.191547
 21
136.555
 31
0.0
  0
LINE
  8
0
 62
     0
 10
0.191547
 20
136.555
 30
0.0
 11
0.245291
 21
136.703
 31
0.0
  0
LINE
  8
0
 62
     0
 10
0.245291
 20
136.703
 30
0.0
 11
0.311437
 21
136.846
 31
0.0
  0
LINE
  8
0
 62
     0
 10
0.311437
 20
136.846
 30
0.0
 11
0.388606
 21
136.983
 31
0.0
  0
LINE
  8
0
 62
     0
 10
0.388606
 20
136.983
 30
0.0
 11
0.475424
 21
137.113
 31
0.0
  0
LINE
  8
0
 62
     0
 10
0.475424
 20
137.113
 30
0.0
 11
0.573264
 21
137.236
 31
0.0
  0
LINE
  8
0
 62
     0
 10
0.573264
 20
137.236
 30
0.0
 11
0.679372
 21
137.352
 31
0.0
  0
LINE
  8
0
 62
     0
 10
0.679372
 20
137.352
 30
0.0
 11
0.795129
 21
137.458
 31
0.0
  0
LINE
  8
0
 62
     0
 10
0.795129
 20
137.458
 30
0.0
 11
0.917773
 21
137.556
 31
0.0
  0
LINE
  8
0
 62
     0
 10
0.917773
 20
137.556
 30
0.0
 11
1.04869
 21
137.643
 31
0.0
  0
LINE
  8
0
 62
     0
 10
1.04869
 20
137.643
 30
0.0
 11
1.18511
 21
137.72
 31
0.0
  0
LINE
  8
0
 62
     0
 10
1.18511
 20
137.72
 30
0.0
 11
1.32843
 21
137.786
 31
0.0
  0
LINE
  8
0
 62
     0
 10
1.32843
 20
137.786
 30
0.0
 11
1.47588
 21
137.84
 31
0.0
  0
LINE
  8
0
 62
     0
 10
1.47588
 20
137.84
 30
0.0
 11
1.62609
 21
137.882
 31
0.0
  0
LINE
  8
0
 62
     0
 10
1.62609
 20
137.882
 30
0.0
 11
1.78043
 21
137.913
 31
0.0
  0
LINE
  8
0
 62
     0
 10
1.78043
 20
137.913
 30
0.0
 11
1.93614
 21
137.932
 31
0.0
  0
LINE
  8
0
 62
     0
 10
1.93614
 20
137.932
 30
0.0
 11
2.09324
 21
137.938
 31
0.0
  0
LINE
  8
0
 62
     0
 10
2.09324
 20
137.938
 30
0.0
 11
359.756
 21
137.938
 31
0.0
  0
LINE
  8
0
 62
     0
 10
121.815
 20
136.437
 30
0.0
 11
122.433
 21
136.339
 31
0.0
  0
LINE
  8
0
 62
     0
 10
122.433
 20
136.339
 30
0.0
 11
122.99
 21
136.055
 31
0.0
  0
LINE
  8
0
 62
     0
 10
122.99
 20
136.055
 30
0.0
 11
123.432
 21
135.614
 31
0.0
  0
LINE
  8
0
 62
     0
 10
123.432
 20
135.614
 30
0.0
 11
123.716
 21
135.056
 31
0.0
  0
LINE
  8
0
 62
     0
 10
123.716
 20
135.056
 30
0.0
 11
123.815
 21
134.437
 31
0.0
  0
LINE
  8
0
 62
     0
 10
123.815
 20
134.437
 30
0.0
 11
123.716
 21
133.82
 31
0.0
  0
LINE
  8
0
 62
     0
 10
123.716
 20
133.82
 30
0.0
 11
123.432
 21
133.262
 31
0.0
  0
LINE
  8
0
 62
     0
 10
123.432
 20
133.262
 30
0.0
 11
122.99
 21
132.819
 31
0.0
  0
LINE
  8
0
 62
     0
 10
122.99
 20
132.819
 30
0.0
 11
122.433
 21
132.535
 31
0.0
  0
LINE
  8
0
 62
     0
 10
122.433
 20
132.535
 30
0.0
 11
121.815
 21
132.438
 31
0.0
  0
LINE
  8
0
 62
     0
 10
121.815
 20
132.438
 30
0.0
 11
121.197
 21
132.535
 31
0.0
  0
LINE
  8
0
 62
     0
 10
121.197
 20
132.535
 30
0.0
 11
120.639
 21
132.819
 31
0.0
  0
LINE
  8
0
 62
     0
 10
120.639
 20
132.819
 30
0.0
 11
120.197
 21
133.262
 31
0.0
  0
LINE
  8
0
 62
     0
 10
120.197
 20
133.262
 30
0.0
 11
119.913
 21
133.82
 31
0.0
  0
LINE
  8
0
 62
     0
 10
119.913
 20
133.82
 30
0.0
 11
119.815
 21
134.437
 31
0.0
  0
LINE
  8
0
 62
     0
 10
119.815
 20
134.437
 30
0.0
 11
119.913
 21
135.056
 31
0.0
  0
LINE
  8
0
 62
     0
 10
119.913
 20
135.056
 30
0.0
 11
120.197
 21
135.614
 31
0.0
  0
LINE
  8
0
 62
     0
 10
120.197
 20
135.614
 30
0.0
 11
120.639
 21
136.055
 31
0.0
  0
LINE
  8
0
 62
     0
 10
120.639
 20
136.055
 30
0.0
 11
121.197
 21
136.339
 31
0.0
  0
LINE
  8
0
 62
     0
 10
121.197
 20
136.339
 30
0.0
 11
121.815
 21
136.437
 31
0.0
  0
LINE
  8
0
 62
     0
 10
240.036
 20
136.437
 30
0.0
 11
240.654
 21
136.339
 31
0.0
  0
LINE
  8
0
 62
     0
 10
240.654
 20
136.339
 30
0.0
 11
241.21
 21
136.055
 31
0.0
  0
LINE
  8
0
 62
     0
 10
241.21
 20
136.055
 30
0.0
 11
241.654
 21
135.614
 31
0.0
  0
LINE
  8
0
 62
     0
 10
241.654
 20
135.614
 30
0.0
 11
241.938
 21
135.056
 31
0.0
  0
LINE
  8
0
 62
     0
 10
241.938
 20
135.056
 30
0.0
 11
242.036
 21
134.437
 31
0.0
  0
LINE
  8
0
 62
     0
 10
242.036
 20
134.437
 30
0.0
 11
241.938
 21
133.82
 31
0.0
  0
LINE
  8
0
 62
     0
 10
241.938
 20
133.82
 30
0.0
 11
241.654
 21
133.262
 31
0.0
  0
LINE
  8
0
 62
     0
 10
241.654
 20
133.262
 30
0.0
 11
241.21
 21
132.819
 31
0.0
  0
LINE
  8
0
 62
     0
 10
241.21
 20
132.819
 30
0.0
 11
240.654
 21
132.535
 31
0.0
  0
LINE
  8
0
 62
     0
 10
240.654
 20
132.535
 30
0.0
 11
240.036
 21
132.438
 31
0.0
  0
LINE
  8
0
 62
     0
 10
240.036
 20
132.438
 30
0.0
 11
239.418
 21
132.535
 31
0.0
  0
LINE
  8
0
 62
     0
 10
239.418
 20
132.535
 30
0.0
 11
238.859
 21
132.819
 31
0.0
  0
LINE
  8
0
 62
     0
 10
238.859
 20
132.819
 30
0.0
 11
238.417
 21
133.262
 31
0.0
  0
LINE
  8
0
 62
     0
 10
238.417
 20
133.262
 30
0.0
 11
238.133
 21
133.82
 31
0.0
  0
LINE
  8
0
 62
     0
 10
238.133
 20
133.82
 30
0.0
 11
238.035
 21
134.437
 31
0.0
  0
LINE
  8
0
 62
     0
 10
238.035
 20
134.437
 30
0.0
 11
238.133
 21
135.056
 31
0.0
  0
LINE
  8
0
 62
     0
 10
238.133
 20
135.056
 30
0.0
 11
238.417
 21
135.614
 31
0.0
  0
LINE
  8
0
 62
     0
 10
238.417
 20
135.614
 30
0.0
 11
238.859
 21
136.055
 31
0.0
  0
LINE
  8
0
 62
     0
 10
238.859
 20
136.055
 30
0.0
 11
239.418
 21
136.339
 31
0.0
  0
LINE
  8
0
 62
     0
 10
239.418
 20
136.339
 30
0.0
 11
240.036
 21
136.437
 31
0.0
  0
LINE
  8
0
 62
     0
 10
358.256
 20
136.437
 30
0.0
 11
358.874
 21
136.339
 31
0.0
  0
LINE
  8
0
 62
     0
 10
358.874
 20
136.339
 30
0.0
 11
359.431
 21
136.055
 31
0.0
  0
LINE
  8
0
 62
     0
 10
359.431
 20
136.055
 30
0.0
 11
359.876
 21
135.614
 31
0.0
  0
LINE
  8
0
 62
     0
 10
359.876
 20
135.614
 30
0.0
 11
360.158
 21
135.056
 31
0.0
  0
LINE
  8
0
 62
     0
 10
360.158
 20
135.056
 30
0.0
 11
360.257
 21
134.437
 31
0.0
  0
LINE
  8
0
 62
     0
 10
360.257
 20
134.437
 30
0.0
 11
360.158
 21
133.82
 31
0.0
  0
LINE
  8
0
 62
     0
 10
360.158
 20
133.82
 30
0.0
 11
359.876
 21
133.262
 31
0.0
  0
LINE
  8
0
 62
     0
 10
359.876
 20
133.262
 30
0.0
 11
359.431
 21
132.819
 31
0.0
  0
LINE
  8
0
 62
     0
 10
359.431
 20
132.819
 30
0.0
 11
358.874
 21
132.535
 31
0.0
  0
LINE
  8
0
 62
     0
 10
358.874
 20
132.535
 30
0.0
 11
358.256
 21
132.438
 31
0.0
  0
LINE
  8
0
 62
     0
 10
358.256
 20
132.438
 30
0.0
 11
357.639
 21
132.535
 31
0.0
  0
LINE
  8
0
 62
     0
 10
357.639
 20
132.535
 30
0.0
 11
357.082
 21
132.819
 31
0.0
  0
LINE
  8
0
 62
     0
 10
357.082
 20
132.819
 30
0.0
 11
356.637
 21
133.262
 31
0.0
  0
LINE
  8
0
 62
     0
 10
356.637
 20
133.262
 30
0.0
 11
356.355
 21
133.82
 31
0.0
  0
LINE
  8
0
 62
     0
 10
356.355
 20
133.82
 30
0.0
 11
356.256
 21
134.437
 31
0.0
  0
LINE
  8
0
 62
     0
 10
356.256
 20
134.437
 30
0.0
 11
356.355
 21
135.056
 31
0.0
  0
LINE
  8
0
 62
     0
 10
356.355
 20
135.056
 30
0.0
 11
356.637
 21
135.614
 31
0.0
  0
LINE
  8
0
 62
     0
 10
356.637
 20
135.614
 30
0.0
 11
357.082
 21
136.055
 31
0.0
  0
LINE
  8
0
 62
     0
 10
357.082
 20
136.055
 30
0.0
 11
357.639
 21
136.339
 31
0.0
  0
LINE
  8
0
 62
     0
 10
357.639
 20
136.339
 30
0.0
 11
358.256
 21
136.437
 31
0.0
  0
LINE
  8
0
 62
     0
 10
358.256
 20
5.61277
 30
0.0
 11
358.874
 21
5.5149
 31
0.0
  0
LINE
  8
0
 62
     0
 10
358.874
 20
5.5149
 30
0.0
 11
359.431
 21
5.23102
 31
0.0
  0
LINE
  8
0
 62
     0
 10
359.431
 20
5.23102
 30
0.0
 11
359.876
 21
4.78868
 31
0.0
  0
LINE
  8
0
 62
     0
 10
359.876
 20
4.78868
 30
0.0
 11
360.158
 21
4.23058
 31
0.0
  0
LINE
  8
0
 62
     0
 10
360.158
 20
4.23058
 30
0.0
 11
360.257
 21
3.61184
 31
0.0
  0
LINE
  8
0
 62
     0
 10
360.257
 20
3.61184
 30
0.0
 11
360.158
 21
2.99448
 31
0.0
  0
LINE
  8
0
 62
     0
 10
360.158
 20
2.99448
 30
0.0
 11
359.876
 21
2.43637
 31
0.0
  0
LINE
  8
0
 62
     0
 10
359.876
 20
2.43637
 30
0.0
 11
359.431
 21
1.99402
 31
0.0
  0
LINE
  8
0
 62
     0
 10
359.431
 20
1.99402
 30
0.0
 11
358.874
 21
1.71015
 31
0.0
  0
LINE
  8
0
 62
     0
 10
358.874
 20
1.71015
 30
0.0
 11
358.256
 21
1.6123
 31
0.0
  0
LINE
  8
0
 62
     0
 10
358.256
 20
1.6123
 30
0.0
 11
357.639
 21
1.71015
 31
0.0
  0
LINE
  8
0
 62
     0
 10
357.639
 20
1.71015
 30
0.0
 11
357.082
 21
1.99402
 31
0.0
  0
LINE
  8
0
 62
     0
 10
357.082
 20
1.99402
 30
0.0
 11
356.637
 21
2.43637
 31
0.0
  0
LINE
  8
0
 62
     0
 10
356.637
 20
2.43637
 30
0.0
 11
356.355
 21
2.99448
 31
0.0
  0
LINE
  8
0
 62
     0
 10
356.355
 20
2.99448
 30
0.0
 11
356.256
 21
3.61184
 31
0.0
  0
LINE
  8
0
 62
     0
 10
356.256
 20
3.61184
 30
0.0
 11
356.355
 21
4.23058
 31
0.0
  0
LINE
  8
0
 62
     0
 10
356.355
 20
4.23058
 30
0.0
 11
356.637
 21
4.78868
 31
0.0
  0
LINE
  8
0
 62
     0
 10
356.637
 20
4.78868
 30
0.0
 11
357.082
 21
5.23102
 31
0.0
  0
LINE
  8
0
 62
     0
 10
357.082
 20
5.23102
 30
0.0
 11
357.639
 21
5.5149
 31
0.0
  0
LINE
  8
0
 62
     0
 10
357.639
 20
5.5149
 30
0.0
 11
358.256
 21
5.61277
 31
0.0
  0
LINE
  8
0
 62
     0
 10
240.036
 20
5.61277
 30
0.0
 11
240.654
 21
5.5149
 31
0.0
  0
LINE
  8
0
 62
     0
 10
240.654
 20
5.5149
 30
0.0
 11
241.21
 21
5.23102
 31
0.0
  0
LINE
  8
0
 62
     0
 10
241.21
 20
5.23102
 30
0.0
 11
241.654
 21
4.78868
 31
0.0
  0
LINE
  8
0
 62
     0
 10
241.654
 20
4.78868
 30
0.0
 11
241.938
 21
4.23058
 31
0.0
  0
LINE
  8
0
 62
     0
 10
241.938
 20
4.23058
 30
0.0
 11
242.036
 21
3.61184
 31
0.0
  0
LINE
  8
0
 62
     0
 10
242.036
 20
3.61184
 30
0.0
 11
241.938
 21
2.99448
 31
0.0
  0
LINE
  8
0
 62
     0
 10
241.938
 20
2.99448
 30
0.0
 11
241.654
 21
2.43637
 31
0.0
  0
LINE
  8
0
 62
     0
 10
241.654
 20
2.43637
 30
0.0
 11
241.21
 21
1.99402
 31
0.0
  0
LINE
  8
0
 62
     0
 10
241.21
 20
1.99402
 30
0.0
 11
240.654
 21
1.71015
 31
0.0
  0
LINE
  8
0
 62
     0
 10
240.654
 20
1.71015
 30
0.0
 11
240.036
 21
1.6123
 31
0.0
  0
LINE
  8
0
 62
     0
 10
240.036
 20
1.6123
 30
0.0
 11
239.418
 21
1.71015
 31
0.0
  0
LINE
  8
0
 62
     0
 10
239.418
 20
1.71015
 30
0.0
 11
238.859
 21
1.99402
 31
0.0
  0
LINE
  8
0
 62
     0
 10
238.859
 20
1.99402
 30
0.0
 11
238.417
 21
2.43637
 31
0.0
  0
LINE
  8
0
 62
     0
 10
238.417
 20
2.43637
 30
0.0
 11
238.133
 21
2.99448
 31
0.0
  0
LINE
  8
0
 62
     0
 10
238.133
 20
2.99448
 30
0.0
 11
238.035
 21
3.61184
 31
0.0
  0
LINE
  8
0
 62
     0
 10
238.035
 20
3.61184
 30
0.0
 11
238.133
 21
4.23058
 31
0.0
  0
LINE
  8
0
 62
     0
 10
238.133
 20
4.23058
 30
0.0
 11
238.417
 21
4.78868
 31
0.0
  0
LINE
  8
0
 62
     0
 10
238.417
 20
4.78868
 30
0.0
 11
238.859
 21
5.23102
 31
0.0
  0
LINE
  8
0
 62
     0
 10
238.859
 20
5.23102
 30
0.0
 11
239.418
 21
5.5149
 31
0.0
  0
LINE
  8
0
 62
     0
 10
239.418
 20
5.5149
 30
0.0
 11
240.036
 21
5.61277
 31
0.0
  0
LINE
  8
0
 62
     0
 10
121.815
 20
5.61277
 30
0.0
 11
122.433
 21
5.5149
 31
0.0
  0
LINE
  8
0
 62
     0
 10
122.433
 20
5.5149
 30
0.0
 11
122.99
 21
5.23102
 31
0.0
  0
LINE
  8
0
 62
     0
 10
122.99
 20
5.23102
 30
0.0
 11
123.432
 21
4.78868
 31
0.0
  0
LINE
  8
0
 62
     0
 10
123.432
 20
4.78868
 30
0.0
 11
123.716
 21
4.23058
 31
0.0
  0
LINE
  8
0
 62
     0
 10
123.716
 20
4.23058
 30
0.0
 11
123.815
 21
3.61184
 31
0.0
  0
LINE
  8
0
 62
     0
 10
123.815
 20
3.61184
 30
0.0
 11
123.716
 21
2.99448
 31
0.0
  0
LINE
  8
0
 62
     0
 10
123.716
 20
2.99448
 30
0.0
 11
123.432
 21
2.43637
 31
0.0
  0
LINE
  8
0
 62
     0
 10
123.432
 20
2.43637
 30
0.0
 11
122.99
 21
1.99402
 31
0.0
  0
LINE
  8
0
 62
     0
 10
122.99
 20
1.99402
 30
0.0
 11
122.433
 21
1.71015
 31
0.0
  0
LINE
  8
0
 62
     0
 10
122.433
 20
1.71015
 30
0.0
 11
121.815
 21
1.6123
 31
0.0
  0
LINE
  8
0
 62
     0
 10
121.815
 20
1.6123
 30
0.0
 11
121.197
 21
1.71015
 31
0.0
  0
LINE
  8
0
 62
     0
 10
121.197
 20
1.71015
 30
0.0
 11
120.639
 21
1.99402
 31
0.0
  0
LINE
  8
0
 62
     0
 10
120.639
 20
1.99402
 30
0.0
 11
120.197
 21
2.43637
 31
0.0
  0
LINE
  8
0
 62
     0
 10
120.197
 20
2.43637
 30
0.0
 11
119.913
 21
2.99448
 31
0.0
  0
LINE
  8
0
 62
     0
 10
119.913
 20
2.99448
 30
0.0
 11
119.815
 21
3.61184
 31
0.0
  0
LINE
  8
0
 62
     0
 10
119.815
 20
3.61184
 30
0.0
 11
119.913
 21
4.23058
 31
0.0
  0
LINE
  8
0
 62
     0
 10
119.913
 20
4.23058
 30
0.0
 11
120.197
 21
4.78868
 31
0.0
  0
LINE
  8
0
 62
     0
 10
120.197
 20
4.78868
 30
0.0
 11
120.639
 21
5.23102
 31
0.0
  0
LINE
  8
0
 62
     0
 10
120.639
 20
5.23102
 30
0.0
 11
121.197
 21
5.5149
 31
0.0
  0
LINE
  8
0
 62
     0
 10
121.197
 20
5.5149
 30
0.0
 11
121.815
 21
5.61277
 31
0.0
  0
LINE
  8
0
 62
     0
 10
3.59392
 20
5.61277
 30
0.0
 11
4.21128
 21
5.5149
 31
0.0
  0
LINE
  8
0
 62
     0
 10
4.21128
 20
5.5149
 30
0.0
 11
4.76938
 21
5.23102
 31
0.0
  0
LINE
  8
0
 62
     0
 10
4.76938
 20
5.23102
 30
0.0
 11
5.21173
 21
4.78868
 31
0.0
  0
LINE
  8
0
 62
     0
 10
5.21173
 20
4.78868
 30
0.0
 11
5.49561
 21
4.23058
 31
0.0
  0
LINE
  8
0
 62
     0
 10
5.49561
 20
4.23058
 30
0.0
 11
5.59347
 21
3.61184
 31
0.0
  0
LINE
  8
0
 62
     0
 10
5.59347
 20
3.61184
 30
0.0
 11
5.49561
 21
2.99448
 31
0.0
  0
LINE
  8
0
 62
     0
 10
5.49561
 20
2.99448
 30
0.0
 11
5.21173
 21
2.43637
 31
0.0
  0
LINE
  8
0
 62
     0
 10
5.21173
 20
2.43637
 30
0.0
 11
4.76938
 21
1.99402
 31
0.0
  0
LINE
  8
0
 62
     0
 10
4.76938
 20
1.99402
 30
0.0
 11
4.21128
 21
1.71015
 31
0.0
  0
LINE
  8
0
 62
     0
 10
4.21128
 20
1.71015
 30
0.0
 11
3.59392
 21
1.6123
 31
0.0
  0
LINE
  8
0
 62
     0
 10
3.59392
 20
1.6123
 30
0.0
 11
2.97518
 21
1.71015
 31
0.0
  0
LINE
  8
0
 62
     0
 10
2.97518
 20
1.71015
 30
0.0
 11
2.41708
 21
1.99402
 31
0.0
  0
LINE
  8
0
 62
     0
 10
2.41708
 20
1.99402
 30
0.0
 11
1.97611
 21
2.43637
 31
0.0
  0
LINE
  8
0
 62
     0
 10
1.97611
 20
2.43637
 30
0.0
 11
1.69223
 21
2.99448
 31
0.0
  0
LINE
  8
0
 62
     0
 10
1.69223
 20
2.99448
 30
0.0
 11
1.59439
 21
3.61184
 31
0.0
  0
LINE
  8
0
 62
     0
 10
1.59439
 20
3.61184
 30
0.0
 11
1.69223
 21
4.23058
 31
0.0
  0
LINE
  8
0
 62
     0
 10
1.69223
 20
4.23058
 30
0.0
 11
1.97611
 21
4.78868
 31
0.0
  0
LINE
  8
0
 62
     0
 10
1.97611
 20
4.78868
 30
0.0
 11
2.41708
 21
5.23102
 31
0.0
  0
LINE
  8
0
 62
     0
 10
2.41708
 20
5.23102
 30
0.0
 11
2.97518
 21
5.5149
 31
0.0
  0
LINE
  8
0
 62
     0
 10
2.97518
 20
5.5149
 30
0.0
 11
3.59392
 21
5.61277
 31
0.0
  0
LINE
  8
0
 62
     0
 10
3.59392
 20
136.437
 30
0.0
 11
4.21128
 21
136.339
 31
0.0
  0
LINE
  8
0
 62
     0
 10
4.21128
 20
136.339
 30
0.0
 11
4.76938
 21
136.055
 31
0.0
  0
LINE
  8
0
 62
     0
 10
4.76938
 20
136.055
 30
0.0
 11
5.21173
 21
135.614
 31
0.0
  0
LINE
  8
0
 62
     0
 10
5.21173
 20
135.614
 30
0.0
 11
5.49561
 21
135.056
 31
0.0
  0
LINE
  8
0
 62
     0
 10
5.49561
 20
135.056
 30
0.0
 11
5.59347
 21
134.437
 31
0.0
  0
LINE
  8
0
 62
     0
 10
5.59347
 20
134.437
 30
0.0
 11
5.49561
 21
133.82
 31
0.0
  0
LINE
  8
0
 62
     0
 10
5.49561
 20
133.82
 30
0.0
 11
5.21173
 21
133.262
 31
0.0
  0
LINE
  8
0
 62
     0
 10
5.21173
 20
133.262
 30
0.0
 11
4.76938
 21
132.819
 31
0.0
  0
LINE
  8
0
 62
     0
 10
4.76938
 20
132.819
 30
0.0
 11
4.21128
 21
132.535
 31
0.0
  0
LINE
  8
0
 62
     0
 10
4.21128
 20
132.535
 30
0.0
 11
3.59392
 21
132.438
 31
0.0
  0
LINE
  8
0
 62
     0
 10
3.59392
 20
132.438
 30
0.0
 11
2.97518
 21
132.535
 31
0.0
  0
LINE
  8
0
 62
     0
 10
2.97518
 20
132.535
 30
0.0
 11
2.41708
 21
132.819
 31
0.0
  0
LINE
  8
0
 62
     0
 10
2.41708
 20
132.819
 30
0.0
 11
1.97611
 21
133.262
 31
0.0
  0
LINE
  8
0
 62
     0
 10
1.97611
 20
133.262
 30
0.0
 11
1.69223
 21
133.82
 31
0.0
  0
LINE
  8
0
 62
     0
 10
1.69223
 20
133.82
 30
0.0
 11
1.59439
 21
134.437
 31
0.0
  0
LINE
  8
0
 62
     0
 10
1.59439
 20
134.437
 30
0.0
 11
1.69223
 21
135.056
 31
0.0
  0
LINE
  8
0
 62
     0
 10
1.69223
 20
135.056
 30
0.0
 11
1.97611
 21
135.614
 31
0.0
  0
LINE
  8
0
 62
     0
 10
1.97611
 20
135.614
 30
0.0
 11
2.41708
 21
136.055
 31
0.0
  0
LINE
  8
0
 62
     0
 10
2.41708
 20
136.055
 30
0.0
 11
2.97518
 21
136.339
 31
0.0
  0
LINE
  8
0
 62
     0
 10
2.97518
 20
136.339
 30
0.0
 11
3.59392
 21
136.437
 31
0.0
  0
LINE
  8
0
 62
     0
 10
23.6182
 20
115.013
 30
0.0
 11
23.6182
 21
114.413
 31
0.0
  0
LINE
  8
0
 62
     0
 10
23.6182
 20
114.413
 30
0.0
 11
9.6187
 21
114.413
 31
0.0
  0
LINE
  8
0
 62
     0
 10
9.6187
 20
114.413
 30
0.0
 11
9.6187
 21
115.013
 31
0.0
  0
LINE
  8
0
 62
     0
 10
9.6187
 20
115.013
 30
0.0
 11
8.81807
 21
115.013
 31
0.0
  0
LINE
  8
0
 62
     0
 10
8.81807
 20
115.013
 30
0.0
 11
8.81807
 21
127.813
 31
0.0
  0
LINE
  8
0
 62
     0
 10
8.81807
 20
127.813
 30
0.0
 11
9.6187
 21
127.813
 31
0.0
  0
LINE
  8
0
 62
     0
 10
9.6187
 20
127.813
 30
0.0
 11
9.6187
 21
128.413
 31
0.0
  0
LINE
  8
0
 62
     0
 10
9.6187
 20
128.413
 30
0.0
 11
23.6182
 21
128.413
 31
0.0
  0
LINE
  8
0
 62
     0
 10
23.6182
 20
128.413
 30
0.0
 11
23.6182
 21
127.813
 31
0.0
  0
LINE
  8
0
 62
     0
 10
23.6182
 20
127.813
 30
0.0
 11
24.4189
 21
127.813
 31
0.0
  0
LINE
  8
0
 62
     0
 10
24.4189
 20
127.813
 30
0.0
 11
24.4189
 21
115.013
 31
0.0
  0
LINE
  8
0
 62
     0
 10
24.4189
 20
115.013
 30
0.0
 11
23.6182
 21
115.013
 31
0.0
  0
LINE
  8
0
 62
     0
 10
23.6182
 20
86.4376
 30
0.0
 11
23.6182
 21
85.8379
 31
0.0
  0
LINE
  8
0
 62
     0
 10
23.6182
 20
85.8379
 30
0.0
 11
9.6187
 21
85.8379
 31
0.0
  0
LINE
  8
0
 62
     0
 10
9.6187
 20
85.8379
 30
0.0
 11
9.6187
 21
86.4376
 31
0.0
  0
LINE
  8
0
 62
     0
 10
9.6187
 20
86.4376
 30
0.0
 11
8.81807
 21
86.4376
 31
0.0
  0
LINE
  8
0
 62
     0
 10
8.81807
 20
86.4376
 30
0.0
 11
8.81807
 21
99.2382
 31
0.0
  0
LINE
  8
0
 62
     0
 10
8.81807
 20
99.2382
 30
0.0
 11
9.6187
 21
99.2382
 31
0.0
  0
LINE
  8
0
 62
     0
 10
9.6187
 20
99.2382
 30
0.0
 11
9.6187
 21
99.8375
 31
0.0
  0
LINE
  8
0
 62
     0
 10
9.6187
 20
99.8375
 30
0.0
 11
23.6182
 21
99.8375
 31
0.0
  0
LINE
  8
0
 62
     0
 10
23.6182
 20
99.8375
 30
0.0
 11
23.6182
 21
99.2382
 31
0.0
  0
LINE
  8
0
 62
     0
 10
23.6182
 20
99.2382
 30
0.0
 11
24.4189
 21
99.2382
 31
0.0
  0
LINE
  8
0
 62
     0
 10
24.4189
 20
99.2382
 30
0.0
 11
24.4189
 21
86.4376
 31
0.0
  0
LINE
  8
0
 62
     0
 10
24.4189
 20
86.4376
 30
0.0
 11
23.6182
 21
86.4376
 31
0.0
  0
LINE
  8
0
 62
     0
 10
25.9994
 20
10.2374
 30
0.0
 11
25.9994
 21
9.63799
 31
0.0
  0
LINE
  8
0
 62
     0
 10
25.9994
 20
9.63799
 30
0.0
 11
11.9999
 21
9.63799
 31
0.0
  0
LINE
  8
0
 62
     0
 10
11.9999
 20
9.63799
 30
0.0
 11
11.9999
 21
10.2374
 31
0.0
  0
LINE
  8
0
 62
     0
 10
11.9999
 20
10.2374
 30
0.0
 11
11.1993
 21
10.2374
 31
0.0
  0
LINE
  8
0
 62
     0
 10
11.1993
 20
10.2374
 30
0.0
 11
11.1993
 21
23.038
 31
0.0
  0
LINE
  8
0
 62
     0
 10
11.1993
 20
23.038
 30
0.0
 11
11.9999
 21
23.038
 31
0.0
  0
LINE
  8
0
 62
     0
 10
11.9999
 20
23.038
 30
0.0
 11
11.9999
 21
23.6375
 31
0.0
  0
LINE
  8
0
 62
     0
 10
11.9999
 20
23.6375
 30
0.0
 11
25.9994
 21
23.6375
 31
0.0
  0
LINE
  8
0
 62
     0
 10
25.9994
 20
23.6375
 30
0.0
 11
25.9994
 21
23.038
 31
0.0
  0
LINE
  8
0
 62
     0
 10
25.9994
 20
23.038
 30
0.0
 11
26.8001
 21
23.038
 31
0.0
  0
LINE
  8
0
 62
     0
 10
26.8001
 20
23.038
 30
0.0
 11
26.8001
 21
10.2374
 31
0.0
  0
LINE
  8
0
 62
     0
 10
26.8001
 20
10.2374
 30
0.0
 11
25.9994
 21
10.2374
 31
0.0
  0
LINE
  8
0
 62
     0
 10
28.3821
 20
67.3876
 30
0.0
 11
28.3821
 21
66.7879
 31
0.0
  0
LINE
  8
0
 62
     0
 10
28.3821
 20
66.7879
 30
0.0
 11
14.3812
 21
66.7879
 31
0.0
  0
LINE
  8
0
 62
     0
 10
14.3812
 20
66.7879
 30
0.0
 11
14.3812
 21
67.3876
 31
0.0
  0
LINE
  8
0
 62
     0
 10
14.3812
 20
67.3876
 30
0.0
 11
13.5819
 21
67.3876
 31
0.0
  0
LINE
  8
0
 62
     0
 10
13.5819
 20
67.3876
 30
0.0
 11
13.5819
 21
80.1882
 31
0.0
  0
LINE
  8
0
 62
     0
 10
13.5819
 20
80.1882
 30
0.0
 11
14.3812
 21
80.1882
 31
0.0
  0
LINE
  8
0
 62
     0
 10
14.3812
 20
80.1882
 30
0.0
 11
14.3812
 21
80.7875
 31
0.0
  0
LINE
  8
0
 62
     0
 10
14.3812
 20
80.7875
 30
0.0
 11
28.3821
 21
80.7875
 31
0.0
  0
LINE
  8
0
 62
     0
 10
28.3821
 20
80.7875
 30
0.0
 11
28.3821
 21
80.1882
 31
0.0
  0
LINE
  8
0
 62
     0
 10
28.3821
 20
80.1882
 30
0.0
 11
29.1814
 21
80.1882
 31
0.0
  0
LINE
  8
0
 62
     0
 10
29.1814
 20
80.1882
 30
0.0
 11
29.1814
 21
67.3876
 31
0.0
  0
LINE
  8
0
 62
     0
 10
29.1814
 20
67.3876
 30
0.0
 11
28.3821
 21
67.3876
 31
0.0
  0
LINE
  8
0
 62
     0
 10
30.7633
 20
48.3376
 30
0.0
 11
30.7633
 21
47.7379
 31
0.0
  0
LINE
  8
0
 62
     0
 10
30.7633
 20
47.7379
 30
0.0
 11
16.7624
 21
47.7379
 31
0.0
  0
LINE
  8
0
 62
     0
 10
16.7624
 20
47.7379
 30
0.0
 11
16.7624
 21
48.3376
 31
0.0
  0
LINE
  8
0
 62
     0
 10
16.7624
 20
48.3376
 30
0.0
 11
15.9632
 21
48.3376
 31
0.0
  0
LINE
  8
0
 62
     0
 10
15.9632
 20
48.3376
 30
0.0
 11
15.9632
 21
61.1382
 31
0.0
  0
LINE
  8
0
 62
     0
 10
15.9632
 20
61.1382
 30
0.0
 11
16.7624
 21
61.1382
 31
0.0
  0
LINE
  8
0
 62
     0
 10
16.7624
 20
61.1382
 30
0.0
 11
16.7624
 21
61.7375
 31
0.0
  0
LINE
  8
0
 62
     0
 10
16.7624
 20
61.7375
 30
0.0
 11
30.7633
 21
61.7375
 31
0.0
  0
LINE
  8
0
 62
     0
 10
30.7633
 20
61.7375
 30
0.0
 11
30.7633
 21
61.1382
 31
0.0
  0
LINE
  8
0
 62
     0
 10
30.7633
 20
61.1382
 30
0.0
 11
31.5626
 21
61.1382
 31
0.0
  0
LINE
  8
0
 62
     0
 10
31.5626
 20
61.1382
 30
0.0
 11
31.5626
 21
48.3376
 31
0.0
  0
LINE
  8
0
 62
     0
 10
31.5626
 20
48.3376
 30
0.0
 11
30.7633
 21
48.3376
 31
0.0
  0
LINE
  8
0
 62
     0
 10
42.6681
 20
86.4376
 30
0.0
 11
42.6681
 21
85.8379
 31
0.0
  0
LINE
  8
0
 62
     0
 10
42.6681
 20
85.8379
 30
0.0
 11
28.6687
 21
85.8379
 31
0.0
  0
LINE
  8
0
 62
     0
 10
28.6687
 20
85.8379
 30
0.0
 11
28.6687
 21
86.4376
 31
0.0
  0
LINE
  8
0
 62
     0
 10
28.6687
 20
86.4376
 30
0.0
 11
27.8681
 21
86.4376
 31
0.0
  0
LINE
  8
0
 62
     0
 10
27.8681
 20
86.4376
 30
0.0
 11
27.8681
 21
99.2382
 31
0.0
  0
LINE
  8
0
 62
     0
 10
27.8681
 20
99.2382
 30
0.0
 11
28.6687
 21
99.2382
 31
0.0
  0
LINE
  8
0
 62
     0
 10
28.6687
 20
99.2382
 30
0.0
 11
28.6687
 21
99.8375
 31
0.0
  0
LINE
  8
0
 62
     0
 10
28.6687
 20
99.8375
 30
0.0
 11
42.6681
 21
99.8375
 31
0.0
  0
LINE
  8
0
 62
     0
 10
42.6681
 20
99.8375
 30
0.0
 11
42.6681
 21
99.2382
 31
0.0
  0
LINE
  8
0
 62
     0
 10
42.6681
 20
99.2382
 30
0.0
 11
43.4689
 21
99.2382
 31
0.0
  0
LINE
  8
0
 62
     0
 10
43.4689
 20
99.2382
 30
0.0
 11
43.4689
 21
86.4376
 31
0.0
  0
LINE
  8
0
 62
     0
 10
43.4689
 20
86.4376
 30
0.0
 11
42.6681
 21
86.4376
 31
0.0
  0
LINE
  8
0
 62
     0
 10
43.7501
 20
35.1868
 30
0.0
 11
43.7501
 21
28.9181
 31
0.0
  0
LINE
  8
0
 62
     0
 10
43.7501
 20
28.9181
 30
0.0
 11
42.1252
 21
28.9181
 31
0.0
  0
LINE
  8
0
 62
     0
 10
42.1252
 20
28.9181
 30
0.0
 11
42.1252
 21
27.937
 31
0.0
  0
LINE
  8
0
 62
     0
 10
42.1252
 20
27.937
 30
0.0
 11
38.825
 21
27.937
 31
0.0
  0
LINE
  8
0
 62
     0
 10
38.825
 20
27.937
 30
0.0
 11
38.825
 21
28.9181
 31
0.0
  0
LINE
  8
0
 62
     0
 10
38.825
 20
28.9181
 30
0.0
 11
37.0995
 21
28.9181
 31
0.0
  0
LINE
  8
0
 62
     0
 10
37.0995
 20
28.9181
 30
0.0
 11
37.0995
 21
29.7174
 31
0.0
  0
LINE
  8
0
 62
     0
 10
37.0995
 20
29.7174
 30
0.0
 11
36.3252
 21
29.7174
 31
0.0
  0
LINE
  8
0
 62
     0
 10
36.3252
 20
29.7174
 30
0.0
 11
36.3252
 21
29.2874
 31
0.0
  0
LINE
  8
0
 62
     0
 10
36.3252
 20
29.2874
 30
0.0
 11
35.5244
 21
29.2874
 31
0.0
  0
LINE
  8
0
 62
     0
 10
35.5244
 20
29.2874
 30
0.0
 11
35.5244
 21
28.688
 31
0.0
  0
LINE
  8
0
 62
     0
 10
35.5244
 20
28.688
 30
0.0
 11
21.5249
 21
28.688
 31
0.0
  0
LINE
  8
0
 62
     0
 10
21.5249
 20
28.688
 30
0.0
 11
21.5249
 21
29.2874
 31
0.0
  0
LINE
  8
0
 62
     0
 10
21.5249
 20
29.2874
 30
0.0
 11
20.7243
 21
29.2874
 31
0.0
  0
LINE
  8
0
 62
     0
 10
20.7243
 20
29.2874
 30
0.0
 11
20.7243
 21
29.7174
 31
0.0
  0
LINE
  8
0
 62
     0
 10
20.7243
 20
29.7174
 30
0.0
 11
19.9499
 21
29.7174
 31
0.0
  0
LINE
  8
0
 62
     0
 10
19.9499
 20
29.7174
 30
0.0
 11
19.9499
 21
28.9181
 31
0.0
  0
LINE
  8
0
 62
     0
 10
19.9499
 20
28.9181
 30
0.0
 11
18.2246
 21
28.9181
 31
0.0
  0
LINE
  8
0
 62
     0
 10
18.2246
 20
28.9181
 30
0.0
 11
18.2246
 21
27.937
 31
0.0
  0
LINE
  8
0
 62
     0
 10
18.2246
 20
27.937
 30
0.0
 11
14.9242
 21
27.937
 31
0.0
  0
LINE
  8
0
 62
     0
 10
14.9242
 20
27.937
 30
0.0
 11
14.9242
 21
28.9181
 31
0.0
  0
LINE
  8
0
 62
     0
 10
14.9242
 20
28.9181
 30
0.0
 11
13.2994
 21
28.9181
 31
0.0
  0
LINE
  8
0
 62
     0
 10
13.2994
 20
28.9181
 30
0.0
 11
13.2994
 21
35.1868
 31
0.0
  0
LINE
  8
0
 62
     0
 10
13.2994
 20
35.1868
 30
0.0
 11
12.4244
 21
35.1868
 31
0.0
  0
LINE
  8
0
 62
     0
 10
12.4244
 20
35.1868
 30
0.0
 11
12.4244
 21
37.9871
 31
0.0
  0
LINE
  8
0
 62
     0
 10
12.4244
 20
37.9871
 30
0.0
 11
13.2994
 21
37.9871
 31
0.0
  0
LINE
  8
0
 62
     0
 10
13.2994
 20
37.9871
 30
0.0
 11
13.2994
 21
41.2171
 31
0.0
  0
LINE
  8
0
 62
     0
 10
13.2994
 20
41.2171
 30
0.0
 11
14.9242
 21
41.2171
 31
0.0
  0
LINE
  8
0
 62
     0
 10
14.9242
 20
41.2171
 30
0.0
 11
14.9242
 21
42.1375
 31
0.0
  0
LINE
  8
0
 62
     0
 10
14.9242
 20
42.1375
 30
0.0
 11
18.2246
 21
42.1375
 31
0.0
  0
LINE
  8
0
 62
     0
 10
18.2246
 20
42.1375
 30
0.0
 11
18.2246
 21
41.2171
 31
0.0
  0
LINE
  8
0
 62
     0
 10
18.2246
 20
41.2171
 30
0.0
 11
19.9499
 21
41.2171
 31
0.0
  0
LINE
  8
0
 62
     0
 10
19.9499
 20
41.2171
 30
0.0
 11
19.9499
 21
40.4178
 31
0.0
  0
LINE
  8
0
 62
     0
 10
19.9499
 20
40.4178
 30
0.0
 11
20.7243
 21
40.4178
 31
0.0
  0
LINE
  8
0
 62
     0
 10
20.7243
 20
40.4178
 30
0.0
 11
20.7243
 21
42.0882
 31
0.0
  0
LINE
  8
0
 62
     0
 10
20.7243
 20
42.0882
 30
0.0
 11
21.5249
 21
42.0882
 31
0.0
  0
LINE
  8
0
 62
     0
 10
21.5249
 20
42.0882
 30
0.0
 11
21.5249
 21
42.6875
 31
0.0
  0
LINE
  8
0
 62
     0
 10
21.5249
 20
42.6875
 30
0.0
 11
35.5244
 21
42.6875
 31
0.0
  0
LINE
  8
0
 62
     0
 10
35.5244
 20
42.6875
 30
0.0
 11
35.5244
 21
42.0882
 31
0.0
  0
LINE
  8
0
 62
     0
 10
35.5244
 20
42.0882
 30
0.0
 11
36.3252
 21
42.0882
 31
0.0
  0
LINE
  8
0
 62
     0
 10
36.3252
 20
42.0882
 30
0.0
 11
36.3252
 21
40.4178
 31
0.0
  0
LINE
  8
0
 62
     0
 10
36.3252
 20
40.4178
 30
0.0
 11
37.0995
 21
40.4178
 31
0.0
  0
LINE
  8
0
 62
     0
 10
37.0995
 20
40.4178
 30
0.0
 11
37.0995
 21
41.2171
 31
0.0
  0
LINE
  8
0
 62
     0
 10
37.0995
 20
41.2171
 30
0.0
 11
38.825
 21
41.2171
 31
0.0
  0
LINE
  8
0
 62
     0
 10
38.825
 20
41.2171
 30
0.0
 11
38.825
 21
42.1375
 31
0.0
  0
LINE
  8
0
 62
     0
 10
38.825
 20
42.1375
 30
0.0
 11
42.1252
 21
42.1375
 31
0.0
  0
LINE
  8
0
 62
     0
 10
42.1252
 20
42.1375
 30
0.0
 11
42.1252
 21
41.2171
 31
0.0
  0
LINE
  8
0
 62
     0
 10
42.1252
 20
41.2171
 30
0.0
 11
43.7501
 21
41.2171
 31
0.0
  0
LINE
  8
0
 62
     0
 10
43.7501
 20
41.2171
 30
0.0
 11
43.7501
 21
37.9871
 31
0.0
  0
LINE
  8
0
 62
     0
 10
43.7501
 20
37.9871
 30
0.0
 11
44.625
 21
37.9871
 31
0.0
  0
LINE
  8
0
 62
     0
 10
44.625
 20
37.9871
 30
0.0
 11
44.625
 21
35.1868
 31
0.0
  0
LINE
  8
0
 62
     0
 10
44.625
 20
35.1868
 30
0.0
 11
43.7501
 21
35.1868
 31
0.0
  0
LINE
  8
0
 62
     0
 10
49.8133
 20
10.2374
 30
0.0
 11
49.8133
 21
9.63799
 31
0.0
  0
LINE
  8
0
 62
     0
 10
49.8133
 20
9.63799
 30
0.0
 11
35.8126
 21
9.63799
 31
0.0
  0
LINE
  8
0
 62
     0
 10
35.8126
 20
9.63799
 30
0.0
 11
35.8126
 21
10.2374
 31
0.0
  0
LINE
  8
0
 62
     0
 10
35.8126
 20
10.2374
 30
0.0
 11
35.0132
 21
10.2374
 31
0.0
  0
LINE
  8
0
 62
     0
 10
35.0132
 20
10.2374
 30
0.0
 11
35.0132
 21
23.038
 31
0.0
  0
LINE
  8
0
 62
     0
 10
35.0132
 20
23.038
 30
0.0
 11
35.8126
 21
23.038
 31
0.0
  0
LINE
  8
0
 62
     0
 10
35.8126
 20
23.038
 30
0.0
 11
35.8126
 21
23.6375
 31
0.0
  0
LINE
  8
0
 62
     0
 10
35.8126
 20
23.6375
 30
0.0
 11
49.8133
 21
23.6375
 31
0.0
  0
LINE
  8
0
 62
     0
 10
49.8133
 20
23.6375
 30
0.0
 11
49.8133
 21
23.038
 31
0.0
  0
LINE
  8
0
 62
     0
 10
49.8133
 20
23.038
 30
0.0
 11
50.6127
 21
23.038
 31
0.0
  0
LINE
  8
0
 62
     0
 10
50.6127
 20
23.038
 30
0.0
 11
50.6127
 21
10.2374
 31
0.0
  0
LINE
  8
0
 62
     0
 10
50.6127
 20
10.2374
 30
0.0
 11
49.8133
 21
10.2374
 31
0.0
  0
LINE
  8
0
 62
     0
 10
52.1931
 20
67.3876
 30
0.0
 11
52.1931
 21
66.7879
 31
0.0
  0
LINE
  8
0
 62
     0
 10
52.1931
 20
66.7879
 30
0.0
 11
38.1938
 21
66.7879
 31
0.0
  0
LINE
  8
0
 62
     0
 10
38.1938
 20
66.7879
 30
0.0
 11
38.1938
 21
67.3876
 31
0.0
  0
LINE
  8
0
 62
     0
 10
38.1938
 20
67.3876
 30
0.0
 11
37.393
 21
67.3876
 31
0.0
  0
LINE
  8
0
 62
     0
 10
37.393
 20
67.3876
 30
0.0
 11
37.393
 21
80.1882
 31
0.0
  0
LINE
  8
0
 62
     0
 10
37.393
 20
80.1882
 30
0.0
 11
38.1938
 21
80.1882
 31
0.0
  0
LINE
  8
0
 62
     0
 10
38.1938
 20
80.1882
 30
0.0
 11
38.1938
 21
80.7875
 31
0.0
  0
LINE
  8
0
 62
     0
 10
38.1938
 20
80.7875
 30
0.0
 11
52.1931
 21
80.7875
 31
0.0
  0
LINE
  8
0
 62
     0
 10
52.1931
 20
80.7875
 30
0.0
 11
52.1931
 21
80.1882
 31
0.0
  0
LINE
  8
0
 62
     0
 10
52.1931
 20
80.1882
 30
0.0
 11
52.9939
 21
80.1882
 31
0.0
  0
LINE
  8
0
 62
     0
 10
52.9939
 20
80.1882
 30
0.0
 11
52.9939
 21
67.3876
 31
0.0
  0
LINE
  8
0
 62
     0
 10
52.9939
 20
67.3876
 30
0.0
 11
52.1931
 21
67.3876
 31
0.0
  0
LINE
  8
0
 62
     0
 10
56.9556
 20
48.3376
 30
0.0
 11
56.9556
 21
47.7379
 31
0.0
  0
LINE
  8
0
 62
     0
 10
56.9556
 20
47.7379
 30
0.0
 11
42.9563
 21
47.7379
 31
0.0
  0
LINE
  8
0
 62
     0
 10
42.9563
 20
47.7379
 30
0.0
 11
42.9563
 21
48.3376
 31
0.0
  0
LINE
  8
0
 62
     0
 10
42.9563
 20
48.3376
 30
0.0
 11
42.1555
 21
48.3376
 31
0.0
  0
LINE
  8
0
 62
     0
 10
42.1555
 20
48.3376
 30
0.0
 11
42.1555
 21
61.1382
 31
0.0
  0
LINE
  8
0
 62
     0
 10
42.1555
 20
61.1382
 30
0.0
 11
42.9563
 21
61.1382
 31
0.0
  0
LINE
  8
0
 62
     0
 10
42.9563
 20
61.1382
 30
0.0
 11
42.9563
 21
61.7375
 31
0.0
  0
LINE
  8
0
 62
     0
 10
42.9563
 20
61.7375
 30
0.0
 11
56.9556
 21
61.7375
 31
0.0
  0
LINE
  8
0
 62
     0
 10
56.9556
 20
61.7375
 30
0.0
 11
56.9556
 21
61.1382
 31
0.0
  0
LINE
  8
0
 62
     0
 10
56.9556
 20
61.1382
 30
0.0
 11
57.7564
 21
61.1382
 31
0.0
  0
LINE
  8
0
 62
     0
 10
57.7564
 20
61.1382
 30
0.0
 11
57.7564
 21
48.3376
 31
0.0
  0
LINE
  8
0
 62
     0
 10
57.7564
 20
48.3376
 30
0.0
 11
56.9556
 21
48.3376
 31
0.0
  0
LINE
  8
0
 62
     0
 10
61.7181
 20
115.013
 30
0.0
 11
61.7181
 21
114.413
 31
0.0
  0
LINE
  8
0
 62
     0
 10
61.7181
 20
114.413
 30
0.0
 11
47.7188
 21
114.413
 31
0.0
  0
LINE
  8
0
 62
     0
 10
47.7188
 20
114.413
 30
0.0
 11
47.7188
 21
115.013
 31
0.0
  0
LINE
  8
0
 62
     0
 10
47.7188
 20
115.013
 30
0.0
 11
46.918
 21
115.013
 31
0.0
  0
LINE
  8
0
 62
     0
 10
46.918
 20
115.013
 30
0.0
 11
46.918
 21
127.813
 31
0.0
  0
LINE
  8
0
 62
     0
 10
46.918
 20
127.813
 30
0.0
 11
47.7188
 21
127.813
 31
0.0
  0
LINE
  8
0
 62
     0
 10
47.7188
 20
127.813
 30
0.0
 11
47.7188
 21
128.413
 31
0.0
  0
LINE
  8
0
 62
     0
 10
47.7188
 20
128.413
 30
0.0
 11
61.7181
 21
128.413
 31
0.0
  0
LINE
  8
0
 62
     0
 10
61.7181
 20
128.413
 30
0.0
 11
61.7181
 21
127.813
 31
0.0
  0
LINE
  8
0
 62
     0
 10
61.7181
 20
127.813
 30
0.0
 11
62.5189
 21
127.813
 31
0.0
  0
LINE
  8
0
 62
     0
 10
62.5189
 20
127.813
 30
0.0
 11
62.5189
 21
115.013
 31
0.0
  0
LINE
  8
0
 62
     0
 10
62.5189
 20
115.013
 30
0.0
 11
61.7181
 21
115.013
 31
0.0
  0
LINE
  8
0
 62
     0
 10
61.7181
 20
86.4376
 30
0.0
 11
61.7181
 21
85.8379
 31
0.0
  0
LINE
  8
0
 62
     0
 10
61.7181
 20
85.8379
 30
0.0
 11
47.7188
 21
85.8379
 31
0.0
  0
LINE
  8
0
 62
     0
 10
47.7188
 20
85.8379
 30
0.0
 11
47.7188
 21
86.4376
 31
0.0
  0
LINE
  8
0
 62
     0
 10
47.7188
 20
86.4376
 30
0.0
 11
46.918
 21
86.4376
 31
0.0
  0
LINE
  8
0
 62
     0
 10
46.918
 20
86.4376
 30
0.0
 11
46.918
 21
99.2382
 31
0.0
  0
LINE
  8
0
 62
     0
 10
46.918
 20
99.2382
 30
0.0
 11
47.7188
 21
99.2382
 31
0.0
  0
LINE
  8
0
 62
     0
 10
47.7188
 20
99.2382
 30
0.0
 11
47.7188
 21
99.8375
 31
0.0
  0
LINE
  8
0
 62
     0
 10
47.7188
 20
99.8375
 30
0.0
 11
61.7181
 21
99.8375
 31
0.0
  0
LINE
  8
0
 62
     0
 10
61.7181
 20
99.8375
 30
0.0
 11
61.7181
 21
99.2382
 31
0.0
  0
LINE
  8
0
 62
     0
 10
61.7181
 20
99.2382
 30
0.0
 11
62.5189
 21
99.2382
 31
0.0
  0
LINE
  8
0
 62
     0
 10
62.5189
 20
99.2382
 30
0.0
 11
62.5189
 21
86.4376
 31
0.0
  0
LINE
  8
0
 62
     0
 10
62.5189
 20
86.4376
 30
0.0
 11
61.7181
 21
86.4376
 31
0.0
  0
LINE
  8
0
 62
     0
 10
66.482
 20
29.2874
 30
0.0
 11
66.482
 21
28.688
 31
0.0
  0
LINE
  8
0
 62
     0
 10
66.482
 20
28.688
 30
0.0
 11
52.4813
 21
28.688
 31
0.0
  0
LINE
  8
0
 62
     0
 10
52.4813
 20
28.688
 30
0.0
 11
52.4813
 21
29.2874
 31
0.0
  0
LINE
  8
0
 62
     0
 10
52.4813
 20
29.2874
 30
0.0
 11
51.6819
 21
29.2874
 31
0.0
  0
LINE
  8
0
 62
     0
 10
51.6819
 20
29.2874
 30
0.0
 11
51.6819
 21
42.0882
 31
0.0
  0
LINE
  8
0
 62
     0
 10
51.6819
 20
42.0882
 30
0.0
 11
52.4813
 21
42.0882
 31
0.0
  0
LINE
  8
0
 62
     0
 10
52.4813
 20
42.0882
 30
0.0
 11
52.4813
 21
42.6875
 31
0.0
  0
LINE
  8
0
 62
     0
 10
52.4813
 20
42.6875
 30
0.0
 11
66.482
 21
42.6875
 31
0.0
  0
LINE
  8
0
 62
     0
 10
66.482
 20
42.6875
 30
0.0
 11
66.482
 21
42.0882
 31
0.0
  0
LINE
  8
0
 62
     0
 10
66.482
 20
42.0882
 30
0.0
 11
67.2814
 21
42.0882
 31
0.0
  0
LINE
  8
0
 62
     0
 10
67.2814
 20
42.0882
 30
0.0
 11
67.2814
 21
29.2874
 31
0.0
  0
LINE
  8
0
 62
     0
 10
67.2814
 20
29.2874
 30
0.0
 11
66.482
 21
29.2874
 31
0.0
  0
LINE
  8
0
 62
     0
 10
71.2431
 20
67.3876
 30
0.0
 11
71.2431
 21
66.7879
 31
0.0
  0
LINE
  8
0
 62
     0
 10
71.2431
 20
66.7879
 30
0.0
 11
57.2438
 21
66.7879
 31
0.0
  0
LINE
  8
0
 62
     0
 10
57.2438
 20
66.7879
 30
0.0
 11
57.2438
 21
67.3876
 31
0.0
  0
LINE
  8
0
 62
     0
 10
57.2438
 20
67.3876
 30
0.0
 11
56.443
 21
67.3876
 31
0.0
  0
LINE
  8
0
 62
     0
 10
56.443
 20
67.3876
 30
0.0
 11
56.443
 21
80.1882
 31
0.0
  0
LINE
  8
0
 62
     0
 10
56.443
 20
80.1882
 30
0.0
 11
57.2438
 21
80.1882
 31
0.0
  0
LINE
  8
0
 62
     0
 10
57.2438
 20
80.1882
 30
0.0
 11
57.2438
 21
80.7875
 31
0.0
  0
LINE
  8
0
 62
     0
 10
57.2438
 20
80.7875
 30
0.0
 11
71.2431
 21
80.7875
 31
0.0
  0
LINE
  8
0
 62
     0
 10
71.2431
 20
80.7875
 30
0.0
 11
71.2431
 21
80.1882
 31
0.0
  0
LINE
  8
0
 62
     0
 10
71.2431
 20
80.1882
 30
0.0
 11
72.0439
 21
80.1882
 31
0.0
  0
LINE
  8
0
 62
     0
 10
72.0439
 20
80.1882
 30
0.0
 11
72.0439
 21
67.3876
 31
0.0
  0
LINE
  8
0
 62
     0
 10
72.0439
 20
67.3876
 30
0.0
 11
71.2431
 21
67.3876
 31
0.0
  0
LINE
  8
0
 62
     0
 10
73.6244
 20
10.2374
 30
0.0
 11
73.6244
 21
9.63799
 31
0.0
  0
LINE
  8
0
 62
     0
 10
73.6244
 20
9.63799
 30
0.0
 11
59.6251
 21
9.63799
 31
0.0
  0
LINE
  8
0
 62
     0
 10
59.6251
 20
9.63799
 30
0.0
 11
59.6251
 21
10.2374
 31
0.0
  0
LINE
  8
0
 62
     0
 10
59.6251
 20
10.2374
 30
0.0
 11
58.8243
 21
10.2374
 31
0.0
  0
LINE
  8
0
 62
     0
 10
58.8243
 20
10.2374
 30
0.0
 11
58.8243
 21
23.038
 31
0.0
  0
LINE
  8
0
 62
     0
 10
58.8243
 20
23.038
 30
0.0
 11
59.6251
 21
23.038
 31
0.0
  0
LINE
  8
0
 62
     0
 10
59.6251
 20
23.038
 30
0.0
 11
59.6251
 21
23.6375
 31
0.0
  0
LINE
  8
0
 62
     0
 10
59.6251
 20
23.6375
 30
0.0
 11
73.6244
 21
23.6375
 31
0.0
  0
LINE
  8
0
 62
     0
 10
73.6244
 20
23.6375
 30
0.0
 11
73.6244
 21
23.038
 31
0.0
  0
LINE
  8
0
 62
     0
 10
73.6244
 20
23.038
 30
0.0
 11
74.4252
 21
23.038
 31
0.0
  0
LINE
  8
0
 62
     0
 10
74.4252
 20
23.038
 30
0.0
 11
74.4252
 21
10.2374
 31
0.0
  0
LINE
  8
0
 62
     0
 10
74.4252
 20
10.2374
 30
0.0
 11
73.6244
 21
10.2374
 31
0.0
  0
LINE
  8
0
 62
     0
 10
76.0056
 20
48.3376
 30
0.0
 11
76.0056
 21
47.7379
 31
0.0
  0
LINE
  8
0
 62
     0
 10
76.0056
 20
47.7379
 30
0.0
 11
62.0063
 21
47.7379
 31
0.0
  0
LINE
  8
0
 62
     0
 10
62.0063
 20
47.7379
 30
0.0
 11
62.0063
 21
48.3376
 31
0.0
  0
LINE
  8
0
 62
     0
 10
62.0063
 20
48.3376
 30
0.0
 11
61.2055
 21
48.3376
 31
0.0
  0
LINE
  8
0
 62
     0
 10
61.2055
 20
48.3376
 30
0.0
 11
61.2055
 21
61.1382
 31
0.0
  0
LINE
  8
0
 62
     0
 10
61.2055
 20
61.1382
 30
0.0
 11
62.0063
 21
61.1382
 31
0.0
  0
LINE
  8
0
 62
     0
 10
62.0063
 20
61.1382
 30
0.0
 11
62.0063
 21
61.7375
 31
0.0
  0
LINE
  8
0
 62
     0
 10
62.0063
 20
61.7375
 30
0.0
 11
76.0056
 21
61.7375
 31
0.0
  0
LINE
  8
0
 62
     0
 10
76.0056
 20
61.7375
 30
0.0
 11
76.0056
 21
61.1382
 31
0.0
  0
LINE
  8
0
 62
     0
 10
76.0056
 20
61.1382
 30
0.0
 11
76.8064
 21
61.1382
 31
0.0
  0
LINE
  8
0
 62
     0
 10
76.8064
 20
61.1382
 30
0.0
 11
76.8064
 21
48.3376
 31
0.0
  0
LINE
  8
0
 62
     0
 10
76.8064
 20
48.3376
 30
0.0
 11
76.0056
 21
48.3376
 31
0.0
  0
LINE
  8
0
 62
     0
 10
80.7681
 20
115.013
 30
0.0
 11
80.7681
 21
114.413
 31
0.0
  0
LINE
  8
0
 62
     0
 10
80.7681
 20
114.413
 30
0.0
 11
66.7688
 21
114.413
 31
0.0
  0
LINE
  8
0
 62
     0
 10
66.7688
 20
114.413
 30
0.0
 11
66.7688
 21
115.013
 31
0.0
  0
LINE
  8
0
 62
     0
 10
66.7688
 20
115.013
 30
0.0
 11
65.968
 21
115.013
 31
0.0
  0
LINE
  8
0
 62
     0
 10
65.968
 20
115.013
 30
0.0
 11
65.968
 21
127.813
 31
0.0
  0
LINE
  8
0
 62
     0
 10
65.968
 20
127.813
 30
0.0
 11
66.7688
 21
127.813
 31
0.0
  0
LINE
  8
0
 62
     0
 10
66.7688
 20
127.813
 30
0.0
 11
66.7688
 21
128.413
 31
0.0
  0
LINE
  8
0
 62
     0
 10
66.7688
 20
128.413
 30
0.0
 11
80.7681
 21
128.413
 31
0.0
  0
LINE
  8
0
 62
     0
 10
80.7681
 20
128.413
 30
0.0
 11
80.7681
 21
127.813
 31
0.0
  0
LINE
  8
0
 62
     0
 10
80.7681
 20
127.813
 30
0.0
 11
81.5689
 21
127.813
 31
0.0
  0
LINE
  8
0
 62
     0
 10
81.5689
 20
127.813
 30
0.0
 11
81.5689
 21
115.013
 31
0.0
  0
LINE
  8
0
 62
     0
 10
81.5689
 20
115.013
 30
0.0
 11
80.7681
 21
115.013
 31
0.0
  0
LINE
  8
0
 62
     0
 10
80.7681
 20
86.4376
 30
0.0
 11
80.7681
 21
85.8379
 31
0.0
  0
LINE
  8
0
 62
     0
 10
80.7681
 20
85.8379
 30
0.0
 11
66.7688
 21
85.8379
 31
0.0
  0
LINE
  8
0
 62
     0
 10
66.7688
 20
85.8379
 30
0.0
 11
66.7688
 21
86.4376
 31
0.0
  0
LINE
  8
0
 62
     0
 10
66.7688
 20
86.4376
 30
0.0
 11
65.968
 21
86.4376
 31
0.0
  0
LINE
  8
0
 62
     0
 10
65.968
 20
86.4376
 30
0.0
 11
65.968
 21
99.2382
 31
0.0
  0
LINE
  8
0
 62
     0
 10
65.968
 20
99.2382
 30
0.0
 11
66.7688
 21
99.2382
 31
0.0
  0
LINE
  8
0
 62
     0
 10
66.7688
 20
99.2382
 30
0.0
 11
66.7688
 21
99.8375
 31
0.0
  0
LINE
  8
0
 62
     0
 10
66.7688
 20
99.8375
 30
0.0
 11
80.7681
 21
99.8375
 31
0.0
  0
LINE
  8
0
 62
     0
 10
80.7681
 20
99.8375
 30
0.0
 11
80.7681
 21
99.2382
 31
0.0
  0
LINE
  8
0
 62
     0
 10
80.7681
 20
99.2382
 30
0.0
 11
81.5689
 21
99.2382
 31
0.0
  0
LINE
  8
0
 62
     0
 10
81.5689
 20
99.2382
 30
0.0
 11
81.5689
 21
86.4376
 31
0.0
  0
LINE
  8
0
 62
     0
 10
81.5689
 20
86.4376
 30
0.0
 11
80.7681
 21
86.4376
 31
0.0
  0
LINE
  8
0
 62
     0
 10
85.532
 20
29.2874
 30
0.0
 11
85.532
 21
28.688
 31
0.0
  0
LINE
  8
0
 62
     0
 10
85.532
 20
28.688
 30
0.0
 11
71.5313
 21
28.688
 31
0.0
  0
LINE
  8
0
 62
     0
 10
71.5313
 20
28.688
 30
0.0
 11
71.5313
 21
29.2874
 31
0.0
  0
LINE
  8
0
 62
     0
 10
71.5313
 20
29.2874
 30
0.0
 11
70.7319
 21
29.2874
 31
0.0
  0
LINE
  8
0
 62
     0
 10
70.7319
 20
29.2874
 30
0.0
 11
70.7319
 21
42.0882
 31
0.0
  0
LINE
  8
0
 62
     0
 10
70.7319
 20
42.0882
 30
0.0
 11
71.5313
 21
42.0882
 31
0.0
  0
LINE
  8
0
 62
     0
 10
71.5313
 20
42.0882
 30
0.0
 11
71.5313
 21
42.6875
 31
0.0
  0
LINE
  8
0
 62
     0
 10
71.5313
 20
42.6875
 30
0.0
 11
85.532
 21
42.6875
 31
0.0
  0
LINE
  8
0
 62
     0
 10
85.532
 20
42.6875
 30
0.0
 11
85.532
 21
42.0882
 31
0.0
  0
LINE
  8
0
 62
     0
 10
85.532
 20
42.0882
 30
0.0
 11
86.3314
 21
42.0882
 31
0.0
  0
LINE
  8
0
 62
     0
 10
86.3314
 20
42.0882
 30
0.0
 11
86.3314
 21
29.2874
 31
0.0
  0
LINE
  8
0
 62
     0
 10
86.3314
 20
29.2874
 30
0.0
 11
85.532
 21
29.2874
 31
0.0
  0
LINE
  8
0
 62
     0
 10
90.2931
 20
67.3876
 30
0.0
 11
90.2931
 21
66.7879
 31
0.0
  0
LINE
  8
0
 62
     0
 10
90.2931
 20
66.7879
 30
0.0
 11
76.2938
 21
66.7879
 31
0.0
  0
LINE
  8
0
 62
     0
 10
76.2938
 20
66.7879
 30
0.0
 11
76.2938
 21
67.3876
 31
0.0
  0
LINE
  8
0
 62
     0
 10
76.2938
 20
67.3876
 30
0.0
 11
75.493
 21
67.3876
 31
0.0
  0
LINE
  8
0
 62
     0
 10
75.493
 20
67.3876
 30
0.0
 11
75.493
 21
80.1882
 31
0.0
  0
LINE
  8
0
 62
     0
 10
75.493
 20
80.1882
 30
0.0
 11
76.2938
 21
80.1882
 31
0.0
  0
LINE
  8
0
 62
     0
 10
76.2938
 20
80.1882
 30
0.0
 11
76.2938
 21
80.7875
 31
0.0
  0
LINE
  8
0
 62
     0
 10
76.2938
 20
80.7875
 30
0.0
 11
90.2931
 21
80.7875
 31
0.0
  0
LINE
  8
0
 62
     0
 10
90.2931
 20
80.7875
 30
0.0
 11
90.2931
 21
80.1882
 31
0.0
  0
LINE
  8
0
 62
     0
 10
90.2931
 20
80.1882
 30
0.0
 11
91.0939
 21
80.1882
 31
0.0
  0
LINE
  8
0
 62
     0
 10
91.0939
 20
80.1882
 30
0.0
 11
91.0939
 21
67.3876
 31
0.0
  0
LINE
  8
0
 62
     0
 10
91.0939
 20
67.3876
 30
0.0
 11
90.2931
 21
67.3876
 31
0.0
  0
LINE
  8
0
 62
     0
 10
95.0556
 20
48.3376
 30
0.0
 11
95.0556
 21
47.7379
 31
0.0
  0
LINE
  8
0
 62
     0
 10
95.0556
 20
47.7379
 30
0.0
 11
81.0563
 21
47.7379
 31
0.0
  0
LINE
  8
0
 62
     0
 10
81.0563
 20
47.7379
 30
0.0
 11
81.0563
 21
48.3376
 31
0.0
  0
LINE
  8
0
 62
     0
 10
81.0563
 20
48.3376
 30
0.0
 11
80.2555
 21
48.3376
 31
0.0
  0
LINE
  8
0
 62
     0
 10
80.2555
 20
48.3376
 30
0.0
 11
80.2555
 21
61.1382
 31
0.0
  0
LINE
  8
0
 62
     0
 10
80.2555
 20
61.1382
 30
0.0
 11
81.0563
 21
61.1382
 31
0.0
  0
LINE
  8
0
 62
     0
 10
81.0563
 20
61.1382
 30
0.0
 11
81.0563
 21
61.7375
 31
0.0
  0
LINE
  8
0
 62
     0
 10
81.0563
 20
61.7375
 30
0.0
 11
95.0556
 21
61.7375
 31
0.0
  0
LINE
  8
0
 62
     0
 10
95.0556
 20
61.7375
 30
0.0
 11
95.0556
 21
61.1382
 31
0.0
  0
LINE
  8
0
 62
     0
 10
95.0556
 20
61.1382
 30
0.0
 11
95.8564
 21
61.1382
 31
0.0
  0
LINE
  8
0
 62
     0
 10
95.8564
 20
61.1382
 30
0.0
 11
95.8564
 21
48.3376
 31
0.0
  0
LINE
  8
0
 62
     0
 10
95.8564
 20
48.3376
 30
0.0
 11
95.0556
 21
48.3376
 31
0.0
  0
LINE
  8
0
 62
     0
 10
99.8181
 20
115.013
 30
0.0
 11
99.8181
 21
114.413
 31
0.0
  0
LINE
  8
0
 62
     0
 10
99.8181
 20
114.413
 30
0.0
 11
85.8188
 21
114.413
 31
0.0
  0
LINE
  8
0
 62
     0
 10
85.8188
 20
114.413
 30
0.0
 11
85.8188
 21
115.013
 31
0.0
  0
LINE
  8
0
 62
     0
 10
85.8188
 20
115.013
 30
0.0
 11
85.018
 21
115.013
 31
0.0
  0
LINE
  8
0
 62
     0
 10
85.018
 20
115.013
 30
0.0
 11
85.018
 21
127.813
 31
0.0
  0
LINE
  8
0
 62
     0
 10
85.018
 20
127.813
 30
0.0
 11
85.8188
 21
127.813
 31
0.0
  0
LINE
  8
0
 62
     0
 10
85.8188
 20
127.813
 30
0.0
 11
85.8188
 21
128.413
 31
0.0
  0
LINE
  8
0
 62
     0
 10
85.8188
 20
128.413
 30
0.0
 11
99.8181
 21
128.413
 31
0.0
  0
LINE
  8
0
 62
     0
 10
99.8181
 20
128.413
 30
0.0
 11
99.8181
 21
127.813
 31
0.0
  0
LINE
  8
0
 62
     0
 10
99.8181
 20
127.813
 30
0.0
 11
100.619
 21
127.813
 31
0.0
  0
LINE
  8
0
 62
     0
 10
100.619
 20
127.813
 30
0.0
 11
100.619
 21
115.013
 31
0.0
  0
LINE
  8
0
 62
     0
 10
100.619
 20
115.013
 30
0.0
 11
99.8181
 21
115.013
 31
0.0
  0
LINE
  8
0
 62
     0
 10
99.8181
 20
86.4376
 30
0.0
 11
99.8181
 21
85.8379
 31
0.0
  0
LINE
  8
0
 62
     0
 10
99.8181
 20
85.8379
 30
0.0
 11
85.8188
 21
85.8379
 31
0.0
  0
LINE
  8
0
 62
     0
 10
85.8188
 20
85.8379
 30
0.0
 11
85.8188
 21
86.4376
 31
0.0
  0
LINE
  8
0
 62
     0
 10
85.8188
 20
86.4376
 30
0.0
 11
85.018
 21
86.4376
 31
0.0
  0
LINE
  8
0
 62
     0
 10
85.018
 20
86.4376
 30
0.0
 11
85.018
 21
99.2382
 31
0.0
  0
LINE
  8
0
 62
     0
 10
85.018
 20
99.2382
 30
0.0
 11
85.8188
 21
99.2382
 31
0.0
  0
LINE
  8
0
 62
     0
 10
85.8188
 20
99.2382
 30
0.0
 11
85.8188
 21
99.8375
 31
0.0
  0
LINE
  8
0
 62
     0
 10
85.8188
 20
99.8375
 30
0.0
 11
99.8181
 21
99.8375
 31
0.0
  0
LINE
  8
0
 62
     0
 10
99.8181
 20
99.8375
 30
0.0
 11
99.8181
 21
99.2382
 31
0.0
  0
LINE
  8
0
 62
     0
 10
99.8181
 20
99.2382
 30
0.0
 11
100.619
 21
99.2382
 31
0.0
  0
LINE
  8
0
 62
     0
 10
100.619
 20
99.2382
 30
0.0
 11
100.619
 21
86.4376
 31
0.0
  0
LINE
  8
0
 62
     0
 10
100.619
 20
86.4376
 30
0.0
 11
99.8181
 21
86.4376
 31
0.0
  0
LINE
  8
0
 62
     0
 10
104.582
 20
29.2874
 30
0.0
 11
104.582
 21
28.688
 31
0.0
  0
LINE
  8
0
 62
     0
 10
104.582
 20
28.688
 30
0.0
 11
90.5813
 21
28.688
 31
0.0
  0
LINE
  8
0
 62
     0
 10
90.5813
 20
28.688
 30
0.0
 11
90.5813
 21
29.2874
 31
0.0
  0
LINE
  8
0
 62
     0
 10
90.5813
 20
29.2874
 30
0.0
 11
89.7819
 21
29.2874
 31
0.0
  0
LINE
  8
0
 62
     0
 10
89.7819
 20
29.2874
 30
0.0
 11
89.7819
 21
42.0882
 31
0.0
  0
LINE
  8
0
 62
     0
 10
89.7819
 20
42.0882
 30
0.0
 11
90.5813
 21
42.0882
 31
0.0
  0
LINE
  8
0
 62
     0
 10
90.5813
 20
42.0882
 30
0.0
 11
90.5813
 21
42.6875
 31
0.0
  0
LINE
  8
0
 62
     0
 10
90.5813
 20
42.6875
 30
0.0
 11
104.582
 21
42.6875
 31
0.0
  0
LINE
  8
0
 62
     0
 10
104.582
 20
42.6875
 30
0.0
 11
104.582
 21
42.0882
 31
0.0
  0
LINE
  8
0
 62
     0
 10
104.582
 20
42.0882
 30
0.0
 11
105.381
 21
42.0882
 31
0.0
  0
LINE
  8
0
 62
     0
 10
105.381
 20
42.0882
 30
0.0
 11
105.381
 21
29.2874
 31
0.0
  0
LINE
  8
0
 62
     0
 10
105.381
 20
29.2874
 30
0.0
 11
104.582
 21
29.2874
 31
0.0
  0
LINE
  8
0
 62
     0
 10
109.343
 20
67.3876
 30
0.0
 11
109.343
 21
66.7879
 31
0.0
  0
LINE
  8
0
 62
     0
 10
109.343
 20
66.7879
 30
0.0
 11
95.3438
 21
66.7879
 31
0.0
  0
LINE
  8
0
 62
     0
 10
95.3438
 20
66.7879
 30
0.0
 11
95.3438
 21
67.3876
 31
0.0
  0
LINE
  8
0
 62
     0
 10
95.3438
 20
67.3876
 30
0.0
 11
94.543
 21
67.3876
 31
0.0
  0
LINE
  8
0
 62
     0
 10
94.543
 20
67.3876
 30
0.0
 11
94.543
 21
80.1882
 31
0.0
  0
LINE
  8
0
 62
     0
 10
94.543
 20
80.1882
 30
0.0
 11
95.3438
 21
80.1882
 31
0.0
  0
LINE
  8
0
 62
     0
 10
95.3438
 20
80.1882
 30
0.0
 11
95.3438
 21
80.7875
 31
0.0
  0
LINE
  8
0
 62
     0
 10
95.3438
 20
80.7875
 30
0.0
 11
109.343
 21
80.7875
 31
0.0
  0
LINE
  8
0
 62
     0
 10
109.343
 20
80.7875
 30
0.0
 11
109.343
 21
80.1882
 31
0.0
  0
LINE
  8
0
 62
     0
 10
109.343
 20
80.1882
 30
0.0
 11
110.144
 21
80.1882
 31
0.0
  0
LINE
  8
0
 62
     0
 10
110.144
 20
80.1882
 30
0.0
 11
110.144
 21
67.3876
 31
0.0
  0
LINE
  8
0
 62
     0
 10
110.144
 20
67.3876
 30
0.0
 11
109.343
 21
67.3876
 31
0.0
  0
LINE
  8
0
 62
     0
 10
114.106
 20
48.3376
 30
0.0
 11
114.106
 21
47.7379
 31
0.0
  0
LINE
  8
0
 62
     0
 10
114.106
 20
47.7379
 30
0.0
 11
100.106
 21
47.7379
 31
0.0
  0
LINE
  8
0
 62
     0
 10
100.106
 20
47.7379
 30
0.0
 11
100.106
 21
48.3376
 31
0.0
  0
LINE
  8
0
 62
     0
 10
100.106
 20
48.3376
 30
0.0
 11
99.3055
 21
48.3376
 31
0.0
  0
LINE
  8
0
 62
     0
 10
99.3055
 20
48.3376
 30
0.0
 11
99.3055
 21
61.1382
 31
0.0
  0
LINE
  8
0
 62
     0
 10
99.3055
 20
61.1382
 30
0.0
 11
100.106
 21
61.1382
 31
0.0
  0
LINE
  8
0
 62
     0
 10
100.106
 20
61.1382
 30
0.0
 11
100.106
 21
61.7375
 31
0.0
  0
LINE
  8
0
 62
     0
 10
100.106
 20
61.7375
 30
0.0
 11
114.106
 21
61.7375
 31
0.0
  0
LINE
  8
0
 62
     0
 10
114.106
 20
61.7375
 30
0.0
 11
114.106
 21
61.1382
 31
0.0
  0
LINE
  8
0
 62
     0
 10
114.106
 20
61.1382
 30
0.0
 11
114.906
 21
61.1382
 31
0.0
  0
LINE
  8
0
 62
     0
 10
114.906
 20
61.1382
 30
0.0
 11
114.906
 21
48.3376
 31
0.0
  0
LINE
  8
0
 62
     0
 10
114.906
 20
48.3376
 30
0.0
 11
114.106
 21
48.3376
 31
0.0
  0
LINE
  8
0
 62
     0
 10
118.868
 20
115.013
 30
0.0
 11
118.868
 21
114.413
 31
0.0
  0
LINE
  8
0
 62
     0
 10
118.868
 20
114.413
 30
0.0
 11
104.869
 21
114.413
 31
0.0
  0
LINE
  8
0
 62
     0
 10
104.869
 20
114.413
 30
0.0
 11
104.869
 21
115.013
 31
0.0
  0
LINE
  8
0
 62
     0
 10
104.869
 20
115.013
 30
0.0
 11
104.068
 21
115.013
 31
0.0
  0
LINE
  8
0
 62
     0
 10
104.068
 20
115.013
 30
0.0
 11
104.068
 21
127.813
 31
0.0
  0
LINE
  8
0
 62
     0
 10
104.068
 20
127.813
 30
0.0
 11
104.869
 21
127.813
 31
0.0
  0
LINE
  8
0
 62
     0
 10
104.869
 20
127.813
 30
0.0
 11
104.869
 21
128.413
 31
0.0
  0
LINE
  8
0
 62
     0
 10
104.869
 20
128.413
 30
0.0
 11
118.868
 21
128.413
 31
0.0
  0
LINE
  8
0
 62
     0
 10
118.868
 20
128.413
 30
0.0
 11
118.868
 21
127.813
 31
0.0
  0
LINE
  8
0
 62
     0
 10
118.868
 20
127.813
 30
0.0
 11
119.669
 21
127.813
 31
0.0
  0
LINE
  8
0
 62
     0
 10
119.669
 20
127.813
 30
0.0
 11
119.669
 21
115.013
 31
0.0
  0
LINE
  8
0
 62
     0
 10
119.669
 20
115.013
 30
0.0
 11
118.868
 21
115.013
 31
0.0
  0
LINE
  8
0
 62
     0
 10
118.868
 20
86.4376
 30
0.0
 11
118.868
 21
85.8379
 31
0.0
  0
LINE
  8
0
 62
     0
 10
118.868
 20
85.8379
 30
0.0
 11
104.869
 21
85.8379
 31
0.0
  0
LINE
  8
0
 62
     0
 10
104.869
 20
85.8379
 30
0.0
 11
104.869
 21
86.4376
 31
0.0
  0
LINE
  8
0
 62
     0
 10
104.869
 20
86.4376
 30
0.0
 11
104.068
 21
86.4376
 31
0.0
  0
LINE
  8
0
 62
     0
 10
104.068
 20
86.4376
 30
0.0
 11
104.068
 21
99.2382
 31
0.0
  0
LINE
  8
0
 62
     0
 10
104.068
 20
99.2382
 30
0.0
 11
104.869
 21
99.2382
 31
0.0
  0
LINE
  8
0
 62
     0
 10
104.869
 20
99.2382
 30
0.0
 11
104.869
 21
99.8375
 31
0.0
  0
LINE
  8
0
 62
     0
 10
104.869
 20
99.8375
 30
0.0
 11
118.868
 21
99.8375
 31
0.0
  0
LINE
  8
0
 62
     0
 10
118.868
 20
99.8375
 30
0.0
 11
118.868
 21
99.2382
 31
0.0
  0
LINE
  8
0
 62
     0
 10
118.868
 20
99.2382
 30
0.0
 11
119.669
 21
99.2382
 31
0.0
  0
LINE
  8
0
 62
     0
 10
119.669
 20
99.2382
 30
0.0
 11
119.669
 21
86.4376
 31
0.0
  0
LINE
  8
0
 62
     0
 10
119.669
 20
86.4376
 30
0.0
 11
118.868
 21
86.4376
 31
0.0
  0
LINE
  8
0
 62
     0
 10
123.632
 20
29.2874
 30
0.0
 11
123.632
 21
28.688
 31
0.0
  0
LINE
  8
0
 62
     0
 10
123.632
 20
28.688
 30
0.0
 11
109.631
 21
28.688
 31
0.0
  0
LINE
  8
0
 62
     0
 10
109.631
 20
28.688
 30
0.0
 11
109.631
 21
29.2874
 31
0.0
  0
LINE
  8
0
 62
     0
 10
109.631
 20
29.2874
 30
0.0
 11
108.832
 21
29.2874
 31
0.0
  0
LINE
  8
0
 62
     0
 10
108.832
 20
29.2874
 30
0.0
 11
108.832
 21
42.0882
 31
0.0
  0
LINE
  8
0
 62
     0
 10
108.832
 20
42.0882
 30
0.0
 11
109.631
 21
42.0882
 31
0.0
  0
LINE
  8
0
 62
     0
 10
109.631
 20
42.0882
 30
0.0
 11
109.631
 21
42.6875
 31
0.0
  0
LINE
  8
0
 62
     0
 10
109.631
 20
42.6875
 30
0.0
 11
123.632
 21
42.6875
 31
0.0
  0
LINE
  8
0
 62
     0
 10
123.632
 20
42.6875
 30
0.0
 11
123.632
 21
42.0882
 31
0.0
  0
LINE
  8
0
 62
     0
 10
123.632
 20
42.0882
 30
0.0
 11
124.431
 21
42.0882
 31
0.0
  0
LINE
  8
0
 62
     0
 10
124.431
 20
42.0882
 30
0.0
 11
124.431
 21
29.2874
 31
0.0
  0
LINE
  8
0
 62
     0
 10
124.431
 20
29.2874
 30
0.0
 11
123.632
 21
29.2874
 31
0.0
  0
LINE
  8
0
 62
     0
 10
128.393
 20
67.3876
 30
0.0
 11
128.393
 21
66.7879
 31
0.0
  0
LINE
  8
0
 62
     0
 10
128.393
 20
66.7879
 30
0.0
 11
114.394
 21
66.7879
 31
0.0
  0
LINE
  8
0
 62
     0
 10
114.394
 20
66.7879
 30
0.0
 11
114.394
 21
67.3876
 31
0.0
  0
LINE
  8
0
 62
     0
 10
114.394
 20
67.3876
 30
0.0
 11
113.593
 21
67.3876
 31
0.0
  0
LINE
  8
0
 62
     0
 10
113.593
 20
67.3876
 30
0.0
 11
113.593
 21
80.1882
 31
0.0
  0
LINE
  8
0
 62
     0
 10
113.593
 20
80.1882
 30
0.0
 11
114.394
 21
80.1882
 31
0.0
  0
LINE
  8
0
 62
     0
 10
114.394
 20
80.1882
 30
0.0
 11
114.394
 21
80.7875
 31
0.0
  0
LINE
  8
0
 62
     0
 10
114.394
 20
80.7875
 30
0.0
 11
128.393
 21
80.7875
 31
0.0
  0
LINE
  8
0
 62
     0
 10
128.393
 20
80.7875
 30
0.0
 11
128.393
 21
80.1882
 31
0.0
  0
LINE
  8
0
 62
     0
 10
128.393
 20
80.1882
 30
0.0
 11
129.194
 21
80.1882
 31
0.0
  0
LINE
  8
0
 62
     0
 10
129.194
 20
80.1882
 30
0.0
 11
129.194
 21
67.3876
 31
0.0
  0
LINE
  8
0
 62
     0
 10
129.194
 20
67.3876
 30
0.0
 11
128.393
 21
67.3876
 31
0.0
  0
LINE
  8
0
 62
     0
 10
133.156
 20
48.3376
 30
0.0
 11
133.156
 21
47.7379
 31
0.0
  0
LINE
  8
0
 62
     0
 10
133.156
 20
47.7379
 30
0.0
 11
119.156
 21
47.7379
 31
0.0
  0
LINE
  8
0
 62
     0
 10
119.156
 20
47.7379
 30
0.0
 11
119.156
 21
48.3376
 31
0.0
  0
LINE
  8
0
 62
     0
 10
119.156
 20
48.3376
 30
0.0
 11
118.357
 21
48.3376
 31
0.0
  0
LINE
  8
0
 62
     0
 10
118.357
 20
48.3376
 30
0.0
 11
118.357
 21
61.1382
 31
0.0
  0
LINE
  8
0
 62
     0
 10
118.357
 20
61.1382
 30
0.0
 11
119.156
 21
61.1382
 31
0.0
  0
LINE
  8
0
 62
     0
 10
119.156
 20
61.1382
 30
0.0
 11
119.156
 21
61.7375
 31
0.0
  0
LINE
  8
0
 62
     0
 10
119.156
 20
61.7375
 30
0.0
 11
133.156
 21
61.7375
 31
0.0
  0
LINE
  8
0
 62
     0
 10
133.156
 20
61.7375
 30
0.0
 11
133.156
 21
61.1382
 31
0.0
  0
LINE
  8
0
 62
     0
 10
133.156
 20
61.1382
 30
0.0
 11
133.956
 21
61.1382
 31
0.0
  0
LINE
  8
0
 62
     0
 10
133.956
 20
61.1382
 30
0.0
 11
133.956
 21
48.3376
 31
0.0
  0
LINE
  8
0
 62
     0
 10
133.956
 20
48.3376
 30
0.0
 11
133.156
 21
48.3376
 31
0.0
  0
LINE
  8
0
 62
     0
 10
137.918
 20
86.4376
 30
0.0
 11
137.918
 21
85.8379
 31
0.0
  0
LINE
  8
0
 62
     0
 10
137.918
 20
85.8379
 30
0.0
 11
123.919
 21
85.8379
 31
0.0
  0
LINE
  8
0
 62
     0
 10
123.919
 20
85.8379
 30
0.0
 11
123.919
 21
86.4376
 31
0.0
  0
LINE
  8
0
 62
     0
 10
123.919
 20
86.4376
 30
0.0
 11
123.118
 21
86.4376
 31
0.0
  0
LINE
  8
0
 62
     0
 10
123.118
 20
86.4376
 30
0.0
 11
123.118
 21
99.2382
 31
0.0
  0
LINE
  8
0
 62
     0
 10
123.118
 20
99.2382
 30
0.0
 11
123.919
 21
99.2382
 31
0.0
  0
LINE
  8
0
 62
     0
 10
123.919
 20
99.2382
 30
0.0
 11
123.919
 21
99.8375
 31
0.0
  0
LINE
  8
0
 62
     0
 10
123.919
 20
99.8375
 30
0.0
 11
137.918
 21
99.8375
 31
0.0
  0
LINE
  8
0
 62
     0
 10
137.918
 20
99.8375
 30
0.0
 11
137.918
 21
99.2382
 31
0.0
  0
LINE
  8
0
 62
     0
 10
137.918
 20
99.2382
 30
0.0
 11
138.719
 21
99.2382
 31
0.0
  0
LINE
  8
0
 62
     0
 10
138.719
 20
99.2382
 30
0.0
 11
138.719
 21
86.4376
 31
0.0
  0
LINE
  8
0
 62
     0
 10
138.719
 20
86.4376
 30
0.0
 11
137.918
 21
86.4376
 31
0.0
  0
LINE
  8
0
 62
     0
 10
142.682
 20
29.2874
 30
0.0
 11
142.682
 21
28.688
 31
0.0
  0
LINE
  8
0
 62
     0
 10
142.682
 20
28.688
 30
0.0
 11
128.681
 21
28.688
 31
0.0
  0
LINE
  8
0
 62
     0
 10
128.681
 20
28.688
 30
0.0
 11
128.681
 21
29.2874
 31
0.0
  0
LINE
  8
0
 62
     0
 10
128.681
 20
29.2874
 30
0.0
 11
127.881
 21
29.2874
 31
0.0
  0
LINE
  8
0
 62
     0
 10
127.881
 20
29.2874
 30
0.0
 11
127.881
 21
42.0882
 31
0.0
  0
LINE
  8
0
 62
     0
 10
127.881
 20
42.0882
 30
0.0
 11
128.681
 21
42.0882
 31
0.0
  0
LINE
  8
0
 62
     0
 10
128.681
 20
42.0882
 30
0.0
 11
128.681
 21
42.6875
 31
0.0
  0
LINE
  8
0
 62
     0
 10
128.681
 20
42.6875
 30
0.0
 11
142.682
 21
42.6875
 31
0.0
  0
LINE
  8
0
 62
     0
 10
142.682
 20
42.6875
 30
0.0
 11
142.682
 21
42.0882
 31
0.0
  0
LINE
  8
0
 62
     0
 10
142.682
 20
42.0882
 30
0.0
 11
143.481
 21
42.0882
 31
0.0
  0
LINE
  8
0
 62
     0
 10
143.481
 20
42.0882
 30
0.0
 11
143.481
 21
29.2874
 31
0.0
  0
LINE
  8
0
 62
     0
 10
143.481
 20
29.2874
 30
0.0
 11
142.682
 21
29.2874
 31
0.0
  0
LINE
  8
0
 62
     0
 10
147.443
 20
115.013
 30
0.0
 11
147.443
 21
114.413
 31
0.0
  0
LINE
  8
0
 62
     0
 10
147.443
 20
114.413
 30
0.0
 11
133.444
 21
114.413
 31
0.0
  0
LINE
  8
0
 62
     0
 10
133.444
 20
114.413
 30
0.0
 11
133.444
 21
115.013
 31
0.0
  0
LINE
  8
0
 62
     0
 10
133.444
 20
115.013
 30
0.0
 11
132.643
 21
115.013
 31
0.0
  0
LINE
  8
0
 62
     0
 10
132.643
 20
115.013
 30
0.0
 11
132.643
 21
127.813
 31
0.0
  0
LINE
  8
0
 62
     0
 10
132.643
 20
127.813
 30
0.0
 11
133.444
 21
127.813
 31
0.0
  0
LINE
  8
0
 62
     0
 10
133.444
 20
127.813
 30
0.0
 11
133.444
 21
128.413
 31
0.0
  0
LINE
  8
0
 62
     0
 10
133.444
 20
128.413
 30
0.0
 11
147.443
 21
128.413
 31
0.0
  0
LINE
  8
0
 62
     0
 10
147.443
 20
128.413
 30
0.0
 11
147.443
 21
127.813
 31
0.0
  0
LINE
  8
0
 62
     0
 10
147.443
 20
127.813
 30
0.0
 11
148.244
 21
127.813
 31
0.0
  0
LINE
  8
0
 62
     0
 10
148.244
 20
127.813
 30
0.0
 11
148.244
 21
115.013
 31
0.0
  0
LINE
  8
0
 62
     0
 10
148.244
 20
115.013
 30
0.0
 11
147.443
 21
115.013
 31
0.0
  0
LINE
  8
0
 62
     0
 10
147.443
 20
67.3876
 30
0.0
 11
147.443
 21
66.7879
 31
0.0
  0
LINE
  8
0
 62
     0
 10
147.443
 20
66.7879
 30
0.0
 11
133.444
 21
66.7879
 31
0.0
  0
LINE
  8
0
 62
     0
 10
133.444
 20
66.7879
 30
0.0
 11
133.444
 21
67.3876
 31
0.0
  0
LINE
  8
0
 62
     0
 10
133.444
 20
67.3876
 30
0.0
 11
132.643
 21
67.3876
 31
0.0
  0
LINE
  8
0
 62
     0
 10
132.643
 20
67.3876
 30
0.0
 11
132.643
 21
80.1882
 31
0.0
  0
LINE
  8
0
 62
     0
 10
132.643
 20
80.1882
 30
0.0
 11
133.444
 21
80.1882
 31
0.0
  0
LINE
  8
0
 62
     0
 10
133.444
 20
80.1882
 30
0.0
 11
133.444
 21
80.7875
 31
0.0
  0
LINE
  8
0
 62
     0
 10
133.444
 20
80.7875
 30
0.0
 11
147.443
 21
80.7875
 31
0.0
  0
LINE
  8
0
 62
     0
 10
147.443
 20
80.7875
 30
0.0
 11
147.443
 21
80.1882
 31
0.0
  0
LINE
  8
0
 62
     0
 10
147.443
 20
80.1882
 30
0.0
 11
148.244
 21
80.1882
 31
0.0
  0
LINE
  8
0
 62
     0
 10
148.244
 20
80.1882
 30
0.0
 11
148.244
 21
67.3876
 31
0.0
  0
LINE
  8
0
 62
     0
 10
148.244
 20
67.3876
 30
0.0
 11
147.443
 21
67.3876
 31
0.0
  0
LINE
  8
0
 62
     0
 10
152.207
 20
48.3376
 30
0.0
 11
152.207
 21
47.7379
 31
0.0
  0
LINE
  8
0
 62
     0
 10
152.207
 20
47.7379
 30
0.0
 11
138.206
 21
47.7379
 31
0.0
  0
LINE
  8
0
 62
     0
 10
138.206
 20
47.7379
 30
0.0
 11
138.206
 21
48.3376
 31
0.0
  0
LINE
  8
0
 62
     0
 10
138.206
 20
48.3376
 30
0.0
 11
137.406
 21
48.3376
 31
0.0
  0
LINE
  8
0
 62
     0
 10
137.406
 20
48.3376
 30
0.0
 11
137.406
 21
61.1382
 31
0.0
  0
LINE
  8
0
 62
     0
 10
137.406
 20
61.1382
 30
0.0
 11
138.206
 21
61.1382
 31
0.0
  0
LINE
  8
0
 62
     0
 10
138.206
 20
61.1382
 30
0.0
 11
138.206
 21
61.7375
 31
0.0
  0
LINE
  8
0
 62
     0
 10
138.206
 20
61.7375
 30
0.0
 11
152.207
 21
61.7375
 31
0.0
  0
LINE
  8
0
 62
     0
 10
152.207
 20
61.7375
 30
0.0
 11
152.207
 21
61.1382
 31
0.0
  0
LINE
  8
0
 62
     0
 10
152.207
 20
61.1382
 30
0.0
 11
153.006
 21
61.1382
 31
0.0
  0
LINE
  8
0
 62
     0
 10
153.006
 20
61.1382
 30
0.0
 11
153.006
 21
48.3376
 31
0.0
  0
LINE
  8
0
 62
     0
 10
153.006
 20
48.3376
 30
0.0
 11
152.207
 21
48.3376
 31
0.0
  0
LINE
  8
0
 62
     0
 10
156.968
 20
86.4376
 30
0.0
 11
156.968
 21
85.8379
 31
0.0
  0
LINE
  8
0
 62
     0
 10
156.968
 20
85.8379
 30
0.0
 11
142.969
 21
85.8379
 31
0.0
  0
LINE
  8
0
 62
     0
 10
142.969
 20
85.8379
 30
0.0
 11
142.969
 21
86.4376
 31
0.0
  0
LINE
  8
0
 62
     0
 10
142.969
 20
86.4376
 30
0.0
 11
142.168
 21
86.4376
 31
0.0
  0
LINE
  8
0
 62
     0
 10
142.168
 20
86.4376
 30
0.0
 11
142.168
 21
99.2382
 31
0.0
  0
LINE
  8
0
 62
     0
 10
142.168
 20
99.2382
 30
0.0
 11
142.969
 21
99.2382
 31
0.0
  0
LINE
  8
0
 62
     0
 10
142.969
 20
99.2382
 30
0.0
 11
142.969
 21
99.8375
 31
0.0
  0
LINE
  8
0
 62
     0
 10
142.969
 20
99.8375
 30
0.0
 11
156.968
 21
99.8375
 31
0.0
  0
LINE
  8
0
 62
     0
 10
156.968
 20
99.8375
 30
0.0
 11
156.968
 21
99.2382
 31
0.0
  0
LINE
  8
0
 62
     0
 10
156.968
 20
99.2382
 30
0.0
 11
157.769
 21
99.2382
 31
0.0
  0
LINE
  8
0
 62
     0
 10
157.769
 20
99.2382
 30
0.0
 11
157.769
 21
86.4376
 31
0.0
  0
LINE
  8
0
 62
     0
 10
157.769
 20
86.4376
 30
0.0
 11
156.968
 21
86.4376
 31
0.0
  0
LINE
  8
0
 62
     0
 10
161.732
 20
29.2874
 30
0.0
 11
161.732
 21
28.688
 31
0.0
  0
LINE
  8
0
 62
     0
 10
161.732
 20
28.688
 30
0.0
 11
147.731
 21
28.688
 31
0.0
  0
LINE
  8
0
 62
     0
 10
147.731
 20
28.688
 30
0.0
 11
147.731
 21
29.2874
 31
0.0
  0
LINE
  8
0
 62
     0
 10
147.731
 20
29.2874
 30
0.0
 11
146.932
 21
29.2874
 31
0.0
  0
LINE
  8
0
 62
     0
 10
146.932
 20
29.2874
 30
0.0
 11
146.932
 21
42.0882
 31
0.0
  0
LINE
  8
0
 62
     0
 10
146.932
 20
42.0882
 30
0.0
 11
147.731
 21
42.0882
 31
0.0
  0
LINE
  8
0
 62
     0
 10
147.731
 20
42.0882
 30
0.0
 11
147.731
 21
42.6875
 31
0.0
  0
LINE
  8
0
 62
     0
 10
147.731
 20
42.6875
 30
0.0
 11
161.732
 21
42.6875
 31
0.0
  0
LINE
  8
0
 62
     0
 10
161.732
 20
42.6875
 30
0.0
 11
161.732
 21
42.0882
 31
0.0
  0
LINE
  8
0
 62
     0
 10
161.732
 20
42.0882
 30
0.0
 11
162.531
 21
42.0882
 31
0.0
  0
LINE
  8
0
 62
     0
 10
162.531
 20
42.0882
 30
0.0
 11
162.531
 21
29.2874
 31
0.0
  0
LINE
  8
0
 62
     0
 10
162.531
 20
29.2874
 30
0.0
 11
161.732
 21
29.2874
 31
0.0
  0
LINE
  8
0
 62
     0
 10
166.493
 20
115.013
 30
0.0
 11
166.493
 21
114.413
 31
0.0
  0
LINE
  8
0
 62
     0
 10
166.493
 20
114.413
 30
0.0
 11
152.494
 21
114.413
 31
0.0
  0
LINE
  8
0
 62
     0
 10
152.494
 20
114.413
 30
0.0
 11
152.494
 21
115.013
 31
0.0
  0
LINE
  8
0
 62
     0
 10
152.494
 20
115.013
 30
0.0
 11
151.693
 21
115.013
 31
0.0
  0
LINE
  8
0
 62
     0
 10
151.693
 20
115.013
 30
0.0
 11
151.693
 21
127.813
 31
0.0
  0
LINE
  8
0
 62
     0
 10
151.693
 20
127.813
 30
0.0
 11
152.494
 21
127.813
 31
0.0
  0
LINE
  8
0
 62
     0
 10
152.494
 20
127.813
 30
0.0
 11
152.494
 21
128.413
 31
0.0
  0
LINE
  8
0
 62
     0
 10
152.494
 20
128.413
 30
0.0
 11
166.493
 21
128.413
 31
0.0
  0
LINE
  8
0
 62
     0
 10
166.493
 20
128.413
 30
0.0
 11
166.493
 21
127.813
 31
0.0
  0
LINE
  8
0
 62
     0
 10
166.493
 20
127.813
 30
0.0
 11
167.294
 21
127.813
 31
0.0
  0
LINE
  8
0
 62
     0
 10
167.294
 20
127.813
 30
0.0
 11
167.294
 21
115.013
 31
0.0
  0
LINE
  8
0
 62
     0
 10
167.294
 20
115.013
 30
0.0
 11
166.493
 21
115.013
 31
0.0
  0
LINE
  8
0
 62
     0
 10
166.493
 20
67.3876
 30
0.0
 11
166.493
 21
66.7879
 31
0.0
  0
LINE
  8
0
 62
     0
 10
166.493
 20
66.7879
 30
0.0
 11
152.494
 21
66.7879
 31
0.0
  0
LINE
  8
0
 62
     0
 10
152.494
 20
66.7879
 30
0.0
 11
152.494
 21
67.3876
 31
0.0
  0
LINE
  8
0
 62
     0
 10
152.494
 20
67.3876
 30
0.0
 11
151.693
 21
67.3876
 31
0.0
  0
LINE
  8
0
 62
     0
 10
151.693
 20
67.3876
 30
0.0
 11
151.693
 21
80.1882
 31
0.0
  0
LINE
  8
0
 62
     0
 10
151.693
 20
80.1882
 30
0.0
 11
152.494
 21
80.1882
 31
0.0
  0
LINE
  8
0
 62
     0
 10
152.494
 20
80.1882
 30
0.0
 11
152.494
 21
80.7875
 31
0.0
  0
LINE
  8
0
 62
     0
 10
152.494
 20
80.7875
 30
0.0
 11
166.493
 21
80.7875
 31
0.0
  0
LINE
  8
0
 62
     0
 10
166.493
 20
80.7875
 30
0.0
 11
166.493
 21
80.1882
 31
0.0
  0
LINE
  8
0
 62
     0
 10
166.493
 20
80.1882
 30
0.0
 11
167.294
 21
80.1882
 31
0.0
  0
LINE
  8
0
 62
     0
 10
167.294
 20
80.1882
 30
0.0
 11
167.294
 21
67.3876
 31
0.0
  0
LINE
  8
0
 62
     0
 10
167.294
 20
67.3876
 30
0.0
 11
166.493
 21
67.3876
 31
0.0
  0
LINE
  8
0
 62
     0
 10
171.257
 20
48.3376
 30
0.0
 11
171.257
 21
47.7379
 31
0.0
  0
LINE
  8
0
 62
     0
 10
171.257
 20
47.7379
 30
0.0
 11
157.256
 21
47.7379
 31
0.0
  0
LINE
  8
0
 62
     0
 10
157.256
 20
47.7379
 30
0.0
 11
157.256
 21
48.3376
 31
0.0
  0
LINE
  8
0
 62
     0
 10
157.256
 20
48.3376
 30
0.0
 11
156.457
 21
48.3376
 31
0.0
  0
LINE
  8
0
 62
     0
 10
156.457
 20
48.3376
 30
0.0
 11
156.457
 21
61.1382
 31
0.0
  0
LINE
  8
0
 62
     0
 10
156.457
 20
61.1382
 30
0.0
 11
157.256
 21
61.1382
 31
0.0
  0
LINE
  8
0
 62
     0
 10
157.256
 20
61.1382
 30
0.0
 11
157.256
 21
61.7375
 31
0.0
  0
LINE
  8
0
 62
     0
 10
157.256
 20
61.7375
 30
0.0
 11
171.257
 21
61.7375
 31
0.0
  0
LINE
  8
0
 62
     0
 10
171.257
 20
61.7375
 30
0.0
 11
171.257
 21
61.1382
 31
0.0
  0
LINE
  8
0
 62
     0
 10
171.257
 20
61.1382
 30
0.0
 11
172.056
 21
61.1382
 31
0.0
  0
LINE
  8
0
 62
     0
 10
172.056
 20
61.1382
 30
0.0
 11
172.056
 21
48.3376
 31
0.0
  0
LINE
  8
0
 62
     0
 10
172.056
 20
48.3376
 30
0.0
 11
171.257
 21
48.3376
 31
0.0
  0
LINE
  8
0
 62
     0
 10
176.018
 20
86.4376
 30
0.0
 11
176.018
 21
85.8379
 31
0.0
  0
LINE
  8
0
 62
     0
 10
176.018
 20
85.8379
 30
0.0
 11
162.019
 21
85.8379
 31
0.0
  0
LINE
  8
0
 62
     0
 10
162.019
 20
85.8379
 30
0.0
 11
162.019
 21
86.4376
 31
0.0
  0
LINE
  8
0
 62
     0
 10
162.019
 20
86.4376
 30
0.0
 11
161.218
 21
86.4376
 31
0.0
  0
LINE
  8
0
 62
     0
 10
161.218
 20
86.4376
 30
0.0
 11
161.218
 21
99.2382
 31
0.0
  0
LINE
  8
0
 62
     0
 10
161.218
 20
99.2382
 30
0.0
 11
162.019
 21
99.2382
 31
0.0
  0
LINE
  8
0
 62
     0
 10
162.019
 20
99.2382
 30
0.0
 11
162.019
 21
99.8375
 31
0.0
  0
LINE
  8
0
 62
     0
 10
162.019
 20
99.8375
 30
0.0
 11
176.018
 21
99.8375
 31
0.0
  0
LINE
  8
0
 62
     0
 10
176.018
 20
99.8375
 30
0.0
 11
176.018
 21
99.2382
 31
0.0
  0
LINE
  8
0
 62
     0
 10
176.018
 20
99.2382
 30
0.0
 11
176.819
 21
99.2382
 31
0.0
  0
LINE
  8
0
 62
     0
 10
176.819
 20
99.2382
 30
0.0
 11
176.819
 21
86.4376
 31
0.0
  0
LINE
  8
0
 62
     0
 10
176.819
 20
86.4376
 30
0.0
 11
176.018
 21
86.4376
 31
0.0
  0
LINE
  8
0
 62
     0
 10
180.782
 20
29.2874
 30
0.0
 11
180.782
 21
28.688
 31
0.0
  0
LINE
  8
0
 62
     0
 10
180.782
 20
28.688
 30
0.0
 11
166.781
 21
28.688
 31
0.0
  0
LINE
  8
0
 62
     0
 10
166.781
 20
28.688
 30
0.0
 11
166.781
 21
29.2874
 31
0.0
  0
LINE
  8
0
 62
     0
 10
166.781
 20
29.2874
 30
0.0
 11
165.982
 21
29.2874
 31
0.0
  0
LINE
  8
0
 62
     0
 10
165.982
 20
29.2874
 30
0.0
 11
165.982
 21
42.0882
 31
0.0
  0
LINE
  8
0
 62
     0
 10
165.982
 20
42.0882
 30
0.0
 11
166.781
 21
42.0882
 31
0.0
  0
LINE
  8
0
 62
     0
 10
166.781
 20
42.0882
 30
0.0
 11
166.781
 21
42.6875
 31
0.0
  0
LINE
  8
0
 62
     0
 10
166.781
 20
42.6875
 30
0.0
 11
180.782
 21
42.6875
 31
0.0
  0
LINE
  8
0
 62
     0
 10
180.782
 20
42.6875
 30
0.0
 11
180.782
 21
42.0882
 31
0.0
  0
LINE
  8
0
 62
     0
 10
180.782
 20
42.0882
 30
0.0
 11
181.581
 21
42.0882
 31
0.0
  0
LINE
  8
0
 62
     0
 10
181.581
 20
42.0882
 30
0.0
 11
181.581
 21
29.2874
 31
0.0
  0
LINE
  8
0
 62
     0
 10
181.581
 20
29.2874
 30
0.0
 11
180.782
 21
29.2874
 31
0.0
  0
LINE
  8
0
 62
     0
 10
185.543
 20
115.013
 30
0.0
 11
185.543
 21
114.413
 31
0.0
  0
LINE
  8
0
 62
     0
 10
185.543
 20
114.413
 30
0.0
 11
171.544
 21
114.413
 31
0.0
  0
LINE
  8
0
 62
     0
 10
171.544
 20
114.413
 30
0.0
 11
171.544
 21
115.013
 31
0.0
  0
LINE
  8
0
 62
     0
 10
171.544
 20
115.013
 30
0.0
 11
170.743
 21
115.013
 31
0.0
  0
LINE
  8
0
 62
     0
 10
170.743
 20
115.013
 30
0.0
 11
170.743
 21
127.813
 31
0.0
  0
LINE
  8
0
 62
     0
 10
170.743
 20
127.813
 30
0.0
 11
171.544
 21
127.813
 31
0.0
  0
LINE
  8
0
 62
     0
 10
171.544
 20
127.813
 30
0.0
 11
171.544
 21
128.413
 31
0.0
  0
LINE
  8
0
 62
     0
 10
171.544
 20
128.413
 30
0.0
 11
185.543
 21
128.413
 31
0.0
  0
LINE
  8
0
 62
     0
 10
185.543
 20
128.413
 30
0.0
 11
185.543
 21
127.813
 31
0.0
  0
LINE
  8
0
 62
     0
 10
185.543
 20
127.813
 30
0.0
 11
186.344
 21
127.813
 31
0.0
  0
LINE
  8
0
 62
     0
 10
186.344
 20
127.813
 30
0.0
 11
186.344
 21
115.013
 31
0.0
  0
LINE
  8
0
 62
     0
 10
186.344
 20
115.013
 30
0.0
 11
185.543
 21
115.013
 31
0.0
  0
LINE
  8
0
 62
     0
 10
185.543
 20
67.3876
 30
0.0
 11
185.543
 21
66.7879
 31
0.0
  0
LINE
  8
0
 62
     0
 10
185.543
 20
66.7879
 30
0.0
 11
171.544
 21
66.7879
 31
0.0
  0
LINE
  8
0
 62
     0
 10
171.544
 20
66.7879
 30
0.0
 11
171.544
 21
67.3876
 31
0.0
  0
LINE
  8
0
 62
     0
 10
171.544
 20
67.3876
 30
0.0
 11
170.743
 21
67.3876
 31
0.0
  0
LINE
  8
0
 62
     0
 10
170.743
 20
67.3876
 30
0.0
 11
170.743
 21
80.1882
 31
0.0
  0
LINE
  8
0
 62
     0
 10
170.743
 20
80.1882
 30
0.0
 11
171.544
 21
80.1882
 31
0.0
  0
LINE
  8
0
 62
     0
 10
171.544
 20
80.1882
 30
0.0
 11
171.544
 21
80.7875
 31
0.0
  0
LINE
  8
0
 62
     0
 10
171.544
 20
80.7875
 30
0.0
 11
185.543
 21
80.7875
 31
0.0
  0
LINE
  8
0
 62
     0
 10
185.543
 20
80.7875
 30
0.0
 11
185.543
 21
80.1882
 31
0.0
  0
LINE
  8
0
 62
     0
 10
185.543
 20
80.1882
 30
0.0
 11
186.344
 21
80.1882
 31
0.0
  0
LINE
  8
0
 62
     0
 10
186.344
 20
80.1882
 30
0.0
 11
186.344
 21
67.3876
 31
0.0
  0
LINE
  8
0
 62
     0
 10
186.344
 20
67.3876
 30
0.0
 11
185.543
 21
67.3876
 31
0.0
  0
LINE
  8
0
 62
     0
 10
190.307
 20
48.3376
 30
0.0
 11
190.307
 21
47.7379
 31
0.0
  0
LINE
  8
0
 62
     0
 10
190.307
 20
47.7379
 30
0.0
 11
176.306
 21
47.7379
 31
0.0
  0
LINE
  8
0
 62
     0
 10
176.306
 20
47.7379
 30
0.0
 11
176.306
 21
48.3376
 31
0.0
  0
LINE
  8
0
 62
     0
 10
176.306
 20
48.3376
 30
0.0
 11
175.507
 21
48.3376
 31
0.0
  0
LINE
  8
0
 62
     0
 10
175.507
 20
48.3376
 30
0.0
 11
175.507
 21
61.1382
 31
0.0
  0
LINE
  8
0
 62
     0
 10
175.507
 20
61.1382
 30
0.0
 11
176.306
 21
61.1382
 31
0.0
  0
LINE
  8
0
 62
     0
 10
176.306
 20
61.1382
 30
0.0
 11
176.306
 21
61.7375
 31
0.0
  0
LINE
  8
0
 62
     0
 10
176.306
 20
61.7375
 30
0.0
 11
190.307
 21
61.7375
 31
0.0
  0
LINE
  8
0
 62
     0
 10
190.307
 20
61.7375
 30
0.0
 11
190.307
 21
61.1382
 31
0.0
  0
LINE
  8
0
 62
     0
 10
190.307
 20
61.1382
 30
0.0
 11
191.106
 21
61.1382
 31
0.0
  0
LINE
  8
0
 62
     0
 10
191.106
 20
61.1382
 30
0.0
 11
191.106
 21
48.3376
 31
0.0
  0
LINE
  8
0
 62
     0
 10
191.106
 20
48.3376
 30
0.0
 11
190.307
 21
48.3376
 31
0.0
  0
LINE
  8
0
 62
     0
 10
191.388
 20
16.1368
 30
0.0
 11
191.388
 21
9.86815
 31
0.0
  0
LINE
  8
0
 62
     0
 10
191.388
 20
9.86815
 30
0.0
 11
189.713
 21
9.86815
 31
0.0
  0
LINE
  8
0
 62
     0
 10
189.713
 20
9.86815
 30
0.0
 11
189.713
 21
8.88697
 31
0.0
  0
LINE
  8
0
 62
     0
 10
189.713
 20
8.88697
 30
0.0
 11
186.413
 21
8.88697
 31
0.0
  0
LINE
  8
0
 62
     0
 10
186.413
 20
8.88697
 30
0.0
 11
186.413
 21
9.86815
 31
0.0
  0
LINE
  8
0
 62
     0
 10
186.413
 20
9.86815
 30
0.0
 11
184.738
 21
9.86815
 31
0.0
  0
LINE
  8
0
 62
     0
 10
184.738
 20
9.86815
 30
0.0
 11
184.738
 21
14.3371
 31
0.0
  0
LINE
  8
0
 62
     0
 10
184.738
 20
14.3371
 30
0.0
 11
145.863
 21
14.3371
 31
0.0
  0
LINE
  8
0
 62
     0
 10
145.863
 20
14.3371
 30
0.0
 11
145.863
 21
10.2374
 31
0.0
  0
LINE
  8
0
 62
     0
 10
145.863
 20
10.2374
 30
0.0
 11
145.063
 21
10.2374
 31
0.0
  0
LINE
  8
0
 62
     0
 10
145.063
 20
10.2374
 30
0.0
 11
145.063
 21
9.63799
 31
0.0
  0
LINE
  8
0
 62
     0
 10
145.063
 20
9.63799
 30
0.0
 11
131.063
 21
9.63799
 31
0.0
  0
LINE
  8
0
 62
     0
 10
131.063
 20
9.63799
 30
0.0
 11
131.063
 21
10.2374
 31
0.0
  0
LINE
  8
0
 62
     0
 10
131.063
 20
10.2374
 30
0.0
 11
130.263
 21
10.2374
 31
0.0
  0
LINE
  8
0
 62
     0
 10
130.263
 20
10.2374
 30
0.0
 11
130.263
 21
14.3371
 31
0.0
  0
LINE
  8
0
 62
     0
 10
130.263
 20
14.3371
 30
0.0
 11
91.3874
 21
14.3371
 31
0.0
  0
LINE
  8
0
 62
     0
 10
91.3874
 20
14.3371
 30
0.0
 11
91.3874
 21
9.86815
 31
0.0
  0
LINE
  8
0
 62
     0
 10
91.3874
 20
9.86815
 30
0.0
 11
89.7132
 21
9.86815
 31
0.0
  0
LINE
  8
0
 62
     0
 10
89.7132
 20
9.86815
 30
0.0
 11
89.7132
 21
8.88697
 31
0.0
  0
LINE
  8
0
 62
     0
 10
89.7132
 20
8.88697
 30
0.0
 11
86.4126
 21
8.88697
 31
0.0
  0
LINE
  8
0
 62
     0
 10
86.4126
 20
8.88697
 30
0.0
 11
86.4126
 21
9.86815
 31
0.0
  0
LINE
  8
0
 62
     0
 10
86.4126
 20
9.86815
 30
0.0
 11
84.7383
 21
9.86815
 31
0.0
  0
LINE
  8
0
 62
     0
 10
84.7383
 20
9.86815
 30
0.0
 11
84.7383
 21
16.1368
 31
0.0
  0
LINE
  8
0
 62
     0
 10
84.7383
 20
16.1368
 30
0.0
 11
83.8634
 21
16.1368
 31
0.0
  0
LINE
  8
0
 62
     0
 10
83.8634
 20
16.1368
 30
0.0
 11
83.8634
 21
18.937
 31
0.0
  0
LINE
  8
0
 62
     0
 10
83.8634
 20
18.937
 30
0.0
 11
84.7383
 21
18.937
 31
0.0
  0
LINE
  8
0
 62
     0
 10
84.7383
 20
18.937
 30
0.0
 11
84.7383
 21
22.1671
 31
0.0
  0
LINE
  8
0
 62
     0
 10
84.7383
 20
22.1671
 30
0.0
 11
86.4126
 21
22.1671
 31
0.0
  0
LINE
  8
0
 62
     0
 10
86.4126
 20
22.1671
 30
0.0
 11
86.4126
 21
23.0876
 31
0.0
  0
LINE
  8
0
 62
     0
 10
86.4126
 20
23.0876
 30
0.0
 11
89.7132
 21
23.0876
 31
0.0
  0
LINE
  8
0
 62
     0
 10
89.7132
 20
23.0876
 30
0.0
 11
89.7132
 21
22.1671
 31
0.0
  0
LINE
  8
0
 62
     0
 10
89.7132
 20
22.1671
 30
0.0
 11
91.3874
 21
22.1671
 31
0.0
  0
LINE
  8
0
 62
     0
 10
91.3874
 20
22.1671
 30
0.0
 11
91.3874
 21
18.937
 31
0.0
  0
LINE
  8
0
 62
     0
 10
91.3874
 20
18.937
 30
0.0
 11
130.263
 21
18.937
 31
0.0
  0
LINE
  8
0
 62
     0
 10
130.263
 20
18.937
 30
0.0
 11
130.263
 21
23.038
 31
0.0
  0
LINE
  8
0
 62
     0
 10
130.263
 20
23.038
 30
0.0
 11
131.063
 21
23.038
 31
0.0
  0
LINE
  8
0
 62
     0
 10
131.063
 20
23.038
 30
0.0
 11
131.063
 21
23.6375
 31
0.0
  0
LINE
  8
0
 62
     0
 10
131.063
 20
23.6375
 30
0.0
 11
145.063
 21
23.6375
 31
0.0
  0
LINE
  8
0
 62
     0
 10
145.063
 20
23.6375
 30
0.0
 11
145.063
 21
23.038
 31
0.0
  0
LINE
  8
0
 62
     0
 10
145.063
 20
23.038
 30
0.0
 11
145.863
 21
23.038
 31
0.0
  0
LINE
  8
0
 62
     0
 10
145.863
 20
23.038
 30
0.0
 11
145.863
 21
18.937
 31
0.0
  0
LINE
  8
0
 62
     0
 10
145.863
 20
18.937
 30
0.0
 11
184.738
 21
18.937
 31
0.0
  0
LINE
  8
0
 62
     0
 10
184.738
 20
18.937
 30
0.0
 11
184.738
 21
22.1671
 31
0.0
  0
LINE
  8
0
 62
     0
 10
184.738
 20
22.1671
 30
0.0
 11
186.413
 21
22.1671
 31
0.0
  0
LINE
  8
0
 62
     0
 10
186.413
 20
22.1671
 30
0.0
 11
186.413
 21
23.0876
 31
0.0
  0
LINE
  8
0
 62
     0
 10
186.413
 20
23.0876
 30
0.0
 11
189.713
 21
23.0876
 31
0.0
  0
LINE
  8
0
 62
     0
 10
189.713
 20
23.0876
 30
0.0
 11
189.713
 21
22.1671
 31
0.0
  0
LINE
  8
0
 62
     0
 10
189.713
 20
22.1671
 30
0.0
 11
191.388
 21
22.1671
 31
0.0
  0
LINE
  8
0
 62
     0
 10
191.388
 20
22.1671
 30
0.0
 11
191.388
 21
18.937
 31
0.0
  0
LINE
  8
0
 62
     0
 10
191.388
 20
18.937
 30
0.0
 11
192.262
 21
18.937
 31
0.0
  0
LINE
  8
0
 62
     0
 10
192.262
 20
18.937
 30
0.0
 11
192.262
 21
16.1368
 31
0.0
  0
LINE
  8
0
 62
     0
 10
192.262
 20
16.1368
 30
0.0
 11
191.388
 21
16.1368
 31
0.0
  0
LINE
  8
0
 62
     0
 10
195.068
 20
86.4376
 30
0.0
 11
195.068
 21
85.8379
 31
0.0
  0
LINE
  8
0
 62
     0
 10
195.068
 20
85.8379
 30
0.0
 11
181.069
 21
85.8379
 31
0.0
  0
LINE
  8
0
 62
     0
 10
181.069
 20
85.8379
 30
0.0
 11
181.069
 21
86.4376
 31
0.0
  0
LINE
  8
0
 62
     0
 10
181.069
 20
86.4376
 30
0.0
 11
180.268
 21
86.4376
 31
0.0
  0
LINE
  8
0
 62
     0
 10
180.268
 20
86.4376
 30
0.0
 11
180.268
 21
99.2382
 31
0.0
  0
LINE
  8
0
 62
     0
 10
180.268
 20
99.2382
 30
0.0
 11
181.069
 21
99.2382
 31
0.0
  0
LINE
  8
0
 62
     0
 10
181.069
 20
99.2382
 30
0.0
 11
181.069
 21
99.8375
 31
0.0
  0
LINE
  8
0
 62
     0
 10
181.069
 20
99.8375
 30
0.0
 11
195.068
 21
99.8375
 31
0.0
  0
LINE
  8
0
 62
     0
 10
195.068
 20
99.8375
 30
0.0
 11
195.068
 21
99.2382
 31
0.0
  0
LINE
  8
0
 62
     0
 10
195.068
 20
99.2382
 30
0.0
 11
195.869
 21
99.2382
 31
0.0
  0
LINE
  8
0
 62
     0
 10
195.869
 20
99.2382
 30
0.0
 11
195.869
 21
86.4376
 31
0.0
  0
LINE
  8
0
 62
     0
 10
195.869
 20
86.4376
 30
0.0
 11
195.068
 21
86.4376
 31
0.0
  0
LINE
  8
0
 62
     0
 10
199.832
 20
29.2874
 30
0.0
 11
199.832
 21
28.688
 31
0.0
  0
LINE
  8
0
 62
     0
 10
199.832
 20
28.688
 30
0.0
 11
185.831
 21
28.688
 31
0.0
  0
LINE
  8
0
 62
     0
 10
185.831
 20
28.688
 30
0.0
 11
185.831
 21
29.2874
 31
0.0
  0
LINE
  8
0
 62
     0
 10
185.831
 20
29.2874
 30
0.0
 11
185.032
 21
29.2874
 31
0.0
  0
LINE
  8
0
 62
     0
 10
185.032
 20
29.2874
 30
0.0
 11
185.032
 21
42.0882
 31
0.0
  0
LINE
  8
0
 62
     0
 10
185.032
 20
42.0882
 30
0.0
 11
185.831
 21
42.0882
 31
0.0
  0
LINE
  8
0
 62
     0
 10
185.831
 20
42.0882
 30
0.0
 11
185.831
 21
42.6875
 31
0.0
  0
LINE
  8
0
 62
     0
 10
185.831
 20
42.6875
 30
0.0
 11
199.832
 21
42.6875
 31
0.0
  0
LINE
  8
0
 62
     0
 10
199.832
 20
42.6875
 30
0.0
 11
199.832
 21
42.0882
 31
0.0
  0
LINE
  8
0
 62
     0
 10
199.832
 20
42.0882
 30
0.0
 11
200.631
 21
42.0882
 31
0.0
  0
LINE
  8
0
 62
     0
 10
200.631
 20
42.0882
 30
0.0
 11
200.631
 21
29.2874
 31
0.0
  0
LINE
  8
0
 62
     0
 10
200.631
 20
29.2874
 30
0.0
 11
199.832
 21
29.2874
 31
0.0
  0
LINE
  8
0
 62
     0
 10
204.593
 20
115.013
 30
0.0
 11
204.593
 21
114.413
 31
0.0
  0
LINE
  8
0
 62
     0
 10
204.593
 20
114.413
 30
0.0
 11
190.594
 21
114.413
 31
0.0
  0
LINE
  8
0
 62
     0
 10
190.594
 20
114.413
 30
0.0
 11
190.594
 21
115.013
 31
0.0
  0
LINE
  8
0
 62
     0
 10
190.594
 20
115.013
 30
0.0
 11
189.793
 21
115.013
 31
0.0
  0
LINE
  8
0
 62
     0
 10
189.793
 20
115.013
 30
0.0
 11
189.793
 21
127.813
 31
0.0
  0
LINE
  8
0
 62
     0
 10
189.793
 20
127.813
 30
0.0
 11
190.594
 21
127.813
 31
0.0
  0
LINE
  8
0
 62
     0
 10
190.594
 20
127.813
 30
0.0
 11
190.594
 21
128.413
 31
0.0
  0
LINE
  8
0
 62
     0
 10
190.594
 20
128.413
 30
0.0
 11
204.593
 21
128.413
 31
0.0
  0
LINE
  8
0
 62
     0
 10
204.593
 20
128.413
 30
0.0
 11
204.593
 21
127.813
 31
0.0
  0
LINE
  8
0
 62
     0
 10
204.593
 20
127.813
 30
0.0
 11
205.394
 21
127.813
 31
0.0
  0
LINE
  8
0
 62
     0
 10
205.394
 20
127.813
 30
0.0
 11
205.394
 21
115.013
 31
0.0
  0
LINE
  8
0
 62
     0
 10
205.394
 20
115.013
 30
0.0
 11
204.593
 21
115.013
 31
0.0
  0
LINE
  8
0
 62
     0
 10
204.593
 20
67.3876
 30
0.0
 11
204.593
 21
66.7879
 31
0.0
  0
LINE
  8
0
 62
     0
 10
204.593
 20
66.7879
 30
0.0
 11
190.594
 21
66.7879
 31
0.0
  0
LINE
  8
0
 62
     0
 10
190.594
 20
66.7879
 30
0.0
 11
190.594
 21
67.3876
 31
0.0
  0
LINE
  8
0
 62
     0
 10
190.594
 20
67.3876
 30
0.0
 11
189.793
 21
67.3876
 31
0.0
  0
LINE
  8
0
 62
     0
 10
189.793
 20
67.3876
 30
0.0
 11
189.793
 21
80.1882
 31
0.0
  0
LINE
  8
0
 62
     0
 10
189.793
 20
80.1882
 30
0.0
 11
190.594
 21
80.1882
 31
0.0
  0
LINE
  8
0
 62
     0
 10
190.594
 20
80.1882
 30
0.0
 11
190.594
 21
80.7875
 31
0.0
  0
LINE
  8
0
 62
     0
 10
190.594
 20
80.7875
 30
0.0
 11
204.593
 21
80.7875
 31
0.0
  0
LINE
  8
0
 62
     0
 10
204.593
 20
80.7875
 30
0.0
 11
204.593
 21
80.1882
 31
0.0
  0
LINE
  8
0
 62
     0
 10
204.593
 20
80.1882
 30
0.0
 11
205.394
 21
80.1882
 31
0.0
  0
LINE
  8
0
 62
     0
 10
205.394
 20
80.1882
 30
0.0
 11
205.394
 21
67.3876
 31
0.0
  0
LINE
  8
0
 62
     0
 10
205.394
 20
67.3876
 30
0.0
 11
204.593
 21
67.3876
 31
0.0
  0
LINE
  8
0
 62
     0
 10
209.357
 20
48.3376
 30
0.0
 11
209.357
 21
47.7379
 31
0.0
  0
LINE
  8
0
 62
     0
 10
209.357
 20
47.7379
 30
0.0
 11
195.356
 21
47.7379
 31
0.0
  0
LINE
  8
0
 62
     0
 10
195.356
 20
47.7379
 30
0.0
 11
195.356
 21
48.3376
 31
0.0
  0
LINE
  8
0
 62
     0
 10
195.356
 20
48.3376
 30
0.0
 11
194.557
 21
48.3376
 31
0.0
  0
LINE
  8
0
 62
     0
 10
194.557
 20
48.3376
 30
0.0
 11
194.557
 21
61.1382
 31
0.0
  0
LINE
  8
0
 62
     0
 10
194.557
 20
61.1382
 30
0.0
 11
195.356
 21
61.1382
 31
0.0
  0
LINE
  8
0
 62
     0
 10
195.356
 20
61.1382
 30
0.0
 11
195.356
 21
61.7375
 31
0.0
  0
LINE
  8
0
 62
     0
 10
195.356
 20
61.7375
 30
0.0
 11
209.357
 21
61.7375
 31
0.0
  0
LINE
  8
0
 62
     0
 10
209.357
 20
61.7375
 30
0.0
 11
209.357
 21
61.1382
 31
0.0
  0
LINE
  8
0
 62
     0
 10
209.357
 20
61.1382
 30
0.0
 11
210.156
 21
61.1382
 31
0.0
  0
LINE
  8
0
 62
     0
 10
210.156
 20
61.1382
 30
0.0
 11
210.156
 21
48.3376
 31
0.0
  0
LINE
  8
0
 62
     0
 10
210.156
 20
48.3376
 30
0.0
 11
209.357
 21
48.3376
 31
0.0
  0
LINE
  8
0
 62
     0
 10
214.118
 20
86.4376
 30
0.0
 11
214.118
 21
85.8379
 31
0.0
  0
LINE
  8
0
 62
     0
 10
214.118
 20
85.8379
 30
0.0
 11
200.119
 21
85.8379
 31
0.0
  0
LINE
  8
0
 62
     0
 10
200.119
 20
85.8379
 30
0.0
 11
200.119
 21
86.4376
 31
0.0
  0
LINE
  8
0
 62
     0
 10
200.119
 20
86.4376
 30
0.0
 11
199.318
 21
86.4376
 31
0.0
  0
LINE
  8
0
 62
     0
 10
199.318
 20
86.4376
 30
0.0
 11
199.318
 21
99.2382
 31
0.0
  0
LINE
  8
0
 62
     0
 10
199.318
 20
99.2382
 30
0.0
 11
200.119
 21
99.2382
 31
0.0
  0
LINE
  8
0
 62
     0
 10
200.119
 20
99.2382
 30
0.0
 11
200.119
 21
99.8375
 31
0.0
  0
LINE
  8
0
 62
     0
 10
200.119
 20
99.8375
 30
0.0
 11
214.118
 21
99.8375
 31
0.0
  0
LINE
  8
0
 62
     0
 10
214.118
 20
99.8375
 30
0.0
 11
214.118
 21
99.2382
 31
0.0
  0
LINE
  8
0
 62
     0
 10
214.118
 20
99.2382
 30
0.0
 11
214.919
 21
99.2382
 31
0.0
  0
LINE
  8
0
 62
     0
 10
214.919
 20
99.2382
 30
0.0
 11
214.919
 21
86.4376
 31
0.0
  0
LINE
  8
0
 62
     0
 10
214.919
 20
86.4376
 30
0.0
 11
214.118
 21
86.4376
 31
0.0
  0
LINE
  8
0
 62
     0
 10
216.499
 20
10.2374
 30
0.0
 11
216.499
 21
9.63799
 31
0.0
  0
LINE
  8
0
 62
     0
 10
216.499
 20
9.63799
 30
0.0
 11
202.5
 21
9.63799
 31
0.0
  0
LINE
  8
0
 62
     0
 10
202.5
 20
9.63799
 30
0.0
 11
202.5
 21
10.2374
 31
0.0
  0
LINE
  8
0
 62
     0
 10
202.5
 20
10.2374
 30
0.0
 11
201.699
 21
10.2374
 31
0.0
  0
LINE
  8
0
 62
     0
 10
201.699
 20
10.2374
 30
0.0
 11
201.699
 21
23.038
 31
0.0
  0
LINE
  8
0
 62
     0
 10
201.699
 20
23.038
 30
0.0
 11
202.5
 21
23.038
 31
0.0
  0
LINE
  8
0
 62
     0
 10
202.5
 20
23.038
 30
0.0
 11
202.5
 21
23.6375
 31
0.0
  0
LINE
  8
0
 62
     0
 10
202.5
 20
23.6375
 30
0.0
 11
216.499
 21
23.6375
 31
0.0
  0
LINE
  8
0
 62
     0
 10
216.499
 20
23.6375
 30
0.0
 11
216.499
 21
23.038
 31
0.0
  0
LINE
  8
0
 62
     0
 10
216.499
 20
23.038
 30
0.0
 11
217.3
 21
23.038
 31
0.0
  0
LINE
  8
0
 62
     0
 10
217.3
 20
23.038
 30
0.0
 11
217.3
 21
10.2374
 31
0.0
  0
LINE
  8
0
 62
     0
 10
217.3
 20
10.2374
 30
0.0
 11
216.499
 21
10.2374
 31
0.0
  0
LINE
  8
0
 62
     0
 10
218.882
 20
29.2874
 30
0.0
 11
218.882
 21
28.688
 31
0.0
  0
LINE
  8
0
 62
     0
 10
218.882
 20
28.688
 30
0.0
 11
204.881
 21
28.688
 31
0.0
  0
LINE
  8
0
 62
     0
 10
204.881
 20
28.688
 30
0.0
 11
204.881
 21
29.2874
 31
0.0
  0
LINE
  8
0
 62
     0
 10
204.881
 20
29.2874
 30
0.0
 11
204.082
 21
29.2874
 31
0.0
  0
LINE
  8
0
 62
     0
 10
204.082
 20
29.2874
 30
0.0
 11
204.082
 21
42.0882
 31
0.0
  0
LINE
  8
0
 62
     0
 10
204.082
 20
42.0882
 30
0.0
 11
204.881
 21
42.0882
 31
0.0
  0
LINE
  8
0
 62
     0
 10
204.881
 20
42.0882
 30
0.0
 11
204.881
 21
42.6875
 31
0.0
  0
LINE
  8
0
 62
     0
 10
204.881
 20
42.6875
 30
0.0
 11
218.882
 21
42.6875
 31
0.0
  0
LINE
  8
0
 62
     0
 10
218.882
 20
42.6875
 30
0.0
 11
218.882
 21
42.0882
 31
0.0
  0
LINE
  8
0
 62
     0
 10
218.882
 20
42.0882
 30
0.0
 11
219.681
 21
42.0882
 31
0.0
  0
LINE
  8
0
 62
     0
 10
219.681
 20
42.0882
 30
0.0
 11
219.681
 21
29.2874
 31
0.0
  0
LINE
  8
0
 62
     0
 10
219.681
 20
29.2874
 30
0.0
 11
218.882
 21
29.2874
 31
0.0
  0
LINE
  8
0
 62
     0
 10
223.643
 20
67.3876
 30
0.0
 11
223.643
 21
66.7879
 31
0.0
  0
LINE
  8
0
 62
     0
 10
223.643
 20
66.7879
 30
0.0
 11
209.644
 21
66.7879
 31
0.0
  0
LINE
  8
0
 62
     0
 10
209.644
 20
66.7879
 30
0.0
 11
209.644
 21
67.3876
 31
0.0
  0
LINE
  8
0
 62
     0
 10
209.644
 20
67.3876
 30
0.0
 11
208.843
 21
67.3876
 31
0.0
  0
LINE
  8
0
 62
     0
 10
208.843
 20
67.3876
 30
0.0
 11
208.843
 21
80.1882
 31
0.0
  0
LINE
  8
0
 62
     0
 10
208.843
 20
80.1882
 30
0.0
 11
209.644
 21
80.1882
 31
0.0
  0
LINE
  8
0
 62
     0
 10
209.644
 20
80.1882
 30
0.0
 11
209.644
 21
80.7875
 31
0.0
  0
LINE
  8
0
 62
     0
 10
209.644
 20
80.7875
 30
0.0
 11
223.643
 21
80.7875
 31
0.0
  0
LINE
  8
0
 62
     0
 10
223.643
 20
80.7875
 30
0.0
 11
223.643
 21
80.1882
 31
0.0
  0
LINE
  8
0
 62
     0
 10
223.643
 20
80.1882
 30
0.0
 11
224.444
 21
80.1882
 31
0.0
  0
LINE
  8
0
 62
     0
 10
224.444
 20
80.1882
 30
0.0
 11
224.444
 21
67.3876
 31
0.0
  0
LINE
  8
0
 62
     0
 10
224.444
 20
67.3876
 30
0.0
 11
223.643
 21
67.3876
 31
0.0
  0
LINE
  8
0
 62
     0
 10
228.407
 20
48.3376
 30
0.0
 11
228.407
 21
47.7379
 31
0.0
  0
LINE
  8
0
 62
     0
 10
228.407
 20
47.7379
 30
0.0
 11
214.406
 21
47.7379
 31
0.0
  0
LINE
  8
0
 62
     0
 10
214.406
 20
47.7379
 30
0.0
 11
214.406
 21
48.3376
 31
0.0
  0
LINE
  8
0
 62
     0
 10
214.406
 20
48.3376
 30
0.0
 11
213.607
 21
48.3376
 31
0.0
  0
LINE
  8
0
 62
     0
 10
213.607
 20
48.3376
 30
0.0
 11
213.607
 21
61.1382
 31
0.0
  0
LINE
  8
0
 62
     0
 10
213.607
 20
61.1382
 30
0.0
 11
214.406
 21
61.1382
 31
0.0
  0
LINE
  8
0
 62
     0
 10
214.406
 20
61.1382
 30
0.0
 11
214.406
 21
61.7375
 31
0.0
  0
LINE
  8
0
 62
     0
 10
214.406
 20
61.7375
 30
0.0
 11
228.407
 21
61.7375
 31
0.0
  0
LINE
  8
0
 62
     0
 10
228.407
 20
61.7375
 30
0.0
 11
228.407
 21
61.1382
 31
0.0
  0
LINE
  8
0
 62
     0
 10
228.407
 20
61.1382
 30
0.0
 11
229.206
 21
61.1382
 31
0.0
  0
LINE
  8
0
 62
     0
 10
229.206
 20
61.1382
 30
0.0
 11
229.206
 21
48.3376
 31
0.0
  0
LINE
  8
0
 62
     0
 10
229.206
 20
48.3376
 30
0.0
 11
228.407
 21
48.3376
 31
0.0
  0
LINE
  8
0
 62
     0
 10
233.168
 20
115.013
 30
0.0
 11
233.168
 21
114.413
 31
0.0
  0
LINE
  8
0
 62
     0
 10
233.168
 20
114.413
 30
0.0
 11
219.169
 21
114.413
 31
0.0
  0
LINE
  8
0
 62
     0
 10
219.169
 20
114.413
 30
0.0
 11
219.169
 21
115.013
 31
0.0
  0
LINE
  8
0
 62
     0
 10
219.169
 20
115.013
 30
0.0
 11
218.368
 21
115.013
 31
0.0
  0
LINE
  8
0
 62
     0
 10
218.368
 20
115.013
 30
0.0
 11
218.368
 21
127.813
 31
0.0
  0
LINE
  8
0
 62
     0
 10
218.368
 20
127.813
 30
0.0
 11
219.169
 21
127.813
 31
0.0
  0
LINE
  8
0
 62
     0
 10
219.169
 20
127.813
 30
0.0
 11
219.169
 21
128.413
 31
0.0
  0
LINE
  8
0
 62
     0
 10
219.169
 20
128.413
 30
0.0
 11
233.168
 21
128.413
 31
0.0
  0
LINE
  8
0
 62
     0
 10
233.168
 20
128.413
 30
0.0
 11
233.168
 21
127.813
 31
0.0
  0
LINE
  8
0
 62
     0
 10
233.168
 20
127.813
 30
0.0
 11
233.969
 21
127.813
 31
0.0
  0
LINE
  8
0
 62
     0
 10
233.969
 20
127.813
 30
0.0
 11
233.969
 21
115.013
 31
0.0
  0
LINE
  8
0
 62
     0
 10
233.969
 20
115.013
 30
0.0
 11
233.168
 21
115.013
 31
0.0
  0
LINE
  8
0
 62
     0
 10
233.168
 20
86.4376
 30
0.0
 11
233.168
 21
85.8379
 31
0.0
  0
LINE
  8
0
 62
     0
 10
233.168
 20
85.8379
 30
0.0
 11
219.169
 21
85.8379
 31
0.0
  0
LINE
  8
0
 62
     0
 10
219.169
 20
85.8379
 30
0.0
 11
219.169
 21
86.4376
 31
0.0
  0
LINE
  8
0
 62
     0
 10
219.169
 20
86.4376
 30
0.0
 11
218.368
 21
86.4376
 31
0.0
  0
LINE
  8
0
 62
     0
 10
218.368
 20
86.4376
 30
0.0
 11
218.368
 21
99.2382
 31
0.0
  0
LINE
  8
0
 62
     0
 10
218.368
 20
99.2382
 30
0.0
 11
219.169
 21
99.2382
 31
0.0
  0
LINE
  8
0
 62
     0
 10
219.169
 20
99.2382
 30
0.0
 11
219.169
 21
99.8375
 31
0.0
  0
LINE
  8
0
 62
     0
 10
219.169
 20
99.8375
 30
0.0
 11
233.168
 21
99.8375
 31
0.0
  0
LINE
  8
0
 62
     0
 10
233.168
 20
99.8375
 30
0.0
 11
233.168
 21
99.2382
 31
0.0
  0
LINE
  8
0
 62
     0
 10
233.168
 20
99.2382
 30
0.0
 11
233.969
 21
99.2382
 31
0.0
  0
LINE
  8
0
 62
     0
 10
233.969
 20
99.2382
 30
0.0
 11
233.969
 21
86.4376
 31
0.0
  0
LINE
  8
0
 62
     0
 10
233.969
 20
86.4376
 30
0.0
 11
233.168
 21
86.4376
 31
0.0
  0
LINE
  8
0
 62
     0
 10
237.932
 20
29.2874
 30
0.0
 11
237.932
 21
28.688
 31
0.0
  0
LINE
  8
0
 62
     0
 10
237.932
 20
28.688
 30
0.0
 11
223.931
 21
28.688
 31
0.0
  0
LINE
  8
0
 62
     0
 10
223.931
 20
28.688
 30
0.0
 11
223.931
 21
29.2874
 31
0.0
  0
LINE
  8
0
 62
     0
 10
223.931
 20
29.2874
 30
0.0
 11
223.132
 21
29.2874
 31
0.0
  0
LINE
  8
0
 62
     0
 10
223.132
 20
29.2874
 30
0.0
 11
223.132
 21
42.0882
 31
0.0
  0
LINE
  8
0
 62
     0
 10
223.132
 20
42.0882
 30
0.0
 11
223.931
 21
42.0882
 31
0.0
  0
LINE
  8
0
 62
     0
 10
223.931
 20
42.0882
 30
0.0
 11
223.931
 21
42.6875
 31
0.0
  0
LINE
  8
0
 62
     0
 10
223.931
 20
42.6875
 30
0.0
 11
237.932
 21
42.6875
 31
0.0
  0
LINE
  8
0
 62
     0
 10
237.932
 20
42.6875
 30
0.0
 11
237.932
 21
42.0882
 31
0.0
  0
LINE
  8
0
 62
     0
 10
237.932
 20
42.0882
 30
0.0
 11
238.731
 21
42.0882
 31
0.0
  0
LINE
  8
0
 62
     0
 10
238.731
 20
42.0882
 30
0.0
 11
238.731
 21
29.2874
 31
0.0
  0
LINE
  8
0
 62
     0
 10
238.731
 20
29.2874
 30
0.0
 11
237.932
 21
29.2874
 31
0.0
  0
LINE
  8
0
 62
     0
 10
240.313
 20
10.2374
 30
0.0
 11
240.313
 21
9.63799
 31
0.0
  0
LINE
  8
0
 62
     0
 10
240.313
 20
9.63799
 30
0.0
 11
226.313
 21
9.63799
 31
0.0
  0
LINE
  8
0
 62
     0
 10
226.313
 20
9.63799
 30
0.0
 11
226.313
 21
10.2374
 31
0.0
  0
LINE
  8
0
 62
     0
 10
226.313
 20
10.2374
 30
0.0
 11
225.513
 21
10.2374
 31
0.0
  0
LINE
  8
0
 62
     0
 10
225.513
 20
10.2374
 30
0.0
 11
225.513
 21
23.038
 31
0.0
  0
LINE
  8
0
 62
     0
 10
225.513
 20
23.038
 30
0.0
 11
226.313
 21
23.038
 31
0.0
  0
LINE
  8
0
 62
     0
 10
226.313
 20
23.038
 30
0.0
 11
226.313
 21
23.6375
 31
0.0
  0
LINE
  8
0
 62
     0
 10
226.313
 20
23.6375
 30
0.0
 11
240.313
 21
23.6375
 31
0.0
  0
LINE
  8
0
 62
     0
 10
240.313
 20
23.6375
 30
0.0
 11
240.313
 21
23.038
 31
0.0
  0
LINE
  8
0
 62
     0
 10
240.313
 20
23.038
 30
0.0
 11
241.113
 21
23.038
 31
0.0
  0
LINE
  8
0
 62
     0
 10
241.113
 20
23.038
 30
0.0
 11
241.113
 21
10.2374
 31
0.0
  0
LINE
  8
0
 62
     0
 10
241.113
 20
10.2374
 30
0.0
 11
240.313
 21
10.2374
 31
0.0
  0
LINE
  8
0
 62
     0
 10
242.693
 20
67.3876
 30
0.0
 11
242.693
 21
66.7879
 31
0.0
  0
LINE
  8
0
 62
     0
 10
242.693
 20
66.7879
 30
0.0
 11
228.694
 21
66.7879
 31
0.0
  0
LINE
  8
0
 62
     0
 10
228.694
 20
66.7879
 30
0.0
 11
228.694
 21
67.3876
 31
0.0
  0
LINE
  8
0
 62
     0
 10
228.694
 20
67.3876
 30
0.0
 11
227.893
 21
67.3876
 31
0.0
  0
LINE
  8
0
 62
     0
 10
227.893
 20
67.3876
 30
0.0
 11
227.893
 21
80.1882
 31
0.0
  0
LINE
  8
0
 62
     0
 10
227.893
 20
80.1882
 30
0.0
 11
228.694
 21
80.1882
 31
0.0
  0
LINE
  8
0
 62
     0
 10
228.694
 20
80.1882
 30
0.0
 11
228.694
 21
80.7875
 31
0.0
  0
LINE
  8
0
 62
     0
 10
228.694
 20
80.7875
 30
0.0
 11
242.693
 21
80.7875
 31
0.0
  0
LINE
  8
0
 62
     0
 10
242.693
 20
80.7875
 30
0.0
 11
242.693
 21
80.1882
 31
0.0
  0
LINE
  8
0
 62
     0
 10
242.693
 20
80.1882
 30
0.0
 11
243.494
 21
80.1882
 31
0.0
  0
LINE
  8
0
 62
     0
 10
243.494
 20
80.1882
 30
0.0
 11
243.494
 21
67.3876
 31
0.0
  0
LINE
  8
0
 62
     0
 10
243.494
 20
67.3876
 30
0.0
 11
242.693
 21
67.3876
 31
0.0
  0
LINE
  8
0
 62
     0
 10
247.457
 20
48.3376
 30
0.0
 11
247.457
 21
47.7379
 31
0.0
  0
LINE
  8
0
 62
     0
 10
247.457
 20
47.7379
 30
0.0
 11
233.456
 21
47.7379
 31
0.0
  0
LINE
  8
0
 62
     0
 10
233.456
 20
47.7379
 30
0.0
 11
233.456
 21
48.3376
 31
0.0
  0
LINE
  8
0
 62
     0
 10
233.456
 20
48.3376
 30
0.0
 11
232.657
 21
48.3376
 31
0.0
  0
LINE
  8
0
 62
     0
 10
232.657
 20
48.3376
 30
0.0
 11
232.657
 21
61.1382
 31
0.0
  0
LINE
  8
0
 62
     0
 10
232.657
 20
61.1382
 30
0.0
 11
233.456
 21
61.1382
 31
0.0
  0
LINE
  8
0
 62
     0
 10
233.456
 20
61.1382
 30
0.0
 11
233.456
 21
61.7375
 31
0.0
  0
LINE
  8
0
 62
     0
 10
233.456
 20
61.7375
 30
0.0
 11
247.457
 21
61.7375
 31
0.0
  0
LINE
  8
0
 62
     0
 10
247.457
 20
61.7375
 30
0.0
 11
247.457
 21
61.1382
 31
0.0
  0
LINE
  8
0
 62
     0
 10
247.457
 20
61.1382
 30
0.0
 11
248.256
 21
61.1382
 31
0.0
  0
LINE
  8
0
 62
     0
 10
248.256
 20
61.1382
 30
0.0
 11
248.256
 21
48.3376
 31
0.0
  0
LINE
  8
0
 62
     0
 10
248.256
 20
48.3376
 30
0.0
 11
247.457
 21
48.3376
 31
0.0
  0
LINE
  8
0
 62
     0
 10
252.218
 20
115.013
 30
0.0
 11
252.218
 21
114.413
 31
0.0
  0
LINE
  8
0
 62
     0
 10
252.218
 20
114.413
 30
0.0
 11
238.219
 21
114.413
 31
0.0
  0
LINE
  8
0
 62
     0
 10
238.219
 20
114.413
 30
0.0
 11
238.219
 21
115.013
 31
0.0
  0
LINE
  8
0
 62
     0
 10
238.219
 20
115.013
 30
0.0
 11
237.418
 21
115.013
 31
0.0
  0
LINE
  8
0
 62
     0
 10
237.418
 20
115.013
 30
0.0
 11
237.418
 21
127.813
 31
0.0
  0
LINE
  8
0
 62
     0
 10
237.418
 20
127.813
 30
0.0
 11
238.219
 21
127.813
 31
0.0
  0
LINE
  8
0
 62
     0
 10
238.219
 20
127.813
 30
0.0
 11
238.219
 21
128.413
 31
0.0
  0
LINE
  8
0
 62
     0
 10
238.219
 20
128.413
 30
0.0
 11
252.218
 21
128.413
 31
0.0
  0
LINE
  8
0
 62
     0
 10
252.218
 20
128.413
 30
0.0
 11
252.218
 21
127.813
 31
0.0
  0
LINE
  8
0
 62
     0
 10
252.218
 20
127.813
 30
0.0
 11
253.019
 21
127.813
 31
0.0
  0
LINE
  8
0
 62
     0
 10
253.019
 20
127.813
 30
0.0
 11
253.019
 21
115.013
 31
0.0
  0
LINE
  8
0
 62
     0
 10
253.019
 20
115.013
 30
0.0
 11
252.218
 21
115.013
 31
0.0
  0
LINE
  8
0
 62
     0
 10
252.218
 20
86.4376
 30
0.0
 11
252.218
 21
85.8379
 31
0.0
  0
LINE
  8
0
 62
     0
 10
252.218
 20
85.8379
 30
0.0
 11
238.219
 21
85.8379
 31
0.0
  0
LINE
  8
0
 62
     0
 10
238.219
 20
85.8379
 30
0.0
 11
238.219
 21
86.4376
 31
0.0
  0
LINE
  8
0
 62
     0
 10
238.219
 20
86.4376
 30
0.0
 11
237.418
 21
86.4376
 31
0.0
  0
LINE
  8
0
 62
     0
 10
237.418
 20
86.4376
 30
0.0
 11
237.418
 21
99.2382
 31
0.0
  0
LINE
  8
0
 62
     0
 10
237.418
 20
99.2382
 30
0.0
 11
238.219
 21
99.2382
 31
0.0
  0
LINE
  8
0
 62
     0
 10
238.219
 20
99.2382
 30
0.0
 11
238.219
 21
99.8375
 31
0.0
  0
LINE
  8
0
 62
     0
 10
238.219
 20
99.8375
 30
0.0
 11
252.218
 21
99.8375
 31
0.0
  0
LINE
  8
0
 62
     0
 10
252.218
 20
99.8375
 30
0.0
 11
252.218
 21
99.2382
 31
0.0
  0
LINE
  8
0
 62
     0
 10
252.218
 20
99.2382
 30
0.0
 11
253.019
 21
99.2382
 31
0.0
  0
LINE
  8
0
 62
     0
 10
253.019
 20
99.2382
 30
0.0
 11
253.019
 21
86.4376
 31
0.0
  0
LINE
  8
0
 62
     0
 10
253.019
 20
86.4376
 30
0.0
 11
252.218
 21
86.4376
 31
0.0
  0
LINE
  8
0
 62
     0
 10
261.743
 20
67.3876
 30
0.0
 11
261.743
 21
66.7879
 31
0.0
  0
LINE
  8
0
 62
     0
 10
261.743
 20
66.7879
 30
0.0
 11
247.744
 21
66.7879
 31
0.0
  0
LINE
  8
0
 62
     0
 10
247.744
 20
66.7879
 30
0.0
 11
247.744
 21
67.3876
 31
0.0
  0
LINE
  8
0
 62
     0
 10
247.744
 20
67.3876
 30
0.0
 11
246.943
 21
67.3876
 31
0.0
  0
LINE
  8
0
 62
     0
 10
246.943
 20
67.3876
 30
0.0
 11
246.943
 21
80.1882
 31
0.0
  0
LINE
  8
0
 62
     0
 10
246.943
 20
80.1882
 30
0.0
 11
247.744
 21
80.1882
 31
0.0
  0
LINE
  8
0
 62
     0
 10
247.744
 20
80.1882
 30
0.0
 11
247.744
 21
80.7875
 31
0.0
  0
LINE
  8
0
 62
     0
 10
247.744
 20
80.7875
 30
0.0
 11
261.743
 21
80.7875
 31
0.0
  0
LINE
  8
0
 62
     0
 10
261.743
 20
80.7875
 30
0.0
 11
261.743
 21
80.1882
 31
0.0
  0
LINE
  8
0
 62
     0
 10
261.743
 20
80.1882
 30
0.0
 11
262.544
 21
80.1882
 31
0.0
  0
LINE
  8
0
 62
     0
 10
262.544
 20
80.1882
 30
0.0
 11
262.544
 21
67.3876
 31
0.0
  0
LINE
  8
0
 62
     0
 10
262.544
 20
67.3876
 30
0.0
 11
261.743
 21
67.3876
 31
0.0
  0
LINE
  8
0
 62
     0
 10
264.124
 20
10.2374
 30
0.0
 11
264.124
 21
9.63799
 31
0.0
  0
LINE
  8
0
 62
     0
 10
264.124
 20
9.63799
 30
0.0
 11
250.125
 21
9.63799
 31
0.0
  0
LINE
  8
0
 62
     0
 10
250.125
 20
9.63799
 30
0.0
 11
250.125
 21
10.2374
 31
0.0
  0
LINE
  8
0
 62
     0
 10
250.125
 20
10.2374
 30
0.0
 11
249.324
 21
10.2374
 31
0.0
  0
LINE
  8
0
 62
     0
 10
249.324
 20
10.2374
 30
0.0
 11
249.324
 21
23.038
 31
0.0
  0
LINE
  8
0
 62
     0
 10
249.324
 20
23.038
 30
0.0
 11
250.125
 21
23.038
 31
0.0
  0
LINE
  8
0
 62
     0
 10
250.125
 20
23.038
 30
0.0
 11
250.125
 21
23.6375
 31
0.0
  0
LINE
  8
0
 62
     0
 10
250.125
 20
23.6375
 30
0.0
 11
264.124
 21
23.6375
 31
0.0
  0
LINE
  8
0
 62
     0
 10
264.124
 20
23.6375
 30
0.0
 11
264.124
 21
23.038
 31
0.0
  0
LINE
  8
0
 62
     0
 10
264.124
 20
23.038
 30
0.0
 11
264.925
 21
23.038
 31
0.0
  0
LINE
  8
0
 62
     0
 10
264.925
 20
23.038
 30
0.0
 11
264.925
 21
10.2374
 31
0.0
  0
LINE
  8
0
 62
     0
 10
264.925
 20
10.2374
 30
0.0
 11
264.124
 21
10.2374
 31
0.0
  0
LINE
  8
0
 62
     0
 10
271.268
 20
115.013
 30
0.0
 11
271.268
 21
114.413
 31
0.0
  0
LINE
  8
0
 62
     0
 10
271.268
 20
114.413
 30
0.0
 11
257.269
 21
114.413
 31
0.0
  0
LINE
  8
0
 62
     0
 10
257.269
 20
114.413
 30
0.0
 11
257.269
 21
115.013
 31
0.0
  0
LINE
  8
0
 62
     0
 10
257.269
 20
115.013
 30
0.0
 11
256.468
 21
115.013
 31
0.0
  0
LINE
  8
0
 62
     0
 10
256.468
 20
115.013
 30
0.0
 11
256.468
 21
127.813
 31
0.0
  0
LINE
  8
0
 62
     0
 10
256.468
 20
127.813
 30
0.0
 11
257.269
 21
127.813
 31
0.0
  0
LINE
  8
0
 62
     0
 10
257.269
 20
127.813
 30
0.0
 11
257.269
 21
128.413
 31
0.0
  0
LINE
  8
0
 62
     0
 10
257.269
 20
128.413
 30
0.0
 11
271.268
 21
128.413
 31
0.0
  0
LINE
  8
0
 62
     0
 10
271.268
 20
128.413
 30
0.0
 11
271.268
 21
127.813
 31
0.0
  0
LINE
  8
0
 62
     0
 10
271.268
 20
127.813
 30
0.0
 11
272.069
 21
127.813
 31
0.0
  0
LINE
  8
0
 62
     0
 10
272.069
 20
127.813
 30
0.0
 11
272.069
 21
115.013
 31
0.0
  0
LINE
  8
0
 62
     0
 10
272.069
 20
115.013
 30
0.0
 11
271.268
 21
115.013
 31
0.0
  0
LINE
  8
0
 62
     0
 10
281.875
 20
35.1868
 30
0.0
 11
281.875
 21
28.9181
 31
0.0
  0
LINE
  8
0
 62
     0
 10
281.875
 20
28.9181
 30
0.0
 11
280.25
 21
28.9181
 31
0.0
  0
LINE
  8
0
 62
     0
 10
280.25
 20
28.9181
 30
0.0
 11
280.25
 21
27.937
 31
0.0
  0
LINE
  8
0
 62
     0
 10
280.25
 20
27.937
 30
0.0
 11
276.95
 21
27.937
 31
0.0
  0
LINE
  8
0
 62
     0
 10
276.95
 20
27.937
 30
0.0
 11
276.95
 21
28.9181
 31
0.0
  0
LINE
  8
0
 62
     0
 10
276.95
 20
28.9181
 30
0.0
 11
275.225
 21
28.9181
 31
0.0
  0
LINE
  8
0
 62
     0
 10
275.225
 20
28.9181
 30
0.0
 11
275.225
 21
29.7174
 31
0.0
  0
LINE
  8
0
 62
     0
 10
275.225
 20
29.7174
 30
0.0
 11
274.45
 21
29.7174
 31
0.0
  0
LINE
  8
0
 62
     0
 10
274.45
 20
29.7174
 30
0.0
 11
274.45
 21
29.2874
 31
0.0
  0
LINE
  8
0
 62
     0
 10
274.45
 20
29.2874
 30
0.0
 11
273.649
 21
29.2874
 31
0.0
  0
LINE
  8
0
 62
     0
 10
273.649
 20
29.2874
 30
0.0
 11
273.649
 21
28.688
 31
0.0
  0
LINE
  8
0
 62
     0
 10
273.649
 20
28.688
 30
0.0
 11
259.65
 21
28.688
 31
0.0
  0
LINE
  8
0
 62
     0
 10
259.65
 20
28.688
 30
0.0
 11
259.65
 21
29.2874
 31
0.0
  0
LINE
  8
0
 62
     0
 10
259.65
 20
29.2874
 30
0.0
 11
258.849
 21
29.2874
 31
0.0
  0
LINE
  8
0
 62
     0
 10
258.849
 20
29.2874
 30
0.0
 11
258.849
 21
29.7174
 31
0.0
  0
LINE
  8
0
 62
     0
 10
258.849
 20
29.7174
 30
0.0
 11
258.075
 21
29.7174
 31
0.0
  0
LINE
  8
0
 62
     0
 10
258.075
 20
29.7174
 30
0.0
 11
258.075
 21
28.9181
 31
0.0
  0
LINE
  8
0
 62
     0
 10
258.075
 20
28.9181
 30
0.0
 11
256.349
 21
28.9181
 31
0.0
  0
LINE
  8
0
 62
     0
 10
256.349
 20
28.9181
 30
0.0
 11
256.349
 21
27.937
 31
0.0
  0
LINE
  8
0
 62
     0
 10
256.349
 20
27.937
 30
0.0
 11
253.049
 21
27.937
 31
0.0
  0
LINE
  8
0
 62
     0
 10
253.049
 20
27.937
 30
0.0
 11
253.049
 21
28.9181
 31
0.0
  0
LINE
  8
0
 62
     0
 10
253.049
 20
28.9181
 30
0.0
 11
251.424
 21
28.9181
 31
0.0
  0
LINE
  8
0
 62
     0
 10
251.424
 20
28.9181
 30
0.0
 11
251.424
 21
35.1868
 31
0.0
  0
LINE
  8
0
 62
     0
 10
251.424
 20
35.1868
 30
0.0
 11
250.549
 21
35.1868
 31
0.0
  0
LINE
  8
0
 62
     0
 10
250.549
 20
35.1868
 30
0.0
 11
250.549
 21
37.9871
 31
0.0
  0
LINE
  8
0
 62
     0
 10
250.549
 20
37.9871
 30
0.0
 11
251.424
 21
37.9871
 31
0.0
  0
LINE
  8
0
 62
     0
 10
251.424
 20
37.9871
 30
0.0
 11
251.424
 21
41.2171
 31
0.0
  0
LINE
  8
0
 62
     0
 10
251.424
 20
41.2171
 30
0.0
 11
253.049
 21
41.2171
 31
0.0
  0
LINE
  8
0
 62
     0
 10
253.049
 20
41.2171
 30
0.0
 11
253.049
 21
42.1375
 31
0.0
  0
LINE
  8
0
 62
     0
 10
253.049
 20
42.1375
 30
0.0
 11
256.349
 21
42.1375
 31
0.0
  0
LINE
  8
0
 62
     0
 10
256.349
 20
42.1375
 30
0.0
 11
256.349
 21
41.2171
 31
0.0
  0
LINE
  8
0
 62
     0
 10
256.349
 20
41.2171
 30
0.0
 11
258.075
 21
41.2171
 31
0.0
  0
LINE
  8
0
 62
     0
 10
258.075
 20
41.2171
 30
0.0
 11
258.075
 21
40.4178
 31
0.0
  0
LINE
  8
0
 62
     0
 10
258.075
 20
40.4178
 30
0.0
 11
258.849
 21
40.4178
 31
0.0
  0
LINE
  8
0
 62
     0
 10
258.849
 20
40.4178
 30
0.0
 11
258.849
 21
42.0882
 31
0.0
  0
LINE
  8
0
 62
     0
 10
258.849
 20
42.0882
 30
0.0
 11
259.65
 21
42.0882
 31
0.0
  0
LINE
  8
0
 62
     0
 10
259.65
 20
42.0882
 30
0.0
 11
259.65
 21
42.6875
 31
0.0
  0
LINE
  8
0
 62
     0
 10
259.65
 20
42.6875
 30
0.0
 11
273.649
 21
42.6875
 31
0.0
  0
LINE
  8
0
 62
     0
 10
273.649
 20
42.6875
 30
0.0
 11
273.649
 21
42.0882
 31
0.0
  0
LINE
  8
0
 62
     0
 10
273.649
 20
42.0882
 30
0.0
 11
274.45
 21
42.0882
 31
0.0
  0
LINE
  8
0
 62
     0
 10
274.45
 20
42.0882
 30
0.0
 11
274.45
 21
40.4178
 31
0.0
  0
LINE
  8
0
 62
     0
 10
274.45
 20
40.4178
 30
0.0
 11
275.225
 21
40.4178
 31
0.0
  0
LINE
  8
0
 62
     0
 10
275.225
 20
40.4178
 30
0.0
 11
275.225
 21
41.2171
 31
0.0
  0
LINE
  8
0
 62
     0
 10
275.225
 20
41.2171
 30
0.0
 11
276.95
 21
41.2171
 31
0.0
  0
LINE
  8
0
 62
     0
 10
276.95
 20
41.2171
 30
0.0
 11
276.95
 21
42.1375
 31
0.0
  0
LINE
  8
0
 62
     0
 10
276.95
 20
42.1375
 30
0.0
 11
280.25
 21
42.1375
 31
0.0
  0
LINE
  8
0
 62
     0
 10
280.25
 20
42.1375
 30
0.0
 11
280.25
 21
41.2171
 31
0.0
  0
LINE
  8
0
 62
     0
 10
280.25
 20
41.2171
 30
0.0
 11
281.875
 21
41.2171
 31
0.0
  0
LINE
  8
0
 62
     0
 10
281.875
 20
41.2171
 30
0.0
 11
281.875
 21
37.9871
 31
0.0
  0
LINE
  8
0
 62
     0
 10
281.875
 20
37.9871
 30
0.0
 11
282.75
 21
37.9871
 31
0.0
  0
LINE
  8
0
 62
     0
 10
282.75
 20
37.9871
 30
0.0
 11
282.75
 21
35.1868
 31
0.0
  0
LINE
  8
0
 62
     0
 10
282.75
 20
35.1868
 30
0.0
 11
281.875
 21
35.1868
 31
0.0
  0
LINE
  8
0
 62
     0
 10
285.557
 20
67.3876
 30
0.0
 11
285.557
 21
66.7879
 31
0.0
  0
LINE
  8
0
 62
     0
 10
285.557
 20
66.7879
 30
0.0
 11
271.556
 21
66.7879
 31
0.0
  0
LINE
  8
0
 62
     0
 10
271.556
 20
66.7879
 30
0.0
 11
271.556
 21
67.3876
 31
0.0
  0
LINE
  8
0
 62
     0
 10
271.556
 20
67.3876
 30
0.0
 11
270.757
 21
67.3876
 31
0.0
  0
LINE
  8
0
 62
     0
 10
270.757
 20
67.3876
 30
0.0
 11
270.757
 21
80.1882
 31
0.0
  0
LINE
  8
0
 62
     0
 10
270.757
 20
80.1882
 30
0.0
 11
271.556
 21
80.1882
 31
0.0
  0
LINE
  8
0
 62
     0
 10
271.556
 20
80.1882
 30
0.0
 11
271.556
 21
80.7875
 31
0.0
  0
LINE
  8
0
 62
     0
 10
271.556
 20
80.7875
 30
0.0
 11
285.557
 21
80.7875
 31
0.0
  0
LINE
  8
0
 62
     0
 10
285.557
 20
80.7875
 30
0.0
 11
285.557
 21
80.1882
 31
0.0
  0
LINE
  8
0
 62
     0
 10
285.557
 20
80.1882
 30
0.0
 11
286.356
 21
80.1882
 31
0.0
  0
LINE
  8
0
 62
     0
 10
286.356
 20
80.1882
 30
0.0
 11
286.356
 21
67.3876
 31
0.0
  0
LINE
  8
0
 62
     0
 10
286.356
 20
67.3876
 30
0.0
 11
285.557
 21
67.3876
 31
0.0
  0
LINE
  8
0
 62
     0
 10
286.638
 20
54.2368
 30
0.0
 11
286.638
 21
47.9683
 31
0.0
  0
LINE
  8
0
 62
     0
 10
286.638
 20
47.9683
 30
0.0
 11
285.013
 21
47.9683
 31
0.0
  0
LINE
  8
0
 62
     0
 10
285.013
 20
47.9683
 30
0.0
 11
285.013
 21
46.9868
 31
0.0
  0
LINE
  8
0
 62
     0
 10
285.013
 20
46.9868
 30
0.0
 11
281.712
 21
46.9868
 31
0.0
  0
LINE
  8
0
 62
     0
 10
281.712
 20
46.9868
 30
0.0
 11
281.712
 21
47.9683
 31
0.0
  0
LINE
  8
0
 62
     0
 10
281.712
 20
47.9683
 30
0.0
 11
279.988
 21
47.9683
 31
0.0
  0
LINE
  8
0
 62
     0
 10
279.988
 20
47.9683
 30
0.0
 11
279.988
 21
48.7673
 31
0.0
  0
LINE
  8
0
 62
     0
 10
279.988
 20
48.7673
 30
0.0
 11
279.213
 21
48.7673
 31
0.0
  0
LINE
  8
0
 62
     0
 10
279.213
 20
48.7673
 30
0.0
 11
279.213
 21
48.3376
 31
0.0
  0
LINE
  8
0
 62
     0
 10
279.213
 20
48.3376
 30
0.0
 11
278.413
 21
48.3376
 31
0.0
  0
LINE
  8
0
 62
     0
 10
278.413
 20
48.3376
 30
0.0
 11
278.413
 21
47.7379
 31
0.0
  0
LINE
  8
0
 62
     0
 10
278.413
 20
47.7379
 30
0.0
 11
264.413
 21
47.7379
 31
0.0
  0
LINE
  8
0
 62
     0
 10
264.413
 20
47.7379
 30
0.0
 11
264.413
 21
48.3376
 31
0.0
  0
LINE
  8
0
 62
     0
 10
264.413
 20
48.3376
 30
0.0
 11
263.613
 21
48.3376
 31
0.0
  0
LINE
  8
0
 62
     0
 10
263.613
 20
48.3376
 30
0.0
 11
263.613
 21
48.7673
 31
0.0
  0
LINE
  8
0
 62
     0
 10
263.613
 20
48.7673
 30
0.0
 11
262.837
 21
48.7673
 31
0.0
  0
LINE
  8
0
 62
     0
 10
262.837
 20
48.7673
 30
0.0
 11
262.837
 21
47.9683
 31
0.0
  0
LINE
  8
0
 62
     0
 10
262.837
 20
47.9683
 30
0.0
 11
261.113
 21
47.9683
 31
0.0
  0
LINE
  8
0
 62
     0
 10
261.113
 20
47.9683
 30
0.0
 11
261.113
 21
46.9868
 31
0.0
  0
LINE
  8
0
 62
     0
 10
261.113
 20
46.9868
 30
0.0
 11
257.813
 21
46.9868
 31
0.0
  0
LINE
  8
0
 62
     0
 10
257.813
 20
46.9868
 30
0.0
 11
257.813
 21
47.9683
 31
0.0
  0
LINE
  8
0
 62
     0
 10
257.813
 20
47.9683
 30
0.0
 11
256.188
 21
47.9683
 31
0.0
  0
LINE
  8
0
 62
     0
 10
256.188
 20
47.9683
 30
0.0
 11
256.188
 21
54.2368
 31
0.0
  0
LINE
  8
0
 62
     0
 10
256.188
 20
54.2368
 30
0.0
 11
255.313
 21
54.2368
 31
0.0
  0
LINE
  8
0
 62
     0
 10
255.313
 20
54.2368
 30
0.0
 11
255.313
 21
57.0371
 31
0.0
  0
LINE
  8
0
 62
     0
 10
255.313
 20
57.0371
 30
0.0
 11
256.188
 21
57.0371
 31
0.0
  0
LINE
  8
0
 62
     0
 10
256.188
 20
57.0371
 30
0.0
 11
256.188
 21
60.2671
 31
0.0
  0
LINE
  8
0
 62
     0
 10
256.188
 20
60.2671
 30
0.0
 11
257.813
 21
60.2671
 31
0.0
  0
LINE
  8
0
 62
     0
 10
257.813
 20
60.2671
 30
0.0
 11
257.813
 21
61.1875
 31
0.0
  0
LINE
  8
0
 62
     0
 10
257.813
 20
61.1875
 30
0.0
 11
261.113
 21
61.1875
 31
0.0
  0
LINE
  8
0
 62
     0
 10
261.113
 20
61.1875
 30
0.0
 11
261.113
 21
60.2671
 31
0.0
  0
LINE
  8
0
 62
     0
 10
261.113
 20
60.2671
 30
0.0
 11
262.837
 21
60.2671
 31
0.0
  0
LINE
  8
0
 62
     0
 10
262.837
 20
60.2671
 30
0.0
 11
262.837
 21
59.4678
 31
0.0
  0
LINE
  8
0
 62
     0
 10
262.837
 20
59.4678
 30
0.0
 11
263.613
 21
59.4678
 31
0.0
  0
LINE
  8
0
 62
     0
 10
263.613
 20
59.4678
 30
0.0
 11
263.613
 21
61.1382
 31
0.0
  0
LINE
  8
0
 62
     0
 10
263.613
 20
61.1382
 30
0.0
 11
264.413
 21
61.1382
 31
0.0
  0
LINE
  8
0
 62
     0
 10
264.413
 20
61.1382
 30
0.0
 11
264.413
 21
61.7375
 31
0.0
  0
LINE
  8
0
 62
     0
 10
264.413
 20
61.7375
 30
0.0
 11
278.413
 21
61.7375
 31
0.0
  0
LINE
  8
0
 62
     0
 10
278.413
 20
61.7375
 30
0.0
 11
278.413
 21
61.1382
 31
0.0
  0
LINE
  8
0
 62
     0
 10
278.413
 20
61.1382
 30
0.0
 11
279.213
 21
61.1382
 31
0.0
  0
LINE
  8
0
 62
     0
 10
279.213
 20
61.1382
 30
0.0
 11
279.213
 21
59.4678
 31
0.0
  0
LINE
  8
0
 62
     0
 10
279.213
 20
59.4678
 30
0.0
 11
279.988
 21
59.4678
 31
0.0
  0
LINE
  8
0
 62
     0
 10
279.988
 20
59.4678
 30
0.0
 11
279.988
 21
60.2671
 31
0.0
  0
LINE
  8
0
 62
     0
 10
279.988
 20
60.2671
 30
0.0
 11
281.712
 21
60.2671
 31
0.0
  0
LINE
  8
0
 62
     0
 10
281.712
 20
60.2671
 30
0.0
 11
281.712
 21
61.1875
 31
0.0
  0
LINE
  8
0
 62
     0
 10
281.712
 20
61.1875
 30
0.0
 11
285.013
 21
61.1875
 31
0.0
  0
LINE
  8
0
 62
     0
 10
285.013
 20
61.1875
 30
0.0
 11
285.013
 21
60.2671
 31
0.0
  0
LINE
  8
0
 62
     0
 10
285.013
 20
60.2671
 30
0.0
 11
286.638
 21
60.2671
 31
0.0
  0
LINE
  8
0
 62
     0
 10
286.638
 20
60.2671
 30
0.0
 11
286.638
 21
57.0371
 31
0.0
  0
LINE
  8
0
 62
     0
 10
286.638
 20
57.0371
 30
0.0
 11
287.512
 21
57.0371
 31
0.0
  0
LINE
  8
0
 62
     0
 10
287.512
 20
57.0371
 30
0.0
 11
287.512
 21
54.2368
 31
0.0
  0
LINE
  8
0
 62
     0
 10
287.512
 20
54.2368
 30
0.0
 11
286.638
 21
54.2368
 31
0.0
  0
LINE
  8
0
 62
     0
 10
287.938
 20
10.2374
 30
0.0
 11
287.938
 21
9.63799
 31
0.0
  0
LINE
  8
0
 62
     0
 10
287.938
 20
9.63799
 30
0.0
 11
273.938
 21
9.63799
 31
0.0
  0
LINE
  8
0
 62
     0
 10
273.938
 20
9.63799
 30
0.0
 11
273.938
 21
10.2374
 31
0.0
  0
LINE
  8
0
 62
     0
 10
273.938
 20
10.2374
 30
0.0
 11
273.138
 21
10.2374
 31
0.0
  0
LINE
  8
0
 62
     0
 10
273.138
 20
10.2374
 30
0.0
 11
273.138
 21
23.038
 31
0.0
  0
LINE
  8
0
 62
     0
 10
273.138
 20
23.038
 30
0.0
 11
273.938
 21
23.038
 31
0.0
  0
LINE
  8
0
 62
     0
 10
273.938
 20
23.038
 30
0.0
 11
273.938
 21
23.6375
 31
0.0
  0
LINE
  8
0
 62
     0
 10
273.938
 20
23.6375
 30
0.0
 11
287.938
 21
23.6375
 31
0.0
  0
LINE
  8
0
 62
     0
 10
287.938
 20
23.6375
 30
0.0
 11
287.938
 21
23.038
 31
0.0
  0
LINE
  8
0
 62
     0
 10
287.938
 20
23.038
 30
0.0
 11
288.738
 21
23.038
 31
0.0
  0
LINE
  8
0
 62
     0
 10
288.738
 20
23.038
 30
0.0
 11
288.738
 21
10.2374
 31
0.0
  0
LINE
  8
0
 62
     0
 10
288.738
 20
10.2374
 30
0.0
 11
287.938
 21
10.2374
 31
0.0
  0
LINE
  8
0
 62
     0
 10
289.019
 20
92.3368
 30
0.0
 11
289.019
 21
86.0683
 31
0.0
  0
LINE
  8
0
 62
     0
 10
289.019
 20
86.0683
 30
0.0
 11
287.394
 21
86.0683
 31
0.0
  0
LINE
  8
0
 62
     0
 10
287.394
 20
86.0683
 30
0.0
 11
287.394
 21
85.0868
 31
0.0
  0
LINE
  8
0
 62
     0
 10
287.394
 20
85.0868
 30
0.0
 11
284.094
 21
85.0868
 31
0.0
  0
LINE
  8
0
 62
     0
 10
284.094
 20
85.0868
 30
0.0
 11
284.094
 21
86.0683
 31
0.0
  0
LINE
  8
0
 62
     0
 10
284.094
 20
86.0683
 30
0.0
 11
282.368
 21
86.0683
 31
0.0
  0
LINE
  8
0
 62
     0
 10
282.368
 20
86.0683
 30
0.0
 11
282.368
 21
86.8673
 31
0.0
  0
LINE
  8
0
 62
     0
 10
282.368
 20
86.8673
 30
0.0
 11
281.594
 21
86.8673
 31
0.0
  0
LINE
  8
0
 62
     0
 10
281.594
 20
86.8673
 30
0.0
 11
281.594
 21
86.4376
 31
0.0
  0
LINE
  8
0
 62
     0
 10
281.594
 20
86.4376
 30
0.0
 11
280.793
 21
86.4376
 31
0.0
  0
LINE
  8
0
 62
     0
 10
280.793
 20
86.4376
 30
0.0
 11
280.793
 21
85.8379
 31
0.0
  0
LINE
  8
0
 62
     0
 10
280.793
 20
85.8379
 30
0.0
 11
266.794
 21
85.8379
 31
0.0
  0
LINE
  8
0
 62
     0
 10
266.794
 20
85.8379
 30
0.0
 11
266.794
 21
86.4376
 31
0.0
  0
LINE
  8
0
 62
     0
 10
266.794
 20
86.4376
 30
0.0
 11
265.993
 21
86.4376
 31
0.0
  0
LINE
  8
0
 62
     0
 10
265.993
 20
86.4376
 30
0.0
 11
265.993
 21
86.8673
 31
0.0
  0
LINE
  8
0
 62
     0
 10
265.993
 20
86.8673
 30
0.0
 11
265.219
 21
86.8673
 31
0.0
  0
LINE
  8
0
 62
     0
 10
265.219
 20
86.8673
 30
0.0
 11
265.219
 21
86.0683
 31
0.0
  0
LINE
  8
0
 62
     0
 10
265.219
 20
86.0683
 30
0.0
 11
263.493
 21
86.0683
 31
0.0
  0
LINE
  8
0
 62
     0
 10
263.493
 20
86.0683
 30
0.0
 11
263.493
 21
85.0868
 31
0.0
  0
LINE
  8
0
 62
     0
 10
263.493
 20
85.0868
 30
0.0
 11
260.194
 21
85.0868
 31
0.0
  0
LINE
  8
0
 62
     0
 10
260.194
 20
85.0868
 30
0.0
 11
260.194
 21
86.0683
 31
0.0
  0
LINE
  8
0
 62
     0
 10
260.194
 20
86.0683
 30
0.0
 11
258.568
 21
86.0683
 31
0.0
  0
LINE
  8
0
 62
     0
 10
258.568
 20
86.0683
 30
0.0
 11
258.568
 21
92.3368
 31
0.0
  0
LINE
  8
0
 62
     0
 10
258.568
 20
92.3368
 30
0.0
 11
257.693
 21
92.3368
 31
0.0
  0
LINE
  8
0
 62
     0
 10
257.693
 20
92.3368
 30
0.0
 11
257.693
 21
95.1371
 31
0.0
  0
LINE
  8
0
 62
     0
 10
257.693
 20
95.1371
 30
0.0
 11
258.568
 21
95.1371
 31
0.0
  0
LINE
  8
0
 62
     0
 10
258.568
 20
95.1371
 30
0.0
 11
258.568
 21
98.3671
 31
0.0
  0
LINE
  8
0
 62
     0
 10
258.568
 20
98.3671
 30
0.0
 11
260.194
 21
98.3671
 31
0.0
  0
LINE
  8
0
 62
     0
 10
260.194
 20
98.3671
 30
0.0
 11
260.194
 21
99.2875
 31
0.0
  0
LINE
  8
0
 62
     0
 10
260.194
 20
99.2875
 30
0.0
 11
263.493
 21
99.2875
 31
0.0
  0
LINE
  8
0
 62
     0
 10
263.493
 20
99.2875
 30
0.0
 11
263.493
 21
98.3671
 31
0.0
  0
LINE
  8
0
 62
     0
 10
263.493
 20
98.3671
 30
0.0
 11
265.219
 21
98.3671
 31
0.0
  0
LINE
  8
0
 62
     0
 10
265.219
 20
98.3671
 30
0.0
 11
265.219
 21
97.5678
 31
0.0
  0
LINE
  8
0
 62
     0
 10
265.219
 20
97.5678
 30
0.0
 11
265.993
 21
97.5678
 31
0.0
  0
LINE
  8
0
 62
     0
 10
265.993
 20
97.5678
 30
0.0
 11
265.993
 21
99.2382
 31
0.0
  0
LINE
  8
0
 62
     0
 10
265.993
 20
99.2382
 30
0.0
 11
266.794
 21
99.2382
 31
0.0
  0
LINE
  8
0
 62
     0
 10
266.794
 20
99.2382
 30
0.0
 11
266.794
 21
99.8375
 31
0.0
  0
LINE
  8
0
 62
     0
 10
266.794
 20
99.8375
 30
0.0
 11
280.793
 21
99.8375
 31
0.0
  0
LINE
  8
0
 62
     0
 10
280.793
 20
99.8375
 30
0.0
 11
280.793
 21
99.2382
 31
0.0
  0
LINE
  8
0
 62
     0
 10
280.793
 20
99.2382
 30
0.0
 11
281.594
 21
99.2382
 31
0.0
  0
LINE
  8
0
 62
     0
 10
281.594
 20
99.2382
 30
0.0
 11
281.594
 21
97.5678
 31
0.0
  0
LINE
  8
0
 62
     0
 10
281.594
 20
97.5678
 30
0.0
 11
282.368
 21
97.5678
 31
0.0
  0
LINE
  8
0
 62
     0
 10
282.368
 20
97.5678
 30
0.0
 11
282.368
 21
98.3671
 31
0.0
  0
LINE
  8
0
 62
     0
 10
282.368
 20
98.3671
 30
0.0
 11
284.094
 21
98.3671
 31
0.0
  0
LINE
  8
0
 62
     0
 10
284.094
 20
98.3671
 30
0.0
 11
284.094
 21
99.2875
 31
0.0
  0
LINE
  8
0
 62
     0
 10
284.094
 20
99.2875
 30
0.0
 11
287.394
 21
99.2875
 31
0.0
  0
LINE
  8
0
 62
     0
 10
287.394
 20
99.2875
 30
0.0
 11
287.394
 21
98.3671
 31
0.0
  0
LINE
  8
0
 62
     0
 10
287.394
 20
98.3671
 30
0.0
 11
289.019
 21
98.3671
 31
0.0
  0
LINE
  8
0
 62
     0
 10
289.019
 20
98.3671
 30
0.0
 11
289.019
 21
95.1371
 31
0.0
  0
LINE
  8
0
 62
     0
 10
289.019
 20
95.1371
 30
0.0
 11
289.894
 21
95.1371
 31
0.0
  0
LINE
  8
0
 62
     0
 10
289.894
 20
95.1371
 30
0.0
 11
289.894
 21
92.3368
 31
0.0
  0
LINE
  8
0
 62
     0
 10
289.894
 20
92.3368
 30
0.0
 11
289.019
 21
92.3368
 31
0.0
  0
LINE
  8
0
 62
     0
 10
290.318
 20
115.013
 30
0.0
 11
290.318
 21
114.413
 31
0.0
  0
LINE
  8
0
 62
     0
 10
290.318
 20
114.413
 30
0.0
 11
276.319
 21
114.413
 31
0.0
  0
LINE
  8
0
 62
     0
 10
276.319
 20
114.413
 30
0.0
 11
276.319
 21
115.013
 31
0.0
  0
LINE
  8
0
 62
     0
 10
276.319
 20
115.013
 30
0.0
 11
275.518
 21
115.013
 31
0.0
  0
LINE
  8
0
 62
     0
 10
275.518
 20
115.013
 30
0.0
 11
275.518
 21
127.813
 31
0.0
  0
LINE
  8
0
 62
     0
 10
275.518
 20
127.813
 30
0.0
 11
276.319
 21
127.813
 31
0.0
  0
LINE
  8
0
 62
     0
 10
276.319
 20
127.813
 30
0.0
 11
276.319
 21
128.413
 31
0.0
  0
LINE
  8
0
 62
     0
 10
276.319
 20
128.413
 30
0.0
 11
290.318
 21
128.413
 31
0.0
  0
LINE
  8
0
 62
     0
 10
290.318
 20
128.413
 30
0.0
 11
290.318
 21
127.813
 31
0.0
  0
LINE
  8
0
 62
     0
 10
290.318
 20
127.813
 30
0.0
 11
291.119
 21
127.813
 31
0.0
  0
LINE
  8
0
 62
     0
 10
291.119
 20
127.813
 30
0.0
 11
291.119
 21
115.013
 31
0.0
  0
LINE
  8
0
 62
     0
 10
291.119
 20
115.013
 30
0.0
 11
290.318
 21
115.013
 31
0.0
  0
LINE
  8
0
 62
     0
 10
314.132
 20
86.4376
 30
0.0
 11
314.132
 21
85.8379
 31
0.0
  0
LINE
  8
0
 62
     0
 10
314.132
 20
85.8379
 30
0.0
 11
300.131
 21
85.8379
 31
0.0
  0
LINE
  8
0
 62
     0
 10
300.131
 20
85.8379
 30
0.0
 11
300.131
 21
86.4376
 31
0.0
  0
LINE
  8
0
 62
     0
 10
300.131
 20
86.4376
 30
0.0
 11
299.332
 21
86.4376
 31
0.0
  0
LINE
  8
0
 62
     0
 10
299.332
 20
86.4376
 30
0.0
 11
299.332
 21
99.2382
 31
0.0
  0
LINE
  8
0
 62
     0
 10
299.332
 20
99.2382
 30
0.0
 11
300.131
 21
99.2382
 31
0.0
  0
LINE
  8
0
 62
     0
 10
300.131
 20
99.2382
 30
0.0
 11
300.131
 21
99.8375
 31
0.0
  0
LINE
  8
0
 62
     0
 10
300.131
 20
99.8375
 30
0.0
 11
314.132
 21
99.8375
 31
0.0
  0
LINE
  8
0
 62
     0
 10
314.132
 20
99.8375
 30
0.0
 11
314.132
 21
99.2382
 31
0.0
  0
LINE
  8
0
 62
     0
 10
314.132
 20
99.2382
 30
0.0
 11
314.931
 21
99.2382
 31
0.0
  0
LINE
  8
0
 62
     0
 10
314.931
 20
99.2382
 30
0.0
 11
314.931
 21
86.4376
 31
0.0
  0
LINE
  8
0
 62
     0
 10
314.931
 20
86.4376
 30
0.0
 11
314.132
 21
86.4376
 31
0.0
  0
LINE
  8
0
 62
     0
 10
314.132
 20
67.3876
 30
0.0
 11
314.132
 21
66.7879
 31
0.0
  0
LINE
  8
0
 62
     0
 10
314.132
 20
66.7879
 30
0.0
 11
300.131
 21
66.7879
 31
0.0
  0
LINE
  8
0
 62
     0
 10
300.131
 20
66.7879
 30
0.0
 11
300.131
 21
67.3876
 31
0.0
  0
LINE
  8
0
 62
     0
 10
300.131
 20
67.3876
 30
0.0
 11
299.332
 21
67.3876
 31
0.0
  0
LINE
  8
0
 62
     0
 10
299.332
 20
67.3876
 30
0.0
 11
299.332
 21
80.1882
 31
0.0
  0
LINE
  8
0
 62
     0
 10
299.332
 20
80.1882
 30
0.0
 11
300.131
 21
80.1882
 31
0.0
  0
LINE
  8
0
 62
     0
 10
300.131
 20
80.1882
 30
0.0
 11
300.131
 21
80.7875
 31
0.0
  0
LINE
  8
0
 62
     0
 10
300.131
 20
80.7875
 30
0.0
 11
314.132
 21
80.7875
 31
0.0
  0
LINE
  8
0
 62
     0
 10
314.132
 20
80.7875
 30
0.0
 11
314.132
 21
80.1882
 31
0.0
  0
LINE
  8
0
 62
     0
 10
314.132
 20
80.1882
 30
0.0
 11
314.931
 21
80.1882
 31
0.0
  0
LINE
  8
0
 62
     0
 10
314.931
 20
80.1882
 30
0.0
 11
314.931
 21
67.3876
 31
0.0
  0
LINE
  8
0
 62
     0
 10
314.931
 20
67.3876
 30
0.0
 11
314.132
 21
67.3876
 31
0.0
  0
LINE
  8
0
 62
     0
 10
314.132
 20
10.2374
 30
0.0
 11
314.132
 21
9.63799
 31
0.0
  0
LINE
  8
0
 62
     0
 10
314.132
 20
9.63799
 30
0.0
 11
300.131
 21
9.63799
 31
0.0
  0
LINE
  8
0
 62
     0
 10
300.131
 20
9.63799
 30
0.0
 11
300.131
 21
10.2374
 31
0.0
  0
LINE
  8
0
 62
     0
 10
300.131
 20
10.2374
 30
0.0
 11
299.332
 21
10.2374
 31
0.0
  0
LINE
  8
0
 62
     0
 10
299.332
 20
10.2374
 30
0.0
 11
299.332
 21
23.038
 31
0.0
  0
LINE
  8
0
 62
     0
 10
299.332
 20
23.038
 30
0.0
 11
300.131
 21
23.038
 31
0.0
  0
LINE
  8
0
 62
     0
 10
300.131
 20
23.038
 30
0.0
 11
300.131
 21
23.6375
 31
0.0
  0
LINE
  8
0
 62
     0
 10
300.131
 20
23.6375
 30
0.0
 11
314.132
 21
23.6375
 31
0.0
  0
LINE
  8
0
 62
     0
 10
314.132
 20
23.6375
 30
0.0
 11
314.132
 21
23.038
 31
0.0
  0
LINE
  8
0
 62
     0
 10
314.132
 20
23.038
 30
0.0
 11
314.931
 21
23.038
 31
0.0
  0
LINE
  8
0
 62
     0
 10
314.931
 20
23.038
 30
0.0
 11
314.931
 21
10.2374
 31
0.0
  0
LINE
  8
0
 62
     0
 10
314.931
 20
10.2374
 30
0.0
 11
314.132
 21
10.2374
 31
0.0
  0
LINE
  8
0
 62
     0
 10
314.132
 20
115.013
 30
0.0
 11
314.132
 21
114.413
 31
0.0
  0
LINE
  8
0
 62
     0
 10
314.132
 20
114.413
 30
0.0
 11
300.131
 21
114.413
 31
0.0
  0
LINE
  8
0
 62
     0
 10
300.131
 20
114.413
 30
0.0
 11
300.131
 21
115.013
 31
0.0
  0
LINE
  8
0
 62
     0
 10
300.131
 20
115.013
 30
0.0
 11
299.332
 21
115.013
 31
0.0
  0
LINE
  8
0
 62
     0
 10
299.332
 20
115.013
 30
0.0
 11
299.332
 21
127.813
 31
0.0
  0
LINE
  8
0
 62
     0
 10
299.332
 20
127.813
 30
0.0
 11
300.131
 21
127.813
 31
0.0
  0
LINE
  8
0
 62
     0
 10
300.131
 20
127.813
 30
0.0
 11
300.131
 21
128.413
 31
0.0
  0
LINE
  8
0
 62
     0
 10
300.131
 20
128.413
 30
0.0
 11
314.132
 21
128.413
 31
0.0
  0
LINE
  8
0
 62
     0
 10
314.132
 20
128.413
 30
0.0
 11
314.132
 21
127.813
 31
0.0
  0
LINE
  8
0
 62
     0
 10
314.132
 20
127.813
 30
0.0
 11
314.931
 21
127.813
 31
0.0
  0
LINE
  8
0
 62
     0
 10
314.931
 20
127.813
 30
0.0
 11
314.931
 21
115.013
 31
0.0
  0
LINE
  8
0
 62
     0
 10
314.931
 20
115.013
 30
0.0
 11
314.132
 21
115.013
 31
0.0
  0
LINE
  8
0
 62
     0
 10
333.182
 20
86.4376
 30
0.0
 11
333.182
 21
85.8379
 31
0.0
  0
LINE
  8
0
 62
     0
 10
333.182
 20
85.8379
 30
0.0
 11
319.181
 21
85.8379
 31
0.0
  0
LINE
  8
0
 62
     0
 10
319.181
 20
85.8379
 30
0.0
 11
319.181
 21
86.4376
 31
0.0
  0
LINE
  8
0
 62
     0
 10
319.181
 20
86.4376
 30
0.0
 11
318.382
 21
86.4376
 31
0.0
  0
LINE
  8
0
 62
     0
 10
318.382
 20
86.4376
 30
0.0
 11
318.382
 21
99.2382
 31
0.0
  0
LINE
  8
0
 62
     0
 10
318.382
 20
99.2382
 30
0.0
 11
319.181
 21
99.2382
 31
0.0
  0
LINE
  8
0
 62
     0
 10
319.181
 20
99.2382
 30
0.0
 11
319.181
 21
99.8375
 31
0.0
  0
LINE
  8
0
 62
     0
 10
319.181
 20
99.8375
 30
0.0
 11
333.182
 21
99.8375
 31
0.0
  0
LINE
  8
0
 62
     0
 10
333.182
 20
99.8375
 30
0.0
 11
333.182
 21
99.2382
 31
0.0
  0
LINE
  8
0
 62
     0
 10
333.182
 20
99.2382
 30
0.0
 11
333.981
 21
99.2382
 31
0.0
  0
LINE
  8
0
 62
     0
 10
333.981
 20
99.2382
 30
0.0
 11
333.981
 21
86.4376
 31
0.0
  0
LINE
  8
0
 62
     0
 10
333.981
 20
86.4376
 30
0.0
 11
333.182
 21
86.4376
 31
0.0
  0
LINE
  8
0
 62
     0
 10
333.182
 20
67.3876
 30
0.0
 11
333.182
 21
66.7879
 31
0.0
  0
LINE
  8
0
 62
     0
 10
333.182
 20
66.7879
 30
0.0
 11
319.181
 21
66.7879
 31
0.0
  0
LINE
  8
0
 62
     0
 10
319.181
 20
66.7879
 30
0.0
 11
319.181
 21
67.3876
 31
0.0
  0
LINE
  8
0
 62
     0
 10
319.181
 20
67.3876
 30
0.0
 11
318.382
 21
67.3876
 31
0.0
  0
LINE
  8
0
 62
     0
 10
318.382
 20
67.3876
 30
0.0
 11
318.382
 21
80.1882
 31
0.0
  0
LINE
  8
0
 62
     0
 10
318.382
 20
80.1882
 30
0.0
 11
319.181
 21
80.1882
 31
0.0
  0
LINE
  8
0
 62
     0
 10
319.181
 20
80.1882
 30
0.0
 11
319.181
 21
80.7875
 31
0.0
  0
LINE
  8
0
 62
     0
 10
319.181
 20
80.7875
 30
0.0
 11
333.182
 21
80.7875
 31
0.0
  0
LINE
  8
0
 62
     0
 10
333.182
 20
80.7875
 30
0.0
 11
333.182
 21
80.1882
 31
0.0
  0
LINE
  8
0
 62
     0
 10
333.182
 20
80.1882
 30
0.0
 11
333.981
 21
80.1882
 31
0.0
  0
LINE
  8
0
 62
     0
 10
333.981
 20
80.1882
 30
0.0
 11
333.981
 21
67.3876
 31
0.0
  0
LINE
  8
0
 62
     0
 10
333.981
 20
67.3876
 30
0.0
 11
333.182
 21
67.3876
 31
0.0
  0
LINE
  8
0
 62
     0
 10
333.182
 20
10.2374
 30
0.0
 11
333.182
 21
9.63799
 31
0.0
  0
LINE
  8
0
 62
     0
 10
333.182
 20
9.63799
 30
0.0
 11
319.181
 21
9.63799
 31
0.0
  0
LINE
  8
0
 62
     0
 10
319.181
 20
9.63799
 30
0.0
 11
319.181
 21
10.2374
 31
0.0
  0
LINE
  8
0
 62
     0
 10
319.181
 20
10.2374
 30
0.0
 11
318.382
 21
10.2374
 31
0.0
  0
LINE
  8
0
 62
     0
 10
318.382
 20
10.2374
 30
0.0
 11
318.382
 21
23.038
 31
0.0
  0
LINE
  8
0
 62
     0
 10
318.382
 20
23.038
 30
0.0
 11
319.181
 21
23.038
 31
0.0
  0
LINE
  8
0
 62
     0
 10
319.181
 20
23.038
 30
0.0
 11
319.181
 21
23.6375
 31
0.0
  0
LINE
  8
0
 62
     0
 10
319.181
 20
23.6375
 30
0.0
 11
333.182
 21
23.6375
 31
0.0
  0
LINE
  8
0
 62
     0
 10
333.182
 20
23.6375
 30
0.0
 11
333.182
 21
23.038
 31
0.0
  0
LINE
  8
0
 62
     0
 10
333.182
 20
23.038
 30
0.0
 11
333.981
 21
23.038
 31
0.0
  0
LINE
  8
0
 62
     0
 10
333.981
 20
23.038
 30
0.0
 11
333.981
 21
10.2374
 31
0.0
  0
LINE
  8
0
 62
     0
 10
333.981
 20
10.2374
 30
0.0
 11
333.182
 21
10.2374
 31
0.0
  0
LINE
  8
0
 62
     0
 10
333.182
 20
115.013
 30
0.0
 11
333.182
 21
114.413
 31
0.0
  0
LINE
  8
0
 62
     0
 10
333.182
 20
114.413
 30
0.0
 11
319.181
 21
114.413
 31
0.0
  0
LINE
  8
0
 62
     0
 10
319.181
 20
114.413
 30
0.0
 11
319.181
 21
115.013
 31
0.0
  0
LINE
  8
0
 62
     0
 10
319.181
 20
115.013
 30
0.0
 11
318.382
 21
115.013
 31
0.0
  0
LINE
  8
0
 62
     0
 10
318.382
 20
115.013
 30
0.0
 11
318.382
 21
127.813
 31
0.0
  0
LINE
  8
0
 62
     0
 10
318.382
 20
127.813
 30
0.0
 11
319.181
 21
127.813
 31
0.0
  0
LINE
  8
0
 62
     0
 10
319.181
 20
127.813
 30
0.0
 11
319.181
 21
128.413
 31
0.0
  0
LINE
  8
0
 62
     0
 10
319.181
 20
128.413
 30
0.0
 11
333.182
 21
128.413
 31
0.0
  0
LINE
  8
0
 62
     0
 10
333.182
 20
128.413
 30
0.0
 11
333.182
 21
127.813
 31
0.0
  0
LINE
  8
0
 62
     0
 10
333.182
 20
127.813
 30
0.0
 11
333.981
 21
127.813
 31
0.0
  0
LINE
  8
0
 62
     0
 10
333.981
 20
127.813
 30
0.0
 11
333.981
 21
115.013
 31
0.0
  0
LINE
  8
0
 62
     0
 10
333.981
 20
115.013
 30
0.0
 11
333.182
 21
115.013
 31
0.0
  0
LINE
  8
0
 62
     0
 10
333.182
 20
29.2874
 30
0.0
 11
333.182
 21
28.688
 31
0.0
  0
LINE
  8
0
 62
     0
 10
333.182
 20
28.688
 30
0.0
 11
319.181
 21
28.688
 31
0.0
  0
LINE
  8
0
 62
     0
 10
319.181
 20
28.688
 30
0.0
 11
319.181
 21
29.2874
 31
0.0
  0
LINE
  8
0
 62
     0
 10
319.181
 20
29.2874
 30
0.0
 11
318.382
 21
29.2874
 31
0.0
  0
LINE
  8
0
 62
     0
 10
318.382
 20
29.2874
 30
0.0
 11
318.382
 21
42.0882
 31
0.0
  0
LINE
  8
0
 62
     0
 10
318.382
 20
42.0882
 30
0.0
 11
319.181
 21
42.0882
 31
0.0
  0
LINE
  8
0
 62
     0
 10
319.181
 20
42.0882
 30
0.0
 11
319.181
 21
42.6875
 31
0.0
  0
LINE
  8
0
 62
     0
 10
319.181
 20
42.6875
 30
0.0
 11
333.182
 21
42.6875
 31
0.0
  0
LINE
  8
0
 62
     0
 10
333.182
 20
42.6875
 30
0.0
 11
333.182
 21
42.0882
 31
0.0
  0
LINE
  8
0
 62
     0
 10
333.182
 20
42.0882
 30
0.0
 11
333.981
 21
42.0882
 31
0.0
  0
LINE
  8
0
 62
     0
 10
333.981
 20
42.0882
 30
0.0
 11
333.981
 21
29.2874
 31
0.0
  0
LINE
  8
0
 62
     0
 10
333.981
 20
29.2874
 30
0.0
 11
333.182
 21
29.2874
 31
0.0
  0
LINE
  8
0
 62
     0
 10
352.232
 20
86.4376
 30
0.0
 11
352.232
 21
85.8379
 31
0.0
  0
LINE
  8
0
 62
     0
 10
352.232
 20
85.8379
 30
0.0
 11
338.231
 21
85.8379
 31
0.0
  0
LINE
  8
0
 62
     0
 10
338.231
 20
85.8379
 30
0.0
 11
338.231
 21
86.4376
 31
0.0
  0
LINE
  8
0
 62
     0
 10
338.231
 20
86.4376
 30
0.0
 11
337.432
 21
86.4376
 31
0.0
  0
LINE
  8
0
 62
     0
 10
337.432
 20
86.4376
 30
0.0
 11
337.432
 21
99.2382
 31
0.0
  0
LINE
  8
0
 62
     0
 10
337.432
 20
99.2382
 30
0.0
 11
338.231
 21
99.2382
 31
0.0
  0
LINE
  8
0
 62
     0
 10
338.231
 20
99.2382
 30
0.0
 11
338.231
 21
99.8375
 31
0.0
  0
LINE
  8
0
 62
     0
 10
338.231
 20
99.8375
 30
0.0
 11
352.232
 21
99.8375
 31
0.0
  0
LINE
  8
0
 62
     0
 10
352.232
 20
99.8375
 30
0.0
 11
352.232
 21
99.2382
 31
0.0
  0
LINE
  8
0
 62
     0
 10
352.232
 20
99.2382
 30
0.0
 11
353.032
 21
99.2382
 31
0.0
  0
LINE
  8
0
 62
     0
 10
353.032
 20
99.2382
 30
0.0
 11
353.032
 21
86.4376
 31
0.0
  0
LINE
  8
0
 62
     0
 10
353.032
 20
86.4376
 30
0.0
 11
352.232
 21
86.4376
 31
0.0
  0
LINE
  8
0
 62
     0
 10
352.232
 20
67.3876
 30
0.0
 11
352.232
 21
66.7879
 31
0.0
  0
LINE
  8
0
 62
     0
 10
352.232
 20
66.7879
 30
0.0
 11
338.231
 21
66.7879
 31
0.0
  0
LINE
  8
0
 62
     0
 10
338.231
 20
66.7879
 30
0.0
 11
338.231
 21
67.3876
 31
0.0
  0
LINE
  8
0
 62
     0
 10
338.231
 20
67.3876
 30
0.0
 11
337.432
 21
67.3876
 31
0.0
  0
LINE
  8
0
 62
     0
 10
337.432
 20
67.3876
 30
0.0
 11
337.432
 21
80.1882
 31
0.0
  0
LINE
  8
0
 62
     0
 10
337.432
 20
80.1882
 30
0.0
 11
338.231
 21
80.1882
 31
0.0
  0
LINE
  8
0
 62
     0
 10
338.231
 20
80.1882
 30
0.0
 11
338.231
 21
80.7875
 31
0.0
  0
LINE
  8
0
 62
     0
 10
338.231
 20
80.7875
 30
0.0
 11
352.232
 21
80.7875
 31
0.0
  0
LINE
  8
0
 62
     0
 10
352.232
 20
80.7875
 30
0.0
 11
352.232
 21
80.1882
 31
0.0
  0
LINE
  8
0
 62
     0
 10
352.232
 20
80.1882
 30
0.0
 11
353.032
 21
80.1882
 31
0.0
  0
LINE
  8
0
 62
     0
 10
353.032
 20
80.1882
 30
0.0
 11
353.032
 21
67.3876
 31
0.0
  0
LINE
  8
0
 62
     0
 10
353.032
 20
67.3876
 30
0.0
 11
352.232
 21
67.3876
 31
0.0
  0
LINE
  8
0
 62
     0
 10
352.232
 20
10.2374
 30
0.0
 11
352.232
 21
9.63799
 31
0.0
  0
LINE
  8
0
 62
     0
 10
352.232
 20
9.63799
 30
0.0
 11
338.231
 21
9.63799
 31
0.0
  0
LINE
  8
0
 62
     0
 10
338.231
 20
9.63799
 30
0.0
 11
338.231
 21
10.2374
 31
0.0
  0
LINE
  8
0
 62
     0
 10
338.231
 20
10.2374
 30
0.0
 11
337.432
 21
10.2374
 31
0.0
  0
LINE
  8
0
 62
     0
 10
337.432
 20
10.2374
 30
0.0
 11
337.432
 21
23.038
 31
0.0
  0
LINE
  8
0
 62
     0
 10
337.432
 20
23.038
 30
0.0
 11
338.231
 21
23.038
 31
0.0
  0
LINE
  8
0
 62
     0
 10
338.231
 20
23.038
 30
0.0
 11
338.231
 21
23.6375
 31
0.0
  0
LINE
  8
0
 62
     0
 10
338.231
 20
23.6375
 30
0.0
 11
352.232
 21
23.6375
 31
0.0
  0
LINE
  8
0
 62
     0
 10
352.232
 20
23.6375
 30
0.0
 11
352.232
 21
23.038
 31
0.0
  0
LINE
  8
0
 62
     0
 10
352.232
 20
23.038
 30
0.0
 11
353.032
 21
23.038
 31
0.0
  0
LINE
  8
0
 62
     0
 10
353.032
 20
23.038
 30
0.0
 11
353.032
 21
10.2374
 31
0.0
  0
LINE
  8
0
 62
     0
 10
353.032
 20
10.2374
 30
0.0
 11
352.232
 21
10.2374
 31
0.0
  0
LINE
  8
0
 62
     0
 10
352.232
 20
115.013
 30
0.0
 11
352.232
 21
114.413
 31
0.0
  0
LINE
  8
0
 62
     0
 10
352.232
 20
114.413
 30
0.0
 11
338.231
 21
114.413
 31
0.0
  0
LINE
  8
0
 62
     0
 10
338.231
 20
114.413
 30
0.0
 11
338.231
 21
115.013
 31
0.0
  0
LINE
  8
0
 62
     0
 10
338.231
 20
115.013
 30
0.0
 11
337.432
 21
115.013
 31
0.0
  0
LINE
  8
0
 62
     0
 10
337.432
 20
115.013
 30
0.0
 11
337.432
 21
127.813
 31
0.0
  0
LINE
  8
0
 62
     0
 10
337.432
 20
127.813
 30
0.0
 11
338.231
 21
127.813
 31
0.0
  0
LINE
  8
0
 62
     0
 10
338.231
 20
127.813
 30
0.0
 11
338.231
 21
128.413
 31
0.0
  0
LINE
  8
0
 62
     0
 10
338.231
 20
128.413
 30
0.0
 11
352.232
 21
128.413
 31
0.0
  0
LINE
  8
0
 62
     0
 10
352.232
 20
128.413
 30
0.0
 11
352.232
 21
127.813
 31
0.0
  0
LINE
  8
0
 62
     0
 10
352.232
 20
127.813
 30
0.0
 11
353.032
 21
127.813
 31
0.0
  0
LINE
  8
0
 62
     0
 10
353.032
 20
127.813
 30
0.0
 11
353.032
 21
115.013
 31
0.0
  0
LINE
  8
0
 62
     0
 10
353.032
 20
115.013
 30
0.0
 11
352.232
 21
115.013
 31
0.0
  0
ENDSEC
  0
EOF
