  0
SECTION
  2
HEADER
  9
$ACADVER
  1
AC1009
  9
$EXTMIN
 10
0.0
 20
0.0
 30
0.0
  9
$EXTMAX
 10
1000.0
 20
1000.0
 30
0.0
  9
$FILLMODE
 70
 0
  9
$SPLFRAME
 70
 1
  0
ENDSEC
  0
SECTION
  2
TABLES
  0
TABLE
  2
LAYER
 70
1
  0
LAYER
  2
0
 70
     0
 62
     7
  6
CONTINUOUS
  0
ENDTAB
  0
ENDSEC
  0
SECTION
  2
ENTITIES
  0
LINE
  8
0
 62
     0
 10
365.756
 20
143.938
 30
0.0
 11
365.912
 21
143.932
 31
0.0
  0
LINE
  8
0
 62
     0
 10
365.912
 20
143.932
 30
0.0
 11
366.07
 21
143.913
 31
0.0
  0
LINE
  8
0
 62
     0
 10
366.07
 20
143.913
 30
0.0
 11
366.222
 21
143.882
 31
0.0
  0
LINE
  8
0
 62
     0
 10
366.222
 20
143.882
 30
0.0
 11
366.374
 21
143.839
 31
0.0
  0
LINE
  8
0
 62
     0
 10
366.374
 20
143.839
 30
0.0
 11
366.522
 21
143.786
 31
0.0
  0
LINE
  8
0
 62
     0
 10
366.522
 20
143.786
 30
0.0
 11
366.663
 21
143.72
 31
0.0
  0
LINE
  8
0
 62
     0
 10
366.663
 20
143.72
 30
0.0
 11
366.801
 21
143.643
 31
0.0
  0
LINE
  8
0
 62
     0
 10
366.801
 20
143.643
 30
0.0
 11
366.931
 21
143.556
 31
0.0
  0
LINE
  8
0
 62
     0
 10
366.931
 20
143.556
 30
0.0
 11
367.055
 21
143.458
 31
0.0
  0
LINE
  8
0
 62
     0
 10
367.055
 20
143.458
 30
0.0
 11
367.171
 21
143.352
 31
0.0
  0
LINE
  8
0
 62
     0
 10
367.171
 20
143.352
 30
0.0
 11
367.277
 21
143.236
 31
0.0
  0
LINE
  8
0
 62
     0
 10
367.277
 20
143.236
 30
0.0
 11
367.376
 21
143.113
 31
0.0
  0
LINE
  8
0
 62
     0
 10
367.376
 20
143.113
 30
0.0
 11
367.464
 21
142.983
 31
0.0
  0
LINE
  8
0
 62
     0
 10
367.464
 20
142.983
 30
0.0
 11
367.538
 21
142.846
 31
0.0
  0
LINE
  8
0
 62
     0
 10
367.538
 20
142.846
 30
0.0
 11
367.605
 21
142.703
 31
0.0
  0
LINE
  8
0
 62
     0
 10
367.605
 20
142.703
 30
0.0
 11
367.658
 21
142.555
 31
0.0
  0
LINE
  8
0
 62
     0
 10
367.658
 20
142.555
 30
0.0
 11
367.7
 21
142.405
 31
0.0
  0
LINE
  8
0
 62
     0
 10
367.7
 20
142.405
 30
0.0
 11
367.732
 21
142.251
 31
0.0
  0
LINE
  8
0
 62
     0
 10
367.732
 20
142.251
 30
0.0
 11
367.75
 21
142.095
 31
0.0
  0
LINE
  8
0
 62
     0
 10
367.75
 20
142.095
 30
0.0
 11
367.757
 21
141.938
 31
0.0
  0
LINE
  8
0
 62
     0
 10
367.757
 20
141.938
 30
0.0
 11
367.757
 21
2.11253
 31
0.0
  0
LINE
  8
0
 62
     0
 10
367.757
 20
2.11253
 30
0.0
 11
367.75
 21
1.95544
 31
0.0
  0
LINE
  8
0
 62
     0
 10
367.75
 20
1.95544
 30
0.0
 11
367.732
 21
1.79972
 31
0.0
  0
LINE
  8
0
 62
     0
 10
367.732
 20
1.79972
 30
0.0
 11
367.7
 21
1.64538
 31
0.0
  0
LINE
  8
0
 62
     0
 10
367.7
 20
1.64538
 30
0.0
 11
367.658
 21
1.4938
 31
0.0
  0
LINE
  8
0
 62
     0
 10
367.658
 20
1.4938
 30
0.0
 11
367.605
 21
1.34772
 31
0.0
  0
LINE
  8
0
 62
     0
 10
367.605
 20
1.34772
 30
0.0
 11
367.538
 21
1.2044
 31
0.0
  0
LINE
  8
0
 62
     0
 10
367.538
 20
1.2044
 30
0.0
 11
367.464
 21
1.06798
 31
0.0
  0
LINE
  8
0
 62
     0
 10
367.464
 20
1.06798
 30
0.0
 11
367.376
 21
0.937066
 31
0.0
  0
LINE
  8
0
 62
     0
 10
367.376
 20
0.937066
 30
0.0
 11
367.277
 21
0.813043
 31
0.0
  0
LINE
  8
0
 62
     0
 10
367.277
 20
0.813043
 30
0.0
 11
367.171
 21
0.698666
 31
0.0
  0
LINE
  8
0
 62
     0
 10
367.171
 20
0.698666
 30
0.0
 11
367.055
 21
0.591178
 31
0.0
  0
LINE
  8
0
 62
     0
 10
367.055
 20
0.591178
 30
0.0
 11
366.931
 21
0.494714
 31
0.0
  0
LINE
  8
0
 62
     0
 10
366.931
 20
0.494714
 30
0.0
 11
366.801
 21
0.407899
 31
0.0
  0
LINE
  8
0
 62
     0
 10
366.801
 20
0.407899
 30
0.0
 11
366.663
 21
0.330729
 31
0.0
  0
LINE
  8
0
 62
     0
 10
366.663
 20
0.330729
 30
0.0
 11
366.522
 21
0.264583
 31
0.0
  0
LINE
  8
0
 62
     0
 10
366.522
 20
0.264583
 30
0.0
 11
366.374
 21
0.21084
 31
0.0
  0
LINE
  8
0
 62
     0
 10
366.374
 20
0.21084
 30
0.0
 11
366.222
 21
0.166743
 31
0.0
  0
LINE
  8
0
 62
     0
 10
366.222
 20
0.166743
 30
0.0
 11
366.07
 21
0.137804
 31
0.0
  0
LINE
  8
0
 62
     0
 10
366.07
 20
0.137804
 30
0.0
 11
365.912
 21
0.118511
 31
0.0
  0
LINE
  8
0
 62
     0
 10
365.912
 20
0.118511
 30
0.0
 11
365.756
 21
0.112999
 31
0.0
  0
LINE
  8
0
 62
     0
 10
365.756
 20
0.112999
 30
0.0
 11
2.09324
 21
0.112999
 31
0.0
  0
LINE
  8
0
 62
     0
 10
2.09324
 20
0.112999
 30
0.0
 11
1.93614
 21
0.118511
 31
0.0
  0
LINE
  8
0
 62
     0
 10
1.93614
 20
0.118511
 30
0.0
 11
1.78043
 21
0.137804
 31
0.0
  0
LINE
  8
0
 62
     0
 10
1.78043
 20
0.137804
 30
0.0
 11
1.62609
 21
0.166743
 31
0.0
  0
LINE
  8
0
 62
     0
 10
1.62609
 20
0.166743
 30
0.0
 11
1.47588
 21
0.21084
 31
0.0
  0
LINE
  8
0
 62
     0
 10
1.47588
 20
0.21084
 30
0.0
 11
1.32843
 21
0.264583
 31
0.0
  0
LINE
  8
0
 62
     0
 10
1.32843
 20
0.264583
 30
0.0
 11
1.18511
 21
0.330729
 31
0.0
  0
LINE
  8
0
 62
     0
 10
1.18511
 20
0.330729
 30
0.0
 11
1.04869
 21
0.407899
 31
0.0
  0
LINE
  8
0
 62
     0
 10
1.04869
 20
0.407899
 30
0.0
 11
0.917773
 21
0.494714
 31
0.0
  0
LINE
  8
0
 62
     0
 10
0.917773
 20
0.494714
 30
0.0
 11
0.795129
 21
0.591178
 31
0.0
  0
LINE
  8
0
 62
     0
 10
0.795129
 20
0.591178
 30
0.0
 11
0.679372
 21
0.698666
 31
0.0
  0
LINE
  8
0
 62
     0
 10
0.679372
 20
0.698666
 30
0.0
 11
0.573264
 21
0.813043
 31
0.0
  0
LINE
  8
0
 62
     0
 10
0.573264
 20
0.813043
 30
0.0
 11
0.475424
 21
0.937066
 31
0.0
  0
LINE
  8
0
 62
     0
 10
0.475424
 20
0.937066
 30
0.0
 11
0.388606
 21
1.06798
 31
0.0
  0
LINE
  8
0
 62
     0
 10
0.388606
 20
1.06798
 30
0.0
 11
0.311437
 21
1.2044
 31
0.0
  0
LINE
  8
0
 62
     0
 10
0.311437
 20
1.2044
 30
0.0
 11
0.245291
 21
1.34772
 31
0.0
  0
LINE
  8
0
 62
     0
 10
0.245291
 20
1.34772
 30
0.0
 11
0.191547
 21
1.4938
 31
0.0
  0
LINE
  8
0
 62
     0
 10
0.191547
 20
1.4938
 30
0.0
 11
0.148828
 21
1.64538
 31
0.0
  0
LINE
  8
0
 62
     0
 10
0.148828
 20
1.64538
 30
0.0
 11
0.118511
 21
1.79972
 31
0.0
  0
LINE
  8
0
 62
     0
 10
0.118511
 20
1.79972
 30
0.0
 11
0.0992188
 21
1.95544
 31
0.0
  0
LINE
  8
0
 62
     0
 10
0.0992188
 20
1.95544
 30
0.0
 11
0.0937066
 21
2.11253
 31
0.0
  0
LINE
  8
0
 62
     0
 10
0.0937066
 20
2.11253
 30
0.0
 11
0.0937066
 21
141.938
 31
0.0
  0
LINE
  8
0
 62
     0
 10
0.0937066
 20
141.938
 30
0.0
 11
0.0992188
 21
142.095
 31
0.0
  0
LINE
  8
0
 62
     0
 10
0.0992188
 20
142.095
 30
0.0
 11
0.118511
 21
142.251
 31
0.0
  0
LINE
  8
0
 62
     0
 10
0.118511
 20
142.251
 30
0.0
 11
0.148828
 21
142.405
 31
0.0
  0
LINE
  8
0
 62
     0
 10
0.148828
 20
142.405
 30
0.0
 11
0.191547
 21
142.555
 31
0.0
  0
LINE
  8
0
 62
     0
 10
0.191547
 20
142.555
 30
0.0
 11
0.245291
 21
142.703
 31
0.0
  0
LINE
  8
0
 62
     0
 10
0.245291
 20
142.703
 30
0.0
 11
0.311437
 21
142.846
 31
0.0
  0
LINE
  8
0
 62
     0
 10
0.311437
 20
142.846
 30
0.0
 11
0.388606
 21
142.983
 31
0.0
  0
LINE
  8
0
 62
     0
 10
0.388606
 20
142.983
 30
0.0
 11
0.475424
 21
143.113
 31
0.0
  0
LINE
  8
0
 62
     0
 10
0.475424
 20
143.113
 30
0.0
 11
0.573264
 21
143.236
 31
0.0
  0
LINE
  8
0
 62
     0
 10
0.573264
 20
143.236
 30
0.0
 11
0.679372
 21
143.352
 31
0.0
  0
LINE
  8
0
 62
     0
 10
0.679372
 20
143.352
 30
0.0
 11
0.795129
 21
143.458
 31
0.0
  0
LINE
  8
0
 62
     0
 10
0.795129
 20
143.458
 30
0.0
 11
0.917773
 21
143.556
 31
0.0
  0
LINE
  8
0
 62
     0
 10
0.917773
 20
143.556
 30
0.0
 11
1.04869
 21
143.643
 31
0.0
  0
LINE
  8
0
 62
     0
 10
1.04869
 20
143.643
 30
0.0
 11
1.18511
 21
143.72
 31
0.0
  0
LINE
  8
0
 62
     0
 10
1.18511
 20
143.72
 30
0.0
 11
1.32843
 21
143.786
 31
0.0
  0
LINE
  8
0
 62
     0
 10
1.32843
 20
143.786
 30
0.0
 11
1.47588
 21
143.839
 31
0.0
  0
LINE
  8
0
 62
     0
 10
1.47588
 20
143.839
 30
0.0
 11
1.62609
 21
143.882
 31
0.0
  0
LINE
  8
0
 62
     0
 10
1.62609
 20
143.882
 30
0.0
 11
1.78043
 21
143.913
 31
0.0
  0
LINE
  8
0
 62
     0
 10
1.78043
 20
143.913
 30
0.0
 11
1.93614
 21
143.932
 31
0.0
  0
LINE
  8
0
 62
     0
 10
1.93614
 20
143.932
 30
0.0
 11
2.09324
 21
143.938
 31
0.0
  0
LINE
  8
0
 62
     0
 10
2.09324
 20
143.938
 30
0.0
 11
365.756
 21
143.938
 31
0.0
  0
LINE
  8
0
 62
     0
 10
124.314
 20
140.437
 30
0.0
 11
124.777
 21
140.364
 31
0.0
  0
LINE
  8
0
 62
     0
 10
124.777
 20
140.364
 30
0.0
 11
125.196
 21
140.152
 31
0.0
  0
LINE
  8
0
 62
     0
 10
125.196
 20
140.152
 30
0.0
 11
125.528
 21
139.82
 31
0.0
  0
LINE
  8
0
 62
     0
 10
125.528
 20
139.82
 30
0.0
 11
125.741
 21
139.401
 31
0.0
  0
LINE
  8
0
 62
     0
 10
125.741
 20
139.401
 30
0.0
 11
125.815
 21
138.938
 31
0.0
  0
LINE
  8
0
 62
     0
 10
125.815
 20
138.938
 30
0.0
 11
125.741
 21
138.473
 31
0.0
  0
LINE
  8
0
 62
     0
 10
125.741
 20
138.473
 30
0.0
 11
125.528
 21
138.056
 31
0.0
  0
LINE
  8
0
 62
     0
 10
125.528
 20
138.056
 30
0.0
 11
125.196
 21
137.724
 31
0.0
  0
LINE
  8
0
 62
     0
 10
125.196
 20
137.724
 30
0.0
 11
124.777
 21
137.51
 31
0.0
  0
LINE
  8
0
 62
     0
 10
124.777
 20
137.51
 30
0.0
 11
124.314
 21
137.437
 31
0.0
  0
LINE
  8
0
 62
     0
 10
124.314
 20
137.437
 30
0.0
 11
123.851
 21
137.51
 31
0.0
  0
LINE
  8
0
 62
     0
 10
123.851
 20
137.51
 30
0.0
 11
123.432
 21
137.724
 31
0.0
  0
LINE
  8
0
 62
     0
 10
123.432
 20
137.724
 30
0.0
 11
123.1
 21
138.056
 31
0.0
  0
LINE
  8
0
 62
     0
 10
123.1
 20
138.056
 30
0.0
 11
122.888
 21
138.473
 31
0.0
  0
LINE
  8
0
 62
     0
 10
122.888
 20
138.473
 30
0.0
 11
122.815
 21
138.938
 31
0.0
  0
LINE
  8
0
 62
     0
 10
122.815
 20
138.938
 30
0.0
 11
122.888
 21
139.401
 31
0.0
  0
LINE
  8
0
 62
     0
 10
122.888
 20
139.401
 30
0.0
 11
123.1
 21
139.82
 31
0.0
  0
LINE
  8
0
 62
     0
 10
123.1
 20
139.82
 30
0.0
 11
123.432
 21
140.152
 31
0.0
  0
LINE
  8
0
 62
     0
 10
123.432
 20
140.152
 30
0.0
 11
123.851
 21
140.364
 31
0.0
  0
LINE
  8
0
 62
     0
 10
123.851
 20
140.364
 30
0.0
 11
124.314
 21
140.437
 31
0.0
  0
LINE
  8
0
 62
     0
 10
243.535
 20
140.437
 30
0.0
 11
243.998
 21
140.364
 31
0.0
  0
LINE
  8
0
 62
     0
 10
243.998
 20
140.364
 30
0.0
 11
244.417
 21
140.152
 31
0.0
  0
LINE
  8
0
 62
     0
 10
244.417
 20
140.152
 30
0.0
 11
244.749
 21
139.82
 31
0.0
  0
LINE
  8
0
 62
     0
 10
244.749
 20
139.82
 30
0.0
 11
244.961
 21
139.401
 31
0.0
  0
LINE
  8
0
 62
     0
 10
244.961
 20
139.401
 30
0.0
 11
245.036
 21
138.938
 31
0.0
  0
LINE
  8
0
 62
     0
 10
245.036
 20
138.938
 30
0.0
 11
244.961
 21
138.473
 31
0.0
  0
LINE
  8
0
 62
     0
 10
244.961
 20
138.473
 30
0.0
 11
244.749
 21
138.056
 31
0.0
  0
LINE
  8
0
 62
     0
 10
244.749
 20
138.056
 30
0.0
 11
244.417
 21
137.724
 31
0.0
  0
LINE
  8
0
 62
     0
 10
244.417
 20
137.724
 30
0.0
 11
243.998
 21
137.51
 31
0.0
  0
LINE
  8
0
 62
     0
 10
243.998
 20
137.51
 30
0.0
 11
243.535
 21
137.437
 31
0.0
  0
LINE
  8
0
 62
     0
 10
243.535
 20
137.437
 30
0.0
 11
243.072
 21
137.51
 31
0.0
  0
LINE
  8
0
 62
     0
 10
243.072
 20
137.51
 30
0.0
 11
242.653
 21
137.724
 31
0.0
  0
LINE
  8
0
 62
     0
 10
242.653
 20
137.724
 30
0.0
 11
242.321
 21
138.056
 31
0.0
  0
LINE
  8
0
 62
     0
 10
242.321
 20
138.056
 30
0.0
 11
242.109
 21
138.473
 31
0.0
  0
LINE
  8
0
 62
     0
 10
242.109
 20
138.473
 30
0.0
 11
242.036
 21
138.938
 31
0.0
  0
LINE
  8
0
 62
     0
 10
242.036
 20
138.938
 30
0.0
 11
242.109
 21
139.401
 31
0.0
  0
LINE
  8
0
 62
     0
 10
242.109
 20
139.401
 30
0.0
 11
242.321
 21
139.82
 31
0.0
  0
LINE
  8
0
 62
     0
 10
242.321
 20
139.82
 30
0.0
 11
242.653
 21
140.152
 31
0.0
  0
LINE
  8
0
 62
     0
 10
242.653
 20
140.152
 30
0.0
 11
243.072
 21
140.364
 31
0.0
  0
LINE
  8
0
 62
     0
 10
243.072
 20
140.364
 30
0.0
 11
243.535
 21
140.437
 31
0.0
  0
LINE
  8
0
 62
     0
 10
362.758
 20
140.437
 30
0.0
 11
363.22
 21
140.364
 31
0.0
  0
LINE
  8
0
 62
     0
 10
363.22
 20
140.364
 30
0.0
 11
363.64
 21
140.152
 31
0.0
  0
LINE
  8
0
 62
     0
 10
363.64
 20
140.152
 30
0.0
 11
363.971
 21
139.82
 31
0.0
  0
LINE
  8
0
 62
     0
 10
363.971
 20
139.82
 30
0.0
 11
364.183
 21
139.401
 31
0.0
  0
LINE
  8
0
 62
     0
 10
364.183
 20
139.401
 30
0.0
 11
364.257
 21
138.938
 31
0.0
  0
LINE
  8
0
 62
     0
 10
364.257
 20
138.938
 30
0.0
 11
364.183
 21
138.473
 31
0.0
  0
LINE
  8
0
 62
     0
 10
364.183
 20
138.473
 30
0.0
 11
363.971
 21
138.056
 31
0.0
  0
LINE
  8
0
 62
     0
 10
363.971
 20
138.056
 30
0.0
 11
363.64
 21
137.724
 31
0.0
  0
LINE
  8
0
 62
     0
 10
363.64
 20
137.724
 30
0.0
 11
363.22
 21
137.51
 31
0.0
  0
LINE
  8
0
 62
     0
 10
363.22
 20
137.51
 30
0.0
 11
362.758
 21
137.437
 31
0.0
  0
LINE
  8
0
 62
     0
 10
362.758
 20
137.437
 30
0.0
 11
362.292
 21
137.51
 31
0.0
  0
LINE
  8
0
 62
     0
 10
362.292
 20
137.51
 30
0.0
 11
361.876
 21
137.724
 31
0.0
  0
LINE
  8
0
 62
     0
 10
361.876
 20
137.724
 30
0.0
 11
361.541
 21
138.056
 31
0.0
  0
LINE
  8
0
 62
     0
 10
361.541
 20
138.056
 30
0.0
 11
361.329
 21
138.473
 31
0.0
  0
LINE
  8
0
 62
     0
 10
361.329
 20
138.473
 30
0.0
 11
361.259
 21
138.938
 31
0.0
  0
LINE
  8
0
 62
     0
 10
361.259
 20
138.938
 30
0.0
 11
361.329
 21
139.401
 31
0.0
  0
LINE
  8
0
 62
     0
 10
361.329
 20
139.401
 30
0.0
 11
361.541
 21
139.82
 31
0.0
  0
LINE
  8
0
 62
     0
 10
361.541
 20
139.82
 30
0.0
 11
361.876
 21
140.152
 31
0.0
  0
LINE
  8
0
 62
     0
 10
361.876
 20
140.152
 30
0.0
 11
362.292
 21
140.364
 31
0.0
  0
LINE
  8
0
 62
     0
 10
362.292
 20
140.364
 30
0.0
 11
362.758
 21
140.437
 31
0.0
  0
LINE
  8
0
 62
     0
 10
362.758
 20
6.61183
 30
0.0
 11
363.22
 21
6.53881
 31
0.0
  0
LINE
  8
0
 62
     0
 10
363.22
 20
6.53881
 30
0.0
 11
363.64
 21
6.32658
 31
0.0
  0
LINE
  8
0
 62
     0
 10
363.64
 20
6.32658
 30
0.0
 11
363.971
 21
5.99447
 31
0.0
  0
LINE
  8
0
 62
     0
 10
363.971
 20
5.99447
 30
0.0
 11
364.183
 21
5.57692
 31
0.0
  0
LINE
  8
0
 62
     0
 10
364.183
 20
5.57692
 30
0.0
 11
364.257
 21
5.11253
 31
0.0
  0
LINE
  8
0
 62
     0
 10
364.257
 20
5.11253
 30
0.0
 11
364.183
 21
4.64813
 31
0.0
  0
LINE
  8
0
 62
     0
 10
364.183
 20
4.64813
 30
0.0
 11
363.971
 21
4.23058
 31
0.0
  0
LINE
  8
0
 62
     0
 10
363.971
 20
4.23058
 30
0.0
 11
363.64
 21
3.89848
 31
0.0
  0
LINE
  8
0
 62
     0
 10
363.64
 20
3.89848
 30
0.0
 11
363.22
 21
3.68487
 31
0.0
  0
LINE
  8
0
 62
     0
 10
363.22
 20
3.68487
 30
0.0
 11
362.758
 21
3.61184
 31
0.0
  0
LINE
  8
0
 62
     0
 10
362.758
 20
3.61184
 30
0.0
 11
362.292
 21
3.68487
 31
0.0
  0
LINE
  8
0
 62
     0
 10
362.292
 20
3.68487
 30
0.0
 11
361.876
 21
3.89848
 31
0.0
  0
LINE
  8
0
 62
     0
 10
361.876
 20
3.89848
 30
0.0
 11
361.541
 21
4.23058
 31
0.0
  0
LINE
  8
0
 62
     0
 10
361.541
 20
4.23058
 30
0.0
 11
361.329
 21
4.64813
 31
0.0
  0
LINE
  8
0
 62
     0
 10
361.329
 20
4.64813
 30
0.0
 11
361.259
 21
5.11253
 31
0.0
  0
LINE
  8
0
 62
     0
 10
361.259
 20
5.11253
 30
0.0
 11
361.329
 21
5.57692
 31
0.0
  0
LINE
  8
0
 62
     0
 10
361.329
 20
5.57692
 30
0.0
 11
361.541
 21
5.99447
 31
0.0
  0
LINE
  8
0
 62
     0
 10
361.541
 20
5.99447
 30
0.0
 11
361.876
 21
6.32658
 31
0.0
  0
LINE
  8
0
 62
     0
 10
361.876
 20
6.32658
 30
0.0
 11
362.292
 21
6.53881
 31
0.0
  0
LINE
  8
0
 62
     0
 10
362.292
 20
6.53881
 30
0.0
 11
362.758
 21
6.61183
 31
0.0
  0
LINE
  8
0
 62
     0
 10
243.535
 20
6.61183
 30
0.0
 11
243.998
 21
6.53881
 31
0.0
  0
LINE
  8
0
 62
     0
 10
243.998
 20
6.53881
 30
0.0
 11
244.417
 21
6.32658
 31
0.0
  0
LINE
  8
0
 62
     0
 10
244.417
 20
6.32658
 30
0.0
 11
244.749
 21
5.99447
 31
0.0
  0
LINE
  8
0
 62
     0
 10
244.749
 20
5.99447
 30
0.0
 11
244.961
 21
5.57692
 31
0.0
  0
LINE
  8
0
 62
     0
 10
244.961
 20
5.57692
 30
0.0
 11
245.036
 21
5.11253
 31
0.0
  0
LINE
  8
0
 62
     0
 10
245.036
 20
5.11253
 30
0.0
 11
244.961
 21
4.64813
 31
0.0
  0
LINE
  8
0
 62
     0
 10
244.961
 20
4.64813
 30
0.0
 11
244.749
 21
4.23058
 31
0.0
  0
LINE
  8
0
 62
     0
 10
244.749
 20
4.23058
 30
0.0
 11
244.417
 21
3.89848
 31
0.0
  0
LINE
  8
0
 62
     0
 10
244.417
 20
3.89848
 30
0.0
 11
243.998
 21
3.68487
 31
0.0
  0
LINE
  8
0
 62
     0
 10
243.998
 20
3.68487
 30
0.0
 11
243.535
 21
3.61184
 31
0.0
  0
LINE
  8
0
 62
     0
 10
243.535
 20
3.61184
 30
0.0
 11
243.072
 21
3.68487
 31
0.0
  0
LINE
  8
0
 62
     0
 10
243.072
 20
3.68487
 30
0.0
 11
242.653
 21
3.89848
 31
0.0
  0
LINE
  8
0
 62
     0
 10
242.653
 20
3.89848
 30
0.0
 11
242.321
 21
4.23058
 31
0.0
  0
LINE
  8
0
 62
     0
 10
242.321
 20
4.23058
 30
0.0
 11
242.109
 21
4.64813
 31
0.0
  0
LINE
  8
0
 62
     0
 10
242.109
 20
4.64813
 30
0.0
 11
242.036
 21
5.11253
 31
0.0
  0
LINE
  8
0
 62
     0
 10
242.036
 20
5.11253
 30
0.0
 11
242.109
 21
5.57692
 31
0.0
  0
LINE
  8
0
 62
     0
 10
242.109
 20
5.57692
 30
0.0
 11
242.321
 21
5.99447
 31
0.0
  0
LINE
  8
0
 62
     0
 10
242.321
 20
5.99447
 30
0.0
 11
242.653
 21
6.32658
 31
0.0
  0
LINE
  8
0
 62
     0
 10
242.653
 20
6.32658
 30
0.0
 11
243.072
 21
6.53881
 31
0.0
  0
LINE
  8
0
 62
     0
 10
243.072
 20
6.53881
 30
0.0
 11
243.535
 21
6.61183
 31
0.0
  0
LINE
  8
0
 62
     0
 10
124.314
 20
6.61183
 30
0.0
 11
124.777
 21
6.53881
 31
0.0
  0
LINE
  8
0
 62
     0
 10
124.777
 20
6.53881
 30
0.0
 11
125.196
 21
6.32658
 31
0.0
  0
LINE
  8
0
 62
     0
 10
125.196
 20
6.32658
 30
0.0
 11
125.528
 21
5.99447
 31
0.0
  0
LINE
  8
0
 62
     0
 10
125.528
 20
5.99447
 30
0.0
 11
125.741
 21
5.57692
 31
0.0
  0
LINE
  8
0
 62
     0
 10
125.741
 20
5.57692
 30
0.0
 11
125.815
 21
5.11253
 31
0.0
  0
LINE
  8
0
 62
     0
 10
125.815
 20
5.11253
 30
0.0
 11
125.741
 21
4.64813
 31
0.0
  0
LINE
  8
0
 62
     0
 10
125.741
 20
4.64813
 30
0.0
 11
125.528
 21
4.23058
 31
0.0
  0
LINE
  8
0
 62
     0
 10
125.528
 20
4.23058
 30
0.0
 11
125.196
 21
3.89848
 31
0.0
  0
LINE
  8
0
 62
     0
 10
125.196
 20
3.89848
 30
0.0
 11
124.777
 21
3.68487
 31
0.0
  0
LINE
  8
0
 62
     0
 10
124.777
 20
3.68487
 30
0.0
 11
124.314
 21
3.61184
 31
0.0
  0
LINE
  8
0
 62
     0
 10
124.314
 20
3.61184
 30
0.0
 11
123.851
 21
3.68487
 31
0.0
  0
LINE
  8
0
 62
     0
 10
123.851
 20
3.68487
 30
0.0
 11
123.432
 21
3.89848
 31
0.0
  0
LINE
  8
0
 62
     0
 10
123.432
 20
3.89848
 30
0.0
 11
123.1
 21
4.23058
 31
0.0
  0
LINE
  8
0
 62
     0
 10
123.1
 20
4.23058
 30
0.0
 11
122.888
 21
4.64813
 31
0.0
  0
LINE
  8
0
 62
     0
 10
122.888
 20
4.64813
 30
0.0
 11
122.815
 21
5.11253
 31
0.0
  0
LINE
  8
0
 62
     0
 10
122.815
 20
5.11253
 30
0.0
 11
122.888
 21
5.57692
 31
0.0
  0
LINE
  8
0
 62
     0
 10
122.888
 20
5.57692
 30
0.0
 11
123.1
 21
5.99447
 31
0.0
  0
LINE
  8
0
 62
     0
 10
123.1
 20
5.99447
 30
0.0
 11
123.432
 21
6.32658
 31
0.0
  0
LINE
  8
0
 62
     0
 10
123.432
 20
6.32658
 30
0.0
 11
123.851
 21
6.53881
 31
0.0
  0
LINE
  8
0
 62
     0
 10
123.851
 20
6.53881
 30
0.0
 11
124.314
 21
6.61183
 31
0.0
  0
LINE
  8
0
 62
     0
 10
5.09323
 20
6.61183
 30
0.0
 11
5.55763
 21
6.53881
 31
0.0
  0
LINE
  8
0
 62
     0
 10
5.55763
 20
6.53881
 30
0.0
 11
5.97517
 21
6.32658
 31
0.0
  0
LINE
  8
0
 62
     0
 10
5.97517
 20
6.32658
 30
0.0
 11
6.30728
 21
5.99447
 31
0.0
  0
LINE
  8
0
 62
     0
 10
6.30728
 20
5.99447
 30
0.0
 11
6.52089
 21
5.57692
 31
0.0
  0
LINE
  8
0
 62
     0
 10
6.52089
 20
5.57692
 30
0.0
 11
6.59391
 21
5.11253
 31
0.0
  0
LINE
  8
0
 62
     0
 10
6.59391
 20
5.11253
 30
0.0
 11
6.52089
 21
4.64813
 31
0.0
  0
LINE
  8
0
 62
     0
 10
6.52089
 20
4.64813
 30
0.0
 11
6.30728
 21
4.23058
 31
0.0
  0
LINE
  8
0
 62
     0
 10
6.30728
 20
4.23058
 30
0.0
 11
5.97517
 21
3.89848
 31
0.0
  0
LINE
  8
0
 62
     0
 10
5.97517
 20
3.89848
 30
0.0
 11
5.55763
 21
3.68487
 31
0.0
  0
LINE
  8
0
 62
     0
 10
5.55763
 20
3.68487
 30
0.0
 11
5.09323
 21
3.61184
 31
0.0
  0
LINE
  8
0
 62
     0
 10
5.09323
 20
3.61184
 30
0.0
 11
4.63021
 21
3.68487
 31
0.0
  0
LINE
  8
0
 62
     0
 10
4.63021
 20
3.68487
 30
0.0
 11
4.21128
 21
3.89848
 31
0.0
  0
LINE
  8
0
 62
     0
 10
4.21128
 20
3.89848
 30
0.0
 11
3.87918
 21
4.23058
 31
0.0
  0
LINE
  8
0
 62
     0
 10
3.87918
 20
4.23058
 30
0.0
 11
3.66695
 21
4.64813
 31
0.0
  0
LINE
  8
0
 62
     0
 10
3.66695
 20
4.64813
 30
0.0
 11
3.59392
 21
5.11253
 31
0.0
  0
LINE
  8
0
 62
     0
 10
3.59392
 20
5.11253
 30
0.0
 11
3.66695
 21
5.57692
 31
0.0
  0
LINE
  8
0
 62
     0
 10
3.66695
 20
5.57692
 30
0.0
 11
3.87918
 21
5.99447
 31
0.0
  0
LINE
  8
0
 62
     0
 10
3.87918
 20
5.99447
 30
0.0
 11
4.21128
 21
6.32658
 31
0.0
  0
LINE
  8
0
 62
     0
 10
4.21128
 20
6.32658
 30
0.0
 11
4.63021
 21
6.53881
 31
0.0
  0
LINE
  8
0
 62
     0
 10
4.63021
 20
6.53881
 30
0.0
 11
5.09323
 21
6.61183
 31
0.0
  0
LINE
  8
0
 62
     0
 10
5.09323
 20
140.437
 30
0.0
 11
5.55763
 21
140.364
 31
0.0
  0
LINE
  8
0
 62
     0
 10
5.55763
 20
140.364
 30
0.0
 11
5.97517
 21
140.152
 31
0.0
  0
LINE
  8
0
 62
     0
 10
5.97517
 20
140.152
 30
0.0
 11
6.30728
 21
139.82
 31
0.0
  0
LINE
  8
0
 62
     0
 10
6.30728
 20
139.82
 30
0.0
 11
6.52089
 21
139.401
 31
0.0
  0
LINE
  8
0
 62
     0
 10
6.52089
 20
139.401
 30
0.0
 11
6.59391
 21
138.938
 31
0.0
  0
LINE
  8
0
 62
     0
 10
6.59391
 20
138.938
 30
0.0
 11
6.52089
 21
138.473
 31
0.0
  0
LINE
  8
0
 62
     0
 10
6.52089
 20
138.473
 30
0.0
 11
6.30728
 21
138.056
 31
0.0
  0
LINE
  8
0
 62
     0
 10
6.30728
 20
138.056
 30
0.0
 11
5.97517
 21
137.724
 31
0.0
  0
LINE
  8
0
 62
     0
 10
5.97517
 20
137.724
 30
0.0
 11
5.55763
 21
137.51
 31
0.0
  0
LINE
  8
0
 62
     0
 10
5.55763
 20
137.51
 30
0.0
 11
5.09323
 21
137.437
 31
0.0
  0
LINE
  8
0
 62
     0
 10
5.09323
 20
137.437
 30
0.0
 11
4.63021
 21
137.51
 31
0.0
  0
LINE
  8
0
 62
     0
 10
4.63021
 20
137.51
 30
0.0
 11
4.21128
 21
137.724
 31
0.0
  0
LINE
  8
0
 62
     0
 10
4.21128
 20
137.724
 30
0.0
 11
3.87918
 21
138.056
 31
0.0
  0
LINE
  8
0
 62
     0
 10
3.87918
 20
138.056
 30
0.0
 11
3.66695
 21
138.473
 31
0.0
  0
LINE
  8
0
 62
     0
 10
3.66695
 20
138.473
 30
0.0
 11
3.59392
 21
138.938
 31
0.0
  0
LINE
  8
0
 62
     0
 10
3.59392
 20
138.938
 30
0.0
 11
3.66695
 21
139.401
 31
0.0
  0
LINE
  8
0
 62
     0
 10
3.66695
 20
139.401
 30
0.0
 11
3.87918
 21
139.82
 31
0.0
  0
LINE
  8
0
 62
     0
 10
3.87918
 20
139.82
 30
0.0
 11
4.21128
 21
140.152
 31
0.0
  0
LINE
  8
0
 62
     0
 10
4.21128
 20
140.152
 30
0.0
 11
4.63021
 21
140.364
 31
0.0
  0
LINE
  8
0
 62
     0
 10
4.63021
 20
140.364
 30
0.0
 11
5.09323
 21
140.437
 31
0.0
  0
LINE
  8
0
 62
     0
 10
26.6182
 20
118.012
 30
0.0
 11
26.6182
 21
117.413
 31
0.0
  0
LINE
  8
0
 62
     0
 10
26.6182
 20
117.413
 30
0.0
 11
12.6187
 21
117.413
 31
0.0
  0
LINE
  8
0
 62
     0
 10
12.6187
 20
117.413
 30
0.0
 11
12.6187
 21
118.012
 31
0.0
  0
LINE
  8
0
 62
     0
 10
12.6187
 20
118.012
 30
0.0
 11
11.8194
 21
118.012
 31
0.0
  0
LINE
  8
0
 62
     0
 10
11.8194
 20
118.012
 30
0.0
 11
11.8194
 21
130.813
 31
0.0
  0
LINE
  8
0
 62
     0
 10
11.8194
 20
130.813
 30
0.0
 11
12.6187
 21
130.813
 31
0.0
  0
LINE
  8
0
 62
     0
 10
12.6187
 20
130.813
 30
0.0
 11
12.6187
 21
131.413
 31
0.0
  0
LINE
  8
0
 62
     0
 10
12.6187
 20
131.413
 30
0.0
 11
26.6182
 21
131.413
 31
0.0
  0
LINE
  8
0
 62
     0
 10
26.6182
 20
131.413
 30
0.0
 11
26.6182
 21
130.813
 31
0.0
  0
LINE
  8
0
 62
     0
 10
26.6182
 20
130.813
 30
0.0
 11
27.4188
 21
130.813
 31
0.0
  0
LINE
  8
0
 62
     0
 10
27.4188
 20
130.813
 30
0.0
 11
27.4188
 21
118.012
 31
0.0
  0
LINE
  8
0
 62
     0
 10
27.4188
 20
118.012
 30
0.0
 11
26.6182
 21
118.012
 31
0.0
  0
LINE
  8
0
 62
     0
 10
26.6182
 20
89.4373
 30
0.0
 11
26.6182
 21
88.8379
 31
0.0
  0
LINE
  8
0
 62
     0
 10
26.6182
 20
88.8379
 30
0.0
 11
12.6187
 21
88.8379
 31
0.0
  0
LINE
  8
0
 62
     0
 10
12.6187
 20
88.8379
 30
0.0
 11
12.6187
 21
89.4373
 31
0.0
  0
LINE
  8
0
 62
     0
 10
12.6187
 20
89.4373
 30
0.0
 11
11.8194
 21
89.4373
 31
0.0
  0
LINE
  8
0
 62
     0
 10
11.8194
 20
89.4373
 30
0.0
 11
11.8194
 21
102.238
 31
0.0
  0
LINE
  8
0
 62
     0
 10
11.8194
 20
102.238
 30
0.0
 11
12.6187
 21
102.238
 31
0.0
  0
LINE
  8
0
 62
     0
 10
12.6187
 20
102.238
 30
0.0
 11
12.6187
 21
102.838
 31
0.0
  0
LINE
  8
0
 62
     0
 10
12.6187
 20
102.838
 30
0.0
 11
26.6182
 21
102.838
 31
0.0
  0
LINE
  8
0
 62
     0
 10
26.6182
 20
102.838
 30
0.0
 11
26.6182
 21
102.238
 31
0.0
  0
LINE
  8
0
 62
     0
 10
26.6182
 20
102.238
 30
0.0
 11
27.4188
 21
102.238
 31
0.0
  0
LINE
  8
0
 62
     0
 10
27.4188
 20
102.238
 30
0.0
 11
27.4188
 21
89.4373
 31
0.0
  0
LINE
  8
0
 62
     0
 10
27.4188
 20
89.4373
 30
0.0
 11
26.6182
 21
89.4373
 31
0.0
  0
LINE
  8
0
 62
     0
 10
28.9994
 20
13.2374
 30
0.0
 11
28.9994
 21
12.638
 31
0.0
  0
LINE
  8
0
 62
     0
 10
28.9994
 20
12.638
 30
0.0
 11
14.9999
 21
12.638
 31
0.0
  0
LINE
  8
0
 62
     0
 10
14.9999
 20
12.638
 30
0.0
 11
14.9999
 21
13.2374
 31
0.0
  0
LINE
  8
0
 62
     0
 10
14.9999
 20
13.2374
 30
0.0
 11
14.1993
 21
13.2374
 31
0.0
  0
LINE
  8
0
 62
     0
 10
14.1993
 20
13.2374
 30
0.0
 11
14.1993
 21
26.038
 31
0.0
  0
LINE
  8
0
 62
     0
 10
14.1993
 20
26.038
 30
0.0
 11
14.9999
 21
26.038
 31
0.0
  0
LINE
  8
0
 62
     0
 10
14.9999
 20
26.038
 30
0.0
 11
14.9999
 21
26.6375
 31
0.0
  0
LINE
  8
0
 62
     0
 10
14.9999
 20
26.6375
 30
0.0
 11
28.9994
 21
26.6375
 31
0.0
  0
LINE
  8
0
 62
     0
 10
28.9994
 20
26.6375
 30
0.0
 11
28.9994
 21
26.038
 31
0.0
  0
LINE
  8
0
 62
     0
 10
28.9994
 20
26.038
 30
0.0
 11
29.8001
 21
26.038
 31
0.0
  0
LINE
  8
0
 62
     0
 10
29.8001
 20
26.038
 30
0.0
 11
29.8001
 21
13.2374
 31
0.0
  0
LINE
  8
0
 62
     0
 10
29.8001
 20
13.2374
 30
0.0
 11
28.9994
 21
13.2374
 31
0.0
  0
LINE
  8
0
 62
     0
 10
31.3821
 20
70.3873
 30
0.0
 11
31.3821
 21
69.7879
 31
0.0
  0
LINE
  8
0
 62
     0
 10
31.3821
 20
69.7879
 30
0.0
 11
17.3812
 21
69.7879
 31
0.0
  0
LINE
  8
0
 62
     0
 10
17.3812
 20
69.7879
 30
0.0
 11
17.3812
 21
70.3873
 31
0.0
  0
LINE
  8
0
 62
     0
 10
17.3812
 20
70.3873
 30
0.0
 11
16.5819
 21
70.3873
 31
0.0
  0
LINE
  8
0
 62
     0
 10
16.5819
 20
70.3873
 30
0.0
 11
16.5819
 21
83.1882
 31
0.0
  0
LINE
  8
0
 62
     0
 10
16.5819
 20
83.1882
 30
0.0
 11
17.3812
 21
83.1882
 31
0.0
  0
LINE
  8
0
 62
     0
 10
17.3812
 20
83.1882
 30
0.0
 11
17.3812
 21
83.7875
 31
0.0
  0
LINE
  8
0
 62
     0
 10
17.3812
 20
83.7875
 30
0.0
 11
31.3821
 21
83.7875
 31
0.0
  0
LINE
  8
0
 62
     0
 10
31.3821
 20
83.7875
 30
0.0
 11
31.3821
 21
83.1882
 31
0.0
  0
LINE
  8
0
 62
     0
 10
31.3821
 20
83.1882
 30
0.0
 11
32.1813
 21
83.1882
 31
0.0
  0
LINE
  8
0
 62
     0
 10
32.1813
 20
83.1882
 30
0.0
 11
32.1813
 21
70.3873
 31
0.0
  0
LINE
  8
0
 62
     0
 10
32.1813
 20
70.3873
 30
0.0
 11
31.3821
 21
70.3873
 31
0.0
  0
LINE
  8
0
 62
     0
 10
33.7633
 20
51.3373
 30
0.0
 11
33.7633
 21
50.7379
 31
0.0
  0
LINE
  8
0
 62
     0
 10
33.7633
 20
50.7379
 30
0.0
 11
19.7624
 21
50.7379
 31
0.0
  0
LINE
  8
0
 62
     0
 10
19.7624
 20
50.7379
 30
0.0
 11
19.7624
 21
51.3373
 31
0.0
  0
LINE
  8
0
 62
     0
 10
19.7624
 20
51.3373
 30
0.0
 11
18.9632
 21
51.3373
 31
0.0
  0
LINE
  8
0
 62
     0
 10
18.9632
 20
51.3373
 30
0.0
 11
18.9632
 21
64.1382
 31
0.0
  0
LINE
  8
0
 62
     0
 10
18.9632
 20
64.1382
 30
0.0
 11
19.7624
 21
64.1382
 31
0.0
  0
LINE
  8
0
 62
     0
 10
19.7624
 20
64.1382
 30
0.0
 11
19.7624
 21
64.7375
 31
0.0
  0
LINE
  8
0
 62
     0
 10
19.7624
 20
64.7375
 30
0.0
 11
33.7633
 21
64.7375
 31
0.0
  0
LINE
  8
0
 62
     0
 10
33.7633
 20
64.7375
 30
0.0
 11
33.7633
 21
64.1382
 31
0.0
  0
LINE
  8
0
 62
     0
 10
33.7633
 20
64.1382
 30
0.0
 11
34.5626
 21
64.1382
 31
0.0
  0
LINE
  8
0
 62
     0
 10
34.5626
 20
64.1382
 30
0.0
 11
34.5626
 21
51.3373
 31
0.0
  0
LINE
  8
0
 62
     0
 10
34.5626
 20
51.3373
 30
0.0
 11
33.7633
 21
51.3373
 31
0.0
  0
LINE
  8
0
 62
     0
 10
45.6681
 20
89.4373
 30
0.0
 11
45.6681
 21
88.8379
 31
0.0
  0
LINE
  8
0
 62
     0
 10
45.6681
 20
88.8379
 30
0.0
 11
31.6687
 21
88.8379
 31
0.0
  0
LINE
  8
0
 62
     0
 10
31.6687
 20
88.8379
 30
0.0
 11
31.6687
 21
89.4373
 31
0.0
  0
LINE
  8
0
 62
     0
 10
31.6687
 20
89.4373
 30
0.0
 11
30.8694
 21
89.4373
 31
0.0
  0
LINE
  8
0
 62
     0
 10
30.8694
 20
89.4373
 30
0.0
 11
30.8694
 21
102.238
 31
0.0
  0
LINE
  8
0
 62
     0
 10
30.8694
 20
102.238
 30
0.0
 11
31.6687
 21
102.238
 31
0.0
  0
LINE
  8
0
 62
     0
 10
31.6687
 20
102.238
 30
0.0
 11
31.6687
 21
102.838
 31
0.0
  0
LINE
  8
0
 62
     0
 10
31.6687
 20
102.838
 30
0.0
 11
45.6681
 21
102.838
 31
0.0
  0
LINE
  8
0
 62
     0
 10
45.6681
 20
102.838
 30
0.0
 11
45.6681
 21
102.238
 31
0.0
  0
LINE
  8
0
 62
     0
 10
45.6681
 20
102.238
 30
0.0
 11
46.4689
 21
102.238
 31
0.0
  0
LINE
  8
0
 62
     0
 10
46.4689
 20
102.238
 30
0.0
 11
46.4689
 21
89.4373
 31
0.0
  0
LINE
  8
0
 62
     0
 10
46.4689
 20
89.4373
 30
0.0
 11
45.6681
 21
89.4373
 31
0.0
  0
LINE
  8
0
 62
     0
 10
46.7501
 20
38.1868
 30
0.0
 11
46.7501
 21
31.9168
 31
0.0
  0
LINE
  8
0
 62
     0
 10
46.7501
 20
31.9168
 30
0.0
 11
45.1252
 21
31.9168
 31
0.0
  0
LINE
  8
0
 62
     0
 10
45.1252
 20
31.9168
 30
0.0
 11
45.1252
 21
30.937
 31
0.0
  0
LINE
  8
0
 62
     0
 10
45.1252
 20
30.937
 30
0.0
 11
41.825
 21
30.937
 31
0.0
  0
LINE
  8
0
 62
     0
 10
41.825
 20
30.937
 30
0.0
 11
41.825
 21
31.9168
 31
0.0
  0
LINE
  8
0
 62
     0
 10
41.825
 20
31.9168
 30
0.0
 11
40.0995
 21
31.9168
 31
0.0
  0
LINE
  8
0
 62
     0
 10
40.0995
 20
31.9168
 30
0.0
 11
40.0995
 21
32.7174
 31
0.0
  0
LINE
  8
0
 62
     0
 10
40.0995
 20
32.7174
 30
0.0
 11
39.3252
 21
32.7174
 31
0.0
  0
LINE
  8
0
 62
     0
 10
39.3252
 20
32.7174
 30
0.0
 11
39.3252
 21
32.2874
 31
0.0
  0
LINE
  8
0
 62
     0
 10
39.3252
 20
32.2874
 30
0.0
 11
38.5244
 21
32.2874
 31
0.0
  0
LINE
  8
0
 62
     0
 10
38.5244
 20
32.2874
 30
0.0
 11
38.5244
 21
31.688
 31
0.0
  0
LINE
  8
0
 62
     0
 10
38.5244
 20
31.688
 30
0.0
 11
24.5249
 21
31.688
 31
0.0
  0
LINE
  8
0
 62
     0
 10
24.5249
 20
31.688
 30
0.0
 11
24.5249
 21
32.2874
 31
0.0
  0
LINE
  8
0
 62
     0
 10
24.5249
 20
32.2874
 30
0.0
 11
23.7243
 21
32.2874
 31
0.0
  0
LINE
  8
0
 62
     0
 10
23.7243
 20
32.2874
 30
0.0
 11
23.7243
 21
32.7174
 31
0.0
  0
LINE
  8
0
 62
     0
 10
23.7243
 20
32.7174
 30
0.0
 11
22.9499
 21
32.7174
 31
0.0
  0
LINE
  8
0
 62
     0
 10
22.9499
 20
32.7174
 30
0.0
 11
22.9499
 21
31.9168
 31
0.0
  0
LINE
  8
0
 62
     0
 10
22.9499
 20
31.9168
 30
0.0
 11
21.2246
 21
31.9168
 31
0.0
  0
LINE
  8
0
 62
     0
 10
21.2246
 20
31.9168
 30
0.0
 11
21.2246
 21
30.937
 31
0.0
  0
LINE
  8
0
 62
     0
 10
21.2246
 20
30.937
 30
0.0
 11
17.9241
 21
30.937
 31
0.0
  0
LINE
  8
0
 62
     0
 10
17.9241
 20
30.937
 30
0.0
 11
17.9241
 21
31.9168
 31
0.0
  0
LINE
  8
0
 62
     0
 10
17.9241
 20
31.9168
 30
0.0
 11
16.2994
 21
31.9168
 31
0.0
  0
LINE
  8
0
 62
     0
 10
16.2994
 20
31.9168
 30
0.0
 11
16.2994
 21
38.1868
 31
0.0
  0
LINE
  8
0
 62
     0
 10
16.2994
 20
38.1868
 30
0.0
 11
15.4244
 21
38.1868
 31
0.0
  0
LINE
  8
0
 62
     0
 10
15.4244
 20
38.1868
 30
0.0
 11
15.4244
 21
40.9871
 31
0.0
  0
LINE
  8
0
 62
     0
 10
15.4244
 20
40.9871
 30
0.0
 11
16.2994
 21
40.9871
 31
0.0
  0
LINE
  8
0
 62
     0
 10
16.2994
 20
40.9871
 30
0.0
 11
16.2994
 21
44.2172
 31
0.0
  0
LINE
  8
0
 62
     0
 10
16.2994
 20
44.2172
 30
0.0
 11
17.9241
 21
44.2172
 31
0.0
  0
LINE
  8
0
 62
     0
 10
17.9241
 20
44.2172
 30
0.0
 11
17.9241
 21
45.1376
 31
0.0
  0
LINE
  8
0
 62
     0
 10
17.9241
 20
45.1376
 30
0.0
 11
21.2246
 21
45.1376
 31
0.0
  0
LINE
  8
0
 62
     0
 10
21.2246
 20
45.1376
 30
0.0
 11
21.2246
 21
44.2172
 31
0.0
  0
LINE
  8
0
 62
     0
 10
21.2246
 20
44.2172
 30
0.0
 11
22.9499
 21
44.2172
 31
0.0
  0
LINE
  8
0
 62
     0
 10
22.9499
 20
44.2172
 30
0.0
 11
22.9499
 21
43.4178
 31
0.0
  0
LINE
  8
0
 62
     0
 10
22.9499
 20
43.4178
 30
0.0
 11
23.7243
 21
43.4178
 31
0.0
  0
LINE
  8
0
 62
     0
 10
23.7243
 20
43.4178
 30
0.0
 11
23.7243
 21
45.0882
 31
0.0
  0
LINE
  8
0
 62
     0
 10
23.7243
 20
45.0882
 30
0.0
 11
24.5249
 21
45.0882
 31
0.0
  0
LINE
  8
0
 62
     0
 10
24.5249
 20
45.0882
 30
0.0
 11
24.5249
 21
45.6875
 31
0.0
  0
LINE
  8
0
 62
     0
 10
24.5249
 20
45.6875
 30
0.0
 11
38.5244
 21
45.6875
 31
0.0
  0
LINE
  8
0
 62
     0
 10
38.5244
 20
45.6875
 30
0.0
 11
38.5244
 21
45.0882
 31
0.0
  0
LINE
  8
0
 62
     0
 10
38.5244
 20
45.0882
 30
0.0
 11
39.3252
 21
45.0882
 31
0.0
  0
LINE
  8
0
 62
     0
 10
39.3252
 20
45.0882
 30
0.0
 11
39.3252
 21
43.4178
 31
0.0
  0
LINE
  8
0
 62
     0
 10
39.3252
 20
43.4178
 30
0.0
 11
40.0995
 21
43.4178
 31
0.0
  0
LINE
  8
0
 62
     0
 10
40.0995
 20
43.4178
 30
0.0
 11
40.0995
 21
44.2172
 31
0.0
  0
LINE
  8
0
 62
     0
 10
40.0995
 20
44.2172
 30
0.0
 11
41.825
 21
44.2172
 31
0.0
  0
LINE
  8
0
 62
     0
 10
41.825
 20
44.2172
 30
0.0
 11
41.825
 21
45.1376
 31
0.0
  0
LINE
  8
0
 62
     0
 10
41.825
 20
45.1376
 30
0.0
 11
45.1252
 21
45.1376
 31
0.0
  0
LINE
  8
0
 62
     0
 10
45.1252
 20
45.1376
 30
0.0
 11
45.1252
 21
44.2172
 31
0.0
  0
LINE
  8
0
 62
     0
 10
45.1252
 20
44.2172
 30
0.0
 11
46.7501
 21
44.2172
 31
0.0
  0
LINE
  8
0
 62
     0
 10
46.7501
 20
44.2172
 30
0.0
 11
46.7501
 21
40.9871
 31
0.0
  0
LINE
  8
0
 62
     0
 10
46.7501
 20
40.9871
 30
0.0
 11
47.625
 21
40.9871
 31
0.0
  0
LINE
  8
0
 62
     0
 10
47.625
 20
40.9871
 30
0.0
 11
47.625
 21
38.1868
 31
0.0
  0
LINE
  8
0
 62
     0
 10
47.625
 20
38.1868
 30
0.0
 11
46.7501
 21
38.1868
 31
0.0
  0
LINE
  8
0
 62
     0
 10
52.8133
 20
13.2374
 30
0.0
 11
52.8133
 21
12.638
 31
0.0
  0
LINE
  8
0
 62
     0
 10
52.8133
 20
12.638
 30
0.0
 11
38.8126
 21
12.638
 31
0.0
  0
LINE
  8
0
 62
     0
 10
38.8126
 20
12.638
 30
0.0
 11
38.8126
 21
13.2374
 31
0.0
  0
LINE
  8
0
 62
     0
 10
38.8126
 20
13.2374
 30
0.0
 11
38.0132
 21
13.2374
 31
0.0
  0
LINE
  8
0
 62
     0
 10
38.0132
 20
13.2374
 30
0.0
 11
38.0132
 21
26.038
 31
0.0
  0
LINE
  8
0
 62
     0
 10
38.0132
 20
26.038
 30
0.0
 11
38.8126
 21
26.038
 31
0.0
  0
LINE
  8
0
 62
     0
 10
38.8126
 20
26.038
 30
0.0
 11
38.8126
 21
26.6375
 31
0.0
  0
LINE
  8
0
 62
     0
 10
38.8126
 20
26.6375
 30
0.0
 11
52.8133
 21
26.6375
 31
0.0
  0
LINE
  8
0
 62
     0
 10
52.8133
 20
26.6375
 30
0.0
 11
52.8133
 21
26.038
 31
0.0
  0
LINE
  8
0
 62
     0
 10
52.8133
 20
26.038
 30
0.0
 11
53.6127
 21
26.038
 31
0.0
  0
LINE
  8
0
 62
     0
 10
53.6127
 20
26.038
 30
0.0
 11
53.6127
 21
13.2374
 31
0.0
  0
LINE
  8
0
 62
     0
 10
53.6127
 20
13.2374
 30
0.0
 11
52.8133
 21
13.2374
 31
0.0
  0
LINE
  8
0
 62
     0
 10
55.1931
 20
70.3873
 30
0.0
 11
55.1931
 21
69.7879
 31
0.0
  0
LINE
  8
0
 62
     0
 10
55.1931
 20
69.7879
 30
0.0
 11
41.1939
 21
69.7879
 31
0.0
  0
LINE
  8
0
 62
     0
 10
41.1939
 20
69.7879
 30
0.0
 11
41.1939
 21
70.3873
 31
0.0
  0
LINE
  8
0
 62
     0
 10
41.1939
 20
70.3873
 30
0.0
 11
40.3945
 21
70.3873
 31
0.0
  0
LINE
  8
0
 62
     0
 10
40.3945
 20
70.3873
 30
0.0
 11
40.3945
 21
83.1882
 31
0.0
  0
LINE
  8
0
 62
     0
 10
40.3945
 20
83.1882
 30
0.0
 11
41.1939
 21
83.1882
 31
0.0
  0
LINE
  8
0
 62
     0
 10
41.1939
 20
83.1882
 30
0.0
 11
41.1939
 21
83.7875
 31
0.0
  0
LINE
  8
0
 62
     0
 10
41.1939
 20
83.7875
 30
0.0
 11
55.1931
 21
83.7875
 31
0.0
  0
LINE
  8
0
 62
     0
 10
55.1931
 20
83.7875
 30
0.0
 11
55.1931
 21
83.1882
 31
0.0
  0
LINE
  8
0
 62
     0
 10
55.1931
 20
83.1882
 30
0.0
 11
55.9939
 21
83.1882
 31
0.0
  0
LINE
  8
0
 62
     0
 10
55.9939
 20
83.1882
 30
0.0
 11
55.9939
 21
70.3873
 31
0.0
  0
LINE
  8
0
 62
     0
 10
55.9939
 20
70.3873
 30
0.0
 11
55.1931
 21
70.3873
 31
0.0
  0
LINE
  8
0
 62
     0
 10
59.9556
 20
51.3373
 30
0.0
 11
59.9556
 21
50.7379
 31
0.0
  0
LINE
  8
0
 62
     0
 10
59.9556
 20
50.7379
 30
0.0
 11
45.9564
 21
50.7379
 31
0.0
  0
LINE
  8
0
 62
     0
 10
45.9564
 20
50.7379
 30
0.0
 11
45.9564
 21
51.3373
 31
0.0
  0
LINE
  8
0
 62
     0
 10
45.9564
 20
51.3373
 30
0.0
 11
45.1556
 21
51.3373
 31
0.0
  0
LINE
  8
0
 62
     0
 10
45.1556
 20
51.3373
 30
0.0
 11
45.1556
 21
64.1382
 31
0.0
  0
LINE
  8
0
 62
     0
 10
45.1556
 20
64.1382
 30
0.0
 11
45.9564
 21
64.1382
 31
0.0
  0
LINE
  8
0
 62
     0
 10
45.9564
 20
64.1382
 30
0.0
 11
45.9564
 21
64.7375
 31
0.0
  0
LINE
  8
0
 62
     0
 10
45.9564
 20
64.7375
 30
0.0
 11
59.9556
 21
64.7375
 31
0.0
  0
LINE
  8
0
 62
     0
 10
59.9556
 20
64.7375
 30
0.0
 11
59.9556
 21
64.1382
 31
0.0
  0
LINE
  8
0
 62
     0
 10
59.9556
 20
64.1382
 30
0.0
 11
60.7564
 21
64.1382
 31
0.0
  0
LINE
  8
0
 62
     0
 10
60.7564
 20
64.1382
 30
0.0
 11
60.7564
 21
51.3373
 31
0.0
  0
LINE
  8
0
 62
     0
 10
60.7564
 20
51.3373
 30
0.0
 11
59.9556
 21
51.3373
 31
0.0
  0
LINE
  8
0
 62
     0
 10
64.7181
 20
118.012
 30
0.0
 11
64.7181
 21
117.413
 31
0.0
  0
LINE
  8
0
 62
     0
 10
64.7181
 20
117.413
 30
0.0
 11
50.7189
 21
117.413
 31
0.0
  0
LINE
  8
0
 62
     0
 10
50.7189
 20
117.413
 30
0.0
 11
50.7189
 21
118.012
 31
0.0
  0
LINE
  8
0
 62
     0
 10
50.7189
 20
118.012
 30
0.0
 11
49.9195
 21
118.012
 31
0.0
  0
LINE
  8
0
 62
     0
 10
49.9195
 20
118.012
 30
0.0
 11
49.9195
 21
130.813
 31
0.0
  0
LINE
  8
0
 62
     0
 10
49.9195
 20
130.813
 30
0.0
 11
50.7189
 21
130.813
 31
0.0
  0
LINE
  8
0
 62
     0
 10
50.7189
 20
130.813
 30
0.0
 11
50.7189
 21
131.413
 31
0.0
  0
LINE
  8
0
 62
     0
 10
50.7189
 20
131.413
 30
0.0
 11
64.7181
 21
131.413
 31
0.0
  0
LINE
  8
0
 62
     0
 10
64.7181
 20
131.413
 30
0.0
 11
64.7181
 21
130.813
 31
0.0
  0
LINE
  8
0
 62
     0
 10
64.7181
 20
130.813
 30
0.0
 11
65.519
 21
130.813
 31
0.0
  0
LINE
  8
0
 62
     0
 10
65.519
 20
130.813
 30
0.0
 11
65.519
 21
118.012
 31
0.0
  0
LINE
  8
0
 62
     0
 10
65.519
 20
118.012
 30
0.0
 11
64.7181
 21
118.012
 31
0.0
  0
LINE
  8
0
 62
     0
 10
64.7181
 20
89.4373
 30
0.0
 11
64.7181
 21
88.8379
 31
0.0
  0
LINE
  8
0
 62
     0
 10
64.7181
 20
88.8379
 30
0.0
 11
50.7189
 21
88.8379
 31
0.0
  0
LINE
  8
0
 62
     0
 10
50.7189
 20
88.8379
 30
0.0
 11
50.7189
 21
89.4373
 31
0.0
  0
LINE
  8
0
 62
     0
 10
50.7189
 20
89.4373
 30
0.0
 11
49.9195
 21
89.4373
 31
0.0
  0
LINE
  8
0
 62
     0
 10
49.9195
 20
89.4373
 30
0.0
 11
49.9195
 21
102.238
 31
0.0
  0
LINE
  8
0
 62
     0
 10
49.9195
 20
102.238
 30
0.0
 11
50.7189
 21
102.238
 31
0.0
  0
LINE
  8
0
 62
     0
 10
50.7189
 20
102.238
 30
0.0
 11
50.7189
 21
102.838
 31
0.0
  0
LINE
  8
0
 62
     0
 10
50.7189
 20
102.838
 30
0.0
 11
64.7181
 21
102.838
 31
0.0
  0
LINE
  8
0
 62
     0
 10
64.7181
 20
102.838
 30
0.0
 11
64.7181
 21
102.238
 31
0.0
  0
LINE
  8
0
 62
     0
 10
64.7181
 20
102.238
 30
0.0
 11
65.519
 21
102.238
 31
0.0
  0
LINE
  8
0
 62
     0
 10
65.519
 20
102.238
 30
0.0
 11
65.519
 21
89.4373
 31
0.0
  0
LINE
  8
0
 62
     0
 10
65.519
 20
89.4373
 30
0.0
 11
64.7181
 21
89.4373
 31
0.0
  0
LINE
  8
0
 62
     0
 10
69.4821
 20
32.2874
 30
0.0
 11
69.4821
 21
31.688
 31
0.0
  0
LINE
  8
0
 62
     0
 10
69.4821
 20
31.688
 30
0.0
 11
55.4814
 21
31.688
 31
0.0
  0
LINE
  8
0
 62
     0
 10
55.4814
 20
31.688
 30
0.0
 11
55.4814
 21
32.2874
 31
0.0
  0
LINE
  8
0
 62
     0
 10
55.4814
 20
32.2874
 30
0.0
 11
54.682
 21
32.2874
 31
0.0
  0
LINE
  8
0
 62
     0
 10
54.682
 20
32.2874
 30
0.0
 11
54.682
 21
45.0882
 31
0.0
  0
LINE
  8
0
 62
     0
 10
54.682
 20
45.0882
 30
0.0
 11
55.4814
 21
45.0882
 31
0.0
  0
LINE
  8
0
 62
     0
 10
55.4814
 20
45.0882
 30
0.0
 11
55.4814
 21
45.6875
 31
0.0
  0
LINE
  8
0
 62
     0
 10
55.4814
 20
45.6875
 30
0.0
 11
69.4821
 21
45.6875
 31
0.0
  0
LINE
  8
0
 62
     0
 10
69.4821
 20
45.6875
 30
0.0
 11
69.4821
 21
45.0882
 31
0.0
  0
LINE
  8
0
 62
     0
 10
69.4821
 20
45.0882
 30
0.0
 11
70.2815
 21
45.0882
 31
0.0
  0
LINE
  8
0
 62
     0
 10
70.2815
 20
45.0882
 30
0.0
 11
70.2815
 21
32.2874
 31
0.0
  0
LINE
  8
0
 62
     0
 10
70.2815
 20
32.2874
 30
0.0
 11
69.4821
 21
32.2874
 31
0.0
  0
LINE
  8
0
 62
     0
 10
74.2431
 20
70.3873
 30
0.0
 11
74.2431
 21
69.7879
 31
0.0
  0
LINE
  8
0
 62
     0
 10
74.2431
 20
69.7879
 30
0.0
 11
60.2439
 21
69.7879
 31
0.0
  0
LINE
  8
0
 62
     0
 10
60.2439
 20
69.7879
 30
0.0
 11
60.2439
 21
70.3873
 31
0.0
  0
LINE
  8
0
 62
     0
 10
60.2439
 20
70.3873
 30
0.0
 11
59.4445
 21
70.3873
 31
0.0
  0
LINE
  8
0
 62
     0
 10
59.4445
 20
70.3873
 30
0.0
 11
59.4445
 21
83.1882
 31
0.0
  0
LINE
  8
0
 62
     0
 10
59.4445
 20
83.1882
 30
0.0
 11
60.2439
 21
83.1882
 31
0.0
  0
LINE
  8
0
 62
     0
 10
60.2439
 20
83.1882
 30
0.0
 11
60.2439
 21
83.7875
 31
0.0
  0
LINE
  8
0
 62
     0
 10
60.2439
 20
83.7875
 30
0.0
 11
74.2431
 21
83.7875
 31
0.0
  0
LINE
  8
0
 62
     0
 10
74.2431
 20
83.7875
 30
0.0
 11
74.2431
 21
83.1882
 31
0.0
  0
LINE
  8
0
 62
     0
 10
74.2431
 20
83.1882
 30
0.0
 11
75.044
 21
83.1882
 31
0.0
  0
LINE
  8
0
 62
     0
 10
75.044
 20
83.1882
 30
0.0
 11
75.044
 21
70.3873
 31
0.0
  0
LINE
  8
0
 62
     0
 10
75.044
 20
70.3873
 30
0.0
 11
74.2431
 21
70.3873
 31
0.0
  0
LINE
  8
0
 62
     0
 10
76.6244
 20
13.2374
 30
0.0
 11
76.6244
 21
12.638
 31
0.0
  0
LINE
  8
0
 62
     0
 10
76.6244
 20
12.638
 30
0.0
 11
62.6251
 21
12.638
 31
0.0
  0
LINE
  8
0
 62
     0
 10
62.6251
 20
12.638
 30
0.0
 11
62.6251
 21
13.2374
 31
0.0
  0
LINE
  8
0
 62
     0
 10
62.6251
 20
13.2374
 30
0.0
 11
61.8243
 21
13.2374
 31
0.0
  0
LINE
  8
0
 62
     0
 10
61.8243
 20
13.2374
 30
0.0
 11
61.8243
 21
26.038
 31
0.0
  0
LINE
  8
0
 62
     0
 10
61.8243
 20
26.038
 30
0.0
 11
62.6251
 21
26.038
 31
0.0
  0
LINE
  8
0
 62
     0
 10
62.6251
 20
26.038
 30
0.0
 11
62.6251
 21
26.6375
 31
0.0
  0
LINE
  8
0
 62
     0
 10
62.6251
 20
26.6375
 30
0.0
 11
76.6244
 21
26.6375
 31
0.0
  0
LINE
  8
0
 62
     0
 10
76.6244
 20
26.6375
 30
0.0
 11
76.6244
 21
26.038
 31
0.0
  0
LINE
  8
0
 62
     0
 10
76.6244
 20
26.038
 30
0.0
 11
77.4252
 21
26.038
 31
0.0
  0
LINE
  8
0
 62
     0
 10
77.4252
 20
26.038
 30
0.0
 11
77.4252
 21
13.2374
 31
0.0
  0
LINE
  8
0
 62
     0
 10
77.4252
 20
13.2374
 30
0.0
 11
76.6244
 21
13.2374
 31
0.0
  0
LINE
  8
0
 62
     0
 10
79.0056
 20
51.3373
 30
0.0
 11
79.0056
 21
50.7379
 31
0.0
  0
LINE
  8
0
 62
     0
 10
79.0056
 20
50.7379
 30
0.0
 11
65.0064
 21
50.7379
 31
0.0
  0
LINE
  8
0
 62
     0
 10
65.0064
 20
50.7379
 30
0.0
 11
65.0064
 21
51.3373
 31
0.0
  0
LINE
  8
0
 62
     0
 10
65.0064
 20
51.3373
 30
0.0
 11
64.2056
 21
51.3373
 31
0.0
  0
LINE
  8
0
 62
     0
 10
64.2056
 20
51.3373
 30
0.0
 11
64.2056
 21
64.1382
 31
0.0
  0
LINE
  8
0
 62
     0
 10
64.2056
 20
64.1382
 30
0.0
 11
65.0064
 21
64.1382
 31
0.0
  0
LINE
  8
0
 62
     0
 10
65.0064
 20
64.1382
 30
0.0
 11
65.0064
 21
64.7375
 31
0.0
  0
LINE
  8
0
 62
     0
 10
65.0064
 20
64.7375
 30
0.0
 11
79.0056
 21
64.7375
 31
0.0
  0
LINE
  8
0
 62
     0
 10
79.0056
 20
64.7375
 30
0.0
 11
79.0056
 21
64.1382
 31
0.0
  0
LINE
  8
0
 62
     0
 10
79.0056
 20
64.1382
 30
0.0
 11
79.8065
 21
64.1382
 31
0.0
  0
LINE
  8
0
 62
     0
 10
79.8065
 20
64.1382
 30
0.0
 11
79.8065
 21
51.3373
 31
0.0
  0
LINE
  8
0
 62
     0
 10
79.8065
 20
51.3373
 30
0.0
 11
79.0056
 21
51.3373
 31
0.0
  0
LINE
  8
0
 62
     0
 10
83.7681
 20
118.012
 30
0.0
 11
83.7681
 21
117.413
 31
0.0
  0
LINE
  8
0
 62
     0
 10
83.7681
 20
117.413
 30
0.0
 11
69.7689
 21
117.413
 31
0.0
  0
LINE
  8
0
 62
     0
 10
69.7689
 20
117.413
 30
0.0
 11
69.7689
 21
118.012
 31
0.0
  0
LINE
  8
0
 62
     0
 10
69.7689
 20
118.012
 30
0.0
 11
68.9695
 21
118.012
 31
0.0
  0
LINE
  8
0
 62
     0
 10
68.9695
 20
118.012
 30
0.0
 11
68.9695
 21
130.813
 31
0.0
  0
LINE
  8
0
 62
     0
 10
68.9695
 20
130.813
 30
0.0
 11
69.7689
 21
130.813
 31
0.0
  0
LINE
  8
0
 62
     0
 10
69.7689
 20
130.813
 30
0.0
 11
69.7689
 21
131.413
 31
0.0
  0
LINE
  8
0
 62
     0
 10
69.7689
 20
131.413
 30
0.0
 11
83.7681
 21
131.413
 31
0.0
  0
LINE
  8
0
 62
     0
 10
83.7681
 20
131.413
 30
0.0
 11
83.7681
 21
130.813
 31
0.0
  0
LINE
  8
0
 62
     0
 10
83.7681
 20
130.813
 30
0.0
 11
84.569
 21
130.813
 31
0.0
  0
LINE
  8
0
 62
     0
 10
84.569
 20
130.813
 30
0.0
 11
84.569
 21
118.012
 31
0.0
  0
LINE
  8
0
 62
     0
 10
84.569
 20
118.012
 30
0.0
 11
83.7681
 21
118.012
 31
0.0
  0
LINE
  8
0
 62
     0
 10
83.7681
 20
89.4373
 30
0.0
 11
83.7681
 21
88.8379
 31
0.0
  0
LINE
  8
0
 62
     0
 10
83.7681
 20
88.8379
 30
0.0
 11
69.7689
 21
88.8379
 31
0.0
  0
LINE
  8
0
 62
     0
 10
69.7689
 20
88.8379
 30
0.0
 11
69.7689
 21
89.4373
 31
0.0
  0
LINE
  8
0
 62
     0
 10
69.7689
 20
89.4373
 30
0.0
 11
68.9695
 21
89.4373
 31
0.0
  0
LINE
  8
0
 62
     0
 10
68.9695
 20
89.4373
 30
0.0
 11
68.9695
 21
102.238
 31
0.0
  0
LINE
  8
0
 62
     0
 10
68.9695
 20
102.238
 30
0.0
 11
69.7689
 21
102.238
 31
0.0
  0
LINE
  8
0
 62
     0
 10
69.7689
 20
102.238
 30
0.0
 11
69.7689
 21
102.838
 31
0.0
  0
LINE
  8
0
 62
     0
 10
69.7689
 20
102.838
 30
0.0
 11
83.7681
 21
102.838
 31
0.0
  0
LINE
  8
0
 62
     0
 10
83.7681
 20
102.838
 30
0.0
 11
83.7681
 21
102.238
 31
0.0
  0
LINE
  8
0
 62
     0
 10
83.7681
 20
102.238
 30
0.0
 11
84.569
 21
102.238
 31
0.0
  0
LINE
  8
0
 62
     0
 10
84.569
 20
102.238
 30
0.0
 11
84.569
 21
89.4373
 31
0.0
  0
LINE
  8
0
 62
     0
 10
84.569
 20
89.4373
 30
0.0
 11
83.7681
 21
89.4373
 31
0.0
  0
LINE
  8
0
 62
     0
 10
88.5321
 20
32.2874
 30
0.0
 11
88.5321
 21
31.688
 31
0.0
  0
LINE
  8
0
 62
     0
 10
88.5321
 20
31.688
 30
0.0
 11
74.5314
 21
31.688
 31
0.0
  0
LINE
  8
0
 62
     0
 10
74.5314
 20
31.688
 30
0.0
 11
74.5314
 21
32.2874
 31
0.0
  0
LINE
  8
0
 62
     0
 10
74.5314
 20
32.2874
 30
0.0
 11
73.732
 21
32.2874
 31
0.0
  0
LINE
  8
0
 62
     0
 10
73.732
 20
32.2874
 30
0.0
 11
73.732
 21
45.0882
 31
0.0
  0
LINE
  8
0
 62
     0
 10
73.732
 20
45.0882
 30
0.0
 11
74.5314
 21
45.0882
 31
0.0
  0
LINE
  8
0
 62
     0
 10
74.5314
 20
45.0882
 30
0.0
 11
74.5314
 21
45.6875
 31
0.0
  0
LINE
  8
0
 62
     0
 10
74.5314
 20
45.6875
 30
0.0
 11
88.5321
 21
45.6875
 31
0.0
  0
LINE
  8
0
 62
     0
 10
88.5321
 20
45.6875
 30
0.0
 11
88.5321
 21
45.0882
 31
0.0
  0
LINE
  8
0
 62
     0
 10
88.5321
 20
45.0882
 30
0.0
 11
89.3315
 21
45.0882
 31
0.0
  0
LINE
  8
0
 62
     0
 10
89.3315
 20
45.0882
 30
0.0
 11
89.3315
 21
32.2874
 31
0.0
  0
LINE
  8
0
 62
     0
 10
89.3315
 20
32.2874
 30
0.0
 11
88.5321
 21
32.2874
 31
0.0
  0
LINE
  8
0
 62
     0
 10
93.2931
 20
70.3873
 30
0.0
 11
93.2931
 21
69.7879
 31
0.0
  0
LINE
  8
0
 62
     0
 10
93.2931
 20
69.7879
 30
0.0
 11
79.2939
 21
69.7879
 31
0.0
  0
LINE
  8
0
 62
     0
 10
79.2939
 20
69.7879
 30
0.0
 11
79.2939
 21
70.3873
 31
0.0
  0
LINE
  8
0
 62
     0
 10
79.2939
 20
70.3873
 30
0.0
 11
78.4945
 21
70.3873
 31
0.0
  0
LINE
  8
0
 62
     0
 10
78.4945
 20
70.3873
 30
0.0
 11
78.4945
 21
83.1882
 31
0.0
  0
LINE
  8
0
 62
     0
 10
78.4945
 20
83.1882
 30
0.0
 11
79.2939
 21
83.1882
 31
0.0
  0
LINE
  8
0
 62
     0
 10
79.2939
 20
83.1882
 30
0.0
 11
79.2939
 21
83.7875
 31
0.0
  0
LINE
  8
0
 62
     0
 10
79.2939
 20
83.7875
 30
0.0
 11
93.2931
 21
83.7875
 31
0.0
  0
LINE
  8
0
 62
     0
 10
93.2931
 20
83.7875
 30
0.0
 11
93.2931
 21
83.1882
 31
0.0
  0
LINE
  8
0
 62
     0
 10
93.2931
 20
83.1882
 30
0.0
 11
94.0939
 21
83.1882
 31
0.0
  0
LINE
  8
0
 62
     0
 10
94.0939
 20
83.1882
 30
0.0
 11
94.0939
 21
70.3873
 31
0.0
  0
LINE
  8
0
 62
     0
 10
94.0939
 20
70.3873
 30
0.0
 11
93.2931
 21
70.3873
 31
0.0
  0
LINE
  8
0
 62
     0
 10
98.0556
 20
51.3373
 30
0.0
 11
98.0556
 21
50.7379
 31
0.0
  0
LINE
  8
0
 62
     0
 10
98.0556
 20
50.7379
 30
0.0
 11
84.0564
 21
50.7379
 31
0.0
  0
LINE
  8
0
 62
     0
 10
84.0564
 20
50.7379
 30
0.0
 11
84.0564
 21
51.3373
 31
0.0
  0
LINE
  8
0
 62
     0
 10
84.0564
 20
51.3373
 30
0.0
 11
83.2556
 21
51.3373
 31
0.0
  0
LINE
  8
0
 62
     0
 10
83.2556
 20
51.3373
 30
0.0
 11
83.2556
 21
64.1382
 31
0.0
  0
LINE
  8
0
 62
     0
 10
83.2556
 20
64.1382
 30
0.0
 11
84.0564
 21
64.1382
 31
0.0
  0
LINE
  8
0
 62
     0
 10
84.0564
 20
64.1382
 30
0.0
 11
84.0564
 21
64.7375
 31
0.0
  0
LINE
  8
0
 62
     0
 10
84.0564
 20
64.7375
 30
0.0
 11
98.0556
 21
64.7375
 31
0.0
  0
LINE
  8
0
 62
     0
 10
98.0556
 20
64.7375
 30
0.0
 11
98.0556
 21
64.1382
 31
0.0
  0
LINE
  8
0
 62
     0
 10
98.0556
 20
64.1382
 30
0.0
 11
98.8564
 21
64.1382
 31
0.0
  0
LINE
  8
0
 62
     0
 10
98.8564
 20
64.1382
 30
0.0
 11
98.8564
 21
51.3373
 31
0.0
  0
LINE
  8
0
 62
     0
 10
98.8564
 20
51.3373
 30
0.0
 11
98.0556
 21
51.3373
 31
0.0
  0
LINE
  8
0
 62
     0
 10
102.818
 20
118.012
 30
0.0
 11
102.818
 21
117.413
 31
0.0
  0
LINE
  8
0
 62
     0
 10
102.818
 20
117.413
 30
0.0
 11
88.8189
 21
117.413
 31
0.0
  0
LINE
  8
0
 62
     0
 10
88.8189
 20
117.413
 30
0.0
 11
88.8189
 21
118.012
 31
0.0
  0
LINE
  8
0
 62
     0
 10
88.8189
 20
118.012
 30
0.0
 11
88.0195
 21
118.012
 31
0.0
  0
LINE
  8
0
 62
     0
 10
88.0195
 20
118.012
 30
0.0
 11
88.0195
 21
130.813
 31
0.0
  0
LINE
  8
0
 62
     0
 10
88.0195
 20
130.813
 30
0.0
 11
88.8189
 21
130.813
 31
0.0
  0
LINE
  8
0
 62
     0
 10
88.8189
 20
130.813
 30
0.0
 11
88.8189
 21
131.413
 31
0.0
  0
LINE
  8
0
 62
     0
 10
88.8189
 20
131.413
 30
0.0
 11
102.818
 21
131.413
 31
0.0
  0
LINE
  8
0
 62
     0
 10
102.818
 20
131.413
 30
0.0
 11
102.818
 21
130.813
 31
0.0
  0
LINE
  8
0
 62
     0
 10
102.818
 20
130.813
 30
0.0
 11
103.619
 21
130.813
 31
0.0
  0
LINE
  8
0
 62
     0
 10
103.619
 20
130.813
 30
0.0
 11
103.619
 21
118.012
 31
0.0
  0
LINE
  8
0
 62
     0
 10
103.619
 20
118.012
 30
0.0
 11
102.818
 21
118.012
 31
0.0
  0
LINE
  8
0
 62
     0
 10
102.818
 20
89.4373
 30
0.0
 11
102.818
 21
88.8379
 31
0.0
  0
LINE
  8
0
 62
     0
 10
102.818
 20
88.8379
 30
0.0
 11
88.8189
 21
88.8379
 31
0.0
  0
LINE
  8
0
 62
     0
 10
88.8189
 20
88.8379
 30
0.0
 11
88.8189
 21
89.4373
 31
0.0
  0
LINE
  8
0
 62
     0
 10
88.8189
 20
89.4373
 30
0.0
 11
88.0195
 21
89.4373
 31
0.0
  0
LINE
  8
0
 62
     0
 10
88.0195
 20
89.4373
 30
0.0
 11
88.0195
 21
102.238
 31
0.0
  0
LINE
  8
0
 62
     0
 10
88.0195
 20
102.238
 30
0.0
 11
88.8189
 21
102.238
 31
0.0
  0
LINE
  8
0
 62
     0
 10
88.8189
 20
102.238
 30
0.0
 11
88.8189
 21
102.838
 31
0.0
  0
LINE
  8
0
 62
     0
 10
88.8189
 20
102.838
 30
0.0
 11
102.818
 21
102.838
 31
0.0
  0
LINE
  8
0
 62
     0
 10
102.818
 20
102.838
 30
0.0
 11
102.818
 21
102.238
 31
0.0
  0
LINE
  8
0
 62
     0
 10
102.818
 20
102.238
 30
0.0
 11
103.619
 21
102.238
 31
0.0
  0
LINE
  8
0
 62
     0
 10
103.619
 20
102.238
 30
0.0
 11
103.619
 21
89.4373
 31
0.0
  0
LINE
  8
0
 62
     0
 10
103.619
 20
89.4373
 30
0.0
 11
102.818
 21
89.4373
 31
0.0
  0
LINE
  8
0
 62
     0
 10
107.582
 20
32.2874
 30
0.0
 11
107.582
 21
31.688
 31
0.0
  0
LINE
  8
0
 62
     0
 10
107.582
 20
31.688
 30
0.0
 11
93.5814
 21
31.688
 31
0.0
  0
LINE
  8
0
 62
     0
 10
93.5814
 20
31.688
 30
0.0
 11
93.5814
 21
32.2874
 31
0.0
  0
LINE
  8
0
 62
     0
 10
93.5814
 20
32.2874
 30
0.0
 11
92.782
 21
32.2874
 31
0.0
  0
LINE
  8
0
 62
     0
 10
92.782
 20
32.2874
 30
0.0
 11
92.782
 21
45.0882
 31
0.0
  0
LINE
  8
0
 62
     0
 10
92.782
 20
45.0882
 30
0.0
 11
93.5814
 21
45.0882
 31
0.0
  0
LINE
  8
0
 62
     0
 10
93.5814
 20
45.0882
 30
0.0
 11
93.5814
 21
45.6875
 31
0.0
  0
LINE
  8
0
 62
     0
 10
93.5814
 20
45.6875
 30
0.0
 11
107.582
 21
45.6875
 31
0.0
  0
LINE
  8
0
 62
     0
 10
107.582
 20
45.6875
 30
0.0
 11
107.582
 21
45.0882
 31
0.0
  0
LINE
  8
0
 62
     0
 10
107.582
 20
45.0882
 30
0.0
 11
108.381
 21
45.0882
 31
0.0
  0
LINE
  8
0
 62
     0
 10
108.381
 20
45.0882
 30
0.0
 11
108.381
 21
32.2874
 31
0.0
  0
LINE
  8
0
 62
     0
 10
108.381
 20
32.2874
 30
0.0
 11
107.582
 21
32.2874
 31
0.0
  0
LINE
  8
0
 62
     0
 10
112.343
 20
70.3873
 30
0.0
 11
112.343
 21
69.7879
 31
0.0
  0
LINE
  8
0
 62
     0
 10
112.343
 20
69.7879
 30
0.0
 11
98.3439
 21
69.7879
 31
0.0
  0
LINE
  8
0
 62
     0
 10
98.3439
 20
69.7879
 30
0.0
 11
98.3439
 21
70.3873
 31
0.0
  0
LINE
  8
0
 62
     0
 10
98.3439
 20
70.3873
 30
0.0
 11
97.5445
 21
70.3873
 31
0.0
  0
LINE
  8
0
 62
     0
 10
97.5445
 20
70.3873
 30
0.0
 11
97.5445
 21
83.1882
 31
0.0
  0
LINE
  8
0
 62
     0
 10
97.5445
 20
83.1882
 30
0.0
 11
98.3439
 21
83.1882
 31
0.0
  0
LINE
  8
0
 62
     0
 10
98.3439
 20
83.1882
 30
0.0
 11
98.3439
 21
83.7875
 31
0.0
  0
LINE
  8
0
 62
     0
 10
98.3439
 20
83.7875
 30
0.0
 11
112.343
 21
83.7875
 31
0.0
  0
LINE
  8
0
 62
     0
 10
112.343
 20
83.7875
 30
0.0
 11
112.343
 21
83.1882
 31
0.0
  0
LINE
  8
0
 62
     0
 10
112.343
 20
83.1882
 30
0.0
 11
113.144
 21
83.1882
 31
0.0
  0
LINE
  8
0
 62
     0
 10
113.144
 20
83.1882
 30
0.0
 11
113.144
 21
70.3873
 31
0.0
  0
LINE
  8
0
 62
     0
 10
113.144
 20
70.3873
 30
0.0
 11
112.343
 21
70.3873
 31
0.0
  0
LINE
  8
0
 62
     0
 10
117.106
 20
51.3373
 30
0.0
 11
117.106
 21
50.7379
 31
0.0
  0
LINE
  8
0
 62
     0
 10
117.106
 20
50.7379
 30
0.0
 11
103.106
 21
50.7379
 31
0.0
  0
LINE
  8
0
 62
     0
 10
103.106
 20
50.7379
 30
0.0
 11
103.106
 21
51.3373
 31
0.0
  0
LINE
  8
0
 62
     0
 10
103.106
 20
51.3373
 30
0.0
 11
102.306
 21
51.3373
 31
0.0
  0
LINE
  8
0
 62
     0
 10
102.306
 20
51.3373
 30
0.0
 11
102.306
 21
64.1382
 31
0.0
  0
LINE
  8
0
 62
     0
 10
102.306
 20
64.1382
 30
0.0
 11
103.106
 21
64.1382
 31
0.0
  0
LINE
  8
0
 62
     0
 10
103.106
 20
64.1382
 30
0.0
 11
103.106
 21
64.7375
 31
0.0
  0
LINE
  8
0
 62
     0
 10
103.106
 20
64.7375
 30
0.0
 11
117.106
 21
64.7375
 31
0.0
  0
LINE
  8
0
 62
     0
 10
117.106
 20
64.7375
 30
0.0
 11
117.106
 21
64.1382
 31
0.0
  0
LINE
  8
0
 62
     0
 10
117.106
 20
64.1382
 30
0.0
 11
117.906
 21
64.1382
 31
0.0
  0
LINE
  8
0
 62
     0
 10
117.906
 20
64.1382
 30
0.0
 11
117.906
 21
51.3373
 31
0.0
  0
LINE
  8
0
 62
     0
 10
117.906
 20
51.3373
 30
0.0
 11
117.106
 21
51.3373
 31
0.0
  0
LINE
  8
0
 62
     0
 10
121.868
 20
118.012
 30
0.0
 11
121.868
 21
117.413
 31
0.0
  0
LINE
  8
0
 62
     0
 10
121.868
 20
117.413
 30
0.0
 11
107.869
 21
117.413
 31
0.0
  0
LINE
  8
0
 62
     0
 10
107.869
 20
117.413
 30
0.0
 11
107.869
 21
118.012
 31
0.0
  0
LINE
  8
0
 62
     0
 10
107.869
 20
118.012
 30
0.0
 11
107.069
 21
118.012
 31
0.0
  0
LINE
  8
0
 62
     0
 10
107.069
 20
118.012
 30
0.0
 11
107.069
 21
130.813
 31
0.0
  0
LINE
  8
0
 62
     0
 10
107.069
 20
130.813
 30
0.0
 11
107.869
 21
130.813
 31
0.0
  0
LINE
  8
0
 62
     0
 10
107.869
 20
130.813
 30
0.0
 11
107.869
 21
131.413
 31
0.0
  0
LINE
  8
0
 62
     0
 10
107.869
 20
131.413
 30
0.0
 11
121.868
 21
131.413
 31
0.0
  0
LINE
  8
0
 62
     0
 10
121.868
 20
131.413
 30
0.0
 11
121.868
 21
130.813
 31
0.0
  0
LINE
  8
0
 62
     0
 10
121.868
 20
130.813
 30
0.0
 11
122.669
 21
130.813
 31
0.0
  0
LINE
  8
0
 62
     0
 10
122.669
 20
130.813
 30
0.0
 11
122.669
 21
118.012
 31
0.0
  0
LINE
  8
0
 62
     0
 10
122.669
 20
118.012
 30
0.0
 11
121.868
 21
118.012
 31
0.0
  0
LINE
  8
0
 62
     0
 10
121.868
 20
89.4373
 30
0.0
 11
121.868
 21
88.8379
 31
0.0
  0
LINE
  8
0
 62
     0
 10
121.868
 20
88.8379
 30
0.0
 11
107.869
 21
88.8379
 31
0.0
  0
LINE
  8
0
 62
     0
 10
107.869
 20
88.8379
 30
0.0
 11
107.869
 21
89.4373
 31
0.0
  0
LINE
  8
0
 62
     0
 10
107.869
 20
89.4373
 30
0.0
 11
107.069
 21
89.4373
 31
0.0
  0
LINE
  8
0
 62
     0
 10
107.069
 20
89.4373
 30
0.0
 11
107.069
 21
102.238
 31
0.0
  0
LINE
  8
0
 62
     0
 10
107.069
 20
102.238
 30
0.0
 11
107.869
 21
102.238
 31
0.0
  0
LINE
  8
0
 62
     0
 10
107.869
 20
102.238
 30
0.0
 11
107.869
 21
102.838
 31
0.0
  0
LINE
  8
0
 62
     0
 10
107.869
 20
102.838
 30
0.0
 11
121.868
 21
102.838
 31
0.0
  0
LINE
  8
0
 62
     0
 10
121.868
 20
102.838
 30
0.0
 11
121.868
 21
102.238
 31
0.0
  0
LINE
  8
0
 62
     0
 10
121.868
 20
102.238
 30
0.0
 11
122.669
 21
102.238
 31
0.0
  0
LINE
  8
0
 62
     0
 10
122.669
 20
102.238
 30
0.0
 11
122.669
 21
89.4373
 31
0.0
  0
LINE
  8
0
 62
     0
 10
122.669
 20
89.4373
 30
0.0
 11
121.868
 21
89.4373
 31
0.0
  0
LINE
  8
0
 62
     0
 10
126.632
 20
32.2874
 30
0.0
 11
126.632
 21
31.688
 31
0.0
  0
LINE
  8
0
 62
     0
 10
126.632
 20
31.688
 30
0.0
 11
112.631
 21
31.688
 31
0.0
  0
LINE
  8
0
 62
     0
 10
112.631
 20
31.688
 30
0.0
 11
112.631
 21
32.2874
 31
0.0
  0
LINE
  8
0
 62
     0
 10
112.631
 20
32.2874
 30
0.0
 11
111.832
 21
32.2874
 31
0.0
  0
LINE
  8
0
 62
     0
 10
111.832
 20
32.2874
 30
0.0
 11
111.832
 21
45.0882
 31
0.0
  0
LINE
  8
0
 62
     0
 10
111.832
 20
45.0882
 30
0.0
 11
112.631
 21
45.0882
 31
0.0
  0
LINE
  8
0
 62
     0
 10
112.631
 20
45.0882
 30
0.0
 11
112.631
 21
45.6875
 31
0.0
  0
LINE
  8
0
 62
     0
 10
112.631
 20
45.6875
 30
0.0
 11
126.632
 21
45.6875
 31
0.0
  0
LINE
  8
0
 62
     0
 10
126.632
 20
45.6875
 30
0.0
 11
126.632
 21
45.0882
 31
0.0
  0
LINE
  8
0
 62
     0
 10
126.632
 20
45.0882
 30
0.0
 11
127.431
 21
45.0882
 31
0.0
  0
LINE
  8
0
 62
     0
 10
127.431
 20
45.0882
 30
0.0
 11
127.431
 21
32.2874
 31
0.0
  0
LINE
  8
0
 62
     0
 10
127.431
 20
32.2874
 30
0.0
 11
126.632
 21
32.2874
 31
0.0
  0
LINE
  8
0
 62
     0
 10
131.393
 20
70.3873
 30
0.0
 11
131.393
 21
69.7879
 31
0.0
  0
LINE
  8
0
 62
     0
 10
131.393
 20
69.7879
 30
0.0
 11
117.394
 21
69.7879
 31
0.0
  0
LINE
  8
0
 62
     0
 10
117.394
 20
69.7879
 30
0.0
 11
117.394
 21
70.3873
 31
0.0
  0
LINE
  8
0
 62
     0
 10
117.394
 20
70.3873
 30
0.0
 11
116.594
 21
70.3873
 31
0.0
  0
LINE
  8
0
 62
     0
 10
116.594
 20
70.3873
 30
0.0
 11
116.594
 21
83.1882
 31
0.0
  0
LINE
  8
0
 62
     0
 10
116.594
 20
83.1882
 30
0.0
 11
117.394
 21
83.1882
 31
0.0
  0
LINE
  8
0
 62
     0
 10
117.394
 20
83.1882
 30
0.0
 11
117.394
 21
83.7875
 31
0.0
  0
LINE
  8
0
 62
     0
 10
117.394
 20
83.7875
 30
0.0
 11
131.393
 21
83.7875
 31
0.0
  0
LINE
  8
0
 62
     0
 10
131.393
 20
83.7875
 30
0.0
 11
131.393
 21
83.1882
 31
0.0
  0
LINE
  8
0
 62
     0
 10
131.393
 20
83.1882
 30
0.0
 11
132.194
 21
83.1882
 31
0.0
  0
LINE
  8
0
 62
     0
 10
132.194
 20
83.1882
 30
0.0
 11
132.194
 21
70.3873
 31
0.0
  0
LINE
  8
0
 62
     0
 10
132.194
 20
70.3873
 30
0.0
 11
131.393
 21
70.3873
 31
0.0
  0
LINE
  8
0
 62
     0
 10
136.156
 20
51.3373
 30
0.0
 11
136.156
 21
50.7379
 31
0.0
  0
LINE
  8
0
 62
     0
 10
136.156
 20
50.7379
 30
0.0
 11
122.156
 21
50.7379
 31
0.0
  0
LINE
  8
0
 62
     0
 10
122.156
 20
50.7379
 30
0.0
 11
122.156
 21
51.3373
 31
0.0
  0
LINE
  8
0
 62
     0
 10
122.156
 20
51.3373
 30
0.0
 11
121.357
 21
51.3373
 31
0.0
  0
LINE
  8
0
 62
     0
 10
121.357
 20
51.3373
 30
0.0
 11
121.357
 21
64.1382
 31
0.0
  0
LINE
  8
0
 62
     0
 10
121.357
 20
64.1382
 30
0.0
 11
122.156
 21
64.1382
 31
0.0
  0
LINE
  8
0
 62
     0
 10
122.156
 20
64.1382
 30
0.0
 11
122.156
 21
64.7375
 31
0.0
  0
LINE
  8
0
 62
     0
 10
122.156
 20
64.7375
 30
0.0
 11
136.156
 21
64.7375
 31
0.0
  0
LINE
  8
0
 62
     0
 10
136.156
 20
64.7375
 30
0.0
 11
136.156
 21
64.1382
 31
0.0
  0
LINE
  8
0
 62
     0
 10
136.156
 20
64.1382
 30
0.0
 11
136.956
 21
64.1382
 31
0.0
  0
LINE
  8
0
 62
     0
 10
136.956
 20
64.1382
 30
0.0
 11
136.956
 21
51.3373
 31
0.0
  0
LINE
  8
0
 62
     0
 10
136.956
 20
51.3373
 30
0.0
 11
136.156
 21
51.3373
 31
0.0
  0
LINE
  8
0
 62
     0
 10
140.918
 20
89.4373
 30
0.0
 11
140.918
 21
88.8379
 31
0.0
  0
LINE
  8
0
 62
     0
 10
140.918
 20
88.8379
 30
0.0
 11
126.919
 21
88.8379
 31
0.0
  0
LINE
  8
0
 62
     0
 10
126.919
 20
88.8379
 30
0.0
 11
126.919
 21
89.4373
 31
0.0
  0
LINE
  8
0
 62
     0
 10
126.919
 20
89.4373
 30
0.0
 11
126.119
 21
89.4373
 31
0.0
  0
LINE
  8
0
 62
     0
 10
126.119
 20
89.4373
 30
0.0
 11
126.119
 21
102.238
 31
0.0
  0
LINE
  8
0
 62
     0
 10
126.119
 20
102.238
 30
0.0
 11
126.919
 21
102.238
 31
0.0
  0
LINE
  8
0
 62
     0
 10
126.919
 20
102.238
 30
0.0
 11
126.919
 21
102.838
 31
0.0
  0
LINE
  8
0
 62
     0
 10
126.919
 20
102.838
 30
0.0
 11
140.918
 21
102.838
 31
0.0
  0
LINE
  8
0
 62
     0
 10
140.918
 20
102.838
 30
0.0
 11
140.918
 21
102.238
 31
0.0
  0
LINE
  8
0
 62
     0
 10
140.918
 20
102.238
 30
0.0
 11
141.719
 21
102.238
 31
0.0
  0
LINE
  8
0
 62
     0
 10
141.719
 20
102.238
 30
0.0
 11
141.719
 21
89.4373
 31
0.0
  0
LINE
  8
0
 62
     0
 10
141.719
 20
89.4373
 30
0.0
 11
140.918
 21
89.4373
 31
0.0
  0
LINE
  8
0
 62
     0
 10
145.682
 20
32.2874
 30
0.0
 11
145.682
 21
31.688
 31
0.0
  0
LINE
  8
0
 62
     0
 10
145.682
 20
31.688
 30
0.0
 11
131.681
 21
31.688
 31
0.0
  0
LINE
  8
0
 62
     0
 10
131.681
 20
31.688
 30
0.0
 11
131.681
 21
32.2874
 31
0.0
  0
LINE
  8
0
 62
     0
 10
131.681
 20
32.2874
 30
0.0
 11
130.881
 21
32.2874
 31
0.0
  0
LINE
  8
0
 62
     0
 10
130.881
 20
32.2874
 30
0.0
 11
130.881
 21
45.0882
 31
0.0
  0
LINE
  8
0
 62
     0
 10
130.881
 20
45.0882
 30
0.0
 11
131.681
 21
45.0882
 31
0.0
  0
LINE
  8
0
 62
     0
 10
131.681
 20
45.0882
 30
0.0
 11
131.681
 21
45.6875
 31
0.0
  0
LINE
  8
0
 62
     0
 10
131.681
 20
45.6875
 30
0.0
 11
145.682
 21
45.6875
 31
0.0
  0
LINE
  8
0
 62
     0
 10
145.682
 20
45.6875
 30
0.0
 11
145.682
 21
45.0882
 31
0.0
  0
LINE
  8
0
 62
     0
 10
145.682
 20
45.0882
 30
0.0
 11
146.481
 21
45.0882
 31
0.0
  0
LINE
  8
0
 62
     0
 10
146.481
 20
45.0882
 30
0.0
 11
146.481
 21
32.2874
 31
0.0
  0
LINE
  8
0
 62
     0
 10
146.481
 20
32.2874
 30
0.0
 11
145.682
 21
32.2874
 31
0.0
  0
LINE
  8
0
 62
     0
 10
150.443
 20
118.012
 30
0.0
 11
150.443
 21
117.413
 31
0.0
  0
LINE
  8
0
 62
     0
 10
150.443
 20
117.413
 30
0.0
 11
136.444
 21
117.413
 31
0.0
  0
LINE
  8
0
 62
     0
 10
136.444
 20
117.413
 30
0.0
 11
136.444
 21
118.012
 31
0.0
  0
LINE
  8
0
 62
     0
 10
136.444
 20
118.012
 30
0.0
 11
135.644
 21
118.012
 31
0.0
  0
LINE
  8
0
 62
     0
 10
135.644
 20
118.012
 30
0.0
 11
135.644
 21
130.813
 31
0.0
  0
LINE
  8
0
 62
     0
 10
135.644
 20
130.813
 30
0.0
 11
136.444
 21
130.813
 31
0.0
  0
LINE
  8
0
 62
     0
 10
136.444
 20
130.813
 30
0.0
 11
136.444
 21
131.413
 31
0.0
  0
LINE
  8
0
 62
     0
 10
136.444
 20
131.413
 30
0.0
 11
150.443
 21
131.413
 31
0.0
  0
LINE
  8
0
 62
     0
 10
150.443
 20
131.413
 30
0.0
 11
150.443
 21
130.813
 31
0.0
  0
LINE
  8
0
 62
     0
 10
150.443
 20
130.813
 30
0.0
 11
151.244
 21
130.813
 31
0.0
  0
LINE
  8
0
 62
     0
 10
151.244
 20
130.813
 30
0.0
 11
151.244
 21
118.012
 31
0.0
  0
LINE
  8
0
 62
     0
 10
151.244
 20
118.012
 30
0.0
 11
150.443
 21
118.012
 31
0.0
  0
LINE
  8
0
 62
     0
 10
150.443
 20
70.3873
 30
0.0
 11
150.443
 21
69.7879
 31
0.0
  0
LINE
  8
0
 62
     0
 10
150.443
 20
69.7879
 30
0.0
 11
136.444
 21
69.7879
 31
0.0
  0
LINE
  8
0
 62
     0
 10
136.444
 20
69.7879
 30
0.0
 11
136.444
 21
70.3873
 31
0.0
  0
LINE
  8
0
 62
     0
 10
136.444
 20
70.3873
 30
0.0
 11
135.644
 21
70.3873
 31
0.0
  0
LINE
  8
0
 62
     0
 10
135.644
 20
70.3873
 30
0.0
 11
135.644
 21
83.1882
 31
0.0
  0
LINE
  8
0
 62
     0
 10
135.644
 20
83.1882
 30
0.0
 11
136.444
 21
83.1882
 31
0.0
  0
LINE
  8
0
 62
     0
 10
136.444
 20
83.1882
 30
0.0
 11
136.444
 21
83.7875
 31
0.0
  0
LINE
  8
0
 62
     0
 10
136.444
 20
83.7875
 30
0.0
 11
150.443
 21
83.7875
 31
0.0
  0
LINE
  8
0
 62
     0
 10
150.443
 20
83.7875
 30
0.0
 11
150.443
 21
83.1882
 31
0.0
  0
LINE
  8
0
 62
     0
 10
150.443
 20
83.1882
 30
0.0
 11
151.244
 21
83.1882
 31
0.0
  0
LINE
  8
0
 62
     0
 10
151.244
 20
83.1882
 30
0.0
 11
151.244
 21
70.3873
 31
0.0
  0
LINE
  8
0
 62
     0
 10
151.244
 20
70.3873
 30
0.0
 11
150.443
 21
70.3873
 31
0.0
  0
LINE
  8
0
 62
     0
 10
155.207
 20
51.3373
 30
0.0
 11
155.207
 21
50.7379
 31
0.0
  0
LINE
  8
0
 62
     0
 10
155.207
 20
50.7379
 30
0.0
 11
141.206
 21
50.7379
 31
0.0
  0
LINE
  8
0
 62
     0
 10
141.206
 20
50.7379
 30
0.0
 11
141.206
 21
51.3373
 31
0.0
  0
LINE
  8
0
 62
     0
 10
141.206
 20
51.3373
 30
0.0
 11
140.406
 21
51.3373
 31
0.0
  0
LINE
  8
0
 62
     0
 10
140.406
 20
51.3373
 30
0.0
 11
140.406
 21
64.1382
 31
0.0
  0
LINE
  8
0
 62
     0
 10
140.406
 20
64.1382
 30
0.0
 11
141.206
 21
64.1382
 31
0.0
  0
LINE
  8
0
 62
     0
 10
141.206
 20
64.1382
 30
0.0
 11
141.206
 21
64.7375
 31
0.0
  0
LINE
  8
0
 62
     0
 10
141.206
 20
64.7375
 30
0.0
 11
155.207
 21
64.7375
 31
0.0
  0
LINE
  8
0
 62
     0
 10
155.207
 20
64.7375
 30
0.0
 11
155.207
 21
64.1382
 31
0.0
  0
LINE
  8
0
 62
     0
 10
155.207
 20
64.1382
 30
0.0
 11
156.006
 21
64.1382
 31
0.0
  0
LINE
  8
0
 62
     0
 10
156.006
 20
64.1382
 30
0.0
 11
156.006
 21
51.3373
 31
0.0
  0
LINE
  8
0
 62
     0
 10
156.006
 20
51.3373
 30
0.0
 11
155.207
 21
51.3373
 31
0.0
  0
LINE
  8
0
 62
     0
 10
159.968
 20
89.4373
 30
0.0
 11
159.968
 21
88.8379
 31
0.0
  0
LINE
  8
0
 62
     0
 10
159.968
 20
88.8379
 30
0.0
 11
145.969
 21
88.8379
 31
0.0
  0
LINE
  8
0
 62
     0
 10
145.969
 20
88.8379
 30
0.0
 11
145.969
 21
89.4373
 31
0.0
  0
LINE
  8
0
 62
     0
 10
145.969
 20
89.4373
 30
0.0
 11
145.169
 21
89.4373
 31
0.0
  0
LINE
  8
0
 62
     0
 10
145.169
 20
89.4373
 30
0.0
 11
145.169
 21
102.238
 31
0.0
  0
LINE
  8
0
 62
     0
 10
145.169
 20
102.238
 30
0.0
 11
145.969
 21
102.238
 31
0.0
  0
LINE
  8
0
 62
     0
 10
145.969
 20
102.238
 30
0.0
 11
145.969
 21
102.838
 31
0.0
  0
LINE
  8
0
 62
     0
 10
145.969
 20
102.838
 30
0.0
 11
159.968
 21
102.838
 31
0.0
  0
LINE
  8
0
 62
     0
 10
159.968
 20
102.838
 30
0.0
 11
159.968
 21
102.238
 31
0.0
  0
LINE
  8
0
 62
     0
 10
159.968
 20
102.238
 30
0.0
 11
160.769
 21
102.238
 31
0.0
  0
LINE
  8
0
 62
     0
 10
160.769
 20
102.238
 30
0.0
 11
160.769
 21
89.4373
 31
0.0
  0
LINE
  8
0
 62
     0
 10
160.769
 20
89.4373
 30
0.0
 11
159.968
 21
89.4373
 31
0.0
  0
LINE
  8
0
 62
     0
 10
164.732
 20
32.2874
 30
0.0
 11
164.732
 21
31.688
 31
0.0
  0
LINE
  8
0
 62
     0
 10
164.732
 20
31.688
 30
0.0
 11
150.731
 21
31.688
 31
0.0
  0
LINE
  8
0
 62
     0
 10
150.731
 20
31.688
 30
0.0
 11
150.731
 21
32.2874
 31
0.0
  0
LINE
  8
0
 62
     0
 10
150.731
 20
32.2874
 30
0.0
 11
149.932
 21
32.2874
 31
0.0
  0
LINE
  8
0
 62
     0
 10
149.932
 20
32.2874
 30
0.0
 11
149.932
 21
45.0882
 31
0.0
  0
LINE
  8
0
 62
     0
 10
149.932
 20
45.0882
 30
0.0
 11
150.731
 21
45.0882
 31
0.0
  0
LINE
  8
0
 62
     0
 10
150.731
 20
45.0882
 30
0.0
 11
150.731
 21
45.6875
 31
0.0
  0
LINE
  8
0
 62
     0
 10
150.731
 20
45.6875
 30
0.0
 11
164.732
 21
45.6875
 31
0.0
  0
LINE
  8
0
 62
     0
 10
164.732
 20
45.6875
 30
0.0
 11
164.732
 21
45.0882
 31
0.0
  0
LINE
  8
0
 62
     0
 10
164.732
 20
45.0882
 30
0.0
 11
165.531
 21
45.0882
 31
0.0
  0
LINE
  8
0
 62
     0
 10
165.531
 20
45.0882
 30
0.0
 11
165.531
 21
32.2874
 31
0.0
  0
LINE
  8
0
 62
     0
 10
165.531
 20
32.2874
 30
0.0
 11
164.732
 21
32.2874
 31
0.0
  0
LINE
  8
0
 62
     0
 10
169.493
 20
118.012
 30
0.0
 11
169.493
 21
117.413
 31
0.0
  0
LINE
  8
0
 62
     0
 10
169.493
 20
117.413
 30
0.0
 11
155.494
 21
117.413
 31
0.0
  0
LINE
  8
0
 62
     0
 10
155.494
 20
117.413
 30
0.0
 11
155.494
 21
118.012
 31
0.0
  0
LINE
  8
0
 62
     0
 10
155.494
 20
118.012
 30
0.0
 11
154.694
 21
118.012
 31
0.0
  0
LINE
  8
0
 62
     0
 10
154.694
 20
118.012
 30
0.0
 11
154.694
 21
130.813
 31
0.0
  0
LINE
  8
0
 62
     0
 10
154.694
 20
130.813
 30
0.0
 11
155.494
 21
130.813
 31
0.0
  0
LINE
  8
0
 62
     0
 10
155.494
 20
130.813
 30
0.0
 11
155.494
 21
131.413
 31
0.0
  0
LINE
  8
0
 62
     0
 10
155.494
 20
131.413
 30
0.0
 11
169.493
 21
131.413
 31
0.0
  0
LINE
  8
0
 62
     0
 10
169.493
 20
131.413
 30
0.0
 11
169.493
 21
130.813
 31
0.0
  0
LINE
  8
0
 62
     0
 10
169.493
 20
130.813
 30
0.0
 11
170.294
 21
130.813
 31
0.0
  0
LINE
  8
0
 62
     0
 10
170.294
 20
130.813
 30
0.0
 11
170.294
 21
118.012
 31
0.0
  0
LINE
  8
0
 62
     0
 10
170.294
 20
118.012
 30
0.0
 11
169.493
 21
118.012
 31
0.0
  0
LINE
  8
0
 62
     0
 10
169.493
 20
70.3873
 30
0.0
 11
169.493
 21
69.7879
 31
0.0
  0
LINE
  8
0
 62
     0
 10
169.493
 20
69.7879
 30
0.0
 11
155.494
 21
69.7879
 31
0.0
  0
LINE
  8
0
 62
     0
 10
155.494
 20
69.7879
 30
0.0
 11
155.494
 21
70.3873
 31
0.0
  0
LINE
  8
0
 62
     0
 10
155.494
 20
70.3873
 30
0.0
 11
154.694
 21
70.3873
 31
0.0
  0
LINE
  8
0
 62
     0
 10
154.694
 20
70.3873
 30
0.0
 11
154.694
 21
83.1882
 31
0.0
  0
LINE
  8
0
 62
     0
 10
154.694
 20
83.1882
 30
0.0
 11
155.494
 21
83.1882
 31
0.0
  0
LINE
  8
0
 62
     0
 10
155.494
 20
83.1882
 30
0.0
 11
155.494
 21
83.7875
 31
0.0
  0
LINE
  8
0
 62
     0
 10
155.494
 20
83.7875
 30
0.0
 11
169.493
 21
83.7875
 31
0.0
  0
LINE
  8
0
 62
     0
 10
169.493
 20
83.7875
 30
0.0
 11
169.493
 21
83.1882
 31
0.0
  0
LINE
  8
0
 62
     0
 10
169.493
 20
83.1882
 30
0.0
 11
170.294
 21
83.1882
 31
0.0
  0
LINE
  8
0
 62
     0
 10
170.294
 20
83.1882
 30
0.0
 11
170.294
 21
70.3873
 31
0.0
  0
LINE
  8
0
 62
     0
 10
170.294
 20
70.3873
 30
0.0
 11
169.493
 21
70.3873
 31
0.0
  0
LINE
  8
0
 62
     0
 10
174.257
 20
51.3373
 30
0.0
 11
174.257
 21
50.7379
 31
0.0
  0
LINE
  8
0
 62
     0
 10
174.257
 20
50.7379
 30
0.0
 11
160.256
 21
50.7379
 31
0.0
  0
LINE
  8
0
 62
     0
 10
160.256
 20
50.7379
 30
0.0
 11
160.256
 21
51.3373
 31
0.0
  0
LINE
  8
0
 62
     0
 10
160.256
 20
51.3373
 30
0.0
 11
159.457
 21
51.3373
 31
0.0
  0
LINE
  8
0
 62
     0
 10
159.457
 20
51.3373
 30
0.0
 11
159.457
 21
64.1382
 31
0.0
  0
LINE
  8
0
 62
     0
 10
159.457
 20
64.1382
 30
0.0
 11
160.256
 21
64.1382
 31
0.0
  0
LINE
  8
0
 62
     0
 10
160.256
 20
64.1382
 30
0.0
 11
160.256
 21
64.7375
 31
0.0
  0
LINE
  8
0
 62
     0
 10
160.256
 20
64.7375
 30
0.0
 11
174.257
 21
64.7375
 31
0.0
  0
LINE
  8
0
 62
     0
 10
174.257
 20
64.7375
 30
0.0
 11
174.257
 21
64.1382
 31
0.0
  0
LINE
  8
0
 62
     0
 10
174.257
 20
64.1382
 30
0.0
 11
175.056
 21
64.1382
 31
0.0
  0
LINE
  8
0
 62
     0
 10
175.056
 20
64.1382
 30
0.0
 11
175.056
 21
51.3373
 31
0.0
  0
LINE
  8
0
 62
     0
 10
175.056
 20
51.3373
 30
0.0
 11
174.257
 21
51.3373
 31
0.0
  0
LINE
  8
0
 62
     0
 10
179.018
 20
89.4373
 30
0.0
 11
179.018
 21
88.8379
 31
0.0
  0
LINE
  8
0
 62
     0
 10
179.018
 20
88.8379
 30
0.0
 11
165.019
 21
88.8379
 31
0.0
  0
LINE
  8
0
 62
     0
 10
165.019
 20
88.8379
 30
0.0
 11
165.019
 21
89.4373
 31
0.0
  0
LINE
  8
0
 62
     0
 10
165.019
 20
89.4373
 30
0.0
 11
164.218
 21
89.4373
 31
0.0
  0
LINE
  8
0
 62
     0
 10
164.218
 20
89.4373
 30
0.0
 11
164.218
 21
102.238
 31
0.0
  0
LINE
  8
0
 62
     0
 10
164.218
 20
102.238
 30
0.0
 11
165.019
 21
102.238
 31
0.0
  0
LINE
  8
0
 62
     0
 10
165.019
 20
102.238
 30
0.0
 11
165.019
 21
102.838
 31
0.0
  0
LINE
  8
0
 62
     0
 10
165.019
 20
102.838
 30
0.0
 11
179.018
 21
102.838
 31
0.0
  0
LINE
  8
0
 62
     0
 10
179.018
 20
102.838
 30
0.0
 11
179.018
 21
102.238
 31
0.0
  0
LINE
  8
0
 62
     0
 10
179.018
 20
102.238
 30
0.0
 11
179.819
 21
102.238
 31
0.0
  0
LINE
  8
0
 62
     0
 10
179.819
 20
102.238
 30
0.0
 11
179.819
 21
89.4373
 31
0.0
  0
LINE
  8
0
 62
     0
 10
179.819
 20
89.4373
 30
0.0
 11
179.018
 21
89.4373
 31
0.0
  0
LINE
  8
0
 62
     0
 10
183.782
 20
32.2874
 30
0.0
 11
183.782
 21
31.688
 31
0.0
  0
LINE
  8
0
 62
     0
 10
183.782
 20
31.688
 30
0.0
 11
169.781
 21
31.688
 31
0.0
  0
LINE
  8
0
 62
     0
 10
169.781
 20
31.688
 30
0.0
 11
169.781
 21
32.2874
 31
0.0
  0
LINE
  8
0
 62
     0
 10
169.781
 20
32.2874
 30
0.0
 11
168.982
 21
32.2874
 31
0.0
  0
LINE
  8
0
 62
     0
 10
168.982
 20
32.2874
 30
0.0
 11
168.982
 21
45.0882
 31
0.0
  0
LINE
  8
0
 62
     0
 10
168.982
 20
45.0882
 30
0.0
 11
169.781
 21
45.0882
 31
0.0
  0
LINE
  8
0
 62
     0
 10
169.781
 20
45.0882
 30
0.0
 11
169.781
 21
45.6875
 31
0.0
  0
LINE
  8
0
 62
     0
 10
169.781
 20
45.6875
 30
0.0
 11
183.782
 21
45.6875
 31
0.0
  0
LINE
  8
0
 62
     0
 10
183.782
 20
45.6875
 30
0.0
 11
183.782
 21
45.0882
 31
0.0
  0
LINE
  8
0
 62
     0
 10
183.782
 20
45.0882
 30
0.0
 11
184.581
 21
45.0882
 31
0.0
  0
LINE
  8
0
 62
     0
 10
184.581
 20
45.0882
 30
0.0
 11
184.581
 21
32.2874
 31
0.0
  0
LINE
  8
0
 62
     0
 10
184.581
 20
32.2874
 30
0.0
 11
183.782
 21
32.2874
 31
0.0
  0
LINE
  8
0
 62
     0
 10
188.543
 20
118.012
 30
0.0
 11
188.543
 21
117.413
 31
0.0
  0
LINE
  8
0
 62
     0
 10
188.543
 20
117.413
 30
0.0
 11
174.544
 21
117.413
 31
0.0
  0
LINE
  8
0
 62
     0
 10
174.544
 20
117.413
 30
0.0
 11
174.544
 21
118.012
 31
0.0
  0
LINE
  8
0
 62
     0
 10
174.544
 20
118.012
 30
0.0
 11
173.743
 21
118.012
 31
0.0
  0
LINE
  8
0
 62
     0
 10
173.743
 20
118.012
 30
0.0
 11
173.743
 21
130.813
 31
0.0
  0
LINE
  8
0
 62
     0
 10
173.743
 20
130.813
 30
0.0
 11
174.544
 21
130.813
 31
0.0
  0
LINE
  8
0
 62
     0
 10
174.544
 20
130.813
 30
0.0
 11
174.544
 21
131.413
 31
0.0
  0
LINE
  8
0
 62
     0
 10
174.544
 20
131.413
 30
0.0
 11
188.543
 21
131.413
 31
0.0
  0
LINE
  8
0
 62
     0
 10
188.543
 20
131.413
 30
0.0
 11
188.543
 21
130.813
 31
0.0
  0
LINE
  8
0
 62
     0
 10
188.543
 20
130.813
 30
0.0
 11
189.344
 21
130.813
 31
0.0
  0
LINE
  8
0
 62
     0
 10
189.344
 20
130.813
 30
0.0
 11
189.344
 21
118.012
 31
0.0
  0
LINE
  8
0
 62
     0
 10
189.344
 20
118.012
 30
0.0
 11
188.543
 21
118.012
 31
0.0
  0
LINE
  8
0
 62
     0
 10
188.543
 20
70.3873
 30
0.0
 11
188.543
 21
69.7879
 31
0.0
  0
LINE
  8
0
 62
     0
 10
188.543
 20
69.7879
 30
0.0
 11
174.544
 21
69.7879
 31
0.0
  0
LINE
  8
0
 62
     0
 10
174.544
 20
69.7879
 30
0.0
 11
174.544
 21
70.3873
 31
0.0
  0
LINE
  8
0
 62
     0
 10
174.544
 20
70.3873
 30
0.0
 11
173.743
 21
70.3873
 31
0.0
  0
LINE
  8
0
 62
     0
 10
173.743
 20
70.3873
 30
0.0
 11
173.743
 21
83.1882
 31
0.0
  0
LINE
  8
0
 62
     0
 10
173.743
 20
83.1882
 30
0.0
 11
174.544
 21
83.1882
 31
0.0
  0
LINE
  8
0
 62
     0
 10
174.544
 20
83.1882
 30
0.0
 11
174.544
 21
83.7875
 31
0.0
  0
LINE
  8
0
 62
     0
 10
174.544
 20
83.7875
 30
0.0
 11
188.543
 21
83.7875
 31
0.0
  0
LINE
  8
0
 62
     0
 10
188.543
 20
83.7875
 30
0.0
 11
188.543
 21
83.1882
 31
0.0
  0
LINE
  8
0
 62
     0
 10
188.543
 20
83.1882
 30
0.0
 11
189.344
 21
83.1882
 31
0.0
  0
LINE
  8
0
 62
     0
 10
189.344
 20
83.1882
 30
0.0
 11
189.344
 21
70.3873
 31
0.0
  0
LINE
  8
0
 62
     0
 10
189.344
 20
70.3873
 30
0.0
 11
188.543
 21
70.3873
 31
0.0
  0
LINE
  8
0
 62
     0
 10
193.307
 20
51.3373
 30
0.0
 11
193.307
 21
50.7379
 31
0.0
  0
LINE
  8
0
 62
     0
 10
193.307
 20
50.7379
 30
0.0
 11
179.306
 21
50.7379
 31
0.0
  0
LINE
  8
0
 62
     0
 10
179.306
 20
50.7379
 30
0.0
 11
179.306
 21
51.3373
 31
0.0
  0
LINE
  8
0
 62
     0
 10
179.306
 20
51.3373
 30
0.0
 11
178.507
 21
51.3373
 31
0.0
  0
LINE
  8
0
 62
     0
 10
178.507
 20
51.3373
 30
0.0
 11
178.507
 21
64.1382
 31
0.0
  0
LINE
  8
0
 62
     0
 10
178.507
 20
64.1382
 30
0.0
 11
179.306
 21
64.1382
 31
0.0
  0
LINE
  8
0
 62
     0
 10
179.306
 20
64.1382
 30
0.0
 11
179.306
 21
64.7375
 31
0.0
  0
LINE
  8
0
 62
     0
 10
179.306
 20
64.7375
 30
0.0
 11
193.307
 21
64.7375
 31
0.0
  0
LINE
  8
0
 62
     0
 10
193.307
 20
64.7375
 30
0.0
 11
193.307
 21
64.1382
 31
0.0
  0
LINE
  8
0
 62
     0
 10
193.307
 20
64.1382
 30
0.0
 11
194.106
 21
64.1382
 31
0.0
  0
LINE
  8
0
 62
     0
 10
194.106
 20
64.1382
 30
0.0
 11
194.106
 21
51.3373
 31
0.0
  0
LINE
  8
0
 62
     0
 10
194.106
 20
51.3373
 30
0.0
 11
193.307
 21
51.3373
 31
0.0
  0
LINE
  8
0
 62
     0
 10
194.388
 20
19.1368
 30
0.0
 11
194.388
 21
12.8668
 31
0.0
  0
LINE
  8
0
 62
     0
 10
194.388
 20
12.8668
 30
0.0
 11
192.713
 21
12.8668
 31
0.0
  0
LINE
  8
0
 62
     0
 10
192.713
 20
12.8668
 30
0.0
 11
192.713
 21
11.887
 31
0.0
  0
LINE
  8
0
 62
     0
 10
192.713
 20
11.887
 30
0.0
 11
189.413
 21
11.887
 31
0.0
  0
LINE
  8
0
 62
     0
 10
189.413
 20
11.887
 30
0.0
 11
189.413
 21
12.8668
 31
0.0
  0
LINE
  8
0
 62
     0
 10
189.413
 20
12.8668
 30
0.0
 11
187.738
 21
12.8668
 31
0.0
  0
LINE
  8
0
 62
     0
 10
187.738
 20
12.8668
 30
0.0
 11
187.738
 21
17.3371
 31
0.0
  0
LINE
  8
0
 62
     0
 10
187.738
 20
17.3371
 30
0.0
 11
148.863
 21
17.3371
 31
0.0
  0
LINE
  8
0
 62
     0
 10
148.863
 20
17.3371
 30
0.0
 11
148.863
 21
13.2374
 31
0.0
  0
LINE
  8
0
 62
     0
 10
148.863
 20
13.2374
 30
0.0
 11
148.063
 21
13.2374
 31
0.0
  0
LINE
  8
0
 62
     0
 10
148.063
 20
13.2374
 30
0.0
 11
148.063
 21
12.638
 31
0.0
  0
LINE
  8
0
 62
     0
 10
148.063
 20
12.638
 30
0.0
 11
134.063
 21
12.638
 31
0.0
  0
LINE
  8
0
 62
     0
 10
134.063
 20
12.638
 30
0.0
 11
134.063
 21
13.2374
 31
0.0
  0
LINE
  8
0
 62
     0
 10
134.063
 20
13.2374
 30
0.0
 11
133.263
 21
13.2374
 31
0.0
  0
LINE
  8
0
 62
     0
 10
133.263
 20
13.2374
 30
0.0
 11
133.263
 21
17.3371
 31
0.0
  0
LINE
  8
0
 62
     0
 10
133.263
 20
17.3371
 30
0.0
 11
94.3875
 21
17.3371
 31
0.0
  0
LINE
  8
0
 62
     0
 10
94.3875
 20
17.3371
 30
0.0
 11
94.3875
 21
12.8668
 31
0.0
  0
LINE
  8
0
 62
     0
 10
94.3875
 20
12.8668
 30
0.0
 11
92.7132
 21
12.8668
 31
0.0
  0
LINE
  8
0
 62
     0
 10
92.7132
 20
12.8668
 30
0.0
 11
92.7132
 21
11.887
 31
0.0
  0
LINE
  8
0
 62
     0
 10
92.7132
 20
11.887
 30
0.0
 11
89.4126
 21
11.887
 31
0.0
  0
LINE
  8
0
 62
     0
 10
89.4126
 20
11.887
 30
0.0
 11
89.4126
 21
12.8668
 31
0.0
  0
LINE
  8
0
 62
     0
 10
89.4126
 20
12.8668
 30
0.0
 11
87.7383
 21
12.8668
 31
0.0
  0
LINE
  8
0
 62
     0
 10
87.7383
 20
12.8668
 30
0.0
 11
87.7383
 21
19.1368
 31
0.0
  0
LINE
  8
0
 62
     0
 10
87.7383
 20
19.1368
 30
0.0
 11
86.8634
 21
19.1368
 31
0.0
  0
LINE
  8
0
 62
     0
 10
86.8634
 20
19.1368
 30
0.0
 11
86.8634
 21
21.937
 31
0.0
  0
LINE
  8
0
 62
     0
 10
86.8634
 20
21.937
 30
0.0
 11
87.7383
 21
21.937
 31
0.0
  0
LINE
  8
0
 62
     0
 10
87.7383
 20
21.937
 30
0.0
 11
87.7383
 21
25.1671
 31
0.0
  0
LINE
  8
0
 62
     0
 10
87.7383
 20
25.1671
 30
0.0
 11
89.4126
 21
25.1671
 31
0.0
  0
LINE
  8
0
 62
     0
 10
89.4126
 20
25.1671
 30
0.0
 11
89.4126
 21
26.0876
 31
0.0
  0
LINE
  8
0
 62
     0
 10
89.4126
 20
26.0876
 30
0.0
 11
92.7132
 21
26.0876
 31
0.0
  0
LINE
  8
0
 62
     0
 10
92.7132
 20
26.0876
 30
0.0
 11
92.7132
 21
25.1671
 31
0.0
  0
LINE
  8
0
 62
     0
 10
92.7132
 20
25.1671
 30
0.0
 11
94.3875
 21
25.1671
 31
0.0
  0
LINE
  8
0
 62
     0
 10
94.3875
 20
25.1671
 30
0.0
 11
94.3875
 21
21.937
 31
0.0
  0
LINE
  8
0
 62
     0
 10
94.3875
 20
21.937
 30
0.0
 11
133.263
 21
21.937
 31
0.0
  0
LINE
  8
0
 62
     0
 10
133.263
 20
21.937
 30
0.0
 11
133.263
 21
26.038
 31
0.0
  0
LINE
  8
0
 62
     0
 10
133.263
 20
26.038
 30
0.0
 11
134.063
 21
26.038
 31
0.0
  0
LINE
  8
0
 62
     0
 10
134.063
 20
26.038
 30
0.0
 11
134.063
 21
26.6375
 31
0.0
  0
LINE
  8
0
 62
     0
 10
134.063
 20
26.6375
 30
0.0
 11
148.063
 21
26.6375
 31
0.0
  0
LINE
  8
0
 62
     0
 10
148.063
 20
26.6375
 30
0.0
 11
148.063
 21
26.038
 31
0.0
  0
LINE
  8
0
 62
     0
 10
148.063
 20
26.038
 30
0.0
 11
148.863
 21
26.038
 31
0.0
  0
LINE
  8
0
 62
     0
 10
148.863
 20
26.038
 30
0.0
 11
148.863
 21
21.937
 31
0.0
  0
LINE
  8
0
 62
     0
 10
148.863
 20
21.937
 30
0.0
 11
187.738
 21
21.937
 31
0.0
  0
LINE
  8
0
 62
     0
 10
187.738
 20
21.937
 30
0.0
 11
187.738
 21
25.1671
 31
0.0
  0
LINE
  8
0
 62
     0
 10
187.738
 20
25.1671
 30
0.0
 11
189.413
 21
25.1671
 31
0.0
  0
LINE
  8
0
 62
     0
 10
189.413
 20
25.1671
 30
0.0
 11
189.413
 21
26.0876
 31
0.0
  0
LINE
  8
0
 62
     0
 10
189.413
 20
26.0876
 30
0.0
 11
192.713
 21
26.0876
 31
0.0
  0
LINE
  8
0
 62
     0
 10
192.713
 20
26.0876
 30
0.0
 11
192.713
 21
25.1671
 31
0.0
  0
LINE
  8
0
 62
     0
 10
192.713
 20
25.1671
 30
0.0
 11
194.388
 21
25.1671
 31
0.0
  0
LINE
  8
0
 62
     0
 10
194.388
 20
25.1671
 30
0.0
 11
194.388
 21
21.937
 31
0.0
  0
LINE
  8
0
 62
     0
 10
194.388
 20
21.937
 30
0.0
 11
195.263
 21
21.937
 31
0.0
  0
LINE
  8
0
 62
     0
 10
195.263
 20
21.937
 30
0.0
 11
195.263
 21
19.1368
 31
0.0
  0
LINE
  8
0
 62
     0
 10
195.263
 20
19.1368
 30
0.0
 11
194.388
 21
19.1368
 31
0.0
  0
LINE
  8
0
 62
     0
 10
198.068
 20
89.4373
 30
0.0
 11
198.068
 21
88.8379
 31
0.0
  0
LINE
  8
0
 62
     0
 10
198.068
 20
88.8379
 30
0.0
 11
184.069
 21
88.8379
 31
0.0
  0
LINE
  8
0
 62
     0
 10
184.069
 20
88.8379
 30
0.0
 11
184.069
 21
89.4373
 31
0.0
  0
LINE
  8
0
 62
     0
 10
184.069
 20
89.4373
 30
0.0
 11
183.268
 21
89.4373
 31
0.0
  0
LINE
  8
0
 62
     0
 10
183.268
 20
89.4373
 30
0.0
 11
183.268
 21
102.238
 31
0.0
  0
LINE
  8
0
 62
     0
 10
183.268
 20
102.238
 30
0.0
 11
184.069
 21
102.238
 31
0.0
  0
LINE
  8
0
 62
     0
 10
184.069
 20
102.238
 30
0.0
 11
184.069
 21
102.838
 31
0.0
  0
LINE
  8
0
 62
     0
 10
184.069
 20
102.838
 30
0.0
 11
198.068
 21
102.838
 31
0.0
  0
LINE
  8
0
 62
     0
 10
198.068
 20
102.838
 30
0.0
 11
198.068
 21
102.238
 31
0.0
  0
LINE
  8
0
 62
     0
 10
198.068
 20
102.238
 30
0.0
 11
198.869
 21
102.238
 31
0.0
  0
LINE
  8
0
 62
     0
 10
198.869
 20
102.238
 30
0.0
 11
198.869
 21
89.4373
 31
0.0
  0
LINE
  8
0
 62
     0
 10
198.869
 20
89.4373
 30
0.0
 11
198.068
 21
89.4373
 31
0.0
  0
LINE
  8
0
 62
     0
 10
202.832
 20
32.2874
 30
0.0
 11
202.832
 21
31.688
 31
0.0
  0
LINE
  8
0
 62
     0
 10
202.832
 20
31.688
 30
0.0
 11
188.831
 21
31.688
 31
0.0
  0
LINE
  8
0
 62
     0
 10
188.831
 20
31.688
 30
0.0
 11
188.831
 21
32.2874
 31
0.0
  0
LINE
  8
0
 62
     0
 10
188.831
 20
32.2874
 30
0.0
 11
188.032
 21
32.2874
 31
0.0
  0
LINE
  8
0
 62
     0
 10
188.032
 20
32.2874
 30
0.0
 11
188.032
 21
45.0882
 31
0.0
  0
LINE
  8
0
 62
     0
 10
188.032
 20
45.0882
 30
0.0
 11
188.831
 21
45.0882
 31
0.0
  0
LINE
  8
0
 62
     0
 10
188.831
 20
45.0882
 30
0.0
 11
188.831
 21
45.6875
 31
0.0
  0
LINE
  8
0
 62
     0
 10
188.831
 20
45.6875
 30
0.0
 11
202.832
 21
45.6875
 31
0.0
  0
LINE
  8
0
 62
     0
 10
202.832
 20
45.6875
 30
0.0
 11
202.832
 21
45.0882
 31
0.0
  0
LINE
  8
0
 62
     0
 10
202.832
 20
45.0882
 30
0.0
 11
203.631
 21
45.0882
 31
0.0
  0
LINE
  8
0
 62
     0
 10
203.631
 20
45.0882
 30
0.0
 11
203.631
 21
32.2874
 31
0.0
  0
LINE
  8
0
 62
     0
 10
203.631
 20
32.2874
 30
0.0
 11
202.832
 21
32.2874
 31
0.0
  0
LINE
  8
0
 62
     0
 10
207.593
 20
118.012
 30
0.0
 11
207.593
 21
117.413
 31
0.0
  0
LINE
  8
0
 62
     0
 10
207.593
 20
117.413
 30
0.0
 11
193.594
 21
117.413
 31
0.0
  0
LINE
  8
0
 62
     0
 10
193.594
 20
117.413
 30
0.0
 11
193.594
 21
118.012
 31
0.0
  0
LINE
  8
0
 62
     0
 10
193.594
 20
118.012
 30
0.0
 11
192.793
 21
118.012
 31
0.0
  0
LINE
  8
0
 62
     0
 10
192.793
 20
118.012
 30
0.0
 11
192.793
 21
130.813
 31
0.0
  0
LINE
  8
0
 62
     0
 10
192.793
 20
130.813
 30
0.0
 11
193.594
 21
130.813
 31
0.0
  0
LINE
  8
0
 62
     0
 10
193.594
 20
130.813
 30
0.0
 11
193.594
 21
131.413
 31
0.0
  0
LINE
  8
0
 62
     0
 10
193.594
 20
131.413
 30
0.0
 11
207.593
 21
131.413
 31
0.0
  0
LINE
  8
0
 62
     0
 10
207.593
 20
131.413
 30
0.0
 11
207.593
 21
130.813
 31
0.0
  0
LINE
  8
0
 62
     0
 10
207.593
 20
130.813
 30
0.0
 11
208.394
 21
130.813
 31
0.0
  0
LINE
  8
0
 62
     0
 10
208.394
 20
130.813
 30
0.0
 11
208.394
 21
118.012
 31
0.0
  0
LINE
  8
0
 62
     0
 10
208.394
 20
118.012
 30
0.0
 11
207.593
 21
118.012
 31
0.0
  0
LINE
  8
0
 62
     0
 10
207.593
 20
70.3873
 30
0.0
 11
207.593
 21
69.7879
 31
0.0
  0
LINE
  8
0
 62
     0
 10
207.593
 20
69.7879
 30
0.0
 11
193.594
 21
69.7879
 31
0.0
  0
LINE
  8
0
 62
     0
 10
193.594
 20
69.7879
 30
0.0
 11
193.594
 21
70.3873
 31
0.0
  0
LINE
  8
0
 62
     0
 10
193.594
 20
70.3873
 30
0.0
 11
192.793
 21
70.3873
 31
0.0
  0
LINE
  8
0
 62
     0
 10
192.793
 20
70.3873
 30
0.0
 11
192.793
 21
83.1882
 31
0.0
  0
LINE
  8
0
 62
     0
 10
192.793
 20
83.1882
 30
0.0
 11
193.594
 21
83.1882
 31
0.0
  0
LINE
  8
0
 62
     0
 10
193.594
 20
83.1882
 30
0.0
 11
193.594
 21
83.7875
 31
0.0
  0
LINE
  8
0
 62
     0
 10
193.594
 20
83.7875
 30
0.0
 11
207.593
 21
83.7875
 31
0.0
  0
LINE
  8
0
 62
     0
 10
207.593
 20
83.7875
 30
0.0
 11
207.593
 21
83.1882
 31
0.0
  0
LINE
  8
0
 62
     0
 10
207.593
 20
83.1882
 30
0.0
 11
208.394
 21
83.1882
 31
0.0
  0
LINE
  8
0
 62
     0
 10
208.394
 20
83.1882
 30
0.0
 11
208.394
 21
70.3873
 31
0.0
  0
LINE
  8
0
 62
     0
 10
208.394
 20
70.3873
 30
0.0
 11
207.593
 21
70.3873
 31
0.0
  0
LINE
  8
0
 62
     0
 10
212.357
 20
51.3373
 30
0.0
 11
212.357
 21
50.7379
 31
0.0
  0
LINE
  8
0
 62
     0
 10
212.357
 20
50.7379
 30
0.0
 11
198.356
 21
50.7379
 31
0.0
  0
LINE
  8
0
 62
     0
 10
198.356
 20
50.7379
 30
0.0
 11
198.356
 21
51.3373
 31
0.0
  0
LINE
  8
0
 62
     0
 10
198.356
 20
51.3373
 30
0.0
 11
197.557
 21
51.3373
 31
0.0
  0
LINE
  8
0
 62
     0
 10
197.557
 20
51.3373
 30
0.0
 11
197.557
 21
64.1382
 31
0.0
  0
LINE
  8
0
 62
     0
 10
197.557
 20
64.1382
 30
0.0
 11
198.356
 21
64.1382
 31
0.0
  0
LINE
  8
0
 62
     0
 10
198.356
 20
64.1382
 30
0.0
 11
198.356
 21
64.7375
 31
0.0
  0
LINE
  8
0
 62
     0
 10
198.356
 20
64.7375
 30
0.0
 11
212.357
 21
64.7375
 31
0.0
  0
LINE
  8
0
 62
     0
 10
212.357
 20
64.7375
 30
0.0
 11
212.357
 21
64.1382
 31
0.0
  0
LINE
  8
0
 62
     0
 10
212.357
 20
64.1382
 30
0.0
 11
213.156
 21
64.1382
 31
0.0
  0
LINE
  8
0
 62
     0
 10
213.156
 20
64.1382
 30
0.0
 11
213.156
 21
51.3373
 31
0.0
  0
LINE
  8
0
 62
     0
 10
213.156
 20
51.3373
 30
0.0
 11
212.357
 21
51.3373
 31
0.0
  0
LINE
  8
0
 62
     0
 10
217.118
 20
89.4373
 30
0.0
 11
217.118
 21
88.8379
 31
0.0
  0
LINE
  8
0
 62
     0
 10
217.118
 20
88.8379
 30
0.0
 11
203.119
 21
88.8379
 31
0.0
  0
LINE
  8
0
 62
     0
 10
203.119
 20
88.8379
 30
0.0
 11
203.119
 21
89.4373
 31
0.0
  0
LINE
  8
0
 62
     0
 10
203.119
 20
89.4373
 30
0.0
 11
202.318
 21
89.4373
 31
0.0
  0
LINE
  8
0
 62
     0
 10
202.318
 20
89.4373
 30
0.0
 11
202.318
 21
102.238
 31
0.0
  0
LINE
  8
0
 62
     0
 10
202.318
 20
102.238
 30
0.0
 11
203.119
 21
102.238
 31
0.0
  0
LINE
  8
0
 62
     0
 10
203.119
 20
102.238
 30
0.0
 11
203.119
 21
102.838
 31
0.0
  0
LINE
  8
0
 62
     0
 10
203.119
 20
102.838
 30
0.0
 11
217.118
 21
102.838
 31
0.0
  0
LINE
  8
0
 62
     0
 10
217.118
 20
102.838
 30
0.0
 11
217.118
 21
102.238
 31
0.0
  0
LINE
  8
0
 62
     0
 10
217.118
 20
102.238
 30
0.0
 11
217.919
 21
102.238
 31
0.0
  0
LINE
  8
0
 62
     0
 10
217.919
 20
102.238
 30
0.0
 11
217.919
 21
89.4373
 31
0.0
  0
LINE
  8
0
 62
     0
 10
217.919
 20
89.4373
 30
0.0
 11
217.118
 21
89.4373
 31
0.0
  0
LINE
  8
0
 62
     0
 10
219.499
 20
13.2374
 30
0.0
 11
219.499
 21
12.638
 31
0.0
  0
LINE
  8
0
 62
     0
 10
219.499
 20
12.638
 30
0.0
 11
205.5
 21
12.638
 31
0.0
  0
LINE
  8
0
 62
     0
 10
205.5
 20
12.638
 30
0.0
 11
205.5
 21
13.2374
 31
0.0
  0
LINE
  8
0
 62
     0
 10
205.5
 20
13.2374
 30
0.0
 11
204.699
 21
13.2374
 31
0.0
  0
LINE
  8
0
 62
     0
 10
204.699
 20
13.2374
 30
0.0
 11
204.699
 21
26.038
 31
0.0
  0
LINE
  8
0
 62
     0
 10
204.699
 20
26.038
 30
0.0
 11
205.5
 21
26.038
 31
0.0
  0
LINE
  8
0
 62
     0
 10
205.5
 20
26.038
 30
0.0
 11
205.5
 21
26.6375
 31
0.0
  0
LINE
  8
0
 62
     0
 10
205.5
 20
26.6375
 30
0.0
 11
219.499
 21
26.6375
 31
0.0
  0
LINE
  8
0
 62
     0
 10
219.499
 20
26.6375
 30
0.0
 11
219.499
 21
26.038
 31
0.0
  0
LINE
  8
0
 62
     0
 10
219.499
 20
26.038
 30
0.0
 11
220.3
 21
26.038
 31
0.0
  0
LINE
  8
0
 62
     0
 10
220.3
 20
26.038
 30
0.0
 11
220.3
 21
13.2374
 31
0.0
  0
LINE
  8
0
 62
     0
 10
220.3
 20
13.2374
 30
0.0
 11
219.499
 21
13.2374
 31
0.0
  0
LINE
  8
0
 62
     0
 10
221.882
 20
32.2874
 30
0.0
 11
221.882
 21
31.688
 31
0.0
  0
LINE
  8
0
 62
     0
 10
221.882
 20
31.688
 30
0.0
 11
207.881
 21
31.688
 31
0.0
  0
LINE
  8
0
 62
     0
 10
207.881
 20
31.688
 30
0.0
 11
207.881
 21
32.2874
 31
0.0
  0
LINE
  8
0
 62
     0
 10
207.881
 20
32.2874
 30
0.0
 11
207.082
 21
32.2874
 31
0.0
  0
LINE
  8
0
 62
     0
 10
207.082
 20
32.2874
 30
0.0
 11
207.082
 21
45.0882
 31
0.0
  0
LINE
  8
0
 62
     0
 10
207.082
 20
45.0882
 30
0.0
 11
207.881
 21
45.0882
 31
0.0
  0
LINE
  8
0
 62
     0
 10
207.881
 20
45.0882
 30
0.0
 11
207.881
 21
45.6875
 31
0.0
  0
LINE
  8
0
 62
     0
 10
207.881
 20
45.6875
 30
0.0
 11
221.882
 21
45.6875
 31
0.0
  0
LINE
  8
0
 62
     0
 10
221.882
 20
45.6875
 30
0.0
 11
221.882
 21
45.0882
 31
0.0
  0
LINE
  8
0
 62
     0
 10
221.882
 20
45.0882
 30
0.0
 11
222.681
 21
45.0882
 31
0.0
  0
LINE
  8
0
 62
     0
 10
222.681
 20
45.0882
 30
0.0
 11
222.681
 21
32.2874
 31
0.0
  0
LINE
  8
0
 62
     0
 10
222.681
 20
32.2874
 30
0.0
 11
221.882
 21
32.2874
 31
0.0
  0
LINE
  8
0
 62
     0
 10
226.643
 20
70.3873
 30
0.0
 11
226.643
 21
69.7879
 31
0.0
  0
LINE
  8
0
 62
     0
 10
226.643
 20
69.7879
 30
0.0
 11
212.644
 21
69.7879
 31
0.0
  0
LINE
  8
0
 62
     0
 10
212.644
 20
69.7879
 30
0.0
 11
212.644
 21
70.3873
 31
0.0
  0
LINE
  8
0
 62
     0
 10
212.644
 20
70.3873
 30
0.0
 11
211.843
 21
70.3873
 31
0.0
  0
LINE
  8
0
 62
     0
 10
211.843
 20
70.3873
 30
0.0
 11
211.843
 21
83.1882
 31
0.0
  0
LINE
  8
0
 62
     0
 10
211.843
 20
83.1882
 30
0.0
 11
212.644
 21
83.1882
 31
0.0
  0
LINE
  8
0
 62
     0
 10
212.644
 20
83.1882
 30
0.0
 11
212.644
 21
83.7875
 31
0.0
  0
LINE
  8
0
 62
     0
 10
212.644
 20
83.7875
 30
0.0
 11
226.643
 21
83.7875
 31
0.0
  0
LINE
  8
0
 62
     0
 10
226.643
 20
83.7875
 30
0.0
 11
226.643
 21
83.1882
 31
0.0
  0
LINE
  8
0
 62
     0
 10
226.643
 20
83.1882
 30
0.0
 11
227.444
 21
83.1882
 31
0.0
  0
LINE
  8
0
 62
     0
 10
227.444
 20
83.1882
 30
0.0
 11
227.444
 21
70.3873
 31
0.0
  0
LINE
  8
0
 62
     0
 10
227.444
 20
70.3873
 30
0.0
 11
226.643
 21
70.3873
 31
0.0
  0
LINE
  8
0
 62
     0
 10
231.407
 20
51.3373
 30
0.0
 11
231.407
 21
50.7379
 31
0.0
  0
LINE
  8
0
 62
     0
 10
231.407
 20
50.7379
 30
0.0
 11
217.406
 21
50.7379
 31
0.0
  0
LINE
  8
0
 62
     0
 10
217.406
 20
50.7379
 30
0.0
 11
217.406
 21
51.3373
 31
0.0
  0
LINE
  8
0
 62
     0
 10
217.406
 20
51.3373
 30
0.0
 11
216.607
 21
51.3373
 31
0.0
  0
LINE
  8
0
 62
     0
 10
216.607
 20
51.3373
 30
0.0
 11
216.607
 21
64.1382
 31
0.0
  0
LINE
  8
0
 62
     0
 10
216.607
 20
64.1382
 30
0.0
 11
217.406
 21
64.1382
 31
0.0
  0
LINE
  8
0
 62
     0
 10
217.406
 20
64.1382
 30
0.0
 11
217.406
 21
64.7375
 31
0.0
  0
LINE
  8
0
 62
     0
 10
217.406
 20
64.7375
 30
0.0
 11
231.407
 21
64.7375
 31
0.0
  0
LINE
  8
0
 62
     0
 10
231.407
 20
64.7375
 30
0.0
 11
231.407
 21
64.1382
 31
0.0
  0
LINE
  8
0
 62
     0
 10
231.407
 20
64.1382
 30
0.0
 11
232.206
 21
64.1382
 31
0.0
  0
LINE
  8
0
 62
     0
 10
232.206
 20
64.1382
 30
0.0
 11
232.206
 21
51.3373
 31
0.0
  0
LINE
  8
0
 62
     0
 10
232.206
 20
51.3373
 30
0.0
 11
231.407
 21
51.3373
 31
0.0
  0
LINE
  8
0
 62
     0
 10
236.168
 20
118.012
 30
0.0
 11
236.168
 21
117.413
 31
0.0
  0
LINE
  8
0
 62
     0
 10
236.168
 20
117.413
 30
0.0
 11
222.169
 21
117.413
 31
0.0
  0
LINE
  8
0
 62
     0
 10
222.169
 20
117.413
 30
0.0
 11
222.169
 21
118.012
 31
0.0
  0
LINE
  8
0
 62
     0
 10
222.169
 20
118.012
 30
0.0
 11
221.368
 21
118.012
 31
0.0
  0
LINE
  8
0
 62
     0
 10
221.368
 20
118.012
 30
0.0
 11
221.368
 21
130.813
 31
0.0
  0
LINE
  8
0
 62
     0
 10
221.368
 20
130.813
 30
0.0
 11
222.169
 21
130.813
 31
0.0
  0
LINE
  8
0
 62
     0
 10
222.169
 20
130.813
 30
0.0
 11
222.169
 21
131.413
 31
0.0
  0
LINE
  8
0
 62
     0
 10
222.169
 20
131.413
 30
0.0
 11
236.168
 21
131.413
 31
0.0
  0
LINE
  8
0
 62
     0
 10
236.168
 20
131.413
 30
0.0
 11
236.168
 21
130.813
 31
0.0
  0
LINE
  8
0
 62
     0
 10
236.168
 20
130.813
 30
0.0
 11
236.969
 21
130.813
 31
0.0
  0
LINE
  8
0
 62
     0
 10
236.969
 20
130.813
 30
0.0
 11
236.969
 21
118.012
 31
0.0
  0
LINE
  8
0
 62
     0
 10
236.969
 20
118.012
 30
0.0
 11
236.168
 21
118.012
 31
0.0
  0
LINE
  8
0
 62
     0
 10
236.168
 20
89.4373
 30
0.0
 11
236.168
 21
88.8379
 31
0.0
  0
LINE
  8
0
 62
     0
 10
236.168
 20
88.8379
 30
0.0
 11
222.169
 21
88.8379
 31
0.0
  0
LINE
  8
0
 62
     0
 10
222.169
 20
88.8379
 30
0.0
 11
222.169
 21
89.4373
 31
0.0
  0
LINE
  8
0
 62
     0
 10
222.169
 20
89.4373
 30
0.0
 11
221.368
 21
89.4373
 31
0.0
  0
LINE
  8
0
 62
     0
 10
221.368
 20
89.4373
 30
0.0
 11
221.368
 21
102.238
 31
0.0
  0
LINE
  8
0
 62
     0
 10
221.368
 20
102.238
 30
0.0
 11
222.169
 21
102.238
 31
0.0
  0
LINE
  8
0
 62
     0
 10
222.169
 20
102.238
 30
0.0
 11
222.169
 21
102.838
 31
0.0
  0
LINE
  8
0
 62
     0
 10
222.169
 20
102.838
 30
0.0
 11
236.168
 21
102.838
 31
0.0
  0
LINE
  8
0
 62
     0
 10
236.168
 20
102.838
 30
0.0
 11
236.168
 21
102.238
 31
0.0
  0
LINE
  8
0
 62
     0
 10
236.168
 20
102.238
 30
0.0
 11
236.969
 21
102.238
 31
0.0
  0
LINE
  8
0
 62
     0
 10
236.969
 20
102.238
 30
0.0
 11
236.969
 21
89.4373
 31
0.0
  0
LINE
  8
0
 62
     0
 10
236.969
 20
89.4373
 30
0.0
 11
236.168
 21
89.4373
 31
0.0
  0
LINE
  8
0
 62
     0
 10
240.932
 20
32.2874
 30
0.0
 11
240.932
 21
31.688
 31
0.0
  0
LINE
  8
0
 62
     0
 10
240.932
 20
31.688
 30
0.0
 11
226.931
 21
31.688
 31
0.0
  0
LINE
  8
0
 62
     0
 10
226.931
 20
31.688
 30
0.0
 11
226.931
 21
32.2874
 31
0.0
  0
LINE
  8
0
 62
     0
 10
226.931
 20
32.2874
 30
0.0
 11
226.132
 21
32.2874
 31
0.0
  0
LINE
  8
0
 62
     0
 10
226.132
 20
32.2874
 30
0.0
 11
226.132
 21
45.0882
 31
0.0
  0
LINE
  8
0
 62
     0
 10
226.132
 20
45.0882
 30
0.0
 11
226.931
 21
45.0882
 31
0.0
  0
LINE
  8
0
 62
     0
 10
226.931
 20
45.0882
 30
0.0
 11
226.931
 21
45.6875
 31
0.0
  0
LINE
  8
0
 62
     0
 10
226.931
 20
45.6875
 30
0.0
 11
240.932
 21
45.6875
 31
0.0
  0
LINE
  8
0
 62
     0
 10
240.932
 20
45.6875
 30
0.0
 11
240.932
 21
45.0882
 31
0.0
  0
LINE
  8
0
 62
     0
 10
240.932
 20
45.0882
 30
0.0
 11
241.731
 21
45.0882
 31
0.0
  0
LINE
  8
0
 62
     0
 10
241.731
 20
45.0882
 30
0.0
 11
241.731
 21
32.2874
 31
0.0
  0
LINE
  8
0
 62
     0
 10
241.731
 20
32.2874
 30
0.0
 11
240.932
 21
32.2874
 31
0.0
  0
LINE
  8
0
 62
     0
 10
243.313
 20
13.2374
 30
0.0
 11
243.313
 21
12.638
 31
0.0
  0
LINE
  8
0
 62
     0
 10
243.313
 20
12.638
 30
0.0
 11
229.313
 21
12.638
 31
0.0
  0
LINE
  8
0
 62
     0
 10
229.313
 20
12.638
 30
0.0
 11
229.313
 21
13.2374
 31
0.0
  0
LINE
  8
0
 62
     0
 10
229.313
 20
13.2374
 30
0.0
 11
228.513
 21
13.2374
 31
0.0
  0
LINE
  8
0
 62
     0
 10
228.513
 20
13.2374
 30
0.0
 11
228.513
 21
26.038
 31
0.0
  0
LINE
  8
0
 62
     0
 10
228.513
 20
26.038
 30
0.0
 11
229.313
 21
26.038
 31
0.0
  0
LINE
  8
0
 62
     0
 10
229.313
 20
26.038
 30
0.0
 11
229.313
 21
26.6375
 31
0.0
  0
LINE
  8
0
 62
     0
 10
229.313
 20
26.6375
 30
0.0
 11
243.313
 21
26.6375
 31
0.0
  0
LINE
  8
0
 62
     0
 10
243.313
 20
26.6375
 30
0.0
 11
243.313
 21
26.038
 31
0.0
  0
LINE
  8
0
 62
     0
 10
243.313
 20
26.038
 30
0.0
 11
244.113
 21
26.038
 31
0.0
  0
LINE
  8
0
 62
     0
 10
244.113
 20
26.038
 30
0.0
 11
244.113
 21
13.2374
 31
0.0
  0
LINE
  8
0
 62
     0
 10
244.113
 20
13.2374
 30
0.0
 11
243.313
 21
13.2374
 31
0.0
  0
LINE
  8
0
 62
     0
 10
245.693
 20
70.3873
 30
0.0
 11
245.693
 21
69.7879
 31
0.0
  0
LINE
  8
0
 62
     0
 10
245.693
 20
69.7879
 30
0.0
 11
231.694
 21
69.7879
 31
0.0
  0
LINE
  8
0
 62
     0
 10
231.694
 20
69.7879
 30
0.0
 11
231.694
 21
70.3873
 31
0.0
  0
LINE
  8
0
 62
     0
 10
231.694
 20
70.3873
 30
0.0
 11
230.893
 21
70.3873
 31
0.0
  0
LINE
  8
0
 62
     0
 10
230.893
 20
70.3873
 30
0.0
 11
230.893
 21
83.1882
 31
0.0
  0
LINE
  8
0
 62
     0
 10
230.893
 20
83.1882
 30
0.0
 11
231.694
 21
83.1882
 31
0.0
  0
LINE
  8
0
 62
     0
 10
231.694
 20
83.1882
 30
0.0
 11
231.694
 21
83.7875
 31
0.0
  0
LINE
  8
0
 62
     0
 10
231.694
 20
83.7875
 30
0.0
 11
245.693
 21
83.7875
 31
0.0
  0
LINE
  8
0
 62
     0
 10
245.693
 20
83.7875
 30
0.0
 11
245.693
 21
83.1882
 31
0.0
  0
LINE
  8
0
 62
     0
 10
245.693
 20
83.1882
 30
0.0
 11
246.494
 21
83.1882
 31
0.0
  0
LINE
  8
0
 62
     0
 10
246.494
 20
83.1882
 30
0.0
 11
246.494
 21
70.3873
 31
0.0
  0
LINE
  8
0
 62
     0
 10
246.494
 20
70.3873
 30
0.0
 11
245.693
 21
70.3873
 31
0.0
  0
LINE
  8
0
 62
     0
 10
250.457
 20
51.3373
 30
0.0
 11
250.457
 21
50.7379
 31
0.0
  0
LINE
  8
0
 62
     0
 10
250.457
 20
50.7379
 30
0.0
 11
236.456
 21
50.7379
 31
0.0
  0
LINE
  8
0
 62
     0
 10
236.456
 20
50.7379
 30
0.0
 11
236.456
 21
51.3373
 31
0.0
  0
LINE
  8
0
 62
     0
 10
236.456
 20
51.3373
 30
0.0
 11
235.657
 21
51.3373
 31
0.0
  0
LINE
  8
0
 62
     0
 10
235.657
 20
51.3373
 30
0.0
 11
235.657
 21
64.1382
 31
0.0
  0
LINE
  8
0
 62
     0
 10
235.657
 20
64.1382
 30
0.0
 11
236.456
 21
64.1382
 31
0.0
  0
LINE
  8
0
 62
     0
 10
236.456
 20
64.1382
 30
0.0
 11
236.456
 21
64.7375
 31
0.0
  0
LINE
  8
0
 62
     0
 10
236.456
 20
64.7375
 30
0.0
 11
250.457
 21
64.7375
 31
0.0
  0
LINE
  8
0
 62
     0
 10
250.457
 20
64.7375
 30
0.0
 11
250.457
 21
64.1382
 31
0.0
  0
LINE
  8
0
 62
     0
 10
250.457
 20
64.1382
 30
0.0
 11
251.256
 21
64.1382
 31
0.0
  0
LINE
  8
0
 62
     0
 10
251.256
 20
64.1382
 30
0.0
 11
251.256
 21
51.3373
 31
0.0
  0
LINE
  8
0
 62
     0
 10
251.256
 20
51.3373
 30
0.0
 11
250.457
 21
51.3373
 31
0.0
  0
LINE
  8
0
 62
     0
 10
255.218
 20
118.012
 30
0.0
 11
255.218
 21
117.413
 31
0.0
  0
LINE
  8
0
 62
     0
 10
255.218
 20
117.413
 30
0.0
 11
241.219
 21
117.413
 31
0.0
  0
LINE
  8
0
 62
     0
 10
241.219
 20
117.413
 30
0.0
 11
241.219
 21
118.012
 31
0.0
  0
LINE
  8
0
 62
     0
 10
241.219
 20
118.012
 30
0.0
 11
240.418
 21
118.012
 31
0.0
  0
LINE
  8
0
 62
     0
 10
240.418
 20
118.012
 30
0.0
 11
240.418
 21
130.813
 31
0.0
  0
LINE
  8
0
 62
     0
 10
240.418
 20
130.813
 30
0.0
 11
241.219
 21
130.813
 31
0.0
  0
LINE
  8
0
 62
     0
 10
241.219
 20
130.813
 30
0.0
 11
241.219
 21
131.413
 31
0.0
  0
LINE
  8
0
 62
     0
 10
241.219
 20
131.413
 30
0.0
 11
255.218
 21
131.413
 31
0.0
  0
LINE
  8
0
 62
     0
 10
255.218
 20
131.413
 30
0.0
 11
255.218
 21
130.813
 31
0.0
  0
LINE
  8
0
 62
     0
 10
255.218
 20
130.813
 30
0.0
 11
256.019
 21
130.813
 31
0.0
  0
LINE
  8
0
 62
     0
 10
256.019
 20
130.813
 30
0.0
 11
256.019
 21
118.012
 31
0.0
  0
LINE
  8
0
 62
     0
 10
256.019
 20
118.012
 30
0.0
 11
255.218
 21
118.012
 31
0.0
  0
LINE
  8
0
 62
     0
 10
255.218
 20
89.4373
 30
0.0
 11
255.218
 21
88.8379
 31
0.0
  0
LINE
  8
0
 62
     0
 10
255.218
 20
88.8379
 30
0.0
 11
241.219
 21
88.8379
 31
0.0
  0
LINE
  8
0
 62
     0
 10
241.219
 20
88.8379
 30
0.0
 11
241.219
 21
89.4373
 31
0.0
  0
LINE
  8
0
 62
     0
 10
241.219
 20
89.4373
 30
0.0
 11
240.418
 21
89.4373
 31
0.0
  0
LINE
  8
0
 62
     0
 10
240.418
 20
89.4373
 30
0.0
 11
240.418
 21
102.238
 31
0.0
  0
LINE
  8
0
 62
     0
 10
240.418
 20
102.238
 30
0.0
 11
241.219
 21
102.238
 31
0.0
  0
LINE
  8
0
 62
     0
 10
241.219
 20
102.238
 30
0.0
 11
241.219
 21
102.838
 31
0.0
  0
LINE
  8
0
 62
     0
 10
241.219
 20
102.838
 30
0.0
 11
255.218
 21
102.838
 31
0.0
  0
LINE
  8
0
 62
     0
 10
255.218
 20
102.838
 30
0.0
 11
255.218
 21
102.238
 31
0.0
  0
LINE
  8
0
 62
     0
 10
255.218
 20
102.238
 30
0.0
 11
256.019
 21
102.238
 31
0.0
  0
LINE
  8
0
 62
     0
 10
256.019
 20
102.238
 30
0.0
 11
256.019
 21
89.4373
 31
0.0
  0
LINE
  8
0
 62
     0
 10
256.019
 20
89.4373
 30
0.0
 11
255.218
 21
89.4373
 31
0.0
  0
LINE
  8
0
 62
     0
 10
264.743
 20
70.3873
 30
0.0
 11
264.743
 21
69.7879
 31
0.0
  0
LINE
  8
0
 62
     0
 10
264.743
 20
69.7879
 30
0.0
 11
250.744
 21
69.7879
 31
0.0
  0
LINE
  8
0
 62
     0
 10
250.744
 20
69.7879
 30
0.0
 11
250.744
 21
70.3873
 31
0.0
  0
LINE
  8
0
 62
     0
 10
250.744
 20
70.3873
 30
0.0
 11
249.943
 21
70.3873
 31
0.0
  0
LINE
  8
0
 62
     0
 10
249.943
 20
70.3873
 30
0.0
 11
249.943
 21
83.1882
 31
0.0
  0
LINE
  8
0
 62
     0
 10
249.943
 20
83.1882
 30
0.0
 11
250.744
 21
83.1882
 31
0.0
  0
LINE
  8
0
 62
     0
 10
250.744
 20
83.1882
 30
0.0
 11
250.744
 21
83.7875
 31
0.0
  0
LINE
  8
0
 62
     0
 10
250.744
 20
83.7875
 30
0.0
 11
264.743
 21
83.7875
 31
0.0
  0
LINE
  8
0
 62
     0
 10
264.743
 20
83.7875
 30
0.0
 11
264.743
 21
83.1882
 31
0.0
  0
LINE
  8
0
 62
     0
 10
264.743
 20
83.1882
 30
0.0
 11
265.544
 21
83.1882
 31
0.0
  0
LINE
  8
0
 62
     0
 10
265.544
 20
83.1882
 30
0.0
 11
265.544
 21
70.3873
 31
0.0
  0
LINE
  8
0
 62
     0
 10
265.544
 20
70.3873
 30
0.0
 11
264.743
 21
70.3873
 31
0.0
  0
LINE
  8
0
 62
     0
 10
267.124
 20
13.2374
 30
0.0
 11
267.124
 21
12.638
 31
0.0
  0
LINE
  8
0
 62
     0
 10
267.124
 20
12.638
 30
0.0
 11
253.125
 21
12.638
 31
0.0
  0
LINE
  8
0
 62
     0
 10
253.125
 20
12.638
 30
0.0
 11
253.125
 21
13.2374
 31
0.0
  0
LINE
  8
0
 62
     0
 10
253.125
 20
13.2374
 30
0.0
 11
252.324
 21
13.2374
 31
0.0
  0
LINE
  8
0
 62
     0
 10
252.324
 20
13.2374
 30
0.0
 11
252.324
 21
26.038
 31
0.0
  0
LINE
  8
0
 62
     0
 10
252.324
 20
26.038
 30
0.0
 11
253.125
 21
26.038
 31
0.0
  0
LINE
  8
0
 62
     0
 10
253.125
 20
26.038
 30
0.0
 11
253.125
 21
26.6375
 31
0.0
  0
LINE
  8
0
 62
     0
 10
253.125
 20
26.6375
 30
0.0
 11
267.124
 21
26.6375
 31
0.0
  0
LINE
  8
0
 62
     0
 10
267.124
 20
26.6375
 30
0.0
 11
267.124
 21
26.038
 31
0.0
  0
LINE
  8
0
 62
     0
 10
267.124
 20
26.038
 30
0.0
 11
267.925
 21
26.038
 31
0.0
  0
LINE
  8
0
 62
     0
 10
267.925
 20
26.038
 30
0.0
 11
267.925
 21
13.2374
 31
0.0
  0
LINE
  8
0
 62
     0
 10
267.925
 20
13.2374
 30
0.0
 11
267.124
 21
13.2374
 31
0.0
  0
LINE
  8
0
 62
     0
 10
274.268
 20
118.012
 30
0.0
 11
274.268
 21
117.413
 31
0.0
  0
LINE
  8
0
 62
     0
 10
274.268
 20
117.413
 30
0.0
 11
260.269
 21
117.413
 31
0.0
  0
LINE
  8
0
 62
     0
 10
260.269
 20
117.413
 30
0.0
 11
260.269
 21
118.012
 31
0.0
  0
LINE
  8
0
 62
     0
 10
260.269
 20
118.012
 30
0.0
 11
259.468
 21
118.012
 31
0.0
  0
LINE
  8
0
 62
     0
 10
259.468
 20
118.012
 30
0.0
 11
259.468
 21
130.813
 31
0.0
  0
LINE
  8
0
 62
     0
 10
259.468
 20
130.813
 30
0.0
 11
260.269
 21
130.813
 31
0.0
  0
LINE
  8
0
 62
     0
 10
260.269
 20
130.813
 30
0.0
 11
260.269
 21
131.413
 31
0.0
  0
LINE
  8
0
 62
     0
 10
260.269
 20
131.413
 30
0.0
 11
274.268
 21
131.413
 31
0.0
  0
LINE
  8
0
 62
     0
 10
274.268
 20
131.413
 30
0.0
 11
274.268
 21
130.813
 31
0.0
  0
LINE
  8
0
 62
     0
 10
274.268
 20
130.813
 30
0.0
 11
275.069
 21
130.813
 31
0.0
  0
LINE
  8
0
 62
     0
 10
275.069
 20
130.813
 30
0.0
 11
275.069
 21
118.012
 31
0.0
  0
LINE
  8
0
 62
     0
 10
275.069
 20
118.012
 30
0.0
 11
274.268
 21
118.012
 31
0.0
  0
LINE
  8
0
 62
     0
 10
284.875
 20
38.1868
 30
0.0
 11
284.875
 21
31.9168
 31
0.0
  0
LINE
  8
0
 62
     0
 10
284.875
 20
31.9168
 30
0.0
 11
283.25
 21
31.9168
 31
0.0
  0
LINE
  8
0
 62
     0
 10
283.25
 20
31.9168
 30
0.0
 11
283.25
 21
30.937
 31
0.0
  0
LINE
  8
0
 62
     0
 10
283.25
 20
30.937
 30
0.0
 11
279.95
 21
30.937
 31
0.0
  0
LINE
  8
0
 62
     0
 10
279.95
 20
30.937
 30
0.0
 11
279.95
 21
31.9168
 31
0.0
  0
LINE
  8
0
 62
     0
 10
279.95
 20
31.9168
 30
0.0
 11
278.225
 21
31.9168
 31
0.0
  0
LINE
  8
0
 62
     0
 10
278.225
 20
31.9168
 30
0.0
 11
278.225
 21
32.7174
 31
0.0
  0
LINE
  8
0
 62
     0
 10
278.225
 20
32.7174
 30
0.0
 11
277.45
 21
32.7174
 31
0.0
  0
LINE
  8
0
 62
     0
 10
277.45
 20
32.7174
 30
0.0
 11
277.45
 21
32.2874
 31
0.0
  0
LINE
  8
0
 62
     0
 10
277.45
 20
32.2874
 30
0.0
 11
276.649
 21
32.2874
 31
0.0
  0
LINE
  8
0
 62
     0
 10
276.649
 20
32.2874
 30
0.0
 11
276.649
 21
31.688
 31
0.0
  0
LINE
  8
0
 62
     0
 10
276.649
 20
31.688
 30
0.0
 11
262.65
 21
31.688
 31
0.0
  0
LINE
  8
0
 62
     0
 10
262.65
 20
31.688
 30
0.0
 11
262.65
 21
32.2874
 31
0.0
  0
LINE
  8
0
 62
     0
 10
262.65
 20
32.2874
 30
0.0
 11
261.849
 21
32.2874
 31
0.0
  0
LINE
  8
0
 62
     0
 10
261.849
 20
32.2874
 30
0.0
 11
261.849
 21
32.7174
 31
0.0
  0
LINE
  8
0
 62
     0
 10
261.849
 20
32.7174
 30
0.0
 11
261.075
 21
32.7174
 31
0.0
  0
LINE
  8
0
 62
     0
 10
261.075
 20
32.7174
 30
0.0
 11
261.075
 21
31.9168
 31
0.0
  0
LINE
  8
0
 62
     0
 10
261.075
 20
31.9168
 30
0.0
 11
259.35
 21
31.9168
 31
0.0
  0
LINE
  8
0
 62
     0
 10
259.35
 20
31.9168
 30
0.0
 11
259.35
 21
30.937
 31
0.0
  0
LINE
  8
0
 62
     0
 10
259.35
 20
30.937
 30
0.0
 11
256.049
 21
30.937
 31
0.0
  0
LINE
  8
0
 62
     0
 10
256.049
 20
30.937
 30
0.0
 11
256.049
 21
31.9168
 31
0.0
  0
LINE
  8
0
 62
     0
 10
256.049
 20
31.9168
 30
0.0
 11
254.424
 21
31.9168
 31
0.0
  0
LINE
  8
0
 62
     0
 10
254.424
 20
31.9168
 30
0.0
 11
254.424
 21
38.1868
 31
0.0
  0
LINE
  8
0
 62
     0
 10
254.424
 20
38.1868
 30
0.0
 11
253.55
 21
38.1868
 31
0.0
  0
LINE
  8
0
 62
     0
 10
253.55
 20
38.1868
 30
0.0
 11
253.55
 21
40.9871
 31
0.0
  0
LINE
  8
0
 62
     0
 10
253.55
 20
40.9871
 30
0.0
 11
254.424
 21
40.9871
 31
0.0
  0
LINE
  8
0
 62
     0
 10
254.424
 20
40.9871
 30
0.0
 11
254.424
 21
44.2172
 31
0.0
  0
LINE
  8
0
 62
     0
 10
254.424
 20
44.2172
 30
0.0
 11
256.049
 21
44.2172
 31
0.0
  0
LINE
  8
0
 62
     0
 10
256.049
 20
44.2172
 30
0.0
 11
256.049
 21
45.1376
 31
0.0
  0
LINE
  8
0
 62
     0
 10
256.049
 20
45.1376
 30
0.0
 11
259.35
 21
45.1376
 31
0.0
  0
LINE
  8
0
 62
     0
 10
259.35
 20
45.1376
 30
0.0
 11
259.35
 21
44.2172
 31
0.0
  0
LINE
  8
0
 62
     0
 10
259.35
 20
44.2172
 30
0.0
 11
261.075
 21
44.2172
 31
0.0
  0
LINE
  8
0
 62
     0
 10
261.075
 20
44.2172
 30
0.0
 11
261.075
 21
43.4178
 31
0.0
  0
LINE
  8
0
 62
     0
 10
261.075
 20
43.4178
 30
0.0
 11
261.849
 21
43.4178
 31
0.0
  0
LINE
  8
0
 62
     0
 10
261.849
 20
43.4178
 30
0.0
 11
261.849
 21
45.0882
 31
0.0
  0
LINE
  8
0
 62
     0
 10
261.849
 20
45.0882
 30
0.0
 11
262.65
 21
45.0882
 31
0.0
  0
LINE
  8
0
 62
     0
 10
262.65
 20
45.0882
 30
0.0
 11
262.65
 21
45.6875
 31
0.0
  0
LINE
  8
0
 62
     0
 10
262.65
 20
45.6875
 30
0.0
 11
276.649
 21
45.6875
 31
0.0
  0
LINE
  8
0
 62
     0
 10
276.649
 20
45.6875
 30
0.0
 11
276.649
 21
45.0882
 31
0.0
  0
LINE
  8
0
 62
     0
 10
276.649
 20
45.0882
 30
0.0
 11
277.45
 21
45.0882
 31
0.0
  0
LINE
  8
0
 62
     0
 10
277.45
 20
45.0882
 30
0.0
 11
277.45
 21
43.4178
 31
0.0
  0
LINE
  8
0
 62
     0
 10
277.45
 20
43.4178
 30
0.0
 11
278.225
 21
43.4178
 31
0.0
  0
LINE
  8
0
 62
     0
 10
278.225
 20
43.4178
 30
0.0
 11
278.225
 21
44.2172
 31
0.0
  0
LINE
  8
0
 62
     0
 10
278.225
 20
44.2172
 30
0.0
 11
279.95
 21
44.2172
 31
0.0
  0
LINE
  8
0
 62
     0
 10
279.95
 20
44.2172
 30
0.0
 11
279.95
 21
45.1376
 31
0.0
  0
LINE
  8
0
 62
     0
 10
279.95
 20
45.1376
 30
0.0
 11
283.25
 21
45.1376
 31
0.0
  0
LINE
  8
0
 62
     0
 10
283.25
 20
45.1376
 30
0.0
 11
283.25
 21
44.2172
 31
0.0
  0
LINE
  8
0
 62
     0
 10
283.25
 20
44.2172
 30
0.0
 11
284.875
 21
44.2172
 31
0.0
  0
LINE
  8
0
 62
     0
 10
284.875
 20
44.2172
 30
0.0
 11
284.875
 21
40.9871
 31
0.0
  0
LINE
  8
0
 62
     0
 10
284.875
 20
40.9871
 30
0.0
 11
285.75
 21
40.9871
 31
0.0
  0
LINE
  8
0
 62
     0
 10
285.75
 20
40.9871
 30
0.0
 11
285.75
 21
38.1868
 31
0.0
  0
LINE
  8
0
 62
     0
 10
285.75
 20
38.1868
 30
0.0
 11
284.875
 21
38.1868
 31
0.0
  0
LINE
  8
0
 62
     0
 10
288.557
 20
70.3873
 30
0.0
 11
288.557
 21
69.7879
 31
0.0
  0
LINE
  8
0
 62
     0
 10
288.557
 20
69.7879
 30
0.0
 11
274.556
 21
69.7879
 31
0.0
  0
LINE
  8
0
 62
     0
 10
274.556
 20
69.7879
 30
0.0
 11
274.556
 21
70.3873
 31
0.0
  0
LINE
  8
0
 62
     0
 10
274.556
 20
70.3873
 30
0.0
 11
273.757
 21
70.3873
 31
0.0
  0
LINE
  8
0
 62
     0
 10
273.757
 20
70.3873
 30
0.0
 11
273.757
 21
83.1882
 31
0.0
  0
LINE
  8
0
 62
     0
 10
273.757
 20
83.1882
 30
0.0
 11
274.556
 21
83.1882
 31
0.0
  0
LINE
  8
0
 62
     0
 10
274.556
 20
83.1882
 30
0.0
 11
274.556
 21
83.7875
 31
0.0
  0
LINE
  8
0
 62
     0
 10
274.556
 20
83.7875
 30
0.0
 11
288.557
 21
83.7875
 31
0.0
  0
LINE
  8
0
 62
     0
 10
288.557
 20
83.7875
 30
0.0
 11
288.557
 21
83.1882
 31
0.0
  0
LINE
  8
0
 62
     0
 10
288.557
 20
83.1882
 30
0.0
 11
289.356
 21
83.1882
 31
0.0
  0
LINE
  8
0
 62
     0
 10
289.356
 20
83.1882
 30
0.0
 11
289.356
 21
70.3873
 31
0.0
  0
LINE
  8
0
 62
     0
 10
289.356
 20
70.3873
 30
0.0
 11
288.557
 21
70.3873
 31
0.0
  0
LINE
  8
0
 62
     0
 10
289.638
 20
57.2368
 30
0.0
 11
289.638
 21
50.9669
 31
0.0
  0
LINE
  8
0
 62
     0
 10
289.638
 20
50.9669
 30
0.0
 11
288.013
 21
50.9669
 31
0.0
  0
LINE
  8
0
 62
     0
 10
288.013
 20
50.9669
 30
0.0
 11
288.013
 21
49.9868
 31
0.0
  0
LINE
  8
0
 62
     0
 10
288.013
 20
49.9868
 30
0.0
 11
284.712
 21
49.9868
 31
0.0
  0
LINE
  8
0
 62
     0
 10
284.712
 20
49.9868
 30
0.0
 11
284.712
 21
50.9669
 31
0.0
  0
LINE
  8
0
 62
     0
 10
284.712
 20
50.9669
 30
0.0
 11
282.988
 21
50.9669
 31
0.0
  0
LINE
  8
0
 62
     0
 10
282.988
 20
50.9669
 30
0.0
 11
282.988
 21
51.7673
 31
0.0
  0
LINE
  8
0
 62
     0
 10
282.988
 20
51.7673
 30
0.0
 11
282.213
 21
51.7673
 31
0.0
  0
LINE
  8
0
 62
     0
 10
282.213
 20
51.7673
 30
0.0
 11
282.213
 21
51.3373
 31
0.0
  0
LINE
  8
0
 62
     0
 10
282.213
 20
51.3373
 30
0.0
 11
281.413
 21
51.3373
 31
0.0
  0
LINE
  8
0
 62
     0
 10
281.413
 20
51.3373
 30
0.0
 11
281.413
 21
50.7379
 31
0.0
  0
LINE
  8
0
 62
     0
 10
281.413
 20
50.7379
 30
0.0
 11
267.413
 21
50.7379
 31
0.0
  0
LINE
  8
0
 62
     0
 10
267.413
 20
50.7379
 30
0.0
 11
267.413
 21
51.3373
 31
0.0
  0
LINE
  8
0
 62
     0
 10
267.413
 20
51.3373
 30
0.0
 11
266.613
 21
51.3373
 31
0.0
  0
LINE
  8
0
 62
     0
 10
266.613
 20
51.3373
 30
0.0
 11
266.613
 21
51.7673
 31
0.0
  0
LINE
  8
0
 62
     0
 10
266.613
 20
51.7673
 30
0.0
 11
265.837
 21
51.7673
 31
0.0
  0
LINE
  8
0
 62
     0
 10
265.837
 20
51.7673
 30
0.0
 11
265.837
 21
50.9669
 31
0.0
  0
LINE
  8
0
 62
     0
 10
265.837
 20
50.9669
 30
0.0
 11
264.113
 21
50.9669
 31
0.0
  0
LINE
  8
0
 62
     0
 10
264.113
 20
50.9669
 30
0.0
 11
264.113
 21
49.9868
 31
0.0
  0
LINE
  8
0
 62
     0
 10
264.113
 20
49.9868
 30
0.0
 11
260.813
 21
49.9868
 31
0.0
  0
LINE
  8
0
 62
     0
 10
260.813
 20
49.9868
 30
0.0
 11
260.813
 21
50.9669
 31
0.0
  0
LINE
  8
0
 62
     0
 10
260.813
 20
50.9669
 30
0.0
 11
259.188
 21
50.9669
 31
0.0
  0
LINE
  8
0
 62
     0
 10
259.188
 20
50.9669
 30
0.0
 11
259.188
 21
57.2368
 31
0.0
  0
LINE
  8
0
 62
     0
 10
259.188
 20
57.2368
 30
0.0
 11
258.313
 21
57.2368
 31
0.0
  0
LINE
  8
0
 62
     0
 10
258.313
 20
57.2368
 30
0.0
 11
258.313
 21
60.0371
 31
0.0
  0
LINE
  8
0
 62
     0
 10
258.313
 20
60.0371
 30
0.0
 11
259.188
 21
60.0371
 31
0.0
  0
LINE
  8
0
 62
     0
 10
259.188
 20
60.0371
 30
0.0
 11
259.188
 21
63.2672
 31
0.0
  0
LINE
  8
0
 62
     0
 10
259.188
 20
63.2672
 30
0.0
 11
260.813
 21
63.2672
 31
0.0
  0
LINE
  8
0
 62
     0
 10
260.813
 20
63.2672
 30
0.0
 11
260.813
 21
64.1876
 31
0.0
  0
LINE
  8
0
 62
     0
 10
260.813
 20
64.1876
 30
0.0
 11
264.113
 21
64.1876
 31
0.0
  0
LINE
  8
0
 62
     0
 10
264.113
 20
64.1876
 30
0.0
 11
264.113
 21
63.2672
 31
0.0
  0
LINE
  8
0
 62
     0
 10
264.113
 20
63.2672
 30
0.0
 11
265.837
 21
63.2672
 31
0.0
  0
LINE
  8
0
 62
     0
 10
265.837
 20
63.2672
 30
0.0
 11
265.837
 21
62.4678
 31
0.0
  0
LINE
  8
0
 62
     0
 10
265.837
 20
62.4678
 30
0.0
 11
266.613
 21
62.4678
 31
0.0
  0
LINE
  8
0
 62
     0
 10
266.613
 20
62.4678
 30
0.0
 11
266.613
 21
64.1382
 31
0.0
  0
LINE
  8
0
 62
     0
 10
266.613
 20
64.1382
 30
0.0
 11
267.413
 21
64.1382
 31
0.0
  0
LINE
  8
0
 62
     0
 10
267.413
 20
64.1382
 30
0.0
 11
267.413
 21
64.7375
 31
0.0
  0
LINE
  8
0
 62
     0
 10
267.413
 20
64.7375
 30
0.0
 11
281.413
 21
64.7375
 31
0.0
  0
LINE
  8
0
 62
     0
 10
281.413
 20
64.7375
 30
0.0
 11
281.413
 21
64.1382
 31
0.0
  0
LINE
  8
0
 62
     0
 10
281.413
 20
64.1382
 30
0.0
 11
282.213
 21
64.1382
 31
0.0
  0
LINE
  8
0
 62
     0
 10
282.213
 20
64.1382
 30
0.0
 11
282.213
 21
62.4678
 31
0.0
  0
LINE
  8
0
 62
     0
 10
282.213
 20
62.4678
 30
0.0
 11
282.988
 21
62.4678
 31
0.0
  0
LINE
  8
0
 62
     0
 10
282.988
 20
62.4678
 30
0.0
 11
282.988
 21
63.2672
 31
0.0
  0
LINE
  8
0
 62
     0
 10
282.988
 20
63.2672
 30
0.0
 11
284.712
 21
63.2672
 31
0.0
  0
LINE
  8
0
 62
     0
 10
284.712
 20
63.2672
 30
0.0
 11
284.712
 21
64.1876
 31
0.0
  0
LINE
  8
0
 62
     0
 10
284.712
 20
64.1876
 30
0.0
 11
288.013
 21
64.1876
 31
0.0
  0
LINE
  8
0
 62
     0
 10
288.013
 20
64.1876
 30
0.0
 11
288.013
 21
63.2672
 31
0.0
  0
LINE
  8
0
 62
     0
 10
288.013
 20
63.2672
 30
0.0
 11
289.638
 21
63.2672
 31
0.0
  0
LINE
  8
0
 62
     0
 10
289.638
 20
63.2672
 30
0.0
 11
289.638
 21
60.0371
 31
0.0
  0
LINE
  8
0
 62
     0
 10
289.638
 20
60.0371
 30
0.0
 11
290.513
 21
60.0371
 31
0.0
  0
LINE
  8
0
 62
     0
 10
290.513
 20
60.0371
 30
0.0
 11
290.513
 21
57.2368
 31
0.0
  0
LINE
  8
0
 62
     0
 10
290.513
 20
57.2368
 30
0.0
 11
289.638
 21
57.2368
 31
0.0
  0
LINE
  8
0
 62
     0
 10
290.938
 20
13.2374
 30
0.0
 11
290.938
 21
12.638
 31
0.0
  0
LINE
  8
0
 62
     0
 10
290.938
 20
12.638
 30
0.0
 11
276.938
 21
12.638
 31
0.0
  0
LINE
  8
0
 62
     0
 10
276.938
 20
12.638
 30
0.0
 11
276.938
 21
13.2374
 31
0.0
  0
LINE
  8
0
 62
     0
 10
276.938
 20
13.2374
 30
0.0
 11
276.138
 21
13.2374
 31
0.0
  0
LINE
  8
0
 62
     0
 10
276.138
 20
13.2374
 30
0.0
 11
276.138
 21
26.038
 31
0.0
  0
LINE
  8
0
 62
     0
 10
276.138
 20
26.038
 30
0.0
 11
276.938
 21
26.038
 31
0.0
  0
LINE
  8
0
 62
     0
 10
276.938
 20
26.038
 30
0.0
 11
276.938
 21
26.6375
 31
0.0
  0
LINE
  8
0
 62
     0
 10
276.938
 20
26.6375
 30
0.0
 11
290.938
 21
26.6375
 31
0.0
  0
LINE
  8
0
 62
     0
 10
290.938
 20
26.6375
 30
0.0
 11
290.938
 21
26.038
 31
0.0
  0
LINE
  8
0
 62
     0
 10
290.938
 20
26.038
 30
0.0
 11
291.738
 21
26.038
 31
0.0
  0
LINE
  8
0
 62
     0
 10
291.738
 20
26.038
 30
0.0
 11
291.738
 21
13.2374
 31
0.0
  0
LINE
  8
0
 62
     0
 10
291.738
 20
13.2374
 30
0.0
 11
290.938
 21
13.2374
 31
0.0
  0
LINE
  8
0
 62
     0
 10
292.019
 20
95.3368
 30
0.0
 11
292.019
 21
89.0669
 31
0.0
  0
LINE
  8
0
 62
     0
 10
292.019
 20
89.0669
 30
0.0
 11
290.394
 21
89.0669
 31
0.0
  0
LINE
  8
0
 62
     0
 10
290.394
 20
89.0669
 30
0.0
 11
290.394
 21
88.0869
 31
0.0
  0
LINE
  8
0
 62
     0
 10
290.394
 20
88.0869
 30
0.0
 11
287.094
 21
88.0869
 31
0.0
  0
LINE
  8
0
 62
     0
 10
287.094
 20
88.0869
 30
0.0
 11
287.094
 21
89.0669
 31
0.0
  0
LINE
  8
0
 62
     0
 10
287.094
 20
89.0669
 30
0.0
 11
285.368
 21
89.0669
 31
0.0
  0
LINE
  8
0
 62
     0
 10
285.368
 20
89.0669
 30
0.0
 11
285.368
 21
89.8673
 31
0.0
  0
LINE
  8
0
 62
     0
 10
285.368
 20
89.8673
 30
0.0
 11
284.594
 21
89.8673
 31
0.0
  0
LINE
  8
0
 62
     0
 10
284.594
 20
89.8673
 30
0.0
 11
284.594
 21
89.4373
 31
0.0
  0
LINE
  8
0
 62
     0
 10
284.594
 20
89.4373
 30
0.0
 11
283.793
 21
89.4373
 31
0.0
  0
LINE
  8
0
 62
     0
 10
283.793
 20
89.4373
 30
0.0
 11
283.793
 21
88.8379
 31
0.0
  0
LINE
  8
0
 62
     0
 10
283.793
 20
88.8379
 30
0.0
 11
269.794
 21
88.8379
 31
0.0
  0
LINE
  8
0
 62
     0
 10
269.794
 20
88.8379
 30
0.0
 11
269.794
 21
89.4373
 31
0.0
  0
LINE
  8
0
 62
     0
 10
269.794
 20
89.4373
 30
0.0
 11
268.993
 21
89.4373
 31
0.0
  0
LINE
  8
0
 62
     0
 10
268.993
 20
89.4373
 30
0.0
 11
268.993
 21
89.8673
 31
0.0
  0
LINE
  8
0
 62
     0
 10
268.993
 20
89.8673
 30
0.0
 11
268.219
 21
89.8673
 31
0.0
  0
LINE
  8
0
 62
     0
 10
268.219
 20
89.8673
 30
0.0
 11
268.219
 21
89.0669
 31
0.0
  0
LINE
  8
0
 62
     0
 10
268.219
 20
89.0669
 30
0.0
 11
266.493
 21
89.0669
 31
0.0
  0
LINE
  8
0
 62
     0
 10
266.493
 20
89.0669
 30
0.0
 11
266.493
 21
88.0869
 31
0.0
  0
LINE
  8
0
 62
     0
 10
266.493
 20
88.0869
 30
0.0
 11
263.194
 21
88.0869
 31
0.0
  0
LINE
  8
0
 62
     0
 10
263.194
 20
88.0869
 30
0.0
 11
263.194
 21
89.0669
 31
0.0
  0
LINE
  8
0
 62
     0
 10
263.194
 20
89.0669
 30
0.0
 11
261.568
 21
89.0669
 31
0.0
  0
LINE
  8
0
 62
     0
 10
261.568
 20
89.0669
 30
0.0
 11
261.568
 21
95.3368
 31
0.0
  0
LINE
  8
0
 62
     0
 10
261.568
 20
95.3368
 30
0.0
 11
260.693
 21
95.3368
 31
0.0
  0
LINE
  8
0
 62
     0
 10
260.693
 20
95.3368
 30
0.0
 11
260.693
 21
98.1371
 31
0.0
  0
LINE
  8
0
 62
     0
 10
260.693
 20
98.1371
 30
0.0
 11
261.568
 21
98.1371
 31
0.0
  0
LINE
  8
0
 62
     0
 10
261.568
 20
98.1371
 30
0.0
 11
261.568
 21
101.367
 31
0.0
  0
LINE
  8
0
 62
     0
 10
261.568
 20
101.367
 30
0.0
 11
263.194
 21
101.367
 31
0.0
  0
LINE
  8
0
 62
     0
 10
263.194
 20
101.367
 30
0.0
 11
263.194
 21
102.288
 31
0.0
  0
LINE
  8
0
 62
     0
 10
263.194
 20
102.288
 30
0.0
 11
266.493
 21
102.288
 31
0.0
  0
LINE
  8
0
 62
     0
 10
266.493
 20
102.288
 30
0.0
 11
266.493
 21
101.367
 31
0.0
  0
LINE
  8
0
 62
     0
 10
266.493
 20
101.367
 30
0.0
 11
268.219
 21
101.367
 31
0.0
  0
LINE
  8
0
 62
     0
 10
268.219
 20
101.367
 30
0.0
 11
268.219
 21
100.568
 31
0.0
  0
LINE
  8
0
 62
     0
 10
268.219
 20
100.568
 30
0.0
 11
268.993
 21
100.568
 31
0.0
  0
LINE
  8
0
 62
     0
 10
268.993
 20
100.568
 30
0.0
 11
268.993
 21
102.238
 31
0.0
  0
LINE
  8
0
 62
     0
 10
268.993
 20
102.238
 30
0.0
 11
269.794
 21
102.238
 31
0.0
  0
LINE
  8
0
 62
     0
 10
269.794
 20
102.238
 30
0.0
 11
269.794
 21
102.838
 31
0.0
  0
LINE
  8
0
 62
     0
 10
269.794
 20
102.838
 30
0.0
 11
283.793
 21
102.838
 31
0.0
  0
LINE
  8
0
 62
     0
 10
283.793
 20
102.838
 30
0.0
 11
283.793
 21
102.238
 31
0.0
  0
LINE
  8
0
 62
     0
 10
283.793
 20
102.238
 30
0.0
 11
284.594
 21
102.238
 31
0.0
  0
LINE
  8
0
 62
     0
 10
284.594
 20
102.238
 30
0.0
 11
284.594
 21
100.568
 31
0.0
  0
LINE
  8
0
 62
     0
 10
284.594
 20
100.568
 30
0.0
 11
285.368
 21
100.568
 31
0.0
  0
LINE
  8
0
 62
     0
 10
285.368
 20
100.568
 30
0.0
 11
285.368
 21
101.367
 31
0.0
  0
LINE
  8
0
 62
     0
 10
285.368
 20
101.367
 30
0.0
 11
287.094
 21
101.367
 31
0.0
  0
LINE
  8
0
 62
     0
 10
287.094
 20
101.367
 30
0.0
 11
287.094
 21
102.288
 31
0.0
  0
LINE
  8
0
 62
     0
 10
287.094
 20
102.288
 30
0.0
 11
290.394
 21
102.288
 31
0.0
  0
LINE
  8
0
 62
     0
 10
290.394
 20
102.288
 30
0.0
 11
290.394
 21
101.367
 31
0.0
  0
LINE
  8
0
 62
     0
 10
290.394
 20
101.367
 30
0.0
 11
292.019
 21
101.367
 31
0.0
  0
LINE
  8
0
 62
     0
 10
292.019
 20
101.367
 30
0.0
 11
292.019
 21
98.1371
 31
0.0
  0
LINE
  8
0
 62
     0
 10
292.019
 20
98.1371
 30
0.0
 11
292.894
 21
98.1371
 31
0.0
  0
LINE
  8
0
 62
     0
 10
292.894
 20
98.1371
 30
0.0
 11
292.894
 21
95.3368
 31
0.0
  0
LINE
  8
0
 62
     0
 10
292.894
 20
95.3368
 30
0.0
 11
292.019
 21
95.3368
 31
0.0
  0
LINE
  8
0
 62
     0
 10
293.318
 20
118.012
 30
0.0
 11
293.318
 21
117.413
 31
0.0
  0
LINE
  8
0
 62
     0
 10
293.318
 20
117.413
 30
0.0
 11
279.319
 21
117.413
 31
0.0
  0
LINE
  8
0
 62
     0
 10
279.319
 20
117.413
 30
0.0
 11
279.319
 21
118.012
 31
0.0
  0
LINE
  8
0
 62
     0
 10
279.319
 20
118.012
 30
0.0
 11
278.518
 21
118.012
 31
0.0
  0
LINE
  8
0
 62
     0
 10
278.518
 20
118.012
 30
0.0
 11
278.518
 21
130.813
 31
0.0
  0
LINE
  8
0
 62
     0
 10
278.518
 20
130.813
 30
0.0
 11
279.319
 21
130.813
 31
0.0
  0
LINE
  8
0
 62
     0
 10
279.319
 20
130.813
 30
0.0
 11
279.319
 21
131.413
 31
0.0
  0
LINE
  8
0
 62
     0
 10
279.319
 20
131.413
 30
0.0
 11
293.318
 21
131.413
 31
0.0
  0
LINE
  8
0
 62
     0
 10
293.318
 20
131.413
 30
0.0
 11
293.318
 21
130.813
 31
0.0
  0
LINE
  8
0
 62
     0
 10
293.318
 20
130.813
 30
0.0
 11
294.119
 21
130.813
 31
0.0
  0
LINE
  8
0
 62
     0
 10
294.119
 20
130.813
 30
0.0
 11
294.119
 21
118.012
 31
0.0
  0
LINE
  8
0
 62
     0
 10
294.119
 20
118.012
 30
0.0
 11
293.318
 21
118.012
 31
0.0
  0
LINE
  8
0
 62
     0
 10
317.132
 20
89.4373
 30
0.0
 11
317.132
 21
88.8379
 31
0.0
  0
LINE
  8
0
 62
     0
 10
317.132
 20
88.8379
 30
0.0
 11
303.131
 21
88.8379
 31
0.0
  0
LINE
  8
0
 62
     0
 10
303.131
 20
88.8379
 30
0.0
 11
303.131
 21
89.4373
 31
0.0
  0
LINE
  8
0
 62
     0
 10
303.131
 20
89.4373
 30
0.0
 11
302.332
 21
89.4373
 31
0.0
  0
LINE
  8
0
 62
     0
 10
302.332
 20
89.4373
 30
0.0
 11
302.332
 21
102.238
 31
0.0
  0
LINE
  8
0
 62
     0
 10
302.332
 20
102.238
 30
0.0
 11
303.131
 21
102.238
 31
0.0
  0
LINE
  8
0
 62
     0
 10
303.131
 20
102.238
 30
0.0
 11
303.131
 21
102.838
 31
0.0
  0
LINE
  8
0
 62
     0
 10
303.131
 20
102.838
 30
0.0
 11
317.132
 21
102.838
 31
0.0
  0
LINE
  8
0
 62
     0
 10
317.132
 20
102.838
 30
0.0
 11
317.132
 21
102.238
 31
0.0
  0
LINE
  8
0
 62
     0
 10
317.132
 20
102.238
 30
0.0
 11
317.931
 21
102.238
 31
0.0
  0
LINE
  8
0
 62
     0
 10
317.931
 20
102.238
 30
0.0
 11
317.931
 21
89.4373
 31
0.0
  0
LINE
  8
0
 62
     0
 10
317.931
 20
89.4373
 30
0.0
 11
317.132
 21
89.4373
 31
0.0
  0
LINE
  8
0
 62
     0
 10
317.132
 20
13.2374
 30
0.0
 11
317.132
 21
12.638
 31
0.0
  0
LINE
  8
0
 62
     0
 10
317.132
 20
12.638
 30
0.0
 11
303.131
 21
12.638
 31
0.0
  0
LINE
  8
0
 62
     0
 10
303.131
 20
12.638
 30
0.0
 11
303.131
 21
13.2374
 31
0.0
  0
LINE
  8
0
 62
     0
 10
303.131
 20
13.2374
 30
0.0
 11
302.332
 21
13.2374
 31
0.0
  0
LINE
  8
0
 62
     0
 10
302.332
 20
13.2374
 30
0.0
 11
302.332
 21
26.038
 31
0.0
  0
LINE
  8
0
 62
     0
 10
302.332
 20
26.038
 30
0.0
 11
303.131
 21
26.038
 31
0.0
  0
LINE
  8
0
 62
     0
 10
303.131
 20
26.038
 30
0.0
 11
303.131
 21
26.6375
 31
0.0
  0
LINE
  8
0
 62
     0
 10
303.131
 20
26.6375
 30
0.0
 11
317.132
 21
26.6375
 31
0.0
  0
LINE
  8
0
 62
     0
 10
317.132
 20
26.6375
 30
0.0
 11
317.132
 21
26.038
 31
0.0
  0
LINE
  8
0
 62
     0
 10
317.132
 20
26.038
 30
0.0
 11
317.931
 21
26.038
 31
0.0
  0
LINE
  8
0
 62
     0
 10
317.931
 20
26.038
 30
0.0
 11
317.931
 21
13.2374
 31
0.0
  0
LINE
  8
0
 62
     0
 10
317.931
 20
13.2374
 30
0.0
 11
317.132
 21
13.2374
 31
0.0
  0
LINE
  8
0
 62
     0
 10
317.132
 20
118.012
 30
0.0
 11
317.132
 21
117.413
 31
0.0
  0
LINE
  8
0
 62
     0
 10
317.132
 20
117.413
 30
0.0
 11
303.131
 21
117.413
 31
0.0
  0
LINE
  8
0
 62
     0
 10
303.131
 20
117.413
 30
0.0
 11
303.131
 21
118.012
 31
0.0
  0
LINE
  8
0
 62
     0
 10
303.131
 20
118.012
 30
0.0
 11
302.332
 21
118.012
 31
0.0
  0
LINE
  8
0
 62
     0
 10
302.332
 20
118.012
 30
0.0
 11
302.332
 21
130.813
 31
0.0
  0
LINE
  8
0
 62
     0
 10
302.332
 20
130.813
 30
0.0
 11
303.131
 21
130.813
 31
0.0
  0
LINE
  8
0
 62
     0
 10
303.131
 20
130.813
 30
0.0
 11
303.131
 21
131.413
 31
0.0
  0
LINE
  8
0
 62
     0
 10
303.131
 20
131.413
 30
0.0
 11
317.132
 21
131.413
 31
0.0
  0
LINE
  8
0
 62
     0
 10
317.132
 20
131.413
 30
0.0
 11
317.132
 21
130.813
 31
0.0
  0
LINE
  8
0
 62
     0
 10
317.132
 20
130.813
 30
0.0
 11
317.931
 21
130.813
 31
0.0
  0
LINE
  8
0
 62
     0
 10
317.931
 20
130.813
 30
0.0
 11
317.931
 21
118.012
 31
0.0
  0
LINE
  8
0
 62
     0
 10
317.931
 20
118.012
 30
0.0
 11
317.132
 21
118.012
 31
0.0
  0
LINE
  8
0
 62
     0
 10
317.132
 20
70.3873
 30
0.0
 11
317.132
 21
69.7879
 31
0.0
  0
LINE
  8
0
 62
     0
 10
317.132
 20
69.7879
 30
0.0
 11
303.131
 21
69.7879
 31
0.0
  0
LINE
  8
0
 62
     0
 10
303.131
 20
69.7879
 30
0.0
 11
303.131
 21
70.3873
 31
0.0
  0
LINE
  8
0
 62
     0
 10
303.131
 20
70.3873
 30
0.0
 11
302.332
 21
70.3873
 31
0.0
  0
LINE
  8
0
 62
     0
 10
302.332
 20
70.3873
 30
0.0
 11
302.332
 21
83.1882
 31
0.0
  0
LINE
  8
0
 62
     0
 10
302.332
 20
83.1882
 30
0.0
 11
303.131
 21
83.1882
 31
0.0
  0
LINE
  8
0
 62
     0
 10
303.131
 20
83.1882
 30
0.0
 11
303.131
 21
83.7875
 31
0.0
  0
LINE
  8
0
 62
     0
 10
303.131
 20
83.7875
 30
0.0
 11
317.132
 21
83.7875
 31
0.0
  0
LINE
  8
0
 62
     0
 10
317.132
 20
83.7875
 30
0.0
 11
317.132
 21
83.1882
 31
0.0
  0
LINE
  8
0
 62
     0
 10
317.132
 20
83.1882
 30
0.0
 11
317.931
 21
83.1882
 31
0.0
  0
LINE
  8
0
 62
     0
 10
317.931
 20
83.1882
 30
0.0
 11
317.931
 21
70.3873
 31
0.0
  0
LINE
  8
0
 62
     0
 10
317.931
 20
70.3873
 30
0.0
 11
317.132
 21
70.3873
 31
0.0
  0
LINE
  8
0
 62
     0
 10
336.182
 20
89.4373
 30
0.0
 11
336.182
 21
88.8379
 31
0.0
  0
LINE
  8
0
 62
     0
 10
336.182
 20
88.8379
 30
0.0
 11
322.181
 21
88.8379
 31
0.0
  0
LINE
  8
0
 62
     0
 10
322.181
 20
88.8379
 30
0.0
 11
322.181
 21
89.4373
 31
0.0
  0
LINE
  8
0
 62
     0
 10
322.181
 20
89.4373
 30
0.0
 11
321.382
 21
89.4373
 31
0.0
  0
LINE
  8
0
 62
     0
 10
321.382
 20
89.4373
 30
0.0
 11
321.382
 21
102.238
 31
0.0
  0
LINE
  8
0
 62
     0
 10
321.382
 20
102.238
 30
0.0
 11
322.181
 21
102.238
 31
0.0
  0
LINE
  8
0
 62
     0
 10
322.181
 20
102.238
 30
0.0
 11
322.181
 21
102.838
 31
0.0
  0
LINE
  8
0
 62
     0
 10
322.181
 20
102.838
 30
0.0
 11
336.182
 21
102.838
 31
0.0
  0
LINE
  8
0
 62
     0
 10
336.182
 20
102.838
 30
0.0
 11
336.182
 21
102.238
 31
0.0
  0
LINE
  8
0
 62
     0
 10
336.182
 20
102.238
 30
0.0
 11
336.981
 21
102.238
 31
0.0
  0
LINE
  8
0
 62
     0
 10
336.981
 20
102.238
 30
0.0
 11
336.981
 21
89.4373
 31
0.0
  0
LINE
  8
0
 62
     0
 10
336.981
 20
89.4373
 30
0.0
 11
336.182
 21
89.4373
 31
0.0
  0
LINE
  8
0
 62
     0
 10
336.182
 20
13.2374
 30
0.0
 11
336.182
 21
12.638
 31
0.0
  0
LINE
  8
0
 62
     0
 10
336.182
 20
12.638
 30
0.0
 11
322.181
 21
12.638
 31
0.0
  0
LINE
  8
0
 62
     0
 10
322.181
 20
12.638
 30
0.0
 11
322.181
 21
13.2374
 31
0.0
  0
LINE
  8
0
 62
     0
 10
322.181
 20
13.2374
 30
0.0
 11
321.382
 21
13.2374
 31
0.0
  0
LINE
  8
0
 62
     0
 10
321.382
 20
13.2374
 30
0.0
 11
321.382
 21
26.038
 31
0.0
  0
LINE
  8
0
 62
     0
 10
321.382
 20
26.038
 30
0.0
 11
322.181
 21
26.038
 31
0.0
  0
LINE
  8
0
 62
     0
 10
322.181
 20
26.038
 30
0.0
 11
322.181
 21
26.6375
 31
0.0
  0
LINE
  8
0
 62
     0
 10
322.181
 20
26.6375
 30
0.0
 11
336.182
 21
26.6375
 31
0.0
  0
LINE
  8
0
 62
     0
 10
336.182
 20
26.6375
 30
0.0
 11
336.182
 21
26.038
 31
0.0
  0
LINE
  8
0
 62
     0
 10
336.182
 20
26.038
 30
0.0
 11
336.981
 21
26.038
 31
0.0
  0
LINE
  8
0
 62
     0
 10
336.981
 20
26.038
 30
0.0
 11
336.981
 21
13.2374
 31
0.0
  0
LINE
  8
0
 62
     0
 10
336.981
 20
13.2374
 30
0.0
 11
336.182
 21
13.2374
 31
0.0
  0
LINE
  8
0
 62
     0
 10
336.182
 20
118.012
 30
0.0
 11
336.182
 21
117.413
 31
0.0
  0
LINE
  8
0
 62
     0
 10
336.182
 20
117.413
 30
0.0
 11
322.181
 21
117.413
 31
0.0
  0
LINE
  8
0
 62
     0
 10
322.181
 20
117.413
 30
0.0
 11
322.181
 21
118.012
 31
0.0
  0
LINE
  8
0
 62
     0
 10
322.181
 20
118.012
 30
0.0
 11
321.382
 21
118.012
 31
0.0
  0
LINE
  8
0
 62
     0
 10
321.382
 20
118.012
 30
0.0
 11
321.382
 21
130.813
 31
0.0
  0
LINE
  8
0
 62
     0
 10
321.382
 20
130.813
 30
0.0
 11
322.181
 21
130.813
 31
0.0
  0
LINE
  8
0
 62
     0
 10
322.181
 20
130.813
 30
0.0
 11
322.181
 21
131.413
 31
0.0
  0
LINE
  8
0
 62
     0
 10
322.181
 20
131.413
 30
0.0
 11
336.182
 21
131.413
 31
0.0
  0
LINE
  8
0
 62
     0
 10
336.182
 20
131.413
 30
0.0
 11
336.182
 21
130.813
 31
0.0
  0
LINE
  8
0
 62
     0
 10
336.182
 20
130.813
 30
0.0
 11
336.981
 21
130.813
 31
0.0
  0
LINE
  8
0
 62
     0
 10
336.981
 20
130.813
 30
0.0
 11
336.981
 21
118.012
 31
0.0
  0
LINE
  8
0
 62
     0
 10
336.981
 20
118.012
 30
0.0
 11
336.182
 21
118.012
 31
0.0
  0
LINE
  8
0
 62
     0
 10
336.182
 20
70.3873
 30
0.0
 11
336.182
 21
69.7879
 31
0.0
  0
LINE
  8
0
 62
     0
 10
336.182
 20
69.7879
 30
0.0
 11
322.181
 21
69.7879
 31
0.0
  0
LINE
  8
0
 62
     0
 10
322.181
 20
69.7879
 30
0.0
 11
322.181
 21
70.3873
 31
0.0
  0
LINE
  8
0
 62
     0
 10
322.181
 20
70.3873
 30
0.0
 11
321.382
 21
70.3873
 31
0.0
  0
LINE
  8
0
 62
     0
 10
321.382
 20
70.3873
 30
0.0
 11
321.382
 21
83.1882
 31
0.0
  0
LINE
  8
0
 62
     0
 10
321.382
 20
83.1882
 30
0.0
 11
322.181
 21
83.1882
 31
0.0
  0
LINE
  8
0
 62
     0
 10
322.181
 20
83.1882
 30
0.0
 11
322.181
 21
83.7875
 31
0.0
  0
LINE
  8
0
 62
     0
 10
322.181
 20
83.7875
 30
0.0
 11
336.182
 21
83.7875
 31
0.0
  0
LINE
  8
0
 62
     0
 10
336.182
 20
83.7875
 30
0.0
 11
336.182
 21
83.1882
 31
0.0
  0
LINE
  8
0
 62
     0
 10
336.182
 20
83.1882
 30
0.0
 11
336.981
 21
83.1882
 31
0.0
  0
LINE
  8
0
 62
     0
 10
336.981
 20
83.1882
 30
0.0
 11
336.981
 21
70.3873
 31
0.0
  0
LINE
  8
0
 62
     0
 10
336.981
 20
70.3873
 30
0.0
 11
336.182
 21
70.3873
 31
0.0
  0
LINE
  8
0
 62
     0
 10
336.182
 20
32.2874
 30
0.0
 11
336.182
 21
31.688
 31
0.0
  0
LINE
  8
0
 62
     0
 10
336.182
 20
31.688
 30
0.0
 11
322.181
 21
31.688
 31
0.0
  0
LINE
  8
0
 62
     0
 10
322.181
 20
31.688
 30
0.0
 11
322.181
 21
32.2874
 31
0.0
  0
LINE
  8
0
 62
     0
 10
322.181
 20
32.2874
 30
0.0
 11
321.382
 21
32.2874
 31
0.0
  0
LINE
  8
0
 62
     0
 10
321.382
 20
32.2874
 30
0.0
 11
321.382
 21
45.0882
 31
0.0
  0
LINE
  8
0
 62
     0
 10
321.382
 20
45.0882
 30
0.0
 11
322.181
 21
45.0882
 31
0.0
  0
LINE
  8
0
 62
     0
 10
322.181
 20
45.0882
 30
0.0
 11
322.181
 21
45.6875
 31
0.0
  0
LINE
  8
0
 62
     0
 10
322.181
 20
45.6875
 30
0.0
 11
336.182
 21
45.6875
 31
0.0
  0
LINE
  8
0
 62
     0
 10
336.182
 20
45.6875
 30
0.0
 11
336.182
 21
45.0882
 31
0.0
  0
LINE
  8
0
 62
     0
 10
336.182
 20
45.0882
 30
0.0
 11
336.981
 21
45.0882
 31
0.0
  0
LINE
  8
0
 62
     0
 10
336.981
 20
45.0882
 30
0.0
 11
336.981
 21
32.2874
 31
0.0
  0
LINE
  8
0
 62
     0
 10
336.981
 20
32.2874
 30
0.0
 11
336.182
 21
32.2874
 31
0.0
  0
LINE
  8
0
 62
     0
 10
355.233
 20
89.4373
 30
0.0
 11
355.233
 21
88.8379
 31
0.0
  0
LINE
  8
0
 62
     0
 10
355.233
 20
88.8379
 30
0.0
 11
341.231
 21
88.8379
 31
0.0
  0
LINE
  8
0
 62
     0
 10
341.231
 20
88.8379
 30
0.0
 11
341.231
 21
89.4373
 31
0.0
  0
LINE
  8
0
 62
     0
 10
341.231
 20
89.4373
 30
0.0
 11
340.432
 21
89.4373
 31
0.0
  0
LINE
  8
0
 62
     0
 10
340.432
 20
89.4373
 30
0.0
 11
340.432
 21
102.238
 31
0.0
  0
LINE
  8
0
 62
     0
 10
340.432
 20
102.238
 30
0.0
 11
341.231
 21
102.238
 31
0.0
  0
LINE
  8
0
 62
     0
 10
341.231
 20
102.238
 30
0.0
 11
341.231
 21
102.838
 31
0.0
  0
LINE
  8
0
 62
     0
 10
341.231
 20
102.838
 30
0.0
 11
355.233
 21
102.838
 31
0.0
  0
LINE
  8
0
 62
     0
 10
355.233
 20
102.838
 30
0.0
 11
355.233
 21
102.238
 31
0.0
  0
LINE
  8
0
 62
     0
 10
355.233
 20
102.238
 30
0.0
 11
356.03
 21
102.238
 31
0.0
  0
LINE
  8
0
 62
     0
 10
356.03
 20
102.238
 30
0.0
 11
356.03
 21
89.4373
 31
0.0
  0
LINE
  8
0
 62
     0
 10
356.03
 20
89.4373
 30
0.0
 11
355.233
 21
89.4373
 31
0.0
  0
LINE
  8
0
 62
     0
 10
355.233
 20
13.2374
 30
0.0
 11
355.233
 21
12.638
 31
0.0
  0
LINE
  8
0
 62
     0
 10
355.233
 20
12.638
 30
0.0
 11
341.231
 21
12.638
 31
0.0
  0
LINE
  8
0
 62
     0
 10
341.231
 20
12.638
 30
0.0
 11
341.231
 21
13.2374
 31
0.0
  0
LINE
  8
0
 62
     0
 10
341.231
 20
13.2374
 30
0.0
 11
340.432
 21
13.2374
 31
0.0
  0
LINE
  8
0
 62
     0
 10
340.432
 20
13.2374
 30
0.0
 11
340.432
 21
26.038
 31
0.0
  0
LINE
  8
0
 62
     0
 10
340.432
 20
26.038
 30
0.0
 11
341.231
 21
26.038
 31
0.0
  0
LINE
  8
0
 62
     0
 10
341.231
 20
26.038
 30
0.0
 11
341.231
 21
26.6375
 31
0.0
  0
LINE
  8
0
 62
     0
 10
341.231
 20
26.6375
 30
0.0
 11
355.233
 21
26.6375
 31
0.0
  0
LINE
  8
0
 62
     0
 10
355.233
 20
26.6375
 30
0.0
 11
355.233
 21
26.038
 31
0.0
  0
LINE
  8
0
 62
     0
 10
355.233
 20
26.038
 30
0.0
 11
356.03
 21
26.038
 31
0.0
  0
LINE
  8
0
 62
     0
 10
356.03
 20
26.038
 30
0.0
 11
356.03
 21
13.2374
 31
0.0
  0
LINE
  8
0
 62
     0
 10
356.03
 20
13.2374
 30
0.0
 11
355.233
 21
13.2374
 31
0.0
  0
LINE
  8
0
 62
     0
 10
355.233
 20
118.012
 30
0.0
 11
355.233
 21
117.413
 31
0.0
  0
LINE
  8
0
 62
     0
 10
355.233
 20
117.413
 30
0.0
 11
341.231
 21
117.413
 31
0.0
  0
LINE
  8
0
 62
     0
 10
341.231
 20
117.413
 30
0.0
 11
341.231
 21
118.012
 31
0.0
  0
LINE
  8
0
 62
     0
 10
341.231
 20
118.012
 30
0.0
 11
340.432
 21
118.012
 31
0.0
  0
LINE
  8
0
 62
     0
 10
340.432
 20
118.012
 30
0.0
 11
340.432
 21
130.813
 31
0.0
  0
LINE
  8
0
 62
     0
 10
340.432
 20
130.813
 30
0.0
 11
341.231
 21
130.813
 31
0.0
  0
LINE
  8
0
 62
     0
 10
341.231
 20
130.813
 30
0.0
 11
341.231
 21
131.413
 31
0.0
  0
LINE
  8
0
 62
     0
 10
341.231
 20
131.413
 30
0.0
 11
355.233
 21
131.413
 31
0.0
  0
LINE
  8
0
 62
     0
 10
355.233
 20
131.413
 30
0.0
 11
355.233
 21
130.813
 31
0.0
  0
LINE
  8
0
 62
     0
 10
355.233
 20
130.813
 30
0.0
 11
356.03
 21
130.813
 31
0.0
  0
LINE
  8
0
 62
     0
 10
356.03
 20
130.813
 30
0.0
 11
356.03
 21
118.012
 31
0.0
  0
LINE
  8
0
 62
     0
 10
356.03
 20
118.012
 30
0.0
 11
355.233
 21
118.012
 31
0.0
  0
LINE
  8
0
 62
     0
 10
355.233
 20
70.3873
 30
0.0
 11
355.233
 21
69.7879
 31
0.0
  0
LINE
  8
0
 62
     0
 10
355.233
 20
69.7879
 30
0.0
 11
341.231
 21
69.7879
 31
0.0
  0
LINE
  8
0
 62
     0
 10
341.231
 20
69.7879
 30
0.0
 11
341.231
 21
70.3873
 31
0.0
  0
LINE
  8
0
 62
     0
 10
341.231
 20
70.3873
 30
0.0
 11
340.432
 21
70.3873
 31
0.0
  0
LINE
  8
0
 62
     0
 10
340.432
 20
70.3873
 30
0.0
 11
340.432
 21
83.1882
 31
0.0
  0
LINE
  8
0
 62
     0
 10
340.432
 20
83.1882
 30
0.0
 11
341.231
 21
83.1882
 31
0.0
  0
LINE
  8
0
 62
     0
 10
341.231
 20
83.1882
 30
0.0
 11
341.231
 21
83.7875
 31
0.0
  0
LINE
  8
0
 62
     0
 10
341.231
 20
83.7875
 30
0.0
 11
355.233
 21
83.7875
 31
0.0
  0
LINE
  8
0
 62
     0
 10
355.233
 20
83.7875
 30
0.0
 11
355.233
 21
83.1882
 31
0.0
  0
LINE
  8
0
 62
     0
 10
355.233
 20
83.1882
 30
0.0
 11
356.03
 21
83.1882
 31
0.0
  0
LINE
  8
0
 62
     0
 10
356.03
 20
83.1882
 30
0.0
 11
356.03
 21
70.3873
 31
0.0
  0
LINE
  8
0
 62
     0
 10
356.03
 20
70.3873
 30
0.0
 11
355.233
 21
70.3873
 31
0.0
  0
ENDSEC
  0
EOF
